<svg xmlns="http://www.w3.org/2000/svg" viewBox="0 0 16 16">
	<style type="text/css">
		.green{fill:#49CD3E;}
		.dark-blue{fill:#0D7CA8;}
		.blue{fill:#1AA5DA;}
		.letter{fill:#1D1D1B;}
		.letter-border{fill:#FFFFFF;opacity:0.33;}
		@media (prefers-color-scheme: dark) {
			.letter{fill: #FFFFFF;}
			.letter-border{fill:#000000;opacity:0.33;}
		}
	</style>
	<rect fill="none" width="16" height="16"/>
	<polygon class="letter-border" points="112.7,7.5 11.5,9.7 10.3,7.5 8.5,7.5 8.5,15.5 10.5,15.5 10.5,12.1 11.1,13.2 11.9,13.2 12.5,12.1
		12.5,15.5 14.5,15.5 14.5,7.5 "/>
	<path class="blue" d="M7,0c0.4,1.8,0.8,3.5,1.1,5.3c1.6,0,2.5,0.4,2.8,1.2l-0.6-5.1C10.1,0.3,8.4,0.1,7,0z"/>
	<path class="dark-blue" d="M0,6.6c2.7-5.4,9.1-2.2,10.3-5.2c0.2,1.7,0.4,3.4,0.6,5.2c0.1,0.6-0.3,0.8-0.8,1c-1.6,0.7-5.2,0.8-6.9,4.6
		C2.1,10.4,1.1,8.5,0,6.6z"/>
	<path class="blue" d="M3,7.7l2,6c0,0,0-1.4,1.9-2.1c1.5-0.6,2.9-0.3,4.6-0.7c0.2,0,0.9-0.2,1.2-0.3c2.1-1,2.3-1.8,2.3-1.8V0.7
		c0,0-0.2,1.7-1.9,2.7S9.8,4.5,7.6,4.8C5.3,5,2.9,5.8,3,7.7z"/>
	<path class="green" d="M3,7.7c0.5,1.2,1.6,1.9,4,1.5V15c-0.6,0-1.3-0.4-2-1.3L3,7.7z"/>
	<polygon class="letter" points="13,8 11.5,10.8 10,8 9,8 9,15 10,15 10,10.1 11.4,12.7 11.6,12.7 13,10.1 13,15 14,15 14,8 "/>
</svg>
