<?xml version="1.0" encoding="utf-8"?>
<!-- Generator: Adobe Illustrator 23.0.0, SVG Export Plug-In . SVG Version: 6.00 Build 0)  -->
<svg version="1.1" id="Слой_1" xmlns="http://www.w3.org/2000/svg" xmlns:xlink="http://www.w3.org/1999/xlink" x="0px" y="0px"
	 viewBox="0 0 80 80" style="enable-background:new 0 0 80 80;" xml:space="preserve">
<style type="text/css">
	.st0{fill:#DBF4FA;}
</style>
<g>
	<rect x="48.2" y="54" class="st0" width="0" height="0"/>
	<polygon class="st0" points="1.9,44 1.8,44 1.8,43.8 1.7,43.9 1.5,43.8 1.5,43.4 1.6,43.1 1.5,42.8 1.3,42.6 1.3,42.5 1.1,42.3 
		1.1,42.6 0.8,42.4 0.5,42.3 0.1,42.3 0.1,42.4 0.3,42.5 0.4,42.9 0.2,43.2 0.3,43.7 0.6,43.7 0.9,43.8 1.2,43.9 1.4,43.9 1.5,44.1 
		1.8,44.4 1.9,44.3 2.1,44.3 	"/>
	<polygon class="st0" points="58,28.5 57.7,28.4 57.8,28.7 57.9,28.8 58,28.8 	"/>
	<polygon class="st0" points="56,27.1 56,27.3 56,27.3 56.1,27.4 56.1,27.5 56.2,27.7 56.4,27.8 56.6,27.9 56.7,28.1 56.8,28.2 
		57.1,28.2 57.2,28.2 57.2,27.9 57.2,27.7 57.2,27.8 57.3,27.9 57.4,27.8 57.5,27.7 57.8,27.5 57.9,27.5 58,27.5 58.1,27.5 
		58.2,27.4 58.3,27.3 58.4,27.2 58.2,27.1 58,27.1 57.7,26.9 57.6,26.6 57.8,26.4 57.8,26.4 58.3,27.1 58.5,26.8 58.4,26.4 
		58.5,26.3 58.6,26.2 58.2,26.2 57.9,26.1 57.8,26.2 57.6,26.2 57.3,26.1 57.1,26 57.1,26.1 57.2,26.2 57.1,26.2 57,26.2 57,26.3 
		57.1,26.5 57.1,26.6 57.2,26.6 56.9,26.6 56.7,26.5 56.5,26.4 56.4,26.4 56.4,26.3 56.4,26.2 56.3,26.3 56.2,26.5 56.1,26.6 
		56,26.7 56,26.8 56,26.9 56,27 	"/>
	<polygon class="st0" points="56.1,29.1 56.3,29.3 56.5,29.4 56.4,29.2 	"/>
	<polygon class="st0" points="55.7,27.7 55.7,27.6 55.7,27.3 55.7,27.2 55.5,27.3 55.7,27.5 	"/>
	<polygon class="st0" points="59.3,26.6 59.7,26.6 60.1,26.5 60.5,26.2 60.5,26 60.4,25.9 60.3,25.9 60.1,25.9 59.8,25.9 59.8,26 
		59.8,26.1 59.6,26 59.6,25.9 59.4,25.9 59.2,26 59.2,26.2 59.1,26.3 59,26.1 59,26 58.9,26.2 59,26.5 	"/>
	<polygon class="st0" points="48.2,30.4 48.2,30.4 48.2,30.5 48.2,30.7 48.1,30.7 48.2,30.8 48.4,31 48.6,30.9 48.6,30.8 48.3,30.4 
			"/>
	<polygon class="st0" points="58.2,32 58.2,31.9 58.1,31.9 57.9,31.9 57.9,32 58,32.1 	"/>
	<polygon class="st0" points="58.2,28.9 58.2,29.2 58.1,29.3 58,29.4 57.9,29.5 58.1,29.5 58.3,29.4 58.4,29.3 58.7,29.3 59.1,29.2 
		59.1,29.3 59.2,29 59.2,28.9 59.1,28.9 58.7,28.6 58.3,28.6 	"/>
	<polygon class="st0" points="79,40 78.7,39.9 78.7,39.7 78.5,39.9 78.5,40 78.7,40 78.9,40.1 79.3,40 79.1,39.9 	"/>
	<polygon class="st0" points="75.7,37.5 75.7,37.6 75.7,37.8 75.7,38.1 75.7,38.4 75.7,38.5 75.8,38.5 75.8,38.4 75.8,38.2 
		75.9,38.1 75.9,38 75.9,37.9 75.9,37.8 76,37.7 75.9,37.5 	"/>
	<polygon class="st0" points="80,39.5 79.5,39.6 79.5,39.6 79.7,39.6 79.8,39.6 80,39.6 	"/>
	<polygon class="st0" points="39.7,20.9 39.9,20.9 40,20.8 39.7,20.7 39.6,20.8 39.6,20.9 	"/>
	<polygon class="st0" points="42.6,21.2 42.7,21 42.4,21 42.3,21.1 42.3,21.1 42.4,21.1 	"/>
	<polygon class="st0" points="42.5,23.1 42.5,23.2 42.5,23.2 42.8,23.2 42.9,22.9 42.7,22.8 42.5,22.7 42.4,22.7 42.2,22.7 42.2,23 
		42.4,23 	"/>
	<polygon class="st0" points="36.3,31.4 36.6,31.4 36.6,31.1 36.6,30.9 36.2,31.2 	"/>
	<polygon class="st0" points="38.2,28.6 38.3,28.7 38.4,28.4 38.3,28.3 38.3,28.4 38.1,28.5 38.2,28.5 	"/>
	<polygon class="st0" points="38.5,22.5 38.5,22.6 38.6,22.6 38.6,22.5 38.5,22.5 38.3,22.4 38.5,22.5 	"/>
	<polygon class="st0" points="46.3,25.5 46.2,25.5 46.2,25.5 46.1,25.6 46.2,25.6 	"/>
	<polygon class="st0" points="46.5,25.8 46.6,25.7 46.5,25.6 46.4,25.6 46.3,25.6 46.3,25.7 46.3,25.8 46.3,25.8 	"/>
	<polygon class="st0" points="42.6,22.1 42.6,22.2 42.6,22.2 42.6,22.3 42.6,22.3 42.6,22.3 42.6,22.3 42.5,22.3 42.4,22.4 
		42.5,22.4 42.6,22.4 42.6,22.5 42.7,22.6 42.6,22.6 42.6,22.6 42.6,22.6 42.6,22.6 42.6,22.6 42.7,22.6 42.8,22.7 42.9,22.8 
		43,22.7 43.1,22.6 43.7,22.6 43.8,22.5 43.8,22.3 43.8,22.1 44,22 44.1,21.9 44.1,21.8 44,21.7 44,21.7 43.9,21.7 43.7,21.3 
		43.7,21 43.5,21 43.5,21.1 43.1,21.3 42.8,21.6 42.8,21.7 42.9,21.8 42.9,21.8 42.8,21.9 42.8,22 42.7,22.1 	"/>
	<polygon class="st0" points="44.5,24.9 44.4,25.1 44.4,25.3 44.3,25.5 44.2,25.8 44.4,25.9 44.6,25.8 44.8,25.6 45.1,25.6 
		45.5,25.5 45.8,25.4 45.9,25.1 45.9,24.9 45.8,24.7 45.7,24.7 45.7,24.8 45.6,24.8 45.6,24.7 45.6,24.6 45.5,24.5 45.5,24.4 
		45.5,24.4 45.5,24.3 45.3,24.4 45.1,24.7 45.1,24.7 45.1,24.7 45.1,24.7 45.3,24 45.1,23.9 45.1,23.9 45.1,24.1 45,24.2 45,24.1 
		45,24 44.9,24 44.8,24.1 44.8,24.3 44.8,24.4 44.8,24.5 44.8,24.5 44.7,24.6 44.7,24.7 44.7,24.8 44.7,24.8 44.6,24.8 44.6,24.8 	
		"/>
	<polygon class="st0" points="48.1,27.9 48.2,28 48.2,27.8 48.1,27.7 48,27.7 48.1,27.8 	"/>
	<polygon class="st0" points="42.9,28.1 43,28.2 43.1,28.3 43.1,28.2 43.1,28.1 43,28.1 	"/>
	<polygon class="st0" points="43.9,23.3 43.8,23.4 43.7,23.4 43.8,23.3 43.9,23.2 43.9,23.2 43.9,23.2 43.8,23.2 43.7,23.3 
		43.6,23.3 43.9,23.1 44,22.8 43.7,22.7 43.4,22.8 43.3,22.8 43.3,22.8 43.3,22.8 43.2,22.8 43,23 43.1,23.1 43.1,23.2 43,23.2 
		42.9,23.2 42.9,23.3 42.8,23.4 42.7,23.4 42.7,23.5 42.7,23.6 42.8,23.6 42.8,23.5 42.8,23.5 42.9,23.4 42.9,23.5 42.9,23.6 
		42.9,23.6 43,23.7 42.9,23.8 42.9,24 43,24 43,24.1 43,24.1 43,24.2 43.1,24.3 43.2,24.3 43.3,24.2 43.3,24.3 43.3,24.3 43.3,24.3 
		43.5,24.3 43.7,24.5 43.8,24.7 44.1,24.7 44.5,24.5 44.4,24.4 44.4,24.2 44.3,24 44.3,24 44.4,24 44.5,23.7 44.5,23.3 44.3,22.9 
		44.1,23 	"/>
	<polygon class="st0" points="43.3,26.9 43.1,26.9 43,27 43,27 42.9,27.1 43,27.1 43.1,27.1 	"/>
	<polygon class="st0" points="35.2,18.2 35.3,18.2 35.3,18.2 35.2,18 35,18 34.9,18 34.9,17.9 34.8,17.9 34.8,18.1 35,18.2 	"/>
	<polygon class="st0" points="34.5,20 34.7,20.2 34.7,20 34.7,19.9 	"/>
	<polygon class="st0" points="34.8,18.6 34.9,18.8 35,18.8 35,18.4 34.9,18.4 34.8,18.3 34.7,18.3 34.8,18.4 	"/>
	<polygon class="st0" points="35.5,17.8 35.3,17.8 35.3,18 35.5,18.1 	"/>
	<polygon class="st0" points="36,17.6 35.9,17.5 35.8,17.5 35.8,17.5 35.7,17.5 35.7,17.6 35.6,17.7 35.8,17.7 	"/>
	<polygon class="st0" points="34.7,19.4 34.4,19.3 34.4,19.6 34.4,19.8 34.4,19.8 34.4,19.7 34.5,19.7 34.6,19.7 34.5,19.6 
		34.5,19.6 34.5,19.6 34.7,19.6 34.8,19.5 	"/>
	<polygon class="st0" points="34.3,18.8 34.5,18.9 34.6,18.8 34.4,18.7 	"/>
	<polygon class="st0" points="35.9,19.5 36,19.7 36.3,19.7 36.6,19.5 36.6,19.5 36.6,19.2 36.5,19.1 36.4,19.2 36.3,19.3 36.2,19.3 
		36,19.3 	"/>
	<polygon class="st0" points="36.7,18.3 36.6,18.2 36.5,18.3 36.6,18.4 	"/>
	<polygon class="st0" points="34.7,19.1 34.7,19 34.6,19.1 34.7,19.2 	"/>
	<polygon class="st0" points="35,19 35.1,18.9 35.1,18.8 34.9,18.9 	"/>
	<polygon class="st0" points="35.5,18.2 35.5,18.3 35.6,18.3 35.6,18.1 	"/>
	<polygon class="st0" points="35.7,19 35.9,18.9 35.7,18.8 35.5,19 	"/>
	<polygon class="st0" points="35.1,18.3 35,18.3 35.1,18.4 35.2,18.3 	"/>
	<polygon class="st0" points="35.2,19.8 35.5,19.7 35.7,19.5 35.8,19.4 35.8,19.3 35.7,19.2 35.5,19.2 35.4,19.1 35.2,19.1 
		35.1,19.3 35,19.4 35,19.5 35,19.6 35.1,19.6 35.1,19.6 35.1,19.6 35.1,19.6 	"/>
	<polygon class="st0" points="34.5,18.5 34.6,18.7 34.8,18.9 34.7,18.4 34.7,18.3 34.6,18.2 34.5,18.2 34.5,18.1 34.4,18.1 
		34.3,18.2 34.4,18.3 	"/>
	<polygon class="st0" points="32.8,19 32.9,18.9 32.9,18.8 32.7,18.8 32.7,18.9 32.7,19 	"/>
	<polygon class="st0" points="33.3,19 33.6,19 33.6,18.8 33.4,18.8 	"/>
	<polygon class="st0" points="26.8,28.9 26.8,28.8 26.7,28.7 26.7,28.5 26.5,28.5 26.5,28.7 26.6,28.8 26.5,29.1 	"/>
	<polygon class="st0" points="32.3,18.2 32.2,18.3 32.1,18.3 32.2,18.3 32.3,18.3 32.4,18.4 32.5,18.3 32.5,18.4 32.5,18.4 
		32.6,18.2 32.5,18.2 32.5,18.2 32.8,18.2 32.9,18.3 32.9,18.2 33.1,18.2 33.6,18.1 33.5,18 33.3,17.9 33.3,17.9 33.4,17.8 
		33.5,17.8 33.6,17.8 33.6,17.7 33.4,17.7 33.4,17.7 33.4,17.6 33.3,17.6 33.2,17.7 33.1,17.7 33.1,17.8 33.1,17.9 32.8,17.9 
		32.5,17.8 32.5,17.9 32.6,18 32.5,18 32.5,17.9 32.5,18 32.5,18 32.5,18 32.4,18 32.4,17.9 32.2,17.9 32.1,18 32.1,18.1 32.3,18.1 
			"/>
	<polygon class="st0" points="26.7,28.3 26.7,28.4 26.8,28.3 26.9,28.2 26.9,28.3 26.8,28.5 26.9,28.6 26.9,28.9 26.9,29 27,29.2 
		26.9,29.2 26.9,29.2 26.8,29.1 26.8,29.2 26.7,29.3 26.6,29.3 26.6,29.4 26.7,29.6 26.9,29.6 26.9,29.7 26.9,29.9 27,29.9 
		27.1,29.9 27.1,29.8 27.2,29.8 27.3,30 27.3,30.1 27.4,30.2 27.4,30.1 27.4,30.1 27.5,30 27.5,30.1 27.7,30.4 27.7,30.3 27.7,30.2 
		27.7,30.3 27.9,30.3 27.8,30.1 27.7,29.8 27.7,29.4 27.8,29 27.9,28.7 28.1,28.4 28.1,28.4 28.2,28.2 28.3,28.1 28.4,27.9 28.5,28 
		28.6,27.9 28.6,27.8 28.5,27.8 28.6,27.8 28.8,27.8 28.9,27.8 28.9,27.7 28.8,27.7 28.7,27.6 28.9,27.7 28.9,27.5 29,27.5 
		29.1,27.5 29,27.3 28.8,27.1 28.8,27.1 28.7,27 28.6,27 28.5,27 28.3,26.9 28,26.9 28,27 28,27 28,27 28,27.1 28,27.2 27.8,27.1 
		27.6,27.1 27.6,27.2 27.6,27.3 27.6,27.4 27.6,27.4 27.6,27.4 27.5,27.5 27.3,27.7 27.1,27.8 27,27.8 27,27.7 26.9,27.6 26.8,27.7 
		26.6,27.8 26.5,28.1 26.5,28.3 26.6,28.3 	"/>
	<polygon class="st0" points="28.7,26.9 28.9,27.1 29,27.2 29.1,27.1 29.1,27.4 29.2,27.5 29.3,27.4 29.3,27.5 29.4,27.4 29.5,27.3 
		29.5,27.1 29.5,27.1 29.5,27 29.5,27.2 29.7,27.2 29.8,27.1 29.7,27 29.6,26.9 29.6,26.8 29.8,26.9 29.9,27 29.9,27.1 29.9,27 
		30,26.8 29.9,26.7 29.9,26.6 30,26.6 30,26.6 30.1,26.6 30.1,26.6 30.1,26.8 30.1,27 30.2,26.9 30.3,26.8 30.4,26.7 30.6,26.5 
		30.5,26.4 30.5,26.3 30.6,26.3 30.6,26.5 30.7,26.6 30.8,26.5 30.9,26.3 31,26.6 31.1,26.5 31.1,26.3 31.1,26.3 31.1,26.4 
		31.1,26.5 31.3,26.4 31.3,26.3 31.4,26.4 31.5,26.3 31.5,26.2 31.4,26.2 31.5,26.2 31.5,26.2 31.7,26.1 31.9,26 31.9,26.1 32,26 
		32.1,26 32.3,25.9 32.6,25.9 32.7,25.9 32.8,25.9 33.7,25.9 34.5,25.8 34.7,25.7 34.9,25.4 35,25.3 34.9,25.1 34.5,24.9 34.1,25.1 
		34.1,25.1 34,25.2 33.9,25.2 33.9,25.1 32.9,25.1 32.6,24.9 32.5,24.8 32.4,25 32.2,25 32.2,25 32.1,25 31.9,25.1 31.7,25 31.5,25 
		31.3,25.1 31.3,25.1 31.2,25.1 31.2,25.1 31,25.1 31,25.3 30.9,25.4 30.8,25.3 30.7,25.2 30.6,25.3 30.6,25.4 30.4,25.5 30.4,25.4 
		30.3,25.2 30.2,25.4 30.2,25.5 30.2,25.5 30.2,25.5 30.3,25.6 30.2,25.6 30,25.7 30.1,25.7 30.2,25.8 30.2,25.9 30.2,25.9 
		30.1,25.9 29.9,25.8 29.8,25.9 29.9,26 29.8,26 29.7,26 29.5,26 29.6,26.1 29.6,26.2 29.5,26.2 29.5,26.1 29.5,26.3 29.5,26.4 
		29.5,26.3 29.3,26.2 29.1,26.3 29.1,26.3 29,26.3 28.8,26.3 28.7,26.4 28.7,26.3 28.8,26.6 29.1,26.7 29.1,26.7 28.9,26.7 
		28.7,26.7 28.5,26.8 28.5,26.9 28.6,26.9 	"/>
	<polygon class="st0" points="32.8,18.5 32.6,18.6 32.7,18.7 32.8,18.6 	"/>
	<polygon class="st0" points="33.8,18.4 33.7,18.4 33.7,18.5 33.7,18.6 33.8,18.5 	"/>
	<polygon class="st0" points="34,19.6 34.3,19.5 34.3,19.3 34.1,19.2 34,19.4 	"/>
	<polygon class="st0" points="33.8,18.7 33.8,18.8 34,18.7 34,18.6 33.9,18.6 33.8,18.7 	"/>
	<polygon class="st0" points="34.4,18.6 34.4,18.5 34.2,18.3 34.1,18.4 34.2,18.6 	"/>
	<polygon class="st0" points="33.9,19.1 33.9,19.2 34,19.1 34,19.1 	"/>
	<polygon class="st0" points="32.2,17.5 32.2,17.5 32.2,17.6 32.5,17.6 32.6,17.6 32.7,17.5 32.7,17.5 32.8,17.6 32.9,17.8 
		32.9,17.7 32.9,17.5 32.9,17.4 32.7,17.4 32.5,17.4 32.5,17.4 32.4,17.3 32.2,17.3 32.1,17.3 32.1,17.4 32.2,17.4 	"/>
	<polygon class="st0" points="33.8,17.5 33.8,17.4 33.7,17.4 33.6,17.5 33.6,17.5 33.6,17.5 	"/>
	<polygon class="st0" points="3,31.2 3.2,31.5 3.2,31.5 3.2,31.5 3.3,31.4 3.6,31.4 3.5,30.8 3.5,30.6 3.5,30.3 3.5,30.3 3.4,30.3 
		3.4,30.3 3.3,30.3 3.2,30.4 3.1,30.3 3,30.1 3,30.1 3.1,30.1 3.3,30.1 3.4,30.1 3,30 2.8,29.9 2.7,29.8 2.6,29.9 2.5,30 2.5,30 
		2.6,30 2.6,30 2.7,30.2 2.5,30.1 2.2,30 2.6,30.7 	"/>
	<polygon class="st0" points="18.6,24.1 18.7,24.1 18.7,24.1 	"/>
	<polygon class="st0" points="76.6,52.3 76.6,52.4 76.6,52.5 76.7,52.3 76.6,52.1 	"/>
	<polygon class="st0" points="75.9,53.9 75.9,54 75.8,54.1 75.9,54.2 76.1,53.6 76.1,53.5 76,53.6 	"/>
	<polygon class="st0" points="75.4,54.7 75.3,54.9 75.2,55 75.1,55 74.9,55 74.9,55.1 75,55.2 74.9,55.4 74.8,55.5 74.8,55.7 
		74.7,55.8 74.7,55.9 74.7,56 74.7,56.2 74.7,56.2 74.8,55.9 74.9,55.8 75,55.7 75,55.6 75,55.5 75.1,55.4 75.2,55.1 75.4,55 
		75.5,54.8 75.5,54.7 	"/>
	<polygon class="st0" points="76.8,49.1 76.9,49.2 76.9,49.3 77,49.2 76.9,49 	"/>
	<polygon class="st0" points="76.8,51.3 76.9,51.3 76.9,51.2 76.8,51.2 	"/>
	<polygon class="st0" points="77,47.6 77.1,47.6 77.1,47.4 77,47.4 	"/>
	<polygon class="st0" points="76.9,47.5 76.8,47.6 76.9,47.8 76.9,48 76.7,48.3 76.8,48.4 77,48.3 77,48 77,47.8 77,47.6 	"/>
	<polygon class="st0" points="76.9,50 76.9,49.9 76.8,49.8 	"/>
	<polygon class="st0" points="74.8,56.9 75,56.9 75,56.8 74.9,56.9 	"/>
	<polygon class="st0" points="71.5,55.1 71.4,55.2 71.3,55.1 71.1,55 71,54.9 70.7,54.7 70.4,54.3 70.3,53.8 70.3,53.4 70.3,53.2 
		70.3,53.1 70.3,53 70.4,52.8 70.8,52.7 71.2,52.9 71.4,53 71.4,53.1 71.3,52.9 71.1,52.7 70.9,52.6 70.8,52.4 70.3,52 69.9,51.5 
		69.6,51.1 69.4,50.8 69.4,50.9 69.3,50.9 69.3,50.8 69.3,50.7 69.1,50.6 69,50.5 68.9,50.1 68.7,49.6 68.7,49.6 68.5,49.4 
		68.4,49.3 68.5,49.3 68.6,49.4 68.6,49.4 68.7,49.4 68.4,49 68.1,48.7 68.1,48.6 68.1,48.6 67.9,48.4 67.8,48.3 67.8,48.4 
		67.8,48.5 67.7,48.5 67.6,48.6 67.8,48.6 68,48.8 68,48.9 68.1,48.9 68.1,49 68,49 68,49.1 68.1,49.2 68,49.4 68,49.4 67.9,49.4 
		67.7,49.4 67.7,49.6 67.8,49.8 67.9,49.8 68,50.4 68.2,50.9 68.5,51.2 68.9,51.5 69,51.7 69,52 69.1,52.2 69.2,52.4 69.7,53.8 
		69.7,53.9 70,54.1 70.2,54.4 70.3,54.6 70.3,55 70.4,55.1 70.5,55.3 70.7,55.9 71,56.4 71.1,56.3 71.1,56.1 71,55.8 71.1,55.4 
		71.1,55.5 71.4,55.4 71.5,55.5 71.7,55.6 71.8,55.8 71.8,55.8 71.7,55.4 	"/>
	<polygon class="st0" points="74.3,56.5 74.2,56.5 74.2,56.6 74.2,56.6 74.1,56.9 74,57.3 74.1,57.3 74.2,57.3 74.2,57 74.3,56.7 
		74.4,56.6 74.5,56.5 74.5,56.4 74.4,56.5 	"/>
	<polygon class="st0" points="28,31.6 28,31.7 28.3,31.9 28.4,31.6 28.4,31.4 28.3,31.2 28.3,31 28.2,30.8 28,30.8 28,31 28,31 
		27.9,31 27.9,31.4 28,31.5 28,31.5 	"/>
	<polygon class="st0" points="24,30.3 24.1,30.3 24.2,30.2 24.3,30.2 24.3,30.1 24.3,30.2 24.3,30.3 24.3,30.3 24.4,30.2 24.4,29.9 
		24.3,29.6 23.9,29.6 23.5,29.9 23.6,30.2 	"/>
	<polygon class="st0" points="69.8,27.4 69.9,27.3 69.9,27.2 69.8,27 69.6,27 69.5,27.1 69.4,27.1 69.3,27.4 69.6,27.5 	"/>
	<path class="st0" d="M79.5,25.5L79.5,25.5l-0.1-0.2v-0.1L79.5,25.5l0.2,0l0.1-0.2l-0.2-0.2h0.1l0.1-0.1V25h-0.2l-0.2,0.1L79.4,25
		L79.3,25V25h-0.1l0.1-0.2v-0.3l-0.1-0.1l-0.1-0.1L79,24.4h-0.1h-0.1h-0.2h-0.1l0.2-0.1l0.2-0.1l0.2-0.1l0.1-0.2v-0.1l-0.2,0
		l-0.2-0.1l0.2-0.1l0.2-0.1L79,23.5l-0.1-0.1v-0.3V23l-0.1,0l-0.1,0.1l-0.1,0l-0.1,0l-0.2,0.1l-0.2,0.1l-0.4,0h-0.2l-0.2,0.2
		l-0.1,0.2l-0.1,0.1v0l0.1,0.1v0.1l-0.2,0l-0.1-0.1L77,23.7L77,23.9L76.9,24L76.8,24l0.1,0L77,24l0.2,0l0.2,0.1v0v0.1v0.1h0.2
		l0.2,0.1h-0.1h-0.1v0.1v0.1h-0.1l-0.1-0.1l-0.1,0.1h-0.1H77v-0.2l-0.2-0.1L76.5,24l-0.1,0h-0.1v0.1v0.1l-0.1,0v0L76.2,24L76,24
		l-0.2,0l-0.1,0.1l0.2,0l-0.1,0.1l-0.2,0.2l-0.1-0.2l-0.1-0.1l-0.1,0.1l-0.2,0.1l-0.1-0.1l-0.1,0L75,24.3l-0.2,0.2l-0.1-0.1h-0.1
		l-0.2,0.1l-0.2,0.1l-0.1-0.1L74,24.4l-0.2,0.1l-0.2,0.2h-0.2h-0.2l-0.1,0.1l-0.2,0.1v-0.1H73v-0.1h-0.1l-0.2,0.1l-0.1,0.1l-0.2,0.1
		h-0.2l-0.1,0.1L72,25l-0.2,0.1h-0.1v0.1v0.1l-0.1-0.1h-0.1l-0.3,0.4l-0.1,0.1L71,25.8h-0.1h-0.1l0.1,0.1v0.1h-0.2L70.6,26l-0.1,0.1
		l-0.2,0.1l-0.2,0.2l-0.2,0.1l0.1,0.1l0.1,0.1l0.1,0.2v0.2V27h0.2l0.1-0.1l0.4,0.2l0.1,0.4l-0.1,0.2v0.2h-0.2l-0.2-0.2l-0.2,0.1
		l-0.2,0.1l-0.2-0.2l-0.4-0.2l-0.1,0.1v0.2V28l-0.2,0.2h-0.2l-0.2,0.1l-0.1,0.1l-0.2,0.2l-0.2,0.1l-0.2-0.1v0.1l-0.1,0.1L68,28.7
		h-0.1l-0.1,0.2V29l-0.1,0.1l-0.1,0.1l0,0.1l0,0v0.1v0.1h-0.1v-0.1h-0.1v0.2v0.2l-0.1-0.2l-0.2-0.2l-0.2,0.1h-0.3l-0.1-0.2l-0.2-0.3
		l-0.9-0.2l-1.3,0.8L63.9,30l-0.3,0.2L63.3,30L63,29.8h-0.2h-0.1h-0.2l-0.3-0.1v0.1l-0.1,0.1H62L62,29.8l0.1-0.2l0.2-0.1L62,29.4
		l-0.2-0.2l-0.3,0.1l-0.2,0.1L60.9,30l-0.3,0.5h-0.1v-0.2l-0.1-0.1l0.2-0.1l0.1-0.1l-0.1-0.1v-0.2l0.2-0.1l0.1-0.2l-0.2,0.1L60.3,30
		l-0.1,0.1l-0.1,0.1L60.1,30l0.2-0.2h0.1l0.2-0.2l0.2-0.1L60,29.6L59.1,30h-0.4L58.6,30l0.1,0.1l0.2,0.1l-0.1,0.2l-0.2,0.1l-0.2,0.4
		l0.1,0.1l0.2-0.1V31v0.1l0.1,0.1l0.1,0.2v0.2l0.2,0.1v0.2h-0.2v0.1v0.1l-0.1-0.1l-0.1-0.1h-0.1l-0.1,0.1h-0.1h-0.1V32v0.2l-0.3-0.2
		L57.4,32l-0.2,0.3l-0.3,0.2l-0.3-0.1l-0.2-0.2l-0.1-0.2l0.2-0.1L56.2,32l-0.1,0.7L56,33.6L56,33.7l-0.1-0.1l-0.1-0.1v0.1h-0.1h-0.1
		l-0.1-0.1v-0.1h-0.1h-0.2l-0.2-0.2L55,33h-0.1l-0.1-0.1l0.1-0.1l0.1-0.1l-0.1-0.2l-0.2-0.1l0.1,0.1v0.1l-0.1,0.1l-0.2-0.2l-0.1-0.2
		l0,0h0.2l0.2-0.2L54.8,32l-0.2-0.2v-0.2v-0.2l-0.1-0.2v-0.1l-0.2-0.2h-0.1h-0.1l-0.5-0.4l-0.2,0.1l-0.2,0.1h-0.1h-0.2h-0.2
		l-0.2-0.2l-0.3-0.1v0.1l-0.1,0.1l-0.2,0.4l0.1,0.3v0.3l-0.2-0.1H52v0.1h-0.1h-0.1l-0.2,0.1L51.6,32l-0.2-0.1l-0.2-0.1H51h-0.2
		l-0.2-0.1v-0.2l0.2-0.2l-0.1-0.1h-0.1h-0.2h-0.2H50l-0.2-0.1l-0.1,0.1h-0.1l-0.2-0.1h-0.2l-0.1,0.1l-0.1,0.1L49,31.5l-0.2,0.1v0.2
		v0.1l-0.2-0.2l0.1-0.2l-0.1-0.2l-0.2-0.2v0.1v0.2l-0.1,0.1h-0.2L48,31.3l0,0v-0.1l0.1-0.1l-0.2,0.1l-0.1,0.1l-0.2-0.1l-0.2,0.2v0.1
		v0.2h0.2l0.2-0.1l0,0.1l0,0h-0.1l-0.2,0.2l-0.2,0.1l-0.1-0.1L47.2,32l-0.2,0.1v0.2v0.1l-0.2-0.1l-0.1-0.1v0.1h-0.1h-0.2h-0.2
		l-0.1,0.2L46,32.7h-0.1l0.1-0.2l0.2-0.2v-0.2l0.1-0.2l0.2-0.1l0.1-0.2l-0.1-0.1l-0.1-0.1l0.4,0.1l0.3-0.3h0.1l0.1-0.2l0.1-0.2
		l0.2-0.2l0.2-0.2l0.1-0.2l0.5-0.3v-0.1l0.1-0.1l0.2-0.2l0.2-0.2l0.1-0.4l-0.2-0.1l-0.1-0.2V29l-0.1,0.1v-0.2h0.1l0.2,0.1V29v0.1
		l0.1-0.2v-0.4h-0.1h-0.1v-0.2l-0.2-0.2l0,0.2v0.1l-0.1-0.2v-0.2L48.2,28H48l-0.2-0.2l-0.2-0.2l-0.1,0.1l-0.1-0.1h-0.1v0.1h-0.1
		h-0.1h-0.1H47l-0.2,0.1l-0.1-0.1h-0.1l-0.1,0.1L46.5,28h-0.2l0.2-0.4v-0.3h-0.2h-0.2l0.1-0.1v-0.1l-0.2,0.1l-0.2-0.1l0.2-0.1
		l0.2-0.2l0.1-0.1h0.1l0.1-0.1L46,26.6l-0.2-0.1l-0.1-0.1v-0.1h-0.2l-0.2,0.1h-0.1l-0.5,0.5l-0.3,0.5l0.1,0.1v0.2L44.1,28L44,27.9
		h-0.1V28l0.2,0.2l0.1,0.2H44l-0.1-0.2l-0.2,0.1h-0.1v0.1l-0.1,0.1h-0.1v0.1h-0.1h-0.1l-0.1,0.1h-0.1v-0.1L43,28.4l-0.2,0.1
		l-0.1,0.1l0.1-0.2l0.1-0.1l-0.5-0.2L42,28.3l-0.1,0.1l0.2,0.1h0.2v0.1l-0.2,0.1h-0.2l-0.3,0.1l-0.2,0.1h-0.2H41h-0.1l-0.2,0.1
		L40.4,29l-0.2,0.2H40h-0.2l0.1,0.1l0.2,0.1L40,29.4l-0.2,0.1l-0.1,0.2v0.2l-0.2-0.2l-0.2-0.1v0.1l0.2,0.2l0.2,0.2l-0.1,0.1L39.6,30
		L39.5,30L39.4,30h-0.1h-0.1l0.2,0.2l0.2,0.2l-0.1,0.1v0.3V31h-0.1l-0.2,0.1h-0.1l0.1-0.1l0.1-0.1l0.1-0.1v-0.1l-0.3-0.1l-0.2,0.1
		h-0.4l-0.5-0.1l-0.5-0.1h-0.1h-0.1h-0.1l-0.2-0.1v0.1l-0.1,0.2L37,30.8l0.1,0.1V31H37v0.2l0.1,0.1L37,31.5L37,31.6v0.1v0.1
		l-0.1,0.1l0.2,0.2l0.2,0.2v0.2v0.2l0.2,0.2l0.1,0.3l-0.2,0.2l-0.2,0.2l0.1,0.2l-0.1,0.7l-0.2,0.1L37,34.7l0.2,0.5l0.1,0.3h-0.1
		v-0.1l-0.2-0.1L37,35.3v-0.2V35l-0.1-0.2l-0.1-0.1l0.3-0.8l-0.1-0.2l-0.2-0.1l0.1-0.1v-0.1v-0.1l0.2-0.2l0.2-0.3l-0.2-0.2l-0.4-0.1
		l-0.1-0.2l-0.1-0.2L36.5,32l-0.2-0.2h-0.2h0l0,0h-0.2l-0.2,0.2h0.1h0.1l0.1,0.2v0.2l-0.3-0.1l-0.1-0.2L35.1,32L35,32.3l0.1,0.3
		l0.2,0.2h0.2l0.2,0.2l-0.1,0.4l-0.1-0.2l-0.1-0.2l-0.5-0.2l-0.4-0.3l0.1-0.1l0.2-0.3L34.6,32l0.2-0.2l0.1-0.2v-0.3l0.1-0.2v-0.2
		L35,30.7L34.9,31l-0.1,0.4l-0.2,0.2l-0.4,0.1l-0.1,0.1H34L34,31.9L33.9,32l-0.1,0.1l-0.1,0.1v0.1l0.1,0.1v0.1l-0.1,0.2l0.1,0.3v0.3
		l-0.2,0.2l-0.2,0.2l-0.1,0.2L33.2,34l-0.1,0.2v0.2v0.2l-0.1,0.2L33,34.9h0.2h0.1l0.1,0.1l0.1,0.1l0.2-0.1h0.2l0.5,0.3l0.2,0.5v0.1
		l-0.1,0.1l0.1,0.2v0.2h-0.1h-0.1L34,36.5L34,36.8l0.3,0.3l0.2,0.2h-0.2l-0.2-0.1L34,37.2H34v-0.1V37l-0.1-0.2v-0.1l0.1-0.2v-0.2
		l0.1-0.1l0.1-0.1H34v-0.1l0.1-0.1V36v-0.2L34,35.6v-0.2v-0.2h-0.4h-0.5L33,35.6l-0.1,0.2v0.2l-0.2,0.5l-0.2,0.2l-0.2,0.1L32.3,37
		l-0.2,0.2l-0.2,0.1l-0.2,0.2l-0.2-0.1l-0.1,0.1l-0.2,0.2H31v-0.1l-0.1-0.1l-0.3-0.1l-0.2-0.2l-0.1-0.1L30.2,37l-0.1-0.2v-0.2
		l0.3,0.2l0.4,0.2l-0.1,0.1h-0.2V37l0.2,0.2h0.3V37l0.1-0.2h0.1l0.2-0.1l0.1-0.1h0.1v-0.1v-0.1l0.3-0.2l0.3-0.2l0.1-0.2v-0.2
		l0.2-0.2l0.2-0.2l-0.2-0.3l-0.1-0.5l0.2-0.4l0.2-0.4l0.2-0.5l0.1-0.1l0.1-0.1l0.2-0.5l-0.1-0.4v-0.4l0.3-0.3l0.5-0.8v-0.2v-0.1
		L34,30.3l-0.4-0.2l-0.2-0.1L33.2,30h-0.1l0.1-0.1h-0.1v-0.1l-0.4,0.5l-0.4,0.5l-0.6,0.5l-0.5,0.2h0.1l-0.1,0.2h-0.1l-0.1,0.2h0.2
		l0.1,0.1l-0.2,0.2L31,32.5v0.2l-0.1,0.2l-0.1-0.1h-0.1l-0.2,0.2l-0.1,0.2v0.1l0.1-0.1h0.1l0.1,0.2l0.1,0.2H31v0.2l-0.1,0.1v0.4
		l0.2,0.2v0.1l-0.5,0.5h-0.2l0.1-0.1v-0.1l-0.1-0.1l-0.1-0.1l-0.1-0.5l-0.2-0.2l-0.2-0.3h0.1l0.1,0.1l-0.1-0.1l-0.3-0.2l0,0V33
		l-0.2-0.4l-0.3-0.3L28.7,32l-0.1-0.1l-0.1-0.1l-0.1,0.1L28.4,32l-0.1-0.1h-0.1L28.2,32v0.5L28.1,33L28,32.9h-0.1L27.8,33l-0.2-0.1
		h-0.1L27.4,33l-0.2,0.1L27.1,33l0.1-0.2l0.2-0.1h0.1v-0.2l-0.1-0.2h0.1l-0.5-0.1l-0.5,0.1l-0.2-0.2L25.8,32l-0.3,0.1v0.1l-0.1,0.1
		l-0.1-0.2h-0.2l-0.1,0.1H25l0.1-0.1V32v-0.1l-0.2-0.1h-0.2l0.1-0.1v-0.1h0.1H25l0.2,0.1l0.1-0.2l0.1-0.2h0.1l0.1-0.1v-0.1h0.1
		l0.1,0l-0.2-0.1l-0.3-0.1l-0.4,0.1l0.1,0.1v0.2h-0.2l-0.1-0.1v-0.1l0.1-0.1l-0.2-0.1h-0.2h-0.1L24,31.1l-0.5,0.1l-0.5-0.1L23,31
		v0.1h-0.1v0.1v0.2l-0.1-0.2l-0.2-0.1L22.6,31l-0.3,0.2L22,31.5l-0.4-0.2l-0.3-0.2l0.1-0.2l0.1-0.2l-0.1-0.2l-0.1-0.2l0.3-0.2
		l0.2-0.1l0.4,0.2l0.1-0.1l0.1-0.1v-0.1h0.1V30v-0.2l-0.2-0.3l-0.3-0.2l-0.1-0.2l-0.1-0.1v0.2v0.4l-0.5,0.4l-0.4,0.3v0.2v0.2
		l-0.3,0.2l-0.2,0.2v0.1v0.2l0.3,0.5l0.2,0.5l0.1,0.2l0.1,0.1v0.1h0.1v0h-0.2v-0.1L21,32.4l-0.1-0.2l-0.2-0.5l-0.3-0.5v-0.2v-0.1
		L20,31.4l0.1-0.2L20,31.1l-0.1-0.1L20,31l-0.3-0.6h-0.1l-0.1,0.1h-0.2l-0.2,0.1L19,30.4l-0.1-0.1l-0.2,0.1h-0.3L18,30.7L17.9,31
		l-0.1,0.3h-0.1l-0.1-0.1l-0.1-0.1v0.1h-0.1l-0.2-0.1l-0.1-0.2l-0.2-0.2L17,30.6l-0.1,0.1v-0.1l0.1-0.1h0.2l-0.1-0.4l-0.2-0.3
		l-0.2,0.1L16.5,30l-0.1,0.6h0.1l0.2,0.1l-0.2,0.2l-0.2,0.2l-0.1-0.1h-0.1v0.1L16,30.9l-0.1-0.3l0.1-0.1v-0.2l0.1-0.2v-0.2V30h-0.1
		h-0.1v-0.2v-0.1l0.1-0.1l0.3-0.4l0.1-0.2l0.1-0.2h0.1l0.1,0.1l0.2-0.2l0.1-0.1v0.1h0.1l0.1-0.5l-0.2-0.5h0.1H17l-0.1-0.2l-0.1-0.2
		l0,0l0,0v-0.2v-0.2L17,27v-0.1v-0.1v-0.1l0.2,0.3V27h-0.1v0.2v0.2h0.1h0.1l0.1,0.4h-0.1v0.1l0.1,0.1h0.1v0.2v0.2l0.2,0.2l0.2,0.3
		l0.2,0.4l0.2,0.3l0.8,0.2l0.5-0.1l0.4-0.2l0.1-0.1v-0.2l0.2-0.2l0.2-0.2l-0.1-0.2l-0.1-0.1l0.1-0.2l0.1-0.2h-0.1h-0.1v-0.2v-0.2
		L20,27.7v0.1l-0.1-0.5v-0.5v-0.2v-0.1l-0.1-0.2h-0.1l0.1-0.1l-0.1-0.1V26h-0.1h-0.1l-0.1-0.2l-0.1-0.2l-0.2-0.1l-0.2,0.1L19,25.5
		l0.2-0.1l0.2-0.2l-0.2-0.1l0.1-0.1l-0.1-0.1L19,25h0.1l0.1-0.1l-0.1-0.1v-0.1l0.2,0.2l0.2,0.1l-0.1-0.2l-0.1-0.3v0.1h-0.1h-0.1
		h-0.1v0.1L19,24.5v-0.1L19,24.3v-0.1l-0.1,0.1v0.1h-0.2l-0.1-0.2v0l-0.2,0.1l-0.2-0.1l-0.2-0.1L18,24.2l-0.2,0.1l-0.1-0.1l-0.1,0
		l-0.2,0v0.1v0.1l-0.3,0.2L17,24.7v0.1v0.1l-0.1,0.4l-0.1,0.3l-0.2,0.1h-0.3l-0.5,0.4l0,0l-0.2,0.5L15.3,27h-0.1H15l-0.2,0.2h-0.1
		v0.1l-0.1,0.1l-0.2,0.1l-0.1,0.2l0.1,0.1l-0.1,0.1l-0.2,0.2L14,28.4l-0.2,0.1h-0.2L13.4,29l-0.1,0.6l-1,0.2l-1.1,0.1V30l0.1,0.2v0
		v0l-0.2-0.2v-0.2h-0.5l-0.4-0.1l-0.2,0.1l0.1,0.1l0.1,0.1h0.2l0.1,0.1h-0.1l-0.1,0.1v0.1h-0.1v0.3h0l0,0l0,0.3l-0.1,0l-0.1-0.2l0,0
		l0,0L10,30.8l-0.1-0.1l-0.1-0.1l-0.1-0.1l-0.1,0.1H9.6v-0.2H9.5l-0.1,0.1l-0.1,0.1h0l-0.1,0.2l-0.1-0.1L9,30.8l-0.1,0l0,0l-0.2,0.2
		l-0.2,0.2h0H8.2l-0.1,0.2l0.1,0.1l0,0.1l-0.1,0.2L8,31.7l0-0.1l0-0.1h0l0,0.1H7.9l-0.1-0.1l-0.1,0.1H7.5v0.1h0l0,0.1L7.5,32
		l-0.2,0.2l-0.2,0.1l0,0.1l0,0.1l-0.2,0.2L6.7,33h0l0,0.1l0.1,0.1l0.1,0.1l0,0.1l0,0.1h0.1l0.1,0.2l-0.1,0.2l-0.1,0.1h0.1L7,33.9
		h0.1l0.1,0.4v0.2l0,0.1l-0.1,0.1L7,34.8L6.8,35H6.6l0,0.2l0,0.1h0l0,0.1H6.6l-0.1,0.1l-0.1,0.2l0,0.2l0,0.2l0,0.1l-0.1,0.1
		l-0.1,0.1l0,0.1l0.1,0.1l0,0.2l-0.1,0.1l0,0.2l0,0.1H6.2H6.2L6,36.8H5.9l-0.1-0.2l-0.2-0.1l-0.1,0.1l0,0.2l0,0.1H5.3L5.2,37L5,37.1
		L5,37.3H4.9L5,37.4l0,0.1h0l0.2,0.1l0.1-0.1l0.1,0.1l0,0.2l0.1,0.1l0.1,0.1l0.2,0.2l0,0.2l-0.1,0.2l0,0.2l-0.1,0.1l-0.1-0.1l0,0.1
		l0,0.1L5.4,39l0.1,0.2l0.2,0.2l0,0.1l0,0.1h0l0,0.1h0l0,0.1l0,0l-0.3,0.5l0.1,0.1l0.2,0.2l0,0.2l0.1,0.2l0,0.1L6,41l0.3,0.2h0h0
		l-0.1,0.3v0.2l0.1,0.1l0.1-0.1L6.4,42l0.2,0.3l0,0l0.1,0.5l0.1,0.1L6.9,43l-0.2,0.2l-0.3-0.1l-0.1,0.1v0.2h0.1l0,0.1H6.3H6l0,0.1
		l0,0.1L6,43.8l-0.1,0.1L5.8,44l-0.2,0.1l-0.3-0.2l-0.2-0.2H5H4.9H4.8l-0.1-0.1l-0.2,0.2l-0.2,0.2L4.4,44l0.1,0.1l0.2,0.1l0.2,0.1
		l0,0.1h0l-0.1,0.2l0-0.1H4.6l-0.1-0.1H4.3l0,0.1l0,0l0-0.1l-0.1-0.1H4.1v0.1l0,0.1h0L4,44.3l0-0.1l-0.1-0.1H3.7l0-0.1L3.6,44v0.5
		l0,0.4l0-0.1h0l0-0.2v-0.1l-0.1,0.1l-0.1,0.1v-0.1h0l-0.1-0.1l-0.1,0.1l-0.1,0.1H3H2.9l-0.1,0.1H2.7l-0.2-0.2l-0.1-0.2l0,0.2l0,0.1
		l-0.1-0.1H2.1l0.1,0.2L2.2,45l-0.1,0.2l0,0.2l0.1,0.1h0.1h0l0,0.2l0,0.2l0.2,0.5l0,0.5l0,0.6h0.3l0.1,0.2L3,47.7h0.1l0.3-0.2l0,0
		l0,0L3,47.7l0.3,0.5l0.4,0.5l0,0L4,49l0.1,0.4h0.1l0.1,0.1l0.2-0.1l0.2-0.1l0.1,0.1l0,0.1l0.1-0.1h0.1l0.1,0.1H5l0.1-0.1l0,0v0
		L5,49.5H4.9l-0.1-0.1H4.8l-0.1,0.1l0-0.1l-0.1-0.1l-0.2,0.1l-0.2,0.1l-0.1-0.1H4.1l0.1,0.4l0,0.2l0.2,0.1l0.3,0.1h0l0,0.1l0,0.1
		h0.1L5,50.5l0,0.2l0,0.1l0.1,0.1L5.2,51l0.2-0.1h0L5.2,51L5.1,51L5,51.2l0.2,0.4l0.2,0.3l0.1,0.5l0.2,0.5h0.2L6,52.9h0.3l0.2-0.2
		V52l0.1-0.7L7,50.9l0.2-0.1l0-0.1H7.1h0l0-0.2l0-0.2L7,49.9l0.3-0.2l0,0h0.1l0.1,0.1l0.1-0.1h0l0.2-0.2l0.3-0.1l0.1-0.1h0.1v0h0h0
		h0l0,0.1h0h0.1l0-0.1l0.2,0.2l0,0.1h0l0.1-0.1h0h0l0,0.1l0.1-0.1l0.1-0.1l0,0.1l0,0.1l-0.1,0.1l0,0.1l0.1-0.1L9,49.6l0.2-0.2
		l0.2-0.1l0,0.1l-0.1-0.6h0L9.5,49h0.2l0.1-0.5v-0.7l-0.2-0.2l-0.1-0.2l-0.1,0.1l-0.1-0.1l0.1-0.2l0.1-0.2l0-0.2l-0.1-0.2l0.2-0.1
		l0,0l0.2-0.1l0.1-0.1H10H10v-0.2l0.1-0.2l0.3-0.2l0.4-0.1l0.1-0.1l0.1-0.1v-0.1L10.8,45l-0.1-0.2h-0.2l-0.2-0.1v-0.2l-0.1-0.1h-0.1
		l-0.1,0.1l-0.1-0.1v-0.1H10L10,44.3l0,0l0.1,0.1h0.1v0.1l0.1,0.1l0.1-0.1h0.1l0.1,0.1v0.2l0.2,0.1h0.2l0.1,0.2l0.2,0.3v0.1l0.2,0.4
		v0.5l0.4-0.2l0.1-0.2l0.1-0.2h0.1v0.1l0.1,0.1h0.2h0.2l0.1-0.1l0.1-0.2l0.6,0.2l0.2-0.1l0.2-0.1l0.1,0.1h0.1v-0.1v-0.1l0.6-0.1
		l0.2-0.2l0.3-0.2l0.1-0.1H15l0.2-0.2l0.2-0.2l0.2-0.1l0.2-0.1l0.2-0.3L16,44l-0.1-0.1h0l0.2,0.2l0.2,0.2h0.1v0.1l-0.1,0.1v0.2
		l0.1,0.1l0,0L16.3,45v0.2v0.2l0.1,0.1l0.1,0.1v0.1l0.1,0.1h0.1L16.5,46v0.2l0.1,0.2v0.1h-0.1h-0.1l0.1,0.2l0.1,0.2h0.1l0.2-0.2
		l0.2,0.1L16.9,47l-0.2,0.2l0.1,0.1l0.1,0.1l-0.2,0.4h0.1l0.1,0.2L17,48h0.2h0.2l0.2,0.1l0.1,0.1l0.3,0.1l0.2-0.3h0.2l0.1-0.2
		l0.1,0.1v0.1V48h0.1l0.1-0.1l0.2,0.2l0.2,0.2l-0.2,0.2l-0.2,0.2h0.1l0.3,0.1l0.3-0.1l0.1-0.2v-0.2l0.1-0.1h0.1l0.1-0.1h0.1l0.3,0.2
		l0.2,0.2L20.1,48L20,47.7l0.2-0.2h0.2l-0.2-0.1L20,47.3h0.1l0.1-0.1l0.1-0.1l-0.1-0.1h0.1h0.1h0.1h0.1v0.1l0.1,0.1l0.2,0.1l0.2,0.1
		v0.1l0.1,0.1l0.1-0.1h0.2l0.2,0.1l0,0l0,0l0,0l0,0l0.4,0.1l0.4,0.1l0.2,0.1l0.1,0.1l0.1-0.1l0.1-0.1h0.2l0.2,0.1l0.1,0.1l0.6,0.1
		l0.6,0.1l0.1-0.1l0.1-0.1h0.1l0.2,0.1l0.1-0.1H25l-0.2-0.3l-0.1-0.2h-0.1l-0.2-0.1l-0.1-0.1l-0.1-0.2l-0.2-0.2l-0.1-0.1l0,0
		l0.1,0.1l0.2,0.2l0.1,0.2l0.1,0.1l0.2,0.1h0.1l0.1,0.2l0.2,0.3h0.1v-0.1l0.1,0.1v0.1h0.1l0.2,0.1l0.2,0.2l0.1,0.2h0.2l0.1-0.1
		l0.1,0.2L26,48.9v0.2h0.1l-0.2,0.3l0.1,0.2l0.1,0.1l0.1,0.1h0.1l0.1-0.1h0.1v0.1h0.1v-0.1l0.1-0.1v0.2v0.3l0.2-0.1v-0.1l0.2,0.1
		l0.2,0.2l0.1,0.1h0.2v0.1l-0.1,0.1l-0.2-0.1l-0.2,0.2l0.1,0.2l0.2-0.1l0.4,0.2h0.1l0.3-0.2H28l0.2-0.2h0.1l0,0h0.2h0.2l0.1-0.1
		l0.1-0.1l0.1,0.1H29h0.1h0.1L29,50.7l-0.2,0.1l0.2,0.5l0.3,0.5l0,0l0.5,2.8l0.3-0.1v-0.1v-0.1h0.1h0.1v-0.1l0.1-0.1l0.2,0.4
		l0.2,0.3l0.3,0.1l0.2,0.1h0.2h0.1V55h0.1h0.1h0.1l0.1-0.1l0.3,0.2l0.2,0.3h0.2v0h-0.2l0.2,0.4l0.2,0.3l0.1,0.2l0.1,0.2l0.1,0.1h0.1
		l0.2,0.1l0.1,0.1l0.3-0.1l0.2-0.1v0.1l-0.1,0.1l0.4,0.5h0.2h0.2l0.2-0.1l0.1-0.2l0.4,0.1h0.1h0.1h0.1l0.1-0.1h0.1l0.1,0.1l0.2-0.2
		l0.1-0.2l-0.1-0.2v0l0.1,0.2l0.3-0.1h0.3v-0.2l0.1-0.2l0.4,0.1l0.2-0.1l0.2-0.1h0.2h0.2v-0.1l0.1-0.1h0.1v0.1h0.1v0.1h0.1l0.2-0.1
		v0.2l0.1,0.2h0.3l0.4,0.1l0.1,0.2l0.1,0.3l0.3,0.1l0.3,0.1h0.1l0.1-0.1l0.4,0.2h0.1h0.1l0.2,0.1l0.1,0.1l0.1,0.1l0.5-0.3l0.1-0.2
		l0.1-0.2h-0.1l-0.1-0.2v-0.1v-0.1v-0.1l-0.1-0.1l0.2-0.4l0.2-0.3h0.1l0.1-0.1l0.2-0.2l0.1-0.1l0.1,0.1l0.2,0.1l0.5,0.3l0.5,0.2h0.1
		l0.1,0.1l0.3,0.1l0.2,0.1v0.5l0.5,0.5l0.7,0.2l0.6-0.2l0.2-0.1H46l0.3,0.1l0.3,0.1h0.2h0.1l0.2,0.2l0.2,0.2h0.2l0.1,0.1v0.1
		l0.2,0.2l0.3,0.3l0.5,0.1l0.5,0.1h0.1l0.1-0.1l0.1,0.1h0.2l0.2-0.1l0.2-0.2l0.5-0.2l0.5-0.2l0.2-0.3l0.5-0.5l0.4,0.1l0.3,0.2h0.3
		l0.5-0.1l0.4,0.2l0.5,0.1l0.2-0.2l0.2-0.2l0.2-0.2l0.2-0.2v-0.1v-0.1h-0.1v-0.1l0.2-0.6l0.2-0.7l0.2-0.3l0.2-0.3l-0.1-0.1l-0.1-0.1
		v-0.2l-0.1-0.1l-0.2,0.1l-0.1-0.2l0.1-0.2l0.2-0.2v-0.1l0.1-0.1l0.3-0.2l0.4-0.2L56,52.9l-0.2-0.2l0.1-0.2v-0.1v-0.1v-0.1l0.1-0.1
		L56,52l-0.2-0.2h0L56,52L56,52.1l-0.1,0.1v0.1v0.1v0.1l-0.1,0.2l0.2,0.2l0.2,0.2h0.1h0.1h0.2l0.2-0.1l0.2-0.1H57l0.1-0.1l0.2,0.1
		l0.2,0.1l0.1-0.1l0.2,0.2l0.2,0.1v-0.1h0.5l0.1,0.1v0.1h0.1l0.1,0.1h0.1v0.1v0.1h0.1l0.2,0.2l0.1,0.1l0.1,0.3l0.4,0.5h0.1v0.1
		l0.1,0.1v0.2l0.2,0.2l0.2,0.2l0.1,0.1l0.1,0.2h0.1l0.1,0.1v0.2l0.2,0.4l0.3-0.1l0.3-0.1l0.1,0.1h0.1h0.1v0.1h0.1l0.1-0.1l0.1,0.1
		v-0.1h0.1V56l0.3,0.2l0.5,0.1h0v0.1v0.2l0.1,0.1l0.2,0.2V57V57l0.1,0.2l0.1,0.1l0.1,0.1l0.2,0.1l0.2-0.1h0.1l0.5-0.2h0.1h0.1
		l0.1-0.2v-0.2l0.2-0.1l0.2-0.2h0.1h0.1l0.2-0.3l0.2-0.2h0.2h0.2l0.2-0.1l0,0l-0.2,0.2l-0.1,0.2l0.1,0.2l0.1,0.1l0.2,0.2l-0.2,0.2
		L65.5,57v0.4l0.1,0.3l0,0v0.4v0.5l-0.1,0.2l0.1,0.2L65.4,59l-0.1,0.2l0.1,0.2l-0.2,0.2h-0.6l-0.2,0.1L64.3,60L64.2,60l-0.1,0.1
		l0.1,0.2l0.1,0.2l0.2,0.5l0.1,0.5l0.1,0.1v0.1l-0.1,0.5l-0.2,0.1l-0.1,0.2h0.1l0.1,0.1l0.1,0.2l0.1,0.2l0.1-0.2v-0.1l-0.1-0.1
		l-0.1-0.1h0.3h0.1v-0.1v-0.1l0.1-0.3l0.2-0.2L65,61.5l0.1-0.1h0.1v0.1v0.2l0.1-0.1l0.1-0.1l0.1-0.1v-0.1l0.1,0.2v0.2h0.1v-0.1h0.1
		l0.1,0.1l0.1-0.1l0.2,0.1l0.1,0.1v-0.2l0.1,0.1l0.2-0.1l0.2-0.2l0.5-0.5l0.3-0.5l0.1-0.1v-0.2h0.1v-0.1V60l0.1-0.2v-0.2l0.2-0.2
		l0.1-0.4l0.2-0.5l0.2-0.5l0.2-0.4l0.1-0.4l0.1-0.5v-0.2v-0.2l0.1-0.3l0-0.2h0l0.2-0.7l0.2-0.5v-0.1l-0.1-0.2v-0.1v-0.2v-0.1
		L68.6,54v-0.2l-0.1-0.2l-0.1-0.2l-0.1-0.2V53V53L68,51.9v-0.1v-0.1l0.1-0.4L68,51l0.1-0.2L68,50.7l-0.1,0.1l-0.2-0.2v-0.2h-0.1
		l-0.1-0.1l-0.3-0.2h0.1h0.2l0.1-0.2l-0.1-0.2h-0.2l-0.2-0.1l-0.1-0.1h-0.2l-0.2-0.2v-0.1l-0.2-0.1h-0.1l-0.1-0.1h-0.2l-0.1,0.1
		L66,49.4l-0.2,0.1h-0.1l0.1,0.2V50v0.3l-0.1-0.2v-0.2v-0.1l-0.2,0.3l-0.4,0.4v-0.3l0.2-0.3h-0.1L65.1,50h-0.1l-0.2-0.1l0.1-0.1
		l0.1-0.1v-0.1l-0.2,0.2l0.1,0.1v0.2v0.1h-0.1h-0.1v0.1l-0.2-0.4l-0.2-0.4l-0.5,0.2l-0.4-0.2l0.2-0.2l0.1-0.2l0.2-0.2l0.1-0.2
		l0.1-0.2l0.1-0.1l0.2-0.4l0.1-0.5l0.1-0.1l0.1-0.1v-0.1l-0.1-0.1l0.1-0.2v-0.2l0.1-0.1l0.2-0.4l0.2-0.3L65,46v-0.2l0.1-0.1l0.1-0.2
		v-0.2v-0.2l0.1-0.3l0.2-0.2l0.1-0.6l0.4-0.5H66l0.1-0.1l0.1-0.1l0.1-0.1l0.4-0.2l0.4-0.2h0.1l0.1-0.1h0.1V43l0.2,0.1l0.1-0.2
		l-0.1-0.2h0.2h0.1v0.1l0.2-0.1h0.1l0.2-0.2l0.2-0.2h0.2l0.2-0.1l-0.1-0.1h-0.1V42h0.1v-0.1v-0.2l0.2-0.1l0.2-0.1h0.2v0.1h0.1h0.1
		v-0.2l0.2-0.2l0.2,0.1l0.2,0.1l0.2-0.1h0.1v0.1h-0.1L70,41.6l-0.2,0.1l0.1,0.2H70l0.2-0.1l0.2-0.2l0.1-0.1h0.2l0.2-0.1v-0.1v-0.2
		l0.1-0.2L71,41h0.2l0.1-0.1v-0.2h0.2h0.1l-0.1-0.1h0.1l0.1-0.1l-0.1-0.2l-0.2-0.1l-0.2,0.1l-0.1,0.1v0.1L71,40.6h-0.1v-0.1v-0.1
		v-0.2h-0.1l-0.1-0.1v-0.1l0.1-0.1h-0.1V40v-0.1v-0.1v-0.1v-0.2l0.2-0.3l0.1-0.4l-0.1-0.1v-0.1v-0.2l0.1-0.2l-0.1-0.2L70.9,38
		l0.2-0.3l0.1-0.2h0.2l0.1-0.1l0.3-0.5h0.2L72,37l0.1-0.2v-0.2l0.2,0.2l0.1,0.2v0.2v0.2l0.1,0.1l0.1,0.1v0.1l0.1,0.1l0.1-0.1
		l0.1-0.1l0.1,0.2l0.1,0.2l0.2-0.8l0.2-0.8l0,0l0.1-0.1V36l0.1,0.1h0.2v-0.2h-0.2l-0.2-0.3v-0.2l-0.1-0.1L73,35l0.2-0.2l0.1-0.2h0.2
		h0.1h0.1l-0.2,0.2l-0.1,0.3l0.2,0.2l0.2,0.2v0.2l0.1,0.2H74H74l0.1,0.2v0.2l0.1,0.1l0.1,0.1l-0.1,0.2L74,36.8V37V37L74,37.1
		l-0.1,0.2v0.2l0.1,0.1l-0.1,0.5v0.4l-0.1,0.1v0.1l-0.1,0.3v0.3l0.1,0.1l0.1,0.1v0.1l-0.1,0.1v0.2V40l-0.1,0.3l-0.1,0.3l-0.1,0.2
		l-0.1,0.1V41v0.2l-0.2,0.1l-0.2,0.1l0.2,0.1l0.2,0.2v0.5l-0.1,0.4l0.2,0.5l0.2,0.5l1.1,1.5l1.4,1.4l0.2,0.4l0.3,0.3l0.2,0.2
		l0.1-0.4v-0.4l0.1-0.1l0.1-0.2l-0.1-0.7l-0.2-0.2H77v-0.1v-0.1l-0.1-0.2h-0.1l-0.1-0.1l0.1-0.1l0.2,0.1l0.2-0.5l0.2-0.1h0.1v-0.1
		l-0.4-0.3l-0.2-0.5V43l0.2-0.4h0.1l0.1,0.1l0.2-0.3v-0.2l-0.2-0.2L77,41.8l-0.2-0.5l0.1-0.5v-0.1l-0.1-0.1l0.1-0.2l0.1,0.1v0.2h0.2
		l0.1-0.2l-0.4-0.3V40l-0.1,0.1l-0.1,0.1L76.4,40l-0.2-0.2v-0.2l-0.1-0.2H76h-0.2h-0.1l-0.1,0.1l0.1,0.1l-0.2,0.1l-0.2-0.1l-0.2-0.7
		v-0.5v-0.1l-0.1-0.1h0.1V38h-0.1v-0.1v-0.1v-0.1L75,37.7H75l-0.1-0.4L75,37l0.1-0.1L75,36.8h0.2l0.2,0.1l0.1-0.2l-0.2-0.1v-0.1
		l0.2-0.3l0.1-0.3l0.1,0.1l0.3,0.5v-0.2v-0.3l0.1-0.4l0.2-0.5l0.3-0.2l0.4-0.2l0.3,0.2h0.2l-0.1-0.2l-0.2-0.2l0.1-0.2l0.1-0.2v-0.2
		v-0.2v-0.1l0.1-0.1l-0.1-0.2h-0.1l0.1-0.1h0.1l-0.1-0.1l-0.1-0.1h0.1l0.1-0.2l-0.1-0.1h-0.1l0.1-0.1l0.1-0.1v-0.2h-0.1v-0.1v-0.1
		h0.1l0.1-0.2v-0.2l0.1-0.1l-0.1-0.1v-0.1h-0.1l0,0h0.2v0.1l0.1,0.1l0.1-0.2v-0.3l0.2-0.5l0.2-0.5h-0.1H78v-0.1l-0.1-0.1H78v-0.1
		l0.2,0.2l0.4-0.2l0.4-0.2l-0.1-0.1v-0.1v-0.2l-0.2-0.1l-0.2-0.1v-0.2l-0.2,0.1l-0.2-0.1l-0.4-0.2l-0.5-0.2L77,28.9l-0.3,0.1
		l-0.2-0.2l-0.1-0.1l-0.1,0.2V29h-0.1h-0.1v0.1v0.1l-0.1-0.1l0.1-0.1h-0.1H76h-0.2v0.1l0.1,0.2l-0.2,0.1l-0.1,0.1l0.1-0.2l0.1-0.1
		v-0.1l-0.1-0.2h0.1l0.5-0.2l-0.1-0.1v-0.1h0.2h0.2l0.3-0.2l0.2-0.5L77,27.4l-0.2-0.5h-0.2l-0.3-0.1l-0.1-0.2l0.1-0.2h-0.1l-0.1-0.1
		l0.2-0.1l0.1,0.1v-0.2V26l0.2,0.2l0.1,0.2h0.2l0.1-0.1h0.1l0.2,0.3l0.1-0.1l0.1-0.1l0.2-0.4l0.2-0.2l0.2-0.1l0.2-0.1l0.2,0.2
		l0.2,0.1l0.3-0.1l0.2-0.2l0.1-0.1l0.1-0.1l0.2,0.1L79.5,25.5L79.5,25.5L79.5,25.5z"/>
	<polygon class="st0" points="71.4,23.4 71.5,23.4 71.6,23.5 71.8,23.1 72,22.9 72.1,22.8 72.1,22.8 72.2,22.4 72.2,22.1 72,22.1 
		71.7,22.1 71.4,22.3 71.4,22.3 71.4,22.4 71.4,22.4 71.3,22.5 71.2,22.8 71.3,23.2 	"/>
	<polygon class="st0" points="30.1,33.7 30,33.6 30.1,33.7 	"/>
	<polygon class="st0" points="35.5,30.2 35.6,30.1 35.5,30 35.4,30.1 35.5,30.1 	"/>
	<polygon class="st0" points="35.9,31.7 35.9,31.6 35.9,31.5 35.9,31.4 35.5,31.5 35.8,31.7 	"/>
	<polygon class="st0" points="33.4,29.6 33.4,29.9 33.7,30 34,29.9 34,29.8 34,29.6 34,29.6 34,29.5 33.9,29.5 33.8,29.5 	"/>
	<polygon class="st0" points="34.8,30.7 34.9,30.7 35,30.5 35.1,30.5 34.7,30.4 	"/>
	<path class="st0" d="M0.1,43.6l0.2,0.1l0,0c0-0.2,0-0.4,0-0.6L0,43.3L0.1,43.6z"/>
</g>
</svg>
