<?xml version="1.0" encoding="utf-8"?>
<!-- Generator: Adobe Illustrator 23.0.0, SVG Export Plug-In . SVG Version: 6.00 Build 0)  -->
<svg version="1.1" id="Capa_1" xmlns="http://www.w3.org/2000/svg" xmlns:xlink="http://www.w3.org/1999/xlink" x="0px" y="0px"
	 viewBox="0 0 80 80" style="enable-background:new 0 0 80 80;" xml:space="preserve">
<style type="text/css">
	.st0{fill:none;}
	.st1{fill:#F0F7F9;}
	.st2{fill:#4689E8;}
	.st3{fill:#2B9F52;}
	.st4{fill:#FF9023;}
	.st5{fill:#ECA968;}
	.st6{fill:#FDF7F3;}
</style>
<rect class="st0" width="80" height="80"/>
<path class="st1" d="M78,65H2c-1.1,0-2-0.9-2-2V17c0-1.1,0.9-2,2-2h76c1.1,0,2,0.9,2,2v46C80,64.1,79.1,65,78,65z"/>
<rect x="0" y="24" class="st2" width="80" height="9"/>
<rect x="5" y="54" class="st3" width="10" height="3"/>
<circle class="st4" cx="66" cy="66" r="10"/>
<circle class="st5" cx="66" cy="66" r="10"/>
<circle class="st6" cx="66" cy="66" r="9"/>
<path class="st5" d="M66.7,61H63v10h1v-2h3v-1h-3v-1h2.7c1.7,0,3-1.3,3-3S68.4,61,66.7,61z M66.7,66H64v-4h2.7c1.1,0,2,0.9,2,2
	S67.8,66,66.7,66z"/>
</svg>
