<svg id="Capa_1" data-name="Capa 1" xmlns="http://www.w3.org/2000/svg" viewBox="0 0 80 80"><defs><style>.cls-1{fill:#e3f3f9;}.cls-2{fill:#4689e8;}.cls-3{fill:#2b9f52;}.cls-4{fill:#faa34d;}.cls-5{fill:#fff8ed;}.cls-6{fill:none;}</style></defs><title>mir-illustration-support</title><circle class="cls-1" cx="40" cy="40" r="30"/><rect class="cls-2" x="62" y="35" width="6" height="18" rx="2" transform="translate(130 88) rotate(180)"/><path class="cls-2" d="M70,38h2a0,0,0,0,1,0,0V50a0,0,0,0,1,0,0H70a2,2,0,0,1-2-2V40A2,2,0,0,1,70,38Z" transform="translate(140 88) rotate(180)"/><path class="cls-3" d="M35.05,34.75a7.62,7.62,0,0,1,.42-2.6,5.47,5.47,0,0,1,3.23-3.29,7.07,7.07,0,0,1,2.59-.46,7,7,0,0,1,2.22.35,5.53,5.53,0,0,1,1.79,1,4.59,4.59,0,0,1,1.21,1.65A5.33,5.33,0,0,1,47,33.66a5.62,5.62,0,0,1-.19,1.57,4,4,0,0,1-.52,1.14,5.15,5.15,0,0,1-.74.86l-.83.74c-.33.28-.64.55-.91.81a4.68,4.68,0,0,0-.73.87,3.74,3.74,0,0,0-.48,1.13,6,6,0,0,0-.17,1.59H39.57a13.21,13.21,0,0,1,.12-1.94A5.31,5.31,0,0,1,40.06,39a4.52,4.52,0,0,1,.64-1,6.37,6.37,0,0,1,.9-.9l.79-.68a4.92,4.92,0,0,0,.68-.69,2.86,2.86,0,0,0,.46-.84,3.14,3.14,0,0,0,.17-1.12,3,3,0,0,0-.27-1.34,2.84,2.84,0,0,0-.66-.9,2.63,2.63,0,0,0-.83-.49,2.57,2.57,0,0,0-.78-.16,2.75,2.75,0,0,0-2.38,1.06A4.62,4.62,0,0,0,38,34.75Zm4.13,9.41h3.48v3.25H39.18Z"/><rect class="cls-2" x="12" y="35" width="6" height="18" rx="2"/><path class="cls-2" d="M10,38h2a0,0,0,0,1,0,0V50a0,0,0,0,1,0,0H10a2,2,0,0,1-2-2V40A2,2,0,0,1,10,38Z"/><path class="cls-4" d="M78,61.75c-.4,7.14-6.74,12.45-13.9,12.24C48.53,73.51,46,61,46,61h5a1,1,0,0,0,1-.9,13,13,0,0,1,26,1.65Z"/><path class="cls-5" d="M76,61.28c-.16,6.26-5.78,11-12,10.7-11.49-.49-15-9-15-9h3.5A1.5,1.5,0,0,0,54,61.5v-.16a11.22,11.22,0,0,1,10-11.3A11,11,0,0,1,76,61.28Z"/><path class="cls-2" d="M30.43,66H27A13,13,0,0,1,14,53h2A11,11,0,0,0,27,64h3.43Z"/><rect class="cls-2" x="29" y="62" width="8" height="6" rx="2"/><path class="cls-2" d="M40,11A29,29,0,0,1,69,40h2A31,31,0,0,0,9,40h2A29,29,0,0,1,40,11Z"/><rect class="cls-4" x="60" y="55" width="10" height="2" rx="1"/><rect class="cls-4" x="60" y="65" width="10" height="2" rx="1"/><rect class="cls-4" x="58" y="60" width="14" height="2" rx="1"/><rect class="cls-6" width="80" height="80"/></svg>