<svg id="Capa_1" data-name="Capa 1" xmlns="http://www.w3.org/2000/svg" viewBox="0 0 80 80"><defs><style>.cls-1{fill:#e3f3f9;}.cls-2{fill:#4689e8;}.cls-3{fill:#2b9f52;}.cls-4{fill:#faa34d;}.cls-5{fill:#fff8ed;}.cls-6{fill:#f0f7f9;}.cls-7{fill:none;}</style></defs><title>mir-illustration-geography</title><circle class="cls-1" cx="40" cy="40" r="30"/><path class="cls-2" d="M60.5,60.5a29,29,0,1,1-41-41l-1.41-1.41A31,31,0,1,0,61.91,61.91Z"/><path class="cls-3" d="M50,30.41c-1.27.21-2,.15-2.68,2.06s-1.88.83-2.59.94-2.92,1.25-2.59-.7-2-1.87-3.24-.39-1,1.77-2.36,2.34-2.11-1.43-3-.33-1.32,1.72-1.83,1.15-1.37,0-2.4-.28-2.69.4-2.55-1.79-.33-3.52-2.21-2-1.46,3.2-4.14,3.29-1.51,2.3-1.51,3-1.6,2.42-.47,4.51-1.55,2.12-2,2.08-1.51,1.53.28,2.53,1.18,2.63,1.89,2.77.8-2.25,1.78-2.15,0-2.2,1.32-2.44,2.07,0,2.26.61,1.37,2,2.68,1.69-.09-1.39,1.93-1.29,2.87.19,3,1.14,1.88-.14,2.35,1.63A3,3,0,0,0,37,50.86c1,0,1.46-1.34,3.2-.72S41.45,48.9,42,48.9s1.56.81,3.2.43,4.14,1.24,4.29-1.15.28-3.92,1.5-3.2,1.23,1.48,3.16,1.15,1.31-.71,1.92-.59.8.83.43,2.07,1.36,2.53,2-.38-.33-3.35-1-4.59-1.13-2-1.88-1.77-2.3,1-2.12-.43.11-2.53,1-3.15S55,35,54.94,34s1.1-1.44,1.66-1.3.67,1.1.83,2.2c.28,1.78,2.12,2.39,3.2,2.63s.3-2.54-.69-3.78-2-2-1.5-3.3.19-3.29-.43-3.72-1.6,0-.56-2.53-1.46-1.91-1.93-.29-2.12,1.53-2.73,3S52.37,30,50,30.41Z"/><path class="cls-4" d="M79,56c0,7.18-13,23.2-13,23.2S53,63.18,53,56a13,13,0,0,1,26,0Z"/><path class="cls-5" d="M77,56c0,6.08-11,20-11,20S55,62.08,55,56a11,11,0,0,1,22,0Z"/><circle class="cls-4" cx="66" cy="56" r="5"/><circle class="cls-6" cx="66" cy="56" r="3"/><rect class="cls-2" x="32" y="78" width="16" height="2"/><rect class="cls-2" x="39" y="69" width="2" height="11"/><rect class="cls-7" width="80" height="80"/></svg>