<svg id="Capa_1" data-name="Capa 1" xmlns="http://www.w3.org/2000/svg" viewBox="0 0 80 80"><defs><style>.cls-1{fill:#e3f3f9;}.cls-2{fill:#2b9f52;}.cls-3{fill:#4689e8;}.cls-4,.cls-7{fill:none;}.cls-5{fill:#fff8ed;}.cls-6{fill:#faa34d;}.cls-7{stroke:#faa34d;stroke-linecap:round;stroke-miterlimit:10;stroke-width:2px;}</style></defs><title>mir-illustration-choice</title><rect class="cls-1" x="4" y="8" width="72" height="20" rx="2"/><rect class="cls-2" x="63" y="21" width="10" height="3" rx="1"/><rect class="cls-1" x="4" y="30" width="72" height="20" rx="2"/><rect class="cls-1" x="4" y="52" width="72" height="20" rx="2"/><rect class="cls-2" x="63" y="43" width="10" height="3" rx="1"/><rect class="cls-3" x="8" y="12" width="12" height="12" rx="1"/><rect class="cls-3" x="8" y="34" width="12" height="12" rx="1"/><rect class="cls-3" x="8" y="56" width="12" height="12" rx="1"/><rect class="cls-4" width="80" height="80"/><path class="cls-5" d="M70,74V67a2,2,0,0,0-2-2H64a2,2,0,0,0-2,2v7H56a1,1,0,0,1-1-1V58.41l8.17-8.17a4,4,0,0,1,5.66,0L77,58.41V73a1,1,0,0,1-1,1Z"/><path class="cls-6" d="M66,50.07a3,3,0,0,1,2.12.88L76,58.83V73H71V67a3,3,0,0,0-3-3H64a3,3,0,0,0-3,3v6H56V58.83L63.88,51A3,3,0,0,1,66,50.07m0-2a5,5,0,0,0-3.54,1.47L54,58V73a2,2,0,0,0,2,2h7V67a1,1,0,0,1,1-1h4a1,1,0,0,1,1,1v8h7a2,2,0,0,0,2-2V58l-8.46-8.46A5,5,0,0,0,66,48.07Z"/><path class="cls-7" d="M52.9,60.5,63.18,50.3a4,4,0,0,1,5.64,0L79.1,60.5"/></svg>