<?xml version="1.0" encoding="utf-8"?>
<!-- Generator: Adobe Illustrator 23.0.0, SVG Export Plug-In . SVG Version: 6.00 Build 0)  -->
<svg version="1.1" id="Capa_1" xmlns="http://www.w3.org/2000/svg" xmlns:xlink="http://www.w3.org/1999/xlink" x="0px" y="0px"
	 viewBox="0 0 80 80" style="enable-background:new 0 0 80 80;" xml:space="preserve">
<style type="text/css">
	.st0{fill:none;}
	.st1{fill:#E3F3F9;}
	.st2{fill:#4689E8;}
	.st3{fill:#2B9F52;}
	.st4{fill:#FAA34D;}
	.st5{fill:#FFF8ED;}
</style>
<rect class="st0" width="80" height="80"/>
<path class="st1" d="M78,65H2c-1.1,0-2-0.9-2-2V17c0-1.1,0.9-2,2-2h76c1.1,0,2,0.9,2,2v46C80,64.1,79.1,65,78,65z"/>
<rect x="0" y="24" class="st2" width="80" height="9"/>
<rect x="5" y="54" class="st3" width="10" height="3"/>
<circle class="st4" cx="63" cy="63" r="15"/>
<circle class="st5" cx="63" cy="63" r="13"/>
<path class="st4" d="M64.5,55H59v15h1.5v-3H65v-1.5h-4.5V64h4c2.5,0,4.5-2,4.5-4.5S67,55,64.5,55z M64.5,62.5h-4v-6h4
	c1.7,0,3,1.3,3,3S66.2,62.5,64.5,62.5z"/>
</svg>
