<svg id="Capa_1" data-name="Capa 1" xmlns="http://www.w3.org/2000/svg" viewBox="0 0 80 80"><defs><style>.cls-1{fill:#e3f3f9;}.cls-2{fill:#4689e8;}.cls-3{fill:#faa34d;}.cls-4{fill:#fff8ed;}.cls-5{fill:#2b9f52;}.cls-6{fill:#fff;}.cls-7{fill:none;}</style></defs><title>mir-illustration-geography</title><circle class="cls-1" cx="40" cy="40" r="30"/><path class="cls-2" d="M60.5,60.5a29,29,0,1,1-41-41l-1.41-1.41A31,31,0,1,0,61.91,61.91Z"/><path class="cls-3" d="M78,60c0,9.1-12,20-12,20S54,69.68,54,60a12,12,0,0,1,24,0Z"/><path class="cls-4" d="M76,60c0,7.58-10,17-10,17S56,68.06,56,60a10,10,0,0,1,20,0Z"/><path class="cls-5" d="M50.2,32c-1.12.18-1.78.12-2.36,1.81s-1.66.73-2.28.82S43,35.76,43.29,34s-1.79-1.64-2.86-.34-.91,1.55-2.07,2.06-1.86-1.26-2.65-.3-1.16,1.52-1.62,1-1.2,0-2.11-.24-2.36.35-2.23-1.58-.29-3.09-1.95-1.79-1.28,2.81-3.64,2.9-1.33,2-1.33,2.6-1.4,2.14-.41,4-1.37,1.87-1.78,1.83-1.32,1.34.25,2.23,1,2.31,1.65,2.43.71-2,1.58-1.89,0-1.93,1.16-2.14,1.82,0,2,.53,1.2,1.78,2.36,1.49-.08-1.22,1.7-1.14,2.53.17,2.61,1,1.65-.13,2.07,1.43A2.67,2.67,0,0,0,38.77,50c.91,0,1.29-1.18,2.82-.63s1.07-1.09,1.57-1.09,1.37.71,2.82.38,3.64,1.09,3.76-1,.25-3.45,1.33-2.82,1.07,1.3,2.77,1,1.16-.62,1.7-.52.7.73.37,1.82,1.2,2.23,1.74-.33-.29-2.94-.83-4-1-1.72-1.65-1.55-2,.88-1.87-.38.09-2.23.88-2.77.43-2,.35-2.93S55.5,33.87,56,34s.59,1,.73,1.94C57,37.5,58.59,38,59.54,38.25s.26-2.24-.61-3.33-1.78-1.77-1.32-2.9.16-2.9-.37-3.28-1.41,0-.5-2.22-1.28-1.69-1.7-.26-1.86,1.35-2.4,2.61S52.27,31.68,50.2,32Z"/><circle class="cls-3" cx="66" cy="60" r="5"/><circle class="cls-6" cx="66" cy="60" r="3"/><path class="cls-2" d="M33,78H47a1,1,0,0,1,1,1v1a0,0,0,0,1,0,0H32a0,0,0,0,1,0,0V79A1,1,0,0,1,33,78Z"/><path class="cls-2" d="M38,74h4a2,2,0,0,1,2,2v2a0,0,0,0,1,0,0H36a0,0,0,0,1,0,0V76A2,2,0,0,1,38,74Z"/><path class="cls-2" d="M15.17,16.59h5a0,0,0,0,1,0,0v2a0,0,0,0,1,0,0h-5a1,1,0,0,1-1-1v0a1,1,0,0,1,1-1Z" transform="translate(17.46 -6.99) rotate(45)"/><rect class="cls-2" x="39" y="69" width="2" height="11"/><rect class="cls-7" width="80" height="80"/></svg>