<svg id="Capa_1" data-name="Capa 1" xmlns="http://www.w3.org/2000/svg" viewBox="0 0 80 80"><defs><style>.cls-1{fill:#e3f3f9;}.cls-2{fill:#4689e8;}.cls-3{fill:#2b9f52;}.cls-4{fill:#faa34d;}.cls-5{fill:#fff8ed;}.cls-6{fill:none;}</style></defs><title>mir-illustration-support</title><circle class="cls-1" cx="40" cy="40" r="30"/><rect class="cls-2" x="62" y="34" width="6" height="18" rx="2" transform="translate(130 86) rotate(180)"/><path class="cls-2" d="M70,37h2a0,0,0,0,1,0,0V49a0,0,0,0,1,0,0H70a2,2,0,0,1-2-2V39A2,2,0,0,1,70,37Z" transform="translate(140 86) rotate(180)"/><path class="cls-3" d="M38.81,42.12a6.46,6.46,0,0,1,.13-2.3,5.47,5.47,0,0,1,.72-1.64,6,6,0,0,1,1-1.19c.38-.34.75-.66,1.09-1a5.35,5.35,0,0,0,.84-1A2.1,2.1,0,0,0,43,33.83a2.06,2.06,0,0,0-.51-1.46,2.42,2.42,0,0,0-1.8-.54,4.71,4.71,0,0,0-.89.09,6.46,6.46,0,0,0-.93.26,6.6,6.6,0,0,0-.9.39,8.75,8.75,0,0,0-.77.45l-1.3-2.49a9.31,9.31,0,0,1,2.28-1.12,9.45,9.45,0,0,1,3.1-.44,5.7,5.7,0,0,1,3.83,1.18,4,4,0,0,1,1.37,3.18,5.8,5.8,0,0,1-.35,2.2A5.07,5.07,0,0,1,45.23,37a6.83,6.83,0,0,1-1.14,1.08,11.3,11.3,0,0,0-1.15,1,5.33,5.33,0,0,0-.88,1.24,3.93,3.93,0,0,0-.36,1.79Zm-.52,3.7a1.9,1.9,0,0,1,.57-1.45,2.16,2.16,0,0,1,1.51-.53,2.22,2.22,0,0,1,1.56.53,2.13,2.13,0,0,1,0,2.9,2.18,2.18,0,0,1-1.56.55,2.12,2.12,0,0,1-1.51-.55A1.91,1.91,0,0,1,38.29,45.82Z"/><rect class="cls-2" x="12" y="34" width="6" height="18" rx="2"/><path class="cls-2" d="M10,37h2a0,0,0,0,1,0,0V49a0,0,0,0,1,0,0H10a2,2,0,0,1-2-2V39A2,2,0,0,1,10,37Z"/><circle class="cls-4" cx="63" cy="63" r="15"/><circle class="cls-5" cx="63" cy="63" r="13"/><path class="cls-2" d="M30.43,65H27A13,13,0,0,1,14,52h2A11,11,0,0,0,27,63h3.43Z"/><rect class="cls-2" x="29" y="61" width="8" height="6" rx="2"/><polygon class="cls-4" points="49 63 52 71 43 63 51 55 49 63"/><rect class="cls-5" x="47.76" y="58.76" width="8.49" height="8.49" transform="translate(-29.32 55.22) rotate(-45)"/><path class="cls-2" d="M40,11A29,29,0,0,1,69,40h2A31,31,0,0,0,9,40h2A29,29,0,0,1,40,11Z"/><rect class="cls-4" x="58" y="57" width="10" height="2"/><rect class="cls-4" x="58" y="67" width="10" height="2"/><rect class="cls-4" x="55" y="62" width="16" height="2"/><rect class="cls-6" width="80" height="80"/></svg>