<?xml version="1.0" encoding="utf-8"?>
<!-- Generator: Adobe Illustrator 23.0.0, SVG Export Plug-In . SVG Version: 6.00 Build 0)  -->
<svg version="1.1" id="Слой_1" xmlns="http://www.w3.org/2000/svg" xmlns:xlink="http://www.w3.org/1999/xlink" x="0px" y="0px"
	 viewBox="0 0 16 16" style="enable-background:new 0 0 16 16;" xml:space="preserve">
<style type="text/css">
	.st0{fill:#FFFFFF;}
	.st1{fill:#169DA7;}
	.st2{fill:#365A77;}
</style>
<path class="st0" d="M3,0h10c1.7,0,3,1.3,3,3v10c0,1.7-1.3,3-3,3H3c-1.7,0-3-1.3-3-3V3C0,1.3,1.3,0,3,0z"/>
<g>
	<g>
		<path class="st1" d="M11.5,4.3c0,1.3-1.9,3.3-1.9,3.4c0.5,0.6,1.2,1.1,1.7,1.6c0.6-1.1,0.9-2.2,0.9-3.1c0-1-0.2-1.8-0.8-2.5
			C11.5,4,11.5,4.1,11.5,4.3z"/>
	</g>
	<g>
		<path class="st2" d="M9.6,7.7c0,0-1.9-1.8-1.9-3.4c0-1,0.9-1.8,1.9-1.8c0.3,0,0.5,0.1,0.5,0.1C9.7,2.3,8.8,2,8,2
			C5.7,2,3.8,3.9,3.8,6.2C3.8,9.2,8,14,8,14s2-2.3,3.3-4.7C10.8,8.8,10.1,8.2,9.6,7.7z"/>
	</g>
</g>
</svg>
