<?xml version="1.0" encoding="utf-8"?>
<!-- Generator: Adobe Illustrator 23.0.0, SVG Export Plug-In . SVG Version: 6.00 Build 0)  -->
<svg version="1.1" id="Слой_1" xmlns="http://www.w3.org/2000/svg" xmlns:xlink="http://www.w3.org/1999/xlink" x="0px" y="0px"
	 viewBox="0 0 16 16" style="enable-background:new 0 0 16 16;" xml:space="preserve">
<style type="text/css">
	.st0{fill:none;}
	.st1{fill:#169DA7;}
	.st2{fill:#365A77;}
</style>
<rect class="st0" width="16" height="16"/>
<g>
	<g>
		<path class="st1" d="M12.7,3.1c0,1.7-2.5,4.5-2.5,4.5c0.7,0.8,1.4,1.5,2.2,2.1c0.8-1.4,1.3-2.9,1.3-4.1c0-1.3-0.4-2.5-1.2-3.5
			C12.6,2.5,12.7,2.8,12.7,3.1z"/>
	</g>
	<g>
		<path class="st2" d="M10.2,7.7L10.2,7.7c0,0-0.1-0.1-0.3-0.3l0,0l0,0C9.8,7.2,9.7,7.1,9.5,6.9l0,0l0,0C9.4,6.8,9.3,6.6,9.2,6.5
			l0,0l0,0C9.1,6.3,8.9,6.1,8.8,5.9l0,0l0,0C8.5,5.5,8.3,5.1,8.1,4.6l0,0C8,4.6,8,4.5,8,4.4c0-0.1,0-0.1-0.1-0.2s0-0.1-0.1-0.2
			c0-0.1,0-0.1-0.1-0.2c0,0,0-0.1,0-0.1c0-0.1,0-0.1,0-0.2c0,0,0-0.1,0-0.1c0-0.1,0-0.2,0-0.3c0-1.4,1.1-2.5,2.5-2.5
			c0.1,0,0.2,0,0.3,0c0,0,0.1,0,0.1,0c0.1,0,0.1,0,0.2,0h0C10,0.3,9,0,8,0C4.9,0,2.3,2.5,2.3,5.7C2.3,9.6,8,16,8,16s2.7-3.1,4.4-6.2
			C11.6,9.1,10.8,8.4,10.2,7.7z"/>
	</g>
</g>
</svg>
