<?xml version="1.0" encoding="utf-8"?>
<!-- Generator: Adobe Illustrator 23.0.4, SVG Export Plug-In . SVG Version: 6.00 Build 0)  -->
<svg version="1.1" id="Слой_1" xmlns="http://www.w3.org/2000/svg" xmlns:xlink="http://www.w3.org/1999/xlink" x="0px" y="0px"
	 viewBox="0 0 130 130" style="enable-background:new 0 0 130 130;" xml:space="preserve">
<style type="text/css">
	.st0{fill-rule:evenodd;clip-rule:evenodd;fill:none;}
	.st1{fill-rule:evenodd;clip-rule:evenodd;fill:#D8D8D8;}
	.st2{fill:#919191;}
	.st3{fill-rule:evenodd;clip-rule:evenodd;fill:#707070;}
	.st4{fill-rule:evenodd;clip-rule:evenodd;fill:#EFEFEF;}
	.st5{fill-rule:evenodd;clip-rule:evenodd;fill:#FFFFFF;}
	.st6{fill-rule:evenodd;clip-rule:evenodd;fill:#BEBEBE;}
	.st7{fill-rule:evenodd;clip-rule:evenodd;fill:#FE6E26;}
	.st8{fill-rule:evenodd;clip-rule:evenodd;fill:#FF9D2A;}
	.st9{fill-rule:evenodd;clip-rule:evenodd;fill:#FF7F05;}
	.st10{fill-rule:evenodd;clip-rule:evenodd;fill:#FFD9AB;}
	.st11{fill-rule:evenodd;clip-rule:evenodd;fill:#FFB35F;}
	.st12{fill-rule:evenodd;clip-rule:evenodd;fill:#FAA446;}
	.st13{fill-rule:evenodd;clip-rule:evenodd;fill:#F59C4B;}
</style>
<rect class="st0" width="130" height="130"/>
<title>Group 36</title>
<desc>Created with Sketch.</desc>
<path id="Combined-Shape" class="st1" d="M38.1,5.4l9.6,12.8l4.8,6.4l-9.8-1.4L25.1,36.4c-0.4,0.3-1.1,0.2-1.4-0.2l-9.6-12.8
	c-0.3-0.4-0.2-1.1,0.2-1.4L36.7,5.2C37.1,4.9,37.7,5,38.1,5.4z"/>
<path class="st2" d="M28.2,27.8c0.7-0.5,1.2-1.2,1.3-1.8s0-1.3-0.5-2c-0.4-0.6-1-0.9-1.6-0.9c-0.6,0-1.3,0.2-1.9,0.7
	c-0.3,0.2-0.6,0.5-0.9,0.8l0,0l-1.3-2l2.5-1.9l-0.5-0.7l-3.1,2.3l2,3.1l0.5,0c0.4-0.4,0.7-0.7,1-0.9c1.1-0.8,1.9-0.8,2.6,0.1
	c0.3,0.4,0.5,0.9,0.4,1.3c-0.1,0.4-0.4,0.9-0.9,1.2c-0.3,0.2-0.6,0.4-1,0.6s-0.7,0.2-1,0.3l0,0l0.5,0.7
	C26.9,28.7,27.5,28.4,28.2,27.8z M32.6,26.2c-0.1-0.4-0.2-0.9-0.4-1.4c-0.1-0.5-0.3-0.9-0.4-1.2l0,0l-0.1-0.1l-0.8,0.6
	c0.2,0.3,0.4,0.7,0.6,1.2c0.2,0.5,0.4,0.9,0.6,1.3l0,0L32.6,26.2z M35.1,22.5l-1.7-7.6L33,14.3l-4.2,3.1l0.5,0.7l3.4-2.6l1.6,7.6
	L35.1,22.5z"/>
<path class="st1" d="M22.1,125l-2.6-9.6l-19.1-11c-0.5-0.3-0.6-0.9-0.4-1.4l8-13.9c0.3-0.5,0.9-0.6,1.4-0.4l24.2,14
	c0.5,0.3,0.6,0.9,0.4,1.4L22.1,125z"/>
<path class="st2" d="M10.7,104.6c0.7,0.4,1.3,0.5,1.9,0.4c0.6-0.1,1-0.4,1.4-1c0.2-0.4,0.3-0.8,0.2-1.2c-0.1-0.4-0.3-0.9-0.7-1.5
	c0.6,0,1.1,0,1.4-0.2c0.4-0.2,0.6-0.4,0.8-0.7c0.3-0.5,0.3-1,0.1-1.5c-0.2-0.5-0.6-0.9-1.2-1.3c-0.6-0.4-1.2-0.5-1.7-0.4
	c-0.5,0.1-0.9,0.4-1.2,0.9c-0.2,0.3-0.3,0.7-0.3,1.1c0,0.4,0.2,0.8,0.5,1.3c-1.2-0.1-2,0.2-2.5,1c-0.3,0.6-0.4,1.1-0.2,1.7
	C9.5,103.7,10,104.2,10.7,104.6z M13,100.6c-0.4-0.5-0.6-0.9-0.7-1.2c-0.1-0.3,0-0.6,0.1-0.9c0.2-0.3,0.4-0.5,0.8-0.6
	c0.3-0.1,0.7,0,1.1,0.2c0.4,0.2,0.6,0.5,0.8,0.8s0.1,0.6-0.1,0.9c-0.2,0.3-0.4,0.5-0.7,0.6C14,100.6,13.6,100.7,13,100.6z M11,103.9
	c-0.5-0.3-0.8-0.6-0.9-0.9c-0.1-0.4-0.1-0.7,0.1-1.1c0.2-0.3,0.5-0.6,0.8-0.7c0.3-0.1,0.8-0.1,1.4-0.1c0.5,0.6,0.8,1,0.9,1.4
	c0.1,0.4,0.1,0.7-0.1,1c-0.2,0.4-0.5,0.6-0.9,0.7C11.9,104.3,11.5,104.2,11,103.9z M13.6,107.8c0.4-0.3,0.7-0.5,1.1-0.9
	c0.4-0.3,0.7-0.6,1-0.9l0,0l0-0.1l-0.8-0.5c-0.2,0.3-0.5,0.6-0.9,1c-0.4,0.4-0.7,0.8-1,1l0,0L13.6,107.8z M20.7,110.2l0.4-0.7
	l-3.5-2l0,0l2.3-0.6c1-0.3,1.8-0.5,2.3-0.8c0.5-0.3,0.9-0.6,1.1-1.1c0.3-0.6,0.4-1.1,0.2-1.6s-0.6-1-1.2-1.4
	c-0.7-0.4-1.6-0.6-2.5-0.4l0,0l0.1,0.8c0.5-0.1,0.8-0.1,1.1,0s0.6,0.2,0.9,0.3c0.4,0.2,0.6,0.5,0.7,0.8s0,0.7-0.2,1.1
	c-0.1,0.3-0.3,0.5-0.5,0.6c-0.2,0.2-0.5,0.3-0.8,0.5c-0.3,0.1-0.9,0.3-1.8,0.6l0,0l-2.8,0.8l-0.4,0.7L20.7,110.2z"/>
<path class="st1" d="M121.3,29.7l8.7,26.6c0.2,0.5-0.1,1.1-0.6,1.3l-15.2,4.9l-7.6,2.5l4.5-8.8l-6.8-20.9c-0.2-0.5,0.1-1.1,0.6-1.3
	L120,29C120.6,28.9,121.1,29.2,121.3,29.7z"/>
<path class="st2" d="M112.4,43.6l7.5-2.4l-0.2-0.7l-2.2-1.5l-0.4,0.6c0.8,0.5,1.3,0.8,1.4,0.9c0.1,0.1,0.2,0.1,0.3,0.2
	c-0.4,0.1-0.8,0.2-1.3,0.4l0,0l-5.3,1.7L112.4,43.6z M114,48.9c0.3,0.8,0.8,1.4,1.6,1.6c0.8,0.2,1.8,0.1,3.1-0.3
	c1.2-0.4,2.1-0.9,2.7-1.6c0.5-0.6,0.6-1.4,0.4-2.2c-0.3-0.8-0.8-1.3-1.5-1.5c-0.8-0.2-1.8-0.1-3.1,0.3c-1.3,0.4-2.1,0.9-2.7,1.6
	C113.9,47.4,113.8,48.1,114,48.9z M114.8,48.7c-0.2-0.6-0.1-1,0.3-1.5c0.4-0.4,1.2-0.8,2.2-1.2s1.9-0.5,2.5-0.4c0.6,0.1,1,0.4,1.1,1
	c0.2,0.6,0.1,1.1-0.3,1.5c-0.4,0.4-1.2,0.8-2.2,1.1c-1.1,0.3-1.9,0.5-2.5,0.4C115.3,49.6,115,49.2,114.8,48.7z"/>
<path id="Rectangle" class="st3" d="M46,29h42c3.3,0,6,2.7,6,6v78c0,3.3-2.7,6-6,6H46c-3.3,0-6-2.7-6-6V35C40,31.7,42.7,29,46,29z"
	/>
<path class="st4" d="M46,33h42c1.1,0,2,0.9,2,2v78c0,1.1-0.9,2-2,2H46c-1.1,0-2-0.9-2-2V35C44,33.9,44.9,33,46,33z"/>
<rect x="42" y="109" class="st3" width="50" height="8"/>
<circle id="Oval" class="st1" cx="67" cy="114" r="3"/>
<g>
	
		<image style="overflow:visible;opacity:0.1;" width="84" height="79" xlink:href="F3DFD38FE24ED70F.png"  transform="matrix(1 0 0 1 24 38)">
	</image>
	<g>
		<path class="st5" d="M102,110L87,95H32c-1.1,0-2-0.9-2-2V45c0-1.1,0.9-2,2-2h68c1.1,0,2,0.9,2,2V110z"/>
	</g>
</g>
<path class="st6" d="M37,51h11c1.1,0,2,0.9,2,2v9c0,1.1-0.9,2-2,2H37c-1.1,0-2-0.9-2-2v-9C35,51.9,35.9,51,37,51z"/>
<rect x="35" y="75" class="st6" width="47" height="1"/>
<rect x="35" y="69" class="st7" width="17" height="1"/>
<rect x="35" y="78" class="st6" width="37" height="1"/>
<rect x="35" y="81" class="st6" width="43" height="1"/>
<rect x="35" y="84" class="st6" width="53" height="1"/>
<rect x="35" y="87" class="st6" width="23" height="1"/>
<path class="st8" d="M32,43c0.7,0,23.4,0,68,0c0.7,0,1.3,0.3,1.7,1H30.3C30.7,43.3,31.3,43,32,43z"/>
<g id="Group-34" transform="translate(94.669974, 82.624787) rotate(-330.000000) translate(-94.669974, -82.624787) translate(90.169974, 62.624787)">
	<rect x="6" y="5.8" transform="matrix(2.729302e-06 1 -1 2.729302e-06 17.3301 3.3301)" class="st5" width="2" height="9"/>
	<path class="st9" d="M4.5,4.3l5,0c1.1,0,2,0.9,2,2v3l0,0l-9,0l0-3C2.5,5.2,3.4,4.3,4.5,4.3z"/>
	<polygon class="st10" points="2.5,37.3 11.5,37.3 8.5,42.3 5.5,42.3 	"/>
	<path class="st11" d="M2.5,11.3l3,0l0,26l-0.7,0.9c-0.3,0.4-1,0.5-1.4,0.2c-0.1,0-0.1-0.1-0.1-0.1l-0.8-0.9l0,0L2.5,11.3z"/>
	<path class="st12" d="M5.5,11.3l3,0l0,26l-0.7,0.9c-0.3,0.4-1,0.5-1.4,0.2c-0.1,0-0.1-0.1-0.1-0.1l-0.8-0.9l0,0L5.5,11.3z"/>
	<path class="st13" d="M8.5,11.3h3l0,26l-0.7,0.9c-0.3,0.4-1,0.5-1.4,0.2c-0.1,0-0.1-0.1-0.1-0.1l-0.8-0.9l0,0L8.5,11.3z"/>
	<path class="st3" d="M5.5,42.3h3l-0.8,1.6c-0.1,0.3-0.4,0.4-0.7,0.4s-0.6-0.2-0.7-0.4L5.5,42.3L5.5,42.3z"/>
</g>
</svg>
