<?xml version="1.0" encoding="utf-8"?>
<!-- Generator: Adobe Illustrator 24.0.1, SVG Export Plug-In . SVG Version: 6.00 Build 0)  -->
<svg version="1.1" id="Слой_1" xmlns="http://www.w3.org/2000/svg" xmlns:xlink="http://www.w3.org/1999/xlink" x="0px" y="0px"
	 viewBox="0 0 1920 630" style="enable-background:new 0 0 1920 630;" xml:space="preserve">
<style type="text/css">
	.st0{fill:url(#sky_1_);}
	.st1{opacity:0.8;}
	.st2{opacity:0.1;fill:#F9C891;enable-background:new    ;}
	.st3{fill:#F9C891;}
	.st4{fill:#D38760;}
	.st5{opacity:0.7;fill:#F9C891;enable-background:new    ;}
	.st6{fill:#E09564;}
	.st7{fill:#C07857;}
	.st8{fill:#BB7356;}
	.st9{fill:#67423C;}
	.st10{fill:#271525;}
	.st11{fill:#281728;}
	.st12{fill:#2C192C;}
	.st13{fill:#332033;}
	.st14{fill:#2C192A;}
	.st15{fill:#312033;}
	.st16{fill:#281726;}
	.st17{fill:#271523;}
	.st18{fill:#FF0000;}
	.st19{fill:#1400FF;}
	.st20{fill:#FFFFFF;}
	.st21{fill-rule:evenodd;clip-rule:evenodd;fill:#67423C;}
</style>
<defs>
	<path id="tree" class="st7" d="M411.8,312.7c0.4,0-3.1-4.1-2.9-3.7c-1.1-2,0.6-1.8,1.4-3.3c0.3-0.6,2.7,1.4,2.8,2.3
		c0-0.5,2.1,0.3,2.4,0.3c0.1-0.8,0.1-1.1,0.4-2c-1.3-0.4-3.7-1-1.3-1.5c0.2,0,0-0.8,0.5-0.8c-0.2,0,2.8,1.6,3.4,1.7
		c-0.6-0.6-2.9-1.3-2.2-2.5c0.2-0.4,3.1,1.9,3.1,1.9c0-2.4-1.9-1.5-3-2.2c-0.8-0.5-2,0.7-2.3-0.8c-0.3-1.4,4.6-1,4.9-1
		c-3.2-2.3-2.8-2.6,1-1c0-0.6-1.3-0.9-0.8-2c0.5-0.9,2.8,1.8,2.8,1.8c0.3-1.4-1-2-2.7-2.7c-0.8-0.4-5.3-0.9-4.2-2.2
		c1.2-1.4,5,0.7,6.3,1.7c-1.4-2-3.7-1.8-2.1-3.5c0.8-0.9,2.7-1.1,3.7-0.5c-0.3-0.2-4.1-1.4-3.9-2c0.4-1.4,1.8-0.8,2.8-0.3
		c-0.5-1.2,1.5-1.9,2.4-1.9c-0.8,0-6.4-0.2-4.2-2c0.4-0.3,3.6,0.4,4.5,0.4c-6.5-5.3-0.1-2,3,1c0.2-1.4-3.6-4.1-2.4-5.2
		c0.5-0.4,2.6,2.6,2.6,2.7c-0.6-3.1-4.2-7.2-6.3-7.2c5.7,0-0.2-0.5,2.4-1c0.2,0,1.8,2.4,1.9,2.5c-0.3-0.7-0.2-1.1,0.5-1.5
		c1.6,0.8,2.2,2,3.6,2.6c-1-1.3-7.7-5.4-7.2-6.3c0.2-0.4,1.9,0.6,2.1,0.6c-0.1-0.1-2.6-5.3-0.8-4.8c0.6,0.8,1,1.7,1,2.7
		c0.3-0.9,0.9-1,1.7-0.2c0-0.4-0.6-2.1,0.4-1.8c1.6,0.4,0.4,6.1,2.2,7.5c0-0.9-0.2-2-0.1-2.6c0,0,1.1-1.1,1.2-1c-0.1-0.9-2-2.2-1.7-3
		c0.3-0.7,2.1,2.7,2.3,3.2c-0.2-0.7-2.7-5.1-1.5-5.4c0.2-0.1,1.7,3,1.6,2.9c0.2-1.6-2.2-7.8-1.4-8.1c0.6,0.3,1,0.7,1.4,1.3
		c0-0.8-1.7-6-0.4-6.2c0.7-0.1,1.2,3.7,1.2,3.7c0-1.4-1.5-8.2-1.6-8.2c0.4-0.1,0.7,0.8,1,1c0.2-2,0.2-8.7,2-4
		c0.7,1.8,0.2,4.2,0.2,6.2c0.2-0.4,0.4-0.9,0.6-1.3c0,0-1.5,5.6-1.5,7.2c0,0.1,2.6-4,3.1-3.5c0.9,1-1.4,2.8-1.5,3
		c0.1,0,0.7-0.9,0.9-0.6c-0.3-0.5-2.9,4.8-2.7,6.1c0.2-0.5,4.8-6.1,5.4-4.9c0.8,1.5-2.6,2.8-3.2,3.9c3.7-1.5,0.1,2,0.2,1.7
		c-0.6,1.8-2,3.4-2.5,5.4c5.1-6.5,0.2,2.3,0.1,3.8c0.2-0.2,5.2-6.9,5.3-7c0.1,0.2-0.5,1.9-0.5,2c0.4-0.8,2-3.1,2.6-1.8
		c0.5,1.2-1.1,1.5-1.6,2.2c0.4,0,0.9,0,1.3,0c-1.6,0-5.1,4.4-6.8,5.9c0.3-0.1,8.8-6.7,7.4-3c-0.4,1.1-1.7,1.2-3,1.3
		c1.6,0,5.8,1.1,2.8,2.5c0.3,0.2,1.2,0.3,1.1,0.9c0,0-2.8-0.6-3.6-0.2c1,0.6,0.5,0.6,1.7,0.9c0.2,0.2,0.2,0.4,0,0.6
		c-1.3,0.3-2.2-0.7-2.6-1.5c1.7,1.7-2.5,4.4-3.4,4.8c-0.1,0.1,5.3-0.5,5.3-0.5c1.5,0.2,2.9-0.5,1.1,1.1c0.2,0,1.8-0.5,1.9-0.3
		c0.1,0.3-5,1.2-5.3,1.3c1.9,0.2,8.5,0.3,4,1.8c-1.3-1.3,2.6,1.7,1.1,1.7c-2.7-1.9-2.1-1-4.9-1.5c1.1,1.1,5.8,1.9,4.9,4.1
		c-0.3,0.6-6.4-0.9-6.6-0.9c1,0.7,6.6,1.9,5.7,3.5c-0.3,0.4-0.7-0.2-0.9-0.1c1.3,3.2,3.6-1.9,4.4-0.5c0.2,0.3-3.4,3.2-4,3.8
		c1.9-0.1,1.2-1,3.5-1c0.6,0,2.4,1.2,2,1.2c0.8-0.1,3.3-1.5,3.5-1.3c1,1.2-1.3,2.6-1.7,2.7c3,0,3.1-0.8,1.8,1.3
		c-0.7,0.3-1.4,0.5-2.1,0.4c0.3,0.5,0.2,0.9-0.2,1.2c-0.9,0.4-2.2-1.6-3.7-2c1.1,1.1,2.6,2.2,0.8,2.4c0.2,0.8,0,1.4-0.6,1.8
		c0,0,4.1-2.6,4.1-1.5c0,0.4-2,1.7-2.3,2.4c0.8-1,1.5-1.2,2.2-0.6c0.1,0.5-3.9,2.2-4.2,2.6c0.3-0.2,4.6-1,4.7-0.9
		c-0.2-0.3-1.1,2.7-0.5,2.7c1.1,1.1,2-2.6,2.2-2.5c0,0,0.2,3.7-0.2,4c-0.3,0.3-2-0.1-2.3,0c-4,0.8-8.9,0-13,0
		C426.7,312.9,418.3,314.3,411.8,312.7C411.7,312.7,412.2,312.8,411.8,312.7z"/>
	<path id="trees" class="st7" d="M536.9,300.7c0,0,0.2-3.9,0-4c0.1,0.1-0.5,0.9-0.6,1c-0.1,0-0.1-0.1-0.2-0.1
		c-0.3,0,0.2-1,0.2-1c0,0-1.6,0.2-1.7,0.3c0.1-0.1,1.5-0.9,1.5-1c-0.2-0.2-0.5-0.1-0.8,0.3c0.1-0.1,0.8-0.9,0.8-0.9
		c0-0.4-1.6,0.6-1.5,0.5c0.2-0.2,0.3-0.4,0.2-0.7c0.6-0.1,0.1-0.4-0.3-0.9c0.3,0.2,1.3,0.9,1.5,0.6c-0.1,0.2,1.5-1.3,1-1.1
		c-0.3,0.1,0.2-0.1,0,0c-0.3,0.1-0.6,0.1-0.8,0.2c0.2-0.1,1-0.6,0.6-1c0,0-1.2,0.5-1.3,0.5c0.2,0-0.7-0.4-0.7-0.4
		c-0.8,0-0.5,0.4-1.3,0.4c0.2-0.2,1.5-1.3,1.5-1.4c-0.3-0.5-1.1,1.4-1.6,0.2c1.1-0.4-1.2-0.9-1.8-1.3c0.1,0,2.3,0.6,2.4,0.4
		c0.3-0.8-1.4-1.1-1.8-1.5c1,0.2,0.8-0.1,1.8,0.5c0.5,0-0.9-1.1-0.4-0.6c1.6-0.6-0.6-0.6-1.4-0.7c0.2,0,1.9-0.5,1.9-0.5
		c0-0.1-0.6,0.1-0.7,0.1c0.2-0.1,0.4,0.1,0.4-0.4c0-0.1-2.4,0.2-2.7,0.1c0.5-0.1,1.8-1.1,1.2-1.7c0.1,0.1,1,1,1,0.4
		c0,0-0.6-0.4-0.7-0.4c0.3-0.1,1.3-0.1,1.3,0.1c0-0.2-0.3-0.2-0.4-0.3c1-0.5-0.4-0.9-1-0.9c0.3,0,1.1-0.1,1.1-0.5
		c0.1-1.4-2.4,0.9-2.7,1.1c0.7-0.6,1.9-2.1,2.5-2.1c-0.2,0-0.3,0-0.5,0c0.2-0.3,0.8-0.4,0.6-0.8c-0.2-0.5-0.8,0.4-0.9,0.7
		c0,0,0.1-1.1,0-1.1c0.8,0-1.7,3-1.7,3c0.1-0.6,0.9-1.1,1-1.8c0.1-1.1-0.9,0.2-1,0.4c0.1-0.6,2-3.1,0.8-2.7c0.2-0.4,1.5-0.9,1.2-1.4
		c-0.3-0.5-1.9,1.6-2,1.8c-0.1-0.4,0.9-2.4,1-2.2c-0.1-0.1-0.3,0.2-0.3,0.2c0.1-0.1,0.9-0.7,0.6-1.1c-0.2-0.2-1.2,1.3-1.2,1.3
		l0.3-2.1c0-0.7,0.2-1.7-0.1-2.3c-0.7-1.8-0.7,0.7-0.7,1.5c-0.1,0-0.3-0.5-0.4-0.2c-0.3,0.5,0.6,0.6,0.6,0.7c0.2,0.7,0.2,1.4,0.2,2.2
		c0,0-0.2-1.4-0.5-1.4c-0.5,0.1,0.2,2,0.2,2.3c-0.1-0.2-0.3-0.4-0.5-0.5c-0.3,0.1,0.6,2.4,0.5,3c0,0-0.5-1.1-0.6-1.1
		c-0.5,0.1,0.4,1.7,0.5,2c0,0-0.7-1.5-0.8-1.2c-0.1,0.3,0.6,0.8,0.6,1.1c0,0-0.3,0.2-0.3,0.3c0,0.1-0.1,0.7-0.1,1
		c-0.4-0.4-0.8-2.8-0.9-2.8c-0.3,0.1-0.1,0.5-0.1,0.7c-0.3-0.3-0.5-0.3-0.6,0.1c0-0.4-0.1-0.8-0.5-1c-0.5,0.2,0.3,1.6,0.4,1.7
		c-0.6,0-0.8-0.4-1.1,0.3c0,0,0.4-0.8,0.1-0.8c0,0-0.6,1.2-0.7,1.3c0-0.1,0.4-0.9,0.4-0.9c-0.2-0.2-0.9,0.6-0.9,0.7
		c0-0.2,0.4-1.3,0.5-1.3c-0.4-0.1-0.9,0.9-0.9,0.8c0-0.4-0.3-0.3-0.4-0.5c0.4-0.4,0.2-0.5,0.8-0.5c0-0.1,0-0.1,0-0.2
		c-0.6-0.1-0.6-0.7-0.9-0.7c-0.1,0-0.8,0.4-1.1,0.5c0.4-0.2,0.7-0.3,0.7-0.9c0.3-0.1,0.2,0,0.5-0.1c0.3,0.2,0.6,0.3,0.9,0.5
		c-0.2-0.4-1-0.6-1.2-1.1c0.3,0.2,1.7,0.9,1.7,0.5c0-0.1-0.6-0.4-0.7-0.4c0.1,0,1.2,0.1,1.2-0.1c0-0.3-0.3-0.1-0.3-0.1
		c0.1-0.1,0.4-0.5,0-0.5c-0.3,0.3-0.4,0.3-0.6,0.5c0.1-0.1,0.4-0.2,0.3-0.4c0-0.1-0.8,0.3-1,0.4c0.1-0.1,0.4-0.2,0.3-0.4
		c0,0-1.1,0.5-1.5,0.4c0.2-0.1,0.4-0.1,0.6-0.2c-0.2-0.2-0.3-0.5-0.4-0.7c0.1,0.2,0.3,0.5,0.5,0.7c0.8-0.8-2.2-1.4,0.2-1.4
		c0-0.1,0-0.1,0-0.2c-0.3,0-0.5,0-0.7-0.2c0.3-0.3,1.6,0,1.5,0.3c0.2-0.4-0.4-0.8-0.7-0.9c0.1,0,0.7,0.1,0.7-0.2
		c0-0.4-1.5,0.3-1.7,0.3c0.3-0.3,1.6-1.3,1.3-1.6c-0.2-0.2-0.7,0.5-0.7,0.5c0,0.1,0.1-0.5,0.1-0.5c0-0.2-2-0.3-2-1.5
		c0.3,0.2,1.7-0.2,1.4-0.7c-0.4,0-0.7,0.1-0.9,0.5c0.3-0.3,0.5-0.8,0.7-1c-0.1,0.1-0.3,0.3-0.5,0.4c-0.1-0.1-0.2-0.9-0.5-0.3
		c0.2-0.2,0.3-0.6,0.5-0.8c-0.4,0.2-0.9,0.2-1.4,0.4c0.3-0.4,0.9-0.6,1.2-1c-0.1,0.1-0.3,0.2-0.5,0.3c0.2-0.3,0.3-0.6,0.5-0.9
		c-0.5,0-0.7,0.1-1.1,0.5c0.1-0.1,0.3-0.5,0.2-0.6c-0.2-0.3-1-0.5-1.2-1c0.6,0.4,2.2,1.7,1.5,0.3c0.1,0.1,0.5,0.5,0.7,0.5
		c-0.1,0-0.7-1-0.3-1.4c0.1,0.1,0.1,0.1,0.2,0.2c0-0.6-0.9-0.3-1.2-0.3c0-0.1,0-0.1,0-0.2c0.3,0,0.5-0.1,0.7-0.3
		c-0.7-0.2-0.8,0.5-1.4,0.5c0-0.1,0-0.2,0-0.3c0.2-0.1,0.7,0.1,0.4-0.5c-0.2,0.1-0.3,0.1-0.4,0.2c0-0.1,0-0.1,0-0.2l-0.8-0.3
		c-0.1-0.1,1.3,0.2,1.5-0.1c0.2-0.4-1.4-0.8-1.6-1.1c0.6-0.2,1.2,0,1.5,0.5c0,0-0.3-0.4-0.3-0.5c0.2-0.1,0.4,0.2,0.4-0.2
		c0-0.3-1.6-0.2-1.8-0.2c0.3-0.1,0.7-0.2,1-0.3c0.3,0.1,0.4,0.2,0.7-0.2c-0.3,0-0.6-0.1-1.2-0.1c-0.5,0-0.9,0.2-1.5,0.1
		c0.4-0.1,1.7-1.1,1-1.5c0.1,0.1,0.6,0.6,0.9,0.4c0-0.1,0-0.1,0-0.2c-0.4-0.2-0.2-0.1-0.5-0.4c0.2,0,1.2,0.3,1.3,0.2
		c0-0.1-0.4-0.3-0.4-0.3c0,0,0.9-0.5,0.3-0.5c-0.2,0.1-0.3,0.1-0.5,0.2c0-0.5-0.4-0.2-0.7-0.3c0.2-0.1,1-0.3,1-0.6
		c0-0.8-2.2,1-2.5,1.1c0.5-0.5,1.2-1.6,2-1.5c-0.1-0.4,0-0.2-0.3-0.3c0.8-0.8-0.1-0.9-0.6-0.1c0,0,0.3-0.9,0.1-0.9
		c0.7,0.2-1.3,2.5-1.5,2.6c0.1-0.3,1.3-1.7,0.7-2c-0.2-0.1-0.6,0.7-0.7,0.9c0.2-0.9,1.7-2.1,0.9-2.3c0.2-0.2,1.5-0.9,1.1-1.3
		c-0.6-0.6-1.7,1.4-1.8,1.7c-0.1-0.8,1.5-2.4,1.1-2.8c-0.2-0.2-1,0.9-1,1c0-0.3,0.6-2.4,0.3-2.4c-0.1,0.1-0.2,0.2-0.2,0.3
		c0-0.6,0.4-1.6,0-2.1c-0.7-0.8-0.6,1.2-0.6,1.7c-0.1,0-0.3-0.2-0.4-0.2c0.4,0.6,0.8,1.7,0.4,2.5c0,0-0.3-1.5-0.5-1.3
		c-0.3,0.4,0.2,1.7,0.2,2.1c0,0-0.3-0.5-0.3-0.5l0.1,1.6c-0.4,0.3,0.3,1.1,0.5,1.4c0-0.1-0.4-0.5-0.5-0.7c0.6,1,0.2,1.2,0.2,2.2
		c-0.6-0.6-0.4-1.6-0.8-2.3c0,0.2,0,0.3,0,0.5c-0.2,0-0.5-0.5-0.5,0c0,0-0.3-0.9-0.4-0.9c-0.5,0.3,0.2,1.4,0.4,1.6
		c-1.6,0,0.8,1.1,1.5,1.8c-0.3-0.1-1.3-1.2-1.3-0.5c0,0-0.6-0.9-0.7-0.8c-0.4,0.6,0,0.2-0.8,0.4c0,0.1,0,0.1,0,0.2
		c1.1-0.3,1.9,1.3,2.2,2.2c0,0-0.8-1.2-0.9-0.7c-0.1,0.5,0.5,1.1,0.8,1.4c-0.1,0.1-0.1,0.1-0.2,0.2c-0.3-0.3-2-2-1.9-0.8
		c0,0.2,0.8,0.5,0.9,0.9c-1.3-0.7-2.2,0.3-0.2,0.3c-0.4,0.4-0.9,0-0.9,0.7c-0.1-0.1-0.8-0.4-0.8,0.1c0.1,0.3,0.3,0.4,0.6,0.4
		c0,0-1,0.7-1,0.7c0,0,1.2,0.9,1.2,0.9c-0.2-0.2-2-1-2-0.4c0,0.5,1.7,0.4,1.6,1.1c0,0.1,0,0.1,0,0.2c-0.8-0.8-1.8-0.4-0.5,0.3
		c-0.4,0-1.8,0-1.3,0.7c0.1,0.2,0.9-0.1,1,0c0.2,0.2,0.6,0.5,0.7,0.9c-0.1-0.1-0.6-0.7-0.8-0.7c-0.6,0,1.5,1.6,0.7,0.8
		c-0.4-0.2-1.8-0.7-1.8-0.1c0,0.2,0.8,0.2,0.8,0.2c-0.1,0.1-0.5,0.4-0.3,0.6c0.2,0.2,0.4-0.2,0.5-0.2c0.1,0.5,0.6,0.8,1,1.1
		c-0.2-0.1-0.5-0.2-0.7-0.3c0.1,0.1,0.2,0.3,0.3,0.5c-0.5-0.4-1.5-1.6-2.1-1.7c-0.3-0.1-0.6-0.3-0.6,0.2c0,0.5,0.9,0.3,1.3,0.9
		c-0.1,0-0.8-0.5-0.9-0.2c-0.2,0.4,0.6,0.5,0.7,0.5c-0.2,0-0.5,0-0.7,0c0,0.1,0,0.1,0,0.2c0.8-0.2,1.4,0.2,2,0.7
		c-0.1,0-1.5,0.2-1.5,0.3c0,0.4,1.8-0.1,1.8-0.2c-0.2,0.1-1.1,0.6-1.1,0.7c0-0.6,1.4,0.3,1.5,0.4c-0.2-0.1-0.5-0.1-0.5,0.2
		c0,0-0.7-0.5-0.7-0.2c0,0.1,1.2,0.8,1.3,1.3c-0.1,0-0.2-0.1-0.3-0.2c0,0.1,0.2,0.3,0.2,0.4c-0.2,0.2-0.3-0.2-0.3,0.3
		c-0.3-0.4-2.2-0.9-2.2-0.8c0,0.1,1.4,1.4,1.5,1.5c-0.5-0.1-0.8-0.4-1.3-0.7c1,1,0.9,2.1,0,1c0.1,0.2,0.2,0.3,0.3,0.5
		c0,0-1.5-1-1.5-0.6c0,0.2,1,0.6,1.1,0.6c-0.2-0.1-1.4-0.1-1.4,0.4c0,0.3,0.7-0.1,0.7-0.1c-0.5,0.6-0.7,1.4-1.4,1.7
		c0.3-0.4,0.5-0.8,0.7-1.2c-0.6,0.5-1.1,1-1.7,1.5c-0.1,0.1-0.3,0.4-0.5,0.6c-0.5,0.4-1.2,0.8-1.5,0.2c0.4-0.1,2.7-0.8,1.4-1.2
		c0.2-0.1,0.4-0.2,0.5-0.3c-0.1,0-0.1,0-0.2,0c0.5-0.5,0.8-0.2,1-0.7l0.1-0.2c0-0.3-1.1,0.1-1.5,0.1l0.6-0.3c0,0,0.2-0.6,0.3-0.6
		c0.1,0.1,0.3,0.2,0.5,0.3c0.5,0-0.3-0.7-0.3-0.7c0.1-0.2,1.8-1.5,1.3-1.5c-0.4,0.2-0.7,0.4-1,0.7c0-0.2-0.6,0.4-0.7,0.7
		c-0.3-0.3-0.3-0.3-0.5-0.6c0.7,0.7,0.5,0-0.1-0.4c1.4,0.8,1.3-0.8,1.3-0.9c-0.4,0.1-1.7-0.1-2.4-0.5c0.3,0,2,0.2,2,0.2
		c-0.1-0.5-0.4-0.7-1-0.7c0.2-0.1,1.4-0.3,1.5-0.4c0.2-0.6-2.2,0.4-2.5,0c0.2,0.1,2.4-0.6,2.6-0.8c0.2-0.1,0.5-2.4,0.6-2.4
		c0.1,0-0.8,0.9-0.9,0.9c0-0.1,0.5-1,0.2-1c-0.1,0-0.9,1.5-1.5,1.5c0,0.1,0,0.1,0,0.2c-0.6-0.6-0.9,0.8-1.7,0.2
		c0.3-0.1,3.1-2.4,2.5-3c-0.1-0.1-0.8,0.6-1.1,0.7c0-0.1,0.3-0.9,0.2-0.9c-0.1-0.1-1.7,2-2.3,2c0.3-0.2,2.2-1.5,1.8-2
		c-0.1-0.2-0.4,0.2-0.5,0.2c0-0.2,0-0.3-0.2-0.3c0.1-0.1,1-0.9,1-1c0,0.1-1,0.5-1.1,0.5c0,0,0.9-0.8,0.8-0.9c0.2,0.2-2.5,1.6-2.6,1.7
		c-0.1-0.1-0.1-0.1-0.2-0.2c0.3,0,1.8-1.3,1.6-1.6c-0.4,0-0.8,0.1-1.1,0.5c0-0.3-0.6-1.1-0.6-0.5c-0.1-0.1-0.1-0.1-0.2-0.2
		c0.6-0.6,0.2,0,1,0c0.6,0-0.2-0.5-0.2-0.5c0.1,0,1.5-0.2,1.2-0.6c-0.1-0.1-1.8,0.4-2,0.5c0.6-0.6,0.9-1.3,1.8-0.7
		c0.6,0-0.6-0.7-0.7-0.7c0.3-0.4,0.8-0.5,1.2-0.1c0.5,0-0.8-1-0.8-1c0.2,0,1.3-0.2,1.1-0.6c-0.1-0.1-0.6,0.2-0.7,0.2
		c0.1-0.1,0.7-0.8,0.5-1c-0.1-0.1-1,0.9-1.3,1c0,0,1.5-1.6,1-1.6c-0.5,0.3-0.9,0.7-1.2,1.2c-0.1-0.2,0.2-0.6-0.2-0.6
		c0.2,0,0.6,0.1,0.6-0.2c0-0.6-0.8,0.1-0.8-0.5c0-0.3,0.4-0.4,0.4-0.3c-0.1-0.2,0.9-0.4-0.2-1c0.5-0.1,1-0.4,0.1-0.5
		c-0.8-0.1-1.9,0.6-2.6,0.9c0.3-0.5,1.6-1.3,1-2c-0.1-0.1-0.9,0.5-0.9,0.5c0.3-0.4,0.6-0.7,0.9-1c0.2,0.3,0.6,0.5,0.8,0.8
		c0.1,0.1-0.7-1-0.7-1c0.4-0.2,1.6,0.8,1.7,0.7c0.3-0.3-0.6-0.9-0.7-1.1c0.1,0,1.4,0,1.4,0.1c0-0.7-1-0.7-1.4-0.6
		c0.1-0.1,1.5-1.2,1-1.2c-0.5,0.3-1,0.5-1.5,0.8c0.2-0.2,0.3-0.5,0.5-0.7c-0.1-0.2-0.5-0.1-0.5,0.1c0-0.1,0.5-1,0.3-1
		c-0.5,0-1.1,0.6-1.5,0.9c0.2-0.5,1.5-1.3,1.5-1.6l-0.8,0c0.3-0.3,0.6-0.1,0.9-0.2c-0.1-1-1.5,0-1.9,0.3c0-0.6,1.3-2,1.2-2
		c-0.5,0-0.6,0.3-1.2,0.3c0.1-0.1,1.7-1.4,1.7-0.6c0.2-0.5-0.8-0.7-1.1-1c0.1,0,1.9,0.6,1.9,0c0-0.4-1.2-0.4-1.4-0.4
		c0.2-0.2,2.3-1,2.3-0.8c0-0.2-0.8-0.1-0.9-0.1c0,0,1.2-0.8,0.7-0.9c-0.3,0.2-0.6,0.3-1,0.4c0.3-0.8,2.1-1,0.9-1.8
		c-0.2-0.2-2.9,2.4-3.1,2.6c0.1-0.1,0.2-0.3,0.3-0.5c-0.5,0.3-1,0.6-1.5,0.7c0.7-0.3,1.5-0.8,1.7-1.5c0.1,0,0.3,0.4,0.4,0.2
		c0.1-0.3-0.2-0.4-0.3-0.6c0.7,0,1-0.4,0.5-0.7c-0.5-0.3-0.7,0.1-1.5,0.4c0.5-0.5,0.1-0.1,0.1-0.5c0,0,0.9-0.7,0.3-0.7
		c-0.3,0.2-0.6,0.4-0.8,0.7c0-0.1,0.5-0.9,0.5-0.9c0.6-0.3,1.1,0.7,1.4-0.2c0.2-0.5-1.4-0.5-1.7-0.6c0.2-0.2,1.1-0.2,0.8-0.8
		c-0.1-0.2-1.4,0.4-1.5,0.5c0.1-0.1,0.4-0.8,0.3-0.9c-0.3-0.3-1,0.6-1.1,0.7c-0.1-0.1-0.1-0.2-0.2-0.3c0.4-0.2,0.9-0.5,1.3-0.7
		c0.4-0.2,1.3-0.1,1.3-0.6c0-1-2.1,0.3-2.3,0.5c0.3-0.3,1.2-0.8,1.1-1.2c-0.1-0.4-1.1-0.4-1.4-0.3c0.3-0.3,1.2-0.3,1.3-0.8
		c0.1-0.5-0.6-0.5-0.8-0.2c0-0.8-0.9-0.7-1.4-0.5c0.6-1.1,4-0.8,0.7-1c0.2-0.2,1.5-0.8,1-1.3c-0.3-0.3-1.8,1.5-2,1.7
		c0.1-0.4,1.1-1.5,0.8-1.9c-0.4,0-0.6,0.2-0.7,0.6c0-0.3,0.2-0.7,0.3-0.9c0.2-0.2,1-1.5,1-1.8c0-0.2-0.1-0.1-0.1-0.1
		c-0.1,0-0.4,0.5-0.6,0.9c0.1-0.2,0-0.4-0.2-0.5c-0.5,0.3-0.8,0.8-1.3,1c0.3-0.5,2.8-2.1,2.6-2.3c-0.1-0.1-0.7,0.2-0.8,0.3
		c0.1-0.2,0.8-1.5,0.4-1.8c-0.2-0.1-0.4,0.9-0.4,0.9c0-0.5-0.7,0.1-0.9,0.2c0-0.3,0.5-0.3,0.1-0.6c0,0-0.5,2.3-0.8,2.6
		c0-1.2-0.3-1.1,0.3-2.4c-0.2,0.2-0.4,0.3-0.6,0.6c0.1-0.1,0.9-1.4,0.4-1.5c-0.2,0-0.6,1-0.7,1.2c0-0.5,1-2.5,0.6-2.8
		c-0.1,0-0.3,0.4-0.3,0.4c0-0.2,0.6-2.2,0.2-2.3c-0.3,0-0.5,1.4-0.5,1.5c-0.5-1,0.9-2.9-0.1-2.7c0-0.5,0.2-2.8-0.6-2
		c-0.5,0.5,0,1.8,0,2.5c0,0-0.3-0.6-0.4-0.6c-0.2,0.2,0.4,2.5,0.4,3c-0.2-0.5-0.5-0.9-0.8-1.3c-0.3-0.3,0.2,1.1,0.3,1.2
		c-0.1-0.1-0.2-0.3-0.3-0.1c0-0.1,0.9,1.7,0.9,2.2c-0.1-0.4-1.3-2.2-1.9-1.8c-0.5,0.3,0.9,1.2,1,1.5c-0.8,0,0.7,2.1,0.9,2.9
		c-0.2-0.5-1-1.4-0.9-0.3c0.1,0.6,0.9,1.2,1.1,1.7c0.2,0.2-2.1-2.5-1.7-3.1c-0.3,0,0.1,1.2,0.1,1.2c-0.1-0.2-0.5-0.7-0.7-0.7
		c-0.7,0,0.2,0.7,0.3,0.8c-0.1,0-0.4-0.1-0.4,0.1c0.5-0.1,2.4,2,2.5,2c-0.9-0.2-1.4-1.7-2.3-1.6c-0.6,0.1,0.2,0.7,0.2,0.7
		c-0.4,0,0.6,0.4,0.7,0.4c-0.3,0.1-0.7-0.2-0.7,0.3c-0.2-0.1-0.3-0.1-0.5-0.2c-0.6,0,0.3,0.7,0.3,0.7c-0.2,0.2-0.2,0.2-0.3,0.4
		c0.3-0.3,0.8-0.3,1.2-0.3c0,0-0.6,0.7-0.6,0.5c0,0.4,1-0.3,1-0.3c0,0.7-0.2,1.4,1,1.6c-0.5,0.2-1-0.1-1.4-0.1
		c-0.3,0-0.5-0.2-0.9-0.2c-0.2,0-0.2,0.5-0.1,0.5h0.4c0.3,0.2,0.6,0.3,1,0.3c-0.4,0.1-3,0-1.5,0.7c-0.2,0.2-0.2,0.3-0.3,0.5
		c0.5-0.5,1-0.6,1.7-0.5c-0.9,0.9-2.1,0.4-2.2,1.8c0.7-0.5,1.3-0.1,2-0.5c-0.5,0.6-1.1,0.7-1.9,0.8c0,0-0.8-0.4-0.8-0.4
		c-0.2,0.2,1.1,1.3,1.4,1.5c-0.7,0.3-0.9,0-1.6-0.1c0.2,0-1.3,0.3-1,0.2c-0.2-0.4-0.4-0.5-0.7-0.3c-0.1,0.4,0.1,0.6,0.5,0.7
		c-0.1,0-1.4-0.4-0.9,0.2c0,0.1,1.2,0.7,1.2,0.7c0,0,0.3-0.3,0.4-0.3c0,0.1,0,0.1,0,0.2c0.4-0.3,0.6-0.5,1-0.7
		c-1.1,0.7-0.1,1.1-0.1,0.8c0,0.1,0.2,0.7,0.2,0.8c-0.4-0.4-0.6-0.5-1.1-0.5c0.2,0.2,0.5,0.6,0.7,0.9c-0.3-0.1-0.5-0.2-0.7-0.3
		c0.2,0.3,1,0.5,1.3,1c-0.4-0.3-1-0.3-1.4-0.5c0.1,0.3-0.1,0.7,0,1c-0.1-0.1-0.3-0.3-0.4-0.1c-0.1,0.1,1,0.5,1.1,0.5
		c0,0.3-0.1,0.1-0.2,0.2c0.1,0.2,0.2,0.3,0.3,0.5c-0.1-0.1-0.9-0.9-1-0.6c-0.1,0.4,1.2,1.1,1.3,1.2c-1.1,0.1-1.3-0.7-1.9-1.3
		c0-0.1,0.3,0.5,0.3,0.5c-0.1-0.1-0.2-0.1-0.3-0.2c0,0,0.4,0.9,0.5,1.1c-0.3-0.2-0.7-0.3-1-0.5c-0.4,0,1.3,1.4,1.7,1.5
		c0,1.7-2.2-1.5-1.7,0.6c0,0-0.8-1-0.9-0.6c-0.1,0.4,0.7,1,0.8,1.4c-0.2-0.2-1.3-0.9-1.3-0.2c0,0.4,0.4,0.2,0.6,0.2
		c-0.1,0.1-0.1,0.1-0.2,0.2c0.2,0,0.2,0,0.2,0.2c0.5-0.1,0.3-0.2,0.8,0.1c0,0-0.8,0.2-0.8,0.3c0,0.3,1-0.4,1,0c0,0.2-0.1,0.3-0.1,0.6
		c0,0.1-1.4,0.7-0.5,1c-0.1-0.1-1-0.5-1-0.5c-0.2,0.2,0.1,0.5,0.2,0.8c0,0-1-0.4-0.9-0.6c-0.2,0.2-0.1,0.7,0.2,0.7
		c-0.8,0.6,0.4,0.6,1,0.5c-0.2,0.2-0.6,0.2-0.6,0.5c0,0.4,1.4-0.4,1.8-0.5c-0.2,0.1-1,0.7-1.2,0.7c0.4,0,0.2,0.1,0.6,0
		c-0.5,0.5,0.4,0.1,0.5,0.1c-0.3,0.4,0.4,0.8,0.7,0.9c-0.6-0.2-0.5,0-0.9-0.5c-0.2,0.2-0.2,0.1-0.5,0.2c0.1,0,0.2-0.1,0.3-0.2
		c-0.7,0.2-0.3,0-0.5,0.7c-0.1,0-0.7-0.1-0.7,0.1c0-0.2,0.9,0.4,0.9,0.6c0-0.1-0.3,0.1-0.3,0.1c0,0.1,0.4,0.1,0.4,0.1
		c-0.2,0.2-0.6,0.2-0.6,0.5c-0.1,0-0.9-1-0.9-1.1c-0.2,0.5,0.5,1.1,0.7,1.6c-0.1-0.2-1-1.2-1-0.6c0-0.2,0-0.4-0.2-0.5
		c-0.3,0,0.1,0.8,0.1,0.8c-0.4-0.5-1.5,0.5-0.9,1.1c-0.1,0-0.2,0-0.3,0c0,0,0-0.3,0-0.3c-0.2-0.2-0.4,0.8-0.7,0.2
		c0.4,0.4-0.1-0.7-0.1-0.6c0.8,0,0.4-1.6-0.8-0.3c0.4-0.4,0.4-0.5,0.5-1c-0.3,0.2-0.5,0.4-0.7,0.7c0-0.1,0.3-0.9,0.4-0.9
		c0.4-0.2,1,0.7,1.2-0.1c0.1-0.6-1.1-0.4-1.3-0.5c0.3-0.3,1-0.2,0.8-0.8c-0.1-0.2-0.9,0.4-0.9,0.5c0.1-0.1,0.3-0.7,0.3-0.8
		c0-0.4-0.9,0.6-0.8,0.6c-0.1-0.1-0.1-0.2-0.2-0.3c0.4-0.2,0.7-0.4,1.1-0.7c0.3-0.2,1-0.2,1.1-0.6c0.3-1.1-1.8,0.3-1.8,0.4
		c0.4-0.5,0.9-0.8,0.7-1.2c-0.2-0.5-0.8-0.4-1.2-0.2c0.3-0.2,1.1-0.4,1.2-0.8c0.1-0.5-0.7-0.5-0.9-0.2c0-0.4-0.3-0.6-0.7-0.8
		c0.4,0,1.9-0.2,1.1-0.7c0,0-1.1,0.2-1.3,0.2c0.3-0.2,1.2-0.9,0.8-1.3c-0.2-0.2-1.6,1.5-1.7,1.7c0.1-0.3,1-1.6,0.7-1.9
		c-0.2-0.2-0.6,0.9-0.7,1c0-1,0.8-2.3,1.7-2.5c0-0.1,0-0.1,0-0.2c0,0-0.7-0.5-0.6-0.5c-0.1,0-0.5,0.9-0.5,1c0-0.6-0.2-0.3-0.4-0.5
		c0-0.7,1.3-0.4,1.3-1.2c0-0.2-0.6,0.2-0.6,0.2c0.1-0.2,0.5-1.5,0.2-1.8c-0.2-0.1-0.4,0.9-0.4,0.9c0-0.3-0.5-0.3-0.5,0
		c0-0.2,0.1-0.5-0.1-0.6c0,0-0.5,2.3-0.7,2.6c0,0-0.1-3.1,0.2-3.1c-0.1,0-0.4,1.2-0.4,1.2c0-0.2,0-0.3,0-0.5
		c-0.1,0.1-0.2,0.3-0.3,0.5c0-0.7,1.9-3.6,1-4.3c-0.1-0.1-0.6,1.9-0.6,2c0-0.3,0-2.7-0.1-2.1c0-0.4,0.7-3.3,0.3-3.4
		c-0.1,0-0.4,1.9-0.4,1.9c0-0.4,0.2-2.2-0.3-2.2c-0.3,0-0.2,0.8-0.2,1c-0.1-0.2-0.6-2.3-0.6-2.3c-0.5,0.5,0.7,2.9,0.6,3.9
		c0-0.1-0.5-1.5-0.6-1.5c-0.1,0,0.1,2.1,0.3,2.1c0.2,0,0.1-0.4,0.1-0.5c0.3,0.6,0.4,1.5,0.4,2.2c-0.2-0.4-0.5-0.9-0.7-1.3
		c-0.4-0.4,0.1,1.3,0.1,1.2c0.1,0-0.6-0.4-0.2,0c-0.2-0.2-1.7-2.1-1.7-2.1c-0.5,1,2.6,2.9,2.3,4.5c-0.1-0.2-1.3-2.2-1.5-1.8
		c-0.2,0.5,0.9,0.9,1,1.5c-0.8,0,0.6,2.2,0.7,2.9c-0.1-0.4-0.4-1.1-0.8-0.8c-0.4,0.3,0.6,1.7,0.7,2.1c0.1,0.1-2.2-3.1-1.5-3.1
		c-0.2,0-0.1,1-0.1,1.1c-0.1-0.2-0.5-0.7-0.7-0.7c-0.3,0,1.8,2.6,1.9,2.9c-0.7-0.5-2.3-2.6-2-0.9c0,0.1,0.6,0.3,0.8,0.4
		c-0.7,0.2-0.4,0-0.7,0.6c0-0.5-1.1-0.4-0.3,0.4c-0.2,0.2-0.2,0.2-0.3,0.4c0.5-0.5,0.9,0,0.8-0.9c0.1,0,0.1,0,0.2,0
		c-0.1,0.7,0.2,1.2,0.8,1.6c-0.4,0.4-1.7-0.5-1.8-0.3c0,0.2,0,0.3,0.2,0.5c-0.2,0-0.3,0-0.3-0.2c0.2,0.4,0.7,0.5,1.3,0.5
		c-0.3,0.1-2.4,0.2-1,0.7c-0.2,0.2-0.2,0.2-0.3,0.5c0.3-0.5,0.8-0.6,1.3-0.5c-0.6,0.9-1.2,0.7-1.4,1.8c0.5-0.4,0.9-0.2,1.4-0.2
		c-0.3,0.1-1.6,0.5-1.4,1c-0.3-0.1-0.5-0.2-0.7-0.3c0,0.1,1,1.4,1.3,1.4c-0.1,0.1-0.2,0.1-0.3,0.2c0-0.7-1-0.3-1.2,0
		c-0.4,0-0.6-0.2-0.8-0.5c0,0-0.8,0.8,0.3,0.8c-0.1,0-0.8-0.2-0.9-0.2c-0.2,0.5,0.5,0.7,0.9,0.7c-0.1,0.2-0.1,0.3,0,0.4
		c0,0,0.3-0.3,0.4-0.3c0,0.1,0,0.1,0,0.2c0.3-0.4,0.4-0.4,0.7-0.7c-0.1,0.1-0.5,0.7-0.3,1c0.1,0.1,1.5-1.2,1.5-1.2
		c-0.7,0.7-0.8,1.1-0.8,1.8c-0.2-0.2-0.8-0.7-1-0.4c0-0.1,0.5,0.8,0.6,0.8c-0.2-0.1-0.4-0.2-0.5-0.3c0.2,0.4,0.8,0.5,1,1
		c-0.4-0.3-0.8-0.2-1.2-0.4c0.1,0.5,0.3,1,0,1.4c-0.1-0.1-0.7-1-0.5-1.1c-0.2,0.1-0.1,0.7-0.1,0.9c-0.1-0.1-0.2-0.3-0.3-0.1
		c0.2-0.4,0.7,1.9,0.7,1.1c0,0-0.8-0.8-0.9-0.7c-0.1,0.4,0.7,1,1,1.3c-0.9-0.1-0.6-0.5-1.3-1.2c-0.1-0.1,0.3,0.5,0.3,0.5
		c-0.8-0.3-0.3,0.3,0,0.7c-0.3-0.3-0.9-0.8-0.9-0.2c0,0.2,1.1,0.9,1.3,1c-0.7-0.5-1.3-0.3-1,0.5c-1.9-1.9-0.5-0.3-0.5-0.3
		c0.2,0.2,0.7,0.8,0.7,1.1c-0.2-0.1-1-0.7-1-0.2c0,0.5,0.3,0.1,0.4,0.2c-0.2,0.2-0.7,0.6-0.5,0.9c-0.3-0.5,1.1-0.5,1.3-0.4
		c-0.1,0.2-0.3,0.2-0.5,0.2c0,0.1,0,0.1,0,0.2c0.4-0.2,0.6,0,0.9,0c-0.1,0-0.8,1.4-0.5,1.5c0,0-0.9-0.4-0.8-0.5
		c-0.1,0.2,0.3,0.6,0.4,0.8c-0.1-0.1-0.9-0.1-0.7-0.6c-0.1,0.2,0.3,0.6,0.4,0.7c0,0-0.7-0.3-0.6-0.5c-0.1,0.2,0.3,0.6,0.3,0.8
		c-0.5,0.4-0.1,0.6,0.6,0.5c0,0-1.1,0.8-0.5,0.8c0.1-0.1,0.3-0.2,0.5-0.3c-0.2,0.2-0.3,0.7-0.5,0.9c0.3-0.3,0.6-0.3,0.9-0.5
		c-0.6,0.6,0.5,0.1,0.5,0.1c-0.3,0.5,0.3,0.7,0.6,0.9c-1.1-0.3-1.1-1-1.8,0c0,0.1,0,0.1,0,0.2c0.5,0,0.6,0,0.8,0.5
		c-0.1,0.1-0.2-0.1-0.3,0.1c-0.1,0.1,0.3,0.1,0.3,0.1c-0.2,0.2-0.7,0.4-0.8,0.5c-0.1-0.2-0.6-0.9-0.6-1.1c0,0.5,0.6,1,0.6,1.6
		c0-0.1-0.8-1.1-0.9-0.8c-0.1,0.3,0.2,0.8,0.3,1.1c-0.9-0.8-0.6-2.7-2-0.6c0,0,0.2-0.7,0.1-0.9c-0.6,0.4-2.3,3.3-2.6,3.5
		c0-0.9,1.3-1.4,1.4-2.3c0.2-1.7-0.9-0.4-1.4,0.3c0.3-1.2,0.8-1.9,1.4-2.9c0-0.1,1.6-1.6-0.2-0.9c0.2-0.4,2.3-1.8,1.6-2.1
		c-0.8-0.3-2.4,2.1-2.6,2.6c-0.1-0.7,1.3-3.2,1.4-3.1c-0.1-0.2-0.4,0.3-0.4,0.3c0.2-0.3,1.3-1,0.8-1.5c-0.3-0.3-1.5,1.6-1.6,1.8
		c0-0.6,1-3.4,0.9-3.7c-0.1-0.2-0.4,0.6-0.4,0.6c0-0.9,0.4-2.9-0.1-3.6c-1.2-1.7-0.9,1.5-1,2.4c-0.1-0.1-0.3-0.5-0.5-0.5
		c-0.7,0.1,0.7,1.6,0.7,1.6c0.4,0.7,0.3,1.8,0.3,2.6c0-0.1-0.3-2-0.7-1.9c-0.5,0.1,0.2,2.8,0.2,3.2c-1-1.4-0.8-0.1-0.5,0.9
		c0.3,0.9,0.7,1.7,0.5,2.6c0,0-0.7-1.6-0.8-1.5c-0.7,0.2,0.7,2.3,0.8,2.8c-0.1-0.2-1.1-1.9-1.2-1.7c-0.2,0.4,0.9,1.2,0.9,1.6
		c0,0-0.7,0.6-0.7,0.5c0,0.5,0.1,0.8,0.1,1.4c-1.1-0.8-0.2-3.6-1.2-3.9c-0.5-0.2-0.3,0.8-0.3,1c-0.4-0.4-0.7-0.4-0.9,0.1
		c0-0.2-0.3-1.3-0.5-1.4c-0.9-0.3,0.4,2.4,0.4,2.5c-0.8,0-1.7-0.5-0.6,0.6c0.3,0.4,1.2,0.4,1.6,0.6c0.6,0.4,1.2,1.2,1.6,1.8
		c-0.7,0-0.5-0.5-1.1-0.8c-0.2-0.1-2-0.7-1.1,0.2c-0.1-0.1-0.9-1.3-1-1.2c-0.3,0.1-0.3,0.3-0.2,0.6c-0.6-0.4-1.1-0.7-1.1-0.1
		c0.2-0.1,1.5,1.1,1.5,1c0.4,0.3,1,0.8,1.3,1.1c0.3,0.5,0.5,1,0.6,1.6c0,0-1.1-1.6-1.3-1.4c-0.5,0.5,1.3,2,1.3,2.7
		c-0.5-0.5-2.3-2.4-3-2.3c-1,0.2,1.5,1.8,1.4,1.7c-0.4,0-2.2-0.3-2.3-0.2c-1.3,0.9,1.9,1,2.2,1c-0.4,0.1-1.5,0.3-1.2,1
		c-0.3-0.1-1.9-0.6-1.4,0.3c0.2,0.4,1.5,0.6,2,0.9c-0.5-0.3-1.7-0.1-2,0.3c-0.6,0.9,0.5,0.9,1.2,1.8c-0.6-0.4-1.7-1.2-2.4-1.1
		c-1.1,0.1-1,0.3-0.2,0.9c0.7,0.5,1.8,0.5,2.5,1c0.2,0.1,0.5,0.4,0.7,0.4c-0.1,0.2-0.2,0.3-0.2,0.5c-0.3-0.5-0.7-0.8-1.2-1
		c-0.3,0-0.4,0.2-0.3,0.5c0.2-0.1,0.4,0.6,0.4,0.6c-0.2-0.1-1.4-0.8-1.6-0.7c-1.1,0.5,0.8,1,1.1,1.2c-0.8,0-3.8,0.2-1.8,0.9
		c0.5,0,1,0,1.5-0.1c0,0.2,0,0.4,0.1,0.5c0.4,0.2,0.5,0.3,0.5,0.7c0,0-1.5-1.2-1.6-1c-0.3,0.6,0.8,1,1.1,1.3c-0.9-0.1-1.4-0.9-2-0.6
		c-1.1,0.5-0.3,0.7,0.6,0.9c-0.5,0.3-0.6,0.7-0.2,1.1c-0.1,0-1.2-0.4-1.2-0.1c0-0.6-0.2-1-0.7-0.8c0,0-0.5-0.6-0.7-0.5
		c-0.2,0.1-0.4,0.5-0.5,0.7c-0.3,0.3-0.4-0.2-0.4,0.6c0,0.8,0.7,0.7,1.3,1.4c0.4,0.5,0.4,4.8,0.4,4.8L536.9,300.7z M508.5,279.7
		c0.5,0,0.8,0.3,0.9,0.8C508.9,280.4,508.6,280.2,508.5,279.7z M481.5,261.3c-0.1-0.3-0.3-0.2-0.3-0.5c0,0,0.2,0,0.3,0
		C481.5,261,481.5,261.2,481.5,261.3z M491.2,264.9c-0.2-0.3-0.3-0.4-0.5-0.8C491.1,264.4,491.1,264.6,491.2,264.9z M515.7,269.8
		c-0.1-0.1-0.2-0.1-0.3-0.2C517.2,270.2,515.6,269.7,515.7,269.8z"/>
</defs>
<g id="sky">
	
		<linearGradient id="sky_1_" gradientUnits="userSpaceOnUse" x1="960" y1="-7976.2754" x2="960" y2="-7744.8896" gradientTransform="matrix(1 0 0 -1 0 -7753.3633)">
		<stop  offset="0.1268" style="stop-color:#F7C491"/>
		<stop  offset="0.1996" style="stop-color:#F7BD8A"/>
		<stop  offset="0.4939" style="stop-color:#F7A772"/>
		<stop  offset="0.768" style="stop-color:#F79964"/>
		<stop  offset="1" style="stop-color:#F7945F"/>
	</linearGradient>
	<path id="sky_6_" class="st0" d="M0,0h1920v280H0V0L0,0z"/>
	<g id="sun_6_" class="st1">
		
			<ellipse transform="matrix(0.7071 -0.7071 0.7071 0.7071 261.1195 773.0174)" class="st2" cx="1063.7" cy="71.3" rx="50.8" ry="50.8"/>
		<circle class="st2" cx="1063.7" cy="71.3" r="31.9"/>
		<circle class="st3" cx="1063.7" cy="71.3" r="17.9"/>
	</g>
	<path id="plane" class="st4" d="M1567,68.3c0-0.1-0.1-0.1-0.2-0.1l-27.3,2.5c0-0.2,0.1-0.4,0.1-0.5c0.1-0.6,0.1-1.2,0-1.8l8.2-1.4
		v-0.2l0,0v-0.1l-8.7,0.3c-0.8-1.5-2.4-2.7-4.2-3l-0.7-8.1h-0.4h-0.4l-0.7,8.1c-1.7,0.3-3.3,1.5-4.2,3l-8.7-0.3v0.1l0,0V67l8.2,1.4
		c-0.1,0.6-0.1,1.1,0,1.7c0,0.2,0.1,0.4,0.1,0.6l-27.3-2.5c-0.1,0-0.2,0.1-0.2,0.1c-0.1,0-0.2,0.2,0,0.2L1518,72
		c-0.5,0.5-0.8,1.2-0.8,2c0,1.5,1.3,2.8,2.8,2.8s2.8-1.3,2.8-2.8c0-0.4-0.1-0.7-0.2-1.1l3.3,0.7v2.3h-0.5v-0.2
		c0-0.2-0.2-0.4-0.4-0.4c-0.2,0-0.4,0.2-0.4,0.4v0.9c0,0.2,0.2,0.4,0.4,0.4c0.2,0,0.4-0.2,0.4-0.4v-0.2h1.5v0.2
		c0,0.2,0.2,0.4,0.4,0.4c0.2,0,0.4-0.2,0.4-0.4v-0.9c0-0.2-0.2-0.4-0.4-0.4c-0.2,0-0.4,0.2-0.4,0.4v0.2h-0.5v-1.2l0.9-0.9l2.9,0.6
		c1,1.2,2.3,2,3.6,2l0,0l0,0c1.3,0,2.6-0.8,3.6-2l2.9-0.6l0.9,0.9v1.2h-0.5v-0.2c0-0.2-0.2-0.4-0.4-0.4c-0.2,0-0.4,0.2-0.4,0.4v0.9
		c0,0.2,0.2,0.4,0.4,0.4c0.2,0,0.4-0.2,0.4-0.4v-0.2h1.5v0.2c0,0.2,0.2,0.4,0.4,0.4c0.2,0,0.4-0.2,0.4-0.4v-0.9
		c0-0.2-0.2-0.4-0.4-0.4c-0.2,0-0.4,0.2-0.4,0.4v0.2h-0.5v-2.3l3.3-0.7c-0.1,0.3-0.2,0.7-0.2,1.1c0,1.5,1.2,2.8,2.8,2.8
		c1.5,0,2.8-1.2,2.8-2.8c0-0.8-0.3-1.5-0.8-2l17.4-3.5C1567.2,68.5,1567.1,68.3,1567,68.3z"/>
	<path id="birds_6_" class="st3" d="M442.3,39.6c1.7-1,3.6-1.5,5.5-1.4c1.2,0.1,2.3,0.4,3.3,1.1c-2.9-0.6-7-0.5-9,2
		c-0.9-1.4-2.2-2.5-3.6-3.3c-0.7-0.4-1.6-0.6-2.4-0.6c-0.5,0-1.1,0-1.6,0.1h-0.3c0.7-0.3,1.5-0.5,2.2-0.7c0.8-0.1,1.6,0.1,2.4,0.4
		C440.2,37.8,441.4,38.6,442.3,39.6L442.3,39.6z M427.9,55.7c1.6-1,3.4-1.6,5.3-1.8c1.2-0.1,2.3,0,3.4,0.4c-2.9-0.1-6.9,0.5-8.8,2.6
		c-1.1-1-2.4-1.7-3.8-2.1c-0.8-0.2-1.6-0.3-2.4-0.2c-0.5,0.1-1.1,0.2-1.6,0.2h-0.3c0.7-0.3,1.4-0.6,2.2-0.8c0.8-0.2,1.6-0.2,2.4,0
		C425.6,54.6,426.8,55.1,427.9,55.7L427.9,55.7z M443.7,68.7c1.7-0.9,3.6-1.4,5.5-1.4c1.2,0,2.3,0.2,3.4,0.7c-2.9-0.3-7,0-8.9,2
		c-1.1-1-2.3-1.8-3.7-2.3c-0.8-0.3-1.6-0.4-2.4-0.3c-0.5,0-1.1,0.1-1.6,0.1h-0.3c0.7-0.3,1.5-0.5,2.2-0.6c0.8-0.1,1.6,0,2.4,0.2
		C441.5,67.4,442.7,68,443.7,68.7L443.7,68.7z"/>
	<g id="clouds">
		<path id="clouds_1_6_" class="st5" d="M52.8,100h53.6c-1.1-1.9-3.1-3.1-5.2-3.2c-2.1,0-4.2,0.1-6.3,0.5s-4.2,0.1-6.2-0.8
			c-1.3-0.9-2.5-1.9-3.6-2.9c-2.5-1.7-5.7-2.1-8.5-1c-1.8,0.7-3.4,2-5.3,2.2c-1.5,0-3.1-0.2-4.5-0.7C61.7,93.4,55.3,95.5,52.8,100z
			 M28.4,29.7h38.7c-0.8-1.4-2.2-2.2-3.8-2.3c-1.5,0-3.1,0.1-4.5,0.4c-1.5,0.3-3.1,0.1-4.5-0.6c-0.9-0.6-1.8-1.3-2.6-2.1
			c-1.8-1.3-4.1-1.5-6.2-0.8c-1.3,0.5-2.5,1.4-3.8,1.6c-1.1,0-2.2-0.2-3.3-0.5C34.9,24.9,30.2,26.4,28.4,29.7z M154.9,64.1h-38.8
			c0.8-1.4,2.2-2.2,3.8-2.3c1.5,0,3.1,0.1,4.6,0.4s3.1,0.1,4.5-0.6c0.9-0.6,1.8-1.3,2.6-2.1c1.8-1.3,4.1-1.5,6.2-0.8
			c1.3,0.5,2.4,1.4,3.8,1.6c1.1,0,2.2-0.2,3.3-0.5C148.5,59.3,153.1,60.8,154.9,64.1z"/>
		<path id="clouds_3_6_" class="st5" d="M1800.7,100.5h66.3c-1.4-2.3-3.8-3.8-6.4-4c-2.6,0-5.2,0.1-7.8,0.6s-5.2,0.1-7.7-1
			c-1.6-1.1-3.1-2.2-4.5-3.5c-3.1-2.1-7-2.6-10.5-1.4c-2.2,0.9-4.2,2.5-6.6,2.7c-1.9,0-3.8-0.2-5.6-0.7
			C1811.7,92.4,1803.7,95,1800.7,100.5L1800.7,100.5z M1915,39.3h-48c1-1.7,2.7-2.7,4.7-2.8c1.9,0,3.8,0.1,5.7,0.5s3.8,0.1,5.6-0.7
			c1.1-0.7,2.2-1.6,3.2-2.6c2.2-1.6,5.1-1.9,7.7-1c1.6,0.6,3,1.7,4.7,2c1.4,0,2.7-0.2,4.1-0.6C1907,33.3,1912.8,35.2,1915,39.3z"/>
		<path id="clouds_2_6_" class="st5" d="M1504.1,46h-42.8c0.9-1.5,2.5-2.4,4.2-2.5c1.7,0,3.4,0.1,5,0.4c1.7,0.3,3.4,0.1,4.9-0.6
			c1-0.7,2-1.5,2.9-2.3c2-1.4,4.5-1.7,6.8-0.8c1.4,0.6,2.7,1.6,4.2,1.8c1.2,0,2.5-0.2,3.6-0.5C1497,40.7,1502.2,42.4,1504.1,46
			L1504.1,46z M1412.5,96.4h42.8c-0.9-1.5-2.5-2.4-4.2-2.5c-1.7,0-3.4,0.1-5,0.4c-1.7,0.3-3.4,0.1-4.9-0.6c-1-0.7-2-1.5-2.9-2.3
			c-2-1.4-4.5-1.7-6.8-0.8c-1.4,0.6-2.7,1.6-4.2,1.8c-1.2,0-2.5-0.2-3.6-0.5C1419.6,91.1,1414.4,92.8,1412.5,96.4L1412.5,96.4z"/>
	</g>
</g>

<path id="mountains_2_" class="st6" d="M1939.8,367.4v239.7V111.3c-9,1-18.6,2.7-25.7,7.7c-3.2,2.3-6,5.1-9.2,7.4
	c-13.7,9.9-34.1,8.1-46,20.2c-1.3,1.5-2.8,2.9-4.4,4l-39.5,9.2c-5.6-4.4-22.9-13.2-29.3-13.2l-5.4,0.2c-2.8,0.4-5.5-1.5-6.1-4.3
	c-0.4-2.8-2.8-4.9-5.6-5c-2.7,1-5.2,2.5-7.4,4.4c-6.6,5-15.7,11.9-24.3,12.3c-4,0.1-7.7-1.8-11.5-2.8c-4.1-1.1-5.9-0.6-9.8,0.6
	c-4.4,1.4-9,1.8-13.6,2.5c-4,0.7-8.8,0.4-12.6,2c-5.2,2.2-7.8,6.9-13.9,7.1c-3.5,0.1-6.8-0.4-10.3,0c-10.3,1.2-13,9.3-20.1,15.9
	l-53.4,37.8c-8.5-5.8-28.1-19.4-37.2-24.1l-45.3-21.4c-1.4-0.7-3.1-0.6-4.5,0.2c-4,2.6-7.2,6.6-11.9,7.6c-1.6,0.3-3.3,0.3-5,0.5
	c-1.7,0.3-3.4,0.8-5.1,1.4c-10.1,3.6-19.8,7.8-29.3,12.8c-1.5-0.4-3-0.8-4.5-1.3c-6-1.8-11.4,4.3-17.2,6.5c-0.4,0.2-0.9,0.3-1.3,0.4
	l-72.3-28.3c-1.9-1.1-4.4-0.8-6.5-1.4c-3.4-1-5.5-4.2-7.3-7.2l-16.3-26.8l-9.7-6.1c-7.1-1.6-13.2-6.2-19.5-9.8s-14.1-6.3-20.9-3.6
	c-8.3-6.1-21.7-7.7-31.9-9l-33-2.6c-3.5,0.7-6.8,2.1-10.2,3.4c-7.7,2.8-15.9,4.1-24.1,3.8c-3.4-0.1-7.1-0.5-9.9,1.5
	c-2.4,1.7-3.5,4.8-5.1,7.2c-2,2.7-5.4,3.8-8.6,2.9c-6.2-2-15.3,3.4-19.9,7.9c-4.9,4.8-8.8,10.8-14.5,14.6c-6,3.9-14.6,5.9-16.4,12.9
	c-0.2,1.3-0.6,2.7-1.1,3.9c-1.3,2.3-4.5,2.6-7.1,3.3c-2.1-1.2-4.1-2.4-5.8-4c-1.2-1.2-2.5-2.3-4-3.1c-3.8-1.7-8,0.9-11.8,2.7
	c-2.9,1.4-6.1,2.4-9.3,2.9c-0.9,0.2-1.8,0.1-2.7-0.2c-0.8-0.6-1.4-1.4-1.6-2.3c-1.4-3.6-2.9-7.3-5.7-10c-2.5-2.7-6.5-3.4-9.8-1.7
	c-8.9-10.3-24.8-12.9-32.2-24.3c-1-1.5-1.8-3.1-3.2-4.1s-3.6-1.2-5.4-1.8s-3.8-1.9-3.7-3.8c-15.2,1.8-29.1,9.3-39,21
	c-0.8,1.1-1.8,2-3,2.7c-1.8,0.8-3.9,0.4-5.9,0.1c-11.6-1.4-19.9,9.1-30.3,14.4l-5.7,2.9c-0.5,0.3-1,0.4-1.5,0.5
	c-0.6-0.1-1.2-0.3-1.6-0.8c-1.8-1.4-3.5-3.1-4.9-4.9c-8.7,6.5-21.6,9.6-32.5,10c-2.9,0.1-6.4,0.4-7.6,3.1c-0.3,1.1-0.5,2.2-0.5,3.4
	c-0.6,4.7-4.3,8.3-8,11.3c-0.8,0.6-1.6,1.3-2.4,1.9c-1.5-2.9-3.2-5.7-5.9-7.4c-4.4-2.7-11-2.2-13.8-6.6c-0.9-1.4-1.2-3.1-2.2-4.5
	c-3.2-4.4-10-2-15.4-1.7c-7.1,0.4-24.8-13.3-30.8-17c-9.1-5.6-6.7,0.4-15.8-5.2c-1.3-0.8-6.2-3.4-7.1-4.6c-2.1-2.7-1.2-7.4-2.9-10.3
	c-3-5.1-8.2-4.6-8.3-6.8c-0.2-2.6-8.6-5.9-10.3-6.7c-0.7-0.3-5.8-0.5-9.9,0.1c-5.4,0.8-11,1.4-16-1c-1.5-0.7-9.7-4.5-11.8-3
	c-5.1,3.7-3.9,19.3-5,20.7c-6.5,8.6-8.5,2.4-10.4,4.4c-1.5,1.5-2.8,3.2-4.1,4.9c-0.1,0-0.3,0.1-0.4,0.1c-3.6-1-7.5-1.4-11.2-1.3
	c-1.7,0.2-3.5,0.1-5.2-0.2c-1.7-0.6-3.3-1.3-4.8-2.2c-5.2-2.4-11.3-1.8-16,1.6c-6.2,4.5-15.2,2.9-22.3,5.7c-4,1.6-8.4,3.5-12.6,2.4
	l-0.6-0.3c-2.5-1.9-5.1-3.5-7.9-4.8c-7.3-3.1-15.5-5.5-22.9-5c-3.1,0.3-6.1,0.9-9.1,1.7l-39.5,9.7c-4.1,1-9.3-2.6-13.1-4.7
	c-10.8-6-22-11-33.6-15.1c-1.7-0.6-3.4-1.1-5.1-1.4c-1.7-0.2-3.4-0.2-5-0.5c-5.5-1.2-3.9-2.7-8.7-5.6c-2.7-1.4-7.4-0.8-8.4-0.5
	c-15,4.3-29.2,12.1-44.5,19.8c-14.6,7.4-27.2,18.3-41.5,26.2c-0.7,0.4-1.6,0.8-2.4,1.2c-0.1-0.3-0.3-0.6-0.4-0.9
	c-4.5-8.5-11-15.9-18.8-21.6c-3-2.2-6.2-4.3-6.8-8.3c-0.3-1.7-1.4-3.1-2.9-3.7c-8.1-3.2-15.4-8.2-22.2-13.8c-2.6-2.2-3.2-3.2-6-5.2
	c-1.9-1.4-3.7-2.5-4.3-3c-2.4-2-5.2-0.8-7.1-1.7c-6.9-3.3-7.6-4.7-13.5-7.6c-2.6-1.2-5.6-0.9-7.8,0.8l-0.2,0.2
	c-0.4,0.3-0.8,0.4-1.2,0.5c-0.4,0-0.8-0.1-1.1-0.3l-8.1-4.2c-7-3.5-14.5-5.9-21.9-8.3l-0.4-0.2c-0.9-0.5-1.6-1.2-2.2-2
	c-5.1-6-11.7-10.5-19.1-13.1c-3.8-1.2-7.9-1-11.6,0.5l-0.4,0.1c-1.3,0.4-2.8,0.5-3.9,1.3c-0.9,0.8-1.7,1.9-2.3,3
	c-4,6.2-11.6,8.8-17.8,12.9c-3.1,1.9-6.4,3.4-9.9,4.3c-1,0.3-2,0.9-2.8,1.7c-2,2-3,4.7-4.1,7.3c-0.3,0.7-1.6,1.1-2.4,1.2
	c-1.1,0.1-2.2,0.1-3.3,0c-1.5-0.2-2.9-0.7-4.2-1.4c-2.8-1.3-5.8-3.1-8.6-1.9c-1.1,0.6-2.1,1.3-2.9,2.2c-3.5,3.1-8.3,4.5-11.9,7.5
	c-1.9,1.6-3.4,3.6-5.3,5.3c-4.1,3.8-9.4,5.7-14.5,7.9c-13.3,5.6-37.5,21.3-48.8,30.3l-38-56.5c-0.6-0.7-1.3-1-1.9-1.6
	c-0.6-0.7-1.1-1.4-1.4-2.2c-0.8-1.2-2.3-1.7-3.4-2.6c-3.1-2.7-6.4-5.6-10.3-7v283H1939.8z"/>
<polygon id="city" class="st4" points="1920,103.1 1905.4,103.1 1905.4,136.8 1877.8,136.8 1877.8,109.1 1865.8,109.1 1865.8,204.4 
	1845.3,204.4 1845.3,179.1 1824.8,179.1 1824.8,131.4 1817.8,131.4 1817.8,126.4 1799.8,126.4 1799.8,131.4 1791.8,131.4 
	1791.8,160.9 1771.8,160.9 1771.8,182.4 1730.3,182.4 1730.3,165.9 1669.8,165.9 1669.8,231.7 1614.8,231.7 1614.8,218.7 
	1600.8,218.7 1600.8,181 1583.8,181 1583.8,172.5 1575.3,172.5 1575.3,181 1558.3,181 1558.3,239.7 1516.3,239.7 1516.3,229.7 
	1488.8,229.7 1488.8,212.7 1474.3,212.7 1474.3,203.4 1468.8,203.4 1468.8,197.4 1425.8,197.4 1425.8,203.4 1420.3,203.4 
	1420.3,238.2 1407.8,238.2 1407.8,207.7 1394.8,207.7 1394.8,238.2 1369.8,238.2 1369.8,223.2 1363.3,223.2 1363.3,215.2 
	1320.8,215.2 1320.8,223.2 1314.3,223.2 1314.3,238.2 1301.3,238.2 1301.3,196.2 1282.8,196.2 1282.8,238.2 1261.3,238.2 
	1261.3,247.5 1224.5,247.5 1224.5,236.7 1206.5,236.7 1206.5,228.9 1190,228.9 1190,221.4 1177,221.4 1177,270.3 1155,270.3 
	1155,256.8 1115.5,256.8 1115.5,246.3 1070,246.3 1070,265.3 1060,265.3 1060,257.3 1052,257.3 1052,230.3 1043,230.3 1043,223.8 
	1001.5,223.8 1001.5,230.3 992,230.3 992,254.3 984,254.3 984,263.3 968,263.3 968,252.8 952,252.8 952,217.3 929,217.3 929,262.3 
	909,262.3 909,243.8 863.5,243.8 863.5,226.3 843.5,226.3 843.5,254.3 823.5,254.3 823.5,204.8 818,204.8 818,200.8 808.5,200.8 
	808.5,204.3 802.5,204.3 802.5,266.3 783,266.3 783,248.3 763,248.3 763,261.8 754,261.8 754,252.8 745.5,252.8 745.5,261.8 
	736.5,261.8 736.5,224.8 730,224.8 730,218.3 686,218.3 686,223.3 677.5,223.3 677.5,259.8 661,259.8 661,241.8 645.5,241.8 
	645.5,254.8 635,254.8 635,262.3 631.5,262.3 631.5,238.8 620,238.8 620,261.3 613,261.3 613,246.3 610,246.3 610,242.7 
	587.1,242.7 587.1,246.3 583.5,246.3 583.5,261.7 565.5,261.7 565.5,229.7 549.5,229.7 549.5,261.7 530.2,261.7 530.2,272.3 
	491.6,272.3 491.6,251.2 467.1,251.2 467.1,232.2 455.1,232.2 455.1,240.2 434.6,240.2 434.6,222.2 414.1,222.2 414.1,192.7 
	407.1,192.7 407.1,187.7 389.1,187.7 389.1,192.7 381.1,192.7 381.1,222.2 361.1,222.2 361.1,214.5 319.6,214.5 319.6,198 
	259.1,198 259.1,214.6 204.1,214.6 204.1,201.6 190.1,201.6 190.1,175.8 173.1,175.8 173.1,167.3 164.6,167.3 164.6,210.7 
	147.6,210.7 147.6,167 105.6,167 105.6,157 78.1,157 78.1,140 63.6,140 63.6,123.5 58.1,123.5 58.1,117.5 15.1,117.5 15.1,123.5 
	9.6,123.5 9.6,165.5 0,165.5 0,349.5 1920,349.5 "/>
<g id="bridge_3_">
	<path class="st7" d="M1258.8,288.6L1258.8,288.6l-5,0.1c-0.2,0-0.4-0.2-0.4-0.4v-1.4c0-0.2,0.2-0.4,0.4-0.4h1.7h0.1l-3-1.9
		c-0.4-0.3-0.9-0.4-1.3-0.4h-5.3l-0.6-0.6c-0.2-0.2-0.4-0.3-0.7-0.3h-16.2c-0.3,0-0.5,0.1-0.7,0.3l-0.6,0.6h-2.8
		c-0.1,0-0.2,0.1-0.2,0.2v1h-0.7v-0.9c0.4-0.2,0.3-0.3,0.1-0.3h-6.9l-0.8-0.7c-0.1-0.2-0.3-0.2-0.5-0.2H1199c-0.2,0-0.4,0.1-0.5,0.2
		l-0.8,0.7h-2.8c-0.1,0-0.2,0.1-0.2,0.2v1h-0.8v-0.9c0.3-0.2,0.2-0.3,0.1-0.3h-6.9l-0.8-0.7c-0.1-0.2-0.3-0.2-0.5-0.2h-16.4
		c-0.2,0-0.4,0.1-0.5,0.2l-0.8,0.7h-2.8c-0.1,0-0.2,0.1-0.2,0.2v9.1c0,0.1,0.1,0.2,0.2,0.2h1c0.1,0,0.1,0,0.1-0.1l0.3-0.5l0.1-0.1
		h0.4v0.1c0,0.6,0.4,1,1,1s1-0.4,1-1l0.2-0.1v0.1c0,0.6,0.4,1,1,1s1-0.4,1-1V293h0.2c0.1,0,0.1,0,0.1,0.1l0.4,0.6l0.1,0.1h14.6
		c0.1,0,0.1,0,0.1-0.1l0.5-0.6l0.1-0.1h0.6v0.1c0,0.6,0.4,1,1,1s1-0.4,1-1V293h0.2v0.1c0,0.6,0.4,1,1,1s1-0.4,1-1V293
		c0,0,0.1,0,0.1,0.1l0.5,0.6l0.1,0.1h0.7c0.1,0,0.2-0.1,0.2-0.2V292h0.8v1.5c0,0.1,0.1,0.2,0.2,0.2h1c0.1,0,0.1,0,0.1-0.1l0.3-0.5
		l0.1-0.1h0.4v0.1c0,0.6,0.4,1,1,1c0.6,0.1,1-0.4,1-1l0.2-0.1v0.1c0,0.6,0.4,1,1,1s1-0.4,1-1V293h0.2c0.1,0,0.1,0,0.1,0.1l0.4,0.6
		l0.1,0.1h14.6c0.1,0,0.1,0,0.1-0.1l0.5-0.6l0.1-0.1h0.6v0.1c0,0.6,0.4,1,1,1s1-0.4,1-1V293h0.2v0.1c0,0.6,0.4,1,1,1s1-0.4,1-1V293
		c0.1,0,0.1,0,0.1,0.1l0.5,0.6l0.1,0.1h0.7c0.1,0,0.2-0.1,0.2-0.2V292h0.7v1.5c0,0.1,0.1,0.2,0.2,0.2h1c0.1,0,0.1,0,0.1-0.1l0.3-0.5
		l0.1-0.1h0.2v0.1c0,0.6,0.4,1,1,1c0.6,0.1,1-0.4,1-1l0.3-0.1v0.1c0,0.6,0.4,1,1,1s1-0.4,1-1V293h0.3c0.1,0,0.1,0,0.1,0.1l0.4,0.6
		l0.1,0.1h14.4c0,0,0.1,0,0.1-0.1l0.5-0.6l0.1-0.1h0.4v0.1c0,0.6,0.4,1,1,1s1-0.4,1-1V293h0.3v0.1c0,0.6,0.4,1,1,1s1-0.4,1-1V293
		h0.1c0,0,0.1,0,0.1,0.1l0.5,0.6l0.1,0.1h8.8c0.1,0,0.2-0.1,0.2-0.1l0.1-0.9c0.2-1.8-0.6-3.3-1.9-4.1L1258.8,288.6z M1243.4,286.8
		c0-0.2,0.1-0.3,0.3-0.3h7.3c0.9,0,1.7,0.7,1.6,1.8c0,0.2-0.1,0.3-0.3,0.3h-8.6c-0.2,0-0.3-0.1-0.3-0.3V286.8z M1226.5,287.1
		c0-0.3,0.2-0.5,0.5-0.5h10.4c0.3,0,0.5,0.2,0.5,0.5l0.1,1c0,0.3-0.2,0.5-0.5,0.5H1227c-0.3,0-0.5-0.2-0.5-0.5V287.1z M1224.2,291.3
		h-0.7v-0.4h0.7V291.3z M1224.2,290.2h-0.7v-3.1h0.7V290.2z M1224.2,286.1v0.3h-0.7v-0.3H1224.2z M1200.8,287.1
		c0-0.3,0.2-0.5,0.5-0.5h16.6c0.3,0,0.5,0.2,0.5,0.5v1c0,0.3-0.2,0.5-0.5,0.5h-16.6c-0.3,0-0.5-0.2-0.5-0.5V287.1z M1194.7,291.3
		h-0.8v-0.4h0.8V291.3z M1194.7,290.2h-0.8v-3.1h0.8V290.2z M1194.7,286.1v0.3h-0.8v-0.3H1194.7z M1170.9,287.1
		c0-0.3,0.2-0.5,0.5-0.5h16.6c0.3,0,0.5,0.2,0.5,0.5v1c0,0.3-0.2,0.5-0.5,0.5h-16.6c-0.3,0-0.5-0.2-0.5-0.5V287.1z"/>
	<path class="st7" d="M1382,294.1v-1.9h-43.9v1.9h-89h-2.3h-18.4h-8.5h-2.2H1199h-8.7h-2.2h-18.7h-2.2h-2.1v34.6h1.9v-25.4
		c0-2.4,1.9-4.3,4.3-4.3s4.3,1.9,4.3,4.3v25.4h1.9v-25.4c0-2.4,1.9-4.3,4.3-4.3s4.3,1.9,4.3,4.3v25.4h1.9v-25.4
		c0-2.4,1.9-4.3,4.3-4.3s4.3,1.9,4.3,4.3v26.6h1.9v-26.6c0-2.4,1.9-4.3,4.3-4.3s4.3,1.9,4.3,4.3v30h1.9v-7.5l9.4-7.8
		c32-27,78.9-27,110.9,0l8.8,7.5v3.2h1.9v-25.4c0-2.4,1.9-4.3,4.3-4.3s4.3,1.9,4.3,4.3v25.4h1.9v-25.4c0-2.4,1.9-4.3,4.3-4.3
		s4.3,1.9,4.3,4.3v25.4h1.9v-25.4c0-2.4,1.9-4.3,4.3-4.3s4.3,1.9,4.3,4.3v25.4h1.9v-25.4c0-2.4,1.9-4.3,4.3-4.3s4.3,1.9,4.3,4.3
		v25.4h1.9v-32.1h0.3v-2.5L1382,294.1L1382,294.1z M1213.7,318.4l-4.7,4v-25.8h4.7V318.4z M1221.4,312.3c-1.6,1.2-3.2,2.4-4.8,3.7
		l-1.9,1.6v-21h6.7L1221.4,312.3L1221.4,312.3z M1229.1,307.2c-2.3,1.3-4.5,2.8-6.7,4.3v-14.9h6.7V307.2z M1236.8,303.2
		c-2.3,1-4.5,2.2-6.7,3.4v-10h6.7V303.2z M1244.5,300.1c-2.3,0.8-4.5,1.7-6.7,2.7v-6.2h6.7V300.1z M1252.2,297.8
		c-2.3,0.6-4.5,1.2-6.7,2v-3.2h6.7V297.8z M1253.2,297.6v-1h4.6C1256.3,296.9,1254.7,297.2,1253.2,297.6z M1294.3,297.6
		c-1.5-0.4-3.1-0.7-4.6-1h4.6V297.6z M1302,299.8c-2.2-0.7-4.4-1.4-6.7-2v-1.2h6.7V299.8z M1309.8,302.8c-2.2-1-4.5-1.9-6.8-2.7
		v-3.5h6.8V302.8z M1317.5,306.7c-2.2-1.2-4.4-2.4-6.7-3.4v-6.6h6.7V306.7z M1325.2,311.6c-2.2-1.6-4.4-3-6.7-4.3v-10.7h6.7V311.6z
		 M1332.9,317.7l-2-1.7c-1.5-1.3-3.1-2.5-4.7-3.7v-15.7h6.7V317.7z M1338.1,322.1l-4.2-3.5v-21.9h4.2V322.1z"/>
</g>
<g id="forest">

		<g id="forest">
		<use xlink:href="#tree" x="-425" y="-35" transform="scale(1.1)"/>
		
		<use xlink:href="#tree" x="-560" y="-5" transform="scale(1.0) scale(-1,1)"/>
		<use xlink:href="#trees" x="-345" y="-35" transform="scale(1.15)"/>
		<use xlink:href="#tree" x="-190" y="35" transform="scale(0.9)"/>
		<use xlink:href="#tree" x="-760" y="125" transform="scale(0.7) scale(-1,1)"/>

		<use xlink:href="#tree" x="-1150" y="290" transform="scale(0.5) scale(-1,1)"/>
		<use xlink:href="#tree" x="-15" y="28" transform="scale(0.9)"/>
		<use xlink:href="#tree" x="-995" y="130" transform="scale(0.7) scale(-1,1)"/>

		<use xlink:href="#trees" x="-1135" y="36" transform="scale(0.9) scale(-1,1)"/>
		<use xlink:href="#tree" x="-1110" y="30" transform="scale(0.9) scale(-1,1)"/>

		<use xlink:href="#tree" x="155" y="-30" transform="scale(1.15)"/>
		<use xlink:href="#tree" x="-1130" y="0" transform="scale(1.0) scale(-1,1)"/>
		<use xlink:href="#tree" x="295" y="0" transform="scale(1.0)"/>
		<use xlink:href="#trees" x="-1030" y="-94" transform="scale(1.5) scale(-1,1)"/>
		<use xlink:href="#tree" x="425" y="-5" transform="scale(1.0)"/>
		<use xlink:href="#trees" x="400" y="5" transform="scale(1.0)"/>
		<use xlink:href="#tree" x="1130" y="205" transform="scale(0.6)"/>

		<use xlink:href="#tree" x="745" y="42" transform="scale(0.9)"/>
		<use xlink:href="#tree" x="-2580" y="332" transform="scale(0.5) scale(-1,1)"/>
		<use xlink:href="#tree" x="1760" y="336" transform="scale(0.5)"/>
		<use xlink:href="#tree" x="-2650" y="338" transform="scale(0.5) scale(-1,1)"/>
		<use xlink:href="#tree" x="975" y="95" transform="scale(0.8)"/>
		<use xlink:href="#tree" x="-1860" y="105" transform="scale(0.8) scale(-1,1)"/>
		<use xlink:href="#tree" x="537" y="-30" transform="scale(1.2)"/>

		<use xlink:href="#tree" x="-2220" y="70" transform="scale(0.8) scale(-1,1)"/>
		<use xlink:href="#tree" x="1020" y="-5" transform="scale(1.0)"/>
		<use xlink:href="#trees" x="1355" y="70" transform="scale(0.8)"/>

		<use xlink:href="#tree" x="890" y="-60" transform="scale(1.2)"/>
		<use xlink:href="#trees" x="-2528" y="80" transform="scale(0.8) scale(-1,1)"/>

		<use xlink:href="#tree" x="1795" y="70" transform="scale(0.8)"/>
		<use xlink:href="#trees" x="-2030" y="-50" transform="scale(1.2) scale(-1,1)"/>
		<use xlink:href="#trees" x="470" y="-150" transform="scale(2.0)"/>
	</g>
</g>
<g id="monuments">
	<path id="the_motherland_calls" class="st8" d="M75.9,219.1c0.8,2.4,1.7,5.1,2.3,7.5c0.6,1.9,0.7,3.9,1.1,5.7
		c0.2,1.3,0.8,2.6,1.1,4c0.8,3.4,1.7,6.7,2.3,10.1l2.7,19.4c0.1,0.7,0.7,1.3,1.1,2.1c1.8,2.4,1.7,4-0.2,5.7c-1.8,1.8-1.7,1.8-0.7,4
		l1.7,5.6c0.6,1.7,1.4,11-0.4,11.1L18.4,294c0.6-0.2,12.9-8.6,13.3-8.6c1.9-0.2,1.9-0.2,1.9-2.2c0-1.7,0.6-2.2,2.2-2.3h21.6
		c0.1-1,0.3-2.4,0.2-3.1c0-0.4-0.2-1.1-0.7-1.3l-7.4-6.8c-0.6-0.6-1.3-1.1-2-1.5c-1.9-1.3-1.9-2.3-0.8-4.7l2.5-5.6
		c1.7-1.7,2.3-3.7,2.9-5.7L51.5,233c0-1.9-0.4-2.2-2.3-2.1c-1.3,0.1-3.3-2.1-3-3.4L47,218c0.1-1-0.2-1.5-1.2-1l-5-1.6
		c-1.3-0.6-1.3-1.8-1.3-3.2c0-0.8,0.2-1.9-1.1-1.9c-0.2-2.6,0.8-4.8,2.4-6.9c0.2-0.4,1-0.8,1.3-0.8c2.9-1,5.5-2.2,7-3.9
		c0-1.8,0.6-4-1.2-5.3c-4-3.3-6.2-7.8-8.5-12.3c-0.8-1.7-2.2-3-3.2-4.6c-1.2-2.3-2.3-4.6-3.3-7.2c-0.2-0.7-0.6-1.2-1.5-0.8
		c-1,0.4-1.5-0.4-1.9-1.1s-0.6-1.2-0.1-2.1c0.8-1.8,1.7-3.5,2.2-5.5l-0.8-4.3c0,0,0.4-1.1,0.8-1.2c1.1,0.4,2,1.1,2.7,2.1
		c0.6,0.6,1.1,0.6,1.5-0.1l20.9-29.6l1-0.1l0.2,0.8L38,158.5c-0.8,1.2-1,2.4-0.2,3.9c0.4,0.7,0.7,1.5,0.8,2.3
		c0.1,0.6,0.1,1.2-0.1,1.5l-1.9-0.3c-0.1,0-0.2,0.1-0.2,0.1c0.4,0.8,0.7,1.7,1.1,2.3c1.3,1.9,2.8,3.7,4.1,5.5c0.4,0.4,0.8,1,1,1.5
		c0.4,1.7,1.3,2.8,2.4,3.9c1.5,1.5,3.2,2.9,4.1,5c0.7,1.3,2.1,2.3,3.7,2.9l3.6,2.1c1.4,0.3,1.8-0.1,1.8-1.8
		c-2.6,0.6-4.1-1.3-5.8-2.6c0.1-0.7,0.1-1.5,0.4-2.1c0.6-1.2,1.3-2.2,2.2-2.9c1.2-0.2,1.5-1,1-2.3c1.7,0.4,2.3-0.7,3.3-1.5
		c1.3-1.1,3-1,4.5-0.2c1.1,0.4,2.2,0.8,3.3,1.5c0.4,0.2,1,1,1,1.3c-0.2,1.9,0.2,3.5,1.1,5l-2.9,5.2c-0.6,0.4-1.2,0.6-1,1.3
		s0.4,1.9,1,2.3c1.2,0.8,2.6,1.3,4,1.8c1.5,0.2,2.8,0.8,4,1.7c1.9,1.1,4,2.2,6.3,2.4c3.2,0.4,6.1,1.1,8.9,2.6c0.4,0.1,1,0,1.3,0
		c1-0.1,1.9-0.2,2.8-0.4c0.1,0.2,0.2,0.4,0.2,0.4c-0.2,1.2-0.4,2.3,1.1,3c1.3,0.7,2.8,1.3,4.1,2.2c0,0-0.1,0.2-0.2,0.2
		c-1.5,0.2-1.5,0.2-1,2.1c-0.8-0.4-1.5-0.6-2.3-1c-0.7,1.1-1.5,0.4-1.9-0.2c-1.3-2.4-3.4-1.9-5.6-1.7c-0.8,0.1-1.7,0-2.4-0.1
		c-1.1-0.1-2.1-0.6-3.2-0.7c-2.1-0.1-4.1,0-6.2,0c-1.1,0-2.1,0.4-3,1c-1.5,0.7-1.7,1.1-0.8,2.8L75.9,219.1z"/>
	<g id="flame_towers">
		<path class="st8" d="M1737.8,242.2c0.4-2,0.8-4.1,1.4-6.1c0.9-2.6,2-5.3,3.2-7.8c2-3.8,4.3-7.3,7.5-10.2c2.6-2.4,5.6-4.3,9-5.7
			c1.8-0.8,3.7-1.4,5.5-2.1c0.8-0.3,1.2,0,1.3,1c1.5,7.4,2.5,16,3.3,25.2c2.3,26,4.6,51.7,2.4,65.2l-67.9,5.1
			c3.3-25.8,6.6-54.7,10.3-66.9c0.6-2,1.2-4.1,2-6c1.1-2.4,2.7-4.4,4.6-5.9c2.1-1.7,4.6-2.7,7.3-3.2l4.6-0.9c0.8,0.4,0.9,1.1,1,2
			l2.3,27L1737.8,242.2z"/>
		<path class="st8" d="M1659.6,204.8c3.4,1.9,6.4,4.3,8.9,7.2c0.5,0.6,0.9,1.2,1.4,1.8c2.2,3.2,3,5.6,4.3,10.7
			c5,29.6,11,56.9,17.7,82.3c-14.2,0-34-0.6-48.2-0.6l0.8-42.1c0.4-21.6,2.8-42.5,7.2-62.9c0.1-0.4,0.5-0.6,0.9-0.4L1659.6,204.8z"
			/>
	</g>
	<path id="kremlin" class="st8" d="M1030.4,312.5v-31.3v-0.3v-5.7l-1.2,1.5l-0.7,0.1l-1.2-1.5v5.7h-1v-5.7l-1.2,1.5l-0.7,0.1
		l-1.2-1.5v5.7h-1.4v-5.7l-1.2,1.5l-0.7,0.1l-1.2-1.5v5.7h-1v-5.7l-1.2,1.5l-0.7,0.1l-1.2-1.5v5.7h-1v-5.7l-1.2,1.5l-0.7,0.1
		l-1.2-1.5v5.7h-1v-5.7l-1.2,1.5l-0.7,0.1l-1-1.2v-5.3l-1.4,1.7l-0.8,0.1l-0.2-0.3l0.1-18.7c0.4,0,1,0,1.1-0.3
		c0.2-0.5-0.4-0.9-0.5-0.2c-0.2-1,0.3-2.6-0.1-3.5c0.3-0.1,0.3-0.5-0.2-0.5c0-0.5-0.1-1.3,0.2-1.7c0.1-0.5,0.1-0.9,0.2-1.4
		c-1,0.1-0.8-1.7-0.9-2.4c-0.2-0.9-0.4-1.9-0.7-2.8c-0.8,1.3-0.6,3.4-0.9,4.8c-0.1,0-0.3,0-0.5,0c0,0.6-0.1,1.3,0,1.8
		c-0.1-0.2-0.1-0.5-0.2-0.7c-0.1-0.3-0.5-0.4-0.6-0.6s0.4-1.7-0.2-1.6c-0.1,0-0.1,0-0.1,0.1v-13.4c0-0.2-0.2-0.4-0.4-0.4
		s-0.4,0.2-0.4,0.4v0.4h-0.7h-0.1v-7l1.1-1.3c0-0.7,0.7-3.4,0.1-3.9v-0.1c0.1-0.2,0.3-0.1,0.5-0.2c0.4-0.4,0-0.7-0.5-0.3
		c-0.4-0.4,0-1.9,0-2.4c0-0.3,0-0.7,0.1-1c0.1-0.1,0.2-0.2,0.3-0.2s0.1,0.1,0.2,0.1c0.4,0,0.8-0.5,0.6-0.9c-0.2-0.3-0.6-0.1-0.8-0.4
		c-0.2-0.2-0.2-1-0.2-1.3c-0.1-1-0.1-2-0.3-2.9c-0.1,0.2-0.2,0.4-0.3,0.6c-0.6-0.1-1.9,0.1-1.9,0.1l-3.7-18.5l-0.4-0.5v-1.2l3.5,1.8
		l-0.7-4l3.1-2.8l-4.2-0.6l-1.9-3.7l-1.9,3.6l-4.2,0.5l3,2.9l-0.8,4l3.3-1.7v1.1l-0.5,0.6l-3.3,17.8c-0.5-0.1-1.6-0.3-1.6-0.3l0,0
		c0,0,0-0.1-0.1-0.1l0,0l0,0l-0.1-0.1c-0.2,0.4-0.2,1-0.4,1.5c-0.1,0.5-0.4,1.1-0.5,1.6c-0.2,0.5-0.4,1-0.6,1.5
		c-0.1,0.3,0.1,0.8,0.4,0.4c0,1-0.1,2,0,2.9c0,0.2,0.1,0.4,0,0.6c0,0.2-0.1,0.2-0.2,0.3c-0.1,0.1-0.3,0.1-0.1,0.4
		c0.1,0.2,0.2,0.2,0.4,0.1c0,0.2,0,0.5-0.1,0.7s-0.2,0.3-0.3,0.5c-0.7,0.2-0.4,1.9-0.4,2.4c0,0.2-0.1,0.5,0,0.7
		c0.1,0.3,0.2,0.2,0.3,0.4l0.5,1.1l0.7,1.1v6.3c-0.2,0-0.4,0-0.6,0h-0.4v-0.5c0-0.2-0.2-0.4-0.4-0.4s-0.4,0.2-0.4,0.4v13.8l-0.1-0.1
		c-0.6-0.2-0.1,1.3-0.2,1.6c-0.1,0.2-0.5,0.3-0.6,0.6c-0.1,0.2-0.1,0.5-0.2,0.7c0.1-0.6,0-1.2,0-1.8c-0.1,0-0.3,0-0.5,0
		c-0.3-1.5-0.2-3.5-0.9-4.8c-0.3,0.9-0.5,1.9-0.7,2.8c-0.1,0.6,0.1,2.5-0.9,2.4c0.1,0.4,0.1,0.9,0.2,1.4c0.1,0.2,0.1,0.4,0.2,0.6
		v1.1c-0.5,0-0.5,0.4-0.2,0.5c-0.4,0.9,0.1,2.5-0.1,3.5c0-0.7-0.7-0.3-0.5,0.2c0.1,0.2,0.5,0.3,0.8,0.3l-0.2,18.2l-0.4,0.4l-0.8,0.1
		l-1.4-1.8v5l-1.2,1.5l-0.7,0.1l-1.2-1.5v5.7h-1v-5.7l-1.2,1.5l-0.7,0.1l-1.2-1.5v5.7h-1.4v-5.7l-1.2,1.5l-0.7,0.1l-1.2-1.5v5.7h-1
		v-5.7l-1.2,1.5l-0.7,0.1l-1.2-1.5v5.7h-1v-5.7l-1.2,1.5l-0.7,0.1l-1.2-1.5v5.7H958v-5.7l-1.2,1.5l-0.7,0.1l-1.2-1.5V311
		L1030.4,312.5z M1000.5,214.1L1000.5,214.1L1000.5,214.1L1000.5,214.1z M981.6,249.4c0-0.1,0-0.1-0.1-0.2c0,0,0,0,0.1,0V249.4z"/>
	<path id="bronze_horseman" class="st8" d="M335,250.6c0.2,0,0.3,0.1,0.6,0.3c-0.3,0.2-0.5,0.3-0.9,0.5c0.3,0.1,0.5,0.2,0.7,0.3
		c0.5,0.2,1.1,0.7,1.3,1.4c0.1,0.2,0.2,0.3,0.3,0.5c2,1.5,1.7,3.6,1.3,5.6c-0.3,1.7-0.7,3.4-1.1,5.1c-0.2,0.9-0.4,1.2-1.4,1.4
		c-1.4,0.4-2.9,0.7-3.9,2.2c-0.5,0.8-0.5,1.7-0.1,2.5c0.2,0.3,0.3,0.7,0.3,1.1c0.1,0.8,0.3,1.5,1.2,1.9c6.8,3.4,13.4,8.4,19.8,14.3
		c1.3,1.5,2.6,9.5,2.4,11.4l-158.1,1.1c2-0.5,39.5-12.9,41.5-13.4c1.9-0.5,3.7-1.1,5.4-2.1c0.6-0.4,1.4-0.7,1.9-1.1
		c0.3-0.2,0.6-0.6,0.9-0.9c0.2-0.2,0.3-0.4,0.5-0.5c1.4-0.5,2.3-1.4,2.7-2.8l11.7-6.2c0.4-0.9,1.2-1.1,2.1-1.2l11.5-4.3
		c1.6-0.5,3.4-1.1,4.5-2.4c0.1-0.1,0.4-0.1,0.5-0.3c0.4-0.3,1.1-0.6,1.2-1.1c0.7-1.8,1.4-3.7,1.8-5.6c0.3-1.1-0.7-0.6-1.2-0.7
		c-0.5-0.8-0.9-1.6-1.4-2.4c-0.1-0.2,0.1-0.6,0.3-0.7c0.9-0.5,1.3-1.4,1.8-2.2c0.2-0.4,0.4-0.8,0.8-1.2c0.9-0.8,1.3-1.9,1.7-3.1
		l1.6-6.6c0.4-1.7,1.3-3.2,2.3-4.5c0.7-0.8,1.6-1.6,2.8-1.5c0.9,0.1,1.9,0,2.1-1.2c0-0.1,0.1-0.2,0.2-0.3c0.8-0.7,1.2-1.5,1.1-2.6
		c-0.1-0.9,0.2-2,1.1-2.7c0.3-0.3,0.6-0.6,0.9-0.9c0.9-0.7,1.3-1.7,1.3-2.8l1.6-8.6c0.1-0.4,0.3-0.8,0.5-1.2
		c0.3-0.5,0.3-0.8-0.1-1.4c-0.2-0.3-0.4-0.7-0.4-1.1c-0.1-0.4,0-0.8,0-1.4c-0.1-1.3,0.6-2,1.7-2.5c0.3-0.2,0.9-0.1,1.2,0.1
		c1.2,1.1,1.6,2.8,0.9,4.2c-0.2,0.5-0.2,0.9,0.5,0.8c1.1,0,2.1,0,3.2,0c0.5,0,1.1,0.1,1.6,0.2c0.8,0.2,1.5,0.1,2-0.5
		c0.8-0.9,1.8-1.7,3.2-1.9c0.5-0.1,1.1-0.6,1.6-0.8c0.2-0.1,0.6-0.1,0.7,0c0.5,1.5,1.8,2,3.1,2.6c0.9,0.5,1.8,1.2,2.6,1.8
		c0.3,0.2,0.5,0.4,0.8,0.6c0.9,0.6,1.3,1.3,0.9,2.5c-0.4-0.1-0.8-0.1-1.3-0.2c-0.1,0.4-0.1,0.8-0.2,1.2c-0.8,0.3-1.5-0.2-2.1-0.5
		s-1.4-0.5-2.1-0.7c-0.6-0.1-1.1,0.5-0.7,1.2l4.4,9.9c0.1,0.6,0.5,0.8,1.2,0.9c1.3,0.3,2.3,0.3,3.6,0c1.1-0.3,1.7,0.5,2.3,1.3
		c0.9,1.1,2,2,2.9,3.1c0.3,0.3,0.6,0.8,0.6,1.4c0.1,1.1,0.3,2.2-0.7,2.9c-0.3,0.2-0.7,0.3-1.1,0.4c-0.1-0.4-0.3-0.8-0.3-1.3
		c0-0.3,0.3-0.6,0.4-0.8s0.2-0.6,0.1-0.7c-0.9-1.4-1.8-2.8-3.3-3.8c-1.2-0.6-3.4-0.2-4,0.9c0.4,0,0.8,0.1,1.3,0.1
		c1.2,0,1.6,0.5,1.8,1.7c0.2,1.4,0.6,2.6,0.9,3.9c0,0.1,0.1,0.3,0.2,0.4c0.2,1.6-1.7,3.5-3.4,3.5c-0.2-0.9,0.2-1.6,0.8-2.2
		c0.4-0.4,0.5-0.7,0.5-1.3c-0.1-0.8,0-1.8-0.2-2.6c-0.3-1.6-1.1-2-2.7-1.8c-0.5,0.1-1.2,0.3-1.7,0.5c0.3,0.1,0.7,0.1,1.2,0.2
		c-0.2,0.7-0.8,0.8-1.5,0.8c-0.7,0.1-1.5,0.3-2.2,0.4c-0.3,0-0.7-0.1-0.9-0.3c-0.2-0.2-0.4-0.5-0.6-0.8c-0.5,1.1-0.1,1.9,0.8,2.3
		c0.7,0.3,1.6,0.5,2.3,0.8c0.1,0,0.2,0.2,0.4,0.3c-0.1,0.1-0.2,0.2-0.3,0.3c-1.1,0.2-2.2,0.4-3.4,0.6c-0.5,0.1-0.5-0.2-0.6-0.6
		c-0.1-0.6-0.3-1.3-0.6-1.8s-0.8-0.5-1.4-0.2c-1.8,1.2-3.7,2.2-6,2.3c-0.6,0-1.2,0.2-1.8,0.3c-0.1,0-0.2,0.2-0.3,0.3
		c-0.7,2-1.6,3.8-2.9,5.4c-0.7,0.8-0.6,1.1,0.6,1.4c-0.4,1.6,0.8,1.9,1.8,2.5c1.5,0.9,3.1,1.1,4.7,0.9L335,250.6z M293,237.8
		c-0.1-0.1-0.2-0.2-0.4-0.3c-0.1,0.2-0.2,0.5-0.4,0.7c-1.4,1.5-1.7,3.4-1.8,5.4c0,0.7,0,1.6-0.2,2.3c-0.4,1.5-0.9,2.9-1.4,4.4
		c-0.3,1.2-0.7,2.2-1.5,3.3c-0.1,0.2-0.2,0.4-0.2,0.6c0.2,0,0.5,0.1,0.7,0.1c1.8-0.4,2.1-0.2,3.2,1.3c0.1,0.2,0.5,0.4,0.7,0.4
		c0.4-0.1,0.9-0.3,1.4-0.6c1.6-1.1,3.1-2.2,4.6-3.4c0.6-0.4,0.6-0.8,0.1-1.4s-1.1-1.3-1.6-1.9c-0.6-0.8-0.5-1.7,0.3-2.3
		c0.4-0.3,0.8-0.6,1.2-0.9c0.9-0.9,0.8-1.4-0.3-1.9c-2.2-1.1-3.8-2.6-4.3-5.1C293.2,238.4,293.1,238.2,293,237.8z M304.3,250.8
		c-0.2-0.2-0.2-0.3-0.2-0.4c-1.4-0.7-2.6-1.6-4-2.3c-0.2-0.1-0.7,0.1-0.7,0.1c0,0.7,0,1.5,0.3,2c0.2,0.3,0.8,0.6,1.4,0.6
		L304.3,250.8L304.3,250.8z M310.6,215c-0.1-0.1-0.1-0.1-0.2-0.2c-0.7,0.3-1.5,0.5-2.1,0.9c-0.2,0.1-0.3,0.7-0.2,1.1
		c0.1,0.7,0.2,1.5,0.5,2.2c0.2,0.6,0.5,1.3,0.9,1.9c0.1,0.2,0.6,0.1,0.9,0.1c0.1,0,0.2-0.3,0.2-0.4c-0.2-0.5-0.3-1.2-0.6-1.6
		c-0.6-0.8-0.7-1.5-0.3-2.4C309.8,216.2,310.3,215.5,310.6,215z"/>
</g>
<path id="ground_rear" class="st9" d="M139.7,542.2L1240,413.5l4.5-66.9l-59.3-22.6c-3.8-1.5-7.9-2.2-12-2.2
	c-23.9,0.2-47.8,1.6-71.7-0.8c-6.8-0.7-13.5-1.5-20.2-2.3c-8.1-1-16.5-1.5-24.5-3.2c-5.1-1.2-9.9-3.2-14.4-5.8l-49.8,0.8
	c-11-0.2-22-1.5-32.9-2.8c-10.8-1.3-21.6-2.5-32.4-2.5l-84.4-3.1c-5.3-0.3-10.6,0.1-15.8,1.1c-8.8,1.8-18.1,5.2-27.2,5.5
	c-9.4,0.2-18.9-0.1-28.4-0.1l-53.9-3c-8.3,1.2-16.6,1.9-25,1.9c-4.3,0-8.4,0.1-12.5-0.8c-3.5-0.8-6.9-2-10.4-2.8l-59.8-2.4h-41.8
	c-5.1-0.7-10.1-2-14.9-3.9c-3.5-1.4-6.9-3.6-10.6-4.3c-4.1-0.7-9.2-0.1-13.4-0.1s-8.1,1-12.2,1.2h-56c-6,0.5-11,3.7-16.7,5.4
	c-4.7,1.4-9.4,3.2-14.3,4l-19.5,3.2c-2.7,0-5.3-0.3-7.9-1c-2.2-0.5-4.9-1-7-2c-1.6-0.8-2.8-2.2-4.1-3.3c-2.7-2.3-6.8-2-10.2-2.5
	c-9.9-1.4-20.3-0.6-30.2-0.7c-5.3,0-10.6,0.4-15.9,0.7c-6.6,0.3-13-1-19.7-1.2l-75.9,0.1c-5.4-0.1-128.1,7.5-133.6,7.1L139.7,542.2z
	"/>
<g id="ground_front">
	<path class="st10" d="M1002,416.9c5.8-1,15.6-2.9,21.1,0.2c3.8,2.2,2.7,6,5.8,8.6c2.9,2.4,6.1,0.6,9.3-0.6l209.2-76.1v158.8
		l-530.7,3.3l0.3-53.4C826.7,448.3,929.1,436.8,1002,416.9z"/>
	<path class="st11" d="M617.5,390.5c-13.9-3.3-25.6-11.1-40.1-11.1c-7.8,0-15.2,1.4-22.9-0.4c-6.1-1.5-12-4.5-18.2-5.4
		c-14.5-2-29,12-42.9,13.8c0,0-79-21.2-123-46.8c-9.8-4.5-12.4-5.9-22.5-4.9c-8.8,0.8-20.3-3-28.2-7.2c-4.9-2.6-15.6-4.4-19.1-9.6
		c-2.2-3.1-5.5-5.3-9.2-6c-10.7-2.3-21.7-2.9-32.6-1.7c-10.4,1.2-82.5-1-103.9-6c-13.9-3.3-25.6-11.1-40.1-11.1
		c-7.8,0-15.2,1.4-22.9-0.4c-6.1-1.5-12-4.5-18.2-5.4c-25.2-2.2-49.8-0.3-73.7,5.3v268.5l937.4-2.2c-12.5-43.1-32-81-61.9-111.1
		c-10.1-10.6-24.1-17-37.1-22.9c-9.8-4.5-12.4-5.9-22.6-4.9c-8.8,0.8-20.3-3-28.2-7.2c-4.9-2.6-15.6-4.4-19.1-9.6
		c-2.2-3.1-5.5-5.3-9.2-6c-10.7-2.3-21.7-2.9-32.6-1.7c-10.4,1.2-22.3,5.2-31.9-0.6C667,389.9,640.6,386.6,617.5,390.5z"/>
	<path class="st12" d="M657.3,512.9c0,0,1.7-50.4,1.7-62c0-2.4,0.7-4.4,2.2-6.2c0,0.1,0.6,5.1,1.6,5.3c0.4-2.4,3.1,1.6,3,1.2
		c1.7,0.2,1.3-6.5,3.1-5.8c1.8,0.6-0.5,5.9,1.4,6.2c1.7-4.2,0.4,0.1,2.1,0.4c-0.1,0.5,4.9-12,5.7-12.2c0.8,7.6,1.2-1.5,2.9-2
		c0.1,0.9,0.4,1.7,0.8,2.5c0.2-1.6,1.6-5.7,2.7-2.5c0.9-0.2,0.4-4.9,2.3-4.5c0.4,4.5,1.7,0.9,3.9,5.4c4.3-0.5-0.8,0.7,3.3,1.3
		c3.4-2.9,2.2-1.5,4.3-7.9c1,2.7,1.8,2.7,2.6,0c2.3,3.2,0.2,5.3,2.9,2.6c1.5,1.4,4.2,8.2,6.6,8.7c2.7-4.7,0.2-0.1,3,0.5
		c0.5-1.8,1.2-3.5,2.1-5.1c0.3,0.6,0.5,1.2,0.7,1.8c-0.2-2,0.4-3.8,1.7-5.4c2.2,3.6-1.1,1.1,3.1,0.7c3.6,3.6,0.2,2,3.6,2.5
		c0.2,1.8,0.8,3.5,1.8,5.1c1.4-0.2,2.3-0.9,2.9-2.2c0.7,0.1,4.2,3.5,5.4,3.8c0,1.6,0.6,3,1.7,4.2c1.3-6.3,1.3-2.4,3.1-9
		c0.2,0.9,0.6,1.8,1,2.6c1.4-5.8-0.2-1.5,3.8-4.5c0.3,1.8,0.7,3.5,1.4,5.2c3.6-0.4,5.2,2.1,8.3,6.3c1-3.8,5.9-5.2,8.7-10.8
		c1.2,3.6,2.3,3,3.3-1.8c0.8,2.3,1.6,4.7,2.2,7.1c0.7-1,1-2.1,0.9-3.3c5.4,8.2,1.6,3.9,5.7,13.3c0.1-1.3,0.5-2.5,1.2-3.6
		c1.6,7.9,2.3,2.7,5.5,8.2c0.8-1.1,1.7-2.2,2.6-3.2c2.6,3,0.5,7.5,3.7,0.6c1.9,0.2,3.8,8.6,4.8,10.8c1.1-0.7,1.8-1.7,2-3
		c0.7,2.1,1.3,4.3,1.8,6.5c2.3-4.3,2-3.7,4.2,0.4c0.7-1.9,1.8-3.5,3.2-4.9c4.1,4.6-1.5,5.6,3.1,2.9c1.8,4.4,2.1,10.6,6.6,7.5
		c3.4,8.2,7.9,6.7,11.8,14.5c0.4-1.1,1-2,2-2.6c-1.9-0.5,6.6,4.1,4.1,1.4c1,1.2,4.2,11.6,7.4,10.7c0.3-0.1,7.5-5.2,6.9-5.7
		c0.4,3.3,5.2,8.7,7.9,10.2c0.4-1.1,0.9-2.1,1.4-3.2c3.2,0.8,3,0.6,6.4,3c0.6-1.7,1.5-3.3,2.7-4.6c6.1,5.2-0.3-4.1,5.8-2.9
		c2.3,11.6,3.1,28.1,3.1,43.3L657.3,512.9z"/>
	<g>
		<path class="st10" d="M859.5,510.4c-6,3-10.5,9.4-14.5,16.8v52.9h121v-74.3l-57.5-19.5c-6.7,1.1-12.8,4.2-18.4,9
			c-0.7-0.5-1.8-1.8-1.8-1.8c-5.3-0.2-10.1,2.1-14.8,5.9C870.6,504.4,865.9,508,859.5,510.4z"/>
	</g>
	<path class="st12" d="M898.5,574.7c0.1-0.4,2.9-37,4.7-36.6c2.3,11.3,9.6-5.1,11.6-7.1c9.6,13.7,10.3-12.9,16.3-16.2
		c0.7,2.8,1.4,7.7,4.6,8.7l4.5-9.2l17.8-0.8l16.7-10c1.6-5.5,2.3-20.6,7.2-23.1c2,1.1,3.4,8,6,12c3.9-3.9,2.7-2.8,4.6-8.5
		c1,2.6,2.1,5.1,3.3,7.5c0.7-10,1.6-0.8,4.1-1.2c0.1-3.3,1.3-6.2,3.5-8.6c1.4,9.1,5.4,5.4,6.7,9.3c1.7,0.1,2.1-8.9,4.2-8.1
		c2.6,1-1,8,1.9,8.7c1.7-5.9,1,0.2,2.9,0.5c0.3-3.1,8-17,9-12.8c1.2-2.2,2.3-4.6,3.2-7c1.4,8.6,5.6-6.8,8.1-6.3
		c0.2,1.7,7.2,9,10,9.3c4.4-3.7,3.5-3,6-11.1c1.3,3.7,2.6,3.7,3.7,0.1c4,5.7,10.9,15.3,17.7,16.3c2.9-3.6,2.3-10.3,6.3-12.2
		c1.6,2.8,12.8,11,15.9,8.6c2,0.2,8.4,11.4,9.7,11.2c1.9-8.9,1.8-3,4.3-12.4c2.8,1.9,3.2-0.2,6.7-2.7c4.9,9,6.5,7,13.4,16.3
		c1.2-4.6,8.3-8,12.1-15c1.7,5.2,3.2,4.4,4.6-2.4c10.1,7,8.9,95,3.3,102.7L898.5,574.7L898.5,574.7z"/>
	<path class="st13" d="M1272.4,318.1c12.2-7.2,30.1-6.6,43.7-8.4c24.7-3.3,49.5-6.6,74.2-9.9c30.2-4,60.4-8,90.7-11.9
		c0,25.4,0,50.7,0,76.1c0,13.9,6.2,47.2-0.7,59c-6.5,11.4-33.1,23.2-43.4,30.5c-27.4,19.2-54.7,38.4-82.1,57.6s-54.8,38.4-82.2,57.6
		c-9.4,6.6-22.1,20-33.1,23.2c-12.9,3.7-34.4-1.8-47.5-2.5c-33-1.7-65.9-3.5-98.9-5.2c-35.8-1.9-71.6-3.8-107.3-5.7
		c-7.5-0.4-23.7,1.9-30.4-1.6c-0.8-0.4-3.7,0.5-4.3-0.2c-1.1-1.2-1.7-19.1,2.8-12c4.1-0.5,9.2-10.8,10.6-16.2
		c0.2,3.5,0.7,2.8,1.5-2.1c1.6,0.5,3,0.7,4.6,2.6c0,0,0.4-3.7,1.2-2.9c0.4,1,1.2,1.6,2.3,1.8c0.7-0.7,0.5-4.4,1.8-2.5
		c0.1-1.2,1.8-15.1,3.3-14.7c0.3,2.1,2.2,2.1,4.2,2.6c0-1.3,0.5-2.4,1.5-3.2c2.9,3.9,2-3.7,3.6-5.1c0.4,1.3,1,2.3,2,3.2
		c0.6-0.8,0.9-1.7,1-2.7c2.8,0,3.4-0.7,5.5,0.4c3.4-1.9,1.2-11.9,4.6-13.8c-0.1,1.7,0.2,3.4,0.9,5c2.2-2.7,0.8,1.2,2.8,2
		c1.2-2,7.1-8.6,8.6-7.1c1.6-2,2.8-6.1,3.7-8.3c0.5,0.4,0.9,0.8,1.2,1.4c0.8-3.6-0.2-3.1,2.3-1c1.1-1,12.8-2.1,15.4-1
		c1-3.9,1.8-16.5,5.7-18.6c0.5,1.2,0.7,2.4,0.5,3.7c0.1-0.7,0.5-1.2,1.2-1.4c0.2,0.1,2.6,6.8,3,7.4c-1.4,1.2,3.3-5.6,3.8-3.2
		c0-0.2-0.6-2,0.1-3.7c1.3,0.4,0.7,6,2.6,6c0.8-8.3,1.1-0.6,3.2-1c0-2.7,1-5,2.8-6.9c0.5,5.2,0.7,4.7,2.7,4.2
		c0.2,1.2,0.7,2.2,1.4,3.2c0.4-2.1,0.7-0.9,1.2,0c2,0.2,1.2-7.3,3.4-6.5c2,0.7-0.8,6.5,1.5,6.9c-0.2-1.3,0.3-2,1.5-2
		c-0.2,1,0.1,1.8,0.9,2.5c0.3-2,5.9-14.6,7.1-10.2c2-0.5,0.4-5.1,2.6-5.6c0.1,1,0.4,1.9,0.9,2.8c0.2-1.5,1.9-6.7,3-2.8
		c1.1-0.2,0.5-5.5,2.6-5.1c0.4,5.4,1.9,0.5,4.4,6c0.5-0.9,1.2-1.5,2.1-1.8c0,1.3,0.5,2.3,1.5,3.2c3.9-3.4,2.3-1.6,4.8-9
		c1.1,2.9,2.1,2.9,3,0c2.3,3.7,0.4,5.8,3.3,2.9c5.4,4.9-2.4,1.5,4.2,2.7c0.2,2.7,1.3,5,3.2,6.9c2.7-5.5,0.4,0,3.3,0.5
		c0.6-2,1.4-3.9,2.4-5.7c0.3,0.6,0.6,1.3,0.8,2c-0.2-2.3,0.5-4.3,1.9-6c0,1.1,0.4,2,1.2,2.7c0.7-0.7,1.4-1.3,2.2-1.9
		c4,4,0.3,2.3,4.1,2.8c0.3,2,1,3.9,2,5.7c1.5-0.3,2.6-1.1,3.3-2.5c1.1,0.1,1.2,4.1,2,4.5c2.8,1.4,1.9-0.8,4-0.3
		c0,1.9,0.6,3.4,1.9,4.7c0.2-0.8,0.6-7.3,2.1-3.7c0.5-2,1-4.1,1.4-6.2c0.3,1,0.7,2,1.2,2.9c1.2-3.7,0.1-6.5,2.5-1.3
		c0.3-1.4,0.8-2.6,1.6-3.8c2.8,5.1,8.1-3.9,12.9-8.4c4-3.9,8-7.8,12-11.7c10.2-10.1,20.2-20.3,29.7-31.1
		c10.5-12,22.6-25.3,26.3-41.1c2.8-12.2,0.7-25.6,3.5-37.9C1240.3,332.1,1257.8,324.1,1272.4,318.1
		C1274.1,317.1,1261.1,322.7,1272.4,318.1z M748.5,497.1c-41.9-26.9-86.6-51.6-133.5-74.6v161.6h291V559
		C844.5,542.1,789.4,522.5,748.5,497.1z"/>
	<path class="st14" d="M1402,325c0.2-0.8,2.7-2,2.3-2.9l0,0c-0.4-1.2-0.1-2.9,0.8-3.8l12.3-12.2c2.3-2.3,4.9-4.4,7.7-5.9
		c0.7-0.4,1.1-0.9,0.5-1.5c-0.4-0.3-0.9-0.5-1.5-0.5c-1.3-0.3-2.6-0.6-3.8-1c-0.9-0.3-1.2-0.6-1.4-1.2l53.9-7.2
		c2.4,0.1,4.7-2.1,6.8-2.7c3.3-1,7.1-1,10.4-1.3c2.4-0.3,4.8-0.3,7.2,0l48,3.9c1.5,0.5,3,0.8,4.5,1l57.4-1l85.3,17.2l56.9-3.3
		c3.2-0.2,6.3-0.9,9.3-2.2c0.6-0.3,1.3-0.5,1.9-0.6l58.9-12.1c4.1-1,8.3-1.2,12.5-0.6c2.5,0.5,5.1,0.5,7.6,0.2l32-4.8
		c2.5,0.1,5-0.5,7.2-1.5l41.2-11.3v174.8h-604c-1.6-6.9-0.3-13.4,6.1-19.2c24.3-14,49-26.3,74-36.6c5.2-3,9.2-7.1,11.8-12.3
		c0.3-1-0.1-2.2,0.1-3.2c0.2-1.4,1.3-3.2,0.9-4.5c-0.3-1.2-1.4-1.2-2.5-1.4c-12.4-0.5-25.2,0.2-38.4,2c-1,0.1-2,0.2-3,0.1
		c-1.8-0.2-4.2-0.5-4.4-1.7c-0.2-1.2,1.2-2.3,1.9-3c2.1-1.7,4.3-3.3,6.6-4.5c19.1-7.6,34.4-16.3,48.2-25.5
		c1.7-1.6,10.2-9.2,4.7-10.8C1415.6,325.1,1408.9,325.5,1402,325z M711,562.1c-10,0.2-37.3-8.5-30.7-21.6c1-3,6.1-2.6,8.6-3.1
		s7.3,0.8,7.7-2.8c0.1-1.3-0.6-3.2,0-4.4c-4.6-6.6-10.5-11.4-17.8-14.2c-16.3-1.3-31.5-4.7-45.2-11.2l-7.1-10.4
		c-2.1-1.2-4.1-2.6-5.9-4.2c-1.6-1.6-3.6-5.5-0.5-6.4l25-6.6c1.3-0.3,1.5-0.4,1.4-1.9c0-1.1-0.2-2.3-0.5-3.4
		c-0.7-2.3-2.2-4.2-4.2-5.5c-1.4-0.8-2.7-1.8-3.8-3.1c-5.6-7-10.1-13.9-12-20.5c-0.2-1.1,0-2.2,0.5-3.2c0.5-0.9,1.5-1.4,1.9-2.2
		c0.8-1.6-1.1-4.4-2-5.6c-1.1-1.6-2.3-3.2-3.6-4.6c-26-16-50.9-30.1-72.4-37.4c-5.8-1.5-12-0.9-17.9-2.3l-36.1-11
		c-4.8-1.6-21.2-4.8-32.2-4.8c-13.8,0.4-29.1-1.5-45.2-4.8c-7.5,0.2-14.8,1.6-22.2,2c-16.2-6.1-31.2-12.7-40.2-21.2
		c-5.3-5-10.4-6.9-17.6-7.5c-2.4-0.3-4.9-0.3-7.4-0.1c-2.6,0.4-4.8,1.7-7.3,2.4c-2.7,0.7-5.4-0.4-8.1-0.1c-17.1,7.3-34.1,12-51,11.9
		c-4.5,0.4-8.5,0.2-12.4-2c-0.4-0.2-0.9-0.5-1.3-0.8c-3.7-2-7.6-3.3-11.8-3.8c-10-1.8-19.7-1.8-29.3-0.1c0,0-6.1-1.3-9.4-2.2
		c-4-1.1-8.3-0.3-12.4,0.2c-4.1,0.5-8.3,1.4-12.3,0c-11.5-5.1-24.2-8.5-37.8-10.4c-3.6-1.5-5.6-4.6-8.4-7.1
		c-2.9-2.7-6.1-5.5-10.1-6.1c-27.6-13.5-56.1-18.9-85.4-16.6C23.9,292.9,12.4,284.6,0,279.9v154.4l710,154.4L711,562.1z"/>
	<path class="st15" d="M1156.9,483.9c0.3,1,0.7,1.9,1.3,2.8c0.8,0.3,1.6-1.3,2.2-1.8c0.6,2.2,1.5,4.2,2.9,6c0.3-1.3,0.3-2.9,1.4-3.9
		c1,0,1.6,1.7,1.9,2.4c0.6-0.5,1-1.2,1-2c0.3-1.2,0.8-2.4,1.4-3.5c1.3,0,1.6,0.7,2.3,1.8c0.7-2.4,0.7-4.7,1.8-6.9
		c0.9,0.3,1.1,1.9,1.5,2.6c1.1-0.9,1.7-3.3,2.3-4.6c1.1,0.7,1.6,2.1,1.1,3.4c0.2,1.6,0.7,3.1,1.3,4.6c0.9-0.5,0.9-2.9,1-3.7
		c1.6,2.5,0.9,6.3,2.6,8.8c0.2-0.9,0.3-2.5,1.4-2.7c1,2.9,1.3,5.9,2.5,8.7c1.3-0.6-0.5-4.1,1.3-4c0.4,1.6,0.5,6.3,2.3,7
		c0.4-0.6,1-2.1,1.9-2.1c0.5,1.5,1.2,3,1.8,4.4c1.7-0.6,1.2-3.2,2.9-3.6c0.7,0.8,1.1,1.8,1.3,2.9c-0.2,0.8,0.2,1.6,0.9,2.1
		c0.7-1.4,1.2-2.9,1.9-4.3c1.3,0.1,0.8,5.2,2.3,6.1c0.4-0.4,0.7-0.9,0.9-1.4c0.9,0.6,1.2,1.7,0.9,2.7c0.2,1.6,0.6,3.2,1.3,4.7
		c1.2,0,1.9-2.6,2.3-3.4c1.1,0.1,0.8,6.2,2,7.3c0.7-1.2,0.9-2.6,1.5-3.8c1.8-0.5,2.6,3,3.2,4.2c0.6-0.7,1-1.5,1.1-2.4
		c0.4-1.3,1.3-2.4,2.5-3.1c0.9,1,1.3,2.3,1.1,3.6c-0.3,0.9,0,2,0.9,2.4c0.3-0.8,0.6-2.3,1.4-2.8c0.7,1.7,0.3,4.2,1.4,5.6
		c0.6-0.1,0.8-0.6,1.4-0.5c0.2,0.8,0.4,6.3,1.8,6.1c0.8-1.1,1.7-2.1,2.8-2.8c0.6,1.3,1.1,2.7,1.5,4.1c0.1,0.2,1.2,2.3,1.3,0.5
		c0,1.6,1,1.5,2.4,1.9c-0.1,0,0.7-0.1,0.5-0.1c0-0.4,0.3-0.4,0.7-0.4c0.6,0.1,0.5,0.5,0.7,1c0.3,1,0.3,3.1,1.3,3.7
		c0.2-0.6,0.2-1.7,0.9-1.8c0.2,1,0.6,1.9,1.2,2.7c0.1-0.1,0.6-0.2,0.7-0.4c1,1.3,1.4,3.6,2.1,5.1c0.9-0.4,0.8-3.3,2.2-2.9
		c1.2,0.3,0.6,4.4,2.2,3.8c0.4-0.2,1.3-3.3,2.4-2.2c0.6,0.6,0.1,6.7,1.8,6c0-0.3,0.1-0.6,0.2-0.9c1-0.2,1.3,2.5,1.7,3.1s0.3,1,1,1
		s0.9-0.5,1.2-0.5c0.9,0.1,0.8,0.6,1.1,1.4c0.2,0.4,0.3,2.1,1.1,1.9c0.4-0.1,1.6-2.3,1.8-2.7c0.9,0.2,0.8,2.7,2.1,1.4
		c0.8-0.8,2.3-6.1,3.8-5.1c0.2,0.9-0.2,4.8,1.3,5c0.5-1.2,2.1-2,2.9-0.9c0.5,0.6,0.5,5.6,2.2,5.1c0.2-0.5,0-0.9,0.2-1.3
		c1.2-0.1,1.2,3,2.3,3.6c0.6-0.3,0.4-0.8,0.5-1.4c0.3-0.8,0.6-1.5,1-2.2c0.9,0.3,0.4,2,1.1,2.5c0.9,0.7,1.8-1,2.3-1.7
		c0.6-0.9,1.4-2.1,2.2-0.8c0.7,1,0.4,2.5,1.6,3.3c0.7-1.2,1.6-4.5,3-5.1c0.8,0.7,0.3,2.2,1,3.2c1-0.1,1.8-2.7,2.2-3.4
		s2.1-3.3,3.3-3.2c0.3,1.6-0.1,3.7,1,5.1c0.7,0.2,0.9-0.7,1.3-0.9c0.8,1.3,0.7,3.2,1,4.6c0.4,1.9,0.9,3.8,1.6,5.7
		c0.7-0.5,0.5-2.2,1.1-2.4c0.6,1.5,1,3.2,1.5,4.7c0.4,1.3,0.7,3.2,1.8,4.1c0.4-0.7,1-3.9,1.8-3.7c0.6,1.1,1,6.1,2.5,6.1
		c0.6-0.7,0.4-2.4,1.4-2.8c1.2-0.5,1,1.4,1.2,2.1c0.2,1,0.4,1.9,1.4,1.3c0.7-0.4,0.7-1.8,1.5-2.1c0.3,1.5,0.4,3,0.8,4.4"/>
	<path class="st16" d="M0,349c0.4-2.5,4.7-19.5,8.5-11.1c1.5-5.1,2.6-10.2,3.5-15.4c0.7,2.5,1.7,4.8,2.9,7.1
		c3.1-10.1,0.2-15.1,6.4-3.2c0.7-3.4,2-6.6,4.1-9.4c0.7,5,2,9.9,3.9,14.6c10.3-1.3,14.1,6.7,23,17.9c2.9-11.7,4.4-11.4,8.2-3.7
		c12.5-10,7.7-11,16-26.4c3.5,10.3,6.6,8.6,9.4-4.9c2.3,6.5,4.3,13.1,6.1,19.8c1.9-2.8,2.7-5.9,2.5-9.3
		c14.7,23.5,4.7,10.3,16.1,36.9c0.4-3.6,1.5-7,3.3-10.1c5.1,23.2,7,5.8,15.1,22.9c2.2-3.2,4.7-6.2,7.3-9c7.3,9,1,20.2,10.2,1.7
		c4.9,0.3,11,24.4,13.6,30.2c3-2.1,4.9-4.9,5.7-8.5c1.9,6,3.6,12,5.1,18.1c6.1-11.9,5.8-10.6,11.6,0.9c1.7-5.3,4.7-9.9,8.8-13.7
		c10.6,12.6-3.6,15.8,8.6,8.1c5.2,12.9,5.6,29.3,18.3,21c6.3,11.3,14.5,27.6,21.8,14.4c0.6,3.1,10.3,24.2,11.2,26.1
		c0.9-3.1,2.8-5.5,5.5-7.2c1,3.7,2.8,6.8,5.5,9.4c0.8-3.1,6.9-11.1,10-11.6l7.8,131c0,0-186.7,0.3-280,0.5V349z M1306.9,431
		l-16.9,7.6l-47.8,8.2l-14.1-2.4l-72.6,34.1c-7.2,3.1-13.3,7.1-17,13c-1.8,0.7-3.6,1.9-5.4,2.7c-27.2,17.9-58.6,31.4-93.5,41.2
		c-4,2.2-8.3,3.9-12.8,5c-3.4,1-6.9,1.7-10.4,2.3c-5.2,0.8-24.5,5.9-33.3,13.7c-11.4,10.1-28.5,30.6-28.5,30.6l965.4-2.9V273.8
		c-17.8,4-36.2,14.4-55,28.3c-3.6,2.7-5.4,6.9-9,9.7l-16.9,11.2c-8.9,6.8-22.5,10.2-37.4,12.7c-18.1,6.8-34.5,21.2-50.1,39
		c-2.1,0.4-3.6-1.5-5.5,0.2c-1.8,1.5-2.8,3.6-4.3,5.3c-15.7,0.9-30.2-4.7-43.9-14.7c-7.8,0.1-21.5,0.7-28.6,3.8
		c-2.1,1.3-2.9,3.5-5.4,1.2l-17.3-16c-4.6-1.9-9.7-0.9-14-3.9c-10.5-1.8-20.3-1.5-28.7,2.7c-7.5,5.3-15.2,9.2-23.2,10.8
		c-21.3-1-41.4,9.1-60.9,24c-2.7-0.4-5.6-2.1-8.4-1.4c-11.1,3.7-21.4,10.8-31.2,19.5l-32.8,25.8l-3,2.7l-49.2-2.8
		c-2,0-3.9-0.8-5.3-2.2c-0.9-0.9-1.5-1.8-2.7-2.1C1360.8,421.4,1334.1,422.4,1306.9,431z"/>
	<path class="st17" d="M1920,630H0V489.6c0,0,8.3,9.5,8.4,9.5c5-1.8,4.7-6.3,6.2-11.8c8,3.7,8.7,22.9,18.6,27.1
		c1.7-1.4,2.8-3.2,3.4-5.3c2.3,2.1,8.3,13.8,8.5,14.4c3.7-0.6,6.5-1.2,7-4.5c1-0.3,7.2,27.6,8.5,28.9c-0.1-0.1,3.2-0.8,5.9,2
		c2.2-2.4,5.4-3.8,7.8-4.5c1.3,8.2,2.1,9.4,2.5,3.5c1.9,8.7,11.4,26.8,18,27.3c2.1-3,4-5.4,7.7-7.5c0.5,4.9,1.5,9.8,3,14.5
		c2.4,1.6,3.1,0.1,2.3-4.3c7.1,2,3.6-4.3,9.2,2.4c2.3-3,3.7-6.4,4.1-10.2c1.6,1.8,2.7,3.8,3.1,6.2c7.8-7.4,13.4-23.6,15.5-35.1
		c13.5-1.4-1.3,15.8,10.8,5.5c2.3,2.5,3.9,5.4,5,8.6c6.6-4.5,6-4.1,12.1-5.6c0.9,2,1.7,4,2.5,6.1c1.6-0.9,10.5-16.4,12.7-10.8
		c1.9-2.5,2.7-5.3,2.2-8.4c-1.2,0.9,12.8,10.7,12.8,10.7c5.6,1.7,12.2-18.5,13.8-20.2c2.1,0.3,3.5,1.6,4,3.7c1.8-1.8,3-3.9,3.7-6.3
		c1.8,1.2,3,2.8,3.7,4.9c7.4-15.3,14.1-12,22.3-27.1c8.4,5.5,9.1-5.7,12.4-14.1c8.2,5.1-1.3,3.1,5.8-5.5c2.7,2.6,4.7,5.7,5.9,9.2
		c3.8-7.7,3.8-8.5,7.9-0.6c1-4.1,2.2-8.2,3.4-12.2c0.5,2.4,1.8,4.3,3.8,5.7c1.2-2.8,6.1-20.1,9-20.2c6.5,12.5,1.7,4.6,6.8-1.3
		c1.8,1.9,3.4,3.9,4.9,6c5.6-11.2,6.8-0.1,10.1-15.5c1.2,2.1,1.9,4.4,2.2,6.8c8.2-17.9,0.8-8.8,10.9-24.8c-0.2,2.3,0.4,4.3,1.7,6.2
		c1.2-4.5,2.5-9,4.1-13.4c1.9,9.1,4,10.2,6.3,3.3c5.5,10.5,2.4,11,10.8,17.7c2.4-5.3,3.6-5.3,5.5,2.5c5.9-8.1,8.6-12.8,15.4-11.9
		c1.3-3.2,2.1-6.4,2.6-9.8c1.4,1.9,2.3,4,2.8,6.3c4.1-8.3,2-4.4,4.2,2.1c0.8-1.5,1.4-3.1,1.9-4.8c3.5,12.1,3.6,5.3,5.8,16.7
		c2.1-2.2,3.1-4.8,3.1-7.9c2.7-0.5,8.4-6.8,10-7c1.2,2.3,3,3.7,5.5,4.1c1.8-2.9,2.9-6.1,3.3-9.5c6.2-1.1,0.2,1.9,6.8-4.7
		c5.3,0,2.1,5.7,5.7-1.4c2.3,3,3.3,6.3,3.1,10.1c0.3-1.2,0.7-2.3,1.3-3.3c1.6,3,3,6.2,4,9.5c5.1-0.8,0.7-9.9,5.6-0.8
		c6-1.2,8-12.4,12.5-16.2c5.3,4.4,1,1.6,5.5-4.9c1.5,5,3.2,4.9,5-0.1c3.7,10.9,1.9,9.9,8,14.9c5.8-0.5-0.3-2.8,6.1-2.4
		c4.2-8.3,6.6-1.9,7.4-10.2c3.3-0.9,2.8,8,4.4,8.4c1.7-6.7,4.7,2.4,5,4.7c0.8-1.4,1.3-3,1.5-4.6c3.9,1.1,3.1,17.7,5.4,3.9
		c1.2,0.3,11.2,23.9,11,22.6c2.7-0.6,1.4-8.7,4-0.8c3.9-0.9-0.7-10.4,2.6-11.7c3.4-1.3,2.5,11.2,5.7,10.8c0,0.1,5.1-6.3,5.8-2.3
		c1.7-3.2,2.8-6.5,3.1-10.1c3,3.3,4.6,7.1,4.7,11.6c3.5,0.6,4.1-11.9,5.5,1.5c3.2-0.2,2-9.3,4.3-10.1c1.1,3.4,4.7,10.4,6.3,12
		c0.6-0.9,4.7-12.2,5-12.3c1.2,0.4,1.8,1.2,2,2.4c-0.3-2.2,0-4.2,0.9-6.2c6.1,3.3,8.3,25.8,9.6,31.2c22.7-7.6,41.2,8.1,52,26.5
		c5-1.8,4.7-6.3,6.2-11.8c4.7,2.2,3.4,17.9,6.8,21.6c0,0,11.1,5.2,11.8,5.5c1.7-1.4,2.8-3.2,3.4-5.3c2.4,2.2,8.3,13.6,8.5,14.1
		c3.7-0.6,6.5-1.2,7-4.5c1-0.3,7.2,27.6,8.5,28.9c-0.1-0.1,3.2-0.8,5.9,2c2.2-2.4,5.4-3.8,7.8-4.5c1,1.2,4.9,14.6,5,16.9
		c3.5,0.2,5.3,2.1,5.6,5.7c2.5-0.8,3.1-9.7,3.4-11.2c1.2,2.1,1.9,4.4,2.2,6.8c8-17.9,0.8-8.9,10.8-24.8c-0.2,2.3,0.4,4.3,1.7,6.2
		c1.2-4.5,2.5-9,4.1-13.4c1.9,9.1,4,10.2,6.3,3.3c5.5,10.5,2.4,11,10.8,17.7c2.4-5.2,3.7-5.4,5.5,2.5c5.9-8.1,8.6-12.8,15.4-11.9
		c1.3-3.1,2.2-6.4,2.7-9.8c1.4,1.9,2.4,4,2.8,6.3c4.1-8.3,2-4.4,4.2,2.1c0.8-1.5,1.4-3.1,1.9-4.8c3.4,11.3,3.7,6.1,5.8,16.8
		c2.1-2.2,3.2-4.8,3.2-7.9c2.7-0.5,8.4-6.8,10-7c1.2,2.3,3,3.7,5.5,4.1c1.8-2.9,2.9-6.1,3.3-9.5c6.2-1.1,0.2,1.9,6.8-4.7
		c5.3,0,2.1,5.7,5.7-1.4c2.4,2.9,3.4,6.3,3.2,10.1c0.3-1.1,0.8-2.2,1.3-3.3c1.6,3,3,6.2,4,9.5c5.1-0.8,0.7-9.9,5.6-0.8
		c6-1.2,8-12.4,12.5-16.2c5.3,4.4,1,1.6,5.5-4.9c1.5,5,3.2,4.9,5-0.1c3.7,10.9,1.9,9.9,8,14.9c5.8-0.5-0.3-2.8,6.1-2.4
		c4.3-9.4,6.4-0.9,7.2-10.2c3.3-0.9,2.8,8,4.4,8.4c1.7-6.7,4.7,2.4,5,4.7c0.8-1.4,1.3-3,1.5-4.6c3.9,1.1,3.2,17.7,5.5,3.9
		c1.1,0.3,11.2,23.8,11,22.5c2.7-0.6,1.4-8.7,4-0.8c3.9-0.9-0.7-10.4,2.6-11.7c3.4-1.3,2.5,11.2,5.7,10.8c0.8-2,1.1-0.8,4.3-5.3
		c3.4,0.7,3.6,1.7,4.6-7.1c3,3.3,4.6,7.1,4.7,11.6c3.5,0.6,4.1-11.9,5.5,1.5c3.2-0.2,2-9.3,4.3-10.1c0.9,3,0.2,5.7,0.1,6.2
		c0.7-3.7,8.2,8.1,6,5.9c0.6-0.9,4.7-12.2,5-12.3c1.2,0.4,1.8,1.2,2,2.4c-0.3-2.2,0-4.2,0.9-6.2c5.5,2.9,6.4,17.1,6.3,22.6
		c0.2-1.2,0.8-2,2-2.4c-6.5-3.2,12.4,17.3,10.9,6.2c-0.1-0.5-0.8-3.2,0.1-6.2c2.3,0.8,1.1,9.9,4.3,10.1c1.4-13.4,2-0.9,5.5-1.5
		c0.1-4.5,1.7-8.3,4.7-11.6c1,8.8,1.2,7.8,4.6,7.1c3.2,4.5,3.5,3.3,4.3,5.3c3.2,0.4,2.3-12.1,5.7-10.8c3.3,1.3-1.3,10.8,2.6,11.7
		c2.6-7.9,1.3,0.2,4,0.8c-0.2,1.3,9.9-22.2,11-22.5c2.3,13.8,1.6-2.8,5.5-3.9c0.2,1.6,0.7,3.2,1.5,4.6c0.3-2.3,3.3-11.4,5-4.7
		c1.6-0.4,1.1-9.3,4.4-8.4c0.8,9.3,2.9,0.8,7.2,10.2c6.4-0.4,0.3,1.9,6.1,2.4c6.2-5,4.3-3.9,8.1-14.9c1.8,5,3.5,5.1,5,0.1
		c4.5,6.5,0.2,9.3,5.5,4.9c2.9,2.5,8.1,15.3,12.5,16.2c4.9-9.1,0.5,0,5.6,0.8c1-3.3,2.4-6.5,4-9.5c0.5,1.1,1,2.2,1.3,3.3
		c-0.2-3.8,0.8-7.2,3.2-10.1c3.6,7.1,0.4,1.4,5.7,1.4c6.6,6.6,0.6,3.6,6.8,4.7c0.4,3.4,1.5,6.6,3.3,9.5c2.5-0.4,4.3-1.8,5.5-4.1
		c2,0.3,6.9,6.4,10,7c0,3.1,1.1,5.7,3.2,7.9c2.2-11.2,2.2-4.8,5.8-16.6c0.5,1.7,1.1,3.3,1.9,4.8c1.8-6.9,0.4-9.9,4.3-2.1
		c0.4-2.3,1.4-4.4,2.8-6.3c0.5,3.4,1.4,6.7,2.7,9.8c6.6-0.8,9.8,4.3,15.4,11.9c1.8-7.9,3.1-7.7,5.5-2.5c8.4-6.7,5.3-7.2,10.8-17.7
		c2.2,6.9,4.3,5.8,6.2-3.3c1.6,4.4,2.9,8.9,4.1,13.4c1.3-1.9,1.9-3.9,1.7-6.2c10,15.9,2.8,6.9,10.8,24.8c0.3-2.4,1-4.7,2.2-6.8
		c0.1,4.1,1.2,7.9,3.3,11.4c24.1-24.9,53.2-40.4,84.6-54.1c6.5-2.8,13.9-7.2,20.8-8.8c7.6-1.8,16.1,1.3,23-1
		c29.9-10.1,43.7-37.5,58.4-59.8c15.4-23.3,17.8-26,47.6-26.5c16.8-0.2,44.6-4.5,61.8-1.7c14.9,2.4,30.6,13.2,42.8,21.6
		c19.1,13.2,39.2,20.6,54.8,27.5c1.4-4.5,6.4-29.5,10.3-31.5c-0.1,4,0.6,7.8,2.1,11.5c5.1-6.2,1.8,2.9,6.4,4.5
		c2.8-4.6,16.6-19.6,19.5-16.1c4.2-5.3,5.9-12.3,8.5-18.9c1.2,0.8,2.1,1.9,2.7,3.2c2.5-7.9-0.9-7.8,5.3-2.3
		c3.1-2.5,27.6-4.5,34.7-1.9c2.5-13.9,5.9-29.8,13.1-42.2c1.2,2.7,1.6,5.5,1.2,8.4c0.2-1.7,1.1-2.7,2.7-3.2
		c0.4,0.2,5.9,15.3,6.9,16.7c3.2-3,5.3-9.5,8.2-14.9c3.9,1.2,0.9,13.3,5.9,13.6c2.1-18.4,2.6-1.3,7.4-2.1c0.1-6,2.2-11.3,6.3-15.7
		c1.5,11.8,1.5,10.6,6.3,9.6c0.4,2.7,1.5,5.1,3.2,7.2c1.1-4.4,1.5-2.7,2.6,0c4.3,0.4,3-16.5,7.6-14.7c4.8,1.7-1.9,14.7,3.6,15.8
		c-0.4-3,0.7-4.6,3.4-4.7c-0.3,2.2,0.4,4.1,2,5.7c0-0.4,6.1-13.6,7.9-15.5c4.9,6.5,3.2-28.6,8.4-7.7c4.4-1.5,1-11.2,5.9-12.7
		c0.2,2.2,0.9,4.3,2,6.3c0.4-3.2,4.5-15.6,6.8-6.4c2.3-0.4,1.4-12.6,6-11.5c1.3,12.3,4,1.4,9.9,13.7c1.2-2,2.8-3.3,4.9-4.1
		c-0.1,2.9,1,5.3,3.3,7.3c8.6-7.4,5.4-4.2,10.9-20.4c2.5,6.8,4.8,6.8,6.9,0.1c6.4,9,0.1,12.2,7.5,6.6c1.4,3.4,2.8,6.7,4.2,10.1
		c1.1-2.3,2.9-3.6,5.4-3.8c1.4,5,4.9,22.4,10,10.3c1.5,2.3,3.2,4.5,5,6.5c1.4-4.5,3.2-8.8,5.4-12.9c0.7,1.4,1.3,2.9,1.8,4.4
		c-0.4-5.1,1.1-9.7,4.3-13.7c0.1,2.4,1,4.4,2.7,6.1c1.4-1.7,3.1-3.1,5-4.2c0.8,3.8,2.3,7.2,4.7,10.2c1.5-1.3,3-2.6,4.5-3.8
		c0.6,4.6,2.1,9,4.4,13c3.4-0.5,5.9-2.4,7.4-5.6c9.3,1.5-0.3,11.5,13,9.5L1920,630z"/>
	<path id="lenin" class="st13" d="M1387.8,289.3c-0.2-4.1-0.8-8.2-1.8-12.1c-0.9-3.6-2-7.2-2.2-11c-0.1-1.6-0.4-3.2-0.9-4.7
		c-0.6-1.6-0.7-3.2-0.5-4.9c0.1-1.3,0.3-2.6,0.3-4c0-2.5-0.2-5.1-0.1-7.6c0.2-4.1,0.7-8.2,0.9-12.3c0.2-2.7,0-5.4-0.1-8.1
		c-0.1-1.4-0.5-3.9-0.6-5.3l1.4-0.5v-2.4c-0.1-3.6-3.8-13.6-2.4-31.2c0.3-2.9,2.2-18.5,1-28.6c-1.3-6.1-3.7-11.1-7.3-14.7
		c-1.7-0.6-2.2-4-3.1-4.5c-0.4-0.2-0.6-0.5-0.6-0.7c0-0.3,1.1-1.6,2.2-3.6c0.7-1.3,0.3-4.7,0.3-4.7l-0.4-0.2c-0.7-3.7-2.9-8.4-7-9.7
		c-5.6-1.9-10.3,0.9-11.6,2.4c-1.4,1.5-2.1,3.4-2.5,4.8c-0.3,1.4,0.1,1.8-0.1,2.4c-0.4,0.8-2.2,1.6-2.6,2.4c-0.3,0.8,0.5,1.2,1,1.6
		c0.5,0.3-0.9,0.6-0.9,1.5c0,0.3,1,1.4,1,1.4s-0.5,0.1-0.5,0.4c0,0.4,0.3,0.5,0.3,0.8c0,0.5-0.9,0.8-1.1,1.3
		c-0.5,1.2-0.1,2.6,1.1,2.6c1.4,0,4,0,4.9,0.5c1.1,0.5,1.3,2,1.3,2l-6.5,7.9l-3,0.6L1331,144c-1.2-0.7-15.2-9.7-15.8-9.7
		s-1.2,0.7-1.2,0.7l-2.8-2.3c0,0-0.2-1.9-0.3-2.1c-0.1-0.3-2.3-4.2-2.3-4.8s-0.6-0.9-0.6-1.8s0.4-1.9-0.5-1.9s-1.8,1.5-1.8,2.7
		s1.1,2,0.5,2.7c-0.6,0.6-3.4-0.4-5.4-2.1c-0.1-0.1-1.5-0.8-2.8-1.3c-1.1-0.5-2.2-0.9-2.6-0.5c-0.4,0.5,0,0.8,0,0.8
		s-1.2-0.8-1.7-0.3c-0.5,0.6,0.4,1.5,0.4,1.5s-0.6-0.1-0.9,0.3c-0.3,0.5,0,0.9,0,0.9l2.3,1.8c0,0-0.4-0.1-0.7,0.2
		c-0.2,0.3-0.2,0.7,0.2,1.2c4.9,4.9,8,5.5,8.7,5.8c0.8,0.3,1.2,0.3,1.8,0.6c1.4,0.6,3.8,3.3,3.8,3.3s-1.3,3.3-1.1,5
		c0,0,15.6,12.3,17.9,13.9s14.9,7.3,14.9,7.3s-6.1,13.5-7.7,21.5l-5.4,23.7l11.7,2.9l-0.5,3.6l2.1,0.7l-3.7,18.3
		c-0.3,2.4-0.5,4.8-0.7,7.2c-0.1,1.8,0.1,3.6-0.1,5.5s-0.4,3.8-0.7,5.7c-0.6,3.1-0.7,6.2-0.5,9.3c0.3,1.6,0.2,3.3-0.3,4.9
		c-0.6,1.8-0.9,3.8-0.8,5.7c0.1,3.1-0.3,6.3-1.1,9.3c-0.2,0.9-0.3,1.9-0.2,2.8c0.1,2,0.4,4.1,0.3,6.1c-0.1,2.8-0.5,5.6-0.7,8.4
		c-0.1,2.2-0.8,6.3,0.2,6.9c0,0-0.3,1.4-1.3,1.2c-0.4-0.1-0.8-0.1-1.2,0c-1.7,0.6-3.5,1.2-4.7,2.9c-0.3,0.4-0.6,0.7-1,0.9
		c-1.9,0.8-3,2.1-2.9,4.3c0.1,1.6,0.2,3,1.5,3.9l8.6,3.8c3.3,1.8,6.7,2.6,10.4,1c1-0.5,1.6-1.7,1.3-2.8c-0.3-0.9-0.7-1.8-0.9-2.7
		c-0.2-0.5-0.2-1.1-0.1-1.7c0.4-1.1,0.3-2.4-0.4-3.4c-0.9-1.3-1.2-3.9-1.2-5.4l1-0.3c1-0.3,2.4-1.3,2.5-2.6c0.1-1.7,0.5-3.5,0.6-5.2
		c0.2-3.6,1.7-6.9,2.9-10.2c0.7-2,1.5-3.9,1.4-6.1c0-0.9,0.1-1.8,0.4-2.6c1.1-3.6,1.8-7.3,1.9-11c0-0.9,0.2-1.7,0.5-2.6
		c0.6-1.5,1.4-3,2-4.5c2-7.5,4.9-14.3,8.5-20.4c0.9,1.5,1.5,3.2,1.8,5c0.1,0.8,0.1,1.5,0.1,2.3c-0.2,3.5,0.7,6.9,1.5,10.3
		c0.7,3,1.5,6.2,2.3,9.1s1.6,5.8,2.2,8.7c0.3,1.9,0.9,3.8,1.7,5.6c0.9,1.7,1.7,5.5,1.7,5.5l3.3,19.2c0,0,1.5,1.1,1.4,1.6
		c-0.2,0.8-0.5,1.5-0.8,2.2c-1.2,1.8-0.9,4.2,0.7,5.7c0.4,0.4,0.7,1,0.8,1.6c0,0.7,0,1.5-0.2,2.2c-0.3,2.2,0.1,3.6,2.7,3.8
		c1.9,0,3.9,0,5.8-0.2c0.6,0,1.2-0.2,1.7-0.5c0.7-0.4,1.1-1.2,0.9-2c-0.3-1.8-0.5-3.6-0.5-5.5c0-1.3-0.6-2.6-1.6-3.6
		c-0.4-0.6-0.7-1.2-0.9-1.8c-0.3-0.9-0.5-1.9-0.7-2.8c-0.2-0.6-0.3-1.1-0.5-1.7c0.8-0.3,2.1-0.7,2.1-1.5L1387.8,289.3z"/>
</g>
<g id="Флаг">
	<path class="st18" d="M1193.6,253.5c-4.4-11.4-8.4-15.4-17-19.1l-7.9,9c-0.8-0.3-0.8-0.3-1.4-0.4c0.8,0.3,1,0.6,0.6,0.8
		c-3.9,1.9-4.1,2.7,0.7,3.5c9.4,1.4,13.4,2.8,17.7,6.5c4.2,5.5,2.7,9.3-5,14.6C1188.6,266.4,1191.3,263,1193.6,253.5z"/>
	<path class="st19" d="M1169.1,242.9l6.5-7.4c18,2.6,21.5,11.5,16.3,23.6C1191.5,250.1,1183.9,245.3,1169.1,242.9z"/>
	<path class="st20" d="M1172.8,238.7l3.8-4.3c14.7,2.7,19.4,7.4,17.2,18.8C1193.5,244.1,1187.6,241.1,1172.8,238.7z"/>
	<path class="st18" d="M1156,227.5c-0.2,0.8-10.9,14.6-10.9,14.6c14.2-2.6,17.5-0.7,24.4,1.8l10.4-13.9
		C1172.2,226.9,1156.2,226.7,1156,227.5z"/>
	<path class="st19" d="M1152.4,232.3l-3.6,5c8.3-1.9,15.4-1.6,24,2.3l4.4-5.9C1168.3,229.9,1162.5,230.1,1152.4,232.3z"/>
	<path class="st20" d="M1155.9,227.4l-3.7,5.1c8.3-2,15.6-1.7,24.2,2.2l3.5-4.8C1171.1,226.1,1166,225.1,1155.9,227.4z"/>
</g>
<path id="Минин_и_Пожарский" class="st21" d="M1139.6,336.8c1.3-1.1,2.1-1.5,3.8-1.7c-2.4-1.5-3.6-2.4-4.7-4.5
	c-0.2-0.7,0-0.8,0.6-0.8c1.9,0.3,3,0.5,5,0.6c-0.1-2.2-0.1-3.5-0.4-5.9c-0.9-1-1.2-1.8-1.6-3.6c0.3-5.7,0.7-8.6,2.2-13.3
	c-1.1-1.1-1.9-1.5-3.5-2c0.8-10.5,2-15.9,5.9-24.7c-2.2-2.1-2.6-5.9-3.2-11.6l0,0c-0.1-0.6-0.1-1.3-0.2-2
	c-3.6-6.5-5.9-10.1-10.1-16.4c0.2-4.7,0.2-7.3,0.3-12.1c-1.6-1.9-2.3-3.3-3.4-6c0-0.5,0.1-0.7,0.7-0.6l1.9,2.1l-1.3-3.2
	c-0.4-0.7,0.4-1.1,0.8-0.7c0,0,0.2,0.3,0.4,0.6l0,0l0,0c0.4,0.7,1.1,1.9,1.6,2.4l-0.7-3.5c0.2-0.6,0.4-0.7,1.1-0.2l1.3,3.6l1.1-3
	c0.5-0.8,0.8-0.7,1.3,0l-0.4,3.5c0.1,0.9,0.1,0.9,0.7,1.1l0,0l0,0c0.1,0,0.2,0.1,0.3,0.1l1.9-0.6c0.7-0.1,1.2,0.2,1,0.8
	c-1.5,1.2-2.4,2.3-3.6,3.9l-0.1,0.2c0,0.1,0.1,0.3,0.1,0.4c0.9,3.8,1.4,6.1,1.3,10.7c4.8,3.4,7.4,5.5,11.9,9.2
	c0.7-0.5,1-1.1,1.3-2.2c-0.7-1.4-0.8-2.3,0.7-4.9c1.9-4.9,5-5.6,8.8-2.9c2.9,1,3.5,2.2,2.1,5c0,0.8,0,1.2,0,1.8l-1.3,0.9v1.5
	c-0.3,0.2-0.4,0.3-0.8,0.2c0,2.5-0.2,3.7-2.1,4.2c2.2,2.2,3.5,3.5,5.5,6.4c1.2,2.9,1.7,4.5,2.4,7.7l0,0c-0.5,1-0.7,1.5-1.6,1.9
	c2.9,0.6,4.5,1,7.3,2.4c0.5-0.9,1.1-1.3,2-1.8c-1.1-2.9-0.3-5.6,1.8-11c2.1-1.6,3.1-1.6,4.6,0l2.4,2.3c-0.4,1.4-0.8,2-1.7,2.8h-0.6
	v2.9l2.4,0.6v2.9l-1.1,0.5c0,0.1,0,0.1,0,0.2v0.1l0,0c0.1,1.7,0.2,2.7-1.1,3.4c0.6,1.1,1,1.7,1.8,2.7c2.6-1,4.1-1.5,6.7-1.8
	c0.9-2.5,2.1-3.5,4.7-5l-0.2-2.8c-3.7-0.4-4.5-1.7-3.2-6.2c-0.6-0.8-0.1-1.4,0.6-2c-0.5-0.7,0-1.5,0.7-2.7v-0.1
	c-1.4-3.3,1.9-4,7.7-1.6c5.8,2.4,3.3,8.9,2.8,8.9c6.6,8.1,7.8,13.7,6.4,25.4c0.1,0.9,0.2,1.4,0.8,2.3c11.5,1.6,15.4,5.2,17,17
	c-1,10.2-4.3,13.9-13.7,17.8l-49.4,0.3c0.5-4.3,0.7-6.6,0.2-8.9c-4.4,1.9-6.7,3.3-10.6,6.2v2.8L1139.6,336.8z M1152.5,311.1
	c0.6-0.6,0.8-1.2,1-2.5c2.7,0.2,4.2-0.1,6.5-1.6c1.5,1.4,1.5,5.2,1.5,11.9v0.4c-3.9,4.4-6.2,6.7-11,9.3c0.6-1.5,0.8-2.3,0.7-3.7
	C1153.1,319.5,1153.5,316.5,1152.5,311.1z M1172.2,322.8c0.2-0.1,1.4,0,2,0l0.2,9.9c-3.2-3-3.6-5.2-2.1-8.4L1172.2,322.8
	L1172.2,322.8z M1177,286.9c-1.4-0.1-4.3-0.3-4.6-0.3c-2.2,8-2.3,13.1-1.7,22.7c1.9-1,2.9-1.3,4.9-1.5c0-0.3,0-0.5,0-0.8l0,0
	c0.1-2.3,0.2-3.8,1.4-4.3L1177,286.9L1177,286.9z M1182.4,294.8c0.2,0.3,1.4,0.4,2,0c0.4,3.9,0.7,5.9,1.8,9.2l-3.8,1.3
	C1181.9,301.3,1182,299,1182.4,294.8z"/>
</svg>
