<svg xmlns="http://www.w3.org/2000/svg" xmlns:xlink="http://www.w3.org/1999/xlink" viewBox="0 0 870 190"><defs><style>.cls-1{fill:none;}.cls-2{fill:url(#gradient_1);}.cls-3,.cls-4{opacity:0.35;}.cls-4{fill:#118c9b;}</style><linearGradient id="gradient_1" x1="528.16" y1="55.14" x2="795.17" y2="279.18" gradientUnits="userSpaceOnUse"><stop offset="0" stop-color="#40c0b6"/><stop offset="1" stop-color="#0f8999"/></linearGradient></defs><rect class="cls-1" width="870" height="190"/><path class="cls-2" d="M415,190C510.7,123.79,525.2,33.92,686.56,33.92c73.36,0,155,29,183.44,97.08v59Z"/><g class="cls-3"><path class="cls-4" d="M481,0c-20.65,8.77-52.92,27.63-69.76,41.56l-77.68-4.08L393,56.76a526.28,526.28,0,0,0-43,42.9c-33.67-7.42-75.07-17.43-75.07-17.43l57.27,36.85c-6.39,7.36-49.74,46.26-76.26,54.77L194.81,134l37.69,49.56A95.34,95.34,0,0,1,202.84,190H0V0Z"/></g></svg>