<svg xmlns="http://www.w3.org/2000/svg" viewBox="0 0 30 30">
	<style>
		.orange{fill:#FF6413;}
		.white{fill:#FFFFFF;}
	</style>
	<rect fill="none" width="30" height="30"/>
	<g>
		<path class="white" opacity="0.5" d="M30,10.5C30,5.8,26.2,2,21.5,2c-2.6,0-4.9,1.2-6.5,3l0,0c-1.6-1.8-3.9-3-6.5-3C3.8,2,0,5.8,0,10.5
			c0,2.6,0.9,4.4,3,6.5l12,12l12-12C29.1,14.9,30,13.1,30,10.5z"/>
		<path class="orange" opacity="0.15" d="M30,10.5C30,5.8,26.2,2,21.5,2c-2.6,0-4.9,1.2-6.5,3l0,0c-1.6-1.8-3.9-3-6.5-3C3.8,2,0,5.8,0,10.5
			c0,2.6,0.9,4.4,3,6.5l12,12l12-12C29.1,14.9,30,13.1,30,10.5z"/>
	</g>
	<path class="orange" d="M21.5,3.5c3.9,0,7,3.1,7,7c0,2.1-0.7,3.6-2.6,5.4L15,26.9L4.1,15.9c-1.9-1.9-2.6-3.3-2.6-5.4c0-3.9,3.1-7,7-7
		c2.1,0,4,0.9,5.4,2.5L15,7.3L16.1,6C17.5,4.4,19.4,3.5,21.5,3.5 M21.5,2c-2.6,0-4.9,1.2-6.5,3c-1.6-1.8-3.9-3-6.5-3
		C3.8,2,0,5.8,0,10.5c0,2.6,0.9,4.4,3,6.5l12,12l12-12c2.1-2.1,3-3.9,3-6.5C30,5.8,26.2,2,21.5,2L21.5,2z"/>
</svg>