<svg xmlns="http://www.w3.org/2000/svg" viewBox="0 0 30 30">
	<style>
		.color{fill:#FF6413;}
		.white{fill:#FFFFFF;}
	</style>
	<rect fill="none" width="30" height="30"/>
	<path class="white" opacity="0.5" d="M30,10.5C30,5.8,26.2,2,21.5,2c-2.6,0-4.9,1.2-6.5,3l0,0c-1.6-1.8-3.9-3-6.5-3C3.8,2,0,5.8,0,10.5
		c0,2.6,0.9,4.4,3,6.5l12,12l12-12C29.1,14.9,30,13.1,30,10.5z"/>
	<path class="color" d="M21.5,3c4.1,0,7.5,3.4,7.5,7.5c0,2.2-0.7,3.8-2.7,5.8L15,27.6L3.7,16.3c-2-2-2.7-3.5-2.7-5.8C1,6.4,4.4,3,8.5,3
		c2.2,0,4.2,1,5.8,2.7L15,6.5l0.7-0.8C17.3,4,19.3,3,21.5,3 M21.5,2c-2.6,0-4.9,1.2-6.5,3c-1.6-1.8-3.9-3-6.5-3C3.8,2,0,5.8,0,10.5
		c0,2.6,0.9,4.4,3,6.5l12,12l12-12c2.1-2.1,3-3.9,3-6.5C30,5.8,26.2,2,21.5,2L21.5,2z"/>
</svg>