<?xml version="1.0" encoding="utf-8"?>
<!-- Generator: Adobe Illustrator 23.0.4, SVG Export Plug-In . SVG Version: 6.00 Build 0)  -->
<svg version="1.1" id="cdr_x5F_object" xmlns="http://www.w3.org/2000/svg" xmlns:xlink="http://www.w3.org/1999/xlink" x="0px"
	 y="0px" viewBox="0 0 200 100" style="enable-background:new 0 0 200 100;" xml:space="preserve">
<style type="text/css">
	.st0{fill-rule:evenodd;clip-rule:evenodd;fill:none;}
	.st1{fill-rule:evenodd;clip-rule:evenodd;fill:#E20613;}
	.st2{fill-rule:evenodd;clip-rule:evenodd;fill:#A51611;}
	.st3{fill-rule:evenodd;clip-rule:evenodd;fill:#EE7D00;}
	.st4{fill-rule:evenodd;clip-rule:evenodd;fill:#1D1D1B;}
</style>
<rect class="st0" width="200" height="100"/>
<path class="st1" d="M27.2,15c1.4,6.4,2.7,12.7,4.1,19.1c5.7-0.1,9,1.4,10,4.5C40.5,32,39.7,25.5,38.9,19C38,14.9,32.3,15.2,27.2,15
	z"/>
<path class="st2" d="M2,38.9c9.9-19.6,33-7.9,37.2-18.7c0.7,6.2,1.4,12.4,2.1,18.6c0.9,8.3-19.6,2-27.8,20.2
	C9.7,52.3,5.8,45.6,2,38.9z"/>
<path class="st1" d="M13.5,42.7l7.2,21.6c0,0,0.1-5.1,6.7-7.7c6.6-2.6,12.9-0.9,20.7-3.9c7.8-3.1,8.5-5.8,8.5-5.8V17.7
	c0,0-0.9,6-6.9,9.6c-6,3.7-12,3.9-19.7,5.1C21.6,33.1,13,36.1,13.5,42.7z"/>
<path class="st3" d="M13.6,43.3c1.7,4.4,5.8,6.2,14.2,4.9V69c-2.3-0.1-4.7-1.5-7.1-4.6L13.6,43.3z"/>
<path class="st4" d="M47.9,62.5c0-1.9-0.5-3.4-1.6-4.5c-0.1-0.1-0.4-0.3-0.8-0.7c-0.2-0.1-0.4-0.2-0.5-0.3c-0.6-0.3-0.8-0.5-0.9-0.5
	c0.1-0.1,0.1-0.1,0.2-0.2c1.7-1.3,2.6-2.9,2.6-4.6c0-2.7-1-4.4-3.1-5.2c-0.6-0.2-1.2-0.4-1.7-0.5c-0.6-0.1-0.9-0.2-1-0.2h-7.9
	c-0.3,0-0.5,0.2-0.5,0.5v21.9c0,0.4,0.2,0.7,0.5,0.7h8.6c2.8,0,4.7-1.2,5.7-3.6C47.8,64.5,47.9,63.5,47.9,62.5z M37.6,50.1
	c0.1,0,0.4,0,1,0c0.8,0,1.2,0,1.4,0c1.3,0.1,1.9,0.8,1.9,2.1c0,1.2-0.5,1.9-1.4,2.2c-0.4,0.1-1.1,0.2-2,0.2c-0.5,0-0.8,0-0.9,0
	l-0.2-0.2v-4.1L37.6,50.1z M37.6,59c0.1,0,0.5,0,1,0c1.1,0,1.9,0.1,2.2,0.2c1.3,0.5,1.9,1.4,1.9,2.7c0,1.8-0.9,2.7-2.6,2.8
	c-0.2,0-0.7,0-1.5,0c-0.6,0-0.9,0-1,0l-0.2-0.2v-5.3L37.6,59z M56.5,59.4l4.3,9.2c0.1,0.2,0.3,0.3,0.5,0.3h4.1
	c0.2,0,0.4-0.2,0.4-0.6c0-0.3-0.1-0.6-0.2-0.9l-3.8-8.5c-0.1-0.3-0.2-0.4-0.2-0.5c0,0,0.1-0.1,0.2-0.2c2.2-1.4,3.3-3.4,3.3-5.9
	c0-2.9-1.4-4.9-4.1-5.9c-0.9-0.3-1.7-0.5-2.4-0.5H51c-0.4,0-0.7,0.2-0.7,0.5v21.9c0,0.4,0.2,0.7,0.5,0.7h3.6c0.4,0,0.6-0.2,0.6-0.7
	v-8.9H56.5z M57.9,50.1c1.4,0,2.1,0.8,2.1,2.5c0,1.2-0.5,2-1.6,2.3c-0.4,0.1-1.1,0.2-2.1,0.2c-0.5,0-0.9,0-1,0l-0.2-0.2v-4.8H57.9z
	 M74.5,69.3c1.1,0,2-0.1,2.7-0.3c2-0.7,3.3-2.2,3.9-4.4c0.2-0.8,0.4-1.5,0.4-2.1v-9.7c0-0.7-0.2-1.7-0.5-2.9
	c-0.5-1.9-1.8-3.2-3.8-3.9c-0.7-0.2-1.6-0.4-2.7-0.4c-1,0-1.9,0.1-2.8,0.4c-1.6,0.5-2.8,1.6-3.6,3.4c-0.4,1.1-0.7,2.1-0.7,3.1v10.1
	c0,1,0.2,2,0.7,3.1C69.2,68,71.3,69.3,74.5,69.3z M74.5,65c-1.5,0-2.2-0.9-2.2-2.6V52.3c0-1.7,0.7-2.6,2.2-2.6
	c1.5,0,2.2,0.9,2.2,2.6v10.1C76.7,64.2,75.9,65,74.5,65z M84.1,46.4v22.1l0.5,0.5H88l0.6-0.5V56.8L94,68.6c0.1,0.2,0.3,0.3,0.5,0.3
	h2.9l0.5-0.5V46.4l-0.5-0.5H94l-0.6,0.5v10.4l-4.9-10.6c-0.1-0.2-0.3-0.3-0.5-0.3h-3.4L84.1,46.4z M100.7,46.4v21.9
	c0,0.4,0.2,0.7,0.5,0.7h12c0.4,0,0.5-0.1,0.5-0.3v-3.4l-0.4-0.4h-7.9v-5.6l0.2-0.3h5.5l0.4-0.4v-3.4l-0.4-0.4h-5.6v-4.4l0.2-0.2h7.2
	c0.3,0,0.5-0.2,0.5-0.6v-3.1l-0.5-0.5h-11.7L100.7,46.4z M115.3,46.9l4.8,21.4c0.1,0.4,0.3,0.7,0.5,0.7h4.6c0.3,0,0.5-0.3,0.7-1
	l4.8-21.2c0,0,0-0.2,0-0.3c0-0.3-0.1-0.5-0.2-0.5h-3.8c-0.4,0-0.6,0.2-0.7,0.7L123.3,59c-0.1,0.4-0.1,0.5-0.2,0.5
	c-0.1,0-0.2-0.1-0.3-0.4l-2.9-12.7c-0.1-0.4-0.3-0.7-0.7-0.7h-3.9V46.9z M132.3,46.4v21.9c0,0.4,0.2,0.7,0.5,0.7h3.6
	c0.3,0,0.5-0.2,0.5-0.7V46.4l-0.5-0.5h-3.6L132.3,46.4z M140,46.4v22.1l0.5,0.5h3.6c0.4,0,0.6-0.2,0.6-0.7v-7.7l1.3-1.7h0.2l4.5,9.2
	c0.3,0.6,0.5,0.8,0.8,0.8h3.8c0.3,0,0.5-0.3,0.5-0.8c0-0.2-0.1-0.5-0.2-0.8l-6.2-13.2l5.2-7.3c0.1-0.2,0.2-0.4,0.2-0.5
	c0-0.3-0.1-0.5-0.3-0.5h-4.1c-0.4,0-0.7,0.2-1,0.7l-4.5,6.5v-6.7l-0.6-0.5h-3.6L140,46.4z"/>
<path class="st4" d="M162.2,68.8c0,0.3-0.1,0.4-0.2,0.5c-0.1,0.1-0.3,0.1-0.5,0.1h-2c-0.3,0-0.5-0.1-0.5-0.2
	c-0.1-0.1-0.1-0.3-0.1-0.5v-2c0-0.3,0.1-0.4,0.2-0.5c0.1-0.1,0.3-0.1,0.5-0.1h2c0.3,0,0.5,0.1,0.5,0.2c0.1,0.1,0.1,0.3,0.1,0.5V68.8
	z M171.2,68.7c0,0.3-0.1,0.5-0.3,0.6c-0.4,0.2-1.1,0.3-2.2,0.3c-2,0-3.4-0.6-4.1-1.7c-0.4-0.6-0.6-1.6-0.6-2.9V61
	c0-1.3,0.2-2.3,0.7-3c0.7-1,2-1.5,3.9-1.5c1.1,0,1.8,0.1,2.2,0.3c0.2,0.1,0.3,0.3,0.3,0.6v1.8c0,0.3-0.1,0.5-0.4,0.5
	c-0.3,0-0.6,0-0.9-0.1c-0.4-0.1-0.7-0.1-0.9-0.1c-0.7,0-1.2,0.2-1.5,0.6c-0.2,0.3-0.3,0.7-0.3,1.3v3.4c0,0.5,0.1,0.9,0.2,1.2
	c0.3,0.5,0.8,0.7,1.5,0.7l1-0.1c0.1,0,0.2,0,0.4-0.1c0.2,0,0.3-0.1,0.4-0.1c0.2,0,0.3,0,0.3,0.1c0.1,0.1,0.1,0.2,0.1,0.3V68.7z
	 M181.4,65c0,1.2-0.2,2.2-0.7,2.9c-0.7,1.1-1.9,1.6-3.6,1.6c-1.7,0-2.9-0.5-3.6-1.6c-0.5-0.7-0.7-1.7-0.7-2.9v-3.9
	c0-1.2,0.2-2.2,0.7-2.9c0.7-1.1,1.9-1.6,3.6-1.6c1.7,0,2.9,0.5,3.6,1.6c0.5,0.7,0.7,1.7,0.7,2.9V65z M178.3,65.5v-4.9
	c0-0.6-0.1-1-0.4-1.2c-0.2-0.2-0.5-0.3-0.9-0.3c-0.3,0-0.6,0.1-0.8,0.3c-0.3,0.3-0.4,0.7-0.4,1.2v4.9c0,0.6,0.1,1,0.4,1.2
	c0.2,0.2,0.5,0.3,0.8,0.3c0.3,0,0.6-0.1,0.8-0.3C178.1,66.5,178.3,66.1,178.3,65.5z M196.8,68.8c0,0.3-0.1,0.4-0.2,0.5
	c-0.1,0.1-0.3,0.1-0.5,0.1h-1.8c-0.2,0-0.4,0-0.5-0.1c-0.1-0.1-0.2-0.3-0.2-0.5v-8.2c0-0.3-0.1-0.6-0.3-0.8
	c-0.2-0.2-0.5-0.3-0.8-0.3c-0.5,0-0.8,0.2-1,0.6c-0.1,0.2-0.1,0.6-0.1,1.1v7.6c0,0.3-0.1,0.4-0.2,0.5c-0.1,0.1-0.3,0.1-0.5,0.1H189
	c-0.3,0-0.4-0.1-0.5-0.2c-0.1-0.1-0.1-0.3-0.1-0.5v-8.2c0-0.3-0.1-0.6-0.3-0.8c-0.2-0.2-0.5-0.3-0.8-0.3c-0.5,0-0.8,0.2-1,0.6
	c-0.1,0.2-0.1,0.6-0.1,1.1v7.6c0,0.3-0.1,0.4-0.2,0.5c-0.1,0.1-0.3,0.1-0.5,0.1h-1.8c-0.3,0-0.5-0.1-0.5-0.2
	c-0.1-0.1-0.1-0.3-0.1-0.5V57.4c0-0.3,0.1-0.4,0.2-0.5c0.1-0.1,0.3-0.1,0.5-0.1h2c0.1,0,0.2,0,0.3,0.1c0.1,0.1,0.1,0.2,0.1,0.3
	c0,0.2,0,0.2,0.1,0.2c0,0,0.1,0,0.2-0.1c0.3-0.3,0.7-0.5,1-0.6c0.3-0.1,0.7-0.2,1-0.2c0.4,0,0.8,0.1,1.2,0.3
	c0.3,0.1,0.6,0.3,0.9,0.6c0.2,0.1,0.3,0.2,0.4,0.2c0.1,0,0.2-0.1,0.4-0.2c0.4-0.3,0.8-0.6,1.2-0.7c0.4-0.1,0.8-0.2,1.3-0.2
	c0.8,0,1.5,0.2,2,0.7c0.6,0.6,0.9,1.5,0.9,2.7V68.8z"/>
<path class="st4" d="M32.9,83.2v-6.4h2.4c0.4,0,0.8,0,1,0.1c0.3,0.1,0.6,0.2,0.8,0.3c0.2,0.1,0.4,0.4,0.5,0.6
	c0.1,0.3,0.2,0.6,0.2,0.9c0,0.5-0.2,1-0.5,1.4c-0.3,0.4-1,0.6-1.9,0.6h-1.6v2.6H32.9z M33.8,79.9h1.7c0.5,0,0.9-0.1,1.2-0.3
	c0.2-0.2,0.3-0.5,0.3-0.9c0-0.3-0.1-0.5-0.2-0.7c-0.1-0.2-0.3-0.3-0.5-0.4c-0.1,0-0.4-0.1-0.8-0.1h-1.6V79.9z M41.6,81.7l0.8,0.1
	c-0.1,0.5-0.4,0.8-0.7,1.1c-0.3,0.3-0.8,0.4-1.3,0.4c-0.7,0-1.2-0.2-1.6-0.6c-0.4-0.4-0.6-1-0.6-1.8c0-0.8,0.2-1.4,0.6-1.8
	c0.4-0.4,0.9-0.6,1.6-0.6c0.6,0,1.1,0.2,1.5,0.6c0.4,0.4,0.6,1,0.6,1.8c0,0,0,0.1,0,0.2h-3.5c0,0.5,0.2,0.9,0.4,1.2
	c0.3,0.3,0.6,0.4,1,0.4c0.3,0,0.5-0.1,0.7-0.2C41.3,82.3,41.4,82.1,41.6,81.7z M39,80.5h2.6c0-0.4-0.1-0.7-0.3-0.9
	c-0.2-0.3-0.6-0.5-1-0.5c-0.4,0-0.7,0.1-0.9,0.4C39.2,79.7,39,80.1,39,80.5z M43.4,78.6h1.8c0.4,0,0.8,0,1,0.1
	c0.2,0.1,0.4,0.2,0.6,0.4c0.2,0.2,0.2,0.4,0.2,0.7c0,0.2,0,0.4-0.1,0.6c-0.1,0.2-0.2,0.3-0.4,0.4c0.2,0.1,0.4,0.2,0.5,0.4
	c0.1,0.2,0.2,0.4,0.2,0.7c0,0.4-0.2,0.8-0.5,1c-0.3,0.2-0.7,0.3-1.2,0.3h-2.1V78.6z M44.2,80.5H45c0.3,0,0.6,0,0.7-0.1
	c0.1,0,0.2-0.1,0.3-0.2c0.1-0.1,0.1-0.2,0.1-0.4c0-0.2-0.1-0.4-0.3-0.5c-0.2-0.1-0.5-0.1-0.9-0.1h-0.9V80.5z M44.2,82.6h1
	c0.4,0,0.8-0.1,0.9-0.2c0.2-0.1,0.3-0.3,0.3-0.5c0-0.1,0-0.3-0.1-0.4c-0.1-0.1-0.2-0.2-0.4-0.2c-0.2,0-0.4-0.1-0.7-0.1h-1V82.6z
	 M47.7,80.9c0-0.9,0.2-1.5,0.7-1.9c0.4-0.3,0.9-0.5,1.5-0.5c0.6,0,1.2,0.2,1.6,0.6c0.4,0.4,0.6,1,0.6,1.7c0,0.6-0.1,1.1-0.3,1.4
	c-0.2,0.3-0.4,0.6-0.8,0.8c-0.3,0.2-0.7,0.3-1.1,0.3c-0.7,0-1.2-0.2-1.6-0.6C47.9,82.3,47.7,81.7,47.7,80.9z M48.6,80.9
	c0,0.6,0.1,1,0.4,1.3c0.3,0.3,0.6,0.4,1,0.4c0.4,0,0.7-0.1,1-0.4c0.3-0.3,0.4-0.7,0.4-1.4c0-0.6-0.1-1-0.4-1.3
	c-0.3-0.3-0.6-0.4-1-0.4c-0.4,0-0.7,0.1-1,0.4C48.7,79.9,48.6,80.3,48.6,80.9z M53.2,78.6h3.7v4.6h-0.8v-4H54v2.3
	c0,0.5,0,0.9-0.1,1.1c0,0.2-0.1,0.3-0.3,0.4c-0.2,0.1-0.4,0.2-0.7,0.2c-0.2,0-0.4,0-0.6,0v-0.7h0.3c0.2,0,0.3,0,0.3-0.1
	c0.1,0,0.1-0.1,0.1-0.2c0-0.1,0-0.3,0-0.7V78.6z M58.1,78.6h0.8v1.9h1c0.1-0.7,0.3-1.2,0.6-1.5c0.3-0.3,0.8-0.5,1.3-0.5
	c0.5,0,0.8,0.1,1.1,0.3c0.3,0.2,0.5,0.4,0.7,0.8c0.2,0.3,0.3,0.8,0.3,1.3c0,0.8-0.2,1.4-0.5,1.8c-0.4,0.4-0.9,0.6-1.5,0.6
	c-0.6,0-1-0.2-1.4-0.6c-0.3-0.4-0.5-0.9-0.6-1.6h-1v2.1h-0.8V78.6z M61.8,79.2c-0.4,0-0.7,0.1-0.9,0.4c-0.2,0.3-0.3,0.7-0.3,1.2
	c0,0.6,0.1,1.1,0.3,1.4c0.2,0.3,0.5,0.4,0.9,0.4c0.4,0,0.7-0.1,0.9-0.4c0.2-0.3,0.3-0.7,0.3-1.3c0-0.6-0.1-1-0.3-1.3
	C62.5,79.3,62.2,79.2,61.8,79.2z M64.8,78.6h0.8v4h2.2v-4h0.8v4h0.5v2h-0.6v-1.3h-3.6V78.6z M69.9,78.6h0.8v3.5l2.2-3.5h0.8v4.6
	h-0.8v-3.5l-2.2,3.5h-0.8V78.6z M74.6,80.9c0-0.9,0.2-1.5,0.7-1.9c0.4-0.3,0.9-0.5,1.5-0.5c0.6,0,1.2,0.2,1.6,0.6
	c0.4,0.4,0.6,1,0.6,1.7c0,0.6-0.1,1.1-0.3,1.4c-0.2,0.3-0.4,0.6-0.8,0.8c-0.3,0.2-0.7,0.3-1.1,0.3c-0.7,0-1.2-0.2-1.6-0.6
	C74.8,82.3,74.6,81.7,74.6,80.9z M75.4,80.9c0,0.6,0.1,1,0.4,1.3c0.3,0.3,0.6,0.4,1,0.4c0.4,0,0.7-0.1,1-0.4
	c0.3-0.3,0.4-0.7,0.4-1.4c0-0.6-0.1-1-0.4-1.3c-0.3-0.3-0.6-0.4-1-0.4c-0.4,0-0.7,0.1-1,0.4C75.6,79.9,75.4,80.3,75.4,80.9z
	 M79.9,78.6h0.8v1.9h2.2v-1.9h0.8v4.6h-0.8v-2.1h-2.2v2.1h-0.8V78.6z M84.8,78.6h0.8v1.9h2.2v-1.9h0.8v4.6h-0.8v-2.1h-2.2v2.1h-0.8
	V78.6z M92.8,82.6c-0.3,0.2-0.6,0.4-0.8,0.5s-0.6,0.2-0.9,0.2c-0.5,0-0.9-0.1-1.2-0.4c-0.3-0.2-0.4-0.6-0.4-0.9
	c0-0.2,0.1-0.4,0.2-0.6c0.1-0.2,0.2-0.3,0.4-0.4c0.2-0.1,0.4-0.2,0.6-0.3c0.2,0,0.4-0.1,0.7-0.1c0.6-0.1,1.1-0.2,1.4-0.3
	c0-0.1,0-0.2,0-0.2c0-0.3-0.1-0.5-0.2-0.7c-0.2-0.2-0.5-0.3-0.9-0.3c-0.4,0-0.6,0.1-0.8,0.2c-0.2,0.1-0.3,0.4-0.4,0.7l-0.8-0.1
	c0.1-0.3,0.2-0.6,0.3-0.8c0.2-0.2,0.4-0.4,0.7-0.5c0.3-0.1,0.7-0.2,1.1-0.2c0.4,0,0.7,0,1,0.1c0.2,0.1,0.4,0.2,0.5,0.4
	c0.1,0.1,0.2,0.3,0.2,0.5c0,0.1,0,0.4,0,0.7v1c0,0.7,0,1.2,0,1.4c0,0.2,0.1,0.4,0.2,0.6H93C92.9,83.1,92.9,82.9,92.8,82.6z
	 M92.8,80.9c-0.3,0.1-0.7,0.2-1.3,0.3c-0.3,0-0.6,0.1-0.7,0.2c-0.1,0.1-0.2,0.1-0.3,0.3c-0.1,0.1-0.1,0.2-0.1,0.4
	c0,0.2,0.1,0.4,0.2,0.5c0.2,0.1,0.4,0.2,0.7,0.2c0.3,0,0.6-0.1,0.8-0.2c0.2-0.1,0.4-0.3,0.5-0.5c0.1-0.2,0.1-0.4,0.1-0.8L92.8,80.9z
	 M98.4,78.6v4.6h-0.8v-1.8h-0.5c-0.3,0-0.5,0-0.6,0.1c-0.1,0.1-0.3,0.3-0.6,0.7l-0.7,1h-1l0.9-1.2c0.3-0.4,0.5-0.6,0.8-0.6
	c-0.4-0.1-0.8-0.2-1-0.5c-0.2-0.3-0.3-0.6-0.3-0.9c0-0.4,0.1-0.7,0.4-1c0.3-0.3,0.7-0.4,1.2-0.4H98.4z M97.7,79.2h-1.1
	c-0.5,0-0.8,0.1-0.9,0.2c-0.1,0.1-0.2,0.3-0.2,0.5c0,0.3,0.1,0.5,0.3,0.6c0.2,0.1,0.6,0.2,1.1,0.2h0.9V79.2z M105.2,81.5l0.8,0.1
	c-0.1,0.5-0.3,0.9-0.6,1.2c-0.3,0.3-0.8,0.4-1.3,0.4c-0.6,0-1.1-0.2-1.5-0.6c-0.4-0.4-0.6-1-0.6-1.8c0-0.5,0.1-0.9,0.2-1.3
	c0.2-0.4,0.4-0.7,0.8-0.8c0.3-0.2,0.7-0.3,1.1-0.3c0.5,0,0.9,0.1,1.2,0.4c0.3,0.3,0.5,0.6,0.6,1.1l-0.8,0.1
	c-0.1-0.3-0.2-0.5-0.4-0.7c-0.2-0.2-0.4-0.2-0.7-0.2c-0.4,0-0.7,0.1-1,0.4c-0.2,0.3-0.4,0.7-0.4,1.3c0,0.6,0.1,1.1,0.4,1.4
	c0.2,0.3,0.6,0.4,0.9,0.4c0.3,0,0.6-0.1,0.8-0.3C105,82.2,105.1,81.9,105.2,81.5z M106.6,78.6h0.8v3.5l2.2-3.5h0.8v4.6h-0.8v-3.5
	l-2.2,3.5h-0.8V78.6z M114.6,81.5l0.8,0.1c-0.1,0.5-0.3,0.9-0.6,1.2c-0.3,0.3-0.8,0.4-1.3,0.4c-0.6,0-1.1-0.2-1.5-0.6
	c-0.4-0.4-0.6-1-0.6-1.8c0-0.5,0.1-0.9,0.2-1.3c0.2-0.4,0.4-0.7,0.8-0.8c0.3-0.2,0.7-0.3,1.1-0.3c0.5,0,0.9,0.1,1.2,0.4
	c0.3,0.3,0.5,0.6,0.6,1.1l-0.8,0.1c-0.1-0.3-0.2-0.5-0.4-0.7c-0.2-0.2-0.4-0.2-0.7-0.2c-0.4,0-0.7,0.1-1,0.4
	c-0.2,0.3-0.4,0.7-0.4,1.3c0,0.6,0.1,1.1,0.4,1.4c0.2,0.3,0.6,0.4,0.9,0.4c0.3,0,0.6-0.1,0.8-0.3C114.5,82.2,114.6,81.9,114.6,81.5z
	 M115.7,78.6h3.8v0.7H118v4h-0.8v-4h-1.5V78.6z M123.3,81.7l0.8,0.1c-0.1,0.5-0.4,0.8-0.7,1.1c-0.3,0.3-0.8,0.4-1.3,0.4
	c-0.7,0-1.2-0.2-1.6-0.6c-0.4-0.4-0.6-1-0.6-1.8c0-0.8,0.2-1.4,0.6-1.8c0.4-0.4,0.9-0.6,1.6-0.6c0.6,0,1.1,0.2,1.5,0.6
	s0.6,1,0.6,1.8c0,0,0,0.1,0,0.2h-3.5c0,0.5,0.2,0.9,0.4,1.2c0.3,0.3,0.6,0.4,1,0.4c0.3,0,0.5-0.1,0.7-0.2
	C123,82.3,123.1,82.1,123.3,81.7z M120.7,80.5h2.6c0-0.4-0.1-0.7-0.3-0.9c-0.2-0.3-0.6-0.5-1-0.5c-0.4,0-0.7,0.1-0.9,0.4
	C120.8,79.7,120.7,80.1,120.7,80.5z M125.1,78.6h1.2l1.2,3.7l1.4-3.7h1.1v4.6h-0.8v-3.7l-1.4,3.7h-0.7l-1.3-3.9v3.9h-0.8V78.6z
	 M134.3,82.6c-0.3,0.2-0.6,0.4-0.8,0.5c-0.3,0.1-0.6,0.2-0.9,0.2c-0.5,0-0.9-0.1-1.2-0.4c-0.3-0.2-0.4-0.6-0.4-0.9
	c0-0.2,0.1-0.4,0.2-0.6c0.1-0.2,0.2-0.3,0.4-0.4c0.2-0.1,0.4-0.2,0.6-0.3c0.2,0,0.4-0.1,0.7-0.1c0.6-0.1,1.1-0.2,1.4-0.3
	c0-0.1,0-0.2,0-0.2c0-0.3-0.1-0.5-0.2-0.7c-0.2-0.2-0.5-0.3-0.9-0.3c-0.4,0-0.6,0.1-0.8,0.2c-0.2,0.1-0.3,0.4-0.4,0.7l-0.8-0.1
	c0.1-0.3,0.2-0.6,0.3-0.8c0.2-0.2,0.4-0.4,0.7-0.5c0.3-0.1,0.7-0.2,1.1-0.2c0.4,0,0.7,0,1,0.1c0.2,0.1,0.4,0.2,0.5,0.4
	c0.1,0.1,0.2,0.3,0.2,0.5c0,0.1,0,0.4,0,0.7v1c0,0.7,0,1.2,0,1.4c0,0.2,0.1,0.4,0.2,0.6h-0.8C134.4,83.1,134.3,82.9,134.3,82.6z
	 M134.2,80.9c-0.3,0.1-0.7,0.2-1.3,0.3c-0.3,0-0.6,0.1-0.7,0.2c-0.1,0.1-0.2,0.1-0.3,0.3c-0.1,0.1-0.1,0.2-0.1,0.4
	c0,0.2,0.1,0.4,0.2,0.5c0.2,0.1,0.4,0.2,0.7,0.2c0.3,0,0.6-0.1,0.8-0.2c0.2-0.1,0.4-0.3,0.5-0.5c0.1-0.2,0.1-0.4,0.1-0.8L134.2,80.9
	z M142.1,76.7l0.7,0c0,0.3-0.1,0.5-0.2,0.7c-0.1,0.1-0.2,0.2-0.4,0.2c-0.2,0-0.5,0.1-1,0.1c-0.6,0-1.1,0.1-1.3,0.2
	c-0.2,0.1-0.4,0.3-0.5,0.6c-0.1,0.3-0.2,0.6-0.2,1.1c0.2-0.3,0.4-0.5,0.7-0.7c0.3-0.1,0.6-0.2,0.9-0.2c0.6,0,1.1,0.2,1.5,0.6
	c0.4,0.4,0.6,1,0.6,1.7c0,0.5-0.1,1-0.3,1.3c-0.2,0.3-0.4,0.6-0.7,0.8c-0.3,0.2-0.7,0.3-1.1,0.3c-0.6,0-1-0.1-1.3-0.4
	c-0.3-0.3-0.5-0.6-0.7-1c-0.2-0.4-0.2-1.1-0.2-2c0-1.2,0.2-2,0.6-2.5c0.4-0.4,1.1-0.6,1.9-0.6c0.5,0,0.8,0,0.9,0
	C142,76.8,142.1,76.7,142.1,76.7z M142.1,80.9c0-0.5-0.1-0.9-0.3-1.2c-0.2-0.3-0.6-0.5-1-0.5c-0.4,0-0.8,0.2-1,0.5
	c-0.2,0.3-0.4,0.8-0.4,1.3c0,0.5,0.1,0.9,0.4,1.2c0.3,0.3,0.6,0.4,1,0.4c0.4,0,0.7-0.2,1-0.5C142,81.9,142.1,81.4,142.1,80.9z
	 M143.8,85v-6.4h0.7v0.6c0.2-0.2,0.4-0.4,0.6-0.5c0.2-0.1,0.5-0.2,0.8-0.2c0.4,0,0.7,0.1,1.1,0.3c0.3,0.2,0.5,0.5,0.7,0.9
	c0.2,0.4,0.2,0.8,0.2,1.2c0,0.5-0.1,0.9-0.3,1.3c-0.2,0.4-0.4,0.7-0.7,0.9c-0.3,0.2-0.7,0.3-1,0.3c-0.3,0-0.5-0.1-0.7-0.2
	c-0.2-0.1-0.4-0.2-0.5-0.4V85H143.8z M144.6,80.9c0,0.6,0.1,1,0.4,1.3c0.2,0.3,0.5,0.4,0.9,0.4c0.3,0,0.6-0.1,0.9-0.4
	c0.2-0.3,0.4-0.8,0.4-1.4c0-0.6-0.1-1-0.4-1.3c-0.2-0.3-0.5-0.4-0.9-0.4c-0.3,0-0.6,0.2-0.9,0.5C144.7,79.9,144.6,80.3,144.6,80.9z
	 M148.5,80.9c0-0.9,0.2-1.5,0.7-1.9c0.4-0.3,0.9-0.5,1.5-0.5c0.6,0,1.2,0.2,1.6,0.6c0.4,0.4,0.6,1,0.6,1.7c0,0.6-0.1,1.1-0.3,1.4
	c-0.2,0.3-0.4,0.6-0.8,0.8c-0.3,0.2-0.7,0.3-1.1,0.3c-0.7,0-1.2-0.2-1.6-0.6C148.7,82.3,148.5,81.7,148.5,80.9z M149.3,80.9
	c0,0.6,0.1,1,0.4,1.3c0.3,0.3,0.6,0.4,1,0.4c0.4,0,0.7-0.1,1-0.4c0.3-0.3,0.4-0.7,0.4-1.4c0-0.6-0.1-1-0.4-1.3
	c-0.3-0.3-0.6-0.4-1-0.4c-0.4,0-0.7,0.1-1,0.4C149.5,79.9,149.3,80.3,149.3,80.9z M153.8,78.6h0.8v1.9h2.2v-1.9h0.8v4.6h-0.8v-2.1
	h-2.2v2.1h-0.8V78.6z M158.8,78.6h0.8v3.5l2.2-3.5h0.8v4.6h-0.8v-3.5l-2.2,3.5h-0.8V78.6z M163.8,85v-6.4h0.7v0.6
	c0.2-0.2,0.4-0.4,0.6-0.5c0.2-0.1,0.5-0.2,0.8-0.2c0.4,0,0.7,0.1,1,0.3c0.3,0.2,0.5,0.5,0.7,0.9c0.2,0.4,0.2,0.8,0.2,1.2
	c0,0.5-0.1,0.9-0.3,1.3c-0.2,0.4-0.4,0.7-0.7,0.9c-0.3,0.2-0.7,0.3-1,0.3c-0.3,0-0.5-0.1-0.7-0.2c-0.2-0.1-0.4-0.2-0.5-0.4V85H163.8
	z M164.5,80.9c0,0.6,0.1,1,0.4,1.3c0.2,0.3,0.5,0.4,0.9,0.4c0.3,0,0.6-0.1,0.9-0.4c0.2-0.3,0.4-0.8,0.4-1.4c0-0.6-0.1-1-0.4-1.3
	c-0.2-0.3-0.5-0.4-0.9-0.4c-0.3,0-0.6,0.2-0.9,0.5C164.6,79.9,164.5,80.3,164.5,80.9z M168.5,80.9c0-0.9,0.2-1.5,0.7-1.9
	c0.4-0.3,0.9-0.5,1.5-0.5c0.6,0,1.2,0.2,1.6,0.6c0.4,0.4,0.6,1,0.6,1.7c0,0.6-0.1,1.1-0.3,1.4c-0.2,0.3-0.4,0.6-0.8,0.8
	c-0.3,0.2-0.7,0.3-1.1,0.3c-0.7,0-1.2-0.2-1.6-0.6C168.7,82.3,168.5,81.7,168.5,80.9z M169.3,80.9c0,0.6,0.1,1,0.4,1.3
	c0.3,0.3,0.6,0.4,1,0.4c0.4,0,0.7-0.1,1-0.4c0.3-0.3,0.4-0.7,0.4-1.4c0-0.6-0.1-1-0.4-1.3c-0.3-0.3-0.6-0.4-1-0.4
	c-0.4,0-0.7,0.1-1,0.4C169.4,79.9,169.3,80.3,169.3,80.9z M173.7,78.6h1.8c0.4,0,0.8,0,1,0.1c0.2,0.1,0.4,0.2,0.6,0.4
	c0.2,0.2,0.2,0.4,0.2,0.7c0,0.2,0,0.4-0.1,0.6c-0.1,0.2-0.2,0.3-0.4,0.4c0.2,0.1,0.4,0.2,0.5,0.4c0.1,0.2,0.2,0.4,0.2,0.7
	c0,0.4-0.2,0.8-0.5,1c-0.3,0.2-0.7,0.3-1.2,0.3h-2.1V78.6z M174.5,80.5h0.8c0.3,0,0.6,0,0.7-0.1c0.1,0,0.2-0.1,0.3-0.2
	c0.1-0.1,0.1-0.2,0.1-0.4c0-0.2-0.1-0.4-0.3-0.5c-0.2-0.1-0.5-0.1-0.9-0.1h-0.9V80.5z M174.5,82.6h1c0.4,0,0.8-0.1,0.9-0.2
	c0.2-0.1,0.3-0.3,0.3-0.5c0-0.1,0-0.3-0.1-0.4c-0.1-0.1-0.2-0.2-0.4-0.2c-0.2,0-0.4-0.1-0.7-0.1h-1V82.6z M181.4,82.6
	c-0.3,0.2-0.6,0.4-0.8,0.5c-0.3,0.1-0.6,0.2-0.9,0.2c-0.5,0-0.9-0.1-1.2-0.4c-0.3-0.2-0.4-0.6-0.4-0.9c0-0.2,0.1-0.4,0.2-0.6
	c0.1-0.2,0.2-0.3,0.4-0.4c0.2-0.1,0.4-0.2,0.6-0.3c0.2,0,0.4-0.1,0.7-0.1c0.6-0.1,1.1-0.2,1.4-0.3c0-0.1,0-0.2,0-0.2
	c0-0.3-0.1-0.5-0.2-0.7c-0.2-0.2-0.5-0.3-0.9-0.3c-0.4,0-0.6,0.1-0.8,0.2c-0.2,0.1-0.3,0.4-0.4,0.7l-0.8-0.1
	c0.1-0.3,0.2-0.6,0.3-0.8c0.2-0.2,0.4-0.4,0.7-0.5c0.3-0.1,0.7-0.2,1.1-0.2c0.4,0,0.7,0,1,0.1c0.2,0.1,0.4,0.2,0.5,0.4
	c0.1,0.1,0.2,0.3,0.2,0.5c0,0.1,0,0.4,0,0.7v1c0,0.7,0,1.2,0,1.4c0,0.2,0.1,0.4,0.2,0.6h-0.8C181.5,83.1,181.5,82.9,181.4,82.6z
	 M181.4,80.9c-0.3,0.1-0.7,0.2-1.3,0.3c-0.3,0-0.6,0.1-0.7,0.2c-0.1,0.1-0.2,0.1-0.3,0.3c-0.1,0.1-0.1,0.2-0.1,0.4
	c0,0.2,0.1,0.4,0.2,0.5c0.2,0.1,0.4,0.2,0.7,0.2c0.3,0,0.6-0.1,0.8-0.2c0.2-0.1,0.4-0.3,0.5-0.5c0.1-0.2,0.1-0.4,0.1-0.8L181.4,80.9
	z M183.4,78.6h0.8v1.9h2.2v-1.9h0.8v4.6h-0.8v-2.1h-2.2v2.1h-0.8V78.6z M188.3,78.6h0.8v3.5l2.2-3.5h0.8v4.6h-0.8v-3.5l-2.2,3.5
	h-0.8V78.6z M197,78.6v4.6h-0.8v-1.8h-0.5c-0.3,0-0.5,0-0.6,0.1c-0.1,0.1-0.3,0.3-0.6,0.7l-0.7,1h-1l0.9-1.2
	c0.3-0.4,0.5-0.6,0.8-0.6c-0.4-0.1-0.8-0.2-1-0.5c-0.2-0.3-0.3-0.6-0.3-0.9c0-0.4,0.1-0.7,0.4-1c0.3-0.3,0.7-0.4,1.2-0.4H197z
	 M196.2,79.2h-1.1c-0.5,0-0.8,0.1-0.9,0.2c-0.1,0.1-0.2,0.3-0.2,0.5c0,0.3,0.1,0.5,0.3,0.6c0.2,0.1,0.6,0.2,1.1,0.2h0.9V79.2z"/>
</svg>
