<svg width="32" height="32" viewBox="0 0 32 32" fill="none" xmlns="http://www.w3.org/2000/svg">
<g clip-path="url(#clip0_933_7482)">
<path d="M0.144094 12.3072C0.490218 7.6566 0.66328 5.33127 2.99728 2.99728C5.33127 0.663281 7.6566 0.490219 12.3072 0.144095C13.5128 0.0543704 14.7564 0 16 0C17.2436 0 18.4872 0.0543704 19.6928 0.144094C24.3434 0.490218 26.6687 0.66328 29.0027 2.99728C31.3367 5.33127 31.5098 7.6566 31.8559 12.3072C31.9456 13.5128 32 14.7564 32 16C32 17.2436 31.9456 18.4872 31.8559 19.6928C31.5098 24.3434 31.3367 26.6687 29.0027 29.0027C26.6687 31.3367 24.3434 31.5098 19.6928 31.8559C18.4872 31.9456 17.2436 32 16 32C14.7564 32 13.5128 31.9456 12.3072 31.8559C7.6566 31.5098 5.33127 31.3367 2.99728 29.0027C0.663281 26.6687 0.490219 24.3434 0.144095 19.6928C0.0543704 18.4872 0 17.2436 0 16C0 14.7564 0.0543704 13.5128 0.144094 12.3072Z" fill="#FF8CCF"/>
<path d="M15.5506 26C10.2135 26 6 22.2842 6 17.2568C6 10.3169 12.4919 6 17.0237 6C21.5556 6 26 9.33333 26 12.5756C26 17.1111 20.9688 16 20.9688 17.7304C20.9688 19.3333 23.553 18.7778 23.553 21.5556C23.553 24.3333 20.1241 26 15.5506 26Z" fill="white"/>
<circle cx="21.5" cy="12.5" r="1.5" fill="#FFA42E"/>
<circle cx="17.5" cy="9.5" r="1.5" fill="#FFA42E"/>
<circle cx="12.5" cy="11.5" r="1.5" fill="#FFA42E"/>
<circle cx="10.5" cy="16.5" r="1.5" fill="#FFA42E"/>
</g>
<defs>
<clipPath id="clip0_933_7482">
<rect width="32" height="32" fill="white"/>
</clipPath>
</defs>
</svg>
