<svg xmlns="http://www.w3.org/2000/svg" width="50" height="20" viewBox="0 0 50 20">
  <defs>
    <linearGradient id="banner-card-mir-a" x1="0%" y1="50%" y2="50%">
      <stop offset="0%" stop-color="#00A0E5"/>
      <stop offset="100%" stop-color="#0077C3"/>
    </linearGradient>
  </defs>
  <g fill="none">
    <rect width="50" height="20" fill="#FFF" rx="2"/>
    <g transform="translate(4 4)">
      <path fill="#0A8058" d="M30.5925926,5.2173913 L30.5925926,12 L34.1930732,12 L34.1930732,7.98067633 L38.2736178,7.98067633 C39.9910209,7.96733104 41.4498883,6.81920219 42,5.2173913 L30.5925926,5.2173913 Z"/>
      <path fill="url(#banner-card-mir-a)" d="M29.5555556,0 C29.7711167,2.62388509 32.3469935,4.69565217 35.4929254,4.69565217 C35.5032113,4.69565217 41.9276706,4.69565217 41.9276706,4.69565217 C41.9751523,4.45500927 42,4.20663639 42,3.95266924 C42,1.7791075 40.1802874,0.0160795907 37.9292235,0.000109363166 L29.5555556,0 Z"/>
      <path fill="#0A8058" d="M24.0922194 4.77242L24.0949677 4.76625168 24.0953351 4.76634569C24.1313112 4.69877052 24.2002703 4.65306122 24.2794302 4.65306122 24.3937775 4.65306122 24.4868397 4.74843868 24.4899483 4.86732641L24.4900285 4.86734694 24.4900285 12 28 12 28 0 24.4900285 0C24.044918.0155051794 23.5420359.357342061 23.3550759.776954994L20.5618142 7.04615216C20.5549145 7.0717789 20.5441299 7.09570151 20.5301676 7.11717961L20.5292358 7.11927092 20.528872 7.11915184C20.4866147 7.18281251 20.416239 7.2244898 20.3365622 7.2244898 20.2073286 7.2244898 20.1025641 7.11484524 20.1025641 6.97959184L20.1025641 0 16.5925926 0 16.5925926 12 20.1025641 12 20.1025641 11.9986298C20.5427948 11.9745666 21.0338724 11.6365744 21.2181218 11.223045L24.0850162 4.7885869C24.0872134 4.78308113 24.0896178 4.77768861 24.0922194 4.77242zM10.9397913 4.97754403L8.82208469 12 6.21550273 12 4.09651061 4.97328135C4.07607761 4.8607593 3.97881945 4.7755102 3.86192176 4.7755102 3.73018012 4.7755102 3.62338242 4.8837842 3.62338242 5.01734694 3.62338242 5.01836757 3.62338866 5.01938672 3.62340109 5.02040436L3.62338242 12 0 12 0 0 3.11006991 0 4.03631034 0C4.70302565 0 5.40169261.524560002 5.59652257 1.17062911L7.35992989 7.01820502C7.44766799 7.30915029 7.59001377 7.30883761 7.67765753 7.01820502L9.44106482 1.17062911C9.63603093.524108505 10.3344788 1.74010466e-15 11.001277 1.74010466e-15L11.9272423 0 15.037037 0 15.037037 12 11.4136546 12 11.4136546 5.02040816C11.4136484 5.01938672 11.4136546 5.01836757 11.4136546 5.01734694 11.4136546 4.8837842 11.3068569 4.7755102 11.1751153 4.7755102 11.0567459 4.7755102 10.9585136 4.86291932 10.9397913 4.97754403z"/>
    </g>
  </g>
</svg>
