<?xml version="1.0" encoding="utf-8"?>
<!-- Generator: Adobe Illustrator 23.0.0, SVG Export Plug-In . SVG Version: 6.00 Build 0)  -->
<svg version="1.1" id="Слой_1" xmlns="http://www.w3.org/2000/svg" xmlns:xlink="http://www.w3.org/1999/xlink" x="0px" y="0px"
	 viewBox="0 0 20 20" style="enable-background:new 0 0 20 20;" xml:space="preserve">
<style type="text/css">
	.st0{fill:none;}
	.st1{fill:#FFF4D6;}
	.st2{fill:#FF9023;}
</style>
<rect class="st0" width="20" height="20"/>
<polygon class="st1" points="12.7,0 20,7.3 17.3,17.3 7.3,20 0,12.7 2.7,2.7 "/>
<g>
	<polygon class="st2" points="19.3,4.8 18.5,4 9,13.4 4.5,8.9 3.7,9.6 9,14.9 9,14.9 9,14.9 	"/>
	<path class="st2" d="M9,15.6L3,9.6l1.4-1.4L9,12.7l9.5-9.4L20,4.8L9,15.6z M4.3,9.6L9,14.3l9.6-9.5l-0.1-0.1L9,14L4.5,9.5L4.3,9.6z
		"/>
</g>
</svg>
