<svg xmlns="http://www.w3.org/2000/svg" viewBox="0 0 20 20">
	<style>.color{fill:#fff;}</style>
	<rect fill="none" width="20" height="20"/>
	<g class="color">
		<path d="M13.7,20a6.13,6.13,0,0,1-3.59-1.16H9.94A8.48,8.48,0,0,1,6.17,18s-5.09-2.58-4.7-7.23l-.34-.58A6.51,6.51,0,0,1,0,6.47,6.39,6.39,0,0,1,6.29,0,6,6,0,0,1,9.23.75,3.69,3.69,0,0,1,9.94.69a9,9,0,0,1,8.82,9A6.3,6.3,0,0,1,20,13.53,6.39,6.39,0,0,1,13.7,20Zm-3.6-2.17h.05a.87.87,0,0,1,.51.17,5.17,5.17,0,0,0,3,1A5.4,5.4,0,0,0,19,13.53a5.52,5.52,0,0,0-1.07-3.28.9.9,0,0,1-.17-.52,8,8,0,0,0-7.82-8c-.23,0-.46,0-.69,0a1,1,0,0,1-.5-.1A5,5,0,0,0,6.29,1,5.4,5.4,0,0,0,1,6.47,5.58,5.58,0,0,0,2,9.64l.37.67a.82.82,0,0,1,.11.51c-.33,3.93,4.11,6.23,4.16,6.26a7.55,7.55,0,0,0,3.32.76h.16Z"/>
		<path d="M10.55,9.62l-.62-.17c-2-.43-2.81-.72-2.81-1.84s1-1.75,2.64-1.75c2,0,2.93.71,3.08,2.43a.5.5,0,0,0,.52.46h0a.5.5,0,0,0,.46-.54C13.66,6,12.32,4.85,9.76,4.85,7.54,4.85,6.1,5.93,6.1,7.61c0,2,1.94,2.46,3.34,2.77l.62.17c2,.43,2.82.72,2.82,1.84s-1,1.75-2.64,1.75c-2,0-2.93-.71-3.08-2.43A.54.54,0,0,0,7,11.36a.51.51,0,0,0-.37-.11.53.53,0,0,0-.35.17.51.51,0,0,0-.11.37c.19,2.26,1.53,3.36,4.09,3.36,2.22,0,3.66-1.08,3.66-2.76C13.9,10.36,12,9.93,10.55,9.62Z"/>
	</g>
</svg>