<svg xmlns="http://www.w3.org/2000/svg" viewBox="0 0 30 30">
	<style>.color{fill:#fff;}</style>
	<rect fill="none" width="30" height="30"/>
	<g class="color">
		<path d="M30,11.5c-0.1-0.2-0.2-0.3-0.4-0.3l-4.5-0.9C23.5,7.7,20.9,5.8,18,5l-2.6-4.7C15.3,0,15-0.1,14.7,0.1
			c-0.1,0-0.1,0.1-0.2,0.2l-2.4,4.6c-3.2,0.7-6,2.6-7.7,5.5l-4.1,0.9c-0.2,0-0.3,0.1-0.4,0.3c0,0.2,0,0.3,0.1,0.4l2.7,3.1
			c-0.1,0.6-0.1,1.1-0.1,1.7c0,0,0,0.4,0,0.6c0,1.3,0.2,2.5,0.7,3.7c0.6,1.5,1.7,2.4,3.2,2.9c1.7,0.5,3.7-0.4,4.2-1.1
			c0.4,0.1,0.8,0.2,1.4,0.3c0.7,0,0.9,0,2.6,0c1.7,0,2,0,2.7,0c0.7,0,1.1-0.1,1.5-0.3c0.4-0.2,0.8-0.4,1.1-0.7
			c0.4-0.4,0.6-0.7,0.7-1.1c0.2-0.4,0.3-0.9,0.3-1.5c0-0.7,0-0.9,0-2.6s0-2,0-2.7c0-0.7-0.1-1.1-0.3-1.5c-0.2-0.4-0.4-0.8-0.7-1.1
			c-0.4-0.4-0.7-0.6-1.1-0.7c-0.4-0.2-0.9-0.3-1.5-0.3c-0.7,0-1,0-2.7,0c-1.7,0-1.9,0-2.6,0c-0.7,0-1.1,0.1-1.5,0.3
			c-0.4,0.2-0.8,0.4-1.1,0.7c-0.4,0.4-0.6,0.7-0.7,1.1c-0.2,0.4-0.3,0.9-0.3,1.5c0,0.7,0,1,0,2.7s0,1.9,0,2.6c0,0.7,0.1,1.1,0.3,1.5
			c0.2,0.4,0.4,0.8,0.7,1.1c0,0,0.1,0.1,0.1,0.1c-0.6,0.7-1.6,1-2.4,0.8c-1.2-0.3-2.4-1.1-2.9-2.2c-0.4-1-0.7-2.1-0.7-3.2
			c0-0.2,0-0.5,0-0.7c0-0.6,0.1-1.2,0.1-1.7c0-0.1,0-0.3-0.1-0.4L1.4,12l3.5-0.7c0.1,0,0.2-0.1,0.3-0.2c1.5-2.7,4.2-4.7,7.2-5.2h0.1
			c0.2,0,0.3-0.1,0.4-0.3l2.1-4l2.1,4.1c0.1,0.1,0.2,0.2,0.3,0.2c2.9,0.7,5.3,2.5,6.9,5.1c0.1,0.1,0.2,0.2,0.3,0.2l4,0.8L26,15
			c-0.1,0.1-0.1,0.2-0.1,0.4c0.1,0.5,0.1,0.9,0.1,1.4c0,2.9-1.1,5.7-3.2,7.8c-0.1,0.1-0.1,0.2-0.1,0.4l0.4,3.6L19.8,27
			c-0.1,0-0.2,0-0.4,0c-3,1.4-6.4,1.4-9.3,0c-0.2-0.1-0.3-0.1-0.5,0l-3,1.5l0.4-2.8c0-0.3-0.2-0.5-0.4-0.5c-0.3,0-0.5,0.2-0.5,0.4
			l-0.5,3.7c0,0.2,0.1,0.4,0.2,0.5c0.2,0.1,0.3,0.1,0.5,0l3.7-1.9c3.1,1.4,6.6,1.4,9.7,0.1l3.6,2.1c0.1,0,0.3,0.1,0.5,0
			c0.2-0.1,0.2-0.3,0.2-0.4l-0.4-4.3c2.2-2.3,3.4-5.3,3.4-8.4c0-0.4,0-0.9-0.1-1.3l3-3.4C30,11.9,30,11.7,30,11.5z M9.6,16.6
			c0-1.7,0-1.8,0-2.5c0-0.6,0.1-1,0.2-1.2c0.1-0.3,0.3-0.5,0.5-0.7c0.2-0.2,0.4-0.4,0.7-0.5c0.2-0.1,0.6-0.2,1.2-0.2
			c0.7,0,0.9,0,2.6,0s1.8,0,2.5,0c0.6,0,1,0.1,1.2,0.2c0.3,0.1,0.5,0.2,0.7,0.4c0.2,0.2,0.4,0.4,0.5,0.7c0.1,0.2,0.2,0.7,0.2,1.3
			c0,0.7,0,0.8,0,2.5s0,1.9,0,2.6c0,0.6-0.1,1-0.2,1.2c-0.1,0.3-0.3,0.5-0.5,0.7s-0.4,0.4-0.7,0.5c-0.2,0.1-0.6,0.2-1.2,0.2
			c-0.7,0-0.8,0-2.5,0c-1.7,0-1.9,0-2.6,0c-0.6,0-1-0.1-1.2-0.2c-0.3-0.1-0.5-0.3-0.7-0.5s-0.4-0.4-0.5-0.7c-0.1-0.2-0.2-0.6-0.2-1.2
			C9.6,18.5,9.6,18.3,9.6,16.6z"/>
		<path d="M18.2,14c0.4,0,0.8-0.3,0.8-0.8c0-0.4-0.3-0.8-0.8-0.8c-0.4,0-0.8,0.3-0.8,0.8C17.4,13.7,17.7,14,18.2,14z"/>
		<path d="M14.8,19.9c1.8,0,3.3-1.5,3.3-3.3s-1.5-3.3-3.3-3.3c-1.8,0-3.3,1.5-3.3,3.3S13,19.9,14.8,19.9z M14.8,14.5
			c1.2,0,2.1,0.9,2.1,2.1s-0.9,2.1-2.1,2.1s-2.1-0.9-2.1-2.1S13.6,14.5,14.8,14.5z"/>
	</g>
</svg>
