<svg xmlns="http://www.w3.org/2000/svg" viewBox="0 0 30 30">
	<style>.color{fill:#fff;}</style>
	<rect fill="none" width="30" height="30"/>
	<g class="color">
		<path class="st1" d="M30,11.5c-0.1-0.2-0.2-0.3-0.4-0.3l-4.5-0.9C23.5,7.7,20.9,5.8,18,5l-2.6-4.8C15.3,0,15-0.1,14.7,0.1
			c-0.1,0-0.1,0.1-0.2,0.2l-2.4,4.6c-3.2,0.7-6,2.7-7.7,5.5l-4.1,0.9c-0.2,0-0.3,0.1-0.4,0.3c0,0.2,0,0.3,0.1,0.4l2.7,3.1
			c-0.1,0.6-0.1,1.1-0.1,1.7l0,0c0,0,0,0.4,0,0.6c0.1,1.5,0.7,2.9,1.8,4c1.3,1.4,3.1,2.2,5.1,2.2c1.8,0,3.6-0.6,5-1.8
			c0,0,0-0.1,0.1-0.1c0.1-0.1,0.1-0.2,0.1-0.3v-6.6h1.5c0.2,0,0.4-0.2,0.4-0.4v-0.6c0-0.2-0.2-0.3-0.4-0.3c0,0,0,0,0,0h-1.5v-0.6
			c-0.1-0.5,0-0.9,0.2-1.3c0.2-0.2,0.5-0.2,0.8-0.2h0.4h0.3c0.1,0,0.2,0,0.3-0.1c0.1-0.1,0.1-0.2,0.1-0.3v-0.5c0-0.2-0.1-0.3-0.3-0.4
			h-0.1c-0.2,0-0.4,0-0.6,0c-2.4-0.1-2.4,1.7-2.4,2.6v0.7h-1.2c-0.2,0-0.3,0.1-0.3,0.3v0.6c0,0.2,0.2,0.4,0.4,0.4h1.1v6.6
			c-2.5,1.8-6,1.6-8.2-0.7c-0.9-0.9-1.4-2.1-1.6-3.3c0-0.2,0-0.4,0-0.7l0,0c0-0.6,0-1.1,0.1-1.7c0-0.1,0-0.3-0.1-0.4L1.4,12l3.5-0.7
			c0.1,0,0.3-0.1,0.3-0.2l0,0c1.5-2.7,4.2-4.7,7.2-5.2h0.1l0,0c0.2,0,0.3-0.1,0.4-0.3l2.1-4l2.1,4.1c0.1,0.1,0.2,0.2,0.3,0.3
			c2.9,0.7,5.3,2.5,6.9,5.1c0.1,0.1,0.2,0.2,0.3,0.2l4,0.8L26,15c-0.1,0.1-0.1,0.2-0.1,0.4c0.1,0.5,0.1,0.9,0.1,1.4
			c0,2.9-1.1,5.7-3.2,7.8c-0.1,0.1-0.1,0.2-0.1,0.4l0.4,3.6L19.8,27c-0.1,0-0.2,0-0.4,0c-3,1.4-6.4,1.4-9.3,0c-0.1-0.1-0.3-0.1-0.5,0
			l-3.2,1.5L6.9,25c0-0.3-0.1-0.5-0.4-0.5c0,0,0,0,0,0c-0.3,0-0.5,0.2-0.5,0.4l-0.5,4.5c0,0.2,0.1,0.3,0.2,0.4c0.2,0.1,0.3,0.1,0.5,0
			l3.7-1.9c3.1,1.4,6.6,1.4,9.7,0.1l3.7,2c0.1,0,0.2,0,0.2,0c0.1,0,0.2,0,0.3,0c0.2-0.1,0.2-0.3,0.2-0.4l-0.4-4.3
			c2.2-2.3,3.4-5.3,3.4-8.4c0-0.4,0-0.9-0.1-1.3l3-3.4C30,11.9,30,11.7,30,11.5z"/>
	</g>
</svg>
