<svg xmlns="http://www.w3.org/2000/svg" width="375" height="70" viewBox="0 0 375 70">
  <defs>
    <linearGradient id="fasdfasdfasdfasd-a" x1="0%" y1="50%" y2="50%">
      <stop offset="0%" stop-color="#00A0E5"/>
      <stop offset="100%" stop-color="#0077C3"/>
    </linearGradient>
  </defs>
  <g fill="none" fill-rule="evenodd">
    <path fill="#1D1D1B" d="M211.27,53.505 C210.969999,53.7250011 210.615002,53.8924994 210.205,54.0075 C209.794998,54.1225006 209.365002,54.18 208.915,54.18 C208.334997,54.18 207.845002,54.0875009 207.445,53.9025 C207.044998,53.7174991 206.717501,53.4525017 206.4625,53.1075 C206.207499,52.7624983 206.022501,52.3475024 205.9075,51.8625 C205.792499,51.3774976 205.735,50.8400029 205.735,50.25 C205.735,48.9799936 206.014997,48.0075034 206.575,47.3325 C207.135003,46.6574966 207.939995,46.32 208.99,46.32 C209.470002,46.32 209.877498,46.3574996 210.2125,46.4325 C210.547502,46.5075004 210.849999,46.6149993 211.12,46.755 L210.775,47.79 C210.544999,47.6599993 210.290001,47.5575004 210.01,47.4825 C209.729999,47.4074996 209.430002,47.37 209.11,47.37 C207.689993,47.37 206.98,48.3299904 206.98,50.25 C206.98,50.6300019 207.0175,50.9924983 207.0925,51.3375 C207.1675,51.6825017 207.292499,51.9874987 207.4675,52.2525 C207.642501,52.5175013 207.872499,52.7299992 208.1575,52.89 C208.442501,53.0500008 208.794998,53.13 209.215,53.13 C209.575002,53.13 209.897499,53.0750005 210.1825,52.965 C210.467501,52.8549995 210.699999,52.7300007 210.88,52.59 L211.27,53.505 Z M212.5,50.25 C212.5,48.9799936 212.782497,48.0075034 213.3475,47.3325 C213.912503,46.6574966 214.724995,46.32 215.785,46.32 C216.345003,46.32 216.832498,46.4124991 217.2475,46.5975 C217.662502,46.7825009 218.004999,47.0474983 218.275,47.3925 C218.545001,47.7375017 218.744999,48.1524976 218.875,48.6375 C219.005001,49.1225024 219.07,49.6599971 219.07,50.25 C219.07,51.5200064 218.787503,52.4924966 218.2225,53.1675 C217.657497,53.8425034 216.845005,54.18 215.785,54.18 C215.224997,54.18 214.737502,54.0875009 214.3225,53.9025 C213.907498,53.7174991 213.565001,53.4525017 213.295,53.1075 C213.024999,52.7624983 212.825001,52.3475024 212.695,51.8625 C212.564999,51.3774976 212.5,50.8400029 212.5,50.25 Z M213.745,50.25 C213.745,50.6300019 213.7825,50.9949983 213.8575,51.345 C213.9325,51.6950018 214.049999,51.9999987 214.21,52.26 C214.370001,52.5200013 214.579999,52.7299992 214.84,52.89 C215.100001,53.0500008 215.414998,53.13 215.785,53.13 C217.145007,53.14 217.825,52.1800097 217.825,50.25 C217.825,49.8599981 217.7875,49.4900017 217.7125,49.14 C217.6375,48.7899982 217.520001,48.4850013 217.36,48.225 C217.199999,47.9649987 216.990001,47.7575008 216.73,47.6025 C216.469999,47.4474992 216.155002,47.37 215.785,47.37 C214.424993,47.36 213.745,48.3199903 213.745,50.25 Z M220.96,46.515 C221.310002,46.4949999 221.677498,46.4700002 222.0625,46.44 C222.447502,46.4099998 222.924997,46.395 223.495,46.395 C224.485005,46.395 225.194998,46.5474985 225.625,46.8525 C226.055002,47.1575015 226.27,47.6199969 226.27,48.24 C226.27,48.5900017 226.167501,48.9324983 225.9625,49.2675 C225.757499,49.6025017 225.420002,49.8499992 224.95,50.01 L224.95,50.07 C225.540003,50.1800006 225.954999,50.3849985 226.195,50.685 C226.435001,50.9850015 226.555,51.3849975 226.555,51.885 C226.555,52.6650039 226.275003,53.2299983 225.715,53.58 C225.154997,53.9300018 224.315006,54.105 223.195,54.105 C222.774998,54.105 222.385002,54.0925001 222.025,54.0675 C221.664998,54.0424999 221.310002,54.0150001 220.96,53.985 L220.96,46.515 Z M222.16,52.995 C222.350001,53.0150001 222.537499,53.03 222.7225,53.04 C222.907501,53.0500001 223.124999,53.055 223.375,53.055 C224.045003,53.055 224.542498,52.960001 224.8675,52.77 C225.192502,52.579999 225.355,52.2550023 225.355,51.795 C225.355,51.4349982 225.217501,51.1425011 224.9425,50.9175 C224.667499,50.6924989 224.180003,50.58 223.48,50.58 L222.16,50.58 L222.16,52.995 Z M223.63,49.665 C223.810001,49.665 223.984999,49.6350003 224.155,49.575 C224.325001,49.5149997 224.477499,49.4325005 224.6125,49.3275 C224.747501,49.2224995 224.8575,49.1000007 224.9425,48.96 C225.0275,48.8199993 225.07,48.6700008 225.07,48.51 C225.07,48.109998 224.950001,47.8325008 224.71,47.6775 C224.469999,47.5224992 224.050003,47.445 223.45,47.445 C223.129998,47.445 222.877501,47.4499999 222.6925,47.46 C222.507499,47.4700001 222.330001,47.4799999 222.16,47.49 L222.16,49.665 L223.63,49.665 Z M234.64,49.545 L234.73,48.12 L234.655,48.12 L234.115,49.275 L232.3,52.215 L231.88,52.215 L229.99,49.275 L229.495,48.12 L229.435,48.12 L229.555,49.53 L229.555,54 L228.445,54 L228.445,46.5 L229.63,46.5 L231.73,49.86 L232.165,50.73 L232.195,50.73 L232.645,49.83 L234.61,46.5 L235.81,46.5 L235.81,54 L234.64,54 L234.64,49.545 Z M243.595,53.4 C243.294998,53.6400012 242.917502,53.8299993 242.4625,53.97 C242.007498,54.1100007 241.525003,54.18 241.015,54.18 C240.444997,54.18 239.950002,54.0875009 239.53,53.9025 C239.109998,53.7174991 238.765001,53.4525017 238.495,53.1075 C238.224999,52.7624983 238.025001,52.3500024 237.895,51.87 C237.764999,51.3899976 237.7,50.850003 237.7,50.25 C237.7,48.9699936 237.984997,47.9950034 238.555,47.325 C239.125003,46.6549967 239.939995,46.32 241,46.32 C241.340002,46.32 241.679998,46.3574996 242.02,46.4325 C242.360002,46.5075004 242.664999,46.6499989 242.935,46.86 C243.205001,47.0700011 243.424999,47.3674981 243.595,47.7525 C243.765001,48.1375019 243.85,48.6449968 243.85,49.275 C243.85,49.6050016 243.82,49.969998 243.76,50.37 L238.945,50.37 C238.945,50.8100022 238.99,51.1999983 239.08,51.54 C239.17,51.8800017 239.309999,52.1674988 239.5,52.4025 C239.690001,52.6375012 239.937498,52.8174994 240.2425,52.9425 C240.547502,53.0675006 240.919998,53.13 241.36,53.13 C241.700002,53.13 242.039998,53.0700006 242.38,52.95 C242.720002,52.8299994 242.974999,52.6900008 243.145,52.53 L243.595,53.4 Z M241.015,47.37 C240.424997,47.37 239.952502,47.5249984 239.5975,47.835 C239.242498,48.1450016 239.03,48.6749962 238.96,49.425 L242.68,49.425 C242.68,48.6649962 242.535001,48.1325015 242.245,47.8275 C241.954999,47.5224985 241.545003,47.37 241.015,47.37 Z M250.69,53.505 C250.389998,53.7250011 250.035002,53.8924994 249.625,54.0075 C249.214998,54.1225006 248.785002,54.18 248.335,54.18 C247.754997,54.18 247.265002,54.0875009 246.865,53.9025 C246.464998,53.7174991 246.137501,53.4525017 245.8825,53.1075 C245.627499,52.7624983 245.442501,52.3475024 245.3275,51.8625 C245.212499,51.3774976 245.155,50.8400029 245.155,50.25 C245.155,48.9799936 245.434997,48.0075034 245.995,47.3325 C246.555003,46.6574966 247.359995,46.32 248.41,46.32 C248.890002,46.32 249.297498,46.3574996 249.6325,46.4325 C249.967502,46.5075004 250.269999,46.6149993 250.54,46.755 L250.195,47.79 C249.964999,47.6599993 249.710001,47.5575004 249.43,47.4825 C249.149999,47.4074996 248.850002,47.37 248.53,47.37 C247.109993,47.37 246.4,48.3299904 246.4,50.25 C246.4,50.6300019 246.4375,50.9924983 246.5125,51.3375 C246.5875,51.6825017 246.712499,51.9874987 246.8875,52.2525 C247.062501,52.5175013 247.292499,52.7299992 247.5775,52.89 C247.862501,53.0500008 248.214998,53.13 248.635,53.13 C248.995002,53.13 249.317499,53.0750005 249.6025,52.965 C249.887501,52.8549995 250.119999,52.7300007 250.3,52.59 L250.69,53.505 Z M256.885,47.55 L254.53,47.55 L254.53,54 L253.33,54 L253.33,47.55 L250.975,47.55 L250.975,46.5 L256.885,46.5 L256.885,47.55 Z M262.66,50.685 L259.27,50.685 L259.27,54 L258.07,54 L258.07,46.5 L259.27,46.5 L259.27,49.635 L262.66,49.635 L262.66,46.5 L263.86,46.5 L263.86,54 L262.66,54 L262.66,50.685 Z M265.75,50.25 C265.75,48.9799936 266.032497,48.0075034 266.5975,47.3325 C267.162503,46.6574966 267.974995,46.32 269.035,46.32 C269.595003,46.32 270.082498,46.4124991 270.4975,46.5975 C270.912502,46.7825009 271.254999,47.0474983 271.525,47.3925 C271.795001,47.7375017 271.994999,48.1524976 272.125,48.6375 C272.255001,49.1225024 272.32,49.6599971 272.32,50.25 C272.32,51.5200064 272.037503,52.4924966 271.4725,53.1675 C270.907497,53.8425034 270.095005,54.18 269.035,54.18 C268.474997,54.18 267.987502,54.0875009 267.5725,53.9025 C267.157498,53.7174991 266.815001,53.4525017 266.545,53.1075 C266.274999,52.7624983 266.075001,52.3475024 265.945,51.8625 C265.814999,51.3774976 265.75,50.8400029 265.75,50.25 Z M266.995,50.25 C266.995,50.6300019 267.0325,50.9949983 267.1075,51.345 C267.1825,51.6950018 267.299999,51.9999987 267.46,52.26 C267.620001,52.5200013 267.829999,52.7299992 268.09,52.89 C268.350001,53.0500008 268.664998,53.13 269.035,53.13 C270.395007,53.14 271.075,52.1800097 271.075,50.25 C271.075,49.8599981 271.0375,49.4900017 270.9625,49.14 C270.8875,48.7899982 270.770001,48.4850013 270.61,48.225 C270.449999,47.9649987 270.240001,47.7575008 269.98,47.6025 C269.719999,47.4474992 269.405002,47.37 269.035,47.37 C267.674993,47.36 266.995,48.3199903 266.995,50.25 Z M283.33,53.505 C283.029998,53.7250011 282.675002,53.8924994 282.265,54.0075 C281.854998,54.1225006 281.425002,54.18 280.975,54.18 C280.394997,54.18 279.905002,54.0875009 279.505,53.9025 C279.104998,53.7174991 278.777501,53.4525017 278.5225,53.1075 C278.267499,52.7624983 278.082501,52.3475024 277.9675,51.8625 C277.852499,51.3774976 277.795,50.8400029 277.795,50.25 C277.795,48.9799936 278.074997,48.0075034 278.635,47.3325 C279.195003,46.6574966 279.999995,46.32 281.05,46.32 C281.530002,46.32 281.937498,46.3574996 282.2725,46.4325 C282.607502,46.5075004 282.909999,46.6149993 283.18,46.755 L282.835,47.79 C282.604999,47.6599993 282.350001,47.5575004 282.07,47.4825 C281.789999,47.4074996 281.490002,47.37 281.17,47.37 C279.749993,47.37 279.04,48.3299904 279.04,50.25 C279.04,50.6300019 279.0775,50.9924983 279.1525,51.3375 C279.2275,51.6825017 279.352499,51.9874987 279.5275,52.2525 C279.702501,52.5175013 279.932499,52.7299992 280.2175,52.89 C280.502501,53.0500008 280.854998,53.13 281.275,53.13 C281.635002,53.13 281.957499,53.0750005 282.2425,52.965 C282.527501,52.8549995 282.759999,52.7300007 282.94,52.59 L283.33,53.505 Z"/>
    <g fill-rule="nonzero" transform="translate(294 32)">
      <path fill="#37A72E" d="M59,10 L59,23 L65.943784,23 L65.943784,15.2962963 L73.8134058,15.2962963 C77.1255403,15.2707178 79.9390704,13.0701375 81,10 L59,10 Z"/>
      <path fill="url(#fasdfasdfasdfasd-a)" d="M57,0 C57.415725,5.0291131 62.3834874,9 68.4506419,9 C68.4704789,9 80.8605075,9 80.8605075,9 C80.9520794,8.53876776 81,8.06271974 81,7.57594937 C81,3.40995605 77.4905543,0.0308192155 73.1492167,0.000209612734 L57,0 Z"/>
      <path fill="#37A72E" d="M46.4635661 9.14713833L46.4688664 9.13531573 46.4695748 9.13549591C46.5389572 9.00597683 46.6719498 8.91836735 46.8246154 8.91836735 47.0451424 8.91836735 47.2246195 9.10117413 47.2306146 9.32904229L47.2307692 9.32908163 47.2307692 23 54 23 54 0 47.2307692 0C46.3723419.0297182606 45.4024978.684905616 45.0419321 1.48916374L39.6549273 13.505125C39.6416209 13.5542429 39.6208219 13.6000946 39.5938947 13.6412609L39.5920977 13.6452693 39.591396 13.645041C39.5098998 13.7670573 39.3741751 13.8469388 39.2205128 13.8469388 38.9712766 13.8469388 38.7692308 13.6367867 38.7692308 13.377551L38.7692308 0 32 0 32 23 38.7692308 23 38.7692308 22.9973738C39.6182472 22.9512527 40.5653253 22.3034343 40.9206635 21.5108363L46.4496741 9.17812489C46.4539115 9.16757216 46.4585487 9.15723651 46.4635661 9.14713833zM21.098169 9.54029272L17.0140205 23 11.987041 23 7.90041333 9.53212258C7.86100682 9.31645532 7.6734375 9.15306122 7.44799197 9.15306122 7.19391881 9.15306122 6.98795181 9.36058639 6.98795181 9.61658163 6.98795181 9.61853784 6.98796384 9.62049121 6.98798782 9.62244168L6.98795181 23 0 23 0 0 5.99799197 0 7.78431281 0C9.0701209 0 10.41755 1.00540667 10.7932935 2.24370579L14.1941505 13.4515596C14.3633597 14.0092047 14.6378837 14.0086054 14.806911 13.4515596L18.2077679 2.24370579C18.5837739 1.0045413 19.9307806 3.33520059e-15 21.2167486 3.33520059e-15L23.0025388 0 29 0 29 23 22.0120482 23 22.0120482 9.62244898C22.0120362 9.62049121 22.0120482 9.61853784 22.0120482 9.61658163 22.0120482 9.36058639 21.8060812 9.15306122 21.552008 9.15306122 21.3237242 9.15306122 21.1342763 9.32059536 21.098169 9.54029272z"/>
    </g>
    <path fill="#E20613" d="M25.2,0 C26.6,6.4 27.9,12.7 29.3,19.1 C35,19 38.3,20.5 39.3,23.6 C38.5,17 37.7,10.5 36.9,4 C36,-0.1 30.3,0.2 25.2,0 Z"/>
    <path fill="#A51611" d="M0,23.9 C9.9,4.3 33,16 37.2,5.2 C37.9,11.4 38.6,17.6 39.3,23.8 C40.2,32.1 19.7,25.8 11.5,44 C7.7,37.3 3.8,30.6 0,23.9 Z"/>
    <path fill="#E20613" d="M11.5,27.7 L18.7,49.3 C18.7,49.3 18.8,44.2 25.4,41.6 C32,39 38.3,40.7 46.1,37.7 C53.9,34.6 54.6,31.9 54.6,31.9 L54.6,2.7 C54.6,2.7 53.7,8.7 47.7,12.3 C41.7,16 35.7,16.2 28,17.4 C19.6,18.1 11,21.1 11.5,27.7 Z"/>
    <path fill="#EE7D00" d="M11.6,28.3 C13.3,32.7 17.4,34.5 25.8,33.2 L25.8,54 C23.5,53.9 21.1,52.5 18.7,49.4 L11.6,28.3 Z"/>
    <path fill="#1D1D1B" d="M45.9 47.5C45.9 45.6 45.4 44.1 44.3 43 44.2 42.9 43.9 42.7 43.5 42.3 43.3 42.2 43.1 42.1 43 42 42.4 41.7 42.2 41.5 42.1 41.5 42.2 41.4 42.2 41.4 42.3 41.3 44 40 44.9 38.4 44.9 36.7 44.9 34 43.9 32.3 41.8 31.5 41.2 31.3 40.6 31.1 40.1 31 39.5 30.9 39.2 30.8 39.1 30.8L31.2 30.8C30.9 30.8 30.7 31 30.7 31.3L30.7 53.2C30.7 53.6 30.9 53.9 31.2 53.9L39.8 53.9C42.6 53.9 44.5 52.7 45.5 50.3 45.8 49.5 45.9 48.5 45.9 47.5zM35.6 35.1C35.7 35.1 36 35.1 36.6 35.1 37.4 35.1 37.8 35.1 38 35.1 39.3 35.2 39.9 35.9 39.9 37.2 39.9 38.4 39.4 39.1 38.5 39.4 38.1 39.5 37.4 39.6 36.5 39.6 36 39.6 35.7 39.6 35.6 39.6L35.4 39.4 35.4 35.3 35.6 35.1zM35.6 44C35.7 44 36.1 44 36.6 44 37.7 44 38.5 44.1 38.8 44.2 40.1 44.7 40.7 45.6 40.7 46.9 40.7 48.7 39.8 49.6 38.1 49.7 37.9 49.7 37.4 49.7 36.6 49.7 36 49.7 35.7 49.7 35.6 49.7L35.4 49.5 35.4 44.2 35.6 44zM54.5 44.4L58.8 53.6C58.9 53.8 59.1 53.9 59.3 53.9L63.4 53.9C63.6 53.9 63.8 53.7 63.8 53.3 63.8 53 63.7 52.7 63.6 52.4L59.8 43.9C59.7 43.6 59.6 43.5 59.6 43.4 59.6 43.4 59.7 43.3 59.8 43.2 62 41.8 63.1 39.8 63.1 37.3 63.1 34.4 61.7 32.4 59 31.4 58.1 31.1 57.3 30.9 56.6 30.9L49 30.9C48.6 30.9 48.3 31.1 48.3 31.4L48.3 53.3C48.3 53.7 48.5 54 48.8 54L52.4 54C52.8 54 53 53.8 53 53.3L53 44.4 54.5 44.4zM55.9 35.1C57.3 35.1 58 35.9 58 37.6 58 38.8 57.5 39.6 56.4 39.9 56 40 55.3 40.1 54.3 40.1 53.8 40.1 53.4 40.1 53.3 40.1L53.1 39.9 53.1 35.1 55.9 35.1zM72.5 54.3C73.6 54.3 74.5 54.2 75.2 54 77.2 53.3 78.5 51.8 79.1 49.6 79.3 48.8 79.5 48.1 79.5 47.5L79.5 37.8C79.5 37.1 79.3 36.1 79 34.9 78.5 33 77.2 31.7 75.2 31 74.5 30.8 73.6 30.6 72.5 30.6 71.5 30.6 70.6 30.7 69.7 31 68.1 31.5 66.9 32.6 66.1 34.4 65.7 35.5 65.4 36.5 65.4 37.5L65.4 47.6C65.4 48.6 65.6 49.6 66.1 50.7 67.2 53 69.3 54.3 72.5 54.3zM72.5 50C71 50 70.3 49.1 70.3 47.4L70.3 37.3C70.3 35.6 71 34.7 72.5 34.7 74 34.7 74.7 35.6 74.7 37.3L74.7 47.4C74.7 49.2 73.9 50 72.5 50zM82.1 31.4L82.1 53.5 82.6 54 86 54 86.6 53.5 86.6 41.8 92 53.6C92.1 53.8 92.3 53.9 92.5 53.9L95.4 53.9 95.9 53.4 95.9 31.4 95.4 30.9 92 30.9 91.4 31.4 91.4 41.8 86.5 31.2C86.4 31 86.2 30.9 86 30.9L82.6 30.9 82.1 31.4zM98.7 31.4L98.7 53.3C98.7 53.7 98.9 54 99.2 54L111.2 54C111.6 54 111.7 53.9 111.7 53.7L111.7 50.3 111.3 49.9 103.4 49.9 103.4 44.3 103.6 44 109.1 44 109.5 43.6 109.5 40.2 109.1 39.8 103.5 39.8 103.5 35.4 103.7 35.2 110.9 35.2C111.2 35.2 111.4 35 111.4 34.6L111.4 31.5 110.9 31 99.2 31 98.7 31.4zM113.3 31.9L118.1 53.3C118.2 53.7 118.4 54 118.6 54L123.2 54C123.5 54 123.7 53.7 123.9 53L128.7 31.8C128.7 31.8 128.7 31.6 128.7 31.5 128.7 31.2 128.6 31 128.5 31L124.7 31C124.3 31 124.1 31.2 124 31.7L121.3 44C121.2 44.4 121.2 44.5 121.1 44.5 121 44.5 120.9 44.4 120.8 44.1L117.9 31.4C117.8 31 117.6 30.7 117.2 30.7L113.3 30.7 113.3 31.9zM130.3 31.4L130.3 53.3C130.3 53.7 130.5 54 130.8 54L134.4 54C134.7 54 134.9 53.8 134.9 53.3L134.9 31.4 134.4 30.9 130.8 30.9 130.3 31.4zM138 31.4L138 53.5 138.5 54 142.1 54C142.5 54 142.7 53.8 142.7 53.3L142.7 45.6 144 43.9 144.2 43.9 148.7 53.1C149 53.7 149.2 53.9 149.5 53.9L153.3 53.9C153.6 53.9 153.8 53.6 153.8 53.1 153.8 52.9 153.7 52.6 153.6 52.3L147.4 39.1 152.6 31.8C152.7 31.6 152.8 31.4 152.8 31.3 152.8 31 152.7 30.8 152.5 30.8L148.4 30.8C148 30.8 147.7 31 147.4 31.5L142.9 38 142.9 31.3 142.3 30.8 138.7 30.8 138 31.4zM160.2 53.8C160.2 54.1 160.1 54.2 160 54.3 159.9 54.4 159.7 54.4 159.5 54.4L157.5 54.4C157.2 54.4 157 54.3 157 54.2 156.9 54.1 156.9 53.9 156.9 53.7L156.9 51.7C156.9 51.4 157 51.3 157.1 51.2 157.2 51.1 157.4 51.1 157.6 51.1L159.6 51.1C159.9 51.1 160.1 51.2 160.1 51.3 160.2 51.4 160.2 51.6 160.2 51.8L160.2 53.8zM169.2 53.7C169.2 54 169.1 54.2 168.9 54.3 168.5 54.5 167.8 54.6 166.7 54.6 164.7 54.6 163.3 54 162.6 52.9 162.2 52.3 162 51.3 162 50L162 46C162 44.7 162.2 43.7 162.7 43 163.4 42 164.7 41.5 166.6 41.5 167.7 41.5 168.4 41.6 168.8 41.8 169 41.9 169.1 42.1 169.1 42.4L169.1 44.2C169.1 44.5 169 44.7 168.7 44.7 168.4 44.7 168.1 44.7 167.8 44.6 167.4 44.5 167.1 44.5 166.9 44.5 166.2 44.5 165.7 44.7 165.4 45.1 165.2 45.4 165.1 45.8 165.1 46.4L165.1 49.8C165.1 50.3 165.2 50.7 165.3 51 165.6 51.5 166.1 51.7 166.8 51.7L167.8 51.6C167.9 51.6 168 51.6 168.2 51.5 168.4 51.5 168.5 51.4 168.6 51.4 168.8 51.4 168.9 51.4 168.9 51.5 169 51.6 169 51.7 169 51.8L169 53.7 169.2 53.7zM179.4 50C179.4 51.2 179.2 52.2 178.7 52.9 178 54 176.8 54.5 175.1 54.5 173.4 54.5 172.2 54 171.5 52.9 171 52.2 170.8 51.2 170.8 50L170.8 46.1C170.8 44.9 171 43.9 171.5 43.2 172.2 42.1 173.4 41.6 175.1 41.6 176.8 41.6 178 42.1 178.7 43.2 179.2 43.9 179.4 44.9 179.4 46.1L179.4 50zM176.3 50.5L176.3 45.6C176.3 45 176.2 44.6 175.9 44.4 175.7 44.2 175.4 44.1 175 44.1 174.7 44.1 174.4 44.2 174.2 44.4 173.9 44.7 173.8 45.1 173.8 45.6L173.8 50.5C173.8 51.1 173.9 51.5 174.2 51.7 174.4 51.9 174.7 52 175 52 175.3 52 175.6 51.9 175.8 51.7 176.1 51.5 176.3 51.1 176.3 50.5zM194.8 53.8C194.8 54.1 194.7 54.2 194.6 54.3 194.5 54.4 194.3 54.4 194.1 54.4L192.3 54.4C192.1 54.4 191.9 54.4 191.8 54.3 191.7 54.2 191.6 54 191.6 53.8L191.6 45.6C191.6 45.3 191.5 45 191.3 44.8 191.1 44.6 190.8 44.5 190.5 44.5 190 44.5 189.7 44.7 189.5 45.1 189.4 45.3 189.4 45.7 189.4 46.2L189.4 53.8C189.4 54.1 189.3 54.2 189.2 54.3 189.1 54.4 188.9 54.4 188.7 54.4L187 54.4C186.7 54.4 186.6 54.3 186.5 54.2 186.4 54.1 186.4 53.9 186.4 53.7L186.4 45.5C186.4 45.2 186.3 44.9 186.1 44.7 185.9 44.5 185.6 44.4 185.3 44.4 184.8 44.4 184.5 44.6 184.3 45 184.2 45.2 184.2 45.6 184.2 46.1L184.2 53.7C184.2 54 184.1 54.1 184 54.2 183.9 54.3 183.7 54.3 183.5 54.3L181.7 54.3C181.4 54.3 181.2 54.2 181.2 54.1 181.1 54 181.1 53.8 181.1 53.6L181.1 42.4C181.1 42.1 181.2 42 181.3 41.9 181.4 41.8 181.6 41.8 181.8 41.8L183.8 41.8C183.9 41.8 184 41.8 184.1 41.9 184.2 42 184.2 42.1 184.2 42.2 184.2 42.4 184.2 42.4 184.3 42.4 184.3 42.4 184.4 42.4 184.5 42.3 184.8 42 185.2 41.8 185.5 41.7 185.8 41.6 186.2 41.5 186.5 41.5 186.9 41.5 187.3 41.6 187.7 41.8 188 41.9 188.3 42.1 188.6 42.4 188.8 42.5 188.9 42.6 189 42.6 189.1 42.6 189.2 42.5 189.4 42.4 189.8 42.1 190.2 41.8 190.6 41.7 191 41.6 191.4 41.5 191.9 41.5 192.7 41.5 193.4 41.7 193.9 42.2 194.5 42.8 194.8 43.7 194.8 44.9L194.8 53.8zM30.9 68.2L30.9 61.8 33.3 61.8C33.7 61.8 34.1 61.8 34.3 61.9 34.6 62 34.9 62.1 35.1 62.2 35.3 62.3 35.5 62.6 35.6 62.8 35.7 63.1 35.8 63.4 35.8 63.7 35.8 64.2 35.6 64.7 35.3 65.1 35 65.5 34.3 65.7 33.4 65.7L31.8 65.7 31.8 68.3 30.9 68.3 30.9 68.2zM31.8 64.9L33.5 64.9C34 64.9 34.4 64.8 34.7 64.6 34.9 64.4 35 64.1 35 63.7 35 63.4 34.9 63.2 34.8 63 34.7 62.8 34.5 62.7 34.3 62.6 34.2 62.6 33.9 62.5 33.5 62.5L31.9 62.5 31.9 64.9 31.8 64.9zM39.6 66.7L40.4 66.8C40.3 67.3 40 67.6 39.7 67.9 39.4 68.2 38.9 68.3 38.4 68.3 37.7 68.3 37.2 68.1 36.8 67.7 36.4 67.3 36.2 66.7 36.2 65.9 36.2 65.1 36.4 64.5 36.8 64.1 37.2 63.7 37.7 63.5 38.4 63.5 39 63.5 39.5 63.7 39.9 64.1 40.3 64.5 40.5 65.1 40.5 65.9 40.5 65.9 40.5 66 40.5 66.1L37 66.1C37 66.6 37.2 67 37.4 67.3 37.7 67.6 38 67.7 38.4 67.7 38.7 67.7 38.9 67.6 39.1 67.5 39.3 67.3 39.4 67.1 39.6 66.7zM37 65.5L39.6 65.5C39.6 65.1 39.5 64.8 39.3 64.6 39.1 64.3 38.7 64.1 38.3 64.1 37.9 64.1 37.6 64.2 37.4 64.5 37.2 64.7 37 65.1 37 65.5zM41.4 63.6L43.2 63.6C43.6 63.6 44 63.6 44.2 63.7 44.4 63.8 44.6 63.9 44.8 64.1 45 64.3 45 64.5 45 64.8 45 65 45 65.2 44.9 65.4 44.8 65.6 44.7 65.7 44.5 65.8 44.7 65.9 44.9 66 45 66.2 45.1 66.4 45.2 66.6 45.2 66.9 45.2 67.3 45 67.7 44.7 67.9 44.4 68.1 44 68.2 43.5 68.2L41.4 68.2 41.4 63.6zM42.2 65.5L43 65.5C43.3 65.5 43.6 65.5 43.7 65.4 43.8 65.4 43.9 65.3 44 65.2 44.1 65.1 44.1 65 44.1 64.8 44.1 64.6 44 64.4 43.8 64.3 43.6 64.2 43.3 64.2 42.9 64.2L42 64.2 42 65.5 42.2 65.5zM42.2 67.6L43.2 67.6C43.6 67.6 44 67.5 44.1 67.4 44.3 67.3 44.4 67.1 44.4 66.9 44.4 66.8 44.4 66.6 44.3 66.5 44.2 66.4 44.1 66.3 43.9 66.3 43.7 66.3 43.5 66.2 43.2 66.2L42.2 66.2 42.2 67.6zM45.7 65.9C45.7 65 45.9 64.4 46.4 64 46.8 63.7 47.3 63.5 47.9 63.5 48.5 63.5 49.1 63.7 49.5 64.1 49.9 64.5 50.1 65.1 50.1 65.8 50.1 66.4 50 66.9 49.8 67.2 49.6 67.5 49.4 67.8 49 68 48.7 68.2 48.3 68.3 47.9 68.3 47.2 68.3 46.7 68.1 46.3 67.7 45.9 67.3 45.7 66.7 45.7 65.9zM46.6 65.9C46.6 66.5 46.7 66.9 47 67.2 47.3 67.5 47.6 67.6 48 67.6 48.4 67.6 48.7 67.5 49 67.2 49.3 66.9 49.4 66.5 49.4 65.8 49.4 65.2 49.3 64.8 49 64.5 48.7 64.2 48.4 64.1 48 64.1 47.6 64.1 47.3 64.2 47 64.5 46.7 64.9 46.6 65.3 46.6 65.9zM51.2 63.6L54.9 63.6 54.9 68.2 54.1 68.2 54.1 64.2 52 64.2 52 66.5C52 67 52 67.4 51.9 67.6 51.9 67.8 51.8 67.9 51.6 68 51.4 68.1 51.2 68.2 50.9 68.2 50.7 68.2 50.5 68.2 50.3 68.2L50.3 67.5 50.6 67.5C50.8 67.5 50.9 67.5 50.9 67.4 51 67.4 51 67.3 51 67.2 51 67.1 51 66.9 51 66.5L51 63.6 51.2 63.6zM56.1 63.6L56.9 63.6 56.9 65.5 57.9 65.5C58 64.8 58.2 64.3 58.5 64 58.8 63.7 59.3 63.5 59.8 63.5 60.3 63.5 60.6 63.6 60.9 63.8 61.2 64 61.4 64.2 61.6 64.6 61.8 64.9 61.9 65.4 61.9 65.9 61.9 66.7 61.7 67.3 61.4 67.7 61 68.1 60.5 68.3 59.9 68.3 59.3 68.3 58.9 68.1 58.5 67.7 58.2 67.3 58 66.8 57.9 66.1L56.9 66.1 56.9 68.2 56.1 68.2 56.1 63.6zM59.8 64.2C59.4 64.2 59.1 64.3 58.9 64.6 58.7 64.9 58.6 65.3 58.6 65.8 58.6 66.4 58.7 66.9 58.9 67.2 59.1 67.5 59.4 67.6 59.8 67.6 60.2 67.6 60.5 67.5 60.7 67.2 60.9 66.9 61 66.5 61 65.9 61 65.3 60.9 64.9 60.7 64.6 60.5 64.3 60.2 64.2 59.8 64.2zM62.8 63.6L63.6 63.6 63.6 67.6 65.8 67.6 65.8 63.6 66.6 63.6 66.6 67.6 67.1 67.6 67.1 69.6 66.5 69.6 66.5 68.3 62.9 68.3 62.9 63.6 62.8 63.6zM67.9 63.6L68.7 63.6 68.7 67.1 70.9 63.6 71.7 63.6 71.7 68.2 70.9 68.2 70.9 64.7 68.7 68.2 67.9 68.2 67.9 63.6zM72.6 65.9C72.6 65 72.8 64.4 73.3 64 73.7 63.7 74.2 63.5 74.8 63.5 75.4 63.5 76 63.7 76.4 64.1 76.8 64.5 77 65.1 77 65.8 77 66.4 76.9 66.9 76.7 67.2 76.5 67.5 76.3 67.8 75.9 68 75.6 68.2 75.2 68.3 74.8 68.3 74.1 68.3 73.6 68.1 73.2 67.7 72.8 67.3 72.6 66.7 72.6 65.9zM73.4 65.9C73.4 66.5 73.5 66.9 73.8 67.2 74.1 67.5 74.4 67.6 74.8 67.6 75.2 67.6 75.5 67.5 75.8 67.2 76.1 66.9 76.2 66.5 76.2 65.8 76.2 65.2 76.1 64.8 75.8 64.5 75.5 64.2 75.2 64.1 74.8 64.1 74.4 64.1 74.1 64.2 73.8 64.5 73.6 64.9 73.4 65.3 73.4 65.9zM77.9 63.6L78.7 63.6 78.7 65.5 80.9 65.5 80.9 63.6 81.7 63.6 81.7 68.2 80.9 68.2 80.9 66.1 78.7 66.1 78.7 68.2 77.9 68.2 77.9 63.6zM82.8 63.6L83.6 63.6 83.6 65.5 85.8 65.5 85.8 63.6 86.6 63.6 86.6 68.2 85.8 68.2 85.8 66.1 83.6 66.1 83.6 68.2 82.8 68.2 82.8 63.6zM90.8 67.6C90.5 67.8 90.2 68 90 68.1 89.8 68.2 89.4 68.3 89.1 68.3 88.6 68.3 88.2 68.2 87.9 67.9 87.6 67.7 87.5 67.3 87.5 67 87.5 66.8 87.6 66.6 87.7 66.4 87.8 66.2 87.9 66.1 88.1 66 88.3 65.9 88.5 65.8 88.7 65.7 88.9 65.7 89.1 65.6 89.4 65.6 90 65.5 90.5 65.4 90.8 65.3 90.8 65.2 90.8 65.1 90.8 65.1 90.8 64.8 90.7 64.6 90.6 64.4 90.4 64.2 90.1 64.1 89.7 64.1 89.3 64.1 89.1 64.2 88.9 64.3 88.7 64.4 88.6 64.7 88.5 65L87.7 64.9C87.8 64.6 87.9 64.3 88 64.1 88.2 63.9 88.4 63.7 88.7 63.6 89 63.5 89.4 63.4 89.8 63.4 90.2 63.4 90.5 63.4 90.8 63.5 91 63.6 91.2 63.7 91.3 63.9 91.4 64 91.5 64.2 91.5 64.4 91.5 64.5 91.5 64.8 91.5 65.1L91.5 66.1C91.5 66.8 91.5 67.3 91.5 67.5 91.5 67.7 91.6 67.9 91.7 68.1L91 68.1C90.9 68.1 90.9 67.9 90.8 67.6zM90.8 65.9C90.5 66 90.1 66.1 89.5 66.2 89.2 66.2 88.9 66.3 88.8 66.4 88.7 66.5 88.6 66.5 88.5 66.7 88.4 66.8 88.4 66.9 88.4 67.1 88.4 67.3 88.5 67.5 88.6 67.6 88.8 67.7 89 67.8 89.3 67.8 89.6 67.8 89.9 67.7 90.1 67.6 90.3 67.5 90.5 67.3 90.6 67.1 90.7 66.9 90.7 66.7 90.7 66.3L90.8 65.9zM96.4 63.6L96.4 68.2 95.6 68.2 95.6 66.4 95.1 66.4C94.8 66.4 94.6 66.4 94.5 66.5 94.4 66.6 94.2 66.8 93.9 67.2L93.2 68.2 92.2 68.2 93.1 67C93.4 66.6 93.6 66.4 93.9 66.4 93.5 66.3 93.1 66.2 92.9 65.9 92.7 65.6 92.6 65.3 92.6 65 92.6 64.6 92.7 64.3 93 64 93.3 63.7 93.7 63.6 94.2 63.6L96.4 63.6zM95.7 64.2L94.6 64.2C94.1 64.2 93.8 64.3 93.7 64.4 93.6 64.5 93.5 64.7 93.5 64.9 93.5 65.2 93.6 65.4 93.8 65.5 94 65.6 94.4 65.7 94.9 65.7L95.8 65.7 95.8 64.2 95.7 64.2zM103.2 66.5L104 66.6C103.9 67.1 103.7 67.5 103.4 67.8 103.1 68.1 102.6 68.2 102.1 68.2 101.5 68.2 101 68 100.6 67.6 100.2 67.2 100 66.6 100 65.8 100 65.3 100.1 64.9 100.2 64.5 100.4 64.1 100.6 63.8 101 63.7 101.3 63.5 101.7 63.4 102.1 63.4 102.6 63.4 103 63.5 103.3 63.8 103.6 64.1 103.8 64.4 103.9 64.9L103.1 65C103 64.7 102.9 64.5 102.7 64.3 102.5 64.1 102.3 64.1 102 64.1 101.6 64.1 101.3 64.2 101 64.5 100.8 64.8 100.6 65.2 100.6 65.8 100.6 66.4 100.7 66.9 101 67.2 101.2 67.5 101.6 67.6 101.9 67.6 102.2 67.6 102.5 67.5 102.7 67.3 103 67.2 103.1 66.9 103.2 66.5zM104.6 63.6L105.4 63.6 105.4 67.1 107.6 63.6 108.4 63.6 108.4 68.2 107.6 68.2 107.6 64.7 105.4 68.2 104.6 68.2 104.6 63.6zM112.6 66.5L113.4 66.6C113.3 67.1 113.1 67.5 112.8 67.8 112.5 68.1 112 68.2 111.5 68.2 110.9 68.2 110.4 68 110 67.6 109.6 67.2 109.4 66.6 109.4 65.8 109.4 65.3 109.5 64.9 109.6 64.5 109.8 64.1 110 63.8 110.4 63.7 110.7 63.5 111.1 63.4 111.5 63.4 112 63.4 112.4 63.5 112.7 63.8 113 64.1 113.2 64.4 113.3 64.9L112.5 65C112.4 64.7 112.3 64.5 112.1 64.3 111.9 64.1 111.7 64.1 111.4 64.1 111 64.1 110.7 64.2 110.4 64.5 110.2 64.8 110 65.2 110 65.8 110 66.4 110.1 66.9 110.4 67.2 110.6 67.5 111 67.6 111.3 67.6 111.6 67.6 111.9 67.5 112.1 67.3 112.5 67.2 112.6 66.9 112.6 66.5zM113.7 63.6L117.5 63.6 117.5 64.3 116 64.3 116 68.3 115.2 68.3 115.2 64.3 113.7 64.3 113.7 63.6zM121.3 66.7L122.1 66.8C122 67.3 121.7 67.6 121.4 67.9 121.1 68.2 120.6 68.3 120.1 68.3 119.4 68.3 118.9 68.1 118.5 67.7 118.1 67.3 117.9 66.7 117.9 65.9 117.9 65.1 118.1 64.5 118.5 64.1 118.9 63.7 119.4 63.5 120.1 63.5 120.7 63.5 121.2 63.7 121.6 64.1 122 64.5 122.2 65.1 122.2 65.9 122.2 65.9 122.2 66 122.2 66.1L118.7 66.1C118.7 66.6 118.9 67 119.1 67.3 119.4 67.6 119.7 67.7 120.1 67.7 120.4 67.7 120.6 67.6 120.8 67.5 121 67.3 121.1 67.1 121.3 66.7zM118.7 65.5L121.3 65.5C121.3 65.1 121.2 64.8 121 64.6 120.8 64.3 120.4 64.1 120 64.1 119.6 64.1 119.3 64.2 119.1 64.5 118.8 64.7 118.7 65.1 118.7 65.5zM123.1 63.6L124.3 63.6 125.5 67.3 126.9 63.6 128 63.6 128 68.2 127.2 68.2 127.2 64.5 125.8 68.2 125.1 68.2 123.8 64.3 123.8 68.2 123 68.2 123 63.6 123.1 63.6zM132.3 67.6C132 67.8 131.7 68 131.5 68.1 131.2 68.2 130.9 68.3 130.6 68.3 130.1 68.3 129.7 68.2 129.4 67.9 129.1 67.7 129 67.3 129 67 129 66.8 129.1 66.6 129.2 66.4 129.3 66.2 129.4 66.1 129.6 66 129.8 65.9 130 65.8 130.2 65.7 130.4 65.7 130.6 65.6 130.9 65.6 131.5 65.5 132 65.4 132.3 65.3 132.3 65.2 132.3 65.1 132.3 65.1 132.3 64.8 132.2 64.6 132.1 64.4 131.9 64.2 131.6 64.1 131.2 64.1 130.8 64.1 130.6 64.2 130.4 64.3 130.2 64.4 130.1 64.7 130 65L129.2 64.9C129.3 64.6 129.4 64.3 129.5 64.1 129.7 63.9 129.9 63.7 130.2 63.6 130.5 63.5 130.9 63.4 131.3 63.4 131.7 63.4 132 63.4 132.3 63.5 132.5 63.6 132.7 63.7 132.8 63.9 132.9 64 133 64.2 133 64.4 133 64.5 133 64.8 133 65.1L133 66.1C133 66.8 133 67.3 133 67.5 133 67.7 133.1 67.9 133.2 68.1L132.4 68.1C132.4 68.1 132.3 67.9 132.3 67.6zM132.2 65.9C131.9 66 131.5 66.1 130.9 66.2 130.6 66.2 130.3 66.3 130.2 66.4 130.1 66.5 130 66.5 129.9 66.7 129.8 66.8 129.8 66.9 129.8 67.1 129.8 67.3 129.9 67.5 130 67.6 130.2 67.7 130.4 67.8 130.7 67.8 131 67.8 131.3 67.7 131.5 67.6 131.7 67.5 131.9 67.3 132 67.1 132.1 66.9 132.1 66.7 132.1 66.3L132.2 65.9zM140.1 61.7L140.8 61.7C140.8 62 140.7 62.2 140.6 62.4 140.5 62.5 140.4 62.6 140.2 62.6 140 62.6 139.7 62.7 139.2 62.7 138.6 62.7 138.1 62.8 137.9 62.9 137.7 63 137.5 63.2 137.4 63.5 137.3 63.8 137.2 64.1 137.2 64.6 137.4 64.3 137.6 64.1 137.9 63.9 138.2 63.8 138.5 63.7 138.8 63.7 139.4 63.7 139.9 63.9 140.3 64.3 140.7 64.7 140.9 65.3 140.9 66 140.9 66.5 140.8 67 140.6 67.3 140.4 67.6 140.2 67.9 139.9 68.1 139.6 68.3 139.2 68.4 138.8 68.4 138.2 68.4 137.8 68.3 137.5 68 137.2 67.7 137 67.4 136.8 67 136.6 66.6 136.6 65.9 136.6 65 136.6 63.8 136.8 63 137.2 62.5 137.6 62.1 138.3 61.9 139.1 61.9 139.6 61.9 139.9 61.9 140 61.9 140 61.8 140.1 61.7 140.1 61.7zM140.1 65.9C140.1 65.4 140 65 139.8 64.7 139.6 64.4 139.2 64.2 138.8 64.2 138.4 64.2 138 64.4 137.8 64.7 137.6 65 137.4 65.5 137.4 66 137.4 66.5 137.5 66.9 137.8 67.2 138.1 67.5 138.4 67.6 138.8 67.6 139.2 67.6 139.5 67.4 139.8 67.1 140 66.9 140.1 66.4 140.1 65.9zM141.8 70L141.8 63.6 142.5 63.6 142.5 64.2C142.7 64 142.9 63.8 143.1 63.7 143.3 63.6 143.6 63.5 143.9 63.5 144.3 63.5 144.6 63.6 145 63.8 145.3 64 145.5 64.3 145.7 64.7 145.9 65.1 145.9 65.5 145.9 65.9 145.9 66.4 145.8 66.8 145.6 67.2 145.4 67.6 145.2 67.9 144.9 68.1 144.6 68.3 144.2 68.4 143.9 68.4 143.6 68.4 143.4 68.3 143.2 68.2 143 68.1 142.8 68 142.7 67.8L142.7 70 141.8 70zM142.6 65.9C142.6 66.5 142.7 66.9 143 67.2 143.2 67.5 143.5 67.6 143.9 67.6 144.2 67.6 144.5 67.5 144.8 67.2 145 66.9 145.2 66.4 145.2 65.8 145.2 65.2 145.1 64.8 144.8 64.5 144.6 64.2 144.3 64.1 143.9 64.1 143.6 64.1 143.3 64.3 143 64.6 142.7 64.9 142.6 65.3 142.6 65.9zM146.5 65.9C146.5 65 146.7 64.4 147.2 64 147.6 63.7 148.1 63.5 148.7 63.5 149.3 63.5 149.9 63.7 150.3 64.1 150.7 64.5 150.9 65.1 150.9 65.8 150.9 66.4 150.8 66.9 150.6 67.2 150.4 67.5 150.2 67.8 149.8 68 149.5 68.2 149.1 68.3 148.7 68.3 148 68.3 147.5 68.1 147.1 67.7 146.7 67.3 146.5 66.7 146.5 65.9zM147.3 65.9C147.3 66.5 147.4 66.9 147.7 67.2 148 67.5 148.3 67.6 148.7 67.6 149.1 67.6 149.4 67.5 149.7 67.2 150 66.9 150.1 66.5 150.1 65.8 150.1 65.2 150 64.8 149.7 64.5 149.4 64.2 149.1 64.1 148.7 64.1 148.3 64.1 148 64.2 147.7 64.5 147.5 64.9 147.3 65.3 147.3 65.9zM151.8 63.6L152.6 63.6 152.6 65.5 154.8 65.5 154.8 63.6 155.6 63.6 155.6 68.2 154.8 68.2 154.8 66.1 152.6 66.1 152.6 68.2 151.8 68.2 151.8 63.6zM156.8 63.6L157.6 63.6 157.6 67.1 159.8 63.6 160.6 63.6 160.6 68.2 159.8 68.2 159.8 64.7 157.6 68.2 156.8 68.2 156.8 63.6zM161.8 70L161.8 63.6 162.5 63.6 162.5 64.2C162.7 64 162.9 63.8 163.1 63.7 163.3 63.6 163.6 63.5 163.9 63.5 164.3 63.5 164.6 63.6 164.9 63.8 165.2 64 165.4 64.3 165.6 64.7 165.8 65.1 165.8 65.5 165.8 65.9 165.8 66.4 165.7 66.8 165.5 67.2 165.3 67.6 165.1 67.9 164.8 68.1 164.5 68.3 164.1 68.4 163.8 68.4 163.5 68.4 163.3 68.3 163.1 68.2 162.9 68.1 162.7 68 162.6 67.8L162.6 70 161.8 70zM162.5 65.9C162.5 66.5 162.6 66.9 162.9 67.2 163.1 67.5 163.4 67.6 163.8 67.6 164.1 67.6 164.4 67.5 164.7 67.2 164.9 66.9 165.1 66.4 165.1 65.8 165.1 65.2 165 64.8 164.7 64.5 164.5 64.2 164.2 64.1 163.8 64.1 163.5 64.1 163.2 64.3 162.9 64.6 162.6 64.9 162.5 65.3 162.5 65.9zM166.5 65.9C166.5 65 166.7 64.4 167.2 64 167.6 63.7 168.1 63.5 168.7 63.5 169.3 63.5 169.9 63.7 170.3 64.1 170.7 64.5 170.9 65.1 170.9 65.8 170.9 66.4 170.8 66.9 170.6 67.2 170.4 67.5 170.2 67.8 169.8 68 169.5 68.2 169.1 68.3 168.7 68.3 168 68.3 167.5 68.1 167.1 67.7 166.7 67.3 166.5 66.7 166.5 65.9zM167.3 65.9C167.3 66.5 167.4 66.9 167.7 67.2 168 67.5 168.3 67.6 168.7 67.6 169.1 67.6 169.4 67.5 169.7 67.2 170 66.9 170.1 66.5 170.1 65.8 170.1 65.2 170 64.8 169.7 64.5 169.4 64.2 169.1 64.1 168.7 64.1 168.3 64.1 168 64.2 167.7 64.5 167.4 64.9 167.3 65.3 167.3 65.9zM171.7 63.6L173.5 63.6C173.9 63.6 174.3 63.6 174.5 63.7 174.7 63.8 174.9 63.9 175.1 64.1 175.3 64.3 175.3 64.5 175.3 64.8 175.3 65 175.3 65.2 175.2 65.4 175.1 65.6 175 65.7 174.8 65.8 175 65.9 175.2 66 175.3 66.2 175.4 66.4 175.5 66.6 175.5 66.9 175.5 67.3 175.3 67.7 175 67.9 174.7 68.1 174.3 68.2 173.8 68.2L171.7 68.2 171.7 63.6zM172.5 65.5L173.3 65.5C173.6 65.5 173.9 65.5 174 65.4 174.1 65.4 174.2 65.3 174.3 65.2 174.4 65.1 174.4 65 174.4 64.8 174.4 64.6 174.3 64.4 174.1 64.3 173.9 64.2 173.6 64.2 173.2 64.2L172.3 64.2 172.3 65.5 172.5 65.5zM172.5 67.6L173.5 67.6C173.9 67.6 174.3 67.5 174.4 67.4 174.6 67.3 174.7 67.1 174.7 66.9 174.7 66.8 174.7 66.6 174.6 66.5 174.5 66.4 174.4 66.3 174.2 66.3 174 66.3 173.8 66.2 173.5 66.2L172.5 66.2 172.5 67.6zM179.4 67.6C179.1 67.8 178.8 68 178.6 68.1 178.3 68.2 178 68.3 177.7 68.3 177.2 68.3 176.8 68.2 176.5 67.9 176.2 67.7 176.1 67.3 176.1 67 176.1 66.8 176.2 66.6 176.3 66.4 176.4 66.2 176.5 66.1 176.7 66 176.9 65.9 177.1 65.8 177.3 65.7 177.5 65.7 177.7 65.6 178 65.6 178.6 65.5 179.1 65.4 179.4 65.3 179.4 65.2 179.4 65.1 179.4 65.1 179.4 64.8 179.3 64.6 179.2 64.4 179 64.2 178.7 64.1 178.3 64.1 177.9 64.1 177.7 64.2 177.5 64.3 177.3 64.4 177.2 64.7 177.1 65L176.3 64.9C176.4 64.6 176.5 64.3 176.6 64.1 176.8 63.9 177 63.7 177.3 63.6 177.6 63.5 178 63.4 178.4 63.4 178.8 63.4 179.1 63.4 179.4 63.5 179.6 63.6 179.8 63.7 179.9 63.9 180 64 180.1 64.2 180.1 64.4 180.1 64.5 180.1 64.8 180.1 65.1L180.1 66.1C180.1 66.8 180.1 67.3 180.1 67.5 180.1 67.7 180.2 67.9 180.3 68.1L179.5 68.1C179.5 68.1 179.5 67.9 179.4 67.6zM179.4 65.9C179.1 66 178.7 66.1 178.1 66.2 177.8 66.2 177.5 66.3 177.4 66.4 177.3 66.5 177.2 66.5 177.1 66.7 177 66.8 177 66.9 177 67.1 177 67.3 177.1 67.5 177.2 67.6 177.4 67.7 177.6 67.8 177.9 67.8 178.2 67.8 178.5 67.7 178.7 67.6 178.9 67.5 179.1 67.3 179.2 67.1 179.3 66.9 179.3 66.7 179.3 66.3L179.4 65.9zM181.4 63.6L182.2 63.6 182.2 65.5 184.4 65.5 184.4 63.6 185.2 63.6 185.2 68.2 184.4 68.2 184.4 66.1 182.2 66.1 182.2 68.2 181.4 68.2 181.4 63.6zM186.3 63.6L187.1 63.6 187.1 67.1 189.3 63.6 190.1 63.6 190.1 68.2 189.3 68.2 189.3 64.7 187.1 68.2 186.3 68.2 186.3 63.6zM195 63.6L195 68.2 194.2 68.2 194.2 66.4 193.7 66.4C193.4 66.4 193.2 66.4 193.1 66.5 193 66.6 192.8 66.8 192.5 67.2L191.8 68.2 190.8 68.2 191.7 67C192 66.6 192.2 66.4 192.5 66.4 192.1 66.3 191.7 66.2 191.5 65.9 191.3 65.6 191.2 65.3 191.2 65 191.2 64.6 191.3 64.3 191.6 64 191.9 63.7 192.3 63.6 192.8 63.6L195 63.6zM194.2 64.2L193.1 64.2C192.6 64.2 192.3 64.3 192.2 64.4 192.1 64.5 192 64.7 192 64.9 192 65.2 192.1 65.4 192.3 65.5 192.5 65.6 192.9 65.7 193.4 65.7L194.3 65.7 194.3 64.2 194.2 64.2z"/>
  </g>
</svg>
