<?xml version="1.0" encoding="utf-8"?>
<!-- Generator: Adobe Illustrator 23.0.0, SVG Export Plug-In . SVG Version: 6.00 Build 0)  -->
<svg version="1.1" id="Capa_1" xmlns="http://www.w3.org/2000/svg" xmlns:xlink="http://www.w3.org/1999/xlink" x="0px" y="0px"
	 viewBox="0 0 20 20" style="enable-background:new 0 0 20 20;" xml:space="preserve">
<style type="text/css">
	.st0{fill:none;}
	.st1{fill:#999999;}
</style>
<rect y="0" class="st0" width="20" height="20"/>
<path class="st1" d="M20,10c0-2.5-0.9-4.7-2.4-6.5c0,0,0,0,0,0S15.1,0,10,0C9.7,0,9.3,0,9,0c-0.1,0-0.2,0-0.3,0
	c-0.2,0-0.5,0.1-0.7,0.1c-0.1,0-0.2,0-0.3,0.1c-0.2,0-0.4,0.1-0.6,0.1C7.1,0.4,7,0.5,6.9,0.5C6.7,0.6,6.5,0.6,6.4,0.7
	C6.2,0.8,6,0.8,5.8,0.9C5.7,1,5.5,1.1,5.4,1.1C5.3,1.2,5.1,1.3,5,1.3C4.9,1.4,4.8,1.5,4.6,1.6C4.5,1.6,4.4,1.7,4.3,1.8
	C4.1,1.9,3.9,2.1,3.7,2.2c0,0-0.1,0-0.1,0.1C2.8,3,2.4,3.5,2.4,3.5s0,0,0,0C0.9,5.3,0,7.5,0,10c0,2.5,0.9,4.7,2.4,6.5c0,0,0,0,0,0
	S4.7,20,10,20c5.2,0,7.6-3.5,7.6-3.5s0,0,0,0C19.1,14.7,20,12.5,20,10z M4.5,10.5c0,1.4,0.2,2.7,0.5,3.8c-0.9,0.5-1.5,1-2,1.4
	c-1.2-1.4-2-3.3-2.1-5.3H4.5z M5,2.5C5,2.5,5,2.5,5,2.5c0.2-0.2,0.4-0.3,0.7-0.4c0.1,0,0.1-0.1,0.2-0.1C6,2,6.2,1.9,6.3,1.8
	c0.1,0,0.2-0.1,0.3-0.1C6.8,1.6,7,1.5,7.1,1.5c-0.7,0.8-1.4,2-1.8,3.3C4.6,4.3,4.1,3.9,3.7,3.5C4.1,3.2,4.5,2.8,5,2.5z M10,1
	c1.4,0,2.9,1.6,3.8,4.2C12.8,5.7,11.5,6,10,6C8.5,6,7.2,5.7,6.2,5.2C7.1,2.6,8.6,1,10,1z M16.2,3.5c-0.3,0.3-0.9,0.8-1.6,1.2
	c-0.5-1.3-1.1-2.5-1.8-3.3C14.1,1.9,15.3,2.6,16.2,3.5z M10,7c1.6,0,3-0.3,4.1-0.8c0.2,1,0.4,2.1,0.4,3.3h-9c0-1.2,0.2-2.3,0.4-3.3
	C7,6.7,8.4,7,10,7z M14.5,10.5c0,1.2-0.2,2.3-0.4,3.3C13,13.3,11.6,13,10,13c-1.6,0-2.9,0.4-4.1,0.9c-0.2-1-0.4-2.1-0.4-3.4H14.5z
	 M5.3,15.3c0.5,1.3,1.1,2.4,1.8,3.2c-1.3-0.4-2.4-1.1-3.4-2C4.1,16.1,4.7,15.7,5.3,15.3z M6.2,14.8c1-0.5,2.3-0.8,3.8-0.8
	c1.5,0,2.8,0.3,3.8,0.8C12.9,17.4,11.4,19,10,19C8.6,19,7.1,17.4,6.2,14.8z M12.9,18.5c0.7-0.8,1.4-1.9,1.8-3.3
	c0.7,0.4,1.2,0.9,1.6,1.2C15.3,17.4,14.1,18.1,12.9,18.5z M15,14.3c0.3-1.2,0.5-2.4,0.5-3.8H19c-0.1,2-0.9,3.8-2.1,5.2
	C16.5,15.3,15.8,14.8,15,14.3z M19,9.5h-3.5c0-1.3-0.2-2.6-0.5-3.8c0.9-0.5,1.5-1,2-1.5C18.1,5.7,18.9,7.5,19,9.5z M5,5.7
	C4.7,6.9,4.6,8.2,4.5,9.5H1c0.1-2,0.9-3.8,2-5.2C3.5,4.7,4.1,5.3,5,5.7z"/>
</svg>
