<svg xmlns="http://www.w3.org/2000/svg" viewBox="0 0 16 16">
	<style type="text/css">
		.green{fill:#49CD3E;}
		.dark-green{fill:#348E2C;}
		.blue{fill:#1AA5DA;}
		.letter{fill:#1D1D1B;}
		.letter-border{fill:#FFFFFF;opacity:0.33;}
		@media (prefers-color-scheme: dark) {
			.letter{fill: #FFFFFF;}
			.letter-border{fill:#000000;opacity:0.33;}
		}
	</style>
	<rect fill="none" width="16" height="16"/>
	<path class="letter-border" d="M12.5,8c0.7,0,1.3,0.2,1.8,0.6l-0.7,0.7C13.3,9.1,12.9,9,12.5,9c-1.4,0-2.5,1.1-2.5,2.5s1.1,2.5,2.5,2.5
		c0.4,0,0.8-0.1,1.1-0.3l0.7,0.7c-0.5,0.3-1.2,0.6-1.8,0.6C10.6,15,9,13.4,9,11.5S10.6,8,12.5,8 M12.5,7C10.1,7,8,9.1,8,11.5
		s2.1,4.5,4.5,4.5c0.8,0,1.7-0.2,2.4-0.7l1-0.7l-0.9-0.9L14.3,13l-0.5-0.5l-0.6,0.3C13,12.9,12.7,13,12.5,13c-0.8,0-1.5-0.7-1.5-1.5
		s0.7-1.5,1.5-1.5c0.2,0,2.4-2.3,2.4-2.3C14.2,7.2,13.3,7,12.5,7L12.5,7z"/>
	<path class="green" d="M7,0c0.4,1.8,0.8,3.5,1.1,5.3c1.6,0,2.5,0.4,2.8,1.2l-0.6-5.1C10.1,0.3,8.4,0.1,7,0z"/>
	<path class="dark-green" d="M0,6.6c2.7-5.4,9.1-2.2,10.3-5.2c0.2,1.7,0.4,3.4,0.6,5.2c0.1,0.6-0.3,0.8-0.8,1c-1.6,0.7-5.2,0.8-6.9,4.6
		C2.1,10.4,1.1,8.5,0,6.6z"/>
	<path class="green" d="M3,7.7l2,6c0,0,0-1.4,1.9-2.1c1.8-0.7,3.6-0.2,5.8-1.1C14.8,9.6,15,8.8,15,8.8V0.7c0,0-0.2,1.7-1.9,2.7
		c-1.7,1-3.3,1.1-5.5,1.4C5.3,5,2.9,5.8,3,7.7z"/>
	<path class="blue" d="M3,7.7c0.5,1.2,1.6,1.9,4,1.5V15c-0.6,0-1.3-0.4-2-1.3L3,7.7z"/>
	<path class="letter" d="M13.6,13.7c-0.3,0.2-0.7,0.3-1.1,0.3c-1.4,0-2.5-1.1-2.5-2.5S11.1,9,12.5,9c0.4,0,0.8,0.1,1.1,0.3l0.7-0.7
		C13.8,8.2,13.2,8,12.5,8C10.6,8,9,9.6,9,11.5s1.6,3.5,3.5,3.5c0.7,0,1.3-0.2,1.8-0.6L13.6,13.7z"/>
</svg>