<?xml version="1.0" encoding="utf-8"?>
<!-- Generator: Adobe Illustrator 23.0.0, SVG Export Plug-In . SVG Version: 6.00 Build 0)  -->
<svg version="1.1" id="cdr_x5F_object" xmlns="http://www.w3.org/2000/svg" xmlns:xlink="http://www.w3.org/1999/xlink" x="0px"
	 y="0px" viewBox="0 0 120 120" style="enable-background:new 0 0 120 120;" xml:space="preserve">
<style type="text/css">
	.st0{fill-rule:evenodd;clip-rule:evenodd;fill:#E20613;}
	.st1{fill-rule:evenodd;clip-rule:evenodd;fill:#A51611;}
	.st2{fill-rule:evenodd;clip-rule:evenodd;fill:#EE7D00;}
	.st3{fill-rule:evenodd;clip-rule:evenodd;fill:#1D1D1B;}
</style>
<path class="st0" d="M55.4,0c3,14.2,6,28.3,9,42.5c12.5-0.3,19.8,3,21.9,9.9c-1.8-14.5-3.5-29-5.3-43.5C79-0.2,66.5,0.5,55.4,0z"/>
<path class="st1" d="M0,53C21.8,9.5,72.4,35.6,81.6,11.6c1.6,13.8,3.1,27.5,4.7,41.3c2,18.4-43.1,4.5-60.9,45
	C16.9,82.9,8.5,67.9,0,53z"/>
<path class="st0" d="M25.3,61.5l15.9,48c0,0,0.2-11.3,14.7-17.1c14.5-5.8,28.3-1.9,45.4-8.8c17.1-6.8,18.7-13,18.7-13V6
	c0,0-1.9,13.3-15.1,21.4c-13.2,8.1-26.4,8.8-43.2,11.4C43.1,40.3,24.2,46.9,25.3,61.5z"/>
<path class="st2" d="M25.5,62.8c3.8,9.9,12.6,13.7,31.2,10.9V120c-5.1-0.3-10.2-3.2-15.6-10.2L25.5,62.8z"/>
<path class="st3" d="M100.8,105.5c0-4.3-1.2-7.6-3.4-9.9c-0.2-0.2-0.9-0.7-1.8-1.6c-0.4-0.3-0.8-0.5-1.2-0.7c-1.2-0.7-1.8-1-1.9-1.1
	c0.1-0.1,0.3-0.3,0.4-0.4c3.7-2.9,5.6-6.4,5.6-10.3c0-5.9-2.3-9.8-6.8-11.5c-1.4-0.5-2.6-0.9-3.7-1.1c-1.2-0.2-2.1-0.4-2.3-0.4H68.4
	c-0.7,0-1.1,0.4-1.1,1.1v48.7c0,1,0.4,1.5,1.1,1.5h18.8c6.2,0,10.3-2.7,12.5-8C100.5,110,100.8,107.8,100.8,105.5z M78.2,78.1
	c0.2-0.1,1-0.1,2.1-0.1c1.7,0,2.7,0,3.1,0.1c2.8,0.2,4.2,1.8,4.2,4.7c0,2.6-1,4.2-3.1,4.9c-0.9,0.3-2.3,0.4-4.4,0.4
	c-1.1,0-1.8,0-2-0.1l-0.4-0.4v-9.2L78.2,78.1z M78.2,97.9c0.2-0.1,1-0.1,2.3-0.1c2.5,0,4.1,0.1,4.9,0.4c2.8,1.1,4.2,3,4.2,5.9
	c0,4-1.9,6.1-5.7,6.3c-0.5,0.1-1.6,0.1-3.4,0.1c-1.2,0-2.1,0-2.3-0.1l-0.4-0.4V98.2L78.2,97.9z"/>
</svg>
