<svg xmlns="http://www.w3.org/2000/svg" viewBox="0 0 16 16">
	<style type="text/css">
		.light-red{fill:#F51822;}
		.dark-red{fill:#B01E1A;}
		.orange{fill:#FF941F;}
		.letter-inner-border{fill:#FFFFFF;opacity:0.83;}
		.letter{fill:#1D1D1B;}
		.letter-border{fill:#FFFFFF;opacity:0.33;}
		@media (prefers-color-scheme: dark) {
			.letter-inner-border{fill:#000000;opacity:0.83;}
			.letter{fill: #000000;}
			.letter-border{fill:#000000;opacity:0.33;}
		}
	</style>
	<rect fill="none" width="16" height="16"/>
	<path class="letter-border" d="M11,8c1.5,0,2,1,2,2s-0.8,1.5-0.8,1.5s0.9,0.3,0.9,1.5c0,1.1-0.5,2-2.1,2H9V8H11 M11,7H9H8v1v7v1h1h2
		c1.9,0,3.1-1.1,3.1-3c0-0.7-0.2-1.2-0.5-1.6C13.8,11,14,10.6,14,10C14,8.2,12.8,7,11,7L11,7z"/>
	<path class="light-red" d="M6.9,0c0.4,1.8,0.8,3.5,1.1,5.2c1.6,0,2.4,0.4,2.7,1.2c-0.2-1.8-0.4-3.6-0.7-5.3C9.9,0,8.3,0.1,6.9,0z"/>
	<path class="dark-red" d="M0,6.6c2.7-5.3,9-2.2,10.2-5.2c0.2,1.7,0.5,3.4,0.7,5.1C11.1,8.7,5.3,7,3.2,12C2.2,10.3,1,8.4,0,6.6z"/>
	<path class="light-red" d="M13.1,3.7c-1.7,1-3.3,1-5.4,1.4C5.3,5.2,3,6.1,3.1,7.9l2,5.9c0,0,0-1.4,1.9-2.2c0.8-0.3,1.6-0.4,2.4-0.4V9.4H10
		V9h1c0.5,0,1,0.4,1,1s-0.5,1-1,1h-0.1c0,0,0,0-0.1,0.1c0.6-0.1,1.1-0.2,1.8-0.5C14.8,9.8,15,9,15,9V1C15,1,14.7,2.6,13.1,3.7z"/>
	<path class="orange" d="M3.1,8c0.5,1.2,1.6,1.7,3.9,1.3V15c-0.7,0-1.4-0.4-2-1.2L3.1,8z"/>
	<path class="letter" d="M13.1,13c0-1.2-0.9-1.5-0.9-1.5S13,11,13,10s-0.5-2-2-2H9v7h2C12.6,15,13.1,14.1,13.1,13z M11,9
		c0.5,0,1,0.4,1,1s-0.5,1-1,1h-1V9H11z M10,12h1c0.6,0,1,0.4,1,1s-0.4,1-1,1h-1V12z"/>
	<path class="letter-inner-border" d="M10,11h1c0.5,0,1-0.4,1-1c0-0.6-0.5-1-1-1h-1V11"/>
	<path class="letter-inner-border" d="M10,14h1c0.6,0,1-0.4,1-1c0-0.6-0.4-1-1-1h-1V14"/>
</svg>