<svg xmlns="http://www.w3.org/2000/svg" viewBox="0 0 16 16">
	<style type="text/css">
		.light-red{fill:#F51822;}
		.dark-red{fill:#B01E1A;}
		.orange{fill:#FF941F;}
		.reversed-theme-color{fill:#1D1D1B;}
		@media (prefers-color-scheme: dark) {
			.reversed-theme-color {fill: #fff;}
		}
	</style>
	<rect fill="none" width="16" height="16"/>
	<path class="light-red" d="M7.4,0c0.4,1.9,0.8,3.7,1.2,5.6c1.7,0,2.6,0.4,2.9,1.3c-0.2-1.9-0.4-3.8-0.7-5.7C10.6,0,8.9,0.1,7.4,0z"/>
	<path class="dark-red" d="M0,7c2.9-5.7,9.7-2.3,10.9-5.5c0.2,1.8,0.4,3.6,0.6,5.4c0.3,2.4-5.8,0.6-8.1,5.9C2.3,11,1.1,9,0,7z"/>
	<path class="light-red" d="M14,3.9C12.2,5,10.5,5,8.2,5.4c-2.5,0.2-5,1.1-4.9,3l2.1,6.3c0,0,0-1.5,2-2.3C8.3,12.1,9.1,12,10,12v-2h1
		c0.5,0,1,0.4,1,1c0,0.3-0.1,0.6-0.4,0.8c0.6-0.1,1.2-0.2,1.9-0.5c2.3-0.9,2.5-1.7,2.5-1.7V1.1C16,1.1,15.7,2.8,14,3.9z"/>
	<path class="orange" d="M3.4,8.5c0.5,1.3,1.7,1.8,4.2,1.4V16c-0.7,0-1.4-0.4-2.1-1.3L3.4,8.5z"/>
	<path class="reversed-theme-color" d="M13.1,14c0-1.2-1.1-1.5-1.1-1.5s1-0.5,1-1.5c0-1-0.5-2-2-2H9v7h2C12.6,16,13.1,15.1,13.1,14z M11,10
		c0.5,0,1,0.4,1,1c0,0.6-0.5,1-1,1l-1,0v-2H11z M10,13h1c0.6,0,1,0.4,1,1c0,0.6-0.4,1-1,1h-1V13z"/>
</svg>