<?xml version="1.0" encoding="utf-8"?>
<!-- Generator: Adobe Illustrator 23.0.0, SVG Export Plug-In . SVG Version: 6.00 Build 0)  -->
<svg version="1.1" id="cdr_x5F_object" xmlns="http://www.w3.org/2000/svg" xmlns:xlink="http://www.w3.org/1999/xlink" x="0px"
	 y="0px" viewBox="0 0 16 16" style="enable-background:new 0 0 16 16;" xml:space="preserve">
<style type="text/css">
	.st0{fill-rule:evenodd;clip-rule:evenodd;fill:#E20613;}
	.st1{fill-rule:evenodd;clip-rule:evenodd;fill:#B01E1A;}
	.st2{fill-rule:evenodd;clip-rule:evenodd;fill:#FF941F;}
	.st3{fill-rule:evenodd;clip-rule:evenodd;fill:#1D1D1B;}
</style>
<path class="st0" d="M7.4,0c0.4,1.9,0.8,3.7,1.2,5.6c1.7,0,2.6,0.4,2.9,1.3c-0.2-1.9-0.4-3.8-0.7-5.7C10.6,0,8.9,0.1,7.4,0z"/>
<path class="st1" d="M0,7c2.9-5.7,9.7-2.3,10.9-5.5c0.2,1.8,0.4,3.6,0.6,5.4c0.3,2.4-5.7,0.6-8.1,5.9C2.3,10.9,1.1,8.9,0,7z"/>
<path class="st0" d="M3.4,8.3l2.1,6.3c0,0,0-1.5,2-2.3c1.9-0.8,3.8-0.3,6.1-1.2c2.3-0.9,2.5-1.7,2.5-1.7V1c0,0-0.3,1.8-2,2.8
	C12.2,4.9,10.5,5,8.2,5.3C5.7,5.5,3.2,6.4,3.4,8.3z"/>
<path class="st2" d="M3.4,8.5c0.5,1.3,1.7,1.8,4.2,1.4V16c-0.7,0-1.4-0.4-2.1-1.3L3.4,8.5z"/>
<path class="st3" d="M13.1,14c0-1.2-1.1-1.5-1.1-1.5s1-0.5,1-1.5c0-1-0.5-2-2-2H9v7h2C12.6,16,13.1,15.1,13.1,14z M11,10
	c0.5,0,1,0.4,1,1c0,0.6-0.5,1-1,1l-1,0v-2H11z M10,13h1c0.6,0,1,0.4,1,1c0,0.6-0.4,1-1,1h-1V13z"/>
</svg>
