<?xml version="1.0" encoding="utf-8"?>
<!-- Generator: Adobe Illustrator 23.0.0, SVG Export Plug-In . SVG Version: 6.00 Build 0)  -->
<svg version="1.1" id="cdr_x5F_object" xmlns="http://www.w3.org/2000/svg" xmlns:xlink="http://www.w3.org/1999/xlink" x="0px"
	 y="0px" viewBox="0 0 16 16" style="enable-background:new 0 0 16 16;" xml:space="preserve">
<style type="text/css">
	.st0{fill-rule:evenodd;clip-rule:evenodd;fill:#E20613;}
	.st1{fill-rule:evenodd;clip-rule:evenodd;fill:#A51611;}
	.st2{fill-rule:evenodd;clip-rule:evenodd;fill:#EE7D00;}
	.st3{fill-rule:evenodd;clip-rule:evenodd;fill:#1D1D1B;}
</style>
<path class="st0" d="M7.4,0c0.4,1.9,0.8,3.7,1.2,5.6c1.7,0,2.6,0.4,2.9,1.3c-0.2-1.9-0.4-3.8-0.7-5.7C10.6,0,8.9,0.1,7.4,0z"/>
<path class="st1" d="M0,7c2.9-5.7,9.7-2.3,10.9-5.5c0.2,1.8,0.4,3.6,0.6,5.4c0.3,2.4-5.7,0.6-8.1,5.9C2.3,10.9,1.1,8.9,0,7z"/>
<path class="st0" d="M3.4,8.3l2.1,6.3c0,0,0-1.5,2-2.3c1.9-0.8,3.8-0.3,6.1-1.2c2.3-0.9,2.5-1.7,2.5-1.7V1c0,0-0.3,1.8-2,2.8
	C12.2,4.9,10.5,5,8.2,5.3C5.7,5.5,3.2,6.4,3.4,8.3z"/>
<path class="st2" d="M3.4,8.5c0.5,1.3,1.7,1.8,4.2,1.4V16c-0.7,0-1.4-0.4-2.1-1.3L3.4,8.5z"/>
<path class="st3" d="M13.6,14c0-0.6-0.2-1-0.5-1.4c0,0-0.1-0.1-0.3-0.2c-0.1,0-0.1-0.1-0.2-0.1c-0.2-0.1-0.3-0.1-0.3-0.2
	c0,0,0,0,0.1-0.1c0.5-0.4,0.8-0.9,0.8-1.4c0-0.8-0.3-1.3-0.9-1.6c-0.2-0.1-0.4-0.1-0.5-0.2C11.7,9,11.6,9,11.6,9H9.2
	C9.1,9,9,9.1,9,9.2v6.6C9,15.9,9.1,16,9.2,16h2.6c0.9,0,1.4-0.4,1.7-1.1C13.6,14.6,13.6,14.4,13.6,14z M10.5,10.3c0,0,0.1,0,0.3,0
	c0.2,0,0.4,0,0.4,0c0.4,0,0.6,0.2,0.6,0.6c0,0.4-0.1,0.6-0.4,0.7c-0.1,0-0.3,0.1-0.6,0.1c-0.2,0-0.2,0-0.3,0l-0.1-0.1L10.5,10.3
	L10.5,10.3z M10.5,13c0,0,0.1,0,0.3,0c0.3,0,0.6,0,0.7,0.1c0.4,0.2,0.6,0.4,0.6,0.8c0,0.5-0.3,0.8-0.8,0.9c-0.1,0-0.2,0-0.5,0
	c-0.2,0-0.3,0-0.3,0l-0.1-0.1L10.5,13L10.5,13z"/>
</svg>
