<svg xmlns="http://www.w3.org/2000/svg" viewBox="0 0 16 16">
	<style type="text/css">
		.red{fill:#F51822;}
		.dark-red{fill:#B01E1A;}
		.orange{fill:#FF941F;}
		.letter-inner-border{fill:#FFFFFF;opacity:0.83;}
		.letter{fill:#1D1D1B;}
		.letter-border{fill:#FFFFFF;opacity:0.33;}
		@media (prefers-color-scheme: dark) {
			.letter-inner-border{fill:#000000;opacity:0.83;}
			.letter{fill: #ffffff;}
			.letter-border{fill:#000000;opacity:0.33;}
		}
	</style>
	<rect fill="none" width="16" height="16"/>
	<path class="letter-border" d="M11,8c1.5,0,2,1,2,2s-0.8,1.5-0.8,1.5s0.9,0.3,0.9,1.5c0,1.1-0.5,2-2.1,2H9V8H11 M11,7H9H8v1v7v1h1h2
		c1.9,0,3.1-1.1,3.1-3c0-0.7-0.2-1.2-0.5-1.6C13.8,11,14,10.6,14,10C14,8.2,12.8,7,11,7L11,7z"/>
	<path class="red" d="M7,0c0.4,1.8,0.8,3.5,1.1,5.3c1.6,0,2.5,0.4,2.8,1.2l-0.6-5.1C10.1,0.3,8.4,0.1,7,0z"/>
	<path class="dark-red" d="M0,6.6c2.7-5.4,9.1-2.2,10.3-5.2c0.2,1.7,0.4,3.4,0.6,5.2c0.3,2.3-5.4,0.6-7.7,5.6C2.1,10.4,1.1,8.5,0,6.6z"/>
	<path class="red" d="M13.1,3.4c-1.7,1-3.3,1.1-5.4,1.4C5.3,5,2.9,5.9,3,7.7l2,6c0,0,0-1.4,1.9-2.1C8,11.2,9,11.2,10.2,11H10V9h1
	c0.5,0,1,0.4,1,1c0,0.3-0.2,0.6-0.4,0.8c0.3-0.1,0.7-0.2,1-0.3C14.8,9.6,15,8.8,15,8.8V0.7C15,0.7,14.8,2.4,13.1,3.4z"/>
	<path class="orange" d="M3,7.7c0.5,1.2,1.6,1.9,4,1.5V15c-0.6,0-1.3-0.4-2-1.3L3,7.7z"/>
	<path class="letter" d="M13.1,13c0-1.2-0.9-1.5-0.9-1.5S13,11,13,10s-0.5-2-2-2H9v7h2C12.6,15,13.1,14.1,13.1,13z M11,9
		c0.5,0,1,0.4,1,1s-0.5,1-1,1h-1V9H11z M10,12h1c0.6,0,1,0.4,1,1s-0.4,1-1,1h-1V12z"/>
	<path class="letter-inner-border" d="M10,11h1c0.5,0,1-0.4,1-1c0-0.6-0.5-1-1-1h-1V11"/>
	<path class="letter-inner-border" d="M10,14h1c0.6,0,1-0.4,1-1c0-0.6-0.4-1-1-1h-1V14"/>
</svg>
