<?xml version="1.0" encoding="utf-8"?>
<!-- Generator: Adobe Illustrator 25.0.1, SVG Export Plug-In . SVG Version: 6.00 Build 0)  -->
<svg version="1.1" id="Слой_1" xmlns="http://www.w3.org/2000/svg" xmlns:xlink="http://www.w3.org/1999/xlink" x="0px" y="0px"
	 viewBox="0 0 1920 1080" style="enable-background:new 0 0 1920 1080;" xml:space="preserve">
<style type="text/css">
	.st0{fill:#FFFFFF;}
	.st1{fill:#E73C3E;}
	.st2{fill:#1D1D1B;}
</style>
<rect class="st0" width="1920" height="1080"/>
<g>
	<path class="st1" d="M700.3,891.7H686l-3.9,10.8h-4.6l14.8-39.6h2.1l14.8,39.6h-4.9L700.3,891.7z M687.5,887.7h11.4l-4.3-11.9
		l-1.4-5.9h-0.1l-1.4,6L687.5,887.7z"/>
	<path class="st1" d="M734.7,867.7h-11.6c-0.4,7.4-0.9,13.6-1.5,18.5c-0.6,4.9-1.5,8.8-2.8,11.5c-0.8,1.8-1.8,3.1-2.9,3.9
		c-1.1,0.8-2.3,1.2-3.6,1.2c-0.7,0-1.2,0-1.7-0.1c-0.5-0.1-0.9-0.2-1.4-0.4l0.6-4c0.4,0.1,0.8,0.2,1.2,0.2c0.6,0,1.3-0.2,1.9-0.6
		c0.6-0.4,1.2-1.2,1.8-2.3c0.5-1,1-2.3,1.5-4c0.5-1.7,0.9-3.8,1.2-6.4c0.4-2.6,0.6-5.6,0.9-9.2c0.2-3.5,0.4-7.7,0.5-12.5h20.6v39
		h-4.6V867.7z"/>
	<path class="st1" d="M756,884.5h-2.6v18.1h-4.6v-39h4.6v18.2l2.5-0.8l13.1-17.4h5.3l-13,16.8l-2.3,1.8l2.8,2.2l14.3,18.2h-5.9
		L756,884.5z"/>
	<path class="st1" d="M780.1,883c0-6.5,1.4-11.5,4.1-15c2.7-3.5,6.7-5.2,11.8-5.2c2.7,0,5.1,0.5,7.1,1.4s3.7,2.3,5,4.1
		c1.3,1.8,2.3,3.9,2.9,6.4c0.6,2.5,0.9,5.2,0.9,8.3c0,6.5-1.4,11.5-4.2,15c-2.8,3.5-6.7,5.2-11.8,5.2c-2.7,0-5.1-0.5-7-1.4
		c-2-1-3.6-2.3-5-4.1c-1.3-1.8-2.3-3.9-2.9-6.4C780.4,888.8,780.1,886.1,780.1,883z M785,883c0,2.2,0.2,4.2,0.6,6.1
		c0.4,1.9,1.1,3.6,2,5.1c0.9,1.5,2,2.6,3.4,3.5c1.4,0.9,3,1.3,4.9,1.3c3.5,0,6.2-1.3,8.1-3.9c2-2.6,3-6.7,3-12.1
		c0-2.1-0.2-4.2-0.6-6.1c-0.4-2-1.1-3.7-2-5.1c-0.9-1.5-2.1-2.6-3.5-3.5c-1.4-0.9-3.1-1.3-5-1.3c-3.4,0-6.1,1.3-8.1,3.9
		C785.9,873.5,785,877.6,785,883z"/>
	<path class="st1" d="M840.7,867.7h-16.3v34.9h-4.6v-39h20.9V867.7z"/>
	<path class="st1" d="M841.5,883c0-6.5,1.4-11.5,4.1-15c2.7-3.5,6.7-5.2,11.8-5.2c2.7,0,5.1,0.5,7.1,1.4s3.7,2.3,5,4.1
		c1.3,1.8,2.3,3.9,2.9,6.4c0.6,2.5,0.9,5.2,0.9,8.3c0,6.5-1.4,11.5-4.2,15c-2.8,3.5-6.7,5.2-11.8,5.2c-2.7,0-5.1-0.5-7-1.4
		c-2-1-3.6-2.3-5-4.1c-1.3-1.8-2.3-3.9-2.9-6.4C841.8,888.8,841.5,886.1,841.5,883z M846.4,883c0,2.2,0.2,4.2,0.6,6.1
		c0.4,1.9,1.1,3.6,2,5.1c0.9,1.5,2,2.6,3.4,3.5c1.4,0.9,3,1.3,4.9,1.3c3.5,0,6.2-1.3,8.1-3.9c2-2.6,3-6.7,3-12.1
		c0-2.1-0.2-4.2-0.6-6.1c-0.4-2-1.1-3.7-2-5.1c-0.9-1.5-2.1-2.6-3.5-3.5c-1.4-0.9-3.1-1.3-5-1.3c-3.4,0-6.1,1.3-8.1,3.9
		C847.4,873.5,846.4,877.6,846.4,883z"/>
	<path class="st1" d="M901.5,867.7h-11.6c-0.4,7.4-0.9,13.6-1.5,18.5c-0.6,4.9-1.5,8.8-2.8,11.5c-0.8,1.8-1.8,3.1-2.9,3.9
		c-1.1,0.8-2.3,1.2-3.6,1.2c-0.7,0-1.2,0-1.7-0.1c-0.5-0.1-0.9-0.2-1.4-0.4l0.6-4c0.4,0.1,0.8,0.2,1.2,0.2c0.6,0,1.3-0.2,1.9-0.6
		c0.6-0.4,1.2-1.2,1.8-2.3c0.5-1,1-2.3,1.5-4c0.5-1.7,0.9-3.8,1.2-6.4c0.4-2.6,0.6-5.6,0.9-9.2c0.2-3.5,0.4-7.7,0.5-12.5h20.6v39
		h-4.6V867.7z"/>
	<path class="st1" d="M915.6,863.5h4.6v15.2c0.2,0,0.5-0.1,0.9-0.1s0.9-0.1,1.4-0.1c0.5,0,1.1-0.1,1.6-0.1s1.1-0.1,1.5-0.1
		c1.8,0,3.5,0.2,5.2,0.5c1.7,0.4,3.2,1,4.5,1.9c1.3,0.9,2.4,2.1,3.2,3.6c0.8,1.5,1.2,3.4,1.2,5.7c0,2.2-0.4,4.2-1.2,5.8
		c-0.8,1.6-1.9,3-3.2,4.1c-1.4,1.1-3,1.9-4.8,2.4c-1.8,0.5-3.8,0.8-6,0.8c-0.5,0-1.2,0-1.9,0c-0.7,0-1.5-0.1-2.4-0.1
		c-0.8-0.1-1.7-0.1-2.5-0.3s-1.6-0.3-2.3-0.4V863.5z M925.3,899c1.3,0,2.6-0.2,3.8-0.5c1.2-0.4,2.2-0.9,3.1-1.6
		c0.9-0.7,1.6-1.6,2.1-2.7s0.8-2.4,0.8-3.8c0-1.6-0.3-2.9-0.8-3.9c-0.6-1-1.3-1.9-2.2-2.5c-0.9-0.6-2-1-3.1-1.3
		c-1.2-0.2-2.4-0.4-3.7-0.4c-0.3,0-0.7,0-1.2,0.1c-0.5,0-1,0.1-1.4,0.1c-0.5,0-0.9,0.1-1.3,0.2c-0.4,0.1-0.7,0.1-0.9,0.2v15.9
		c0.5,0.1,1.3,0.2,2.2,0.3C923.4,898.9,924.3,899,925.3,899z"/>
	<path class="st1" d="M969.8,884.6h-18.7v17.9h-4.6v-39h4.6v17h18.7v-17h4.6v39h-4.6V884.6z"/>
	<path class="st1" d="M1002.4,891.7h-14.3l-3.9,10.8h-4.6l14.8-39.6h2.1l14.8,39.6h-4.9L1002.4,891.7z M989.6,887.7h11.4l-4.3-11.9
		l-1.4-5.9h-0.1l-1.4,6L989.6,887.7z"/>
	<path class="st1" d="M1038.7,902.5h-4.6v-17l-5.7,1.2l-9.7,15.8h-5.5l8.7-13.9l3.4-2.4c-1.3-0.3-2.6-0.8-3.7-1.4
		c-1.1-0.6-2.1-1.4-3-2.3s-1.5-2.1-2-3.3c-0.5-1.3-0.7-2.7-0.7-4.3c0-2.3,0.4-4.2,1.1-5.7c0.8-1.5,1.8-2.7,3.1-3.6s2.9-1.6,4.6-2
		c1.8-0.4,3.6-0.6,5.6-0.6c1.3,0,2.6,0.1,4,0.2s2.8,0.3,4.2,0.7V902.5z M1030.3,867.1c-1.2,0-2.4,0.1-3.5,0.4
		c-1.1,0.2-2.1,0.7-3,1.3c-0.9,0.6-1.6,1.4-2.1,2.4c-0.5,1-0.8,2.3-0.8,3.8c0,1.4,0.3,2.6,0.8,3.6c0.5,1,1.2,1.8,2,2.5
		c0.9,0.7,1.8,1.1,3,1.4c1.1,0.3,2.3,0.4,3.6,0.4h3.8v-15.4c-0.5-0.1-1.1-0.2-1.6-0.3C1031.9,867.1,1031.2,867.1,1030.3,867.1z"/>
	<path class="st1" d="M1088,900.9c-1.1,0.9-2.5,1.4-4.2,1.8s-3.5,0.5-5.5,0.5c-2.3,0-4.5-0.4-6.6-1.2s-3.8-2-5.3-3.6
		c-1.5-1.6-2.7-3.7-3.6-6.3c-0.9-2.5-1.3-5.6-1.3-9.1c0-3.6,0.5-6.7,1.5-9.3c1-2.5,2.3-4.6,3.9-6.2c1.6-1.6,3.4-2.8,5.4-3.5
		s4-1.1,6.1-1.1c2.2,0,4,0.1,5.5,0.4c1.4,0.2,2.6,0.6,3.6,1l-1.1,4.1c-1.8-0.9-4.3-1.3-7.6-1.3c-1.5,0-3,0.3-4.5,0.8
		c-1.5,0.6-2.8,1.5-4,2.7c-1.2,1.3-2.1,2.9-2.8,5c-0.7,2-1.1,4.6-1.1,7.5c0,2.7,0.3,5,1,7c0.7,2,1.6,3.7,2.8,5s2.5,2.3,4.1,3
		c1.6,0.7,3.3,1,5.2,1c1.7,0,3.1-0.2,4.4-0.5c1.2-0.3,2.3-0.8,3.1-1.3L1088,900.9z"/>
	<path class="st1" d="M1094.9,863.5h21.2v4.1h-16.6v12.8h15.2v4.1h-15.2v13.9h16.9v4.1h-21.5V863.5z"/>
	<path class="st1" d="M1124.8,863.9c1.4-0.3,2.9-0.6,4.6-0.7c1.6-0.1,3.2-0.2,4.8-0.2c1.7,0,3.4,0.2,5.2,0.5
		c1.8,0.3,3.4,0.9,4.8,1.8c1.4,0.9,2.6,2.1,3.5,3.7c0.9,1.6,1.4,3.5,1.4,6c0,2.4-0.4,4.4-1.3,6c-0.9,1.6-2,3-3.4,4
		c-1.4,1-3,1.8-4.8,2.2c-1.8,0.4-3.7,0.7-5.6,0.7c-0.2,0-0.5,0-0.9,0s-0.9,0-1.3,0c-0.5,0-0.9,0-1.4-0.1c-0.4,0-0.8-0.1-0.9-0.1
		v14.8h-4.6V863.9z M1134.3,867.1c-1,0-1.9,0-2.8,0.1c-0.9,0-1.6,0.1-2.1,0.3v16.2c0.2,0.1,0.5,0.1,0.9,0.1c0.4,0,0.8,0,1.3,0.1
		c0.4,0,0.9,0,1.3,0c0.4,0,0.7,0,0.9,0c1.3,0,2.5-0.1,3.8-0.4c1.2-0.2,2.4-0.7,3.4-1.3c1-0.6,1.8-1.5,2.4-2.7
		c0.6-1.2,0.9-2.6,0.9-4.4c0-1.5-0.3-2.8-0.9-3.8c-0.6-1-1.3-1.8-2.3-2.5c-0.9-0.6-2-1-3.2-1.3S1135.5,867.1,1134.3,867.1z"/>
	<path class="st1" d="M1179.8,876.1l0.3-4.5h-0.2l-2.4,4.6l-18.8,26.3h-2.7v-39h4.6v26.7l-0.4,4.4h0.2l2.5-4.6l18.8-26.6h2.7v39
		h-4.6V876.1z"/>
	<path class="st1" d="M1216.1,902.5h-4.6v-17l-5.7,1.2l-9.7,15.8h-5.5l8.7-13.9l3.4-2.4c-1.3-0.3-2.6-0.8-3.7-1.4
		c-1.1-0.6-2.1-1.4-3-2.3s-1.5-2.1-2-3.3c-0.5-1.3-0.7-2.7-0.7-4.3c0-2.3,0.4-4.2,1.1-5.7c0.8-1.5,1.8-2.7,3.1-3.6s2.9-1.6,4.6-2
		c1.8-0.4,3.6-0.6,5.6-0.6c1.3,0,2.6,0.1,4,0.2s2.8,0.3,4.2,0.7V902.5z M1207.6,867.1c-1.2,0-2.4,0.1-3.5,0.4
		c-1.1,0.2-2.1,0.7-3,1.3c-0.9,0.6-1.6,1.4-2.1,2.4c-0.5,1-0.8,2.3-0.8,3.8c0,1.4,0.3,2.6,0.8,3.6c0.5,1,1.2,1.8,2,2.5
		c0.9,0.7,1.8,1.1,3,1.4c1.1,0.3,2.3,0.4,3.6,0.4h3.8v-15.4c-0.5-0.1-1.1-0.2-1.6-0.3C1209.3,867.1,1208.5,867.1,1207.6,867.1z"/>
</g>
<g>
	<g>
		<path class="st2" d="M757.2,268.4c1.8,1.3,3.6,2.1,5.5,2.5c1.9,0.3,3.8,0.3,5.8-0.3c1.9-0.5,3.9-1.4,5.9-2.7
			c2.8-1.8,5.1-3.6,6.8-5.5c1.7-1.9,2.9-3.6,3.7-5.1l12.6,20l9.7-6.1l-31.4-49.7l-9.7,6.1l13.8,21.9c-0.4,1.4-1.3,2.8-2.6,4.2
			c-1.3,1.4-2.9,2.7-4.7,3.8c-2.6,1.6-4.8,2.1-6.8,1.4c-2-0.7-3.9-2.5-5.7-5.3l-10-15.9l-9.7,6.1l11.9,18.8
			C753.8,265.2,755.5,267.1,757.2,268.4z"/>
	</g>
	<g>
		<polygon class="st2" points="807.9,217.9 826.3,262.9 836.9,258.5 818.6,213.6 834.4,207.1 830.5,197.6 788.1,215 792,224.4 		"/>
	</g>
	<g>
		<path class="st2" d="M849.2,235.5c1.8,3.4,4,6.3,6.5,8.5c2.6,2.2,5.5,3.7,8.9,4.4c3.4,0.8,7.1,0.7,11.3-0.2
			c7.8-1.7,13.2-5.6,16.3-11.7c3.1-6.1,3.6-13.9,1.6-23.5c-1-4.5-2.3-8.5-4.1-11.9c-1.8-3.4-4-6.3-6.6-8.5c-2.6-2.2-5.6-3.7-8.9-4.4
			c-3.4-0.8-7.1-0.7-11.2,0.2c-7.8,1.7-13.3,5.6-16.4,11.7c-3.1,6.1-3.6,13.9-1.5,23.5C846,228.1,847.4,232,849.2,235.5z
			 M856.9,205.2c1.5-3.7,4.2-5.9,8.2-6.8c2.3-0.5,4.4-0.4,6.2,0.3c1.8,0.7,3.4,1.8,4.8,3.4c1.4,1.6,2.6,3.5,3.5,5.8
			c1,2.3,1.8,4.9,2.4,7.6c1.5,7,1.5,12.3,0,15.9c-1.5,3.6-4.3,5.8-8.3,6.7c-2.2,0.5-4.2,0.4-6-0.2c-1.8-0.6-3.4-1.7-4.8-3.3
			c-1.4-1.5-2.6-3.5-3.6-5.8c-1-2.3-1.8-4.9-2.5-7.8C855.4,214.2,855.4,208.9,856.9,205.2z"/>
	</g>
	<g>
		<path class="st2" d="M907.4,193.4c0.9-0.5,1.8-1,2.8-1.4c1-0.4,2-0.7,3-1c1-0.2,1.9-0.4,2.8-0.4c2.8-0.1,4.8,0.4,5.9,1.5
			s1.8,2.7,1.9,4.6c0.1,1.5-0.2,2.8-0.9,3.9c-0.7,1.1-1.5,2.2-2.6,3.3c-1,1.1-2.2,2.2-3.4,3.3c-1.2,1.1-2.3,2.5-3.2,4
			c-0.9,1.5-1.6,3.3-2.1,5.4s-0.5,4.5-0.1,7.4l9.3-0.4c-0.1-2.4,0.2-4.3,0.9-5.8c0.7-1.5,1.6-2.9,2.7-4.1c1.1-1.2,2.2-2.3,3.5-3.4
			c1.3-1.1,2.5-2.3,3.5-3.7c1.1-1.4,1.9-3,2.6-4.9c0.7-1.9,0.9-4.3,0.8-7.1c-0.2-4.3-1.8-7.7-4.9-10.1c-3.1-2.4-7.3-3.5-12.5-3.2
			c-3.9,0.2-7.2,0.8-10,1.9c-2.7,1.1-5.1,2.4-7.2,3.9l4.6,7.9C905.7,194.5,906.5,193.9,907.4,193.4z"/>
	</g>
	<g>
		<path class="st2" d="M912.1,231.4c-1.2,1.2-1.7,2.8-1.6,4.7c0.1,2,0.8,3.5,2.1,4.6c1.3,1.1,2.9,1.6,4.9,1.5c2.1-0.1,3.8-0.8,5-2
			c1.2-1.2,1.7-2.8,1.6-4.8c-0.1-2-0.8-3.5-2.1-4.6c-1.3-1.1-3-1.6-5.1-1.5C914.9,229.5,913.3,230.2,912.1,231.4z"/>
	</g>
	<g>
		<polygon class="st2" points="981.7,196.2 1004.1,199.8 1005.7,189.7 972,184.2 962.5,242.2 973.8,244.1 		"/>
	</g>
	<g>
		<path class="st2" d="M1001.3,238.2l-5.9-2l-6.7,19.6l7.7,2.6l4.6-9.5l35.7,12.2l-2.2,10.3l7.7,2.6l6.7-19.6l-7.1-2.4l15.7-45.9
			l-33.3-11.4c-2.5,7.6-5,14.1-7.5,19.4c-2.5,5.3-4.8,9.7-6.9,13.1c-2.1,3.4-3.9,5.9-5.5,7.7
			C1002.9,236.7,1001.9,237.8,1001.3,238.2z M1020.9,230.4c3.3-5.6,6.6-13.1,10.2-22.4l12.3,4.2l-12.4,36.2l-18.2-6.2
			C1015,239.9,1017.7,236,1020.9,230.4z"/>
	</g>
	<g>
		<polygon class="st2" points="1079.7,284.1 1084.7,275.1 1064,263.5 1071,251 1089.5,261.4 1094.6,252.5 1076,242.1 1082.7,230.1 
			1103.1,241.6 1108.1,232.6 1077.7,215.6 1048.9,266.8 		"/>
	</g>
	<g>
		<path class="st2" d="M1101.3,285.5c-1.6-1.2-3.2-1.8-4.9-1.6c-1.7,0.2-3.1,1-4.3,2.6c-1.2,1.6-1.7,3.2-1.4,4.9
			c0.3,1.7,1.2,3.1,2.8,4.4c1.7,1.3,3.4,1.9,5.1,1.7c1.7-0.2,3.1-1,4.3-2.6c1.2-1.6,1.7-3.2,1.4-4.8
			C1104,288.3,1103,286.8,1101.3,285.5z"/>
	</g>
	<g>
		<path class="st2" d="M1124.4,267.4c-1.2,0.4-2.6,0.7-4.1,0.8c-1.5,0.1-3.1,0.2-4.7,0.3c-1.7,0.1-3.3,0.4-5,1
			c-1.7,0.6-3.4,1.5-5.1,2.8c-1.7,1.3-3.3,3.2-4.9,5.6l7.4,5.7c1.4-1.9,2.9-3.2,4.5-3.9c1.5-0.7,3.1-1.2,4.7-1.4
			c1.6-0.2,3.2-0.3,4.9-0.3c1.7,0,3.4-0.1,5.1-0.5c1.7-0.4,3.4-1,5.1-2.1c1.7-1,3.5-2.7,5.2-4.9c2.6-3.4,3.5-7,2.8-10.9
			c-0.8-3.8-3.3-7.3-7.4-10.6c-3.1-2.4-6-4.1-8.8-5c-2.8-0.9-5.5-1.5-8-1.6l-1.6,8.9c0.9,0,1.8,0.2,2.9,0.3c1,0.2,2,0.4,3.1,0.8
			c1,0.3,2,0.7,2.9,1.2c0.9,0.5,1.7,1,2.4,1.5c2.2,1.7,3.4,3.4,3.5,5c0.1,1.6-0.4,3.2-1.6,4.7C1126.8,266.2,1125.7,267,1124.4,267.4
			z"/>
	</g>
	<g>
		<polygon class="st2" points="1135.1,333.1 1154.6,317.3 1156.5,319.7 1147.9,349 1156.8,360 1166,327.4 1165.6,321.7 
			1170.9,323.2 1200.9,321 1192.7,310.8 1163.1,313.9 1160.5,312.5 1180.8,296.1 1173.6,287.2 1127.8,324.1 		"/>
	</g>
	<g>
		<path class="st2" d="M1182.4,345.6c-4,2.2-7.5,4.6-10.3,7.3c-2.8,2.7-4.9,5.5-6.3,8.6c-1.4,3.1-2,6.3-1.8,9.8
			c0.2,3.4,1.3,7,3.4,10.8c3.8,7,9,11.1,15.7,12.4c6.7,1.3,14.4-0.4,23-5c4-2.2,7.5-4.6,10.3-7.3c2.8-2.7,4.9-5.6,6.3-8.7
			c1.4-3.1,2-6.4,1.8-9.8s-1.3-7-3.3-10.7c-3.8-7-9.1-11.2-15.8-12.5S1191,341,1182.4,345.6z M1203.3,351.9c3.9,0.4,6.9,2.4,8.8,6
			c1.1,2.1,1.6,4.1,1.5,6c-0.1,1.9-0.8,3.8-1.9,5.5c-1.1,1.8-2.7,3.4-4.6,5c-1.9,1.6-4.2,3.1-6.7,4.4c-6.3,3.4-11.4,4.9-15.3,4.4
			c-3.9-0.5-6.8-2.5-8.7-6.1c-1.1-2-1.5-3.9-1.4-5.8c0.1-1.9,0.7-3.7,1.8-5.5c1.1-1.8,2.6-3.5,4.6-5.1c2-1.6,4.2-3.1,6.8-4.6
			C1194.3,352.9,1199.4,351.5,1203.3,351.9z"/>
	</g>
	<g>
		<polygon class="st2" points="1185.5,420.2 1231.5,404.6 1238.7,426.1 1248.4,422.8 1237.5,390.4 1181.8,409.3 		"/>
	</g>
	<g>
		<path class="st2" d="M1203.7,492.7l7.9-1.3l-1.2-7.4l47.9-7.7l-5.6-34.7c-7.9,1.3-14.8,2.2-20.7,2.5c-5.9,0.3-10.8,0.3-14.8,0.1
			c-4-0.3-7.1-0.7-9.3-1.2c-2.2-0.5-3.7-1-4.4-1.3l-1-6.1l-20.5,3.3l1.3,8l10.6-0.4l6,37.3l-10.2,2.9l1.3,8l10.3-1.7l-0.4,10.2
			l12.8,5l-0.8,18l-13.2,4.1l-0.5,12.1l60.1-18.6l0.4-8.5L1203.7,492.7z M1219.7,455.3c6.5,0.2,14.7-0.3,24.5-1.5l2.1,12.8
			l-37.8,6.1l-3.1-19C1208.5,454.5,1213.3,455.1,1219.7,455.3z M1244.9,519.1l-9.3,1.4l-13.3,3.8l0.5-12.6l12.8,4.8l9.2,2.2
			L1244.9,519.1z"/>
	</g>
	<g>
		<path class="st2" d="M1202.9,551.2c-1.9-0.4-3.6-0.1-5,0.9c-1.4,1-2.3,2.5-2.6,4.4c-0.4,2.1-0.1,3.9,0.8,5.3
			c0.9,1.4,2.3,2.3,4.3,2.7c1.9,0.4,3.6,0.1,4.9-0.9c1.4-1,2.2-2.5,2.6-4.6c0.4-2,0.1-3.7-0.8-5.1
			C1206.2,552.4,1204.8,551.5,1202.9,551.2z"/>
	</g>
	<g>
		<path class="st2" d="M1252.8,552.8l-8.7,2.6c0.4,0.8,0.7,1.7,1,2.7c0.3,1,0.5,2,0.7,3.1c0.2,1.1,0.3,2.1,0.3,3.1
			c0,1-0.1,2-0.2,2.9c-0.5,2.7-1.5,4.5-2.8,5.4c-1.4,0.9-3,1.1-4.9,0.7c-1.5-0.3-2.7-0.9-3.6-1.8s-1.8-2-2.6-3.3
			c-0.8-1.3-1.6-2.6-2.4-4.1c-0.8-1.4-1.9-2.8-3.2-4c-1.3-1.2-2.9-2.3-4.8-3.3c-1.9-0.9-4.3-1.5-7.2-1.8l-1.7,9.2
			c2.3,0.4,4.1,1.2,5.5,2.2c1.3,1.1,2.5,2.2,3.4,3.6c0.9,1.3,1.7,2.7,2.5,4.2c0.7,1.5,1.6,2.9,2.7,4.3c1.1,1.3,2.5,2.6,4.2,3.7
			c1.7,1.1,4,1.9,6.8,2.4c4.2,0.8,7.9,0,10.9-2.4c3.1-2.4,5.1-6.2,6.1-11.4c0.7-3.9,0.9-7.2,0.5-10.1
			C1254.6,557.8,1253.9,555.1,1252.8,552.8z"/>
	</g>
	<g>
		<path class="st2" d="M981.1,512.7c-8.2-1.7-17.9-6.1-25.6-16.5c-2.8-3.8-5.3-8.4-7.4-14c-0.1-0.3-0.5-0.5-0.8-0.4
			c-0.3,0.1-0.5,0.5-0.4,0.8c2.1,5.7,4.7,10.4,7.6,14.2c8.4,11.4,19.3,15.8,28,17.3c8.7,1.5,15.3,0.1,15.4,0.1
			c0.3-0.1,0.5-0.4,0.5-0.7c-0.1-0.3-0.4-0.5-0.7-0.5l0,0l-0.3,0.1C996,513.4,989.3,514.4,981.1,512.7z"/>
	</g>
	<g>
		<path class="st2" d="M883.4,514.2c0,0-0.2,0.2-0.7,0.6c-3.1,2.6-16.8,13-32.7,12c-0.3,0-0.6,0.2-0.6,0.6c0,0.3,0.2,0.6,0.6,0.6
			c18.9,1.2,34.3-12.8,34.3-12.8c0.2-0.2,0.3-0.6,0-0.9C884.1,514,883.7,514,883.4,514.2z"/>
	</g>
	<g>
		<path class="st2" d="M880.7,522.4c0,0-0.2,0.2-0.5,0.7c-2.2,2.8-11.1,13-23.8,17.1c0.1,0.4,0.2,0.8,0.2,1.2
			c15.4-4.9,25-18.3,25.1-18.3c0,0,0-0.1,0-0.1c0.1-0.3,0.1-0.6-0.2-0.8C881.3,522.1,880.9,522.1,880.7,522.4z"/>
	</g>
	<g>
		<path class="st2" d="M968.1,498.2c-4.1-2.3-8.3-5.5-12.5-9.7c0,0-0.1-0.1-0.1-0.1c-0.2-0.1-0.5-0.1-0.7,0.1
			c-0.2,0.2-0.2,0.6,0,0.9c4.3,4.3,8.5,7.5,12.7,9.9c6.8,3.9,13.5,5.4,19.5,5.7c4.4,0,6.6,0,11.4-1c0.6-0.1,1.2-0.3,1.8-0.4
			c8.6-2.2,14.1-6.1,14.1-6.2c0.3-0.2,0.3-0.6,0.1-0.8c-0.1-0.1-0.1-0.1-0.2-0.2c-0.2-0.1-0.5-0.1-0.7,0l0,0l-0.2,0.2
			c-1.2,0.8-6.9,4.4-15.1,6.2C990.1,504.6,979.4,504.6,968.1,498.2z"/>
	</g>
	<g>
		<path class="st2" d="M987.3,494.9c1.2-0.3,2.4-0.7,3.6-1.2c15.6-6.6,23.6-26.7,18.2-46.9c-0.6-2.2-1.3-4.2-2.1-6.2
			c-1-2.4-2.2-4.7-3.5-6.9l0,0c0,0,0,0,0,0c-8.5-13.8-23.2-21.5-37.2-17.7c-1.2,0.3-2.4,0.7-3.5,1.2c-12.8,5.4-20.5,19.9-19.8,36
			c0.1,3.6,0.6,7.2,1.6,10.9c0.6,2.2,1.3,4.4,2.2,6.4C954.1,488.4,971.2,499.2,987.3,494.9z M944.9,461.1c-0.1-0.3-0.1-0.6-0.2-0.9
			c-0.1-0.6-0.2-1.1-0.3-1.7c-0.1-0.4-0.1-0.8-0.2-1.3c-0.1-0.5-0.1-0.9-0.2-1.4c0-0.5-0.1-1-0.1-1.5c0-0.3-0.1-0.7-0.1-1
			c2.8-10.1,9.3-19.6,21.2-24.6c1.8-0.8,3.7-1.4,5.8-1.9c5.8-1.5,11.3-1.2,16.3,0.2c0.5,0.1,1,0.3,1.5,0.4c0.3,0.1,0.5,0.2,0.8,0.3
			c0.2,0.1,0.4,0.1,0.6,0.2c0.2,0.1,0.5,0.2,0.7,0.3c0.3,0.1,0.5,0.2,0.8,0.3c0.2,0.1,0.5,0.2,0.7,0.3c0.2,0.1,0.4,0.1,0.5,0.2
			c0.3,0.1,0.5,0.2,0.8,0.4c0.2,0.1,0.5,0.2,0.7,0.3c0.1,0.1,0.3,0.1,0.4,0.2c0.3,0.1,0.5,0.3,0.8,0.4c0.3,0.1,0.5,0.3,0.8,0.4
			c0.1,0.1,0.2,0.1,0.3,0.2c0.2,0.1,0.5,0.3,0.7,0.4c0.3,0.2,0.6,0.3,0.9,0.5c0.1,0.1,0.2,0.1,0.3,0.2c0.2,0.1,0.4,0.3,0.6,0.4
			c0.3,0.2,0.6,0.4,0.9,0.6c0.1,0.1,0.2,0.1,0.3,0.2c0.2,0.1,0.3,0.2,0.5,0.3c0.3,0.2,0.6,0.4,0.9,0.6c0.2,0.2,0.4,0.3,0.7,0.5
			c0.4,0.7,0.9,1.5,1.3,2.2c0.2,0.3,0.4,0.6,0.5,1c0.6,1.1,1.1,2.3,1.6,3.4c0.8,1.9,1.5,4,2.1,6.1c0.3,1.2,0.6,2.5,0.8,3.7
			c0.1,0.4,0.1,0.8,0.2,1.1c0.1,0.8,0.3,1.7,0.4,2.5c0.1,0.7,0.1,1.4,0.1,2.2c0,0.5,0.1,1,0.1,1.5c0,0.8,0,1.5,0,2.3
			c0,0.4,0,0.9,0,1.3c0,0.8-0.1,1.7-0.2,2.5c0,0.3,0,0.7-0.1,1c-0.1,0.8-0.3,1.6-0.4,2.5c-0.1,0.3-0.1,0.6-0.2,0.9
			c-0.2,0.7-0.4,1.5-0.6,2.2c-0.1,0.4-0.2,0.7-0.3,1.1c-0.2,0.7-0.5,1.4-0.7,2.1c-0.1,0.3-0.2,0.7-0.4,1c-0.3,0.7-0.6,1.4-0.9,2
			c-0.1,0.3-0.3,0.6-0.4,0.9c-0.3,0.6-0.7,1.2-1,1.8c-0.2,0.3-0.3,0.6-0.5,1c-0.3,0.5-0.7,1-1.1,1.6c-0.2,0.3-0.5,0.7-0.7,1
			c-0.4,0.5-0.7,0.9-1.1,1.4c-0.3,0.3-0.5,0.7-0.8,1c-0.4,0.4-0.7,0.7-1.1,1.1c-0.3,0.3-0.7,0.7-1,1c-0.4,0.3-0.8,0.6-1.2,0.9
			c-0.4,0.3-0.8,0.7-1.2,1c-0.4,0.3-0.8,0.5-1.2,0.8c-0.4,0.3-0.9,0.6-1.3,0.8c-0.4,0.2-0.8,0.4-1.3,0.6c-0.5,0.2-1,0.5-1.5,0.7
			c-1.1,0.5-2.2,0.8-3.4,1.2c-15.3,4.1-31.9-6.2-39.3-23.7c-0.8-2-1.6-4.1-2.1-6.2C945.3,462.8,945.1,462,944.9,461.1z M963.1,418.3
			c1.1-0.5,2.2-0.8,3.4-1.2c12.4-3.3,25.6,2.8,34,14.5c-7.8-5.1-18.2-9.1-29.9-6.1c-2.1,0.5-4.1,1.2-6,2
			c-10.7,4.5-17.3,12.7-20.7,21.7C944.7,435.1,951.9,422.9,963.1,418.3z"/>
	</g>
	<g>
		<path class="st2" d="M849.1,490.7c0.4,1.7,1,3.4,1.7,5c2.6,6.3,6.9,11.2,11.9,14.3c5,3,10.8,4.1,16.5,2.5c0.8-0.2,1.5-0.5,2.3-0.8
			c11.3-4.7,17.1-19.3,13.5-33.9c-0.4-1.7-1-3.3-1.6-4.9c-0.7-1.6-1.4-3.1-2.3-4.5c-5.9-9.8-16.2-15.2-26.1-12.4
			c-0.8,0.2-1.5,0.5-2.3,0.8c-9.2,3.9-14.8,14.4-14.5,26.1c0,0,0,0,0,0C848.1,485.5,848.4,488.1,849.1,490.7z M880.9,510.6
			c-0.7,0.3-1.4,0.5-2.1,0.7c-0.4,0.1-0.9,0.2-1.3,0.3c-0.3,0.1-0.6,0.1-0.9,0.2c-0.3,0.1-0.7,0.1-1,0.1c-0.3,0-0.6,0.1-0.9,0.1
			c-0.4,0-0.7,0-1.1,0c-0.3,0-0.6,0-0.9,0c-0.4,0-0.7-0.1-1.1-0.1c-0.3,0-0.6-0.1-0.8-0.1c-0.4-0.1-0.7-0.2-1.1-0.2
			c-0.3-0.1-0.5-0.1-0.8-0.2c-0.4-0.1-0.8-0.2-1.2-0.4c-0.2-0.1-0.5-0.1-0.7-0.2c-0.4-0.2-0.8-0.4-1.3-0.5c-0.2-0.1-0.4-0.2-0.6-0.3
			c-0.6-0.3-1.2-0.6-1.8-1c-4.8-2.9-8.9-7.6-11.4-13.7c-0.6-1.5-1.2-3.2-1.6-4.8c-0.3-1.3-0.6-2.5-0.7-3.8c-0.1-0.5-0.1-1-0.1-1.5
			c-0.1-0.7-0.2-1.5-0.2-2.2c2.1-7.3,6.8-14.2,15.3-17.7c1.2-0.5,2.4-0.9,3.7-1.3c4.1-1.1,8-0.9,11.5,0c0.9,0.2,1.8,0.5,2.6,0.8
			c0.1,0,0.2,0.1,0.3,0.1c0.3,0.1,0.6,0.3,0.9,0.4c-0.3-0.1-0.6-0.3-0.9-0.4c0.8,0.3,1.6,0.7,2.4,1.1c-0.5-0.2-1-0.5-1.5-0.7
			c0.5,0.2,1,0.5,1.5,0.7c0.1,0,0.2,0.1,0.2,0.1c0.4,0.2,0.7,0.4,1,0.6c-0.3-0.2-0.6-0.4-1-0.6c0.8,0.4,1.5,0.8,2.2,1.3
			c-0.4-0.3-0.8-0.5-1.3-0.7c0.5,0.3,0.9,0.5,1.3,0.8c0,0,0.1,0,0.1,0.1c0.4,0.2,0.7,0.5,1.1,0.8c-0.3-0.2-0.7-0.5-1-0.7
			c0.7,0.5,1.4,1,2.1,1.5c-0.3-0.3-0.7-0.5-1.1-0.7c0.4,0.3,0.8,0.5,1.1,0.8c0.2,0.4,0.4,0.8,0.7,1.2c0.1,0.3,0.3,0.5,0.4,0.8
			c0.4,0.7,0.7,1.4,1,2.2c0.6,1.5,1.2,3.1,1.6,4.7c0.2,1,0.4,1.9,0.6,2.9c0.1,0.3,0.1,0.6,0.1,0.9c0.1,0.6,0.2,1.3,0.2,1.9
			c0,0.4,0,0.7,0.1,1.1c0,0.6,0,1.2,0,1.8c0,0.4,0,0.7,0,1.1c0,0.6-0.1,1.2-0.1,1.7c0,0.3-0.1,0.7-0.1,1c-0.1,0.6-0.2,1.2-0.3,1.8
			c-0.1,0.3-0.1,0.6-0.2,0.9c-0.2,0.9-0.4,1.7-0.7,2.5c0,0,0,0,0,0.1c-0.2,0.8-0.5,1.6-0.8,2.4c-0.1,0.3-0.2,0.5-0.3,0.7
			c-0.2,0.5-0.5,1-0.7,1.6C889,505.1,885.4,508.7,880.9,510.6z M879.7,464c0.9,0.2,1.7,0.5,2.6,0.8
			C881.4,464.6,880.5,464.3,879.7,464z M863,458c0.7-0.3,1.4-0.5,2.1-0.7c8.4-2.4,17.1,1.5,23,9.2c-5.4-3.3-12.4-5.8-20.2-3.6l0,0
			c-1.4,0.4-2.6,0.8-3.8,1.3c-7.4,3.1-12.1,8.7-14.7,14.9C850.2,469.4,855.3,461.2,863,458z"/>
	</g>
	<g>
		<path class="st2" d="M950.2,566.1l1,0.9c8.8-10.6,10.6-27.7,10.7-28.4l-1.4-0.1C960.6,538.5,958.7,555.8,950.2,566.1z"/>
	</g>
	<g>
		<path class="st2" d="M868.3,638.3c-0.3,1.6-0.5,2.6-0.5,2.6c-0.1,0.3,0.1,0.5,0.4,0.6c0.3,0.1,0.5-0.1,0.6-0.4c0,0,0.3-1,0.6-2.7
			c0.9-5.2,2.4-16.7-1.7-24c-0.1-0.2-0.4-0.3-0.7-0.2c-0.2,0.1-0.3,0.4-0.2,0.7C870.6,621.8,869.3,633.2,868.3,638.3z"/>
	</g>
	<g>
		<path class="st2" d="M1119.8,707.7c5.4-42.1,3.4-67.6,0.2-96.3c0,0,0,0,0,0c0,0-0.1-0.4-0.2-1.1c0-0.1,0-0.2,0-0.2l0,0
			c-0.3-1.8-1.1-5.2-3-9.1c-2.6-5.5-7.5-11.8-16-15.6c-0.6-0.4-1.2-0.8-2-1c0.8-2.3,3.8-12.2,6-24.5c0-0.3,0.1-0.5,0.1-0.8
			c2.6-14.8-5.4-31.4-11.8-51.9c-0.7-2.2-1.2-4.6-1.6-7c-0.1-0.5-0.2-1.1-0.2-1.6c0-0.3-0.1-0.7-0.1-1.1c-0.1-0.5-0.1-1.1-0.2-1.6
			c0-0.1,0-0.1,0-0.2c2.7,1,5.8,3.6,8.3,6.2c1.5,1.6,2.9,3.1,3.9,4.3c1,1.2,1.5,1.9,1.5,1.9c0.1,0.2,0.4,0.3,0.6,0.2
			c0.2-0.1,0.4-0.2,0.5-0.5c0.6-3.3-0.1-6.5-1.3-9.4c-2.7-6.5-8.3-11.7-10.7-13.7c3.2-0.2,5.9-0.8,8-1.7c4.9-2.1,7.2-5.6,8.1-8.6
			c0.9-3,0.6-5.4,0.6-5.5c0-0.3-0.3-0.5-0.6-0.5c-0.3,0-0.6,0.3-0.6,0.6l0,0l0,0h0c0,0.1-0.2,2.5-3.7,4c-1,0.4-2.3,0.8-4,0.9
			c-1.4,0.1-2.6-0.2-3.7-1.1c-1.1-0.9-2.1-2.4-3-4.5c-0.6-1.4-1.1-3.1-1.6-5.1c0-0.3,0.1-0.6,0.1-0.9c0.1-0.4,0.1-0.7,0.1-1
			c0,0,0-0.1,0-0.2c0,0,0,0,0-0.1c0.1-0.6,0.1-1.1,0.2-1.6c0-0.1,0-0.3,0.1-0.4c0,0,0-0.1,0-0.1c0.1-0.4,0.1-0.8,0.1-1.2
			c0-0.1,0-0.2,0-0.3c0-0.5,0-0.9,0-1.3c0,0,0-0.1,0-0.1c0,0,0,0,0,0c0,0,0,0,0,0c0,0,0-0.1,0-0.1c0-0.1,0-0.1,0-0.2
			c0-0.1,0-0.1,0-0.2c0,0,0-0.1,0-0.1c0,0,0,0,0-0.1c0-0.1-0.1-0.3-0.2-0.4c-0.5-0.7-1.3-1.1-2.2-1.2c0,0,0,0,0,0
			c-0.8-6-1.4-13.5-1.8-22.4c-0.5-8.9-2.6-16.9-5.4-23.6c-6-14.3-15-23.4-17.5-25.7c0.1-0.1,0.3-0.1,0.4-0.2
			c3.4-1.4,6.7-2.1,9.1-2.4c1.2-0.1,2.2-0.2,2.9-0.2c0.3,0,0.6,0,0.8,0l0.3,0l0.6-0.3c0.1-0.2,0.1-0.5,0-0.6
			c-3.3-4.9-7.8-6.5-11.8-6.6c-3.2-0.1-6,0.6-7.9,1.3c3.3-4.5,4.3-9.1,4.3-13c0-4.4-1.3-7.8-1.7-8.9c-0.1-0.2-0.2-0.3-0.2-0.4
			c-0.1-0.2-0.3-0.3-0.5-0.3l-0.6,0.3c-1.8,3.5-3.8,6.1-5.3,7.7c-0.1,0.1-0.1,0.1-0.2,0.2c6.4-13.7,2.9-26.5,0.2-32.9
			c-1.2-2.8-2.2-4.4-2.2-4.5c-0.1-0.2-0.4-0.3-0.7-0.3c-0.3,0.1-0.4,0.3-0.4,0.6c0.4,5.9-0.7,9.9-1.8,12.4c-0.3,0.7-0.6,1.3-1,1.8
			c1.5-10.9-0.7-20.7-4.1-28.6c-4-9.5-9.4-16.3-11.9-19c-0.8-0.9-1.3-1.4-1.3-1.4c-0.2-0.2-0.5-0.2-0.7-0.1
			c-0.2,0.1-0.4,0.4-0.3,0.6c1.9,14.2-9.9,29.2-22.4,40.7c-6.2,5.7-12.5,10.5-17.3,13.9c-2.4,1.7-4.4,3-5.8,3.9
			c-1,0.7-1.7,1.1-2,1.3c-28.6-4.7-53.2,0.7-72.5,8.7c-13.6,5.7-24.5,12.7-32.2,18.4c-3.9,2.8-7,5.4-9.2,7.2c-1.1,0.9-2,1.7-2.7,2.2
			c-0.6,0.5-1,0.8-1.2,0.9c-15.9-4.5-24.4-15.7-29.1-26.8c-2.9-6.8-4.2-13.6-4.9-18.6c-0.3-2.5-0.5-4.6-0.5-6.1c0-0.7,0-1.3,0-1.7
			c0-0.4,0-0.6,0-0.6c0-0.3-0.2-0.5-0.5-0.6c-0.3-0.1-0.6,0.1-0.7,0.3c-11.5,23.7-7,44.6-1.6,57.5c2.1,5,4.3,8.8,5.8,11.1
			c-4.4-3.4-7.5-8.4-9.4-13.1c-1.4-3.3-2.3-6.5-2.8-8.9c-0.3-1.2-0.4-2.1-0.6-2.8c-0.1-0.7-0.2-1-0.2-1c0-0.3-0.3-0.5-0.6-0.5
			c-0.3,0-0.6,0.2-0.6,0.5c-4.5,17.5-2.2,30.9,1.9,40.6c4.4,10.4,10.7,16.3,12.7,18c-2.2,1.6-3.2,4.3-3.7,6.7
			c-0.6,2.6-0.5,4.9-0.5,4.9c0,0.3,0.2,0.5,0.5,0.6c0.3,0.1,0.5-0.1,0.7-0.3c1.6-3,3.8-4.5,5.3-5.2c-10.5,16.3-9.9,35.7-7,52.7
			c-5.2,5-7.9,12.2-9.2,19.5c-1.9,10.4-1,20.9-0.4,25.8c-4.1-7-9.6-9.4-13.4-10.1c-2.8-0.5-4.7-0.2-4.7-0.2l-0.4,0.3l0.1,0.5
			c4.1,5.5,4.5,13.1,3.1,21.1c-0.1,0.7-0.3,1.3-0.4,2c-0.2,0.9-0.4,1.8-0.6,2.7c0,0.1,0,0.2-0.1,0.2c-0.2,0.6-0.4,1.3-0.5,1.9
			c0.2-0.6,0.4-1.2,0.5-1.8c-0.2,0.8-0.4,1.6-0.7,2.4c0.1-0.2,0.1-0.4,0.2-0.6c-0.1,0.2-0.1,0.4-0.2,0.6c-0.1,0.3-0.2,0.5-0.3,0.8
			c-0.2,0.6-0.4,1.3-0.6,1.9c-0.1,0.3-0.2,0.6-0.3,0.8c-0.2,0.5-0.4,1-0.6,1.6c0.2-0.5,0.4-1,0.6-1.5c-0.2,0.7-0.5,1.3-0.7,2
			c0.1-0.2,0.1-0.3,0.2-0.5c-0.1,0.2-0.1,0.3-0.2,0.5c-0.1,0.2-0.1,0.4-0.2,0.6c-0.2,0.5-0.4,1.1-0.6,1.6c0.2-0.5,0.4-1,0.6-1.6
			c-0.3,0.9-0.7,1.7-1,2.5c0.1-0.3,0.2-0.6,0.4-0.9c-0.1,0.3-0.2,0.6-0.4,0.9c-0.1,0.2-0.1,0.3-0.2,0.5c-0.3,0.7-0.5,1.3-0.8,2
			c-0.1,0.2-0.2,0.5-0.3,0.7c-0.3,0.6-0.5,1.2-0.8,1.8c-0.1,0.2-0.2,0.4-0.3,0.6c-0.3,0.7-0.7,1.5-1,2.1c0,0,0,0,0,0
			c-1.5,3-2.8,5.5-3.8,7.3c-1,1.8-1.7,2.9-1.7,3c-0.3,0.4-11,13-13.7,28.3c-1.3,7-0.8,14.6,3,21.8c-0.5-0.3-1.1-0.7-1.8-1.2
			c-1.8-1.3-4-3.4-5.6-6.2c-0.1-0.2-0.3-0.3-0.5-0.2c-0.2,0.1-0.4,0.2-0.4,0.5c0,0-0.3,6.8,2,15.2c1.1,4,2.7,8.3,5.3,12.5
			c-6.9-0.5-16.7-1.1-23.8-1.5v-12v-53.5v-4.4c0-6.9-17-27-17-27v-36.5c0,0,0,0,0,0c0,0,0,0,0,0v-0.3l-0.1,0.1
			c-0.4-2.6-5.5-4.7-11.8-4.7c-6.3,0-11.4,2.1-11.8,4.7l-0.1-0.1v36.8c0,0-17,20.2-17,27v4.4c0,0,0,0,0-0.1v53.5c0,0,0,0,0,0.1v7.1
			c-23.5-40.2-37-86.9-37-136.7c0-69.1,26-134.9,73.1-185.4l-2.8-2.6c-47.8,51.2-74.1,117.9-74.1,188
			c0,151.9,123.6,275.5,275.5,275.5c111,0,210.6-66,253.8-168.3l-3.5-1.5C1169,651.1,1146.9,682.3,1119.8,707.7z M1118.3,709.1
			c-1.1,1-2.1,2-3.2,3c-12.9-3.9-27.4-7.9-43.3-12.1c15.8-7.8,30.9-21,42-42.4l0,0c3.9-7.1,6.2-16.1,6.9-26.1
			C1122.5,653.4,1122.7,676.2,1118.3,709.1z M1103.7,558.8c0,0.3-0.1,0.5-0.1,0.8c-1.9,10.5-4.4,19.2-5.5,22.9
			c-0.2,0.7-0.4,1.2-0.5,1.5c-3.4-0.4-7.9,0.5-11.5,2.1c-4.2,1.9-8.8,6.2-12.7,10.2c2.1-3.3,4-6.8,4.4-9.2c0.1-0.5,0.1-1,0-1.5
			c-0.1-0.5-0.3-0.9-0.7-1.2c-0.3-0.2-0.5-0.3-0.8-0.3c-0.9-0.2-2.3,0-4.1,0.3c-1.8,0.4-4,1-6.6,1.9c-5.1,1.8-11.3,4.5-17.8,8.3
			c-12.9,7.6-26.5,19.2-32.5,34.8c-0.1,0.3,0,0.7,0.4,0.8c0.3,0.1,0.7,0,0.8-0.4c5-13.3,15.9-23.8,27.1-31.2
			c11.2-7.4,22.7-11.8,28.7-13c1.7-0.4,3-0.5,3.6-0.3l0.3,0.1l0.2,0.4c0,0.2,0,0.6,0,1c-0.3,1.8-1.9,4.9-3.8,8c-1.9,3-4,6.1-5.4,8
			c-0.9,1.3-1.5,2.1-1.6,2.1l0,0v0c0,0,0,0,0,0c-0.1,0.1-0.1,0.2-0.1,0.3l0,0.1l0,0c0,0.2,0.1,0.3,0.2,0.4c0.1,0.1,0.3,0.2,0.5,0.1
			l0,0l0.1-0.1c0.1,0,0.2-0.1,0.3-0.2c0,0,0,0,0,0l0,0l0,0c0,0,0.7-0.9,1.9-2.3c1.2-1.4,2.9-3.4,4.9-5.5c3.9-4.2,9-8.8,13.1-10.6
			c3.5-1.6,8.2-2.5,11.3-1.9c0.5,0.1,0.9,0.2,1.3,0.4c0.1,0.1,0.2,0.2,0.3,0.3c0.2,0.1,0.4,0.2,0.7,0.3c0.1,0.1,0.2,0.1,0.2,0.2
			c0.5,0.5,0.7,1.2,0.5,2.3c-0.3,1.8-2,4.7-5.8,8.6c-7.5,7.7-14,23.5-18.7,37.5c-4.7,14-7.6,26-7.6,26c-0.1,0.4,0.1,0.7,0.5,0.8
			c0.4,0.1,0.7-0.1,0.8-0.5c0,0,0.7-3,2-7.7c1.3-4.7,3.2-11.2,5.5-18.2c1.1-3.2,2.2-6.4,3.5-9.6c4.5,9.1,2.8,23.3,1.6,29.8
			c-0.4,2.2-0.7,3.5-0.7,3.5c-0.1,0.4,0.1,0.7,0.5,0.8c0.3,0.1,0.7-0.1,0.8-0.5c0,0,0.3-1.3,0.7-3.6c1.2-6.8,3.2-22-2.2-31.7
			c4.1-10.4,9-20.3,14.3-25.7c3.9-4,5.7-7,6.2-9.3c0.1-0.7,0.1-1.3,0-1.8c6.1,3.2,10,7.7,12.4,12.1c2.6,4.6,3.6,8.9,4,10.9
			c2.6,17.9,0.5,34.9-5.9,46.6l0.6,0.3l-0.6-0.3c-13.5,26-32.8,39.7-52.2,46.3c-19.4,6.6-38.9,6.2-52.7,3.7
			c-7.1-1.3-12.6-3.1-15.8-4.7c-4-2.1-7.9-3.3-11.3-3.9c-7.4-1.3-13.2-0.1-15.9,0.8c2.6-4.3,6-6.3,9.3-7.2c3.6-1,7-0.6,8.3-0.3
			c0.4,0.1,0.6,0.1,0.6,0.1c0.3,0.1,0.6-0.1,0.8-0.4c0.1-0.3,0-0.6-0.2-0.8c-22.7-14.8-25.1-42.4-25.3-50.3c4.5,6.6,10.9,9.3,11,9.4
			c0.3,0.1,0.6,0,0.8-0.2c0.2-0.2,0.2-0.5,0.1-0.8c-5.9-9.7-6.6-20.2-4.8-29.8c3.2-17.6,14.5-32.7,17.3-36.1
			c0.4-0.5,0.6-0.7,0.6-0.7l0.1-0.1c0,0,3.4-5.5,7.4-13.8c0,0,0,0,0,0c3.6-5.1,7.4-12.3,10.9-19.3c3.6-7.1,7-13.9,9.8-18.1
			c1.5-2.2,3-2.7,4.8-2.4c2.8,0.5,6.3,3.6,9.4,7.5c3.1,3.8,5.8,8.2,7.5,11.2c1.1,2,1.8,3.2,1.8,3.2c0.1,0.3,0.5,0.4,0.8,0.3
			c0.2-0.1,0.4-0.3,0.4-0.5c0-0.1,0-0.1,0-0.2c0,0-0.2-1.7-0.6-4.5c-0.3-2.8-0.7-6.6-1.1-10.9c-0.7-8.6-1-19,0.3-26c0,0,0,0,0,0
			c0,0,0,0,0,0c0.5-2.8,1.3-5,2.3-6.4c1.4-1.9,3-2.4,4.7-2.1c2.2,0.4,4.7,2.2,6.9,4.3c2.2,2.1,4.2,4.6,5.4,6.2
			c0.3,0.4,0.5,0.7,0.7,1c0,0,0,0,0,0c1,2.3,1.7,3.9,1.7,3.9c0.1,0.3,0.5,0.5,0.9,0.3c0.3-0.1,0.5-0.5,0.3-0.9c0,0-0.5-1.1-1.2-2.7
			c0,0,0-0.1,0-0.1c0,0,0,0,0-0.1c0,0,0.2-1.8,0.5-4.6c0.3-2.8,0.9-6.5,1.5-10.2c0-0.1,0-0.1,0-0.2c1-5.7,2.5-11.5,4.1-14.2
			c0.5-0.9,1.1-1.4,1.5-1.6l0.3,0c0.3,0,0.9,0.4,1.6,1c0.7,0.6,1.4,1.5,2.3,2.6c1.6,2.2,3.5,5.1,5.3,8.4c3.5,6.1,7,13.2,9.4,18.3
			c0,0,0,0,0,0c2.2,5.9,3.9,10.1,3.9,10.1c0.1,0.3,0.5,0.5,0.8,0.4c0.3-0.1,0.5-0.5,0.4-0.8c0,0-0.4-0.9-1-2.5
			c0.2-0.1,0.3-0.3,0.3-0.4c0-0.1,0-0.2,0-0.3c0,0-0.2-0.7-0.6-1.8c-0.4-1.1-0.9-2.7-1.4-4.6c-1.1-3.7-2.4-8.4-3.1-12.5
			c-0.5-2.7-0.6-5.1-0.3-6.7c0,0,0,0,0,0c0,0,0,0,0,0c0.2-0.9,0.5-1.5,0.8-1.7c0.3-0.2,0.5-0.2,0.8-0.2c0.4,0.1,1,0.5,1.7,1.2
			c0.6,0.7,1.2,1.7,1.9,2.8c1.2,2.2,2.3,4.9,3.1,7.1c0,0,0,0.1,0,0.1c0,0,0,0,0,0c0.4,2.1,0.8,4.2,1.4,6.1
			C1098.4,528.1,1106.2,544.7,1103.7,558.8z M901.5,666c-1.7-20.5,2.8-34,4-37c0.2-0.4,0.3-0.6,0.3-0.6c0.1-0.3,0-0.6-0.2-0.7
			c-0.2-0.2-0.6-0.1-0.8,0c-3.3,3.1-5,7.7-5.7,10c-0.3-0.5-0.7-1.2-1.1-2.1c-1-2.2-2-5.4-2.4-9.9c-0.4-4.9,0-11.2,2.3-19
			c1.7-5.8,4.6-11.8,7.9-17.3c18,5.7,41.8,8.1,69.6,1.4c-4.3,6.9-9.3,16.8-11.3,27.8c-1.7,9.3-1.1,19.3,4,28.8
			c-0.7-0.4-1.4-0.9-2.3-1.5c-2.4-1.7-5.3-4.4-7.4-8.2c-0.1-0.3-0.4-0.4-0.7-0.3c-0.3,0.1-0.5,0.3-0.5,0.6c0,0-0.4,9,2.7,20.1
			c1.6,6,4.3,12.7,8.5,18.9C947.3,673.1,925,669.4,901.5,666z M998.8,508.3c1,0,2.5,0,4.2,0.3c5.3,1,13.1,4.4,18.5,15.9
			c0.1,0.1,0.2,0.2,0.3,0.3c0,0,0.1,0,0.1,0c0,0,0.1,0,0.1,0c0.1,0,0.2,0,0.3,0c0.1,0,0.2-0.1,0.3-0.3c0,0,0-0.1,0.1-0.1
			c0,0,0.1-0.1,0.1-0.1c0-0.1,0-0.1,0-0.2c0,0-0.2-1.2-0.5-3.2c-0.3-2.1-0.6-5-0.8-8.5c-0.4-6.2-0.4-14.1,0.7-22.1
			c0.1-0.4,0.1-0.8,0.2-1.2c0.1-0.8,0.2-1.5,0.4-2.3c0.1-0.8,0.3-1.6,0.5-2.4c0.1-0.3,0.1-0.5,0.2-0.8c0.1-0.5,0.2-1.1,0.4-1.6
			c0.1-0.3,0.2-0.6,0.2-0.9c0.1-0.5,0.2-0.9,0.4-1.4c0.1-0.3,0.2-0.6,0.3-1c0.1-0.4,0.3-0.9,0.4-1.3c0.1-0.3,0.2-0.6,0.3-1
			c0.2-0.4,0.3-0.9,0.5-1.3c0.1-0.3,0.3-0.6,0.4-1c0.2-0.4,0.3-0.8,0.5-1.2c0.1-0.3,0.3-0.6,0.4-0.9c0.2-0.4,0.4-0.8,0.6-1.2
			c0.2-0.3,0.3-0.6,0.5-0.9c0.2-0.4,0.4-0.8,0.6-1.1c0.2-0.3,0.4-0.6,0.6-0.9c0.2-0.4,0.4-0.7,0.7-1.1c0.2-0.3,0.4-0.6,0.6-0.9
			c0.2-0.3,0.5-0.7,0.7-1c0.2-0.3,0.4-0.6,0.7-0.8c0.3-0.3,0.5-0.6,0.8-0.9c0.2-0.3,0.5-0.5,0.7-0.8c0.3-0.3,0.6-0.6,0.9-0.9
			c0.3-0.2,0.5-0.5,0.8-0.7c0.3-0.3,0.6-0.5,0.9-0.8c0.3-0.2,0.6-0.4,0.9-0.7c0.3-0.2,0.7-0.5,1-0.7c0.3-0.2,0.6-0.4,0.9-0.6
			c0.3-0.2,0.7-0.4,1.1-0.6c0.3-0.2,0.7-0.4,1-0.5c0.2-0.1,0.4-0.2,0.7-0.3c0,0,0,0,0,0.1c0,0.2,0,0.5,0,0.8c0,0.1,0,0.2,0,0.4
			c0,0.2,0,0.5,0,0.7c0,0.2,0,0.3,0,0.5c0,0.4,0,0.8,0,1.2c0,0.2,0,0.4,0,0.6c0,0.3,0,0.7,0,1c0,0.2,0,0.4,0,0.6c0,0.5,0,1,0.1,1.6
			c0,0.2,0,0.4,0,0.6c0,0.5,0,1,0.1,1.6c0,0.1,0,0.2,0,0.4c0,0.6,0.1,1.3,0.1,2c0,0.2,0,0.4,0,0.5c0.1,0.7,0.1,1.4,0.2,2.2
			c0.8,8.7,2.4,19,6.1,25.5c0.1,0.2,0.2,0.2,0.4,0.3c0,0,0,0,0,0c0,0,0,0,0,0c0,0.1,0.1,0.2,0.1,0.3c0.2,0.6,0.4,1.2,0.6,1.8
			c0,0.1,0.1,0.3,0.1,0.4c0.3,0.7,0.6,1.4,0.8,2.2c0,0.1,0.1,0.2,0.1,0.4c0.3,0.7,0.5,1.3,0.8,2c0.1,0.1,0.1,0.3,0.2,0.4
			c0.3,0.7,0.6,1.3,0.8,2c0,0.1,0.1,0.2,0.1,0.2c-0.3-0.4-0.6-0.8-1-1.1c-2.7-3-6.2-6.3-9.8-6.9c-2.1-0.4-4.4,0.3-6,2.6
			c-1.2,1.6-2,4.1-2.5,6.9c-2,11.4-0.1,30.6,0.9,38.4c-2.2-3.9-6.5-10.8-11-15.2c-2.2-2.2-4.6-3.9-6.9-4.3c-2.2-0.4-4.5,0.5-6.1,2.9
			c-2.9,4.3-6.3,11.2-9.9,18.2c-1.9,3.7-3.8,7.4-5.7,10.8c0,0,0,0,0,0c0.6-1.4,1.2-2.9,1.7-4.3c0,0,0-0.1,0-0.1
			c0.5-1.4,1-2.8,1.5-4.3c0-0.1,0.1-0.1,0.1-0.2c0,0,0,0,0,0c0,0,0,0,0,0c0-0.1,0.1-0.2,0.1-0.3c0.3-1,0.7-2,1-3
			c0-0.1,0-0.2,0.1-0.2c0.3-0.9,0.6-1.9,0.8-2.8c0.1-0.2,0.1-0.4,0.2-0.6c0.3-1,0.5-2,0.7-2.9c0.1-0.2,0.1-0.4,0.1-0.7
			c0.2-1,0.4-2,0.6-3.1c0,0,0,0,0,0c0,0,0,0,0,0c0.2-1.3,0.4-2.5,0.6-3.8c0-0.4,0.1-0.7,0.1-1.1c0.1-0.9,0.2-1.8,0.2-2.7
			c0-0.4,0-0.9,0-1.3c0-0.8,0-1.6,0-2.4c0-0.5,0-0.9-0.1-1.4c0-0.7-0.1-1.5-0.2-2.2c0-0.5-0.1-1-0.2-1.4c-0.1-0.7-0.2-1.4-0.4-2.1
			c-0.1-0.5-0.2-0.9-0.3-1.4c-0.2-0.7-0.4-1.3-0.6-2c-0.1-0.4-0.3-0.9-0.4-1.3c-0.3-0.7-0.6-1.3-0.9-1.9c-0.2-0.4-0.3-0.8-0.5-1.1
			c0-0.1-0.1-0.2-0.1-0.3c-0.3-0.5-0.6-1.1-1-1.6C998.5,508.3,998.6,508.3,998.8,508.3z M1050.4,487
			C1050.4,486.9,1050.4,486.9,1050.4,487c0.1-1.2,0.2-2.3,0.3-3.5c0,0,0,0,0-0.1c0.1-1.2,0.3-2.5,0.5-3.8c0,0,0,0,0,0
			c0.2-1.3,0.4-2.7,0.6-4c0,0,0,0,0,0c0.1-0.6,0.3-1.3,0.4-1.9c0.1-0.5,0.2-1,0.3-1.5c0.2-0.7,0.3-1.4,0.5-2.1
			c0.1-0.4,0.2-0.9,0.3-1.3c0.2-0.7,0.4-1.5,0.6-2.2c0.1-0.4,0.2-0.8,0.3-1.1c0.2-0.7,0.5-1.4,0.8-2.1c0.1-0.4,0.2-0.7,0.4-1.1
			c0.3-0.7,0.6-1.4,0.9-2.1c0.1-0.3,0.3-0.6,0.4-0.9c0.4-0.8,0.8-1.5,1.2-2.1c0.1-0.2,0.2-0.4,0.3-0.6c1.1-1.7,2.2-3.3,3.6-4.5
			c0,0,0.1-0.1,0.1-0.1c0.1-0.1,0.2-0.2,0.4-0.3c0.3-0.2,0.8-0.6,1.2-0.9c0.2-0.2,0.5-0.3,0.8-0.4c0,0,0.1,0,0.1-0.1
			c0.2-0.1,0.4-0.2,0.6-0.3c0.1,0,0.2,0,0.2-0.1c0.2,0,0.3-0.1,0.4-0.1c0.1,0,0.2,0,0.2,0c0.1,0,0.2,0,0.3,0l0.4,0.2
			c0.1,0.1,0.2,0.3,0.3,0.6c0.4,1.6,0.9,6.9,1.9,13.2c1,6.3,2.5,13.7,5.1,19.9c0.1,0.1,0.2,0.3,0.3,0.3c0,0.1,0,0.2,0.1,0.2
			c0.1,0.4,0.2,0.9,0.3,1.3c0,0.1,0.1,0.2,0.1,0.3c0.2,0.6,0.3,1.1,0.5,1.7c0,0.1,0.1,0.2,0.1,0.3c0.1,0.5,0.3,1,0.4,1.5
			c0.1,0.2,0.1,0.4,0.2,0.6c0.2,0.5,0.3,1,0.5,1.5c0,0.1,0.1,0.3,0.1,0.4c0.2,0.6,0.4,1.3,0.6,1.9c0.1,0.2,0.1,0.3,0.2,0.5
			c0.2,0.5,0.3,1,0.5,1.5c0.1,0.2,0.1,0.4,0.2,0.6c0.2,0.5,0.4,1.1,0.6,1.6c0,0.1,0.1,0.2,0.1,0.4c0.2,0.6,0.4,1.3,0.7,1.9
			c0,0.1,0,0.1,0.1,0.2c-3.8-7.3-8.1-15-11.4-18.6c-1.1-1.1-2-1.9-3-2.1c-0.3-0.1-0.6,0-0.9,0c-0.9,0.3-1.6,1.1-2.2,2.1
			c-0.6,1-1.2,2.4-1.7,4c-1,3.1-1.9,7-2.6,10.9c-0.9,5.1-1.5,10.1-1.9,12.8c-0.1-0.2-0.2-0.4-0.2-0.6c-0.2-0.5-0.4-1-0.7-1.6
			c-0.4-1-0.8-2-1.3-3.1c0,0,0,0,0,0c-0.4-1.1-0.9-2.1-1.3-3.2c0,0,0,0,0,0c-0.4-1-0.8-2-1.2-3c0,0,0-0.1,0-0.1
			c-0.3-0.9-0.7-1.8-0.9-2.6c0-0.1,0-0.1-0.1-0.2c0-0.2,0-0.3,0-0.6c0-1.1,0.1-2.7,0.2-4.6C1050.2,489.1,1050.3,488.1,1050.4,487z
			 M1075.9,469c0-0.2,0.1-0.3,0.1-0.5c0.2-0.6,0.3-1.1,0.5-1.7c0.1-0.2,0.1-0.3,0.2-0.5c0.2-0.6,0.4-1.1,0.6-1.7
			c0.1-0.2,0.2-0.3,0.2-0.5c0.2-0.5,0.5-1.1,0.8-1.6c0.1-0.2,0.2-0.4,0.3-0.5c0.3-0.5,0.6-1,0.9-1.4c0.1-0.2,0.3-0.4,0.5-0.6
			c0.3-0.4,0.7-0.9,1-1.3c0.2-0.2,0.5-0.4,0.7-0.7c0.4-0.3,0.7-0.7,1.1-1c0.3-0.2,0.6-0.4,1-0.7c0.4-0.3,0.7-0.6,1.1-0.8
			c0,0,0.1,0,0.1,0c0.1,0,0.2-0.1,0.4-0.1c0.4-0.1,1-0.3,1.7-0.4c0.3-0.1,0.7-0.1,1-0.2c0.1,0,0.2,0,0.3,0c0.2,0,0.5-0.1,0.7-0.1
			c0.1,0,0.3,0,0.4,0c0.2,0,0.4,0,0.6,0c0.1,0,0.3,0,0.4,0c0.2,0,0.4,0,0.6,0.1c0.3,0.1,0.6,0.2,0.8,0.3c0.1,0,0.1,0.1,0.1,0.1
			c0.1,0.1,0.3,0.2,0.3,0.3l0,0l0,0l0,0l0,0l0,0.1l0,0.2c0,0.1,0,0.1,0,0.2c0,0.1,0,0.2,0,0.3c0,0,0,0.1,0,0.1c0,0.1,0,0.3,0,0.5
			c0,0.3-0.1,0.7-0.1,1.2c0,0.2,0,0.3-0.1,0.5c0,0.4-0.1,0.9-0.2,1.4c-0.1,0.4-0.1,0.8-0.2,1.2c-0.2,1.2-0.4,2.6-0.6,4c0,0,0,0,0,0
			c-0.1,0.8-0.2,1.6-0.4,2.5c-0.1,0.4-0.1,0.8-0.2,1.2c-0.1,0.7-0.2,1.4-0.3,2.1c0,0.1,0,0.2,0,0.3c-0.1,0.5-0.1,1.1-0.2,1.7
			c-0.1,0.4-0.1,0.8-0.2,1.2c0,0.4-0.1,0.7-0.1,1.1c-0.1,0.7-0.2,1.4-0.2,2.2c0,0.4-0.1,0.9-0.1,1.4c0,0.3-0.1,0.6-0.1,0.9
			c0,0.5-0.1,1-0.1,1.5c0,0.5-0.1,1-0.1,1.5c0,0.5,0,0.9-0.1,1.4c0,0.4,0,0.8,0,1.2c0,0.2,0,0.3,0,0.5c0,0.5,0,1,0,1.5
			c0,0.9,0,1.7,0,2.6c0,0.2,0,0.4,0,0.6c0,0.4,0,0.8,0,1.1c0,0.8,0.1,1.5,0.1,2.3c0,0.5,0.1,1,0.1,1.6c0,0,0,0,0,0
			c0,0.1,0,0.3,0,0.4c-1-2.1-2.1-4.2-3.3-5.5c-0.7-0.8-1.5-1.4-2.4-1.6c-0.6-0.1-1.2,0-1.8,0.4c-0.8,0.5-1.2,1.5-1.4,2.6
			c-0.3,1.9-0.1,4.4,0.3,7.2c0.4,2.5,1,5.1,1.7,7.7c-0.1-0.2-0.2-0.5-0.3-0.7c-0.6-1.5-1.1-3.2-1.7-4.8c-0.1-0.4-0.3-0.7-0.4-1.1
			l-1.7-5c-0.1-0.5-0.3-0.9-0.4-1.3c-0.2-0.6-0.4-1.1-0.6-1.7c-0.2-0.5-0.3-1.1-0.5-1.6c-0.2-0.6-0.4-1.3-0.6-1.9
			c-0.1-0.4-0.3-0.9-0.4-1.3c-0.2-0.7-0.4-1.3-0.5-2c-0.1-0.3-0.2-0.7-0.3-1c-0.2-0.9-0.5-1.8-0.6-2.7c0-0.1,0-0.1-0.1-0.2
			c0-0.1,0-0.2,0-0.3c0-0.1,0-0.2,0-0.3c0-0.4-0.1-0.8-0.1-1.3c-0.1-2.2,0-5.2,0.6-8.4C1075.5,470.4,1075.7,469.7,1075.9,469z
			 M1093.7,468.8c0.9,2.2,2,3.9,3.4,5c1.3,1.1,2.9,1.5,4.6,1.4c1.8-0.2,3.2-0.5,4.4-1c1.5-0.6,2.5-1.4,3.1-2.2
			c-0.1,0.8-0.3,1.7-0.6,2.7c-0.9,2.6-2.9,5.5-7.2,7.3c-2.3,1-5.3,1.6-9.2,1.7c-0.3,0-0.5,0.2-0.6,0.4c-0.1,0.2,0,0.5,0.2,0.7
			c0,0,0.1,0.1,0.3,0.3c1.6,1.3,8.3,7,11.2,14c1,2.3,1.5,4.8,1.3,7.2c-1-1.2-2.6-3.1-4.5-5.1c-2.8-2.8-6.1-5.6-9.3-6.7
			c0-0.1,0-0.1,0-0.2c0-0.4-0.1-0.7-0.1-1.1c0-0.1,0-0.2,0-0.4c0-0.4,0-0.8,0-1.3c0-0.4,0-0.8,0-1.2c0-0.1,0-0.2,0-0.3
			c0-0.4,0-0.9,0-1.3c0-0.4,0-0.8,0-1.2c0,0,0-0.1,0-0.1c0-0.5,0-1,0-1.5c0-0.4,0-0.8,0-1.2c0-0.5,0-1.1,0.1-1.6
			c0-0.4,0-0.7,0.1-1.1c0-0.6,0.1-1.1,0.1-1.7c0-0.3,0.1-0.6,0.1-1c0-0.6,0.1-1.2,0.2-1.8c0-0.2,0-0.4,0.1-0.7
			c0.1-0.7,0.1-1.3,0.2-2c0,0,0-0.1,0-0.1c0.4-3.1,0.8-6.1,1.1-8.7C1093.1,467.1,1093.4,468,1093.7,468.8z M942,549.4
			c0,4.1-2,7.1-3.1,8.5c-7.4-4.7-14.9-7.2-18.2-7.2c-4.7,0-8.9,5.7-14.7,13.8c0.2-5.7,1.8-21.2,13.4-24.7c0.4-0.1,1.3-0.3,2.7-0.3
			c4.6,0,12.2,1.6,16.4,4.1c0.6,0.4,1.2,1.1,1.7,1.8l0.4,0.7C941.5,547.4,942,548.8,942,549.4z M941.9,545.3
			c-0.1-0.2-0.2-0.4-0.4-0.6l-5.5-8.9c-4.7-7.4-9.6-14.1-17.1-14.1c-2,0-4,0.5-6.3,1.4c-9.3,3.9-15.3,22.3-15.3,22.5l-3.5,11.1
			l-4.6-10.7c-1.1-2.5-6.6-23.7,1.4-38.6c3.9-7.3,10.3-11.7,18.9-13.3c1-0.2,1.9-0.3,2.8-0.4c0.1,0.3,0.4,0.5,0.7,0.4
			c0.3,0,0.5-0.3,0.5-0.6c1.1-0.1,2.1-0.2,3.1-0.2c7,0,13,2.2,17.6,6.7c9.9,9.4,10.8,25.8,9.7,34l-1.6,12L941.9,545.3z M824.5,413
			c-3.7-8.9-5.9-21.1-2.5-36.9c0.5,2.4,1.5,6.1,3.1,10.1c2.4,5.7,6.3,12,12.6,15.4c0.3,0.1,0.6,0.1,0.8-0.1c0.2-0.2,0.2-0.5,0-0.8
			c0,0-0.2-0.3-0.7-0.9c-1.3-1.8-4.2-6.2-6.8-12.5c-5.1-12.3-9.3-31.8,0.5-54.1c0.2,4.6,1.2,14.6,5.5,24.8
			c4.6,11.1,13.3,22.5,29,27.3c-13.6,11.6-18.1,30.7-18.2,30.8c-0.1,0.3,0.1,0.7,0.5,0.7c0.3,0.1,0.7-0.1,0.7-0.5
			c0,0,0.1-0.3,0.2-0.9c1.1-3.9,6.2-20.2,18.2-29.9c0,0,0.1,0,0.1,0c0.4-0.2,0.9-0.5,1.6-1.1c4.9-3.9,20.4-17.8,43.9-27.6
			c18.8-7.9,42.7-13.2,70.5-8.9c-3.8,2.4-9.5,5-14.2,7c-4.5,1.9-8,3.2-8,3.2c-0.3,0.1-0.5,0.5-0.4,0.8c0.1,0.3,0.5,0.5,0.8,0.4l0,0
			c0,0,3.6-1.3,8.1-3.2c5.3-2.2,12-5.3,15.8-8c0.2-0.1,13.1-7.9,25.5-19.4c12-11.1,23.7-25.5,22.9-39.9c0.2,0.4,0.4,0.9,0.6,1.3
			c3.5,8.4,3.5,16.9,1,25.3c-7.4,25.2-36.8,49-56.9,61.2c-23.7,14.4-39.6,43.1-43.6,50.9c0.1-2.3,0.7-5.1,1.4-7.4c0.5-1.6,1-3,1.3-4
			c0.4-1,0.6-1.6,0.6-1.6c0.1-0.3,0-0.6-0.2-0.8c-0.2-0.2-0.6-0.1-0.8,0.1c-14.3,15.5-18.5,40.7-19.5,49.2c-0.4-1.9-0.8-4.3-1.1-6.5
			c-0.4-3.4-0.7-6.3-0.7-6.3c0-0.3-0.2-0.5-0.5-0.5l-0.7,0.3c-1.1,2-1.8,5.7-2.2,10.1c-0.9,9.5-0.8,22.4-0.6,29.2
			c-0.4-1-0.7-1.9-1.2-3c-4.5-10.8-12.9-25-12.9-25.1c-0.2-0.3-0.5-0.4-0.7-0.3c-0.3,0.1-0.4,0.4-0.4,0.7c0.5,2.4,0.9,5.3,1.1,7.7
			c0,0.3,0.1,0.5,0.1,0.8c-9.6-19.6-28.8-29.4-28.8-29.4c-0.3-0.2-0.7,0-0.8,0.2c-0.2,0.3-0.1,0.6,0.2,0.8c0.2,0.1,0.4,0.3,0.6,0.4
			c0.6,0.6,1.3,1.4,1.9,2.5c0.8,1.4,1.6,3,2.2,4.6c0.4,1,0.8,1.9,1.1,2.7c-2.7-2.6-8.4-7-18.5-10.6c-7.6-2.7-12.2-5.2-14.9-7.1
			c-1.3-0.9-2.2-1.7-2.8-2.2c-0.3-0.3-0.4-0.5-0.6-0.6l-0.1-0.1l0,0l-0.1-0.1c0,0-0.1-0.1-0.3-0.3C835.6,429.5,829,423.7,824.5,413z
			 M835.8,445.3c0.2-0.3,0.3-0.7,0.5-1c0.2-0.5,0.5-0.9,0.7-1.4c0.2-0.3,0.3-0.7,0.5-1c0.3-0.5,0.6-1,0.9-1.5
			c0.2-0.3,0.3-0.5,0.5-0.8c0.5-0.8,1-1.5,1.5-2.3c0.1-0.2,0.1-0.5,0-0.7c-0.1-0.2-0.4-0.3-0.6-0.3c0,0-0.5,0.1-1.3,0.4c0,0,0,0,0,0
			c0,0,0,0,0,0c-0.3,0.1-0.6,0.3-0.9,0.5c-0.1,0-0.1,0.1-0.2,0.1c-0.4,0.2-0.7,0.4-1.1,0.7c-0.1,0-0.1,0.1-0.2,0.1
			c-0.4,0.3-0.7,0.6-1.1,0.9c-0.1,0.1-0.1,0.1-0.2,0.2c-0.4,0.4-0.8,0.8-1.2,1.3c0,0-0.1,0.1-0.1,0.1c0,0,0-0.1,0-0.1
			c0-0.3,0.1-0.6,0.1-0.9c0-0.2,0.1-0.4,0.1-0.6c0.1-0.5,0.2-1.1,0.4-1.7c0.1-0.5,0.3-1.1,0.5-1.6c0.1-0.2,0.1-0.3,0.2-0.4
			c0.2-0.4,0.3-0.7,0.5-1c0.1-0.2,0.2-0.3,0.3-0.5c0.2-0.3,0.4-0.5,0.6-0.8c0.1-0.2,0.3-0.3,0.5-0.4c0.2-0.1,0.3-0.3,0.5-0.4
			c0,0,0,0,0,0c0,0,0,0,0.1,0.1c0,0,0,0,0,0c0,0,0,0,0,0c0.1,0.1,0.1,0.1,0.2,0.2c0,0,0.1,0.1,0.1,0.1c0,0,0,0,0.1,0.1
			c0.1,0.1,0.2,0.2,0.3,0.2c0.1,0,0.1,0.1,0.2,0.2c0,0,0,0,0.1,0.1c0.1,0.1,0.2,0.2,0.3,0.2c0.1,0.1,0.1,0.1,0.2,0.2
			c0.1,0.1,0.3,0.2,0.4,0.4c0.1,0.1,0.2,0.1,0.2,0.2c0.1,0,0.1,0.1,0.2,0.1c0.1,0,0.1,0.1,0.2,0.1c0.1,0.1,0.1,0.1,0.2,0.2
			c0.1,0.1,0.1,0.1,0.2,0.2c0.1,0.1,0.2,0.1,0.3,0.2c0.1,0.1,0.2,0.1,0.3,0.2c0.2,0.2,0.5,0.3,0.7,0.5c0.1,0.1,0.3,0.2,0.4,0.2
			c0.1,0.1,0.2,0.1,0.3,0.2c0.1,0.1,0.3,0.1,0.4,0.2c0.1,0,0.1,0.1,0.2,0.1c0.1,0.1,0.3,0.2,0.4,0.2c0.1,0.1,0.2,0.1,0.3,0.2
			c0.2,0.1,0.3,0.2,0.5,0.3c0.3,0.2,0.6,0.3,0.9,0.5c0.2,0.1,0.4,0.2,0.6,0.3c0.2,0.1,0.5,0.2,0.7,0.4c0.1,0.1,0.2,0.1,0.4,0.2
			c0.2,0.1,0.4,0.2,0.6,0.3c0.3,0.1,0.6,0.3,0.8,0.4c0.2,0.1,0.3,0.2,0.5,0.2c0.2,0.1,0.3,0.2,0.5,0.2c0.3,0.1,0.7,0.3,1,0.5
			c0.2,0.1,0.4,0.2,0.6,0.3c0.1,0.1,0.3,0.1,0.4,0.2c0.4,0.2,0.9,0.4,1.4,0.5c0.2,0.1,0.4,0.2,0.7,0.3c0.1,0,0.1,0.1,0.2,0.1
			c0.8,0.3,1.6,0.6,2.4,0.9c7.5,2.7,12.5,5.8,15.7,8.2c1.6,1.2,2.6,2.2,3.3,3c0.3,0.4,0.6,0.7,0.7,0.8l0.2,0.2l0,0.1
			c0.1,0.1,0.2,0.2,0.3,0.2c0,0,0.1,0,0.1,0c0.1,0,0.2,0,0.3,0c0,0,0,0,0,0c0.3-0.1,0.4-0.4,0.3-0.7l0,0c0,0,0,0,0,0
			c0,0,0-0.1-0.1-0.2c0-0.2-0.1-0.4-0.2-0.7c0,0,0-0.1,0-0.1c0-0.1-0.1-0.3-0.2-0.5c0-0.1-0.1-0.2-0.1-0.2c-0.1-0.2-0.1-0.3-0.2-0.5
			c0-0.1-0.1-0.2-0.1-0.3c0-0.1-0.1-0.2-0.1-0.3c0-0.1-0.1-0.2-0.1-0.2c0-0.1-0.1-0.3-0.1-0.4c-0.1-0.2-0.2-0.4-0.3-0.7
			c0-0.1-0.1-0.2-0.1-0.3c-0.1-0.3-0.3-0.7-0.4-1.1c-0.7-1.6-1.5-3.3-2.3-4.7c0,0,0,0,0,0c-0.1-0.1-0.1-0.2-0.2-0.3
			c0.3,0.2,0.6,0.4,0.8,0.5c0.1,0.1,0.2,0.1,0.3,0.2c0.5,0.3,1,0.7,1.5,1c0.1,0.1,0.2,0.2,0.4,0.3c0.4,0.3,0.9,0.6,1.3,0.9
			c0.2,0.1,0.4,0.3,0.6,0.5c0.4,0.3,0.8,0.6,1.2,0.9c0.2,0.2,0.5,0.4,0.7,0.6c0.4,0.3,0.8,0.6,1.2,1c0.3,0.2,0.5,0.4,0.8,0.7
			c0.4,0.3,0.8,0.7,1.2,1.1c0.3,0.2,0.5,0.5,0.8,0.7c0.5,0.4,0.9,0.9,1.4,1.3c0.2,0.2,0.4,0.4,0.6,0.6c0.7,0.7,1.4,1.4,2,2.1
			c0.1,0.1,0.2,0.2,0.3,0.3c0.6,0.6,1.1,1.3,1.7,1.9c0.2,0.3,0.4,0.5,0.7,0.8c0.4,0.5,0.9,1.1,1.3,1.6c0.2,0.3,0.5,0.7,0.7,1
			c0.4,0.5,0.8,1.1,1.2,1.6c0.2,0.4,0.5,0.7,0.7,1.1c0.4,0.6,0.7,1.2,1.1,1.7c0.2,0.4,0.4,0.7,0.7,1.1c0.4,0.7,0.7,1.3,1.1,2
			c0.2,0.3,0.4,0.7,0.5,1c0.5,1,1,2.1,1.4,3.1l0.1,0.3c0.1,0.1,0.1,0.2,0.3,0.3c0,0,0.1,0,0.1,0c0.1,0,0.1,0.1,0.2,0.1l0,0
			c0,0,0,0,0,0c0,0,0,0,0,0l0,0c0,0,0.1,0,0.1,0c0,0,0.1,0,0.1,0c0.1,0,0.1-0.1,0.2-0.1c0,0,0.1,0,0.1-0.1c0.1-0.1,0.1-0.2,0.1-0.4
			c0,0,0,0,0,0c0,0,0-0.6-0.1-1.5c0,0,0-0.1,0-0.1c0-0.3,0-0.6-0.1-1c0-0.1,0-0.1,0-0.2c0-0.3-0.1-0.7-0.1-1c0-0.1,0-0.1,0-0.2
			c0-0.4-0.1-0.8-0.1-1.3c0-0.1,0-0.2,0-0.3c0-0.4-0.1-0.8-0.1-1.2c0-0.1,0-0.1,0-0.2c-0.1-0.4-0.1-0.9-0.2-1.4c0-0.1,0-0.1,0-0.2
			c0.7,1.2,1.5,2.6,2.4,4.3c0.1,0.2,0.3,0.5,0.4,0.7c0.1,0.2,0.2,0.4,0.3,0.6c0.2,0.3,0.3,0.6,0.5,0.9c0.1,0.2,0.2,0.4,0.3,0.6
			c0.2,0.3,0.3,0.6,0.5,1c0.1,0.2,0.2,0.4,0.3,0.6c0.2,0.3,0.4,0.7,0.6,1.1c0.1,0.2,0.2,0.3,0.3,0.5c0.2,0.4,0.4,0.8,0.6,1.1
			c1.8,3.5,3.6,7.2,5,10.6c0.9,2.1,1.6,4.1,2.1,5.8c-0.9,0.1-1.8,0.2-2.7,0.4c-9.1,1.7-15.7,6.4-19.8,14
			c-8.2,15.3-2.6,37.2-1.5,39.8l6,14.1l4.6-14.6c1.4-4.4,7.1-18.5,14.5-21.7c2.1-0.9,4-1.3,5.8-1.3c6.5,0,11,5.6,16,13.5l3.3,5.3
			c-4.5-2.3-11.4-3.7-15.9-3.7c-1.3,0-2.4,0.1-3.1,0.3c-13.1,4-14.3,21.5-14.4,26.7l-0.1,3.6l2.1-2.9c5.5-7.7,9.9-13.8,14-13.8
			c3.2,0,10.6,2.6,17.6,7.1l0.9,0.6l0.6-0.9c0.2-0.2,3.5-3.9,3.5-9.5c0-0.1,0-0.3,0-0.4l1.9-14.7c1.1-8.5,0.2-25.4-10.1-35.2
			c-4.9-4.7-11.2-7-18.6-7c-1,0-2.1,0.1-3.1,0.2c0-0.5,0-1.1-0.1-1.8c0-0.3,0-0.6,0-0.9c0-0.1,0-0.1,0-0.2c0-0.5,0-1,0-1.5
			c-0.1-5.2-0.2-13.3,0.2-20.7c0.2-3.7,0.4-7.2,0.9-10.2c0.1-0.8,0.2-1.5,0.4-2.2c0-0.2,0.1-0.4,0.1-0.6c0.1-0.4,0.2-0.9,0.3-1.3
			c0,0,0-0.1,0-0.1c0,0,0,0,0,0.1c0.1,0.5,0.1,1,0.2,1.5c0,0.1,0,0.2,0,0.3c0.1,0.6,0.1,1.2,0.2,1.8c0.1,0.4,0.1,0.8,0.2,1.2
			c0,0.2,0.1,0.4,0.1,0.6c0,0.2,0.1,0.5,0.1,0.7c0,0.2,0.1,0.4,0.1,0.6c0,0.2,0.1,0.4,0.1,0.7c0,0.2,0.1,0.4,0.1,0.6
			c0,0.2,0.1,0.4,0.1,0.6c0,0.2,0.1,0.4,0.1,0.5c0,0.2,0.1,0.4,0.1,0.6c0,0.2,0.1,0.3,0.1,0.5c0,0.2,0.1,0.4,0.1,0.6
			c0,0.2,0.1,0.3,0.1,0.4c0,0.2,0.1,0.4,0.1,0.5c0,0.1,0.1,0.3,0.1,0.4c0,0,0,0.1,0,0.1c0.1,0.2,0.1,0.4,0.2,0.6l0.2,0.5l0,0l0,0
			c0.1,0.2,0.4,0.4,0.7,0.3c0,0,0.1,0,0.1,0c0.1,0,0.1-0.1,0.1-0.1c0,0,0.1,0,0.1-0.1c0.1-0.1,0.1-0.2,0.1-0.3c0,0,0-0.5,0.1-1.4
			c0-0.4,0.1-0.9,0.2-1.4c0-0.1,0-0.3,0.1-0.5c0.1-0.4,0.1-0.9,0.2-1.4c0-0.2,0.1-0.5,0.1-0.8c0.1-0.5,0.1-0.9,0.2-1.5
			c0-0.3,0.1-0.6,0.2-0.9c0.1-0.5,0.2-1,0.3-1.6c0.1-0.4,0.1-0.8,0.2-1.2c0.1-0.5,0.2-1.1,0.3-1.7c0.1-0.4,0.2-0.9,0.3-1.3
			c0.1-0.6,0.2-1.2,0.4-1.7c0.1-0.5,0.2-1,0.3-1.5c0.1-0.6,0.3-1.2,0.5-1.8c0.1-0.5,0.3-1,0.4-1.6c0.2-0.6,0.3-1.2,0.5-1.9
			c0.2-0.5,0.3-1.1,0.5-1.6c0.2-0.6,0.4-1.3,0.6-1.9c0.2-0.6,0.4-1.1,0.6-1.7c0.2-0.6,0.5-1.3,0.7-1.9c0.2-0.6,0.4-1.1,0.7-1.7
			c0.3-0.6,0.5-1.3,0.8-1.9c0.2-0.6,0.5-1.1,0.7-1.7c0.3-0.6,0.6-1.3,0.9-1.9c0.3-0.6,0.5-1.1,0.8-1.7c0.3-0.6,0.7-1.3,1-1.9
			c0.3-0.5,0.6-1.1,0.9-1.6c0.4-0.6,0.8-1.2,1.2-1.9c0.3-0.5,0.7-1,1-1.6c0.4-0.6,0.9-1.2,1.3-1.8c0.4-0.5,0.7-1,1.1-1.4
			c0.1-0.1,0.1-0.2,0.2-0.2c0,0,0,0,0,0c-0.1,0.3-0.2,0.5-0.3,0.8c0,0.1-0.1,0.3-0.1,0.4c-0.1,0.4-0.3,0.8-0.4,1.3
			c-0.9,3.3-1.8,7.2-1.3,10.2c0,0,0,0.1,0,0.1c0,0.1,0.1,0.1,0.1,0.1c0,0,0,0.1,0.1,0.1c0.1,0.1,0.2,0.1,0.3,0.1c0.1,0,0.2,0,0.3,0
			c0,0,0,0,0,0c0.1-0.1,0.2-0.1,0.3-0.3c0,0,0.3-0.6,0.8-1.6c3.6-7.1,19.6-36.4,43.4-50.9c1.7-1,3.4-2.1,5.1-3.2
			c0.5-0.3,1.1-0.7,1.6-1.1c1.3-0.8,2.5-1.7,3.8-2.6c0.7-0.5,1.4-1,2-1.5c1.2-0.8,2.3-1.7,3.5-2.6c0.7-0.6,1.5-1.2,2.2-1.8
			c1.1-0.9,2.3-1.8,3.4-2.7c0.8-0.6,1.6-1.3,2.3-2c1.1-0.9,2.2-1.8,3.3-2.8c0.8-0.7,1.6-1.4,2.4-2.2c1-1,2.1-1.9,3.1-2.9
			c0.8-0.8,1.6-1.6,2.3-2.4c1-1,1.9-2,2.9-3c0.8-0.8,1.5-1.7,2.2-2.5c0.6-0.7,1.3-1.4,1.9-2.2c0.5-0.6,1-1.2,1.5-1.8
			c6.3-7.8,11.3-16.2,13.8-24.8c0.4-1.3,0.7-2.6,0.9-3.8c0.1-0.4,0.1-0.8,0.2-1.1c0.2-1,0.3-1.9,0.4-2.9c0-0.2,0.1-0.5,0.1-0.7
			c0-0.2,0-0.3,0-0.5c0.1-0.8,0.1-1.6,0.1-2.4c0-0.4,0-0.8,0-1.2c0-1-0.1-2-0.2-3.1c0-0.2,0-0.3,0-0.5c-0.1-1.2-0.3-2.4-0.6-3.6
			c-0.1-0.4-0.2-0.7-0.3-1.1c-0.2-0.8-0.4-1.7-0.7-2.5c0-0.1-0.1-0.3-0.1-0.4c2.7,3.5,6.3,8.8,9.1,15.6c3.5,8.3,5.8,18.7,3.7,30.2
			l0.3,0.6c0.2,0.1,0.5,0.1,0.7-0.1c0.1-0.1,4.5-4.1,4.5-14.3c0.3,0.6,0.6,1.3,0.9,2c2.8,6.8,6.5,20.5-1.7,34.9
			c-0.1,0.2-0.1,0.6,0.1,0.8c0.2,0.2,0.5,0.2,0.8,0c0,0,4.2-3.1,7.7-9.5c0.5,1.5,1.3,4.2,1.3,7.6c0,4.2-1.2,9.3-5.5,14.1
			c-0.2,0.2-0.2,0.5,0,0.8c0.2,0.2,0.5,0.3,0.8,0.2l0.2-0.1c0.2-0.1,0.4-0.2,0.7-0.3c1.6-0.7,5-1.8,8.7-1.7
			c3.4,0.1,7.1,1.4,10.1,5.1c-2.2,0.1-7,0.5-12.3,2.7c-0.3,0.1-0.7,0.3-1,0.5c0,0,0,0,0,0c-0.5-0.4-1-0.7-1.6-1.1
			c-0.6-0.5-1.3-0.9-1.9-1.4c-0.7-0.5-1.4-0.9-2.1-1.3c-0.6-0.4-1.3-0.8-1.9-1.2c-0.7-0.4-1.4-0.8-2.1-1.1c-0.6-0.3-1.2-0.7-1.8-1
			c-0.7-0.3-1.3-0.6-2-0.9c-0.6-0.3-1.2-0.5-1.8-0.8c-0.7-0.3-1.3-0.5-1.9-0.7c-0.6-0.2-1.2-0.4-1.7-0.6c-0.6-0.2-1.2-0.4-1.8-0.6
			c-0.5-0.2-1.1-0.3-1.6-0.5c-0.6-0.2-1.2-0.3-1.8-0.4c-0.5-0.1-1-0.3-1.5-0.4c-0.6-0.1-1.1-0.2-1.6-0.3c-0.5-0.1-1-0.2-1.4-0.2
			c-0.5-0.1-1-0.1-1.5-0.2c-0.4-0.1-0.9-0.1-1.3-0.2c-0.5,0-0.9-0.1-1.3-0.1c-0.4,0-0.8-0.1-1.2-0.1c-0.4,0-0.8,0-1.2,0
			c-0.3,0-0.7,0-1,0c-0.4,0-0.7,0-1,0c-0.3,0-0.6,0-0.9,0c-0.3,0-0.5,0-0.8,0c-0.2,0-0.5,0-0.7,0c-0.2,0-0.4,0-0.6,0.1
			c-0.2,0-0.4,0-0.6,0.1c-0.1,0-0.2,0-0.3,0c-0.4,0-0.6,0.1-0.6,0.1c0,0-0.1,0-0.1,0c-0.1,0-0.1,0.1-0.2,0.2c0,0-0.1,0-0.1,0.1
			c-0.1,0.1-0.1,0.3-0.1,0.4c0.1,0.3,0.4,0.5,0.7,0.5l0.2,0c2.3-0.3,21.7-2.7,41.7,13.4c0,0,0,0,0.1,0c2.6,2.5,11.3,11.4,17.1,25.2
			c2.8,6.7,4.9,14.4,5.3,23.2c0.4,8.8,1,16.2,1.8,22.2c-1.1,0-2.3,0.2-3.3,0.4c-1.4,0.3-2.4,0.6-2.5,0.6l-0.1,0.1
			c-4.1,2.5-6.7,6-8.3,9.7c0,0.1-0.1,0.1-0.1,0.2c-0.3,0.7-0.6,1.4-0.8,2c-0.1,0.3-0.1,0.5-0.2,0.8c-0.1,0.5-0.3,1-0.4,1.5
			c-0.1,0.3-0.1,0.6-0.2,0.9c-0.1,0.4-0.2,0.9-0.3,1.3c0,0,0,0,0,0c-0.1,0.6-0.2,1.3-0.3,1.9c0,0.1,0,0.2,0,0.4
			c-0.1,0.6-0.1,1.1-0.2,1.7c0,0.1,0,0.3,0,0.4c0,0.5-0.1,1.1-0.1,1.6c0,0.1,0,0.1,0,0.2c0,0.5,0,1,0,1.4c0,0,0,0.1,0,0.1
			c0,0,0-0.1,0-0.1c-0.1-0.3-0.2-0.6-0.2-0.9c-0.4-1.2-0.7-2.5-1-3.7c-0.1-0.5-0.2-1-0.4-1.5c-0.3-1.1-0.5-2.2-0.7-3.3
			c-0.1-0.4-0.2-0.9-0.3-1.3c-0.3-1.5-0.5-2.9-0.8-4.3c-1-6.3-1.5-11.4-1.9-13.3c-0.1-0.5-0.3-0.9-0.6-1.2c-0.1-0.2-0.3-0.3-0.5-0.4
			c-0.1,0-0.1,0-0.2-0.1c-0.1-0.1-0.3-0.1-0.4-0.1c0,0,0,0,0,0c-1.3-0.2-2.6,0.5-3.7,1.2c-1.1,0.7-1.9,1.4-1.9,1.4l0,0
			c-5.7,5.4-8.7,15.2-10.3,24.4c-0.2,0.9-0.3,1.7-0.4,2.5c0,0.3-0.1,0.5-0.1,0.8c-0.1,0.6-0.2,1.2-0.3,1.8c0,0.2-0.1,0.5-0.1,0.7
			c-0.1,0.8-0.2,1.5-0.3,2.2c0,0.2,0,0.5-0.1,0.7c-0.1,0.5-0.1,1-0.2,1.5c0,0.3-0.1,0.6-0.1,0.9c0,0.5-0.1,0.9-0.1,1.4
			c0,0.2,0,0.5-0.1,0.7c0,0.6-0.1,1.2-0.1,1.7c0,0.3,0,0.5,0,0.7c0,0.3,0,0.6,0,0.9c0,0.2,0,0.5,0,0.7c0,0.3,0,0.5,0,0.8
			c0,0.1,0,0.3,0,0.4c-0.1-0.3-0.3-0.6-0.4-0.9c-0.1-0.3-0.2-0.5-0.3-0.8c-0.2-0.5-0.3-0.9-0.5-1.4c-0.1-0.2-0.2-0.5-0.2-0.7
			c-0.2-0.7-0.4-1.4-0.6-2.1c0-0.1,0-0.1,0-0.2c-0.2-0.8-0.4-1.5-0.6-2.3c0-0.2-0.1-0.4-0.1-0.6c-0.1-0.6-0.3-1.2-0.4-1.8
			c-0.1-0.3-0.1-0.6-0.2-0.8c-0.1-0.5-0.2-1.1-0.3-1.6c-0.1-0.3-0.1-0.6-0.1-0.9c-0.1-0.5-0.2-1-0.2-1.6c0-0.3-0.1-0.6-0.1-0.9
			c-0.1-0.5-0.1-1-0.2-1.5c0-0.3-0.1-0.6-0.1-0.9c-0.1-0.5-0.1-1-0.2-1.6c0-0.3-0.1-0.6-0.1-0.8c0-0.5-0.1-1-0.1-1.5
			c0-0.3,0-0.5-0.1-0.8c0-0.5-0.1-1-0.1-1.5c0-0.2,0-0.5,0-0.7c0-0.5-0.1-1.1-0.1-1.6c0-0.2,0-0.4,0-0.6c0-0.5-0.1-1.1-0.1-1.6
			c0-0.1,0-0.3,0-0.4c0-0.6,0-1.1-0.1-1.6c0-0.1,0-0.2,0-0.2c0-0.6,0-1.1,0-1.7c-0.1-2.8,0-4.6,0-4.6l-0.3-0.6l-0.6-0.1
			c-12.7,5.6-18.5,18.6-20.8,31.7c-0.2,1.1-0.4,2.1-0.5,3.2c0,0.3-0.1,0.6-0.1,0.9c-0.1,0.8-0.2,1.6-0.3,2.4c0,0.3-0.1,0.5-0.1,0.7
			c-0.1,1-0.2,2.1-0.3,3.1c0,0.1,0,0.2,0,0.4c-0.1,0.9-0.1,1.8-0.1,2.7c0,0.3,0,0.5,0,0.8c0,0.8,0,1.6-0.1,2.5c0,0.2,0,0.3,0,0.5
			c0,1,0,1.9,0,2.8c0,0.2,0,0.4,0,0.5c0,0.7,0,1.5,0.1,2.2c0,0.2,0,0.5,0,0.7c0,0.7,0.1,1.5,0.1,2.2c0,0.1,0,0.2,0,0.3
			c0,0.8,0.1,1.6,0.2,2.3c0,0.2,0,0.4,0.1,0.7c0,0.5,0.1,1,0.1,1.4c0,0.2,0,0.5,0.1,0.7c0,0.4,0.1,0.9,0.1,1.3
			c0,0.4,0.1,0.8,0.1,1.2c0,0.2,0,0.4,0.1,0.5c-0.1-0.2-0.2-0.3-0.3-0.4c-0.1-0.2-0.3-0.4-0.4-0.7c-0.2-0.4-0.5-0.7-0.7-1.1
			c-0.1-0.2-0.3-0.4-0.4-0.6c-0.2-0.3-0.5-0.7-0.7-1c-0.1-0.2-0.3-0.4-0.4-0.6c-0.3-0.3-0.5-0.6-0.8-0.9c-0.1-0.2-0.3-0.3-0.4-0.5
			c-0.3-0.3-0.6-0.6-0.9-0.9c-0.1-0.1-0.2-0.2-0.3-0.3c-0.4-0.4-0.8-0.8-1.2-1.1c0,0-0.1-0.1-0.1-0.1c-0.4-0.3-0.8-0.6-1.1-0.9
			c-0.1-0.1-0.3-0.2-0.4-0.3c-0.3-0.2-0.5-0.4-0.8-0.6c-0.2-0.1-0.3-0.2-0.5-0.3c-0.2-0.2-0.5-0.3-0.7-0.4c-0.2-0.1-0.3-0.2-0.5-0.3
			c-0.2-0.1-0.5-0.2-0.7-0.4c-0.2-0.1-0.3-0.2-0.5-0.2c-0.2-0.1-0.5-0.2-0.7-0.3c-0.2-0.1-0.3-0.1-0.5-0.2c-0.2-0.1-0.5-0.2-0.7-0.3
			c-0.2-0.1-0.3-0.1-0.5-0.2c-0.2-0.1-0.5-0.2-0.7-0.2c-0.1,0-0.3-0.1-0.4-0.1c-0.3-0.1-0.6-0.1-0.8-0.2c-0.1,0-0.2,0-0.3-0.1
			c-0.3-0.1-0.7-0.1-1-0.2c0,0,0,0-0.1,0c-3.6-0.7-6.2-0.2-6.2-0.2l-0.5,0.4l0.1,0.6c0.6,0.8,1.1,1.6,1.6,2.4
			c0.2,0.4,0.4,0.8,0.6,1.3c0.3,0.6,0.5,1.1,0.8,1.7c0.2,0.4,0.3,0.9,0.5,1.3c0.2,0.6,0.4,1.2,0.5,1.8c0.1,0.5,0.2,0.9,0.3,1.4
			c0.1,0.6,0.2,1.3,0.3,1.9c0.1,0.5,0.1,1,0.2,1.4c0.1,0.7,0.1,1.4,0.1,2.1c0,0.5,0.1,0.9,0.1,1.4c0,0.8,0,1.5,0,2.3
			c0,0.4,0,0.9,0,1.3c-0.1,0.9-0.1,1.7-0.2,2.6c0,0.4-0.1,0.7-0.1,1.1c-0.2,1.2-0.3,2.5-0.6,3.8c0,0,0,0,0,0
			c-0.2,0.9-0.3,1.8-0.5,2.7c-0.3,1.2-0.5,2.4-0.9,3.6c0,0.1-0.1,0.2-0.1,0.3c-0.3,1-0.5,2-0.8,2.9c0,0.1-0.1,0.2-0.1,0.3
			c-0.1,0.4-0.2,0.7-0.3,1.1c-0.2,0.6-0.4,1.3-0.6,1.9c-0.1,0.2-0.1,0.4-0.2,0.6c-0.1,0.4-0.3,0.8-0.4,1.1c-0.2,0.7-0.5,1.3-0.7,2
			c-0.1,0.2-0.2,0.5-0.2,0.7c-0.1,0.2-0.2,0.5-0.3,0.7c-0.4,1-0.8,2-1.2,3c-0.1,0.1-0.1,0.3-0.2,0.4c-0.1,0.2-0.2,0.4-0.3,0.6
			c-0.4,0.9-0.7,1.8-1.1,2.6c-0.1,0.3-0.3,0.6-0.4,0.9c-0.3,0.8-0.7,1.6-1,2.3c-0.1,0.2-0.2,0.5-0.3,0.7c-0.5,1-0.9,1.9-1.3,2.8
			c0,0,0,0,0,0c-1.9,4-3.7,7.3-5.1,9.7c-1.3,2.4-2.2,3.7-2.3,3.9c-0.2,0.2-2.7,3.2-5.9,8.2c-25.9,6.4-48.4,4.9-65.9,0.2
			c-11.4-3.1-20.7-7.6-27.5-12.1c-6.8-4.5-11.1-9.2-12.4-12.5c-0.1-0.3-0.2-0.6-0.3-0.9c-0.1-0.3-0.3-0.5-0.6-0.4
			c-0.3,0-0.5,0.2-0.6,0.5c0,0.1-2.3,11.7,1,19.8c0.2,0.5,0.5,1,0.8,1.5c-3.9-2.5-11.5-8.1-14.6-15.5c-1.1-2.7-1.7-5.6-1.3-8.7
			c0-0.3-0.1-0.5-0.4-0.6c-0.3-0.1-0.5,0-0.7,0.2c0,0-1.9,2.4-3.6,6c-1.2,2.7-2.3,6.1-2.3,9.6c-0.7-1.4-1.5-3.1-2.3-5.1
			c-1.7-4.1-3.5-9.3-4-14c-0.3-2.4-0.2-4.6,0.3-6.5c0.5-1.9,1.4-3.6,2.9-4.8c0.3-0.2,0.3-0.6,0.1-0.8c-0.2-0.3-0.6-0.3-0.8-0.1
			l-0.2,0.1c-0.4,0.2-1.3,0.8-2.6,1.4c-2,0.8-4.9,1.6-8,1.3c-2.8-0.3-5.9-1.6-8.8-4.6c1.3,0,3.2-0.2,5.4-1.1
			c3.1-1.3,6.6-4.1,9.1-9.9c1.4-3.4,0.6-8.8-0.8-15.7C834.1,498,825,469.1,835.8,445.3z M805.9,549.9c-0.2,0.9-0.4,1.8-0.6,2.7
			C805.5,551.7,805.7,550.8,805.9,549.9z M804.2,556.2c-0.2,0.6-0.4,1.3-0.6,1.9C803.8,557.4,804,556.8,804.2,556.2z M801.1,564.6
			c-0.3,0.6-0.5,1.2-0.8,1.9C800.6,565.9,800.9,565.3,801.1,564.6z M800,567.3c-0.2,0.5-0.5,1.1-0.7,1.6
			C799.5,568.4,799.7,567.8,800,567.3z M798.9,569.6c-0.3,0.6-0.6,1.2-0.8,1.7C798.4,570.8,798.7,570.2,798.9,569.6z M774.4,626.7
			c3.4,5,8.3,7.1,8.3,7.1c0.2,0.1,0.4,0,0.6-0.1c0.1-0.2,0.2-0.4,0.1-0.6c-4.4-7.4-5-15.2-3.6-22.6c2.4-13.3,11-24.7,13.1-27.4
			c0.3-0.4,0.5-0.6,0.5-0.6l0-0.1c0,0,4.8-7.8,9-17.9c-0.1,0.2-0.2,0.4-0.2,0.6c0,0,0,0,0,0c0.1-0.2,0.2-0.4,0.3-0.6
			c0.3-0.7,0.5-1.3,0.8-2c0.2-0.4,0.3-0.8,0.5-1.2c0.2-0.7,0.5-1.3,0.7-2c0.1-0.3,0.2-0.6,0.3-0.9c-0.1,0.3-0.2,0.6-0.3,0.9
			c1.3-3.7,2.4-7.5,3.1-11.3c1.4-7.8,1.1-15.4-2.8-21.1c0.1,0,0.3,0,0.4,0c0.8,0,1.9,0,3.2,0.3c4,0.7,9.9,3.3,14,12
			c0.1,0.2,0.4,0.3,0.6,0.3c0.2-0.1,0.4-0.3,0.3-0.6c0,0-0.2-0.9-0.3-2.5c-0.2-1.6-0.4-3.8-0.6-6.5c-0.3-5.3-0.3-12.4,1-19.3
			c1.3-7,3.8-13.7,8.4-18.5c0,0.2,0.1,0.3,0.1,0.5c1.6,9,3.8,17.3,5.3,24.1c1.5,6.8,2.1,12.2,0.9,15c-2.3,5.5-5.6,8.1-8.4,9.3
			c-1.7,0.7-3.3,0.9-4.4,1c-0.6,0-1,0-1.4,0l-0.4,0l-0.1,0l-0.6,0.3c-0.1,0.2-0.1,0.5,0.1,0.7c3.4,4.1,7.2,5.8,10.6,6.2
			c3.4,0.4,6.5-0.5,8.7-1.4c0.1,0,0.1-0.1,0.2-0.1c-0.5,0.9-0.9,1.9-1.2,3c-1.6,6.4,1.2,15,3.8,21.2c2,4.8,3.9,8.2,3.9,8.2
			c0.1,0.3,0.5,0.4,0.8,0.3c0.3-0.1,0.4-0.4,0.4-0.7c-1-4.3,0.2-8.8,1.8-12.2c0.8-1.6,1.6-3,2.2-4c0,2.5,0.5,4.9,1.5,7.2
			c4.5,10.7,17.4,17.4,17.4,17.5c0.3,0.1,0.6,0.1,0.8-0.2c0.2-0.2,0.2-0.6,0-0.8c-0.9-1-1.6-2.2-2.1-3.5c-1.6-3.8-1.9-8.6-1.7-12.4
			c0.1-1.8,0.2-3.4,0.4-4.6c1.9,3.5,6.1,7.8,12.4,12c5.8,3.9,13.3,7.6,22.3,10.6c-3.2,5.6-6.1,11.5-7.9,17.4
			c-2.4,7.9-2.8,14.4-2.4,19.5c0.8,9.1,4.4,13.6,4.5,13.7c0.1,0.2,0.4,0.3,0.6,0.2c0.2-0.1,0.4-0.2,0.5-0.5l0.1-0.3
			c0-0.2,0.1-0.5,0.2-0.8c0.2-0.7,0.5-1.7,1-2.8c0.5-1.4,1.3-2.9,2.3-4.3c-1.7,5.5-4.6,17.7-3.2,34.8c-8.4-1.2-17-2.4-25.7-3.5
			c6.5-5.7,12.5-13,17.4-22.5l-0.9-0.5c-10.2,19.6-24.8,30-39.5,35c-14.7,5-29.5,4.7-39.8,2.8c-5.3-1-9.5-2.3-11.9-3.6
			c-3.1-1.6-5.9-2.5-8.6-2.9c-5.7-1-10,0-12,0.6c1.9-3.3,4.6-4.8,7-5.5c2.7-0.8,5.3-0.4,6.3-0.3c0.3,0.1,0.5,0.1,0.5,0.1
			c0.2,0.1,0.5-0.1,0.6-0.3c0.1-0.2,0-0.5-0.2-0.6C776.3,653.6,774.5,632.8,774.4,626.7z M803,562.6c0.2-0.4,0.3-0.8,0.5-1.2
			C803.3,561.8,803.2,562.2,803,562.6z M700.6,591.2c4.7,4.5,15.1,7.6,27.5,7.6c12.4,0,22.7-3.1,27.5-7.6v48
			c0,6.1-14.5,10.4-27.5,10.4c-13,0-27.4-4.2-27.5-10.3V591.2z M728,514.2c6.4,0,10.5,2.1,10.5,3.6c0,1.5-4.1,3.6-10.5,3.6
			s-10.5-2.1-10.5-3.6C717.5,516.3,721.6,514.2,728,514.2z M700.6,581.3c0-5.2,12-20.7,16.7-26.2l0.3-0.4v-0.5V520
			c2,1.6,5.9,2.7,10.5,2.7c4.6,0,8.5-1.1,10.5-2.7v34.2v0.5l0.3,0.4c4.6,5.5,16.7,20.9,16.7,26.2v7.9c-3.7,4.7-14.6,8.2-27.5,8.2
			c-12.9,0-23.8-3.4-27.5-8.2V581.3z M700.6,642.8c3.7,4.7,14.6,8.2,27.5,8.2c12.9,0,23.8-3.4,27.5-8.2v38c0,7.2-8,13.2-18.9,15.4
			c-13.7-14.4-25.7-30.4-36-47.5V642.8z M737.7,697.3c11.2-2.4,19.2-8.9,19.2-16.5v-0.6c3.4,0,3.9,0.4,6,2.4c0.3,0.3,0.6,0.6,1,0.9
			c1.2,1.1,1.5,1.8,1.9,2.4c0.7,1.3,1.2,2,4.5,3.3c2,0.8,4.5,0.9,6.9,1c5,0.2,8,0.6,8.2,3.7c0.2,5-4.2,8.2-13.2,9.5
			c-5.8,0.9-19,1.5-27.6,0.8C742.2,702,739.9,699.7,737.7,697.3z M746,705.7c2.2,0.1,4.6,0.2,7,0.2c7.3,0,15-0.5,19.2-1.1
			c12.2-1.8,14.5-6.9,14.3-10.9c-0.2-4.6-5.1-4.8-9.5-5c-2.3-0.1-4.7-0.2-6.5-0.9c-3-1.2-3.3-1.7-3.8-2.7c-0.4-0.7-0.8-1.5-2.1-2.8
			c-0.4-0.3-0.7-0.6-1-0.9c-2.3-2.1-3.1-2.7-6.9-2.8v-26.3c7.4,0.5,17.5,1.1,24.7,1.6c2.4,3.7,5.6,7.2,9.7,10.2
			c-1.3-0.1-3.2-0.1-5.2,0.5c-2.9,0.8-6.2,2.8-8.3,7.1c-0.1,0.2-0.1,0.4,0.1,0.6l0.6,0.1l0.2-0.1c0.2-0.1,0.4-0.1,0.7-0.2
			c0.6-0.2,1.5-0.4,2.6-0.7c2.2-0.4,5.4-0.7,9.2,0c2.5,0.5,5.3,1.3,8.3,2.8c2.5,1.3,6.8,2.7,12.2,3.7c10.5,1.9,25.5,2.3,40.3-2.8
			c7.2-2.5,14.4-6.2,21.1-11.7c35.2,4.5,67.4,9.7,96.3,15.1c3,4.1,6.7,8,11.3,11.4c-1.8-0.1-4.2-0.1-6.9,0.6
			c-3.9,1.1-8.2,3.7-10.9,9.4c-0.1,0.2-0.1,0.5,0.1,0.7l0.7,0.1l0.3-0.1c0.2-0.1,0.5-0.2,0.9-0.3c0.8-0.3,1.9-0.6,3.4-0.9
			c2.9-0.6,7.2-0.9,12.2,0c3.3,0.6,7,1.8,10.9,3.8c3.3,1.7,9,3.5,16.1,4.8c13.9,2.5,33.6,3,53.3-3.7c3-1,6-2.2,9-3.6
			c16.2,4.2,30.9,8.3,44,12.2c-30.9,27.4-67.8,47.4-108.1,58.5l-14.1-14.1l-12.9-12.9c0,0,0,0,0,0l-6.1-6.1
			c-2.4-2.4-9.8-4.1-16.8-5.3c2.2-0.5,4.8-0.9,8.4-2.7c8.8-4.4,7.5-12.3,4.8-14.9c-2.6-2.6-23.7-6.1-26.8-13.6
			c-3.1-7.5,1.8-18-7.5-21.5c-1.1-0.4-2.1-0.6-3.3-0.6c-8.7,0-19.3,10.9-31.4,15.9c-7,2.9-20.5,3.9-32.3,3.9
			c-11.1,0-20.8-0.9-22-1.7c-2.6-1.8-3.9-3.1-7-3.1c-3.1,0-7.5,5.3-11.8,7.9c-4.4,2.6-36.4,8.8-36.4,18.4s23.7,7.5,30.7,13.2
			c7,5.7,20.6,32.9,53.5,32.9c13.5,0,32.2-6.1,47.2-12.9c1.1,7.9,3.1,17.9,5.9,20.7l4.8,4.8c0,0,0,0,0,0l1.3,1.3c-0.1,0-0.1,0-0.2,0
			C861.1,781.3,794.9,752.5,746,705.7z M933.6,778.9c-1.7-1.8-1.7-6.1,0.3-10.9c2.2-5.3,4.2-9.8,11.8-15.8
			c13.2-9.6,22.7-7.9,28.5-7.9c1.6,0,2.8,0.4,3.6,1.2l26.5,26.5c-22,5.9-45,9-68.5,9.2L933.6,778.9z M941.6,731.3l-26-26
			c-1.5-1.5-4.6-3.5-8.9-3.5c-1.4,0-2.9,0.2-4.6,0.8c-6.2,2.1-9.3,13.5-7.4,15.4l26,26c0,0,0.3,3.9,1,9c-14.7,6.7-33.2,12.9-47,12.9
			c-25.3,0-38.9-16.5-47-26.4c-2.3-2.7-4-4.9-5.6-6.2c-3.1-2.5-8.7-3.5-14.6-4.6c-7.7-1.4-15.6-2.9-15.6-7.5
			c0-6,17.6-11.4,27.1-14.2c4.3-1.3,7.4-2.2,8.7-3c1.8-1.1,3.5-2.5,5.2-3.9c2.2-1.9,4.6-3.8,6-3.8c2.2,0,3.2,0.7,5.1,2
			c0.4,0.3,0.8,0.5,1.2,0.8c2.1,1.4,15.1,1.9,22.8,1.9c8.7,0,24.6-0.5,32.9-4c5.1-2.1,9.8-5.2,14.4-8.2c6.1-3.9,11.8-7.7,16.5-7.7
			c0,0,0,0,0,0c1,0,1.9,0.2,2.8,0.5c4.8,1.8,5.1,5.6,5.3,11.5c0.1,3.1,0.2,6.3,1.4,9.2c2.3,5.5,12,8.7,19.8,11.2
			c3.1,1,6.6,2.1,7.2,2.8c1,1,1.9,3.2,1.5,5.7c-0.3,2-1.6,4.9-5.9,7c-3.2,1.6-5.6,2.1-7.7,2.5c-1.2,0.3-2.3,0.5-3.4,0.9
			C946.5,731.7,941.6,731.3,941.6,731.3z M922.1,743.9l0-0.5l-0.4-0.4l-26-26c-0.3-0.4-0.4-2.3,0.5-5.1c1-3.2,3.2-7,6.3-8
			c1.4-0.5,2.8-0.7,4.1-0.7c4.6,0,7.4,2.6,8,3.1l26,26l0.4,0.4l0.5,0c7.2,0.6,26.6,3,30.3,6.7l3.6,3.6c-0.4,0-0.7-0.1-1.1-0.1
			c-6.1,0-15.6-1.6-29.5,8.3c-9.4,7.7-14.5,18.8-13.7,25.2l-2.3-2.3C925.1,770.4,922.7,751,922.1,743.9z"/>
	</g>
	<g>
		<path class="st2" d="M707.7,629.5l1.1,0.8c0.7-1,2.1-3.1,3.7-5.2c1.9,2.8,3.3,5.2,3.3,5.2l1.2-0.7c-0.1-0.2-1.7-2.7-3.6-5.7
			c2.3-3.1,4.4-6.1,4.5-6.1l-1.1-0.8c-0.2,0.2-2.1,2.9-4.2,5.8c-1.6-2.4-3.4-4.9-5-6.7l-1,0.9c1.6,1.8,3.5,4.5,5.1,7
			C710.1,626.1,708.4,628.4,707.7,629.5z"/>
	</g>
	<g>
		<path class="st2" d="M739.9,621.6c-0.2,0.2-0.3,0.4-0.5,0.6c-1.9,2.4-2.9,3.9-3.2,4.5l1.3,0.5c0.2-0.5,1.7-2.4,3-4.1
			c0.1-0.2,0.2-0.3,0.3-0.4c3.2,3.4,6,6.6,6.2,7.7l1.3-0.3c-0.3-1.5-3.6-5.2-6.7-8.5c3.4-4.5,4.6-6.3,4.4-7.3l-1.3,0.2
			c0,0.7-2.2,3.7-4,6.1c-2.4-2.5-4.6-4.7-5.1-5.2l-0.9,1C736.3,617.8,738.1,619.7,739.9,621.6z"/>
	</g>
	<g>
		<path class="st2" d="M744.1,670.2c3,1.2,5.6,2.8,7.5,4.6l0.9-1c-2-1.9-4.7-3.6-7.9-4.9c-4.8-1.9-10.5-3-16.5-3
			c-4.2,0-8.2,0.5-12,1.5l0.3,1.3c3.7-1,7.6-1.5,11.7-1.5C734,667.4,739.5,668.4,744.1,670.2z"/>
	</g>
	<g>
		<path class="st2" d="M1007.9,743.5c2,1.8,5.6,2.3,8.6,1.2c1-0.4,1.9-0.7,2.7-1.1c2.6-1.1,4.3-1.8,7.1-1.4c1.6,0.2,2.7,1.1,3.9,2
			c1.3,1,2.6,2,4.5,2c0.3,0,0.7,0,1-0.1c3.7-0.7,4.6-2.2,4.9-2.7c1.2-1.5,1.3-3.3,0.4-5.2c-1.8-3.7-7.1-6.7-10.3-6.7h-15.3
			c-0.1,0-7.4-0.1-9,6.2C1005.7,740.7,1006.8,742.5,1007.9,743.5z M1007.8,738c1.3-5.2,7.4-5.2,7.7-5.2h15.4c2.7,0,7.5,2.8,9.1,6
			c0.7,1.4,0.6,2.8-0.3,3.9l-0.1,0.2c0,0-0.5,1.3-3.9,1.9c-1.9,0.4-3.1-0.6-4.5-1.7c-1.2-0.9-2.6-2-4.5-2.3
			c-0.6-0.1-1.2-0.1-1.8-0.1c-2.2,0-3.9,0.7-6.1,1.6c-0.8,0.3-1.7,0.7-2.7,1.1c-2.6,0.9-5.6,0.6-7.2-0.9
			C1007.7,741.4,1007.3,739.9,1007.8,738z"/>
	</g>
	<g>
		<path class="st2" d="M1023.7,749c-2,0-3.6,1.6-3.6,3.6s1.6,3.6,3.6,3.6c2,0,3.6-1.6,3.6-3.6S1025.7,749,1023.7,749z M1023.7,755
			c-1.3,0-2.3-1-2.3-2.3c0-1.3,1-2.3,2.3-2.3c1.3,0,2.3,1,2.3,2.3C1026,753.9,1025,755,1023.7,755z"/>
	</g>
	<g>
		<path class="st2" d="M957.5,762.2l-1.3-0.5c-0.2,0.7-1.5,3.9-2.5,7.4c-2.3-0.4-4.8-0.7-6.9-0.8l-0.1,1.4c2,0.1,4.4,0.4,6.6,0.8
			c-0.8,3-1.5,5.9-1.2,7.2l1.3-0.3c-0.2-1.1,0.4-3.9,1.2-6.8c3.6,0.6,6.6,1.2,6.6,1.2l0.3-1.3c-0.1,0-3-0.6-6.5-1.2
			C955.9,766.5,956.9,763.8,957.5,762.2z"/>
	</g>
	<g>
		<path class="st2" d="M986.2,760.3c-1.1-0.7-5.4-1.9-10-3c1.7-6.6,1.8-8,1-8.6l-0.8,1.1c-0.1-0.1-0.1-0.1-0.1-0.2
			c0.2,0.7-0.6,4.1-1.4,7.3c-4.8-1.2-9.4-2.2-10.4-2.4l-0.3,1.3c3.1,0.7,6.8,1.6,10.4,2.4c-0.1,0.4-0.2,0.9-0.3,1.3
			c-1.5,5.8-2.1,8.1-1.7,8.9l1.3-0.5c-0.1-0.7,1-4.9,1.8-8c0.1-0.4,0.2-0.9,0.3-1.3c4.7,1.2,8.7,2.3,9.6,2.9L986.2,760.3z"/>
	</g>
	<g>
		<path class="st2" d="M979.9,482.4c6.3-1.8,9.6-9.1,7.6-16.2c-2.1-7.1-8.8-11.4-15.1-9.6c-6.3,1.8-9.6,9.1-7.6,16.2
			C966.9,479.9,973.7,484.2,979.9,482.4z"/>
	</g>
	<g>
		<path class="st2" d="M869.6,483.6c-4.2,0.7-6.8,5.8-5.6,11.3c1.1,5.5,5.5,9.4,9.7,8.6c4.2-0.7,6.8-5.8,5.6-11.3
			C878.2,486.8,873.9,482.9,869.6,483.6z"/>
	</g>
</g>
</svg>
