<?xml version="1.0" encoding="utf-8"?>
<!-- Generator: Adobe Illustrator 25.0.1, SVG Export Plug-In . SVG Version: 6.00 Build 0)  -->
<svg version="1.1" id="Слой_1" xmlns="http://www.w3.org/2000/svg" xmlns:xlink="http://www.w3.org/1999/xlink" x="0px" y="0px"
	 viewBox="0 0 1920 1080" style="enable-background:new 0 0 1920 1080;" xml:space="preserve">
<style type="text/css">
	.st0{fill:#FFFFFF;}
	.st1{fill:#E73C3E;}
	.st2{fill:#1D1D1B;}
</style>
<rect class="st0" width="1920" height="1080"/>
<g>
	<path class="st1" d="M644.6,886.3h-18l-4.9,13.6H616l18.5-49.8h2.7l18.6,49.8h-6.2L644.6,886.3z M628.5,881.2h14.3l-5.4-14.9
		l-1.7-7.4h-0.1l-1.7,7.6L628.5,881.2z"/>
	<path class="st1" d="M687.9,856h-14.6c-0.5,9.3-1.1,17.1-1.9,23.3c-0.8,6.2-1.9,11-3.5,14.5c-1,2.2-2.2,3.9-3.6,4.9
		c-1.4,1-2.9,1.5-4.6,1.5c-0.8,0-1.6-0.1-2.2-0.2c-0.6-0.1-1.2-0.3-1.8-0.5l0.8-5c0.5,0.1,1,0.2,1.5,0.2c0.8,0,1.6-0.3,2.3-0.8
		c0.8-0.5,1.5-1.5,2.3-2.9c0.7-1.3,1.3-2.9,1.9-5c0.6-2.1,1.1-4.8,1.5-8c0.4-3.2,0.8-7.1,1.1-11.5c0.3-4.5,0.5-9.7,0.6-15.6h25.9v49
		h-5.8V856z"/>
	<path class="st1" d="M714.7,877.2h-3.3v22.7h-5.8v-49h5.8v22.8l3.2-1l16.4-21.8h6.7l-16.4,21.1l-2.9,2.3l3.6,2.8l17.9,22.8h-7.4
		L714.7,877.2z"/>
	<path class="st1" d="M744.8,875.3c0-8.2,1.7-14.4,5.2-18.8c3.5-4.4,8.4-6.5,14.8-6.5c3.5,0,6.4,0.6,9,1.8s4.6,2.9,6.3,5.1
		c1.7,2.2,2.9,4.9,3.7,8c0.8,3.1,1.2,6.6,1.2,10.4c0,8.2-1.7,14.4-5.2,18.8c-3.5,4.4-8.4,6.5-14.9,6.5c-3.4,0-6.4-0.6-8.9-1.8
		c-2.5-1.2-4.6-2.9-6.2-5.1c-1.7-2.2-2.9-4.9-3.7-8C745.2,882.6,744.8,879.2,744.8,875.3z M751,875.3c0,2.7,0.3,5.3,0.8,7.7
		c0.5,2.4,1.4,4.6,2.5,6.4s2.6,3.3,4.3,4.4c1.8,1.1,3.8,1.6,6.2,1.6c4.3,0,7.7-1.6,10.2-4.9c2.5-3.3,3.7-8.4,3.7-15.2
		c0-2.7-0.3-5.2-0.8-7.7c-0.5-2.5-1.4-4.6-2.5-6.4c-1.1-1.8-2.6-3.3-4.3-4.4s-3.8-1.6-6.3-1.6c-4.3,0-7.7,1.6-10.1,4.9
		C752.2,863.4,751,868.5,751,875.3z"/>
	<path class="st1" d="M821,856h-20.4v43.8h-5.8v-49H821V856z"/>
	<path class="st1" d="M822,875.3c0-8.2,1.7-14.4,5.2-18.8c3.5-4.4,8.4-6.5,14.8-6.5c3.5,0,6.4,0.6,9,1.8s4.6,2.9,6.3,5.1
		c1.7,2.2,2.9,4.9,3.7,8c0.8,3.1,1.2,6.6,1.2,10.4c0,8.2-1.7,14.4-5.2,18.8c-3.5,4.4-8.4,6.5-14.9,6.5c-3.4,0-6.4-0.6-8.9-1.8
		c-2.5-1.2-4.6-2.9-6.2-5.1c-1.7-2.2-2.9-4.9-3.7-8C822.4,882.6,822,879.2,822,875.3z M828.2,875.3c0,2.7,0.3,5.3,0.8,7.7
		c0.5,2.4,1.4,4.6,2.5,6.4s2.6,3.3,4.3,4.4c1.8,1.1,3.8,1.6,6.2,1.6c4.3,0,7.7-1.6,10.2-4.9c2.5-3.3,3.7-8.4,3.7-15.2
		c0-2.7-0.3-5.2-0.8-7.7c-0.5-2.5-1.4-4.6-2.5-6.4c-1.1-1.8-2.6-3.3-4.3-4.4s-3.8-1.6-6.3-1.6c-4.3,0-7.7,1.6-10.1,4.9
		C829.4,863.4,828.2,868.5,828.2,875.3z"/>
	<path class="st1" d="M897.4,856h-14.6c-0.5,9.3-1.1,17.1-1.9,23.3c-0.8,6.2-1.9,11-3.5,14.5c-1,2.2-2.2,3.9-3.6,4.9
		c-1.4,1-2.9,1.5-4.6,1.5c-0.8,0-1.6-0.1-2.2-0.2c-0.6-0.1-1.2-0.3-1.8-0.5l0.8-5c0.5,0.1,1,0.2,1.5,0.2c0.8,0,1.6-0.3,2.3-0.8
		c0.8-0.5,1.5-1.5,2.3-2.9c0.7-1.3,1.3-2.9,1.9-5c0.6-2.1,1.1-4.8,1.5-8c0.4-3.2,0.8-7.1,1.1-11.5c0.3-4.5,0.5-9.7,0.6-15.6h25.9v49
		h-5.8V856z"/>
	<path class="st1" d="M915.1,850.8h5.8v19c0.2,0,0.6-0.1,1.2-0.2c0.6-0.1,1.2-0.1,1.8-0.2c0.7,0,1.3-0.1,2-0.1
		c0.7,0,1.3-0.1,1.9-0.1c2.2,0,4.4,0.2,6.5,0.7c2.1,0.4,4,1.2,5.7,2.3c1.7,1.1,3,2.6,4,4.5c1,1.9,1.5,4.3,1.5,7.2
		c0,2.8-0.5,5.2-1.5,7.3c-1,2.1-2.3,3.8-4.1,5.1c-1.7,1.4-3.7,2.4-6.1,3c-2.3,0.7-4.8,1-7.5,1c-0.7,0-1.4,0-2.4,0
		c-0.9,0-1.9-0.1-3-0.1c-1-0.1-2.1-0.2-3.1-0.3c-1-0.1-2-0.3-2.9-0.6V850.8z M927.3,895.4c1.7,0,3.3-0.2,4.7-0.7s2.8-1.1,3.9-2
		c1.1-0.9,2-2.1,2.6-3.4c0.6-1.4,0.9-3,0.9-4.8c0-2-0.4-3.6-1.1-4.9c-0.7-1.3-1.6-2.3-2.8-3.1c-1.1-0.8-2.5-1.3-4-1.6
		c-1.5-0.3-3-0.5-4.6-0.5c-0.4,0-0.9,0-1.5,0.1c-0.6,0-1.2,0.1-1.8,0.1c-0.6,0-1.2,0.1-1.7,0.2c-0.5,0.1-0.9,0.2-1.1,0.2v19.9
		c0.7,0.1,1.6,0.2,2.8,0.3C924.9,895.3,926.1,895.4,927.3,895.4z"/>
	<path class="st1" d="M983.2,877.4h-23.5v22.5h-5.8v-49h5.8v21.3h23.5v-21.3h5.8v49h-5.8V877.4z"/>
	<path class="st1" d="M1024.2,886.3h-18l-4.9,13.6h-5.8l18.6-49.8h2.7l18.6,49.8h-6.2L1024.2,886.3z M1008.1,881.2h14.3l-5.4-14.9
		l-1.7-7.4h-0.1l-1.7,7.6L1008.1,881.2z"/>
	<path class="st1" d="M1069.8,899.8h-5.8v-21.3l-7.2,1.5l-12.2,19.8h-6.9l10.9-17.4l4.3-3c-1.7-0.4-3.2-0.9-4.7-1.7
		c-1.4-0.8-2.7-1.8-3.7-2.9c-1-1.2-1.9-2.6-2.4-4.2c-0.6-1.6-0.9-3.4-0.9-5.5c0-2.8,0.5-5.2,1.4-7.1c1-1.9,2.3-3.4,3.9-4.5
		c1.7-1.1,3.6-2,5.8-2.5c2.2-0.5,4.6-0.7,7-0.7c1.6,0,3.3,0.1,5.1,0.2c1.8,0.1,3.6,0.4,5.3,0.8V899.8z M1059.2,855.3
		c-1.5,0-3,0.2-4.4,0.5c-1.4,0.3-2.6,0.8-3.7,1.6c-1.1,0.7-2,1.8-2.6,3c-0.7,1.3-1,2.8-1,4.8c0,1.8,0.3,3.3,0.9,4.5s1.5,2.3,2.6,3.1
		c1.1,0.8,2.3,1.4,3.7,1.8c1.4,0.4,3,0.6,4.6,0.6h4.8v-19.4c-0.7-0.1-1.3-0.2-2-0.3S1060.4,855.3,1059.2,855.3z"/>
	<path class="st1" d="M1131.8,897.8c-1.4,1.1-3.2,1.8-5.3,2.2c-2.1,0.4-4.4,0.6-6.9,0.6c-2.9,0-5.7-0.5-8.3-1.5
		c-2.6-1-4.8-2.5-6.7-4.6c-1.9-2.1-3.4-4.7-4.6-7.9c-1.1-3.2-1.7-7-1.7-11.4c0-4.6,0.6-8.5,1.9-11.7c1.2-3.2,2.9-5.8,4.9-7.8
		s4.3-3.5,6.8-4.4c2.5-0.9,5.1-1.4,7.7-1.4c2.8,0,5.1,0.2,6.9,0.5c1.8,0.3,3.3,0.7,4.6,1.2l-1.4,5.2c-2.2-1.1-5.4-1.7-9.6-1.7
		c-1.9,0-3.8,0.4-5.7,1c-1.9,0.7-3.5,1.8-5,3.4c-1.5,1.6-2.6,3.7-3.5,6.2c-0.9,2.6-1.3,5.7-1.3,9.5c0,3.4,0.4,6.3,1.3,8.8
		c0.8,2.5,2,4.6,3.5,6.3c1.5,1.7,3.2,2.9,5.2,3.8c2,0.8,4.1,1.3,6.5,1.3c2.1,0,3.9-0.2,5.5-0.6c1.6-0.4,2.9-1,4-1.6L1131.8,897.8z"
		/>
	<path class="st1" d="M1140.4,850.8h26.7v5.2h-20.9v16h19.1v5.2h-19.1v17.4h21.2v5.2h-27V850.8z"/>
	<path class="st1" d="M1177.9,851.3c1.8-0.4,3.7-0.7,5.7-0.8c2.1-0.1,4.1-0.2,6.1-0.2c2.1,0,4.3,0.2,6.5,0.6
		c2.2,0.4,4.2,1.2,6.1,2.3s3.3,2.7,4.4,4.6c1.1,2,1.7,4.5,1.7,7.5c0,3-0.5,5.5-1.6,7.6c-1.1,2.1-2.5,3.7-4.3,5
		c-1.8,1.3-3.8,2.2-6.1,2.8c-2.3,0.6-4.6,0.8-7.1,0.8c-0.2,0-0.6,0-1.2,0c-0.5,0-1.1,0-1.7,0c-0.6,0-1.2-0.1-1.7-0.1
		c-0.6,0-1-0.1-1.2-0.1v18.6h-5.8V851.3z M1189.9,855.3c-1.2,0-2.4,0-3.5,0.1c-1.1,0-2,0.2-2.7,0.4V876c0.2,0.1,0.6,0.2,1.1,0.2
		c0.5,0,1,0,1.6,0.1c0.6,0,1.1,0,1.6,0s0.9,0,1.1,0c1.6,0,3.2-0.2,4.7-0.5c1.6-0.3,3-0.9,4.2-1.6c1.3-0.8,2.3-1.9,3-3.4
		c0.8-1.4,1.2-3.3,1.2-5.5c0-1.9-0.4-3.5-1.1-4.8c-0.7-1.3-1.7-2.3-2.9-3.1c-1.2-0.8-2.5-1.3-4-1.6
		C1192.9,855.5,1191.4,855.3,1189.9,855.3z"/>
	<path class="st1" d="M1247,866.7l0.4-5.6h-0.3l-3,5.7l-23.7,33h-3.4v-49h5.8v33.6l-0.5,5.5h0.3l3.1-5.7l23.7-33.4h3.4v49h-5.8
		V866.7z"/>
	<path class="st1" d="M1292.6,899.8h-5.8v-21.3l-7.2,1.5l-12.2,19.8h-6.9l10.9-17.4l4.3-3c-1.7-0.4-3.2-0.9-4.7-1.7
		c-1.4-0.8-2.7-1.8-3.7-2.9c-1-1.2-1.9-2.6-2.4-4.2c-0.6-1.6-0.9-3.4-0.9-5.5c0-2.8,0.5-5.2,1.4-7.1c1-1.9,2.3-3.4,3.9-4.5
		c1.7-1.1,3.6-2,5.8-2.5c2.2-0.5,4.6-0.7,7-0.7c1.6,0,3.3,0.1,5.1,0.2c1.8,0.1,3.6,0.4,5.3,0.8V899.8z M1282,855.3
		c-1.5,0-3,0.2-4.4,0.5c-1.4,0.3-2.6,0.8-3.7,1.6c-1.1,0.7-2,1.8-2.6,3c-0.7,1.3-1,2.8-1,4.8c0,1.8,0.3,3.3,0.9,4.5s1.5,2.3,2.6,3.1
		c1.1,0.8,2.3,1.4,3.7,1.8c1.4,0.4,3,0.6,4.6,0.6h4.8v-19.4c-0.7-0.1-1.3-0.2-2-0.3S1283.2,855.3,1282,855.3z"/>
</g>
<g>
	<path class="st2" d="M758.6,266.9c1.7,1.3,3.6,2.1,5.5,2.5c1.9,0.3,3.8,0.3,5.8-0.3c1.9-0.5,3.9-1.4,5.9-2.7
		c2.8-1.8,5.1-3.6,6.8-5.5c1.7-1.9,2.9-3.6,3.7-5.1l12.6,20l9.7-6.1l-31.3-49.6l-9.7,6.1l13.8,21.9c-0.4,1.4-1.3,2.8-2.6,4.2
		c-1.3,1.4-2.9,2.7-4.7,3.8c-2.6,1.6-4.8,2.1-6.8,1.4c-2-0.7-3.9-2.5-5.7-5.3l-10-15.8l-9.7,6.1l11.9,18.8
		C755.2,263.7,756.9,265.6,758.6,266.9z"/>
	<polygon class="st2" points="809.2,216.6 827.5,261.4 838.2,257.1 819.9,212.2 835.7,205.8 831.8,196.3 789.5,213.6 793.3,223.1 	
		"/>
	<path class="st2" d="M850.4,234.1c1.8,3.4,3.9,6.3,6.5,8.4c2.6,2.2,5.5,3.7,8.9,4.4c3.4,0.8,7.1,0.7,11.3-0.2
		c7.8-1.7,13.2-5.6,16.3-11.6c3.1-6.1,3.6-13.9,1.6-23.4c-1-4.5-2.3-8.4-4.1-11.9c-1.8-3.4-4-6.3-6.5-8.4c-2.6-2.2-5.6-3.6-8.9-4.4
		c-3.4-0.8-7.1-0.7-11.2,0.2c-7.8,1.7-13.2,5.6-16.3,11.6c-3.1,6.1-3.6,13.9-1.5,23.4C847.3,226.7,848.6,230.7,850.4,234.1z
		 M858.1,203.9c1.5-3.7,4.2-5.9,8.2-6.8c2.3-0.5,4.3-0.4,6.1,0.3c1.8,0.7,3.4,1.8,4.8,3.4s2.6,3.5,3.5,5.8c1,2.3,1.8,4.8,2.4,7.6
		c1.5,7,1.5,12.3,0,15.9c-1.5,3.6-4.3,5.8-8.2,6.7c-2.2,0.5-4.2,0.4-6-0.2c-1.8-0.6-3.4-1.7-4.8-3.2c-1.4-1.5-2.6-3.5-3.6-5.8
		c-1-2.3-1.8-4.9-2.5-7.8C856.6,212.8,856.6,207.6,858.1,203.9z"/>
	<path class="st2" d="M908.5,192.1c0.9-0.5,1.8-1,2.8-1.4c1-0.4,2-0.7,3-1c1-0.2,1.9-0.4,2.8-0.4c2.8-0.1,4.8,0.4,5.9,1.5
		c1.1,1.1,1.8,2.7,1.8,4.6c0.1,1.5-0.2,2.8-0.9,3.9c-0.7,1.1-1.5,2.2-2.6,3.3c-1,1.1-2.2,2.2-3.4,3.3c-1.2,1.1-2.3,2.5-3.2,4
		c-0.9,1.5-1.6,3.3-2.1,5.4c-0.5,2.1-0.5,4.5-0.1,7.4l9.3-0.4c-0.1-2.3,0.2-4.3,0.9-5.8c0.7-1.5,1.6-2.9,2.7-4.1
		c1.1-1.2,2.2-2.3,3.5-3.4c1.3-1.1,2.5-2.3,3.5-3.6c1.1-1.4,1.9-3,2.6-4.9c0.7-1.9,0.9-4.3,0.8-7.1c-0.2-4.3-1.8-7.6-4.9-10
		s-7.2-3.5-12.5-3.2c-3.9,0.2-7.2,0.8-9.9,1.9c-2.7,1.1-5.1,2.4-7.2,3.9l4.6,7.8C906.8,193.2,907.6,192.6,908.5,192.1z"/>
	<path class="st2" d="M913.2,230c-1.2,1.2-1.7,2.8-1.6,4.7c0.1,2,0.8,3.5,2.1,4.6c1.3,1.1,2.9,1.6,4.9,1.5c2.1-0.1,3.8-0.8,4.9-2
		c1.2-1.2,1.7-2.8,1.6-4.8c-0.1-2-0.8-3.5-2.1-4.6c-1.3-1.1-3-1.6-5.1-1.5C916,228.1,914.4,228.8,913.2,230z"/>
	<polygon class="st2" points="982.6,194.9 1005,198.5 1006.6,188.4 973,182.9 963.5,240.8 974.8,242.6 	"/>
	<path class="st2" d="M1002.2,236.8l-5.9-2l-6.7,19.6l7.7,2.6l4.6-9.5l35.7,12.2l-2.2,10.3l7.7,2.6l6.7-19.6l-7.1-2.4l15.7-45.8
		l-33.2-11.4c-2.5,7.6-5,14-7.5,19.3c-2.5,5.3-4.8,9.7-6.9,13.1c-2.1,3.4-3.9,5.9-5.5,7.7C1003.8,235.3,1002.8,236.4,1002.2,236.8z
		 M1021.8,229c3.2-5.6,6.6-13,10.2-22.3l12.3,4.2l-12.4,36.1l-18.1-6.2C1015.8,238.5,1018.5,234.6,1021.8,229z"/>
	<polygon class="st2" points="1080.4,282.6 1085.4,273.7 1064.8,262.1 1071.8,249.6 1090.3,259.9 1095.3,251 1076.8,240.7 
		1083.5,228.7 1103.8,240.2 1108.8,231.2 1078.5,214.2 1049.8,265.3 	"/>
	<path class="st2" d="M1102,284c-1.6-1.2-3.2-1.8-4.9-1.6c-1.7,0.2-3.1,1-4.3,2.6c-1.2,1.6-1.7,3.2-1.4,4.8c0.3,1.7,1.2,3.1,2.8,4.4
		c1.7,1.3,3.4,1.9,5.1,1.7c1.7-0.2,3.1-1,4.3-2.6c1.2-1.6,1.7-3.2,1.4-4.8C1104.6,286.8,1103.7,285.3,1102,284z"/>
	<path class="st2" d="M1125.1,266c-1.2,0.4-2.6,0.7-4.1,0.8c-1.5,0.1-3,0.2-4.7,0.3c-1.7,0.1-3.3,0.4-5,1c-1.7,0.6-3.4,1.5-5,2.8
		c-1.7,1.3-3.3,3.1-4.9,5.6l7.4,5.7c1.4-1.9,2.9-3.1,4.5-3.9c1.5-0.7,3.1-1.2,4.7-1.4c1.6-0.2,3.2-0.3,4.9-0.3c1.7,0,3.4-0.1,5-0.5
		c1.7-0.4,3.4-1,5.1-2.1c1.7-1,3.5-2.7,5.2-4.9c2.6-3.4,3.5-7,2.8-10.8c-0.8-3.8-3.3-7.3-7.4-10.5c-3.1-2.4-6-4-8.8-5
		c-2.8-0.9-5.4-1.5-8-1.6l-1.6,8.9c0.9,0,1.8,0.2,2.9,0.3c1,0.2,2,0.4,3.1,0.8c1,0.3,2,0.7,2.9,1.2c0.9,0.5,1.7,1,2.4,1.5
		c2.2,1.7,3.4,3.4,3.5,5c0.1,1.6-0.4,3.2-1.6,4.7C1127.4,264.8,1126.3,265.6,1125.1,266z"/>
	<polygon class="st2" points="1135.7,331.5 1155.2,315.7 1157.1,318.1 1148.5,347.3 1157.4,358.3 1166.6,325.8 1166.1,320.1 
		1171.5,321.6 1201.4,319.5 1193.2,309.3 1163.7,312.3 1161.1,311 1181.3,294.6 1174.1,285.7 1128.5,322.6 	"/>
	<path class="st2" d="M1182.9,344c-4,2.2-7.5,4.6-10.3,7.3c-2.8,2.7-4.9,5.5-6.3,8.6c-1.4,3.1-2,6.3-1.8,9.8c0.2,3.4,1.3,7,3.3,10.8
		c3.8,7,9,11.1,15.7,12.4c6.7,1.3,14.4-0.4,23-5c4-2.2,7.5-4.6,10.3-7.3c2.8-2.7,4.9-5.5,6.3-8.6c1.4-3.1,2-6.4,1.7-9.8
		c-0.2-3.4-1.3-7-3.3-10.7c-3.8-7-9-11.2-15.7-12.5S1191.5,339.4,1182.9,344z M1203.8,350.3c3.9,0.4,6.9,2.4,8.8,6
		c1.1,2.1,1.6,4.1,1.5,6c-0.1,1.9-0.8,3.8-1.9,5.5c-1.1,1.8-2.7,3.4-4.6,5c-1.9,1.6-4.2,3.1-6.7,4.4c-6.3,3.4-11.4,4.9-15.2,4.4
		c-3.9-0.5-6.8-2.5-8.7-6.1c-1.1-2-1.5-3.9-1.4-5.8c0.1-1.9,0.7-3.7,1.8-5.5c1.1-1.8,2.6-3.4,4.5-5.1c1.9-1.6,4.2-3.1,6.8-4.5
		C1194.8,351.3,1199.8,349.8,1203.8,350.3z"/>
	<polygon class="st2" points="1186,418.4 1231.9,402.8 1239.1,424.3 1248.8,421 1237.9,388.7 1182.3,407.5 	"/>
	<path class="st2" d="M1204.2,490.8l7.8-1.3l-1.2-7.4l47.8-7.7l-5.6-34.7c-7.9,1.3-14.7,2.1-20.6,2.5c-5.9,0.3-10.8,0.3-14.8,0.1
		c-4-0.3-7.1-0.7-9.3-1.2c-2.2-0.5-3.7-1-4.4-1.2l-1-6.1l-20.4,3.3l1.3,8l10.5-0.4l6,37.2l-10.1,2.9l1.3,8l10.3-1.7l-0.4,10.2
		l12.8,5l-0.8,18l-13.2,4.1l-0.5,12.1l59.9-18.5l0.4-8.5L1204.2,490.8z M1220.2,453.4c6.5,0.2,14.6-0.3,24.5-1.5l2.1,12.8l-37.7,6.1
		l-3-18.9C1209,452.7,1213.7,453.2,1220.2,453.4z M1245.3,517.1l-9.3,1.4l-13.2,3.8l0.5-12.6l12.8,4.8l9.2,2.2L1245.3,517.1z"/>
	<path class="st2" d="M1203.3,549.1c-1.9-0.4-3.6-0.1-5,0.9c-1.4,1-2.3,2.5-2.6,4.4c-0.4,2.1-0.1,3.8,0.8,5.3
		c0.9,1.4,2.3,2.3,4.3,2.7c1.9,0.4,3.6,0.1,4.9-0.9c1.4-1,2.2-2.5,2.6-4.6c0.4-2,0.1-3.7-0.8-5.1
		C1206.7,550.4,1205.3,549.5,1203.3,549.1z"/>
	<path class="st2" d="M1253.2,550.7l-8.7,2.6c0.4,0.8,0.7,1.7,1,2.7c0.3,1,0.5,2,0.7,3.1c0.2,1.1,0.3,2.1,0.3,3.1c0,1-0.1,2-0.2,2.9
		c-0.5,2.7-1.5,4.5-2.8,5.4c-1.4,0.9-3,1.1-4.9,0.7c-1.5-0.3-2.7-0.9-3.6-1.8c-0.9-0.9-1.8-2-2.6-3.3c-0.8-1.3-1.6-2.6-2.4-4
		c-0.8-1.4-1.9-2.8-3.2-4c-1.3-1.2-2.9-2.3-4.8-3.3c-1.9-0.9-4.3-1.5-7.2-1.8l-1.7,9.1c2.3,0.4,4.1,1.2,5.5,2.2
		c1.3,1.1,2.5,2.2,3.4,3.5c0.9,1.3,1.7,2.7,2.5,4.2c0.7,1.5,1.6,2.9,2.7,4.3c1.1,1.3,2.5,2.6,4.2,3.7c1.7,1.1,3.9,1.9,6.7,2.4
		c4.2,0.8,7.9,0,10.9-2.4c3.1-2.4,5.1-6.2,6.1-11.4c0.7-3.8,0.9-7.2,0.5-10.1C1254.9,555.7,1254.2,553,1253.2,550.7z"/>
	<path class="st2" d="M982.1,510.7c-8.2-1.7-17.9-6-25.6-16.4c-2.8-3.8-5.3-8.4-7.4-13.9c-0.1-0.3-0.5-0.5-0.8-0.4
		c-0.3,0.1-0.5,0.5-0.4,0.8c2.1,5.7,4.7,10.3,7.6,14.2c8.4,11.4,19.3,15.7,28,17.2c8.7,1.5,15.3,0.1,15.4,0.1
		c0.3-0.1,0.5-0.4,0.5-0.7c-0.1-0.3-0.4-0.5-0.7-0.5l0,0l-0.3,0.1C996.9,511.4,990.3,512.4,982.1,510.7z"/>
	<path class="st2" d="M884.6,512.2c0,0-0.2,0.2-0.7,0.6c-3.1,2.6-16.8,12.9-32.7,11.9c-0.3,0-0.6,0.2-0.6,0.6c0,0.3,0.2,0.6,0.6,0.6
		c18.8,1.2,34.2-12.8,34.2-12.8c0.2-0.2,0.3-0.6,0-0.9C885.2,512,884.9,512,884.6,512.2z"/>
	<path class="st2" d="M881.8,520.4c0,0-0.2,0.2-0.5,0.7c-2.2,2.8-11,13-23.7,17.1c0.1,0.4,0.2,0.8,0.2,1.2c15.3-4.9,25-18.3,25-18.3
		c0,0,0-0.1,0-0.1c0.1-0.3,0.1-0.6-0.2-0.8C882.4,520,882,520.1,881.8,520.4z"/>
	<path class="st2" d="M969.1,496.3c-4.1-2.3-8.3-5.5-12.4-9.7c0,0-0.1-0.1-0.1-0.1c-0.2-0.1-0.5-0.1-0.7,0.1c-0.2,0.2-0.2,0.6,0,0.9
		c4.2,4.3,8.5,7.5,12.7,9.9c6.8,3.8,13.4,5.4,19.5,5.7c3.8-0.9,7.6-1.3,11.3-1c0.6-0.1,1.2-0.3,1.8-0.4c8.6-2.2,14-6.1,14.1-6.1
		c0.3-0.2,0.3-0.6,0.1-0.8c-0.1-0.1-0.1-0.1-0.2-0.2c-0.2-0.1-0.5-0.1-0.7,0l0,0l-0.2,0.2c-1.2,0.8-6.9,4.4-15,6.2
		C991,502.6,980.4,502.6,969.1,496.3z"/>
	<path class="st2" d="M988.2,492.9c1.2-0.3,2.4-0.7,3.5-1.2c15.6-6.6,23.6-26.6,18.2-46.8c-0.6-2.2-1.3-4.2-2.1-6.2
		c-1-2.4-2.2-4.7-3.5-6.9l0,0c0,0,0,0,0,0c-8.5-13.8-23.2-21.4-37.1-17.7c-1.2,0.3-2.4,0.7-3.5,1.2c-12.8,5.4-20.4,19.8-19.8,36
		c0.1,3.6,0.6,7.2,1.6,10.9c0.6,2.2,1.3,4.3,2.2,6.4C955.1,486.5,972.1,497.2,988.2,492.9z M946,459.2c-0.1-0.3-0.1-0.6-0.2-0.9
		c-0.1-0.6-0.2-1.1-0.3-1.7c-0.1-0.4-0.1-0.8-0.2-1.3c-0.1-0.5-0.1-0.9-0.2-1.4c0-0.5-0.1-1-0.1-1.5c0-0.3-0.1-0.7-0.1-1
		c2.8-10.1,9.3-19.6,21.1-24.5c1.8-0.8,3.7-1.4,5.8-1.9c5.8-1.5,11.3-1.2,16.3,0.2c0.5,0.1,1,0.3,1.5,0.4c0.3,0.1,0.5,0.2,0.8,0.3
		c0.2,0.1,0.4,0.1,0.6,0.2c0.2,0.1,0.5,0.2,0.7,0.3c0.3,0.1,0.5,0.2,0.8,0.3c0.2,0.1,0.5,0.2,0.7,0.3c0.2,0.1,0.4,0.1,0.5,0.2
		c0.3,0.1,0.5,0.2,0.8,0.4c0.2,0.1,0.5,0.2,0.7,0.3c0.1,0.1,0.3,0.1,0.4,0.2c0.3,0.1,0.5,0.3,0.8,0.4c0.3,0.1,0.5,0.3,0.8,0.4
		c0.1,0.1,0.2,0.1,0.3,0.2c0.2,0.1,0.5,0.3,0.7,0.4c0.3,0.2,0.6,0.3,0.9,0.5c0.1,0.1,0.2,0.1,0.3,0.2c0.2,0.1,0.4,0.3,0.6,0.4
		c0.3,0.2,0.6,0.4,0.9,0.6c0.1,0.1,0.2,0.1,0.3,0.2c0.2,0.1,0.3,0.2,0.5,0.3c0.3,0.2,0.6,0.4,0.9,0.6c0.2,0.2,0.4,0.3,0.7,0.5
		c0.4,0.7,0.8,1.5,1.3,2.2c0.2,0.3,0.4,0.6,0.5,1c0.6,1.1,1.1,2.3,1.6,3.4c0.8,1.9,1.5,3.9,2.1,6c0.3,1.2,0.6,2.5,0.8,3.7
		c0.1,0.4,0.1,0.8,0.2,1.1c0.1,0.8,0.3,1.7,0.4,2.5c0.1,0.7,0.1,1.4,0.1,2.2c0,0.5,0.1,1,0.1,1.5c0,0.8,0,1.5,0,2.3
		c0,0.4,0,0.9,0,1.3c0,0.8-0.1,1.6-0.2,2.5c0,0.3,0,0.7-0.1,1c-0.1,0.8-0.3,1.6-0.4,2.5c-0.1,0.3-0.1,0.6-0.2,0.9
		c-0.2,0.7-0.4,1.5-0.6,2.2c-0.1,0.4-0.2,0.7-0.3,1.1c-0.2,0.7-0.5,1.4-0.7,2.1c-0.1,0.3-0.2,0.7-0.4,1c-0.3,0.7-0.6,1.3-0.9,2
		c-0.1,0.3-0.3,0.6-0.4,0.9c-0.3,0.6-0.7,1.2-1,1.8c-0.2,0.3-0.3,0.6-0.5,0.9c-0.3,0.5-0.7,1-1,1.5c-0.2,0.3-0.5,0.7-0.7,1
		c-0.4,0.5-0.7,0.9-1.1,1.3c-0.3,0.3-0.5,0.7-0.8,1c-0.4,0.4-0.7,0.7-1.1,1.1c-0.3,0.3-0.7,0.7-1,1c-0.4,0.3-0.8,0.6-1.2,0.9
		c-0.4,0.3-0.8,0.7-1.2,0.9c-0.4,0.3-0.8,0.5-1.2,0.8c-0.4,0.3-0.9,0.6-1.3,0.8c-0.4,0.2-0.8,0.4-1.2,0.6c-0.5,0.2-1,0.5-1.5,0.7
		c-1.1,0.5-2.2,0.8-3.4,1.2c-15.3,4.1-31.8-6.2-39.2-23.7c-0.8-2-1.5-4.1-2.1-6.2C946.4,461,946.2,460.1,946,459.2z M964.1,416.5
		c1.1-0.5,2.2-0.8,3.4-1.2c12.4-3.3,25.5,2.8,34,14.5c-7.8-5.1-18.2-9.1-29.8-6.1c-2.1,0.5-4.1,1.2-5.9,2
		c-10.7,4.5-17.3,12.6-20.6,21.6C945.7,433.2,952.9,421.2,964.1,416.5z"/>
	<path class="st2" d="M850.3,488.8c0.4,1.7,1,3.4,1.7,5c2.6,6.3,6.9,11.2,11.9,14.2c5,3,10.8,4.1,16.4,2.5c0.8-0.2,1.5-0.5,2.3-0.8
		c11.2-4.7,17.1-19.3,13.4-33.8c-0.4-1.7-1-3.3-1.6-4.9c-0.7-1.6-1.4-3-2.3-4.4c-5.9-9.8-16.2-15.2-26.1-12.4
		c-0.8,0.2-1.5,0.5-2.3,0.8c-9.2,3.9-14.8,14.4-14.5,26c0,0,0,0,0,0C849.3,483.6,849.6,486.2,850.3,488.8z M882.1,508.6
		c-0.7,0.3-1.4,0.5-2.1,0.7c-0.4,0.1-0.9,0.2-1.3,0.3c-0.3,0.1-0.6,0.1-0.9,0.2c-0.3,0.1-0.7,0.1-1,0.1c-0.3,0-0.6,0.1-0.9,0.1
		c-0.4,0-0.7,0-1.1,0c-0.3,0-0.6,0-0.9,0c-0.4,0-0.7-0.1-1.1-0.1c-0.3,0-0.6-0.1-0.8-0.1c-0.4-0.1-0.7-0.2-1.1-0.2
		c-0.3-0.1-0.5-0.1-0.8-0.2c-0.4-0.1-0.8-0.2-1.2-0.4c-0.2-0.1-0.5-0.1-0.7-0.2c-0.4-0.2-0.8-0.4-1.3-0.5c-0.2-0.1-0.4-0.2-0.6-0.3
		c-0.6-0.3-1.2-0.6-1.8-1c-4.8-2.9-8.9-7.6-11.4-13.7c-0.6-1.5-1.2-3.1-1.6-4.8c-0.3-1.3-0.6-2.5-0.7-3.7c-0.1-0.5-0.1-1-0.1-1.5
		c-0.1-0.7-0.2-1.5-0.2-2.2c2.1-7.3,6.8-14.1,15.2-17.7c1.2-0.5,2.4-0.9,3.7-1.3c4.1-1.1,7.9-0.9,11.4,0c0.9,0.2,1.8,0.5,2.6,0.8
		c0.1,0,0.2,0.1,0.3,0.1c0.3,0.1,0.6,0.3,0.9,0.4c-0.3-0.1-0.6-0.3-0.9-0.4c0.8,0.3,1.6,0.7,2.4,1.1c-0.5-0.2-1-0.5-1.5-0.7
		c0.5,0.2,1,0.4,1.5,0.7c0.1,0,0.2,0.1,0.2,0.1c0.4,0.2,0.7,0.4,1,0.6c-0.3-0.2-0.6-0.4-1-0.6c0.8,0.4,1.5,0.8,2.2,1.3
		c-0.4-0.3-0.8-0.5-1.2-0.7c0.5,0.3,0.9,0.5,1.3,0.8c0,0,0.1,0,0.1,0.1c0.4,0.2,0.7,0.5,1.1,0.8c-0.3-0.2-0.7-0.5-1-0.7
		c0.7,0.5,1.4,1,2.1,1.5c-0.3-0.3-0.7-0.5-1.1-0.7c0.4,0.3,0.8,0.5,1.1,0.8c0.2,0.4,0.4,0.8,0.7,1.2c0.1,0.3,0.3,0.5,0.4,0.8
		c0.4,0.7,0.7,1.4,1,2.2c0.6,1.5,1.2,3.1,1.6,4.7c0.2,1,0.4,1.9,0.6,2.9c0.1,0.3,0.1,0.6,0.1,0.9c0.1,0.6,0.2,1.3,0.2,1.9
		c0,0.4,0,0.7,0.1,1.1c0,0.6,0,1.2,0,1.8c0,0.4,0,0.7,0,1.1c0,0.6-0.1,1.2-0.1,1.7c0,0.3-0.1,0.7-0.1,1c-0.1,0.6-0.2,1.2-0.3,1.8
		c-0.1,0.3-0.1,0.6-0.2,0.8c-0.2,0.9-0.4,1.7-0.6,2.5c0,0,0,0,0,0.1c-0.2,0.8-0.5,1.6-0.8,2.3c-0.1,0.3-0.2,0.5-0.3,0.7
		c-0.2,0.5-0.5,1-0.7,1.5C890.1,503.1,886.5,506.7,882.1,508.6z M880.8,462.2c0.9,0.2,1.7,0.5,2.6,0.8
		C882.6,462.7,881.7,462.4,880.8,462.2z M864.2,456.1c0.7-0.3,1.4-0.5,2.1-0.7c8.3-2.4,17.1,1.5,22.9,9.2
		c-5.3-3.3-12.3-5.8-20.2-3.6l0,0c-1.3,0.4-2.6,0.8-3.8,1.3c-7.4,3.1-12.1,8.7-14.6,14.8C851.5,467.5,856.6,459.3,864.2,456.1z"/>
	<path class="st2" d="M951.2,564l1,0.9c8.8-10.5,10.6-27.7,10.7-28.4l-1.4-0.1C961.6,536.5,959.7,553.7,951.2,564z"/>
	<path class="st2" d="M869.5,636.1c-0.3,1.6-0.5,2.6-0.5,2.6c-0.1,0.3,0.1,0.5,0.4,0.6c0.3,0.1,0.5-0.1,0.6-0.4c0,0,0.3-1,0.6-2.7
		c0.9-5.2,2.4-16.7-1.7-24c-0.1-0.2-0.4-0.3-0.7-0.2c-0.2,0.1-0.3,0.4-0.2,0.7C871.8,619.6,870.5,631,869.5,636.1z"/>
	<path class="st2" d="M1120.5,705.3c5.4-42,3.4-67.4,0.2-96.1c0,0,0,0,0,0c0,0-0.1-0.4-0.2-1.1c0-0.1,0-0.2,0-0.2l0,0
		c-0.3-1.8-1.1-5.2-3-9.1c-2.6-5.5-7.5-11.8-16-15.6c-0.6-0.4-1.2-0.8-2-1c0.8-2.3,3.8-12.1,6-24.4c0-0.3,0.1-0.5,0.1-0.8
		c2.6-14.8-5.4-31.4-11.8-51.8c-0.7-2.2-1.2-4.6-1.6-7c-0.1-0.5-0.2-1.1-0.2-1.6c0-0.3-0.1-0.7-0.1-1.1c-0.1-0.5-0.1-1.1-0.2-1.6
		c0-0.1,0-0.1,0-0.2c2.7,1,5.8,3.6,8.3,6.2c1.5,1.6,2.9,3.1,3.8,4.3c1,1.2,1.5,1.9,1.5,1.9c0.1,0.2,0.4,0.3,0.6,0.2
		c0.2-0.1,0.4-0.2,0.5-0.5c0.6-3.3-0.1-6.5-1.3-9.4c-2.7-6.4-8.3-11.6-10.7-13.7c3.2-0.2,5.9-0.8,8-1.7c4.9-2.1,7.1-5.6,8-8.6
		c0.9-3,0.6-5.4,0.6-5.5c0-0.3-0.3-0.5-0.6-0.5c-0.3,0-0.6,0.3-0.6,0.6l0,0l0,0h0c0,0.1-0.2,2.5-3.7,4c-1,0.4-2.3,0.8-4,0.9
		c-1.4,0.1-2.6-0.2-3.7-1.1c-1.1-0.9-2.1-2.4-3-4.5c-0.6-1.4-1.1-3.1-1.6-5.1c0-0.3,0.1-0.6,0.1-0.9c0.1-0.4,0.1-0.7,0.1-1
		c0,0,0-0.1,0-0.2c0,0,0,0,0-0.1c0.1-0.6,0.1-1.1,0.2-1.6c0-0.1,0-0.3,0.1-0.4c0,0,0-0.1,0-0.1c0.1-0.4,0.1-0.8,0.1-1.2
		c0-0.1,0-0.2,0-0.3c0-0.5,0-0.9,0-1.3c0,0,0-0.1,0-0.1c0,0,0,0,0,0c0,0,0,0,0,0c0,0,0-0.1,0-0.1c0-0.1,0-0.1,0-0.2
		c0-0.1,0-0.1,0-0.2c0,0,0-0.1,0-0.1c0,0,0,0,0-0.1c0-0.1-0.1-0.3-0.2-0.4c-0.5-0.7-1.3-1.1-2.1-1.2c0,0,0,0,0,0
		c-0.8-6-1.4-13.4-1.8-22.3c-0.4-8.9-2.6-16.8-5.4-23.6c-6-14.3-15-23.3-17.5-25.7c0.1-0.1,0.3-0.1,0.4-0.2c3.4-1.4,6.7-2.1,9.1-2.4
		c1.2-0.1,2.2-0.2,2.9-0.2c0.3,0,0.6,0,0.8,0l0.3,0l0.6-0.3c0.1-0.2,0.1-0.4,0-0.6c-3.3-4.9-7.8-6.4-11.8-6.6
		c-3.2-0.1-6,0.6-7.9,1.3c3.3-4.5,4.3-9.1,4.3-13c0-4.4-1.3-7.8-1.7-8.9c-0.1-0.2-0.2-0.3-0.2-0.4c-0.1-0.2-0.3-0.3-0.5-0.3
		l-0.5,0.3c-1.8,3.5-3.7,6.1-5.3,7.7c-0.1,0.1-0.1,0.1-0.2,0.2c6.4-13.7,2.9-26.4,0.2-32.9c-1.2-2.8-2.2-4.4-2.2-4.5
		c-0.1-0.2-0.4-0.3-0.7-0.3c-0.3,0.1-0.4,0.3-0.4,0.6c0.4,5.9-0.7,9.8-1.8,12.3c-0.3,0.7-0.6,1.3-1,1.8c1.5-10.8-0.7-20.7-4.1-28.6
		c-4-9.4-9.4-16.2-11.8-19c-0.8-0.9-1.3-1.4-1.3-1.4c-0.2-0.2-0.5-0.2-0.7-0.1c-0.2,0.1-0.4,0.4-0.3,0.6
		c1.9,14.1-9.9,29.2-22.3,40.6c-6.2,5.7-12.5,10.5-17.3,13.9c-2.4,1.7-4.4,3-5.8,3.9c-1,0.7-1.7,1.1-2,1.3
		c-28.6-4.7-53.1,0.7-72.3,8.7c-13.5,5.7-24.4,12.7-32.2,18.3c-3.9,2.8-7,5.3-9.2,7.2c-1.1,0.9-2,1.7-2.7,2.2
		c-0.6,0.5-1,0.8-1.2,0.9c-15.9-4.5-24.4-15.7-29-26.8c-2.9-6.8-4.2-13.6-4.9-18.6c-0.3-2.5-0.5-4.6-0.5-6.1c0-0.7,0-1.3,0-1.7
		c0-0.4,0-0.6,0-0.6c0-0.3-0.2-0.5-0.5-0.6c-0.3-0.1-0.6,0.1-0.7,0.3c-11.5,23.7-7,44.5-1.6,57.4c2.1,5,4.3,8.8,5.8,11.1
		c-4.4-3.4-7.4-8.3-9.4-13.1c-1.4-3.3-2.3-6.5-2.8-8.8c-0.3-1.2-0.4-2.1-0.6-2.8c-0.1-0.7-0.2-1-0.2-1c0-0.3-0.3-0.5-0.6-0.5
		c-0.3,0-0.6,0.2-0.6,0.5c-4.5,17.4-2.2,30.9,1.9,40.5c4.4,10.4,10.7,16.3,12.7,18c-2.1,1.6-3.2,4.3-3.7,6.7
		c-0.6,2.6-0.5,4.9-0.5,4.9c0,0.3,0.2,0.5,0.5,0.6c0.3,0.1,0.5-0.1,0.7-0.3c1.6-3,3.8-4.5,5.3-5.2c-10.5,16.3-9.9,35.6-7,52.6
		c-5.2,5-7.9,12.2-9.2,19.5c-1.9,10.3-1,20.9-0.4,25.7c-4.1-7-9.6-9.4-13.4-10.1c-2.7-0.5-4.7-0.2-4.7-0.2l-0.4,0.3l0.1,0.5
		c4.1,5.4,4.5,13.1,3,21c-0.1,0.7-0.3,1.3-0.4,2c-0.2,0.9-0.4,1.8-0.6,2.7c0,0.1,0,0.2-0.1,0.2c-0.2,0.6-0.4,1.3-0.5,1.9
		c0.2-0.6,0.4-1.2,0.5-1.8c-0.2,0.8-0.4,1.6-0.7,2.4c0.1-0.2,0.1-0.4,0.2-0.6c-0.1,0.2-0.1,0.4-0.2,0.6c-0.1,0.3-0.2,0.5-0.3,0.8
		c-0.2,0.6-0.4,1.3-0.6,1.9c-0.1,0.3-0.2,0.6-0.3,0.8c-0.2,0.5-0.4,1-0.6,1.6c0.2-0.5,0.4-1,0.6-1.5c-0.2,0.7-0.5,1.3-0.7,2
		c0.1-0.2,0.1-0.3,0.2-0.5c-0.1,0.2-0.1,0.3-0.2,0.5c-0.1,0.2-0.1,0.4-0.2,0.6c-0.2,0.5-0.4,1.1-0.6,1.6c0.2-0.5,0.4-1,0.6-1.6
		c-0.3,0.8-0.6,1.7-1,2.5c0.1-0.3,0.2-0.6,0.4-0.9c-0.1,0.3-0.2,0.6-0.4,0.9c-0.1,0.2-0.1,0.3-0.2,0.5c-0.3,0.7-0.5,1.3-0.8,2
		c-0.1,0.2-0.2,0.5-0.3,0.7c-0.3,0.6-0.5,1.2-0.8,1.7c-0.1,0.2-0.2,0.4-0.3,0.6c-0.3,0.7-0.7,1.5-1,2.1c0,0,0,0,0,0
		c-1.5,3-2.8,5.5-3.8,7.3c-1,1.8-1.7,2.9-1.7,3c-0.3,0.4-10.9,13-13.7,28.3c-1.3,7-0.8,14.6,3,21.8c-0.5-0.3-1.1-0.7-1.8-1.2
		c-1.8-1.3-4-3.4-5.6-6.2c-0.1-0.2-0.3-0.3-0.5-0.2c-0.2,0.1-0.4,0.2-0.4,0.5c0,0-0.3,6.8,2,15.2c1.1,4,2.7,8.3,5.2,12.5
		c-6.9-0.5-16.7-1.1-23.7-1.5v-12v-53.4v-4.4c0-6.9-16.9-27-16.9-27v-36.4c0,0,0,0,0,0c0,0,0,0,0,0v-0.3l-0.1,0.1
		c-0.4-2.6-5.5-4.7-11.8-4.7c-6.3,0-11.4,2.1-11.8,4.7l-0.1-0.1v36.8c0,0-16.9,20.1-16.9,27v4.4c0,0,0,0,0-0.1v53.4c0,0,0,0,0,0.1
		v7.1c-23.4-40.1-36.9-86.7-36.9-136.4c0-68.9,25.9-134.6,72.9-185L734,320c-47.7,51.1-74,117.7-74,187.6
		c0,151.6,123.3,274.9,274.9,274.9c110.7,0,210.2-65.9,253.3-167.9l-3.5-1.5C1169.6,648.8,1147.5,679.9,1120.5,705.3z M1119,706.7
		c-1.1,1-2.1,2-3.2,2.9c-12.9-3.9-27.3-7.9-43.2-12.1c15.8-7.8,30.9-21,41.9-42.3l0,0c3.9-7.1,6.2-16.1,6.9-26
		C1123.1,651.1,1123.3,673.9,1119,706.7z M1104.4,556.7c0,0.3-0.1,0.5-0.1,0.8c-1.9,10.5-4.4,19.2-5.5,22.9
		c-0.2,0.7-0.4,1.2-0.5,1.5c-3.4-0.4-7.9,0.5-11.4,2.1c-4.2,1.9-8.8,6.1-12.7,10.1c2.1-3.3,4-6.8,4.4-9.1c0.1-0.5,0.1-1,0-1.5
		c-0.1-0.5-0.3-0.9-0.7-1.2c-0.2-0.2-0.5-0.3-0.8-0.3c-0.9-0.2-2.3,0-4.1,0.3c-1.8,0.4-4,1-6.5,1.9c-5,1.8-11.3,4.5-17.7,8.3
		c-12.9,7.6-26.5,19.1-32.4,34.8c-0.1,0.3,0,0.7,0.4,0.8c0.3,0.1,0.7,0,0.8-0.4c5-13.3,15.9-23.7,27.1-31.1
		c11.1-7.4,22.6-11.8,28.7-13c1.7-0.4,3-0.5,3.6-0.3l0.3,0.1l0.2,0.4c0,0.2,0,0.6,0,1c-0.3,1.8-1.9,4.9-3.8,8c-1.9,3-4,6.1-5.4,8
		c-0.9,1.3-1.5,2.1-1.5,2.1l0,0v0c0,0,0,0,0,0c-0.1,0.1-0.1,0.2-0.1,0.3l0,0.1l0,0c0,0.2,0.1,0.3,0.2,0.4c0.1,0.1,0.3,0.2,0.5,0.1
		l0,0l0.1-0.1c0.1,0,0.2-0.1,0.3-0.2c0,0,0,0,0,0l0,0l0,0c0,0,0.7-0.9,1.9-2.3c1.2-1.4,2.9-3.4,4.9-5.5c3.9-4.1,8.9-8.8,13-10.6
		c3.5-1.6,8.2-2.5,11.2-1.9c0.5,0.1,0.9,0.2,1.3,0.4c0.1,0.1,0.2,0.2,0.3,0.3c0.2,0.1,0.4,0.2,0.7,0.3c0.1,0.1,0.2,0.1,0.2,0.2
		c0.5,0.5,0.7,1.2,0.5,2.3c-0.3,1.8-2,4.7-5.8,8.6c-7.4,7.7-13.9,23.5-18.7,37.4c-4.7,13.9-7.6,26-7.6,26c-0.1,0.4,0.1,0.7,0.5,0.8
		c0.3,0.1,0.7-0.1,0.8-0.5c0,0,0.7-3,2-7.7c1.3-4.7,3.2-11.2,5.5-18.1c1.1-3.2,2.2-6.4,3.5-9.6c4.4,9.1,2.7,23.3,1.6,29.7
		c-0.4,2.2-0.7,3.5-0.7,3.5c-0.1,0.3,0.1,0.7,0.5,0.8c0.3,0.1,0.7-0.1,0.8-0.5c0,0,0.3-1.3,0.7-3.5c1.2-6.8,3.2-21.9-2.2-31.6
		c4.1-10.4,9-20.3,14.3-25.7c3.9-4,5.7-7,6.2-9.3c0.1-0.7,0.1-1.3,0-1.8c6.1,3.2,9.9,7.7,12.4,12c2.6,4.6,3.6,8.9,4,10.9
		c2.6,17.9,0.5,34.9-5.9,46.5l0.6,0.3l-0.6-0.3c-13.4,25.9-32.7,39.6-52.1,46.2c-19.4,6.6-38.8,6.2-52.6,3.7
		c-7-1.3-12.6-3.1-15.7-4.7c-4-2.1-7.8-3.2-11.3-3.9c-7.4-1.3-13.1-0.1-15.8,0.8c2.6-4.3,6-6.3,9.3-7.2c3.6-1,7-0.6,8.3-0.3
		c0.4,0.1,0.6,0.1,0.6,0.1c0.3,0.1,0.6-0.1,0.8-0.4c0.1-0.3,0-0.6-0.2-0.8c-22.7-14.8-25.1-42.3-25.2-50.2
		c4.5,6.6,10.9,9.3,10.9,9.3c0.3,0.1,0.6,0,0.8-0.2c0.2-0.2,0.2-0.5,0.1-0.8c-5.9-9.7-6.6-20.1-4.8-29.8
		c3.2-17.6,14.5-32.6,17.3-36.1c0.4-0.5,0.6-0.7,0.6-0.7l0.1-0.1c0,0,3.4-5.5,7.4-13.7c0,0,0,0,0,0c3.6-5.1,7.4-12.3,10.9-19.3
		c3.6-7,6.9-13.9,9.8-18c1.5-2.1,3-2.7,4.8-2.4c2.8,0.5,6.3,3.6,9.4,7.5c3.1,3.8,5.8,8.2,7.5,11.2c1.1,1.9,1.8,3.2,1.8,3.2
		c0.1,0.3,0.5,0.4,0.8,0.3c0.2-0.1,0.4-0.3,0.4-0.5c0-0.1,0-0.1,0-0.2c0,0-0.2-1.7-0.6-4.5c-0.3-2.8-0.7-6.6-1.1-10.9
		c-0.6-8.6-1-18.9,0.3-25.9c0,0,0,0,0,0c0,0,0,0,0,0c0.5-2.8,1.3-5,2.3-6.3c1.4-1.9,3-2.3,4.7-2.1c2.2,0.4,4.7,2.2,6.9,4.3
		c2.2,2.1,4.2,4.6,5.3,6.2c0.3,0.4,0.5,0.7,0.7,1c0,0,0,0,0,0c1,2.3,1.7,3.9,1.7,3.9c0.1,0.3,0.5,0.5,0.9,0.3
		c0.3-0.1,0.5-0.5,0.3-0.9c0,0-0.5-1.1-1.2-2.7c0,0,0-0.1,0-0.1c0,0,0,0,0-0.1c0,0,0.2-1.8,0.5-4.6c0.3-2.8,0.9-6.5,1.5-10.2
		c0-0.1,0-0.1,0-0.2c1-5.7,2.5-11.5,4.1-14.2c0.5-0.9,1.1-1.4,1.5-1.6l0.3,0c0.3,0,0.9,0.4,1.6,1c0.7,0.6,1.4,1.5,2.3,2.6
		c1.6,2.2,3.5,5.1,5.3,8.4c3.5,6.1,7,13.2,9.4,18.3c0,0,0,0,0,0c2.2,5.9,3.9,10.1,3.9,10.1c0.1,0.3,0.5,0.5,0.8,0.4
		c0.3-0.1,0.5-0.5,0.4-0.8c0,0-0.4-0.9-1-2.5c0.2-0.1,0.3-0.3,0.3-0.4c0-0.1,0-0.2,0-0.3c0,0-0.2-0.7-0.6-1.8
		c-0.4-1.1-0.9-2.7-1.4-4.6c-1.1-3.7-2.4-8.4-3.1-12.5c-0.5-2.7-0.6-5.1-0.3-6.7c0,0,0,0,0,0c0,0,0,0,0,0c0.2-0.9,0.5-1.5,0.8-1.7
		c0.3-0.2,0.5-0.2,0.8-0.2c0.4,0.1,1,0.5,1.7,1.2c0.6,0.7,1.2,1.7,1.8,2.8c1.2,2.2,2.3,4.9,3,7.1c0,0,0,0.1,0,0.1c0,0,0,0,0,0
		c0.4,2.1,0.8,4.1,1.4,6.1C1099.1,526.1,1106.9,542.6,1104.4,556.7z M902.6,663.7c-1.7-20.4,2.8-33.9,4-36.9
		c0.2-0.4,0.3-0.6,0.3-0.6c0.1-0.3,0-0.6-0.2-0.7c-0.2-0.2-0.6-0.1-0.8,0c-3.3,3.1-5,7.7-5.7,10c-0.3-0.5-0.7-1.2-1.1-2.1
		c-1-2.2-2-5.4-2.4-9.8c-0.4-4.9,0-11.2,2.3-19c1.7-5.8,4.6-11.7,7.9-17.3c18,5.7,41.7,8.1,69.5,1.4c-4.3,6.9-9.3,16.8-11.3,27.7
		c-1.7,9.2-1.1,19.3,4,28.8c-0.7-0.4-1.4-0.9-2.3-1.5c-2.4-1.7-5.3-4.4-7.4-8.2c-0.1-0.3-0.4-0.4-0.7-0.3c-0.3,0.1-0.5,0.3-0.5,0.6
		c0,0-0.4,8.9,2.7,20.1c1.6,6,4.3,12.6,8.5,18.9C948.3,670.8,926.1,667.1,902.6,663.7z M999.7,506.3c1,0,2.5,0,4.2,0.3
		c5.3,1,13.1,4.4,18.5,15.9c0.1,0.1,0.2,0.2,0.3,0.3c0,0,0.1,0,0.1,0c0,0,0.1,0,0.1,0c0.1,0,0.2,0,0.3,0c0.1,0,0.2-0.1,0.3-0.3
		c0,0,0-0.1,0.1-0.1c0,0,0.1-0.1,0.1-0.1c0-0.1,0-0.1,0-0.2c0,0-0.2-1.2-0.5-3.2c-0.3-2.1-0.6-5-0.8-8.5c-0.3-6.1-0.4-14.1,0.7-22.1
		c0.1-0.4,0.1-0.8,0.2-1.2c0.1-0.8,0.2-1.5,0.4-2.3c0.1-0.8,0.3-1.6,0.5-2.4c0.1-0.3,0.1-0.5,0.2-0.8c0.1-0.5,0.2-1.1,0.4-1.6
		c0.1-0.3,0.2-0.6,0.2-0.9c0.1-0.5,0.2-0.9,0.4-1.4c0.1-0.3,0.2-0.6,0.3-1c0.1-0.4,0.3-0.9,0.4-1.3c0.1-0.3,0.2-0.6,0.3-1
		c0.2-0.4,0.3-0.9,0.5-1.3c0.1-0.3,0.3-0.6,0.4-1c0.2-0.4,0.3-0.8,0.5-1.2c0.1-0.3,0.3-0.6,0.4-0.9c0.2-0.4,0.4-0.8,0.6-1.2
		c0.2-0.3,0.3-0.6,0.5-0.9c0.2-0.4,0.4-0.8,0.6-1.1c0.2-0.3,0.4-0.6,0.6-0.9c0.2-0.4,0.4-0.7,0.7-1.1c0.2-0.3,0.4-0.6,0.6-0.9
		c0.2-0.3,0.5-0.7,0.7-1c0.2-0.3,0.4-0.5,0.7-0.8c0.3-0.3,0.5-0.6,0.8-0.9c0.2-0.3,0.5-0.5,0.7-0.8c0.3-0.3,0.6-0.6,0.9-0.9
		c0.3-0.2,0.5-0.5,0.8-0.7c0.3-0.3,0.6-0.5,0.9-0.8c0.3-0.2,0.6-0.4,0.9-0.7c0.3-0.2,0.7-0.5,1-0.7c0.3-0.2,0.6-0.4,0.9-0.6
		c0.3-0.2,0.7-0.4,1.1-0.6c0.3-0.2,0.7-0.4,1-0.5c0.2-0.1,0.4-0.2,0.7-0.3c0,0,0,0,0,0.1c0,0.2,0,0.5,0,0.8c0,0.1,0,0.2,0,0.4
		c0,0.2,0,0.5,0,0.7c0,0.2,0,0.3,0,0.5c0,0.4,0,0.8,0,1.2c0,0.2,0,0.4,0,0.6c0,0.3,0,0.7,0,1c0,0.2,0,0.4,0,0.6c0,0.5,0,1,0.1,1.6
		c0,0.2,0,0.4,0,0.6c0,0.5,0,1,0.1,1.6c0,0.1,0,0.2,0,0.4c0,0.6,0.1,1.3,0.1,2c0,0.2,0,0.4,0,0.5c0.1,0.7,0.1,1.4,0.2,2.2
		c0.8,8.7,2.4,18.9,6.1,25.5c0.1,0.2,0.2,0.2,0.4,0.3c0,0,0,0,0,0c0,0,0,0,0,0c0,0.1,0.1,0.2,0.1,0.3c0.2,0.6,0.4,1.2,0.6,1.8
		c0,0.1,0.1,0.3,0.1,0.4c0.3,0.7,0.5,1.4,0.8,2.2c0,0.1,0.1,0.2,0.1,0.4c0.3,0.7,0.5,1.3,0.8,2c0.1,0.1,0.1,0.3,0.2,0.4
		c0.3,0.7,0.5,1.3,0.8,2c0,0.1,0.1,0.2,0.1,0.2c-0.3-0.4-0.6-0.8-1-1.1c-2.7-3-6.2-6.3-9.8-6.9c-2.1-0.4-4.4,0.3-6,2.6
		c-1.2,1.6-2,4-2.5,6.9c-2,11.4-0.1,30.6,0.9,38.3c-2.2-3.9-6.5-10.7-11-15.2c-2.2-2.2-4.5-3.9-6.9-4.3c-2.2-0.4-4.4,0.5-6.1,2.9
		c-2.9,4.3-6.3,11.2-9.9,18.2c-1.9,3.7-3.8,7.4-5.7,10.8c0,0,0,0,0,0c0.6-1.4,1.2-2.8,1.7-4.3c0,0,0-0.1,0-0.1
		c0.5-1.4,1-2.8,1.5-4.3c0-0.1,0.1-0.1,0.1-0.2c0,0,0,0,0,0c0,0,0,0,0,0c0-0.1,0.1-0.2,0.1-0.3c0.3-1,0.6-2,1-3c0-0.1,0-0.2,0.1-0.2
		c0.3-0.9,0.5-1.9,0.8-2.8c0.1-0.2,0.1-0.4,0.2-0.6c0.3-1,0.5-1.9,0.7-2.9c0.1-0.2,0.1-0.4,0.1-0.7c0.2-1,0.4-2,0.6-3.1c0,0,0,0,0,0
		c0,0,0,0,0,0c0.2-1.3,0.4-2.5,0.6-3.8c0-0.4,0.1-0.7,0.1-1.1c0.1-0.9,0.2-1.8,0.2-2.6c0-0.4,0-0.9,0-1.3c0-0.8,0-1.6,0-2.4
		c0-0.5,0-0.9-0.1-1.4c0-0.7-0.1-1.5-0.2-2.2c0-0.5-0.1-0.9-0.2-1.4c-0.1-0.7-0.2-1.4-0.4-2.1c-0.1-0.5-0.2-0.9-0.3-1.4
		c-0.2-0.7-0.4-1.3-0.6-2c-0.1-0.4-0.3-0.9-0.4-1.3c-0.3-0.7-0.6-1.3-0.9-1.9c-0.2-0.4-0.3-0.8-0.5-1.1c0-0.1-0.1-0.2-0.1-0.3
		c-0.3-0.5-0.6-1.1-1-1.6C999.4,506.3,999.5,506.3,999.7,506.3z M1051.2,485C1051.2,485,1051.2,485,1051.2,485
		c0.1-1.2,0.2-2.3,0.3-3.5c0,0,0,0,0-0.1c0.1-1.2,0.3-2.5,0.5-3.8c0,0,0,0,0,0c0.2-1.3,0.4-2.7,0.6-4c0,0,0,0,0,0
		c0.1-0.6,0.3-1.3,0.4-1.9c0.1-0.5,0.2-1,0.3-1.5c0.2-0.7,0.3-1.4,0.5-2.1c0.1-0.4,0.2-0.9,0.3-1.3c0.2-0.7,0.4-1.5,0.6-2.2
		c0.1-0.4,0.2-0.8,0.3-1.1c0.2-0.7,0.5-1.4,0.7-2.1c0.1-0.4,0.2-0.7,0.4-1.1c0.3-0.7,0.6-1.4,0.9-2.1c0.1-0.3,0.3-0.6,0.4-0.9
		c0.4-0.7,0.8-1.4,1.2-2.1c0.1-0.2,0.2-0.4,0.3-0.6c1-1.7,2.2-3.3,3.5-4.5c0,0,0.1-0.1,0.1-0.1c0.1-0.1,0.2-0.2,0.4-0.3
		c0.3-0.2,0.8-0.6,1.2-0.9c0.2-0.2,0.5-0.3,0.8-0.4c0,0,0.1,0,0.1-0.1c0.2-0.1,0.4-0.2,0.6-0.3c0.1,0,0.2,0,0.2-0.1
		c0.2,0,0.3-0.1,0.4-0.1c0.1,0,0.2,0,0.2,0c0.1,0,0.2,0,0.3,0l0.4,0.2c0.1,0.1,0.2,0.3,0.3,0.6c0.4,1.6,0.9,6.9,1.9,13.2
		c1,6.3,2.5,13.7,5.1,19.9c0.1,0.1,0.2,0.3,0.3,0.3c0,0.1,0,0.2,0.1,0.2c0.1,0.4,0.2,0.9,0.3,1.3c0,0.1,0.1,0.2,0.1,0.3
		c0.2,0.6,0.3,1.1,0.5,1.7c0,0.1,0.1,0.2,0.1,0.3c0.1,0.5,0.3,1,0.4,1.5c0.1,0.2,0.1,0.4,0.2,0.6c0.1,0.5,0.3,1,0.5,1.5
		c0,0.1,0.1,0.3,0.1,0.4c0.2,0.6,0.4,1.3,0.6,1.9c0.1,0.2,0.1,0.3,0.2,0.5c0.2,0.5,0.3,1,0.5,1.5c0.1,0.2,0.1,0.4,0.2,0.6
		c0.2,0.5,0.4,1.1,0.6,1.6c0,0.1,0.1,0.2,0.1,0.4c0.2,0.6,0.4,1.3,0.7,1.9c0,0.1,0,0.1,0.1,0.2c-3.8-7.3-8.1-14.9-11.4-18.5
		c-1.1-1.1-2-1.9-3-2.1c-0.3-0.1-0.6,0-0.9,0c-0.9,0.3-1.6,1.1-2.2,2.1c-0.6,1-1.2,2.4-1.7,3.9c-1,3.1-1.9,7-2.6,10.9
		c-0.9,5.1-1.5,10-1.9,12.8c-0.1-0.2-0.2-0.4-0.2-0.6c-0.2-0.5-0.4-1-0.7-1.6c-0.4-1-0.8-2-1.3-3.1c0,0,0,0,0,0
		c-0.4-1-0.9-2.1-1.3-3.2c0,0,0,0,0,0c-0.4-1-0.8-2-1.2-3c0,0,0-0.1,0-0.1c-0.3-0.9-0.7-1.8-0.9-2.6c0-0.1,0-0.1-0.1-0.2
		c0-0.2,0-0.3,0-0.6c0-1.1,0.1-2.7,0.2-4.6C1051,487.2,1051.1,486.1,1051.2,485z M1076.6,467.1c0-0.2,0.1-0.3,0.1-0.5
		c0.2-0.6,0.3-1.1,0.5-1.7c0.1-0.2,0.1-0.3,0.2-0.5c0.2-0.6,0.4-1.1,0.6-1.7c0.1-0.2,0.2-0.3,0.2-0.5c0.2-0.5,0.5-1.1,0.8-1.6
		c0.1-0.2,0.2-0.4,0.3-0.5c0.3-0.5,0.6-1,0.9-1.4c0.1-0.2,0.3-0.4,0.5-0.6c0.3-0.4,0.7-0.9,1-1.3c0.2-0.2,0.5-0.4,0.7-0.7
		c0.4-0.3,0.7-0.7,1.1-1c0.3-0.2,0.6-0.4,1-0.7c0.4-0.3,0.7-0.5,1.1-0.8c0,0,0.1,0,0.1,0c0.1,0,0.2-0.1,0.4-0.1
		c0.4-0.1,1-0.3,1.7-0.4c0.3-0.1,0.7-0.1,1-0.2c0.1,0,0.2,0,0.3,0c0.2,0,0.5-0.1,0.7-0.1c0.1,0,0.3,0,0.4,0c0.2,0,0.4,0,0.6,0
		c0.1,0,0.3,0,0.4,0c0.2,0,0.4,0,0.6,0.1c0.3,0.1,0.6,0.2,0.8,0.3c0.1,0,0.1,0.1,0.1,0.1c0.1,0.1,0.3,0.2,0.3,0.3l0,0l0,0l0,0l0,0
		l0,0.1l0,0.2c0,0.1,0,0.1,0,0.2c0,0.1,0,0.2,0,0.3c0,0,0,0.1,0,0.1c0,0.1,0,0.3,0,0.5c0,0.3-0.1,0.7-0.1,1.2c0,0.2,0,0.3-0.1,0.5
		c0,0.4-0.1,0.9-0.2,1.4c-0.1,0.4-0.1,0.8-0.2,1.2c-0.2,1.2-0.4,2.6-0.6,4c0,0,0,0,0,0c-0.1,0.8-0.2,1.6-0.4,2.5
		c-0.1,0.4-0.1,0.8-0.2,1.2c-0.1,0.7-0.2,1.4-0.3,2.1c0,0.1,0,0.2,0,0.3c-0.1,0.5-0.1,1.1-0.2,1.7c-0.1,0.4-0.1,0.8-0.2,1.2
		c0,0.4-0.1,0.7-0.1,1.1c-0.1,0.7-0.2,1.4-0.2,2.2c0,0.4-0.1,0.9-0.1,1.3c0,0.3,0,0.6-0.1,0.9c0,0.5-0.1,1-0.1,1.5
		c0,0.5-0.1,1-0.1,1.5c0,0.5,0,0.9-0.1,1.4c0,0.4,0,0.8,0,1.2c0,0.2,0,0.3,0,0.5c0,0.5,0,1,0,1.5c0,0.9,0,1.7,0,2.6
		c0,0.2,0,0.4,0,0.6c0,0.4,0,0.8,0,1.1c0,0.8,0.1,1.5,0.1,2.3c0,0.5,0.1,1,0.1,1.6c0,0,0,0,0,0c0,0.1,0,0.3,0,0.4
		c-1-2.1-2.1-4.1-3.2-5.5c-0.7-0.8-1.5-1.4-2.4-1.6c-0.6-0.1-1.2,0-1.8,0.4c-0.8,0.5-1.2,1.5-1.4,2.6c-0.3,1.8-0.1,4.4,0.3,7.1
		c0.4,2.5,1,5.1,1.7,7.7c-0.1-0.2-0.2-0.5-0.3-0.7c-0.6-1.5-1.1-3.1-1.7-4.8c-0.1-0.4-0.3-0.7-0.4-1.1l-1.7-5
		c-0.1-0.5-0.3-0.9-0.4-1.3c-0.2-0.6-0.4-1.1-0.6-1.7c-0.2-0.5-0.3-1.1-0.5-1.6c-0.2-0.6-0.4-1.3-0.6-1.9c-0.1-0.4-0.3-0.9-0.4-1.3
		c-0.2-0.7-0.4-1.3-0.5-2c-0.1-0.3-0.2-0.7-0.3-1c-0.2-0.9-0.5-1.8-0.6-2.7c0-0.1,0-0.1-0.1-0.2c0-0.1,0-0.2,0-0.3
		c0-0.1,0-0.2,0-0.3c0-0.4-0.1-0.8-0.1-1.3c-0.1-2.2,0-5.2,0.6-8.4C1076.3,468.5,1076.4,467.8,1076.6,467.1z M1094.5,466.9
		c0.9,2.2,2,3.9,3.3,4.9c1.3,1.1,2.9,1.5,4.6,1.4c1.8-0.2,3.2-0.5,4.4-1c1.5-0.6,2.5-1.4,3.1-2.2c-0.1,0.8-0.3,1.7-0.6,2.7
		c-0.9,2.6-2.9,5.5-7.2,7.3c-2.3,1-5.3,1.6-9.2,1.7c-0.3,0-0.5,0.2-0.6,0.4c-0.1,0.2,0,0.5,0.2,0.7c0,0,0.1,0.1,0.3,0.3
		c1.6,1.3,8.3,7,11.2,13.9c1,2.3,1.5,4.8,1.3,7.2c-1-1.2-2.6-3.1-4.5-5.1c-2.7-2.8-6.1-5.6-9.3-6.6c0-0.1,0-0.1,0-0.2
		c0-0.4-0.1-0.7-0.1-1.1c0-0.1,0-0.2,0-0.4c0-0.4,0-0.8,0-1.3c0-0.4,0-0.8,0-1.2c0-0.1,0-0.2,0-0.3c0-0.4,0-0.9,0-1.3
		c0-0.4,0-0.8,0-1.2c0,0,0-0.1,0-0.1c0-0.5,0-1,0-1.5c0-0.4,0-0.8,0-1.2c0-0.5,0-1.1,0.1-1.6c0-0.4,0-0.7,0.1-1.1
		c0-0.6,0.1-1.1,0.1-1.7c0-0.3,0.1-0.6,0.1-0.9c0-0.6,0.1-1.2,0.2-1.8c0-0.2,0-0.4,0.1-0.7c0.1-0.7,0.1-1.3,0.2-2c0,0,0-0.1,0-0.1
		c0.4-3.1,0.8-6.1,1.1-8.7C1093.8,465.2,1094.1,466.1,1094.5,466.9z M943,547.3c0,4.1-2,7.1-3.1,8.5c-7.4-4.6-14.8-7.1-18.1-7.1
		c-4.7,0-8.9,5.7-14.6,13.7c0.2-5.7,1.8-21.1,13.4-24.7c0.4-0.1,1.3-0.3,2.7-0.3c4.6,0,12.1,1.6,16.4,4.1c0.6,0.4,1.2,1.1,1.7,1.8
		l0.4,0.7C942.5,545.4,943,546.7,943,547.3z M942.9,543.3c-0.1-0.2-0.2-0.4-0.4-0.6l-5.5-8.9c-4.7-7.4-9.6-14.1-17.1-14.1
		c-2,0-4,0.5-6.3,1.4c-9.3,3.9-15.2,22.3-15.3,22.5l-3.5,11.1l-4.6-10.7c-1.1-2.5-6.6-23.7,1.4-38.5c3.9-7.2,10.2-11.7,18.8-13.3
		c1-0.2,1.9-0.3,2.8-0.4c0.1,0.3,0.4,0.5,0.7,0.4c0.3,0,0.5-0.3,0.5-0.6c1.1-0.1,2.1-0.2,3.1-0.2c7,0,12.9,2.2,17.6,6.7
		c9.9,9.4,10.7,25.8,9.7,34l-1.6,12L942.9,543.3z M825.8,411.2c-3.7-8.9-5.9-21.1-2.5-36.9c0.5,2.4,1.5,6.1,3.1,10.1
		c2.4,5.7,6.3,12,12.6,15.4c0.3,0.1,0.6,0.1,0.8-0.1c0.2-0.2,0.2-0.5,0-0.8c0,0-0.2-0.3-0.7-0.9c-1.3-1.8-4.2-6.2-6.8-12.5
		c-5.1-12.2-9.3-31.7,0.5-54c0.2,4.6,1.2,14.6,5.5,24.7c4.6,11.1,13.2,22.4,28.9,27.2c-13.6,11.5-18.1,30.7-18.1,30.7
		c-0.1,0.3,0.1,0.7,0.4,0.7c0.3,0.1,0.7-0.1,0.7-0.4c0,0,0.1-0.3,0.2-0.9c1.1-3.9,6.2-20.1,18.2-29.8c0,0,0.1,0,0.1,0
		c0.4-0.2,0.9-0.5,1.6-1.1c4.9-3.9,20.3-17.7,43.8-27.6c18.7-7.9,42.6-13.1,70.3-8.8c-3.8,2.4-9.5,5-14.2,7c-4.5,1.9-8,3.2-8,3.2
		c-0.3,0.1-0.5,0.5-0.4,0.8c0.1,0.3,0.5,0.5,0.8,0.4l0,0c0,0,3.6-1.3,8.1-3.2c5.3-2.2,11.9-5.2,15.7-8c0.2-0.1,13-7.9,25.5-19.3
		c12-11.1,23.6-25.5,22.8-39.8c0.2,0.4,0.4,0.9,0.6,1.3c3.5,8.4,3.5,16.9,1,25.2c-7.4,25.1-36.7,48.9-56.8,61
		c-23.6,14.4-39.5,43.1-43.5,50.8c0.1-2.3,0.7-5.1,1.4-7.4c0.5-1.6,1-3,1.3-4c0.4-1,0.6-1.6,0.6-1.6c0.1-0.3,0-0.6-0.2-0.7
		c-0.2-0.2-0.6-0.1-0.8,0.1c-14.3,15.5-18.4,40.7-19.4,49.1c-0.4-1.9-0.8-4.3-1.1-6.5c-0.4-3.4-0.7-6.3-0.7-6.3
		c0-0.3-0.2-0.5-0.5-0.5l-0.7,0.3c-1.1,2-1.8,5.7-2.2,10.1c-0.9,9.5-0.8,22.4-0.6,29.1c-0.4-1-0.7-1.9-1.2-3
		c-4.5-10.8-12.9-25-12.9-25c-0.2-0.3-0.5-0.4-0.7-0.3c-0.3,0.1-0.4,0.4-0.4,0.7c0.5,2.4,0.9,5.3,1.1,7.7c0,0.3,0.1,0.5,0.1,0.8
		c-9.5-19.5-28.7-29.4-28.8-29.4c-0.3-0.1-0.6,0-0.8,0.2c-0.2,0.3-0.1,0.6,0.2,0.8c0.2,0.1,0.4,0.3,0.6,0.4c0.6,0.6,1.3,1.4,1.9,2.4
		c0.8,1.4,1.6,3,2.2,4.5c0.4,1,0.8,1.9,1.1,2.7c-2.7-2.6-8.3-6.9-18.5-10.5c-7.6-2.7-12.1-5.2-14.8-7.1c-1.3-0.9-2.2-1.7-2.7-2.2
		c-0.3-0.3-0.4-0.5-0.6-0.6l-0.1-0.1l0,0l-0.1-0.1c0,0-0.1-0.1-0.3-0.3C836.9,427.7,830.3,421.9,825.8,411.2z M837.1,443.5
		c0.2-0.3,0.3-0.7,0.5-1c0.2-0.5,0.5-0.9,0.7-1.4c0.2-0.3,0.3-0.7,0.5-1c0.3-0.5,0.6-1,0.9-1.5c0.2-0.3,0.3-0.5,0.5-0.8
		c0.5-0.8,1-1.5,1.5-2.3c0.1-0.2,0.1-0.5,0-0.7c-0.1-0.2-0.4-0.3-0.6-0.3c0,0-0.5,0.1-1.3,0.4c0,0,0,0,0,0c0,0,0,0,0,0
		c-0.3,0.1-0.6,0.3-0.9,0.5c-0.1,0-0.1,0.1-0.2,0.1c-0.4,0.2-0.7,0.4-1.1,0.7c-0.1,0-0.1,0.1-0.2,0.1c-0.4,0.3-0.7,0.6-1.1,0.9
		c-0.1,0.1-0.1,0.1-0.2,0.2c-0.4,0.4-0.8,0.8-1.2,1.3c0,0-0.1,0.1-0.1,0.1c0,0,0-0.1,0-0.1c0-0.3,0.1-0.6,0.1-0.9
		c0-0.2,0.1-0.4,0.1-0.6c0.1-0.5,0.2-1.1,0.4-1.7c0.1-0.5,0.3-1.1,0.5-1.6c0.1-0.2,0.1-0.3,0.2-0.4c0.2-0.4,0.3-0.7,0.5-1
		c0.1-0.2,0.2-0.3,0.3-0.5c0.2-0.3,0.4-0.5,0.6-0.8c0.1-0.2,0.3-0.3,0.5-0.4c0.2-0.1,0.3-0.3,0.5-0.4c0,0,0,0,0,0c0,0,0,0,0.1,0.1
		c0,0,0,0,0,0c0,0,0,0,0,0c0.1,0.1,0.1,0.1,0.2,0.2c0,0,0.1,0.1,0.1,0.1c0,0,0,0,0.1,0.1c0.1,0.1,0.2,0.2,0.3,0.2
		c0.1,0,0.1,0.1,0.2,0.2c0,0,0,0,0.1,0.1c0.1,0.1,0.2,0.2,0.3,0.2c0.1,0.1,0.1,0.1,0.2,0.2c0.1,0.1,0.3,0.2,0.4,0.4
		c0.1,0.1,0.2,0.1,0.2,0.2c0.1,0,0.1,0.1,0.2,0.1c0.1,0,0.1,0.1,0.2,0.1c0.1,0.1,0.1,0.1,0.2,0.2c0.1,0.1,0.1,0.1,0.2,0.2
		c0.1,0.1,0.2,0.1,0.3,0.2c0.1,0.1,0.2,0.1,0.3,0.2c0.2,0.2,0.5,0.3,0.7,0.5c0.1,0.1,0.3,0.2,0.4,0.2c0.1,0.1,0.2,0.1,0.3,0.2
		c0.1,0.1,0.2,0.1,0.4,0.2c0.1,0,0.1,0.1,0.2,0.1c0.1,0.1,0.3,0.2,0.4,0.2c0.1,0.1,0.2,0.1,0.3,0.2c0.2,0.1,0.3,0.2,0.5,0.3
		c0.3,0.2,0.6,0.3,0.9,0.5c0.2,0.1,0.4,0.2,0.6,0.3c0.2,0.1,0.5,0.2,0.7,0.4c0.1,0.1,0.2,0.1,0.4,0.2c0.2,0.1,0.4,0.2,0.6,0.3
		c0.3,0.1,0.6,0.3,0.8,0.4c0.2,0.1,0.3,0.2,0.5,0.2c0.2,0.1,0.3,0.2,0.5,0.2c0.3,0.1,0.7,0.3,1,0.5c0.2,0.1,0.4,0.2,0.6,0.3
		c0.1,0.1,0.3,0.1,0.4,0.2c0.4,0.2,0.9,0.4,1.4,0.5c0.2,0.1,0.4,0.2,0.7,0.3c0.1,0,0.1,0.1,0.2,0.1c0.8,0.3,1.6,0.6,2.4,0.9
		c7.5,2.7,12.5,5.8,15.6,8.2c1.6,1.2,2.6,2.2,3.3,3c0.3,0.4,0.6,0.7,0.7,0.8l0.2,0.2l0,0.1c0.1,0.1,0.2,0.2,0.3,0.2c0,0,0.1,0,0.1,0
		c0.1,0,0.2,0,0.3,0c0,0,0,0,0,0c0.3-0.1,0.4-0.4,0.3-0.7l0,0c0,0,0,0,0,0c0,0,0-0.1-0.1-0.2c0-0.2-0.1-0.4-0.2-0.7c0,0,0-0.1,0-0.1
		c0-0.1-0.1-0.3-0.2-0.5c0-0.1-0.1-0.2-0.1-0.2c-0.1-0.2-0.1-0.3-0.2-0.5c0-0.1-0.1-0.2-0.1-0.3c0-0.1-0.1-0.2-0.1-0.3
		c0-0.1-0.1-0.2-0.1-0.2c0-0.1-0.1-0.3-0.1-0.4c-0.1-0.2-0.2-0.4-0.3-0.7c0-0.1-0.1-0.2-0.1-0.3c-0.1-0.3-0.3-0.7-0.4-1.1
		c-0.7-1.6-1.4-3.3-2.3-4.7c0,0,0,0,0,0c-0.1-0.1-0.1-0.2-0.2-0.3c0.3,0.2,0.6,0.4,0.8,0.5c0.1,0.1,0.2,0.1,0.3,0.2
		c0.5,0.3,1,0.7,1.5,1c0.1,0.1,0.2,0.2,0.4,0.3c0.4,0.3,0.9,0.6,1.3,0.9c0.2,0.1,0.4,0.3,0.6,0.5c0.4,0.3,0.8,0.6,1.2,0.9
		c0.2,0.2,0.5,0.4,0.7,0.6c0.4,0.3,0.8,0.6,1.2,1c0.3,0.2,0.5,0.4,0.8,0.7c0.4,0.3,0.8,0.7,1.2,1.1c0.3,0.2,0.5,0.5,0.8,0.7
		c0.5,0.4,0.9,0.9,1.4,1.3c0.2,0.2,0.4,0.4,0.6,0.6c0.7,0.7,1.3,1.4,2,2.1c0.1,0.1,0.2,0.2,0.3,0.3c0.6,0.6,1.1,1.3,1.7,1.9
		c0.2,0.3,0.4,0.5,0.7,0.8c0.4,0.5,0.9,1.1,1.3,1.6c0.2,0.3,0.5,0.7,0.7,1c0.4,0.5,0.8,1.1,1.2,1.6c0.2,0.4,0.5,0.7,0.7,1.1
		c0.4,0.6,0.7,1.1,1.1,1.7c0.2,0.4,0.4,0.7,0.7,1.1c0.4,0.7,0.7,1.3,1.1,2c0.2,0.3,0.4,0.6,0.5,1c0.5,1,1,2.1,1.4,3.1l0.1,0.3
		c0.1,0.1,0.1,0.2,0.3,0.3c0,0,0.1,0,0.1,0c0.1,0,0.1,0.1,0.2,0.1l0,0c0,0,0,0,0,0c0,0,0,0,0,0l0,0c0,0,0.1,0,0.1,0c0,0,0.1,0,0.1,0
		c0.1,0,0.1-0.1,0.2-0.1c0,0,0.1,0,0.1-0.1c0.1-0.1,0.1-0.2,0.1-0.4c0,0,0,0,0,0c0,0,0-0.6-0.1-1.5c0,0,0-0.1,0-0.1
		c0-0.3,0-0.6-0.1-1c0-0.1,0-0.1,0-0.2c0-0.3-0.1-0.7-0.1-1c0-0.1,0-0.1,0-0.2c0-0.4-0.1-0.8-0.1-1.3c0-0.1,0-0.2,0-0.3
		c0-0.4-0.1-0.8-0.1-1.2c0-0.1,0-0.1,0-0.2c-0.1-0.4-0.1-0.9-0.2-1.4c0-0.1,0-0.1,0-0.2c0.7,1.2,1.5,2.6,2.4,4.3
		c0.1,0.2,0.3,0.5,0.4,0.7c0.1,0.2,0.2,0.4,0.3,0.6c0.2,0.3,0.3,0.6,0.5,0.9c0.1,0.2,0.2,0.4,0.3,0.6c0.2,0.3,0.3,0.6,0.5,0.9
		c0.1,0.2,0.2,0.4,0.3,0.6c0.2,0.3,0.4,0.7,0.6,1c0.1,0.2,0.2,0.3,0.3,0.5c0.2,0.4,0.4,0.8,0.6,1.1c1.8,3.5,3.6,7.2,5,10.5
		c0.9,2.1,1.6,4.1,2.1,5.8c-0.9,0.1-1.8,0.2-2.7,0.4c-9,1.7-15.7,6.4-19.8,14c-8.2,15.3-2.6,37.1-1.5,39.7l6,14.1l4.6-14.6
		c1.4-4.4,7.1-18.5,14.5-21.6c2.1-0.9,4-1.3,5.7-1.3c6.5,0,10.9,5.6,15.9,13.5l3.3,5.3c-4.5-2.3-11.4-3.7-15.9-3.7
		c-1.3,0-2.3,0.1-3.1,0.3c-13,4-14.3,21.4-14.4,26.7l-0.1,3.6l2.1-2.9c5.5-7.7,9.9-13.8,14-13.8c3.2,0,10.6,2.6,17.6,7l0.9,0.6
		l0.6-0.9c0.2-0.2,3.5-3.9,3.5-9.5c0-0.1,0-0.3,0-0.4l1.9-14.7c1.1-8.4,0.2-25.3-10.1-35.1c-4.9-4.7-11.1-7-18.5-7
		c-1,0-2.1,0.1-3.1,0.2c0-0.5,0-1.1-0.1-1.8c0-0.3,0-0.6,0-0.9c0-0.1,0-0.1,0-0.2c0-0.5,0-1,0-1.5c-0.1-5.2-0.2-13.2,0.2-20.6
		c0.2-3.7,0.4-7.2,0.9-10.2c0.1-0.8,0.2-1.5,0.4-2.2c0-0.2,0.1-0.4,0.1-0.6c0.1-0.4,0.2-0.9,0.3-1.3c0,0,0-0.1,0-0.1c0,0,0,0,0,0.1
		c0.1,0.5,0.1,1,0.2,1.5c0,0.1,0,0.2,0,0.3c0.1,0.6,0.1,1.2,0.2,1.8c0.1,0.4,0.1,0.8,0.2,1.2c0,0.2,0.1,0.4,0.1,0.5
		c0,0.2,0.1,0.5,0.1,0.7c0,0.2,0.1,0.4,0.1,0.6c0,0.2,0.1,0.4,0.1,0.7c0,0.2,0.1,0.4,0.1,0.6c0,0.2,0.1,0.4,0.1,0.6
		c0,0.2,0.1,0.4,0.1,0.5c0,0.2,0.1,0.4,0.1,0.6c0,0.2,0.1,0.3,0.1,0.5c0,0.2,0.1,0.4,0.1,0.6c0,0.2,0.1,0.3,0.1,0.4
		c0,0.2,0.1,0.4,0.1,0.5c0,0.1,0.1,0.3,0.1,0.4c0,0,0,0.1,0,0.1c0.1,0.2,0.1,0.4,0.2,0.6l0.2,0.5l0,0l0,0c0.1,0.2,0.4,0.4,0.7,0.3
		c0,0,0.1,0,0.1,0c0.1,0,0.1-0.1,0.1-0.1c0,0,0.1,0,0.1-0.1c0.1-0.1,0.1-0.2,0.1-0.3c0,0,0-0.5,0.1-1.4c0-0.4,0.1-0.9,0.2-1.4
		c0-0.1,0-0.3,0.1-0.5c0.1-0.4,0.1-0.9,0.2-1.4c0-0.2,0.1-0.5,0.1-0.8c0.1-0.5,0.1-0.9,0.2-1.5c0-0.3,0.1-0.6,0.2-0.9
		c0.1-0.5,0.2-1,0.3-1.6c0.1-0.4,0.1-0.8,0.2-1.2c0.1-0.5,0.2-1.1,0.3-1.7c0.1-0.4,0.2-0.9,0.3-1.3c0.1-0.6,0.2-1.1,0.4-1.7
		c0.1-0.5,0.2-1,0.3-1.5c0.1-0.6,0.3-1.2,0.5-1.8c0.1-0.5,0.3-1,0.4-1.6c0.2-0.6,0.3-1.2,0.5-1.9c0.2-0.5,0.3-1.1,0.5-1.6
		c0.2-0.6,0.4-1.3,0.6-1.9c0.2-0.6,0.4-1.1,0.6-1.7c0.2-0.6,0.5-1.3,0.7-1.9c0.2-0.6,0.4-1.1,0.7-1.7c0.3-0.6,0.5-1.3,0.8-1.9
		c0.2-0.6,0.5-1.1,0.7-1.7c0.3-0.6,0.6-1.3,0.9-1.9c0.3-0.6,0.5-1.1,0.8-1.7c0.3-0.6,0.7-1.3,1-1.9c0.3-0.5,0.6-1.1,0.9-1.6
		c0.4-0.6,0.8-1.2,1.2-1.9c0.3-0.5,0.7-1,1-1.6c0.4-0.6,0.9-1.2,1.3-1.8c0.4-0.5,0.7-1,1.1-1.4c0.1-0.1,0.1-0.2,0.2-0.2c0,0,0,0,0,0
		c-0.1,0.3-0.2,0.5-0.3,0.8c0,0.1-0.1,0.3-0.1,0.4c-0.1,0.4-0.3,0.8-0.4,1.3c-0.9,3.3-1.8,7.2-1.3,10.1c0,0,0,0.1,0,0.1
		c0,0.1,0.1,0.1,0.1,0.1c0,0,0,0.1,0.1,0.1c0.1,0.1,0.2,0.1,0.3,0.1c0.1,0,0.2,0,0.3,0c0,0,0,0,0,0c0.1-0.1,0.2-0.1,0.3-0.3
		c0,0,0.3-0.6,0.8-1.6c3.6-7.1,19.6-36.4,43.3-50.7c1.6-1,3.4-2.1,5.1-3.2c0.5-0.3,1.1-0.7,1.6-1.1c1.3-0.8,2.5-1.7,3.8-2.6
		c0.7-0.5,1.4-1,2-1.5c1.2-0.8,2.3-1.7,3.5-2.6c0.7-0.6,1.5-1.2,2.2-1.7c1.1-0.9,2.3-1.8,3.4-2.7c0.8-0.6,1.6-1.3,2.3-2
		c1.1-0.9,2.2-1.8,3.3-2.8c0.8-0.7,1.6-1.4,2.4-2.2c1-1,2.1-1.9,3.1-2.9c0.8-0.8,1.6-1.6,2.3-2.3c1-1,1.9-2,2.9-3
		c0.8-0.8,1.5-1.7,2.2-2.5c0.6-0.7,1.3-1.4,1.9-2.2c0.5-0.6,1-1.2,1.5-1.8c6.3-7.8,11.2-16.1,13.8-24.7c0.4-1.3,0.7-2.6,0.9-3.8
		c0.1-0.4,0.1-0.8,0.2-1.1c0.2-1,0.3-1.9,0.4-2.9c0-0.2,0.1-0.5,0.1-0.7c0-0.2,0-0.3,0-0.5c0.1-0.8,0.1-1.6,0.1-2.4
		c0-0.4,0-0.8,0-1.2c0-1-0.1-2-0.2-3.1c0-0.2,0-0.3,0-0.5c-0.1-1.2-0.3-2.4-0.6-3.6c-0.1-0.4-0.2-0.7-0.3-1.1
		c-0.2-0.8-0.4-1.7-0.7-2.5c0-0.1-0.1-0.3-0.1-0.4c2.7,3.5,6.3,8.8,9.1,15.6c3.5,8.3,5.8,18.7,3.7,30.2l0.3,0.6
		c0.2,0.1,0.5,0.1,0.7-0.1c0.1-0.1,4.5-4.1,4.5-14.2c0.3,0.6,0.6,1.2,0.9,2c2.8,6.7,6.5,20.5-1.7,34.9c-0.1,0.2-0.1,0.6,0.1,0.8
		c0.2,0.2,0.5,0.2,0.8,0c0,0,4.2-3,7.7-9.5c0.5,1.5,1.3,4.2,1.3,7.6c0,4.2-1.2,9.3-5.5,14.1c-0.2,0.2-0.2,0.5,0,0.8
		c0.2,0.2,0.5,0.3,0.8,0.2l0.2-0.1c0.2-0.1,0.4-0.2,0.7-0.3c1.6-0.7,5-1.8,8.7-1.7c3.4,0.1,7.1,1.4,10.1,5.1
		c-2.2,0.1-7,0.5-12.2,2.7c-0.3,0.1-0.7,0.3-1,0.4c0,0,0,0,0,0c-0.5-0.4-1-0.7-1.6-1.1c-0.6-0.5-1.3-0.9-1.9-1.4
		c-0.7-0.5-1.4-0.9-2.1-1.3c-0.6-0.4-1.3-0.8-1.9-1.2c-0.7-0.4-1.4-0.8-2.1-1.1c-0.6-0.3-1.2-0.7-1.8-1c-0.7-0.3-1.3-0.6-2-0.9
		c-0.6-0.3-1.2-0.5-1.8-0.8c-0.7-0.3-1.3-0.5-1.9-0.7c-0.6-0.2-1.2-0.4-1.7-0.6c-0.6-0.2-1.2-0.4-1.8-0.6c-0.5-0.2-1.1-0.3-1.6-0.5
		c-0.6-0.2-1.2-0.3-1.8-0.4c-0.5-0.1-1-0.3-1.5-0.4c-0.6-0.1-1.1-0.2-1.6-0.3c-0.5-0.1-1-0.2-1.4-0.2c-0.5-0.1-1-0.1-1.5-0.2
		c-0.4-0.1-0.9-0.1-1.3-0.2c-0.5,0-0.9-0.1-1.3-0.1c-0.4,0-0.8-0.1-1.2-0.1c-0.4,0-0.8,0-1.2,0c-0.3,0-0.7,0-1,0c-0.4,0-0.7,0-1,0
		c-0.3,0-0.6,0-0.9,0c-0.3,0-0.5,0-0.8,0c-0.2,0-0.5,0-0.7,0c-0.2,0-0.4,0-0.6,0.1c-0.2,0-0.4,0-0.6,0.1c-0.1,0-0.2,0-0.3,0
		c-0.4,0-0.6,0.1-0.6,0.1c0,0-0.1,0-0.1,0c-0.1,0-0.1,0.1-0.2,0.2c0,0-0.1,0-0.1,0.1c-0.1,0.1-0.1,0.3-0.1,0.4
		c0.1,0.3,0.4,0.5,0.7,0.5l0.2,0c2.3-0.3,21.6-2.7,41.6,13.4c0,0,0,0,0.1,0c2.6,2.5,11.3,11.3,17.1,25.1c2.8,6.6,4.9,14.4,5.3,23.2
		c0.4,8.8,1,16.1,1.8,22.2c-1.1,0-2.3,0.2-3.3,0.4c-1.4,0.3-2.4,0.6-2.5,0.6l-0.1,0.1c-4.1,2.4-6.7,5.9-8.3,9.6
		c0,0.1-0.1,0.1-0.1,0.2c-0.3,0.7-0.6,1.3-0.8,2c-0.1,0.3-0.1,0.5-0.2,0.8c-0.1,0.5-0.3,1-0.4,1.5c-0.1,0.3-0.1,0.6-0.2,0.9
		c-0.1,0.4-0.2,0.8-0.3,1.3c0,0,0,0,0,0c-0.1,0.6-0.2,1.3-0.3,1.9c0,0.1,0,0.2,0,0.3c-0.1,0.6-0.1,1.1-0.2,1.7c0,0.1,0,0.3,0,0.4
		c0,0.5-0.1,1.1-0.1,1.6c0,0.1,0,0.1,0,0.2c0,0.5,0,1,0,1.4c0,0,0,0.1,0,0.1c0,0,0-0.1,0-0.1c-0.1-0.3-0.2-0.6-0.2-0.9
		c-0.4-1.2-0.7-2.5-1-3.7c-0.1-0.5-0.2-1-0.4-1.5c-0.3-1.1-0.5-2.2-0.7-3.3c-0.1-0.4-0.2-0.9-0.3-1.3c-0.3-1.5-0.5-2.9-0.8-4.3
		c-1-6.3-1.5-11.4-1.9-13.3c-0.1-0.5-0.3-0.9-0.6-1.2c-0.1-0.2-0.3-0.3-0.5-0.4c-0.1,0-0.1,0-0.2-0.1c-0.1-0.1-0.3-0.1-0.4-0.1
		c0,0,0,0,0,0c-1.3-0.2-2.6,0.5-3.7,1.2c-1.1,0.7-1.9,1.4-1.9,1.4l0,0c-5.7,5.4-8.6,15.2-10.3,24.3c-0.2,0.8-0.3,1.7-0.4,2.5
		c0,0.3-0.1,0.5-0.1,0.8c-0.1,0.6-0.2,1.2-0.3,1.8c0,0.2-0.1,0.5-0.1,0.7c-0.1,0.8-0.2,1.5-0.3,2.2c0,0.2,0,0.5-0.1,0.7
		c-0.1,0.5-0.1,1-0.2,1.5c0,0.3-0.1,0.6-0.1,0.9c0,0.5-0.1,0.9-0.1,1.3c0,0.2,0,0.5-0.1,0.7c0,0.6-0.1,1.2-0.1,1.7
		c0,0.3,0,0.5,0,0.7c0,0.3,0,0.6,0,0.9c0,0.2,0,0.5,0,0.7c0,0.3,0,0.5,0,0.8c0,0.1,0,0.3,0,0.4c-0.1-0.3-0.3-0.6-0.4-0.9
		c-0.1-0.3-0.2-0.5-0.3-0.8c-0.2-0.5-0.3-0.9-0.5-1.4c-0.1-0.2-0.2-0.5-0.2-0.7c-0.2-0.7-0.4-1.4-0.6-2.1c0-0.1,0-0.1,0-0.2
		c-0.2-0.8-0.4-1.5-0.6-2.3c0-0.2-0.1-0.4-0.1-0.6c-0.1-0.6-0.3-1.2-0.4-1.8c-0.1-0.3-0.1-0.6-0.2-0.8c-0.1-0.5-0.2-1.1-0.3-1.6
		c-0.1-0.3-0.1-0.6-0.1-0.9c-0.1-0.5-0.2-1-0.2-1.6c0-0.3-0.1-0.6-0.1-0.9c-0.1-0.5-0.1-1-0.2-1.5c0-0.3-0.1-0.6-0.1-0.9
		c-0.1-0.5-0.1-1-0.2-1.5c0-0.3-0.1-0.6-0.1-0.8c0-0.5-0.1-1-0.1-1.5c0-0.3,0-0.5-0.1-0.8c0-0.5-0.1-1-0.1-1.5c0-0.2,0-0.5,0-0.7
		c0-0.5-0.1-1.1-0.1-1.6c0-0.2,0-0.4,0-0.6c0-0.5-0.1-1.1-0.1-1.6c0-0.1,0-0.3,0-0.4c0-0.6,0-1.1-0.1-1.6c0-0.1,0-0.2,0-0.2
		c0-0.6,0-1.1,0-1.7c-0.1-2.8,0-4.6,0-4.6l-0.3-0.6l-0.6-0.1c-12.7,5.6-18.4,18.5-20.8,31.6c-0.2,1-0.4,2.1-0.5,3.1
		c0,0.3-0.1,0.6-0.1,0.9c-0.1,0.8-0.2,1.6-0.3,2.4c0,0.2-0.1,0.5-0.1,0.7c-0.1,1-0.2,2.1-0.3,3.1c0,0.1,0,0.2,0,0.4
		c-0.1,0.9-0.1,1.8-0.1,2.7c0,0.3,0,0.5,0,0.8c0,0.8,0,1.6-0.1,2.4c0,0.2,0,0.3,0,0.5c0,1,0,1.9,0,2.8c0,0.2,0,0.4,0,0.5
		c0,0.7,0,1.5,0.1,2.2c0,0.2,0,0.5,0,0.7c0,0.7,0.1,1.5,0.1,2.2c0,0.1,0,0.2,0,0.3c0,0.8,0.1,1.5,0.1,2.3c0,0.2,0,0.4,0.1,0.7
		c0,0.5,0.1,1,0.1,1.4c0,0.2,0,0.5,0.1,0.7c0,0.4,0.1,0.9,0.1,1.3c0,0.4,0.1,0.8,0.1,1.2c0,0.2,0,0.4,0.1,0.5
		c-0.1-0.2-0.2-0.3-0.3-0.4c-0.1-0.2-0.3-0.4-0.4-0.7c-0.2-0.4-0.5-0.7-0.7-1.1c-0.1-0.2-0.3-0.4-0.4-0.6c-0.2-0.3-0.5-0.7-0.7-1
		c-0.1-0.2-0.3-0.4-0.4-0.6c-0.3-0.3-0.5-0.6-0.8-0.9c-0.1-0.2-0.3-0.3-0.4-0.5c-0.3-0.3-0.6-0.6-0.9-0.9c-0.1-0.1-0.2-0.2-0.3-0.3
		c-0.4-0.4-0.8-0.8-1.2-1.1c0,0-0.1-0.1-0.1-0.1c-0.4-0.3-0.7-0.6-1.1-0.9c-0.1-0.1-0.3-0.2-0.4-0.3c-0.3-0.2-0.5-0.4-0.8-0.6
		c-0.2-0.1-0.3-0.2-0.5-0.3c-0.2-0.2-0.5-0.3-0.7-0.4c-0.2-0.1-0.3-0.2-0.5-0.3c-0.2-0.1-0.5-0.2-0.7-0.4c-0.2-0.1-0.3-0.2-0.5-0.2
		c-0.2-0.1-0.5-0.2-0.7-0.3c-0.2-0.1-0.3-0.1-0.5-0.2c-0.2-0.1-0.5-0.2-0.7-0.3c-0.2-0.1-0.3-0.1-0.5-0.2c-0.2-0.1-0.5-0.2-0.7-0.2
		c-0.1,0-0.3-0.1-0.4-0.1c-0.3-0.1-0.6-0.1-0.8-0.2c-0.1,0-0.2,0-0.3-0.1c-0.3-0.1-0.7-0.1-1-0.2c0,0,0,0-0.1,0
		c-3.6-0.7-6.2-0.2-6.2-0.2l-0.5,0.4l0.1,0.6c0.6,0.8,1.1,1.6,1.5,2.4c0.2,0.4,0.4,0.8,0.6,1.2c0.3,0.5,0.5,1.1,0.7,1.7
		c0.2,0.4,0.3,0.9,0.5,1.3c0.2,0.6,0.4,1.2,0.5,1.8c0.1,0.5,0.2,0.9,0.3,1.4c0.1,0.6,0.2,1.3,0.3,1.9c0.1,0.5,0.1,1,0.2,1.4
		c0.1,0.7,0.1,1.4,0.1,2.1c0,0.5,0.1,0.9,0.1,1.4c0,0.7,0,1.5,0,2.3c0,0.4,0,0.9,0,1.3c-0.1,0.9-0.1,1.7-0.2,2.6
		c0,0.4-0.1,0.7-0.1,1.1c-0.2,1.2-0.3,2.5-0.6,3.8c0,0,0,0,0,0c-0.2,0.9-0.3,1.8-0.5,2.7c-0.3,1.2-0.5,2.4-0.9,3.6
		c0,0.1-0.1,0.2-0.1,0.3c-0.3,1-0.5,2-0.8,2.9c0,0.1-0.1,0.2-0.1,0.3c-0.1,0.4-0.2,0.7-0.3,1.1c-0.2,0.6-0.4,1.3-0.6,1.9
		c-0.1,0.2-0.1,0.4-0.2,0.6c-0.1,0.4-0.3,0.8-0.4,1.1c-0.2,0.7-0.5,1.3-0.7,2c-0.1,0.2-0.2,0.5-0.2,0.7c-0.1,0.2-0.2,0.5-0.3,0.7
		c-0.4,1-0.8,2-1.2,3c-0.1,0.1-0.1,0.3-0.2,0.4c-0.1,0.2-0.2,0.4-0.3,0.6c-0.4,0.9-0.7,1.8-1.1,2.6c-0.1,0.3-0.3,0.6-0.4,0.9
		c-0.3,0.8-0.7,1.6-1,2.3c-0.1,0.2-0.2,0.5-0.3,0.7c-0.5,1-0.9,1.9-1.3,2.8c0,0,0,0,0,0c-1.9,4-3.7,7.3-5.1,9.7
		c-1.3,2.3-2.2,3.7-2.3,3.9c-0.2,0.2-2.7,3.2-5.9,8.2c-25.9,6.4-48.3,4.9-65.7,0.2c-11.4-3.1-20.7-7.6-27.5-12.1
		c-6.8-4.5-11.1-9.2-12.4-12.4c-0.1-0.3-0.2-0.6-0.3-0.9c-0.1-0.3-0.3-0.5-0.6-0.4c-0.3,0-0.5,0.2-0.6,0.5c0,0.1-2.3,11.6,1,19.8
		c0.2,0.5,0.5,1,0.8,1.5c-3.8-2.4-11.4-8-14.5-15.4c-1.1-2.7-1.7-5.6-1.3-8.7c0-0.3-0.1-0.5-0.4-0.6c-0.3-0.1-0.5,0-0.7,0.2
		c0,0-1.9,2.4-3.6,6c-1.2,2.7-2.3,6.1-2.3,9.6c-0.7-1.4-1.5-3.1-2.3-5.1c-1.7-4.1-3.5-9.2-4-13.9c-0.3-2.3-0.2-4.6,0.3-6.5
		c0.5-1.9,1.4-3.6,2.9-4.8c0.3-0.2,0.3-0.6,0.1-0.8c-0.2-0.3-0.6-0.3-0.8-0.1l-0.2,0.1c-0.4,0.2-1.3,0.8-2.6,1.4
		c-2,0.8-4.9,1.6-8,1.3c-2.8-0.3-5.9-1.6-8.8-4.6c1.3,0,3.2-0.2,5.4-1.1c3.1-1.3,6.6-4.1,9.1-9.9c1.4-3.4,0.6-8.8-0.8-15.7
		C835.3,496.1,826.3,467.3,837.1,443.5z M807.2,547.8c-0.2,0.9-0.4,1.8-0.6,2.7C806.8,549.6,807,548.7,807.2,547.8z M805.5,554.1
		c-0.2,0.6-0.4,1.3-0.6,1.9C805.1,555.4,805.3,554.7,805.5,554.1z M802.5,562.6c-0.3,0.6-0.5,1.2-0.8,1.8
		C801.9,563.8,802.2,563.2,802.5,562.6z M801.3,565.2c-0.2,0.5-0.5,1.1-0.7,1.6C800.9,566.3,801.1,565.7,801.3,565.2z M800.3,567.5
		c-0.3,0.6-0.6,1.2-0.8,1.7C799.7,568.7,800,568.1,800.3,567.5z M775.8,624.5c3.4,5,8.2,7,8.3,7.1c0.2,0.1,0.4,0,0.6-0.1
		c0.1-0.2,0.2-0.4,0.1-0.6c-4.4-7.4-5-15.2-3.6-22.5c2.4-13.3,11-24.7,13.1-27.3c0.3-0.4,0.5-0.6,0.5-0.6l0-0.1
		c0,0,4.8-7.7,8.9-17.8c-0.1,0.2-0.2,0.4-0.2,0.6c0,0,0,0,0,0c0.1-0.2,0.2-0.4,0.3-0.6c0.3-0.7,0.5-1.3,0.8-2
		c0.2-0.4,0.3-0.8,0.5-1.2c0.2-0.7,0.5-1.3,0.7-2c0.1-0.3,0.2-0.6,0.3-0.9c-0.1,0.3-0.2,0.6-0.3,0.9c1.3-3.7,2.4-7.5,3.1-11.3
		c1.4-7.7,1.1-15.4-2.8-21.1c0.1,0,0.3,0,0.4,0c0.8,0,1.9,0,3.2,0.2c4,0.7,9.9,3.3,14,12c0.1,0.2,0.4,0.3,0.6,0.3
		c0.2-0.1,0.4-0.3,0.3-0.6c0,0-0.2-0.9-0.3-2.4c-0.2-1.6-0.4-3.8-0.6-6.4c-0.3-5.3-0.3-12.4,1-19.3c1.3-7,3.8-13.7,8.4-18.5
		c0,0.2,0.1,0.3,0.1,0.5c1.6,9,3.8,17.3,5.2,24.1c1.5,6.8,2.1,12.1,0.9,14.9c-2.3,5.5-5.6,8.1-8.4,9.3c-1.7,0.7-3.3,0.9-4.4,1
		c-0.6,0-1,0-1.4,0l-0.4,0l-0.1,0l-0.6,0.3c-0.1,0.2-0.1,0.5,0.1,0.7c3.4,4.1,7.2,5.8,10.6,6.2c3.4,0.4,6.5-0.5,8.6-1.4
		c0.1,0,0.1-0.1,0.2-0.1c-0.5,0.9-0.9,1.9-1.2,2.9c-1.6,6.4,1.2,14.9,3.8,21.2c2,4.7,3.9,8.1,3.9,8.2c0.1,0.3,0.5,0.4,0.8,0.3
		c0.3-0.1,0.4-0.4,0.4-0.7c-1-4.3,0.2-8.8,1.8-12.2c0.7-1.6,1.6-3,2.2-4c0,2.5,0.5,4.9,1.5,7.1c4.5,10.7,17.4,17.4,17.4,17.4
		c0.3,0.1,0.6,0.1,0.8-0.2c0.2-0.2,0.2-0.6,0-0.8c-0.9-1-1.6-2.2-2.1-3.5c-1.6-3.8-1.9-8.6-1.7-12.4c0.1-1.8,0.2-3.4,0.4-4.6
		c1.9,3.5,6.1,7.7,12.4,12c5.8,3.8,13.3,7.6,22.3,10.6c-3.2,5.6-6.1,11.5-7.8,17.3c-2.4,7.9-2.8,14.4-2.4,19.4
		c0.8,9.1,4.4,13.6,4.4,13.7c0.1,0.2,0.4,0.3,0.6,0.2c0.2-0.1,0.4-0.2,0.5-0.5l0.1-0.3c0-0.2,0.1-0.5,0.2-0.8c0.2-0.7,0.5-1.7,1-2.8
		c0.5-1.4,1.3-2.9,2.3-4.3c-1.7,5.4-4.6,17.7-3.2,34.7c-8.4-1.2-16.9-2.4-25.6-3.5c6.5-5.7,12.5-13,17.4-22.5l-0.9-0.5
		c-10.2,19.6-24.7,29.9-39.4,35c-14.7,5-29.4,4.7-39.8,2.8c-5.3-1-9.5-2.3-11.9-3.6c-3-1.6-5.9-2.5-8.5-2.9c-5.6-1-10,0-12,0.6
		c1.9-3.2,4.5-4.8,7-5.4c2.7-0.7,5.3-0.4,6.3-0.3c0.3,0.1,0.5,0.1,0.5,0.1c0.2,0.1,0.5-0.1,0.6-0.3c0.1-0.2,0-0.5-0.2-0.6
		C777.7,651.3,775.9,630.5,775.8,624.5z M804.3,560.5c0.2-0.4,0.3-0.8,0.5-1.2C804.6,559.7,804.5,560.1,804.3,560.5z M702.1,589.1
		c4.7,4.5,15.1,7.5,27.4,7.5c12.3,0,22.7-3.1,27.4-7.5v47.9c0,6.1-14.4,10.3-27.4,10.3c-12.9,0-27.3-4.2-27.4-10.3V589.1z
		 M729.5,512.2c6.4,0,10.5,2.1,10.5,3.6c0,1.5-4.1,3.6-10.5,3.6c-6.4,0-10.5-2.1-10.5-3.6C719.1,514.3,723.1,512.2,729.5,512.2z
		 M702.1,579.2c0-5.2,12-20.6,16.6-26.1l0.3-0.4v-0.5V518c2,1.6,5.9,2.7,10.5,2.7c4.6,0,8.5-1.1,10.5-2.7v34.1v0.5l0.3,0.4
		c4.6,5.5,16.6,20.9,16.6,26.1v7.9c-3.7,4.7-14.6,8.1-27.4,8.1c-12.8,0-23.7-3.4-27.4-8.1V579.2z M702.1,640.5
		c3.7,4.7,14.6,8.1,27.4,8.1c12.8,0,23.7-3.4,27.4-8.1v38c0,7.1-7.9,13.2-18.9,15.3c-13.6-14.4-25.7-30.3-35.9-47.4V640.5z
		 M739.1,694.9c11.2-2.4,19.1-8.9,19.2-16.5v-0.6c3.4,0,3.9,0.4,6,2.4c0.3,0.3,0.6,0.6,1,0.9c1.2,1.1,1.5,1.8,1.9,2.4
		c0.7,1.2,1.2,2,4.5,3.3c2,0.8,4.5,0.9,6.9,1c5,0.2,8,0.6,8.1,3.7c0.2,5-4.2,8.2-13.1,9.5c-5.8,0.9-19,1.5-27.5,0.8
		C743.7,699.6,741.4,697.3,739.1,694.9z M747.5,703.3c2.2,0.1,4.6,0.2,7,0.2c7.2,0,15-0.5,19.2-1.1c12.2-1.8,14.5-6.9,14.3-10.9
		c-0.2-4.6-5.1-4.8-9.4-5c-2.3-0.1-4.7-0.2-6.5-0.9c-3-1.2-3.3-1.7-3.8-2.7c-0.4-0.7-0.8-1.5-2.1-2.7c-0.4-0.3-0.7-0.6-1-0.9
		c-2.3-2.1-3.1-2.7-6.9-2.7v-26.2c7.4,0.5,17.5,1.1,24.7,1.6c2.4,3.7,5.6,7.2,9.6,10.2c-1.3-0.1-3.2-0.1-5.2,0.5
		c-2.9,0.8-6.2,2.8-8.3,7.1c-0.1,0.2-0.1,0.4,0.1,0.6l0.6,0.1l0.2-0.1c0.1-0.1,0.4-0.1,0.7-0.2c0.6-0.2,1.5-0.4,2.6-0.7
		c2.2-0.4,5.4-0.7,9.2,0c2.5,0.5,5.3,1.3,8.3,2.8c2.5,1.3,6.8,2.7,12.2,3.6c10.5,1.9,25.4,2.3,40.3-2.8c7.2-2.5,14.4-6.2,21.1-11.7
		c35.1,4.5,67.3,9.7,96.1,15c3,4.1,6.7,8,11.3,11.4c-1.8-0.1-4.2-0.1-6.8,0.6c-3.9,1.1-8.2,3.7-10.9,9.4c-0.1,0.2-0.1,0.5,0.1,0.7
		l0.7,0.1l0.3-0.1c0.2-0.1,0.5-0.2,0.9-0.3c0.8-0.3,1.9-0.6,3.4-0.9c2.9-0.6,7.1-0.9,12.1,0c3.3,0.6,7,1.7,10.9,3.7
		c3.3,1.7,8.9,3.5,16.1,4.8c13.9,2.5,33.6,3,53.2-3.7c3-1,6-2.2,8.9-3.6c16.1,4.2,30.8,8.3,43.9,12.2
		c-30.8,27.3-67.7,47.3-107.8,58.3l-14-14l-12.9-12.9c0,0,0,0,0,0l-6.1-6.1c-2.4-2.4-9.8-4.1-16.8-5.3c2.2-0.5,4.8-0.9,8.4-2.7
		c8.8-4.4,7.4-12.3,4.8-14.9c-2.6-2.6-23.6-6.1-26.7-13.6c-3.1-7.4,1.8-17.9-7.4-21.4c-1.1-0.4-2.1-0.6-3.3-0.6
		c-8.7,0-19.3,10.9-31.3,15.9c-7,2.9-20.5,3.9-32.3,3.9c-11.1,0-20.7-0.8-22-1.7c-2.6-1.8-3.9-3.1-7-3.1c-3.1,0-7.4,5.3-11.8,7.9
		c-4.4,2.6-36.3,8.8-36.3,18.4s23.6,7.4,30.6,13.1c7,5.7,20.6,32.8,53.4,32.8c13.5,0,32.1-6.1,47.1-12.9c1.1,7.9,3.1,17.9,5.9,20.7
		l4.8,4.8c0,0,0,0,0,0l1.3,1.3c-0.1,0-0.1,0-0.2,0C862.3,778.7,796.2,750,747.5,703.3z M934.7,776.4c-1.7-1.8-1.7-6.1,0.3-10.9
		c2.2-5.2,4.2-9.7,11.8-15.8c13.2-9.6,22.6-7.9,28.5-7.9c1.6,0,2.8,0.4,3.6,1.2l26.4,26.4c-21.9,5.9-44.9,9-68.3,9.2L934.7,776.4z
		 M942.6,728.9l-25.9-25.9c-1.5-1.5-4.6-3.5-8.9-3.5c-1.4,0-2.9,0.2-4.5,0.8c-6.2,2.1-9.3,13.5-7.4,15.4l25.9,25.9c0,0,0.3,3.9,1,9
		c-14.7,6.7-33.1,12.9-46.9,12.9c-25.3,0-38.8-16.5-46.9-26.3c-2.2-2.7-4-4.9-5.6-6.2c-3.1-2.5-8.7-3.5-14.6-4.6
		c-7.7-1.4-15.6-2.8-15.6-7.5c0-6,17.6-11.3,27-14.2c4.3-1.3,7.3-2.2,8.7-3c1.8-1.1,3.5-2.5,5.2-3.9c2.2-1.9,4.6-3.8,5.9-3.8
		c2.2,0,3.2,0.7,5.1,2c0.4,0.3,0.8,0.5,1.2,0.8c2.1,1.4,15.1,1.9,22.8,1.9c8.7,0,24.5-0.5,32.8-4c5.1-2.1,9.8-5.2,14.3-8.1
		c6.1-3.9,11.8-7.6,16.5-7.6h0c1,0,1.9,0.2,2.8,0.5c4.8,1.8,5.1,5.6,5.3,11.5c0.1,3.1,0.2,6.3,1.4,9.2c2.2,5.5,12,8.6,19.8,11.2
		c3.1,1,6.5,2.1,7.2,2.8c1,1,1.9,3.2,1.5,5.7c-0.3,2-1.6,4.9-5.9,7c-3.2,1.6-5.6,2.1-7.7,2.5c-1.2,0.3-2.3,0.5-3.4,0.9
		C947.6,729.3,942.6,728.9,942.6,728.9z M923.2,741.4l0-0.5l-0.3-0.3l-25.9-25.9c-0.3-0.4-0.4-2.3,0.5-5.1c1-3.2,3.2-7,6.3-8
		c1.4-0.5,2.8-0.7,4.1-0.7c4.6,0,7.4,2.6,7.9,3.1l25.9,25.9l0.3,0.4l0.5,0c7.2,0.6,26.5,3,30.2,6.7l3.6,3.6c-0.4,0-0.7-0.1-1.1-0.1
		c-6,0-15.6-1.6-29.4,8.3c-9.3,7.7-14.5,18.8-13.6,25.1l-2.3-2.3C926.2,767.9,923.8,748.5,923.2,741.4z"/>
	<path class="st2" d="M709.3,627.2l1.1,0.8c0.7-1,2.1-3,3.7-5.2c1.9,2.8,3.3,5.1,3.3,5.2l1.2-0.7c-0.1-0.2-1.7-2.7-3.6-5.7
		c2.3-3.1,4.4-6.1,4.5-6.1l-1.1-0.8c-0.2,0.2-2.1,2.9-4.2,5.7c-1.6-2.4-3.4-4.9-5-6.7l-1,0.9c1.6,1.8,3.5,4.5,5.1,6.9
		C711.6,623.9,710,626.1,709.3,627.2z"/>
	<path class="st2" d="M741.4,619.4c-0.2,0.2-0.3,0.4-0.5,0.6c-1.9,2.4-2.9,3.8-3.2,4.5l1.3,0.5c0.2-0.5,1.7-2.4,3-4.1
		c0.1-0.2,0.2-0.3,0.3-0.4c3.2,3.4,6,6.6,6.2,7.7l1.3-0.3c-0.3-1.5-3.6-5.2-6.7-8.5c3.3-4.5,4.5-6.3,4.4-7.3l-1.3,0.2
		c0,0.7-2.2,3.7-4,6c-2.4-2.5-4.6-4.6-5.1-5.2l-0.9,1C737.7,615.6,739.6,617.5,741.4,619.4z"/>
	<path class="st2" d="M745.6,667.9c3,1.2,5.6,2.8,7.5,4.6l0.9-1c-2-1.9-4.7-3.6-7.9-4.9c-4.8-1.9-10.5-3-16.4-3
		c-4.2,0-8.2,0.5-12,1.5l0.3,1.3c3.6-1,7.6-1.5,11.6-1.5C735.4,665,741,666,745.6,667.9z"/>
	<path class="st2" d="M1008.8,741c2,1.8,5.5,2.3,8.6,1.2c1-0.4,1.9-0.7,2.7-1.1c2.6-1.1,4.3-1.8,7.1-1.4c1.6,0.2,2.7,1.1,3.9,2
		c1.3,1,2.6,2,4.5,2c0.3,0,0.7,0,1-0.1c3.7-0.7,4.6-2.2,4.8-2.7c1.2-1.5,1.3-3.3,0.4-5.2c-1.8-3.7-7.1-6.7-10.3-6.7h-15.3
		c-0.1,0-7.4-0.1-9,6.2C1006.6,738.2,1007.7,740,1008.8,741z M1008.6,735.6c1.3-5.2,7.4-5.2,7.7-5.2h15.3c2.7,0,7.5,2.8,9.1,6
		c0.7,1.4,0.6,2.8-0.3,3.9l-0.1,0.2c0,0-0.5,1.3-3.9,1.9c-1.9,0.4-3.1-0.6-4.5-1.7c-1.2-0.9-2.6-2-4.5-2.3c-0.6-0.1-1.2-0.1-1.8-0.1
		c-2.2,0-3.9,0.7-6.1,1.6c-0.8,0.3-1.7,0.7-2.7,1.1c-2.6,0.9-5.6,0.6-7.2-0.9C1008.6,738.9,1008.2,737.4,1008.6,735.6z"/>
	<path class="st2" d="M1024.6,746.5c-2,0-3.6,1.6-3.6,3.6c0,2,1.6,3.6,3.6,3.6c2,0,3.6-1.6,3.6-3.6
		C1028.2,748.2,1026.6,746.5,1024.6,746.5z M1024.6,752.4c-1.3,0-2.3-1-2.3-2.3c0-1.3,1-2.3,2.3-2.3c1.3,0,2.3,1,2.3,2.3
		C1026.9,751.4,1025.8,752.4,1024.6,752.4z"/>
	<path class="st2" d="M958.5,759.7l-1.3-0.5c-0.2,0.7-1.5,3.9-2.5,7.4c-2.3-0.4-4.8-0.7-6.9-0.8l-0.1,1.4c2,0.1,4.3,0.4,6.6,0.8
		c-0.8,3-1.5,5.9-1.2,7.2l1.3-0.3c-0.2-1.1,0.4-3.8,1.2-6.8c3.6,0.6,6.6,1.2,6.6,1.2l0.3-1.3c-0.1,0-3-0.6-6.5-1.2
		C956.9,764,957.9,761.2,958.5,759.7z"/>
	<path class="st2" d="M987.1,757.8c-1.1-0.7-5.4-1.9-10-3c1.7-6.5,1.8-8,1-8.6l-0.8,1.1c-0.1-0.1-0.1-0.1-0.1-0.2
		c0.2,0.7-0.6,4.1-1.4,7.3c-4.8-1.2-9.4-2.2-10.4-2.4l-0.3,1.3c3.1,0.7,6.8,1.6,10.3,2.4c-0.1,0.4-0.2,0.9-0.3,1.3
		c-1.5,5.8-2.1,8-1.7,8.8l1.3-0.5c-0.1-0.7,1-4.9,1.8-8c0.1-0.4,0.2-0.9,0.3-1.3c4.7,1.2,8.7,2.3,9.6,2.9L987.1,757.8z"/>
	<path class="st2" d="M980.9,480.4c6.2-1.8,9.6-9.1,7.5-16.2c-2.1-7.1-8.8-11.4-15.1-9.5c-6.2,1.8-9.6,9.1-7.5,16.2
		C967.9,478,974.7,482.3,980.9,480.4z"/>
	<path class="st2" d="M870.8,481.7c-4.2,0.7-6.8,5.8-5.6,11.2c1.1,5.5,5.5,9.3,9.7,8.6c4.2-0.7,6.8-5.8,5.6-11.2
		C879.4,484.8,875,481,870.8,481.7z"/>
</g>
</svg>
