<?xml version="1.0" encoding="utf-8"?>
<!-- Generator: Adobe Illustrator 25.0.1, SVG Export Plug-In . SVG Version: 6.00 Build 0)  -->
<svg version="1.1" id="Слой_1" xmlns="http://www.w3.org/2000/svg" xmlns:xlink="http://www.w3.org/1999/xlink" x="0px" y="0px"
	 viewBox="0 0 1920 1080" style="enable-background:new 0 0 1920 1080;" xml:space="preserve">
<style type="text/css">
	.st0{fill:#FFFFFF;}
	.st1{fill:#1D1D1B;}
	.st2{fill:#E73C3E;}
</style>
<rect class="st0" width="1920" height="1080"/>
<g>
	<path class="st1" d="M737.3,278c1.9,1.4,3.9,2.3,6,2.7c2.1,0.4,4.2,0.3,6.3-0.3c2.1-0.6,4.3-1.6,6.4-2.9c3.1-2,5.6-4,7.4-6
		c1.8-2.1,3.2-3.9,4-5.5l13.8,21.8l10.6-6.7l-34.2-54.2l-10.6,6.7l15.1,23.9c-0.5,1.5-1.4,3.1-2.9,4.6c-1.5,1.5-3.2,2.9-5.1,4.2
		c-2.8,1.8-5.3,2.3-7.5,1.5c-2.2-0.8-4.3-2.7-6.2-5.8l-10.9-17.3l-10.6,6.7l13,20.5C733.6,274.5,735.4,276.6,737.3,278z"/>
	<polygon class="st1" points="792.6,223 812.7,272 824.3,267.2 804.3,218.2 821.5,211.1 817.3,200.8 771,219.7 775.3,230.1 	"/>
	<path class="st1" d="M837.7,242.1c1.9,3.8,4.3,6.8,7.1,9.2c2.8,2.4,6,4,9.7,4.8c3.7,0.8,7.8,0.7,12.3-0.2
		c8.5-1.8,14.4-6.1,17.8-12.7c3.4-6.6,4-15.2,1.7-25.6c-1.1-4.9-2.6-9.2-4.5-13c-1.9-3.8-4.3-6.8-7.2-9.2c-2.8-2.4-6.1-4-9.8-4.8
		c-3.7-0.8-7.8-0.8-12.2,0.2c-8.5,1.9-14.5,6.1-17.9,12.7c-3.4,6.6-3.9,15.2-1.7,25.6C834.2,234,835.7,238.3,837.7,242.1z
		 M846,209.1c1.6-4,4.6-6.5,9-7.4c2.5-0.5,4.7-0.5,6.7,0.3c2,0.7,3.7,2,5.2,3.7c1.5,1.7,2.8,3.9,3.9,6.4c1.1,2.5,1.9,5.3,2.6,8.3
		c1.7,7.6,1.7,13.4,0,17.3c-1.6,3.9-4.7,6.4-9,7.3c-2.4,0.5-4.6,0.4-6.5-0.3c-2-0.7-3.7-1.9-5.2-3.6c-1.5-1.7-2.8-3.8-3.9-6.3
		c-1.1-2.5-2-5.4-2.7-8.6C844.4,218.9,844.4,213.1,846,209.1z"/>
	<path class="st1" d="M901.2,196.2c1-0.6,2-1.1,3.1-1.5c1.1-0.4,2.2-0.8,3.3-1.1c1.1-0.3,2.1-0.4,3.1-0.5c3-0.1,5.2,0.4,6.4,1.6
		c1.2,1.2,1.9,2.9,2,5c0.1,1.6-0.3,3.1-1,4.3c-0.7,1.2-1.7,2.4-2.8,3.6c-1.1,1.2-2.4,2.4-3.7,3.6c-1.3,1.3-2.5,2.7-3.5,4.4
		c-1,1.7-1.7,3.6-2.3,5.9c-0.5,2.3-0.5,5-0.1,8.1l10.2-0.5c-0.1-2.6,0.2-4.7,1-6.4c0.8-1.7,1.7-3.2,2.9-4.5c1.2-1.3,2.5-2.5,3.9-3.7
		c1.4-1.2,2.7-2.5,3.8-4c1.2-1.5,2.1-3.3,2.8-5.4c0.7-2.1,1-4.7,0.9-7.8c-0.2-4.7-2-8.4-5.4-11c-3.4-2.6-7.9-3.8-13.6-3.5
		c-4.3,0.2-7.9,0.9-10.9,2.1c-3,1.2-5.6,2.6-7.8,4.3l5,8.6C899.3,197.4,900.2,196.8,901.2,196.2z"/>
	<path class="st1" d="M906.3,237.6c-1.3,1.3-1.9,3-1.8,5.2c0.1,2.1,0.8,3.8,2.2,5c1.4,1.2,3.2,1.8,5.4,1.7c2.3-0.1,4.1-0.8,5.4-2.2
		c1.3-1.3,1.9-3.1,1.8-5.2c-0.1-2.1-0.8-3.8-2.2-5c-1.4-1.2-3.3-1.7-5.6-1.6C909.3,235.6,907.6,236.3,906.3,237.6z"/>
	<polygon class="st1" points="982.2,199.2 1006.6,203.2 1008.4,192.2 971.6,186.2 961.2,249.4 973.6,251.5 	"/>
	<path class="st1" d="M1003.6,245.1l-6.4-2.2l-7.3,21.4l8.4,2.9l5-10.4l39,13.4l-2.4,11.3l8.4,2.9l7.3-21.4l-7.7-2.6l17.1-50.1
		l-36.3-12.4c-2.8,8.3-5.5,15.3-8.2,21.1c-2.7,5.8-5.2,10.6-7.5,14.3c-2.3,3.7-4.3,6.5-6,8.4
		C1005.3,243.4,1004.2,244.6,1003.6,245.1z M1025,236.5c3.5-6.1,7.2-14.3,11.1-24.4l13.4,4.6l-13.5,39.5l-19.8-6.8
		C1018.5,246.9,1021.4,242.6,1025,236.5z"/>
	<polygon class="st1" points="1089.1,295.1 1094.6,285.4 1072,272.7 1079.6,259 1099.8,270.4 1105.3,260.6 1085.1,249.3 
		1092.4,236.3 1114.6,248.7 1120.1,239 1087,220.4 1055.6,276.3 	"/>
	<path class="st1" d="M1137.9,277c-1.4,0.5-2.8,0.8-4.5,0.9c-1.6,0.1-3.3,0.3-5.1,0.4c-1.8,0.1-3.6,0.5-5.5,1.1
		c-1.8,0.6-3.7,1.6-5.5,3c-1.8,1.4-3.6,3.4-5.3,6.1l8,6.2c1.6-2,3.2-3.4,4.9-4.2c1.7-0.8,3.4-1.3,5.1-1.5c1.7-0.2,3.5-0.4,5.3-0.3
		c1.8,0,3.7-0.2,5.5-0.5c1.8-0.4,3.7-1.1,5.6-2.3c1.9-1.1,3.8-2.9,5.7-5.4c2.9-3.7,3.9-7.7,3-11.8c-0.9-4.2-3.6-8-8.1-11.5
		c-3.4-2.6-6.6-4.4-9.6-5.5c-3-1-5.9-1.6-8.8-1.8l-1.7,9.8c1,0,2,0.2,3.1,0.4c1.1,0.2,2.2,0.5,3.3,0.8c1.1,0.4,2.2,0.8,3.2,1.3
		s1.9,1,2.7,1.6c2.4,1.9,3.7,3.7,3.9,5.4c0.2,1.7-0.4,3.5-1.7,5.2C1140.4,275.6,1139.3,276.5,1137.9,277z"/>
	<path class="st1" d="M1112.7,296.6c-1.7-1.3-3.5-1.9-5.4-1.8c-1.8,0.2-3.4,1.1-4.7,2.8c-1.3,1.7-1.8,3.5-1.5,5.3
		c0.3,1.8,1.3,3.4,3,4.8c1.8,1.4,3.7,2,5.5,1.8c1.8-0.2,3.4-1.1,4.7-2.8c1.3-1.7,1.8-3.4,1.5-5.3
		C1115.6,299.7,1114.5,298.1,1112.7,296.6z"/>
	<polygon class="st1" points="1149.5,348.6 1170.8,331.4 1172.9,333.9 1163.5,365.9 1173.2,377.9 1183.2,342.4 1182.8,336.2 
		1188.6,337.8 1221.3,335.4 1212.3,324.3 1180.1,327.6 1177.3,326.1 1199.4,308.3 1191.5,298.5 1141.6,338.8 	"/>
	<path class="st1" d="M1201.1,362.3c-4.4,2.4-8.1,5-11.2,7.9c-3.1,2.9-5.4,6-6.9,9.4c-1.5,3.4-2.2,6.9-1.9,10.7
		c0.2,3.8,1.4,7.7,3.7,11.8c4.1,7.6,9.8,12.1,17.2,13.6c7.3,1.4,15.7-0.4,25.1-5.5c4.4-2.4,8.1-5,11.2-7.9c3.1-2.9,5.4-6.1,6.9-9.4
		c1.5-3.4,2.1-7,1.9-10.7c-0.2-3.8-1.4-7.7-3.6-11.7c-4.2-7.7-9.9-12.2-17.2-13.6C1218.9,355.3,1210.5,357.2,1201.1,362.3z
		 M1223.9,369.1c4.3,0.4,7.5,2.6,9.6,6.6c1.2,2.3,1.8,4.4,1.6,6.5c-0.2,2.1-0.9,4.1-2.1,6c-1.2,1.9-2.9,3.8-5,5.5
		c-2.1,1.7-4.5,3.3-7.3,4.8c-6.9,3.7-12.4,5.3-16.6,4.8c-4.2-0.5-7.4-2.7-9.5-6.6c-1.2-2.1-1.7-4.3-1.6-6.3c0.1-2.1,0.8-4.1,2-6
		c1.2-1.9,2.8-3.8,5-5.5c2.1-1.8,4.6-3.4,7.5-5C1214.1,370.2,1219.6,368.6,1223.9,369.1z"/>
	<polygon class="st1" points="1204.5,443.6 1254.6,426.6 1262.6,450 1273.2,446.4 1261.2,411.1 1200.5,431.7 	"/>
	<path class="st1" d="M1224.4,522.7l8.6-1.4l-1.3-8l52.3-8.4l-6.1-37.9c-8.6,1.4-16.1,2.3-22.5,2.7c-6.4,0.3-11.8,0.4-16.1,0.1
		c-4.3-0.3-7.7-0.7-10.2-1.3c-2.4-0.6-4-1.1-4.8-1.4l-1.1-6.7l-22.3,3.6l1.4,8.8l11.5-0.5l6.5,40.7l-11.1,3.2l1.4,8.8l11.2-1.8
		l-0.5,11.1l14,5.5l-0.9,19.7l-14.4,4.5l-0.6,13.2l65.5-20.2l0.4-9.2L1224.4,522.7z M1241.8,481.9c7.1,0.3,16-0.3,26.8-1.7l2.3,14
		l-41.2,6.6l-3.3-20.7C1229.6,481.1,1234.8,481.6,1241.8,481.9z M1269.3,551.4l-10.1,1.5l-14.5,4.1l0.6-13.7l14,5.3l10.1,2.4
		L1269.3,551.4z"/>
	<path class="st1" d="M1223.5,586.4c-2.1-0.4-3.9-0.1-5.4,1c-1.5,1.1-2.5,2.7-2.9,4.9c-0.4,2.3-0.1,4.2,0.9,5.8
		c1,1.6,2.6,2.5,4.7,2.9c2.1,0.4,3.9,0.1,5.4-1c1.5-1.1,2.4-2.8,2.9-5c0.4-2.2,0.1-4-0.8-5.6
		C1227.1,587.8,1225.6,586.8,1223.5,586.4z"/>
	<path class="st1" d="M1277.9,588.2l-9.5,2.8c0.4,0.9,0.7,1.9,1.1,3c0.3,1.1,0.6,2.2,0.8,3.4c0.2,1.2,0.3,2.3,0.3,3.4
		c0,1.1-0.1,2.2-0.3,3.1c-0.6,3-1.6,5-3.1,5.9c-1.5,0.9-3.3,1.2-5.4,0.8c-1.6-0.3-2.9-1-4-2c-1-1-2-2.2-2.8-3.6
		c-0.9-1.4-1.7-2.9-2.7-4.4c-0.9-1.6-2.1-3-3.4-4.4c-1.4-1.4-3.1-2.5-5.2-3.6c-2.1-1-4.7-1.7-7.9-2l-1.9,10c2.5,0.5,4.5,1.3,6,2.4
		c1.5,1.1,2.7,2.4,3.7,3.9c1,1.4,1.9,3,2.7,4.6c0.8,1.6,1.8,3.2,3,4.7c1.2,1.5,2.7,2.8,4.6,4c1.9,1.2,4.3,2.1,7.4,2.7
		c4.6,0.9,8.6,0,11.9-2.7c3.3-2.7,5.5-6.8,6.6-12.4c0.8-4.2,1-7.9,0.5-11C1279.9,593.6,1279.1,590.8,1277.9,588.2z"/>
	<path class="st1" d="M981.5,544.4c-8.9-1.9-19.6-6.6-28-18c-3.1-4.1-5.8-9.1-8.1-15.2c-0.1-0.3-0.5-0.5-0.9-0.4
		c-0.3,0.1-0.5,0.5-0.4,0.9c2.3,6.2,5.1,11.3,8.3,15.5c9.2,12.4,21.1,17.2,30.6,18.8c9.5,1.6,16.7,0.1,16.8,0.1
		c0.4-0.1,0.6-0.4,0.5-0.8c-0.1-0.4-0.4-0.6-0.8-0.5l0,0l-0.3,0.1C997.7,545.2,990.4,546.3,981.5,544.4z"/>
	<path class="st1" d="M874.9,546.1c0,0-0.2,0.2-0.7,0.6c-3.4,2.8-18.3,14.2-35.7,13c-0.4,0-0.7,0.3-0.7,0.6c0,0.4,0.3,0.7,0.6,0.7
		c20.6,1.3,37.4-14,37.4-14c0.3-0.2,0.3-0.7,0-0.9C875.6,545.9,875.2,545.9,874.9,546.1z"/>
	<path class="st1" d="M871.9,555c0,0-0.2,0.3-0.6,0.8c-2.4,3-12.1,14.2-25.9,18.7c0.1,0.4,0.2,0.9,0.2,1.3c16.8-5.3,27.3-20,27.4-20
		c0,0,0-0.1,0.1-0.1c0.1-0.3,0.1-0.6-0.2-0.8C872.5,554.6,872.1,554.7,871.9,555z"/>
	<path class="st1" d="M967.3,528.6c-4.5-2.5-9-6-13.6-10.6c0,0-0.1-0.1-0.1-0.1c-0.3-0.1-0.6-0.1-0.8,0.1c-0.3,0.3-0.3,0.7,0,0.9
		c4.6,4.7,9.3,8.2,13.9,10.8c7.5,4.2,14.7,5.9,21.3,6.2c4.2-1,8.3-1.4,12.4-1.1c0.7-0.1,1.3-0.3,1.9-0.5c9.4-2.4,15.3-6.7,15.4-6.7
		c0.3-0.2,0.4-0.6,0.2-0.9c-0.1-0.1-0.1-0.1-0.2-0.2c-0.2-0.1-0.5-0.1-0.7,0l0,0l-0.3,0.2c-1.3,0.9-7.5,4.8-16.4,6.8
		C991.2,535.6,979.6,535.6,967.3,528.6z"/>
	<path class="st1" d="M988.2,525c1.3-0.4,2.6-0.8,3.9-1.3c17.1-7.2,25.8-29.1,19.8-51.2c-0.6-2.4-1.4-4.6-2.3-6.8
		c-1.1-2.7-2.4-5.2-3.9-7.5l0,0c0,0,0,0,0,0c-9.3-15-25.3-23.4-40.6-19.3c-1.3,0.4-2.6,0.8-3.9,1.3c-14,5.9-22.3,21.7-21.6,39.3
		c0.1,3.9,0.7,7.9,1.8,11.9c0.6,2.4,1.4,4.8,2.4,7C952,517.9,970.6,529.7,988.2,525z M942,488.1c-0.1-0.3-0.1-0.6-0.2-0.9
		c-0.1-0.7-0.3-1.3-0.4-2c-0.1-0.5-0.1-0.9-0.2-1.4c-0.1-0.5-0.1-1-0.2-1.5c-0.1-0.6-0.1-1.1-0.1-1.7c0-0.4-0.1-0.7-0.1-1.1
		c3-11.1,10.2-21.4,23.1-26.8c1-0.4,2-0.8,3.1-1.1c1.1-0.4,2.1-0.7,3.3-1c6.3-1.6,12.3-1.3,17.8,0.2c0.5,0.1,1.1,0.3,1.6,0.5
		c0.3,0.1,0.6,0.2,0.9,0.3c0.2,0.1,0.3,0.1,0.5,0.2c0.3,0.1,0.6,0.2,0.9,0.3c0.3,0.1,0.6,0.2,0.9,0.3c0.2,0.1,0.4,0.2,0.6,0.3
		c0.2,0.1,0.5,0.2,0.7,0.3c0.3,0.1,0.6,0.3,0.9,0.4c0.3,0.1,0.5,0.2,0.7,0.4c0.2,0.1,0.4,0.2,0.5,0.3c0.3,0.1,0.5,0.3,0.8,0.4
		c0.3,0.2,0.6,0.3,0.9,0.5c0.1,0.1,0.3,0.1,0.4,0.2c0.3,0.1,0.5,0.3,0.8,0.4c0.3,0.2,0.6,0.4,0.9,0.6c0.1,0.1,0.2,0.1,0.3,0.2
		c0.2,0.1,0.4,0.3,0.7,0.4c0.3,0.2,0.6,0.4,1,0.6c0.1,0.1,0.2,0.2,0.4,0.2c0.2,0.1,0.4,0.2,0.5,0.3c0.3,0.2,0.7,0.5,1,0.7
		c0.2,0.2,0.5,0.3,0.7,0.5c0.5,0.8,0.9,1.6,1.4,2.5c0.2,0.3,0.4,0.7,0.6,1c0.6,1.2,1.2,2.5,1.7,3.7c0.9,2.1,1.6,4.3,2.3,6.6
		c0.4,1.3,0.7,2.7,0.9,4c0.1,0.5,0.2,1.1,0.2,1.6c0.1,0.8,0.3,1.6,0.4,2.4c0.1,0.8,0.1,1.6,0.2,2.4c0,0.5,0.1,1.1,0.1,1.6
		c0,0.8,0,1.7,0,2.5c0,0.5,0,0.9,0,1.4c0,0.9-0.1,1.8-0.2,2.6c0,0.4-0.1,0.8-0.1,1.2c-0.1,0.9-0.3,1.8-0.4,2.7
		c-0.1,0.3-0.1,0.7-0.2,1c-0.2,0.9-0.4,1.8-0.7,2.7c-0.1,0.3-0.1,0.6-0.2,0.9c-0.2,0.8-0.5,1.5-0.8,2.3c-0.1,0.4-0.2,0.7-0.4,1.1
		c-0.3,0.7-0.6,1.4-0.9,2.1c-0.2,0.4-0.3,0.8-0.5,1.1c-0.3,0.7-0.7,1.3-1.1,2c-0.2,0.4-0.4,0.7-0.6,1.1c-0.4,0.6-0.8,1.1-1.1,1.7
		c-0.3,0.4-0.5,0.8-0.8,1.1c-0.4,0.5-0.8,0.9-1.2,1.4c-0.3,0.4-0.6,0.8-1,1.2c-0.4,0.4-0.8,0.8-1.2,1.2c-0.4,0.4-0.7,0.8-1.1,1.1
		c-0.4,0.4-0.9,0.7-1.3,1.1c-0.4,0.3-0.8,0.7-1.3,1c-0.4,0.3-0.9,0.6-1.3,0.9c-0.5,0.3-0.9,0.6-1.4,0.9c-0.4,0.2-0.9,0.4-1.4,0.7
		c-0.5,0.3-1.1,0.6-1.6,0.8c-1.2,0.5-2.4,0.9-3.7,1.3c-16.7,4.5-34.8-6.7-42.8-25.9c-0.9-2.2-1.7-4.4-2.3-6.8
		C942.4,490,942.2,489.1,942,488.1z M961.8,441.4c1.2-0.5,2.4-0.9,3.7-1.3c13.5-3.6,27.9,3,37.1,15.8c-8.5-5.6-19.8-9.9-32.6-6.7
		c-2.3,0.6-4.5,1.3-6.5,2.2c-11.7,4.9-18.9,13.8-22.5,23.6C941.7,459.7,949.6,446.5,961.8,441.4z"/>
	<path class="st1" d="M837.4,520.4c0.5,1.9,1.1,3.7,1.8,5.5c2.9,6.8,7.5,12.3,13,15.6c5.5,3.3,11.8,4.5,18,2.7
		c0.8-0.2,1.7-0.5,2.5-0.9c12.3-5.2,18.7-21.1,14.7-36.9c-0.5-1.9-1.1-3.6-1.8-5.3c-0.7-1.7-1.5-3.3-2.5-4.9
		c-6.4-10.7-17.7-16.6-28.5-13.6c-0.8,0.2-1.7,0.5-2.5,0.9c-10.1,4.2-16.2,15.7-15.8,28.5c0,0,0,0,0,0
		C836.3,514.7,836.7,517.6,837.4,520.4z M872.1,542.1c-0.8,0.3-1.5,0.6-2.3,0.8c-0.5,0.1-1,0.2-1.5,0.3c-0.3,0.1-0.7,0.1-1,0.2
		c-0.4,0.1-0.8,0.1-1.1,0.1c-0.3,0-0.7,0.1-1,0.1c-0.4,0-0.8,0-1.2,0c-0.3,0-0.6,0-1,0c-0.4,0-0.8-0.1-1.2-0.1
		c-0.3,0-0.6-0.1-0.9-0.1c-0.4-0.1-0.8-0.2-1.2-0.3c-0.3-0.1-0.6-0.1-0.9-0.2c-0.4-0.1-0.8-0.3-1.3-0.4c-0.3-0.1-0.5-0.2-0.8-0.3
		c-0.5-0.2-0.9-0.4-1.4-0.6c-0.2-0.1-0.4-0.2-0.6-0.3c-0.7-0.3-1.3-0.7-2-1.1c-5.2-3.1-9.7-8.3-12.4-14.9c-0.7-1.7-1.3-3.4-1.8-5.3
		c-0.3-1.4-0.6-2.7-0.8-4.1c-0.1-0.5-0.1-1-0.1-1.6c-0.1-0.8-0.2-1.6-0.2-2.4c2-7,6.2-13.6,13.4-17.7c1-0.6,2.1-1.1,3.3-1.6
		c1.3-0.5,2.6-1,4-1.4c4.5-1.2,8.7-1,12.5,0c1,0.3,1.9,0.6,2.8,0.9c0.1,0,0.2,0.1,0.3,0.1c0.3,0.1,0.7,0.3,1,0.5
		c-0.3-0.1-0.6-0.3-1-0.4c0.9,0.4,1.8,0.8,2.6,1.2c-0.5-0.3-1.1-0.5-1.6-0.7c0.6,0.3,1.1,0.5,1.7,0.8c0.1,0,0.2,0.1,0.2,0.1
		c0.4,0.2,0.7,0.4,1.1,0.6c-0.4-0.2-0.7-0.4-1.1-0.6c0.8,0.4,1.6,0.9,2.4,1.4c-0.4-0.3-0.9-0.5-1.4-0.8c0.5,0.3,1,0.6,1.5,0.9
		c0,0,0.1,0,0.1,0.1c0.4,0.3,0.8,0.6,1.2,0.8c-0.4-0.3-0.7-0.5-1.1-0.8c0.8,0.5,1.6,1,2.3,1.6c-0.4-0.3-0.8-0.5-1.2-0.8
		c0.4,0.3,0.8,0.6,1.2,0.8c0.3,0.4,0.5,0.9,0.7,1.3c0.2,0.3,0.3,0.6,0.5,0.9c0.4,0.8,0.8,1.6,1.1,2.4c0.7,1.6,1.3,3.3,1.7,5.1
		c0.3,1,0.5,2.1,0.6,3.1c0.1,0.3,0.1,0.7,0.1,1c0.1,0.7,0.2,1.4,0.2,2.1c0,0.4,0,0.8,0.1,1.2c0,0.6,0,1.3,0,1.9c0,0.4,0,0.8,0,1.2
		c0,0.6-0.1,1.3-0.1,1.9c0,0.4-0.1,0.8-0.1,1.1c-0.1,0.7-0.2,1.3-0.3,2c-0.1,0.3-0.1,0.6-0.2,0.9c-0.2,0.9-0.4,1.9-0.7,2.8
		c0,0,0,0.1,0,0.1c-0.3,0.9-0.6,1.7-0.9,2.6c-0.1,0.3-0.2,0.5-0.4,0.8c-0.3,0.6-0.5,1.1-0.8,1.7C881,536.1,877,540.1,872.1,542.1z
		 M870.8,491.3c1,0.3,1.9,0.6,2.8,0.9C872.7,491.9,871.8,491.6,870.8,491.3z M852.6,484.7c0.7-0.3,1.5-0.6,2.3-0.8
		c9.1-2.6,18.7,1.7,25.1,10.1c-5.8-3.6-13.5-6.3-22.1-4l0,0c-1.5,0.4-2.9,0.9-4.2,1.4c-8.1,3.4-13.2,9.5-16,16.2
		C838.7,497.2,844.3,488.2,852.6,484.7z"/>
	<path class="st1" d="M974.9,519.9c0.5,0,1,0.1,1.5,0.1c9.8,0,18.2-8.4,19.2-19.5c1-11.6-6.6-21.8-17-22.7c-0.5,0-1-0.1-1.5-0.1
		c-9.8,0-18.2,8.4-19.2,19.5C956.9,508.8,964.5,519,974.9,519.9z M959.4,497.3c0.9-10.1,8.7-18.1,17.7-18.1c0.5,0,0.9,0,1.4,0.1
		c4.6,0.4,8.8,2.8,11.7,6.8c3,4,4.4,9.1,3.9,14.4c-0.9,10.1-8.7,18.1-17.7,18.1c-0.5,0-0.9,0-1.4-0.1c-4.6-0.4-8.8-2.8-11.7-6.8
		C960.3,507.6,958.9,502.5,959.4,497.3z"/>
	<path class="st1" d="M975.3,515.4c8.2,0.7,15.5-6.1,16.3-15.3c0.8-9.2-5.2-17.2-13.4-17.9c-8.2-0.7-15.5,6.1-16.3,15.3
		C961.1,506.7,967.1,514.7,975.3,515.4z"/>
	<path class="st1" d="M869.4,509.6c-0.3,0-0.7,0-1,0c-6.5,0-12,5.5-12.7,12.8c-0.7,7.7,4.3,14.4,11.2,15c0.3,0,0.7,0,1,0
		c6.5,0,12-5.5,12.7-12.8C881.3,516.9,876.2,510.2,869.4,509.6z M867.9,535.9c-0.3,0-0.6,0-0.9,0c-2.9-0.3-5.5-1.8-7.4-4.3
		c-1.9-2.5-2.8-5.8-2.5-9.1c0.6-6.4,5.5-11.5,11.2-11.5c0.3,0,0.6,0,0.9,0c6,0.5,10.5,6.5,9.9,13.4
		C878.5,530.9,873.6,535.9,867.9,535.9z"/>
	<path class="st1" d="M869,513.5c-4.9-0.4-9.3,3.7-9.8,9.2c-0.5,5.5,3.1,10.3,8,10.8c4.9,0.4,9.3-3.7,9.8-9.2
		C877.5,518.8,873.9,513.9,869,513.5z"/>
	<path class="st1" d="M858.4,681.5c-0.3,1.8-0.6,2.9-0.6,2.9c-0.1,0.3,0.1,0.6,0.4,0.7c0.3,0.1,0.6-0.1,0.7-0.4c0,0,0.3-1.1,0.6-2.9
		c1-5.7,2.6-18.2-1.9-26.2c-0.1-0.3-0.5-0.4-0.7-0.2c-0.3,0.1-0.4,0.5-0.2,0.7C860.9,663.5,859.5,675.9,858.4,681.5z"/>
	<path class="st1" d="M1143.6,747.4c28.3-92.1,0.4-127.9-27.7-148.6c0.2-1,0.4-1.9,0.6-2.9c0.1-0.3,0.1-0.6,0.2-0.9
		c2.8-16.1-5.9-34.3-12.9-56.6c-0.8-2.4-1.3-5-1.7-7.7c-0.1-0.6-0.2-1.2-0.3-1.8c0-0.4-0.1-0.7-0.1-1.1c-0.1-0.6-0.1-1.2-0.2-1.8
		c0,0,0-0.1,0-0.1c0,0,0,0,0,0c2.9,1.1,6.3,4,9.1,6.8c1.7,1.7,3.2,3.4,4.2,4.7c1,1.3,1.7,2.1,1.7,2.1c0.2,0.2,0.4,0.3,0.7,0.2
		c0.3-0.1,0.5-0.3,0.5-0.5c0.6-3.6-0.1-7.1-1.4-10.3c-3-7-9-12.7-11.7-15c3.5-0.2,6.5-0.9,8.8-1.9c5.4-2.3,7.8-6.1,8.8-9.4
		c1-3.3,0.6-5.9,0.6-6c0-0.3-0.3-0.6-0.7-0.6c-0.3,0-0.6,0.3-0.6,0.6l0,0l0,0h0c0,0.1-0.2,2.8-4,4.4c-1.1,0.5-2.5,0.8-4.4,1
		c-1.6,0.1-2.9-0.2-4.1-1.2c-1.2-1-2.3-2.6-3.3-4.9c-0.7-1.6-1.2-3.4-1.8-5.6c0.1-0.3,0.1-0.7,0.2-1c0.1-0.4,0.1-0.7,0.2-1.1
		c0-0.1,0-0.1,0-0.2c0,0,0-0.1,0-0.1c0.1-0.6,0.2-1.2,0.2-1.7c0-0.2,0-0.3,0.1-0.5c0-0.1,0-0.1,0-0.2c0.1-0.5,0.1-0.9,0.1-1.3
		c0-0.1,0-0.2,0-0.3c0-0.5,0.1-1,0-1.4c0-0.1,0-0.1,0-0.2c0,0,0,0,0,0c0,0,0,0,0,0c0,0,0-0.1,0-0.1c0-0.1,0-0.1,0-0.2
		c0-0.1,0-0.1,0-0.2c0-0.1,0-0.1,0-0.2c0,0,0,0,0-0.1c0-0.2-0.1-0.3-0.2-0.5c-0.6-0.8-1.4-1.2-2.3-1.3c0,0,0,0,0,0
		c-0.8-6.6-1.5-14.7-2-24.4c-0.5-9.7-2.8-18.4-5.9-25.8c-6.5-15.6-16.4-25.5-19.1-28.1c0.1-0.1,0.3-0.1,0.4-0.2
		c3.7-1.6,7.3-2.3,9.9-2.6c1.3-0.2,2.4-0.2,3.1-0.2c0.4,0,0.7,0,0.9,0l0.3,0l0.6-0.3c0.1-0.2,0.1-0.5,0-0.7c-3.7-5.3-8.6-7-12.9-7.2
		c-3.5-0.1-6.6,0.7-8.7,1.4c3.6-4.9,4.7-10,4.7-14.2c0-4.8-1.4-8.5-1.9-9.7c-0.1-0.2-0.2-0.4-0.2-0.4c-0.1-0.2-0.3-0.4-0.6-0.4
		l-0.6,0.4c-1.9,3.8-4.1,6.6-5.8,8.5c-0.1,0.1-0.1,0.1-0.2,0.2c7-15,3.1-28.9,0.2-35.9c-1.3-3.1-2.4-4.8-2.4-4.9
		c-0.2-0.3-0.5-0.4-0.8-0.3c-0.3,0.1-0.5,0.4-0.5,0.7c0.4,6.4-0.7,10.7-1.9,13.5c-0.4,0.8-0.7,1.4-1,2c1.6-11.8-0.8-22.6-4.4-31.2
		c-4.3-10.3-10.3-17.7-12.9-20.8c-0.8-1-1.4-1.5-1.4-1.5c-0.2-0.2-0.5-0.3-0.8-0.1c-0.3,0.1-0.4,0.4-0.4,0.7
		c2.1,15.4-10.8,31.9-24.4,44.3c-6.8,6.2-13.7,11.5-18.9,15.2c-2.6,1.8-4.8,3.3-6.3,4.3c-1.1,0.7-1.9,1.2-2.2,1.4
		c-31.2-5.2-58.1,0.7-79.1,9.5c-14.8,6.2-26.7,13.8-35.2,20c-4.2,3.1-7.6,5.8-10.1,7.9c-1.2,1-2.2,1.8-3,2.4c-0.6,0.5-1.1,0.9-1.3,1
		c-17.3-4.9-26.7-17.2-31.7-29.3c-3.1-7.4-4.6-14.8-5.3-20.3c-0.4-2.8-0.5-5-0.6-6.6c0-0.8,0-1.4-0.1-1.8c0-0.4,0-0.6,0-0.6
		c0-0.3-0.2-0.6-0.5-0.7c-0.3-0.1-0.6,0.1-0.8,0.4c-12.5,25.9-7.7,48.7-1.8,62.7c2.3,5.5,4.7,9.6,6.4,12.1
		c-4.8-3.7-8.1-9.1-10.3-14.3c-1.5-3.6-2.5-7.1-3.1-9.7c-0.3-1.3-0.5-2.3-0.6-3.1c-0.1-0.7-0.2-1.1-0.2-1.1c0-0.3-0.3-0.6-0.6-0.6
		c-0.3,0-0.6,0.2-0.7,0.5c-4.9,19-2.4,33.7,2,44.3c4.8,11.3,11.7,17.8,13.9,19.6c-2.3,1.8-3.5,4.7-4,7.3c-0.6,2.9-0.6,5.3-0.6,5.4
		c0,0.3,0.2,0.6,0.5,0.6c0.3,0.1,0.6-0.1,0.7-0.3c1.7-3.2,4.1-4.9,5.8-5.7c-11.5,17.8-10.8,38.9-7.7,57.5c-5.6,5.5-8.6,13.3-10,21.3
		c-2,11.3-1.1,22.8-0.5,28.1c-4.5-7.7-10.4-10.3-14.6-11c-3-0.5-5.1-0.2-5.1-0.2l-0.4,0.3l0.1,0.5c4.5,5.9,4.9,14.3,3.3,23
		c-0.1,0.7-0.3,1.5-0.4,2.2c-0.2,1-0.4,2-0.7,3c0,0.1-0.1,0.2-0.1,0.3c-0.2,0.9-0.5,1.8-0.8,2.7c-0.1,0.3-0.2,0.6-0.3,0.9
		c-0.2,0.7-0.4,1.4-0.7,2.1c-0.1,0.3-0.2,0.6-0.3,0.9c-0.2,0.6-0.4,1.1-0.6,1.7c0.2-0.6,0.4-1.1,0.6-1.7c-0.3,0.7-0.5,1.5-0.8,2.2
		c0.1-0.2,0.1-0.3,0.2-0.5c-0.1,0.2-0.1,0.4-0.2,0.5c-0.1,0.2-0.1,0.4-0.2,0.6c-0.3,0.7-0.5,1.4-0.8,2.1c0.3-0.7,0.5-1.4,0.8-2.1
		c-0.4,0.9-0.7,1.8-1.1,2.7c0.1-0.2,0.2-0.5,0.3-0.7c-0.1,0.2-0.2,0.5-0.3,0.7c-0.1,0.2-0.1,0.3-0.2,0.5c-0.3,0.7-0.6,1.5-0.9,2.2
		c-0.1,0.3-0.2,0.5-0.3,0.8c-0.3,0.7-0.6,1.3-0.9,1.9c-0.1,0.2-0.2,0.4-0.3,0.6c-0.4,0.8-0.7,1.6-1.1,2.3c0,0,0,0,0,0
		c-1.6,3.3-3.1,6-4.2,8c-1.1,2-1.8,3.2-1.9,3.2c-0.4,0.4-12,14.2-15,30.9c-1.4,7.6-0.9,15.9,3.3,23.8c-0.6-0.3-1.2-0.7-1.9-1.3
		c-2-1.4-4.4-3.7-6.1-6.8c-0.1-0.2-0.4-0.3-0.6-0.3c-0.2,0.1-0.4,0.3-0.4,0.5c0,0-0.3,7.4,2.2,16.6c1.2,4.3,3,9.1,5.7,13.6
		c-7.5-0.6-18.3-1.2-25.9-1.7v-76.2c0-7.5-18.5-29.5-18.5-29.5v-40c0,0,0,0,0,0c0,0,0,0,0,0v-0.1l0,0c-0.2-2.9-5.9-5.3-12.9-5.3
		c-7,0-12.7,2.3-12.9,5.3l0,0v40.2c0,0-18.5,22-18.5,29.5v4.8c0,0,0,0,0-0.1v58.4c0,0,0,0,0,0.1v8.9c-26-44.1-41-95.5-41-150.3
		c0-75.5,28.4-147.5,79.9-202.6l-2.2-2c-52,55.7-80.7,128.4-80.7,204.6C630,706.4,764.5,841,929.9,841
		c120.8,0,229.3-71.9,276.3-183.2l-2.7-1.2C1188.9,691,1168.5,721.6,1143.6,747.4z M1141.3,749.7c-4.2,4.3-8.5,8.4-13,12.4
		c-14.3-4.3-30.3-8.8-47.9-13.4c17.3-8.5,33.7-22.9,45.8-46.3l0,0c6.9-12.7,9.3-30.9,6.8-50.3c0,0,0-0.1,0-0.1c0,0-0.1-0.5-0.2-1.2
		c0-0.1,0-0.2,0-0.2l0,0c-0.4-2-1.2-5.7-3.3-9.9c-2.9-6-8.2-12.9-17.5-17.1c-0.6-0.5-1.4-0.8-2.2-1c0.7-2.3,3.4-10.9,5.7-22.1
		C1143.3,621.1,1170.6,657.1,1141.3,749.7z M1115.2,594.7c-0.1,0.3-0.1,0.6-0.2,0.9c-2.1,11.5-4.8,21-6,25c-0.2,0.8-0.4,1.3-0.5,1.7
		c-3.7-0.5-8.7,0.6-12.5,2.3c-4.5,2.1-9.6,6.7-13.9,11.1c2.3-3.6,4.4-7.4,4.8-10c0.1-0.6,0.1-1.1,0-1.6c-0.1-0.5-0.4-1-0.8-1.3
		c-0.3-0.2-0.6-0.3-0.9-0.3c-1-0.2-2.5,0-4.5,0.4c-2,0.4-4.4,1.1-7.2,2.1c-5.5,1.9-12.4,5-19.4,9.1c-14.1,8.3-28.9,20.9-35.4,38
		c-0.1,0.4,0,0.8,0.4,0.9c0.4,0.1,0.8,0,0.9-0.4c5.5-14.6,17.4-25.9,29.6-34c12.2-8.1,24.7-12.9,31.3-14.2c1.9-0.4,3.3-0.5,3.9-0.4
		l0.3,0.1l0.2,0.5c0.1,0.3,0,0.6,0,1.1c-0.4,2-2.1,5.4-4.1,8.7c-2,3.3-4.4,6.6-5.9,8.8c-1,1.4-1.7,2.3-1.7,2.3
		c-0.1,0.1-0.1,0.2-0.1,0.4l0,0.2l0,0c0,0.2,0.1,0.4,0.3,0.5c0.2,0.1,0.3,0.2,0.5,0.1l0,0l0.1-0.1c0.1,0,0.2-0.1,0.3-0.2l0,0l0,0
		c0,0,0,0,0,0c0,0,0.8-1,2.1-2.6c1.3-1.6,3.2-3.7,5.3-6c4.3-4.5,9.8-9.6,14.2-11.6c3.8-1.7,9-2.7,12.3-2.1c0.5,0.1,1,0.2,1.4,0.4
		c0.1,0.1,0.2,0.2,0.3,0.3c0.3,0.1,0.5,0.2,0.7,0.3c0.1,0.1,0.2,0.1,0.2,0.2c0.5,0.6,0.8,1.3,0.6,2.5c-0.3,2-2.2,5.1-6.3,9.4
		c-8.1,8.4-15.2,25.7-20.4,40.9c-5.1,15.2-8.3,28.4-8.3,28.4c-0.1,0.4,0.1,0.8,0.5,0.9c0.4,0.1,0.8-0.1,0.9-0.5c0,0,0.8-3.3,2.2-8.4
		c1.4-5.2,3.5-12.2,6.1-19.8c1.2-3.4,2.4-7,3.8-10.5c4.9,10,3,25.4,1.7,32.5c-0.4,2.4-0.8,3.8-0.8,3.8c-0.1,0.4,0.1,0.8,0.5,0.9
		c0.4,0.1,0.8-0.1,0.9-0.5c0,0,0.4-1.5,0.8-3.9c1.3-7.5,3.5-24-2.4-34.6c4.5-11.3,9.9-22.2,15.6-28.1c4.2-4.4,6.3-7.6,6.7-10.1
		c0.1-0.7,0.1-1.4,0-2c6.6,3.5,10.9,8.4,13.6,13.2c2.9,5,4,9.7,4.4,11.9c2.9,19.6,0.5,38.1-6.4,50.9l0.7,0.4l-0.7-0.4
		c-14.7,28.3-35.7,43.3-56.9,50.5c-21.2,7.2-42.5,6.7-57.4,4c-7.7-1.4-13.7-3.4-17.2-5.1c-4.4-2.2-8.6-3.5-12.3-4.2
		c-8.1-1.5-14.4-0.1-17.3,0.9c2.8-4.7,6.6-6.9,10.1-7.9c3.9-1.1,7.6-0.6,9.1-0.4c0.5,0.1,0.7,0.1,0.7,0.1c0.3,0.1,0.7-0.1,0.8-0.4
		c0.1-0.3,0-0.7-0.3-0.9c-24.8-16.2-27.4-46.2-27.6-54.9c4.9,7.2,11.9,10.2,12,10.2c0.3,0.1,0.6,0,0.8-0.2c0.2-0.2,0.2-0.6,0.1-0.8
		c-6.4-10.6-7.2-22-5.3-32.5c3.5-19.2,15.8-35.7,18.9-39.4c0.4-0.5,0.7-0.8,0.7-0.8l0.1-0.1c0,0,3.8-6,8.1-15c0,0,0,0,0,0
		c4-5.5,8.1-13.4,11.9-21.1c3.9-7.7,7.6-15.2,10.7-19.7c1.6-2.3,3.3-2.9,5.2-2.6c3.1,0.5,6.9,4,10.2,8.1c3.4,4.2,6.3,9,8.2,12.2
		c1.2,2.1,1.9,3.5,1.9,3.5c0.2,0.3,0.5,0.5,0.8,0.4c0.3-0.1,0.4-0.3,0.5-0.6c0-0.1,0-0.2,0-0.2c0,0-0.3-1.9-0.6-4.9
		c-0.4-3-0.8-7.2-1.2-11.9c-0.7-9.4-1.1-20.7,0.3-28.4c0,0,0,0,0,0c0,0,0,0,0,0c0.5-3,1.4-5.5,2.5-6.9c1.6-2.1,3.2-2.6,5.2-2.2
		c2.4,0.4,5.2,2.4,7.6,4.7c2.4,2.3,4.5,5,5.8,6.8c0.3,0.4,0.6,0.8,0.8,1.1c1.1,2.5,1.9,4.2,1.9,4.2c0.2,0.4,0.6,0.5,0.9,0.4
		c0.4-0.2,0.5-0.6,0.4-0.9c0,0-0.5-1.2-1.3-3c0,0,0-0.1,0-0.1c0,0,0,0,0-0.1c0,0,0.2-2,0.6-5c0.4-3,0.9-7.1,1.7-11.2
		c0-0.1,0-0.1,0-0.2c1.1-6.2,2.7-12.5,4.5-15.5c0.6-1,1.2-1.6,1.7-1.7l0.3,0c0.4,0.1,1,0.4,1.7,1.1c0.7,0.7,1.6,1.6,2.5,2.8
		c1.8,2.4,3.8,5.6,5.8,9.2c3.8,6.6,7.6,14.4,10.3,20c0,0,0,0,0,0c2.4,6.4,4.2,11,4.2,11c0.1,0.4,0.6,0.5,0.9,0.4
		c0.4-0.1,0.5-0.6,0.4-0.9c0,0-0.4-1-1.1-2.7c0.2-0.1,0.3-0.3,0.3-0.5c0-0.1,0-0.2,0-0.4c0,0-0.3-0.7-0.7-2c-0.4-1.2-1-3-1.6-5
		c-1.2-4-2.6-9.2-3.4-13.7c-0.5-2.9-0.7-5.6-0.4-7.3c0,0,0,0,0,0c0,0,0,0,0,0c0.2-1,0.5-1.6,0.9-1.8c0.3-0.2,0.6-0.2,0.9-0.2
		c0.5,0.1,1.1,0.5,1.8,1.3c0.7,0.8,1.4,1.8,2,3c1.3,2.4,2.5,5.3,3.3,7.7c0,0,0,0.1,0,0.1c0,0,0,0,0,0c0.4,2.3,0.9,4.5,1.6,6.7
		C1109.4,561.2,1117.9,579.3,1115.2,594.7z M894.6,711.6c-1.9-22.3,3.1-37.1,4.3-40.4c0.2-0.5,0.3-0.7,0.3-0.7
		c0.1-0.3,0-0.6-0.2-0.8c-0.3-0.2-0.6-0.2-0.8,0.1c-3.7,3.4-5.5,8.4-6.2,10.9c-0.3-0.6-0.7-1.3-1.2-2.3c-1-2.4-2.2-5.9-2.6-10.7
		c-0.5-5.3,0-12.2,2.5-20.8c1.9-6.3,5-12.8,8.6-18.9c19.6,6.2,45.6,8.8,75.9,1.5c-4.7,7.5-10.2,18.3-12.3,30.3
		c-1.8,10.1-1.2,21.1,4.3,31.4c-0.7-0.4-1.6-1-2.6-1.7c-2.6-1.9-5.8-4.8-8.1-9c-0.2-0.3-0.5-0.4-0.8-0.3c-0.3,0.1-0.5,0.3-0.5,0.7
		c0,0-0.4,9.8,2.9,22c1.8,6.5,4.7,13.8,9.3,20.7C944.6,719.4,920.3,715.4,894.6,711.6z M1000.7,539.6c1.1,0,2.7,0,4.6,0.4
		c5.8,1.1,14.3,4.8,20.2,17.4c0.1,0.1,0.2,0.2,0.3,0.3c0,0,0.1,0,0.1,0c0,0,0.1,0,0.1,0c0.1,0,0.2,0,0.3,0c0.2,0,0.3-0.2,0.4-0.3
		c0,0,0-0.1,0.1-0.1c0-0.1,0.1-0.1,0.1-0.2c0-0.1,0-0.2,0-0.2c0,0-0.2-1.3-0.5-3.5c-0.3-2.3-0.6-5.5-0.8-9.3
		c-0.4-6.7-0.4-15.4,0.8-24.1c0.1-0.5,0.2-1.1,0.3-1.6c0.1-0.7,0.2-1.4,0.3-2.2c0.2-0.9,0.3-1.7,0.5-2.6c0.1-0.3,0.1-0.6,0.2-0.8
		c0.1-0.6,0.3-1.2,0.4-1.7c0.1-0.3,0.2-0.7,0.3-1c0.1-0.5,0.3-1,0.4-1.5c0.1-0.4,0.2-0.7,0.3-1.1c0.2-0.5,0.3-1,0.5-1.5
		c0.1-0.4,0.3-0.7,0.4-1.1c0.2-0.5,0.3-0.9,0.5-1.4c0.1-0.4,0.3-0.7,0.4-1.1c0.2-0.4,0.4-0.9,0.6-1.3c0.2-0.3,0.3-0.7,0.5-1
		c0.2-0.4,0.4-0.9,0.6-1.3c0.2-0.3,0.4-0.7,0.5-1c0.2-0.4,0.4-0.8,0.7-1.2c0.2-0.3,0.4-0.7,0.6-1c0.2-0.4,0.5-0.8,0.7-1.2
		c0.2-0.3,0.4-0.6,0.7-0.9c0.3-0.4,0.5-0.7,0.8-1.1c0.2-0.3,0.5-0.6,0.7-0.9c0.3-0.3,0.6-0.7,0.9-1c0.3-0.3,0.5-0.6,0.8-0.8
		c0.3-0.3,0.6-0.6,0.9-1c0.3-0.3,0.6-0.5,0.9-0.8c0.3-0.3,0.7-0.6,1-0.9c0.3-0.2,0.6-0.5,0.9-0.7c0.4-0.3,0.7-0.5,1.1-0.8
		c0.3-0.2,0.7-0.4,1-0.7c0.4-0.2,0.8-0.5,1.2-0.7c0.4-0.2,0.7-0.4,1.1-0.6c0.2-0.1,0.5-0.2,0.7-0.4c0,0,0,0.1,0,0.1
		c0,0.2,0,0.5,0,0.8c0,0.2,0,0.3,0,0.5c0,0.2,0,0.4,0,0.7c0,0.2,0,0.4,0,0.6c0,0.4,0,0.8,0,1.3c0,0.2,0,0.4,0,0.6c0,0.3,0,0.7,0,1.1
		c0,0.2,0,0.4,0,0.7c0,0.6,0,1.1,0.1,1.7c0,0.2,0,0.4,0,0.6c0,0.6,0.1,1.1,0.1,1.7c0,0.1,0,0.3,0,0.4c0,0.7,0.1,1.4,0.1,2.2
		c0,0.2,0,0.4,0,0.6c0.1,0.8,0.1,1.6,0.2,2.4c0.8,9.5,2.6,20.7,6.7,27.9c0.1,0.2,0.3,0.3,0.4,0.3c0,0,0,0,0.1,0c0,0,0,0,0,0
		c0,0.1,0.1,0.2,0.1,0.3c0.2,0.6,0.5,1.3,0.7,1.9c0.1,0.1,0.1,0.3,0.2,0.4c0.3,0.8,0.6,1.6,0.9,2.4c0.1,0.1,0.1,0.3,0.2,0.4
		c0.3,0.7,0.6,1.4,0.9,2.1c0.1,0.2,0.1,0.3,0.2,0.5c0.3,0.7,0.6,1.5,0.9,2.2c0,0.1,0.1,0.2,0.1,0.3c-0.3-0.4-0.7-0.8-1.1-1.2
		c-3-3.3-6.8-6.8-10.7-7.6c-2.3-0.5-4.8,0.3-6.6,2.8c-1.3,1.8-2.2,4.4-2.7,7.6c-2.2,12.4-0.1,33.4,0.9,41.9
		c-2.4-4.3-7.1-11.7-12-16.6c-2.4-2.4-5-4.2-7.5-4.7c-2.4-0.5-4.9,0.5-6.7,3.2c-3.2,4.7-6.9,12.2-10.8,19.9c-2,4-4.1,8.1-6.2,11.8
		c0,0,0,0,0,0c0.6-1.5,1.3-3.1,1.9-4.7c0,0,0-0.1,0-0.1c0.6-1.5,1.1-3.1,1.7-4.7c0-0.1,0.1-0.2,0.1-0.2c0,0,0,0,0,0c0,0,0,0,0,0
		c0-0.1,0.1-0.2,0.1-0.4c0.4-1.1,0.7-2.2,1-3.3c0-0.1,0.1-0.2,0.1-0.3c0.3-1,0.6-2.1,0.9-3.1c0.1-0.2,0.1-0.5,0.2-0.7
		c0.3-1.1,0.5-2.1,0.8-3.2c0.1-0.2,0.1-0.5,0.2-0.7c0.2-1.1,0.5-2.2,0.7-3.3c0,0,0,0,0,0c0,0,0,0,0,0c0.2-1.4,0.5-2.8,0.6-4.1
		c0.1-0.4,0.1-0.8,0.1-1.2c0.1-1,0.2-1.9,0.3-2.9c0-0.5,0-1,0.1-1.5c0-0.9,0-1.7,0-2.6c0-0.5,0-1-0.1-1.5c0-0.8-0.1-1.6-0.2-2.4
		c-0.1-0.5-0.1-1-0.2-1.5c-0.1-0.8-0.2-1.5-0.4-2.3c-0.1-0.5-0.2-1-0.3-1.5c-0.2-0.7-0.4-1.4-0.6-2.2c-0.2-0.5-0.3-0.9-0.5-1.4
		c-0.3-0.7-0.6-1.4-1-2.1c-0.2-0.4-0.4-0.8-0.6-1.2c-0.1-0.1-0.1-0.2-0.1-0.3c-0.3-0.6-0.7-1.2-1.1-1.7
		C1000.4,539.6,1000.5,539.6,1000.7,539.6z M1058.6,503.8c0.1-0.7,0.3-1.5,0.4-2.2c0.1-0.5,0.2-1,0.3-1.6c0.2-0.8,0.4-1.6,0.6-2.4
		c0.1-0.4,0.2-0.8,0.3-1.3c0.2-0.9,0.5-1.7,0.7-2.6c0.1-0.4,0.2-0.7,0.3-1.1c0.3-0.8,0.6-1.6,0.8-2.4c0.1-0.4,0.2-0.7,0.4-1.1
		c0.3-0.8,0.7-1.6,1-2.3c0.1-0.3,0.3-0.7,0.4-1c0.4-0.8,0.8-1.6,1.3-2.4c0.1-0.2,0.2-0.4,0.3-0.6c1.1-1.9,2.4-3.6,3.9-4.9
		c0,0,0.1-0.1,0.1-0.1c0.1-0.1,0.2-0.2,0.4-0.3c0.3-0.3,0.8-0.6,1.4-1c0.3-0.2,0.5-0.3,0.8-0.5c0,0,0.1,0,0.1-0.1
		c0.2-0.1,0.5-0.2,0.7-0.3c0.1,0,0.2,0,0.2-0.1c0.2-0.1,0.3-0.1,0.5-0.1c0.1,0,0.2,0,0.3,0c0.1,0,0.2,0,0.3,0l0.4,0.2
		c0.1,0.1,0.2,0.3,0.3,0.6c0.4,1.8,1,7.5,2.1,14.4c1.1,6.9,2.8,15,5.5,21.8c0.1,0.2,0.2,0.3,0.3,0.4c0,0.1,0,0.2,0.1,0.3
		c0.1,0.5,0.2,1,0.4,1.5c0,0.1,0.1,0.2,0.1,0.4c0.2,0.6,0.3,1.3,0.5,1.9c0,0.1,0.1,0.3,0.1,0.4c0.2,0.5,0.3,1.1,0.5,1.6
		c0.1,0.2,0.1,0.4,0.2,0.6c0.2,0.6,0.3,1.1,0.5,1.7c0,0.1,0.1,0.3,0.1,0.4c0.2,0.7,0.4,1.4,0.7,2.1c0,0.2,0.1,0.3,0.1,0.5
		c0.2,0.6,0.4,1.2,0.6,1.7c0.1,0.2,0.1,0.4,0.2,0.6c0.2,0.6,0.4,1.2,0.6,1.8c0,0.1,0.1,0.2,0.1,0.4c0.2,0.7,0.5,1.4,0.7,2.1
		c0,0.1,0,0.1,0.1,0.2c-4.1-8-8.8-16.3-12.4-20.2c-1.2-1.2-2.2-2.1-3.3-2.3c-0.3-0.1-0.7-0.1-1,0.1c-1,0.3-1.8,1.2-2.5,2.3
		c-0.7,1.1-1.3,2.6-1.9,4.3c-1.1,3.4-2.1,7.7-2.8,11.9c-1,5.6-1.7,11-2,13.9c-0.1-0.2-0.2-0.4-0.3-0.6c-0.2-0.6-0.5-1.1-0.7-1.7
		c-0.9-2.1-1.9-4.5-2.8-6.8c0,0,0,0,0,0c-0.4-1.1-0.9-2.2-1.3-3.3c0,0,0-0.1-0.1-0.1c-0.4-1-0.7-2-1-2.9c0-0.1,0-0.1-0.1-0.2
		c0-0.2,0-0.4,0-0.6c0-1.2,0.1-3,0.2-5.1C1057,515.5,1057.6,509.8,1058.6,503.8z M1084.8,496.7c0-0.2,0.1-0.3,0.1-0.5
		c0.2-0.6,0.3-1.2,0.5-1.8c0.1-0.2,0.1-0.4,0.2-0.5c0.2-0.6,0.4-1.2,0.7-1.8c0.1-0.2,0.2-0.4,0.3-0.6c0.3-0.6,0.5-1.1,0.8-1.7
		c0.1-0.2,0.3-0.4,0.4-0.6c0.3-0.5,0.6-1,1-1.6c0.2-0.2,0.4-0.4,0.5-0.6c0.4-0.5,0.7-0.9,1.1-1.4c0.2-0.3,0.5-0.5,0.8-0.7
		c0.4-0.4,0.8-0.8,1.2-1.1c0.3-0.3,0.7-0.5,1.1-0.7c0.4-0.3,0.8-0.6,1.2-0.9c0,0,0.1,0,0.2,0c0.1,0,0.3-0.1,0.5-0.1
		c0.5-0.1,1.1-0.3,1.8-0.4c0.4-0.1,0.7-0.1,1.1-0.2c0.2,0,0.4,0,0.6-0.1c0.2,0,0.4-0.1,0.6-0.1c0.2,0,0.3,0,0.5,0c0.2,0,0.4,0,0.7,0
		c0.1,0,0.3,0,0.4,0c0.2,0,0.4,0,0.6,0.1c0.4,0.1,0.7,0.2,0.9,0.3c0.1,0,0.1,0.1,0.1,0.1c0.1,0.1,0.3,0.2,0.4,0.3l0,0l0,0l0,0l0,0
		l0,0.1l0,0.2c0,0.1,0,0.2,0,0.2c0,0.1,0,0.2,0,0.4c0,0,0,0.1,0,0.1c0,0.2,0,0.3,0,0.5c0,0.4-0.1,0.8-0.1,1.3c0,0.2,0,0.4-0.1,0.5
		c-0.1,0.5-0.1,1-0.2,1.5c-0.1,0.4-0.1,0.9-0.2,1.3c-0.2,1.3-0.4,2.8-0.6,4.3c0,0,0,0,0,0.1c-0.1,0.9-0.3,1.8-0.4,2.7
		c-0.1,0.4-0.1,0.9-0.2,1.3c-0.1,0.8-0.2,1.5-0.3,2.3c0,0.1,0,0.2,0,0.3c-0.1,0.6-0.1,1.2-0.2,1.8c-0.1,0.5-0.1,0.9-0.2,1.4
		c0,0.4-0.1,0.8-0.1,1.2c-0.1,0.8-0.2,1.6-0.2,2.3c0,0.5-0.1,1-0.1,1.5c0,0.3-0.1,0.6-0.1,1c0,0.5-0.1,1.1-0.1,1.6
		c0,0.6-0.1,1.1-0.1,1.7c0,0.5,0,1-0.1,1.5c0,0.4,0,0.9-0.1,1.3c0,0.2,0,0.4,0,0.5c0,0.5,0,1.1,0,1.6c0,0.9,0,1.9,0,2.8
		c0,0.2,0,0.4,0,0.6c0,0.4,0,0.8,0,1.2c0,0.8,0.1,1.7,0.1,2.5c0,0.6,0.1,1.1,0.1,1.7c0,0,0,0,0,0c0,0.1,0,0.3,0,0.4
		c-1-2.3-2.2-4.5-3.5-6c-0.8-0.9-1.6-1.5-2.6-1.7c-0.6-0.1-1.3,0-1.9,0.4c-0.9,0.6-1.3,1.6-1.6,2.8c-0.4,2-0.1,4.8,0.4,7.8
		c0.4,2.7,1.1,5.6,1.9,8.4c-0.1-0.3-0.2-0.5-0.3-0.8c-0.6-1.7-1.2-3.4-1.9-5.2c-0.1-0.4-0.3-0.8-0.4-1.2l-1.8-5.4
		c-0.2-0.5-0.3-1-0.5-1.5c-0.2-0.6-0.4-1.3-0.6-1.9c-0.2-0.6-0.4-1.1-0.5-1.7c-0.2-0.7-0.4-1.4-0.6-2c-0.1-0.5-0.3-1-0.4-1.4
		c-0.2-0.8-0.4-1.5-0.6-2.2c-0.1-0.3-0.2-0.7-0.3-1.1c-0.3-1-0.5-2-0.7-2.9c0-0.1-0.1-0.2-0.1-0.2c0-0.1,0-0.2,0-0.4
		c0-0.1,0-0.2,0-0.4c0-0.4-0.1-0.9-0.1-1.5c-0.1-2.4,0-5.7,0.6-9.2C1084.4,498.3,1084.6,497.5,1084.8,496.7z M1104.3,496.5
		c1,2.4,2.2,4.2,3.7,5.4c1.4,1.2,3.2,1.7,5,1.5c1.9-0.2,3.5-0.6,4.8-1.1c1.6-0.7,2.7-1.6,3.4-2.5c-0.1,0.9-0.3,1.9-0.7,2.9
		c-1,2.8-3.2,6-7.9,8c-2.5,1.1-5.8,1.8-10,1.9c-0.3,0-0.5,0.2-0.6,0.5c-0.1,0.3,0,0.6,0.2,0.7c0,0,0.1,0.1,0.4,0.3
		c1.8,1.4,9.1,7.6,12.2,15.2c1.1,2.5,1.6,5.2,1.5,7.9c-1.1-1.3-2.8-3.4-4.9-5.5c-3-3-6.6-6.1-10.1-7.3c0-0.1,0-0.2,0-0.3
		c0-0.4-0.1-0.7-0.1-1.1c0-0.1,0-0.2,0-0.4c0-0.5,0-0.9,0-1.4c0-0.4,0-0.9,0-1.3c0-0.1,0-0.2,0-0.3c0-0.5,0-1,0-1.5
		c0-0.4,0-0.9,0-1.3c0,0,0-0.1,0-0.1c0-0.5,0-1.1,0-1.6c0-0.4,0-0.9,0-1.3c0-0.6,0.1-1.2,0.1-1.8c0-0.4,0-0.8,0.1-1.2
		c0-0.6,0.1-1.2,0.1-1.8c0-0.3,0.1-0.7,0.1-1c0.1-0.7,0.1-1.3,0.2-1.9c0-0.2,0-0.5,0.1-0.7c0.1-0.7,0.1-1.5,0.2-2.2c0,0,0-0.1,0-0.1
		c0.4-3.4,0.8-6.6,1.3-9.5C1103.6,494.7,1103.9,495.7,1104.3,496.5z M938.8,584.5c0,4.5-2.1,7.8-3.4,9.3c-8.1-5.1-16.2-7.8-19.8-7.8
		c-5.1,0-9.7,6.3-16,15c0.2-6.3,1.9-23.1,14.6-27c0.5-0.1,1.4-0.3,3-0.3c5,0,13.3,1.7,17.9,4.5c0.7,0.4,1.3,1.1,1.9,2l0.5,0.7
		C938.2,582.3,938.8,583.8,938.8,584.5z M938.6,580c-0.1-0.2-0.3-0.4-0.4-0.7l-6-9.8c-5.2-8.1-10.5-15.4-18.7-15.4
		c-2.2,0-4.4,0.5-6.9,1.5c-10.1,4.3-16.6,24.4-16.7,24.6l-3.8,12.1l-5-11.7c-1.2-2.7-7.2-25.9,1.5-42.1c4.3-7.9,11.2-12.8,20.6-14.5
		c1.1-0.2,2.1-0.3,3.1-0.4c0.1,0.3,0.4,0.5,0.7,0.5c0.3,0,0.5-0.3,0.6-0.6c1.2-0.1,2.3-0.2,3.4-0.2c7.7,0,14.1,2.4,19.2,7.3
		c10.8,10.3,11.7,28.2,10.6,37.1l-1.7,13.1L938.6,580z M810.7,435.7c-4.1-9.7-6.5-23-2.7-40.3c0.6,2.7,1.6,6.7,3.4,11
		c2.6,6.3,6.9,13.1,13.7,16.8c0.3,0.1,0.6,0.1,0.8-0.2c0.2-0.2,0.2-0.6,0-0.8c0,0-0.3-0.3-0.7-1c-1.4-1.9-4.5-6.7-7.5-13.7
		c-5.6-13.4-10.2-34.7,0.6-59c0.2,5.1,1.3,15.9,6,27c5.1,12.1,14.5,24.5,31.6,29.7c-14.8,12.6-19.8,33.5-19.8,33.6
		c-0.1,0.4,0.1,0.7,0.5,0.8c0.4,0.1,0.7-0.1,0.8-0.5c0,0,0.1-0.3,0.2-0.9c1.2-4.3,6.8-22,19.9-32.6c0,0,0.1,0,0.1,0
		c0.4-0.2,0.9-0.6,1.7-1.2c5.3-4.3,22.2-19.4,47.9-30.2c20.5-8.6,46.6-14.4,76.9-9.7c-4.1,2.6-10.4,5.5-15.5,7.6
		c-4.9,2.1-8.7,3.5-8.7,3.5c-0.3,0.1-0.5,0.5-0.4,0.9c0.1,0.3,0.5,0.5,0.9,0.4l0,0c0,0,3.9-1.4,8.8-3.5c5.8-2.4,13-5.7,17.2-8.7
		c0.2-0.1,14.2-8.6,27.8-21.1c13.1-12.1,25.8-27.8,24.9-43.5c0.2,0.5,0.4,0.9,0.6,1.4c3.8,9.1,3.8,18.4,1.1,27.6
		c-8,27.5-40.2,53.4-62,66.7c-25.8,15.7-43.2,47.1-47.5,55.6c0.1-2.5,0.7-5.5,1.5-8.1c0.5-1.7,1.1-3.3,1.5-4.4
		c0.4-1.1,0.7-1.8,0.7-1.8c0.1-0.3,0-0.6-0.2-0.8c-0.3-0.2-0.6-0.1-0.8,0.1c-15.6,16.9-20.1,44.4-21.3,53.7c-0.5-2-0.9-4.7-1.2-7.1
		c-0.5-3.7-0.8-6.9-0.8-6.9c0-0.3-0.2-0.5-0.5-0.6l-0.7,0.3c-1.2,2.2-1.9,6.2-2.4,11.1c-1,10.3-0.9,24.5-0.7,31.8
		c-0.4-1-0.8-2.1-1.3-3.2c-5-11.8-14.1-27.3-14.1-27.3c-0.2-0.3-0.5-0.4-0.8-0.3c-0.3,0.1-0.5,0.4-0.4,0.8c0.6,2.6,1,5.8,1.2,8.4
		c0,0.3,0.1,0.6,0.1,0.9c-10.4-21.4-31.4-32.1-31.4-32.1c-0.3-0.2-0.7,0-0.9,0.3c-0.2,0.3-0.1,0.7,0.2,0.9c0.2,0.1,0.4,0.3,0.6,0.5
		c0.7,0.6,1.4,1.6,2,2.7c0.9,1.5,1.7,3.3,2.4,5c0.4,1.1,0.8,2.1,1.2,3c-2.9-2.8-9.1-7.6-20.2-11.5c-8.3-2.9-13.3-5.7-16.2-7.7
		c-1.5-1-2.4-1.8-3-2.4c-0.3-0.3-0.5-0.5-0.6-0.6l-0.1-0.2l0,0l-0.1-0.2c0,0-0.1-0.1-0.4-0.3C822.8,453.7,815.5,447.3,810.7,435.7z
		 M823,470.9c0.2-0.4,0.3-0.7,0.5-1.1c0.2-0.5,0.5-1,0.8-1.5c0.2-0.4,0.4-0.7,0.6-1.1c0.3-0.5,0.6-1.1,0.9-1.6
		c0.2-0.3,0.3-0.6,0.5-0.9c0.5-0.8,1.1-1.7,1.6-2.5c0.2-0.2,0.2-0.5,0-0.7c-0.1-0.2-0.4-0.3-0.7-0.3c0,0-0.6,0.1-1.5,0.5
		c0,0,0,0,0,0c0,0,0,0,0,0c-0.3,0.1-0.7,0.3-1,0.5c-0.1,0-0.2,0.1-0.2,0.1c-0.4,0.2-0.8,0.5-1.2,0.8c-0.1,0-0.1,0.1-0.2,0.1
		c-0.4,0.3-0.8,0.6-1.2,1c-0.1,0.1-0.1,0.1-0.2,0.2c-0.4,0.4-0.9,0.9-1.3,1.4c0,0.1-0.1,0.1-0.1,0.1c0,0,0-0.1,0-0.1
		c0-0.3,0.1-0.6,0.1-1c0-0.2,0.1-0.5,0.1-0.7c0.1-0.6,0.2-1.2,0.4-1.8c0.2-0.6,0.4-1.2,0.6-1.7c0.1-0.2,0.2-0.3,0.2-0.5
		c0.2-0.4,0.4-0.8,0.6-1.1c0.1-0.2,0.3-0.4,0.4-0.5c0.2-0.3,0.4-0.6,0.7-0.9c0.2-0.2,0.3-0.3,0.5-0.5c0.2-0.2,0.4-0.3,0.6-0.4
		c0,0,0,0,0,0c0,0,0,0,0.1,0.1c0,0,0,0,0,0c0,0,0,0,0,0c0.1,0.1,0.2,0.2,0.2,0.3c0,0,0.1,0.1,0.1,0.1c0,0,0,0,0.1,0.1
		c0.1,0.1,0.2,0.2,0.3,0.3c0.1,0.1,0.1,0.1,0.2,0.2c0,0,0.1,0,0.1,0.1c0.1,0.1,0.2,0.2,0.3,0.3c0.1,0.1,0.2,0.1,0.2,0.2
		c0.1,0.1,0.3,0.2,0.5,0.4c0.1,0.1,0.2,0.1,0.3,0.2c0.1,0.1,0.1,0.1,0.2,0.2c0.1,0,0.1,0.1,0.2,0.2c0.1,0.1,0.1,0.1,0.2,0.2
		c0.1,0.1,0.2,0.1,0.3,0.2c0.1,0.1,0.2,0.1,0.3,0.2c0.1,0.1,0.2,0.2,0.4,0.2c0.1,0.1,0.3,0.2,0.4,0.3c0,0,0,0,0,0
		c0.1,0.1,0.2,0.1,0.4,0.2c0.1,0.1,0.3,0.2,0.4,0.3c0.1,0.1,0.2,0.2,0.4,0.2c0.1,0.1,0.3,0.2,0.4,0.2c0.1,0,0.1,0.1,0.2,0.1
		c0.1,0.1,0.3,0.2,0.4,0.3c0.1,0.1,0.2,0.1,0.4,0.2c0.2,0.1,0.4,0.2,0.5,0.3c0.3,0.2,0.6,0.4,1,0.5c0.2,0.1,0.4,0.2,0.7,0.3
		c0.3,0.1,0.5,0.3,0.8,0.4c0.1,0.1,0.3,0.1,0.4,0.2c0.2,0.1,0.4,0.2,0.7,0.3c0.3,0.1,0.6,0.3,0.9,0.4c0.2,0.1,0.4,0.2,0.5,0.3
		c0.2,0.1,0.4,0.2,0.6,0.2c0.4,0.2,0.7,0.3,1.1,0.5c0.2,0.1,0.4,0.2,0.7,0.3c0.1,0.1,0.3,0.1,0.4,0.2c0.5,0.2,1,0.4,1.5,0.6
		c0.2,0.1,0.5,0.2,0.7,0.3c0.1,0,0.2,0.1,0.2,0.1c0.9,0.3,1.7,0.7,2.7,1c8.2,2.9,13.7,6.3,17.1,9c1.7,1.3,2.9,2.5,3.6,3.2
		c0.4,0.4,0.6,0.7,0.8,0.9l0.2,0.2l0.1,0.1c0.1,0.1,0.2,0.2,0.4,0.3c0,0,0.1,0,0.1,0c0.1,0,0.2,0,0.3,0c0,0,0,0,0,0
		c0.3-0.1,0.4-0.5,0.3-0.8l0,0c0,0,0,0,0,0c0-0.1-0.1-0.4-0.3-0.8c0-0.1,0-0.1-0.1-0.2c0,0,0,0,0-0.1c-0.1-0.2-0.1-0.4-0.2-0.6
		c0-0.1,0-0.1-0.1-0.2c-0.1-0.2-0.1-0.4-0.2-0.6c0-0.1-0.1-0.2-0.1-0.3c-0.1-0.2-0.2-0.4-0.2-0.6c0-0.1-0.1-0.2-0.1-0.4
		c-0.1-0.1-0.1-0.3-0.2-0.4c0-0.1-0.1-0.2-0.1-0.3c0-0.1-0.1-0.2-0.1-0.4c-0.1-0.4-0.3-0.8-0.5-1.2c-0.7-1.7-1.6-3.6-2.5-5.1
		c0,0,0,0,0,0c-0.1-0.1-0.1-0.2-0.2-0.3c0.3,0.2,0.6,0.4,0.9,0.6c0.1,0.1,0.2,0.1,0.4,0.2c0.5,0.3,1.1,0.7,1.7,1.1
		c0.1,0.1,0.3,0.2,0.4,0.3c0.5,0.3,0.9,0.7,1.4,1c0.2,0.2,0.4,0.3,0.7,0.5c0.4,0.3,0.8,0.6,1.3,1c0.3,0.2,0.5,0.4,0.8,0.6
		c0.4,0.3,0.9,0.7,1.3,1.1c0.3,0.2,0.6,0.5,0.8,0.7c0.4,0.4,0.9,0.8,1.3,1.2c0.3,0.3,0.6,0.5,0.8,0.8c0.5,0.5,1,1,1.5,1.4
		c0.2,0.2,0.5,0.4,0.7,0.7c0.7,0.7,1.5,1.5,2.2,2.3c0.1,0.1,0.2,0.2,0.3,0.4c0.6,0.7,1.2,1.4,1.9,2.1c0.2,0.3,0.5,0.6,0.7,0.9
		c0.5,0.6,0.9,1.2,1.4,1.8c0.3,0.3,0.5,0.7,0.8,1.1c0.4,0.6,0.9,1.2,1.3,1.8c0.3,0.4,0.5,0.8,0.8,1.2c0.4,0.6,0.8,1.3,1.2,1.9
		c0.2,0.4,0.5,0.8,0.7,1.2c0.4,0.7,0.8,1.4,1.2,2.2c0.2,0.4,0.4,0.7,0.6,1.1c0.6,1.1,1.1,2.3,1.6,3.4l0.1,0.3
		c0.1,0.1,0.2,0.2,0.3,0.3c0,0,0.1,0,0.1,0c0.1,0,0.1,0.1,0.2,0.1l0,0c0,0,0,0,0,0c0,0,0,0,0,0l0,0c0,0,0.1,0,0.1,0c0,0,0.1,0,0.1,0
		c0.1,0,0.1-0.1,0.2-0.2c0,0,0.1,0,0.1-0.1c0.1-0.1,0.1-0.2,0.1-0.4c0,0,0,0,0,0c0,0,0-0.6-0.1-1.7c0-0.1,0-0.1,0-0.1
		c0-0.3-0.1-0.7-0.1-1.1c0-0.1,0-0.1,0-0.2c0-0.3-0.1-0.7-0.1-1.1c0-0.1,0-0.2,0-0.3c0-0.4-0.1-0.9-0.1-1.3c0-0.1,0-0.2,0-0.4
		c0-0.4-0.1-0.9-0.2-1.3c0-0.1,0-0.1,0-0.2c-0.1-0.5-0.1-1-0.2-1.5c0-0.1,0-0.1,0-0.2c0.8,1.3,1.7,3,2.7,4.9
		c0.1,0.2,0.2,0.4,0.3,0.6c0.1,0.2,0.2,0.4,0.4,0.7c0.2,0.3,0.3,0.6,0.5,1c0.1,0.2,0.2,0.4,0.3,0.6c0.2,0.4,0.4,0.7,0.6,1.1
		c0.1,0.2,0.2,0.4,0.3,0.6c0.2,0.4,0.4,0.8,0.6,1.1c0.1,0.2,0.2,0.4,0.3,0.6c0.2,0.4,0.4,0.8,0.6,1.2c2,3.8,3.9,7.9,5.5,11.5
		c1,2.3,1.8,4.5,2.3,6.3c-1,0.1-2,0.2-3,0.4c-9.9,1.8-17.2,7-21.6,15.3c-9,16.7-2.8,40.6-1.6,43.4l6.6,15.4l5-15.9
		c1.5-4.8,7.8-20.2,15.9-23.7c2.3-1,4.4-1.4,6.3-1.4c7.1,0,11.9,6.1,17.4,14.7l3.6,5.8c-4.9-2.5-12.5-4-17.4-4
		c-1.4,0-2.6,0.1-3.4,0.4c-14.3,4.3-15.6,23.4-15.7,29.1l-0.1,3.9l2.3-3.2c6-8.4,10.8-15,15.3-15c3.5,0,11.6,2.9,19.2,7.7l1,0.6
		l0.7-0.9c0.2-0.3,3.9-4.3,3.9-10.4c0-0.1,0-0.3-0.1-0.4l2.1-16.1c1.2-9.2,0.3-27.7-11-38.4c-5.4-5.1-12.2-7.7-20.2-7.7
		c-1.1,0-2.3,0.1-3.4,0.2c0-0.5,0-1.2-0.1-2c0-0.2,0-0.5,0-0.8c0-0.2,0-0.3,0-0.5c0-0.5,0-1,0-1.6c-0.1-5.7-0.2-14.5,0.2-22.6
		c0.2-4,0.5-7.9,0.9-11.1c0.1-0.8,0.3-1.6,0.4-2.4c0-0.2,0.1-0.5,0.2-0.7c0.1-0.5,0.2-0.9,0.3-1.4c0-0.1,0-0.1,0-0.1
		c0,0,0,0.1,0,0.1c0.1,0.5,0.1,1.1,0.2,1.7c0,0.1,0,0.2,0,0.3c0.1,0.6,0.2,1.3,0.3,2c0.1,0.4,0.1,0.9,0.2,1.3c0,0.2,0.1,0.4,0.1,0.6
		c0,0.3,0.1,0.5,0.1,0.8c0,0.2,0.1,0.4,0.1,0.6c0,0.2,0.1,0.5,0.1,0.7c0,0.2,0.1,0.4,0.1,0.6c0,0.2,0.1,0.5,0.1,0.7
		c0,0.2,0.1,0.4,0.1,0.6c0,0.2,0.1,0.4,0.1,0.7c0,0.2,0.1,0.4,0.1,0.5c0,0.2,0.1,0.4,0.1,0.6c0,0.2,0.1,0.3,0.1,0.5
		c0.1,0.2,0.1,0.4,0.2,0.6c0,0.1,0.1,0.3,0.1,0.4c0,0,0,0.1,0,0.2c0.1,0.2,0.2,0.4,0.2,0.6l0.2,0.5c0.1,0.3,0.4,0.4,0.7,0.3
		c0,0,0.1,0,0.1,0c0.1,0,0.1-0.1,0.2-0.1c0,0,0.1,0,0.1-0.1c0.1-0.1,0.1-0.2,0.2-0.4c0,0,0-0.6,0.1-1.6c0-0.4,0.1-1,0.2-1.6
		c0-0.1,0-0.3,0.1-0.5c0.1-0.5,0.1-1,0.2-1.5c0-0.2,0.1-0.5,0.1-0.8c0.1-0.5,0.2-1,0.2-1.6c0.1-0.3,0.1-0.7,0.2-1.1
		c0.1-0.6,0.2-1.1,0.3-1.7c0.1-0.4,0.2-0.8,0.2-1.3c0.1-0.6,0.2-1.2,0.4-1.8c0.1-0.5,0.2-1,0.3-1.4c0.1-0.6,0.3-1.3,0.4-1.9
		c0.1-0.5,0.3-1.1,0.4-1.6c0.2-0.7,0.3-1.3,0.5-2c0.1-0.6,0.3-1.1,0.5-1.7c0.2-0.7,0.4-1.4,0.6-2c0.2-0.6,0.4-1.2,0.5-1.8
		c0.2-0.7,0.4-1.4,0.7-2.1c0.2-0.6,0.4-1.2,0.6-1.9c0.2-0.7,0.5-1.4,0.8-2.1c0.2-0.6,0.5-1.3,0.7-1.9c0.3-0.7,0.6-1.4,0.9-2.1
		c0.3-0.6,0.5-1.3,0.8-1.9c0.3-0.7,0.6-1.4,1-2.1c0.3-0.6,0.6-1.2,0.9-1.9c0.4-0.7,0.7-1.4,1.1-2.1c0.3-0.6,0.7-1.2,1-1.8
		c0.4-0.7,0.8-1.4,1.3-2c0.4-0.6,0.7-1.1,1.1-1.7c0.5-0.7,0.9-1.3,1.4-2c0.4-0.5,0.8-1.1,1.2-1.6c0.1-0.1,0.1-0.2,0.2-0.3
		c0,0,0,0,0,0c-0.1,0.3-0.2,0.6-0.3,0.9c0,0.1-0.1,0.3-0.1,0.4c-0.1,0.4-0.3,0.9-0.4,1.4c-1,3.6-2,7.8-1.4,11.1c0,0,0,0.1,0,0.1
		c0,0.1,0.1,0.1,0.1,0.1c0,0,0,0.1,0.1,0.1c0.1,0.1,0.2,0.1,0.3,0.2c0.1,0,0.2,0,0.3,0c0,0,0,0,0,0c0.1-0.1,0.3-0.2,0.3-0.3
		c0,0,0.3-0.6,0.8-1.7c3.9-7.7,21.4-39.8,47.3-55.5c1.8-1.1,3.7-2.3,5.6-3.5c0.6-0.4,1.1-0.8,1.7-1.2c1.4-0.9,2.8-1.8,4.2-2.8
		c0.7-0.5,1.5-1.1,2.2-1.6c1.3-0.9,2.6-1.9,3.9-2.8c0.8-0.6,1.6-1.3,2.4-1.9c1.2-1,2.5-1.9,3.7-2.9c0.9-0.7,1.7-1.4,2.5-2.2
		c1.2-1,2.4-2,3.6-3.1c0.9-0.8,1.7-1.6,2.6-2.4c1.1-1,2.3-2.1,3.4-3.2c0.9-0.8,1.7-1.7,2.5-2.6c1.1-1.1,2.1-2.2,3.2-3.3
		c0.8-0.9,1.6-1.8,2.4-2.7c0.7-0.8,1.4-1.6,2.1-2.4c0.5-0.7,1.1-1.3,1.6-2c6.8-8.5,12.3-17.6,15-27c0.4-1.4,0.7-2.8,1-4.2
		c0.1-0.4,0.1-0.8,0.2-1.2c0.2-1,0.3-2.1,0.4-3.1c0-0.3,0.1-0.5,0.1-0.8c0-0.2,0-0.4,0-0.5c0.1-0.9,0.1-1.7,0.1-2.6
		c0-0.4,0-0.9,0-1.3c0-1.1-0.1-2.2-0.2-3.3c0-0.2,0-0.4,0-0.6c-0.2-1.3-0.4-2.6-0.7-3.9c-0.1-0.4-0.2-0.8-0.3-1.2
		c-0.2-0.9-0.5-1.8-0.8-2.7c-0.1-0.2-0.1-0.3-0.1-0.5c2.9,3.8,6.9,9.6,10,17c3.8,9.1,6.3,20.4,4,33l0.3,0.7c0.2,0.1,0.6,0.1,0.8-0.1
		c0.1-0.1,4.9-4.5,5-15.6c0.3,0.6,0.7,1.4,1,2.2c3.1,7.4,7.1,22.4-1.8,38.1c-0.2,0.3-0.1,0.6,0.1,0.8c0.2,0.2,0.6,0.2,0.8,0
		c0.1,0,4.6-3.3,8.4-10.3c0.6,1.6,1.4,4.6,1.4,8.3c0,4.6-1.3,10.1-6,15.4c-0.2,0.2-0.2,0.6,0,0.9c0.2,0.3,0.5,0.3,0.8,0.2l0.3-0.1
		c0.2-0.1,0.4-0.2,0.8-0.4c1.7-0.7,5.4-2,9.5-1.8c3.7,0.2,7.8,1.5,11.1,5.6c-2.4,0.1-7.7,0.6-13.4,2.9c-0.4,0.2-0.7,0.3-1.1,0.5
		c0,0,0,0,0,0c-0.6-0.4-1.1-0.8-1.7-1.2c-0.7-0.5-1.4-1-2.1-1.5c-0.8-0.5-1.5-1-2.3-1.5c-0.7-0.4-1.4-0.9-2-1.3
		c-0.8-0.4-1.5-0.8-2.2-1.2c-0.7-0.4-1.3-0.7-2-1c-0.7-0.4-1.5-0.7-2.2-1c-0.7-0.3-1.3-0.6-1.9-0.9c-0.7-0.3-1.4-0.5-2.1-0.8
		c-0.6-0.2-1.3-0.5-1.9-0.7c-0.7-0.2-1.3-0.4-2-0.6c-0.6-0.2-1.2-0.4-1.8-0.5c-0.7-0.2-1.3-0.3-1.9-0.5c-0.6-0.1-1.1-0.3-1.7-0.4
		c-0.6-0.1-1.2-0.2-1.8-0.3c-0.5-0.1-1.1-0.2-1.6-0.3c-0.6-0.1-1.1-0.1-1.6-0.2c-0.5-0.1-1-0.1-1.5-0.2c-0.5,0-1-0.1-1.5-0.1
		c-0.4,0-0.9-0.1-1.3-0.1c-0.5,0-0.9,0-1.3,0c-0.4,0-0.8,0-1.1,0c-0.4,0-0.7,0-1.1,0c-0.3,0-0.7,0-1,0c-0.3,0-0.6,0-0.9,0.1
		c-0.3,0-0.6,0-0.8,0c-0.2,0-0.4,0-0.6,0.1c-0.2,0-0.4,0-0.6,0.1c-0.2,0-0.2,0-0.4,0c-0.4,0.1-0.7,0.1-0.7,0.1c0,0-0.1,0-0.1,0
		c-0.1,0-0.1,0.1-0.2,0.2c0,0-0.1,0.1-0.1,0.1c-0.1,0.1-0.1,0.3-0.1,0.5c0.1,0.4,0.4,0.6,0.8,0.5l0.2,0c2.5-0.4,23.6-2.9,45.4,14.6
		c0,0,0,0,0.1,0c2.9,2.7,12.3,12.4,18.7,27.5c3,7.3,5.3,15.8,5.8,25.3c0.5,9.6,1.1,17.6,1.9,24.2c-1.2,0-2.5,0.2-3.6,0.4
		c-1.5,0.3-2.7,0.7-2.7,0.7l-0.2,0.1c-4.4,2.7-7.3,6.5-9,10.5c-0.1,0.1-0.1,0.2-0.1,0.4c-0.3,0.7-0.6,1.4-0.8,2.1
		c-0.1,0.3-0.2,0.6-0.3,0.9c-0.2,0.5-0.3,1-0.5,1.6c-0.1,0.4-0.2,0.7-0.2,1.1c-0.1,0.4-0.2,0.9-0.3,1.3c0,0,0,0,0,0
		c-0.1,0.7-0.2,1.4-0.3,2.1c0,0.1,0,0.3,0,0.4c-0.1,0.6-0.1,1.2-0.2,1.8c0,0.1,0,0.3,0,0.4c0,0.6-0.1,1.2-0.1,1.7c0,0.1,0,0.1,0,0.2
		c0,0.6,0,1.1,0,1.6c0,0,0,0,0,0.1c0-0.1,0-0.1-0.1-0.1c-0.1-0.3-0.2-0.6-0.3-0.9c-0.4-1.3-0.8-2.7-1.1-4.1
		c-0.1-0.5-0.3-1.1-0.4-1.6c-0.3-1.2-0.5-2.4-0.8-3.6c-0.1-0.5-0.2-1-0.3-1.4c-0.3-1.6-0.6-3.2-0.8-4.7c-1.1-6.9-1.6-12.5-2.1-14.5
		c-0.1-0.5-0.3-1-0.7-1.3c-0.2-0.2-0.3-0.3-0.5-0.4c-0.1,0-0.1,0-0.2-0.1c-0.1-0.1-0.3-0.1-0.4-0.1c0,0,0,0,0,0
		c-1.4-0.2-2.8,0.6-4,1.3c-1.2,0.7-2.1,1.5-2.1,1.5l0,0c-6.2,5.9-9.4,16.6-11.3,26.6c-0.2,0.9-0.3,1.8-0.5,2.8
		c0,0.3-0.1,0.6-0.1,0.9c-0.1,0.7-0.2,1.3-0.3,1.9c0,0.3-0.1,0.5-0.1,0.8c-0.1,0.8-0.2,1.6-0.3,2.4c0,0.3-0.1,0.5-0.1,0.8
		c-0.1,0.6-0.1,1.1-0.2,1.7c0,0.3-0.1,0.6-0.1,0.9c0,0.5-0.1,1-0.1,1.5c0,0.2,0,0.5-0.1,0.7c0,0.6-0.1,1.3-0.1,1.9
		c0,0.3,0,0.6,0,0.8c0,0.3,0,0.7-0.1,1c0,0.3,0,0.5,0,0.8c0,0.3,0,0.5,0,0.8c0,0.2,0,0.4,0,0.5c-0.1-0.3-0.3-0.7-0.4-1
		c-0.1-0.3-0.2-0.6-0.3-0.9c-0.2-0.5-0.4-1-0.5-1.5c-0.1-0.3-0.2-0.5-0.3-0.8c-0.2-0.7-0.4-1.5-0.7-2.2c0-0.1,0-0.1-0.1-0.2
		c-0.2-0.8-0.4-1.7-0.6-2.6c-0.1-0.2-0.1-0.5-0.1-0.7c-0.1-0.6-0.3-1.3-0.4-1.9c-0.1-0.3-0.1-0.6-0.2-0.9c-0.1-0.6-0.2-1.2-0.3-1.8
		c-0.1-0.3-0.1-0.7-0.2-1c-0.1-0.6-0.2-1.1-0.3-1.7c0-0.3-0.1-0.7-0.1-1c-0.1-0.6-0.1-1.1-0.2-1.7c0-0.3-0.1-0.7-0.1-1
		c-0.1-0.6-0.1-1.1-0.2-1.7c0-0.3-0.1-0.6-0.1-0.9c-0.1-0.6-0.1-1.1-0.2-1.7c0-0.3,0-0.6-0.1-0.8c0-0.6-0.1-1.1-0.1-1.7
		c0-0.2,0-0.5-0.1-0.7c0-0.6-0.1-1.1-0.1-1.7c0-0.2,0-0.4,0-0.7c0-0.6-0.1-1.1-0.1-1.7c0-0.2,0-0.3,0-0.5c0-0.6,0-1.2-0.1-1.7
		c0-0.1,0-0.2,0-0.3c0-0.6,0-1.2,0-1.8c-0.1-3.1,0-5,0-5l-0.3-0.6l-0.7-0.1c-13.9,6.1-20.1,20.3-22.7,34.6c-0.2,1.1-0.4,2.3-0.5,3.4
		c0,0.3-0.1,0.6-0.1,0.9c-0.1,0.9-0.2,1.8-0.3,2.7c0,0.3-0.1,0.5-0.1,0.8c-0.1,1.1-0.2,2.3-0.3,3.4c0,0.1,0,0.3,0,0.4
		c-0.1,1-0.1,2-0.2,2.9c0,0.3,0,0.6,0,0.9c0,0.9-0.1,1.8-0.1,2.7c0,0.2,0,0.4,0,0.5c0,1.1,0,2.1,0,3.1c0,0.2,0,0.4,0,0.6
		c0,0.8,0,1.6,0.1,2.4c0,0.3,0,0.5,0,0.8c0,0.8,0.1,1.6,0.1,2.4c0,0.1,0,0.2,0,0.3c0,0.9,0.1,1.7,0.2,2.5c0,0.2,0,0.5,0.1,0.7
		c0,0.5,0.1,1.1,0.1,1.6c0,0.3,0,0.5,0.1,0.8c0,0.5,0.1,0.9,0.1,1.4c0.1,0.5,0.1,0.9,0.1,1.3c0,0.2,0,0.4,0.1,0.6
		c-0.1-0.2-0.2-0.3-0.3-0.5c-0.1-0.2-0.3-0.5-0.5-0.7c-0.3-0.4-0.5-0.8-0.8-1.2c-0.2-0.2-0.3-0.5-0.5-0.7c-0.3-0.4-0.5-0.7-0.8-1.1
		c-0.2-0.2-0.3-0.4-0.5-0.6c-0.3-0.3-0.6-0.7-0.9-1c-0.1-0.2-0.3-0.3-0.4-0.5c-0.3-0.4-0.7-0.7-1-1c-0.1-0.1-0.2-0.2-0.3-0.3
		c-0.4-0.4-0.9-0.8-1.3-1.2c0,0-0.1-0.1-0.1-0.1c-0.4-0.3-0.8-0.7-1.2-1c-0.2-0.1-0.3-0.2-0.5-0.3c-0.3-0.2-0.6-0.4-0.9-0.6
		c-0.2-0.1-0.4-0.2-0.5-0.3c-0.3-0.2-0.5-0.3-0.8-0.5c-0.2-0.1-0.4-0.2-0.6-0.3c-0.3-0.1-0.5-0.3-0.8-0.4c-0.2-0.1-0.4-0.2-0.6-0.3
		c-0.3-0.1-0.5-0.2-0.8-0.3c-0.2-0.1-0.4-0.2-0.6-0.2c-0.3-0.1-0.5-0.2-0.7-0.3c-0.2-0.1-0.3-0.1-0.5-0.2c-0.3-0.1-0.5-0.2-0.8-0.2
		c-0.2,0-0.3-0.1-0.5-0.1c-0.3-0.1-0.6-0.2-0.9-0.2c-0.1,0-0.2-0.1-0.3-0.1c-0.4-0.1-0.7-0.2-1.1-0.2c0,0,0,0-0.1,0
		c-4-0.7-6.7-0.2-6.8-0.2l-0.5,0.4l0.1,0.7c0.6,0.8,1.2,1.7,1.7,2.7c0.3,0.4,0.5,0.9,0.7,1.4c0.3,0.6,0.6,1.2,0.8,1.8
		c0.2,0.5,0.4,1,0.5,1.5c0.2,0.6,0.4,1.3,0.6,2c0.1,0.5,0.3,1,0.4,1.5c0.1,0.7,0.3,1.4,0.4,2.1c0.1,0.5,0.2,1,0.2,1.6
		c0.1,0.7,0.1,1.5,0.2,2.3c0,0.5,0.1,1,0.1,1.5c0,0.8,0,1.6,0,2.5c0,0.5,0,1,0,1.5c-0.1,0.9-0.1,1.9-0.3,2.8c0,0.4-0.1,0.8-0.1,1.2
		c-0.2,1.4-0.4,2.7-0.6,4.1c0,0,0,0,0,0c-0.2,1-0.4,1.9-0.6,2.9c-0.3,1.3-0.6,2.6-0.9,3.9c0,0.1-0.1,0.2-0.1,0.3
		c-0.3,1.1-0.6,2.1-0.9,3.2c0,0.1-0.1,0.3-0.1,0.4c-0.1,0.4-0.2,0.8-0.4,1.2c-0.2,0.7-0.4,1.4-0.7,2c-0.1,0.2-0.1,0.5-0.2,0.7
		c-0.1,0.4-0.3,0.8-0.4,1.2c-0.3,0.8-0.6,1.6-0.8,2.3c-0.1,0.2-0.1,0.4-0.2,0.6c-0.1,0.3-0.2,0.5-0.3,0.8c-0.4,1.2-0.9,2.3-1.4,3.5
		c0,0.1,0,0.1-0.1,0.2c-0.1,0.2-0.2,0.5-0.3,0.7c-0.4,1-0.8,1.9-1.2,2.9c-0.1,0.3-0.3,0.7-0.4,1c-0.4,0.9-0.8,1.7-1.1,2.5
		c-0.1,0.3-0.2,0.5-0.4,0.8c-0.5,1.1-1,2.1-1.5,3.1c0,0,0,0,0,0c-2.1,4.3-4.1,8-5.5,10.6c-1.4,2.6-2.4,4.1-2.5,4.3
		c-0.2,0.2-3,3.5-6.5,8.9c-28.3,7-52.8,5.4-71.9,0.2c-12.4-3.4-22.6-8.3-30-13.2c-7.4-5-12.1-10-13.6-13.6c-0.1-0.3-0.2-0.6-0.3-0.9
		c-0.1-0.3-0.4-0.5-0.7-0.5c-0.3,0-0.6,0.2-0.6,0.5c0,0.1-2.6,12.7,1.1,21.6c0.2,0.6,0.5,1.1,0.8,1.6c-4.2-2.7-12.5-8.8-15.9-16.9
		c-1.2-2.9-1.8-6.1-1.4-9.5c0-0.3-0.1-0.6-0.4-0.7c-0.3-0.1-0.6,0-0.8,0.2c0,0-2.1,2.7-3.9,6.5c-1.4,3-2.6,6.7-2.5,10.5
		c-0.7-1.5-1.6-3.4-2.6-5.6c-1.9-4.5-3.8-10.1-4.4-15.2c-0.3-2.6-0.2-5,0.3-7.1c0.5-2.1,1.5-3.9,3.1-5.2c0.3-0.2,0.3-0.6,0.1-0.9
		c-0.2-0.3-0.6-0.3-0.9-0.1l-0.2,0.1c-0.4,0.3-1.4,0.9-2.9,1.5c-2.2,0.9-5.3,1.8-8.8,1.4c-3.1-0.4-6.4-1.7-9.6-5.1
		c1.4,0,3.5-0.2,5.9-1.2c3.4-1.4,7.2-4.5,9.9-10.8c1.5-3.7,0.7-9.6-0.9-17.1C821.1,528.4,811.2,496.9,823,470.9z M790.3,585
		c-0.2,1-0.4,2-0.7,3C789.9,587,790.1,586,790.3,585z M789.5,588.3c-0.2,0.9-0.5,1.8-0.7,2.6C789,590,789.3,589.2,789.5,588.3z
		 M788.5,591.9c-0.2,0.7-0.4,1.4-0.7,2C788,593.2,788.3,592.5,788.5,591.9z M785.1,601.1c-0.3,0.7-0.6,1.4-0.9,2
		C784.6,602.4,784.8,601.8,785.1,601.1z M783.9,604c-0.3,0.6-0.5,1.2-0.8,1.7C783.4,605.2,783.6,604.6,783.9,604z M782.7,606.5
		c-0.3,0.7-0.6,1.3-0.9,1.9C782.1,607.8,782.4,607.2,782.7,606.5z M755.9,668.8c3.7,5.4,9,7.7,9.1,7.7c0.2,0.1,0.5,0,0.6-0.1
		c0.2-0.2,0.2-0.4,0.1-0.6c-4.8-8-5.4-16.6-4-24.6c2.6-14.5,12-27,14.3-29.8c0.3-0.4,0.5-0.6,0.5-0.6l0-0.1c0,0,5.3-8.5,9.8-19.5
		c-0.1,0.2-0.2,0.4-0.3,0.6c0,0,0,0,0,0c0.1-0.2,0.2-0.5,0.3-0.7c0.3-0.7,0.6-1.5,0.9-2.2c0.2-0.5,0.3-0.9,0.5-1.4
		c0.3-0.7,0.5-1.5,0.8-2.2c0.1-0.3,0.2-0.7,0.4-1c-0.1,0.3-0.2,0.6-0.3,1c1.4-4,2.6-8.2,3.3-12.3c1.5-8.5,1.2-16.8-3-23.1
		c0.1,0,0.3,0,0.5,0c0.8,0,2,0,3.5,0.3c4.4,0.8,10.8,3.6,15.3,13.1c0.1,0.2,0.4,0.4,0.6,0.3c0.3-0.1,0.4-0.3,0.4-0.6
		c0,0-0.2-1-0.4-2.7c-0.2-1.7-0.5-4.1-0.6-7c-0.3-5.8-0.3-13.5,1-21.1c1.4-7.6,4.1-15,9.2-20.2c0,0.2,0.1,0.4,0.1,0.5
		c1.8,9.8,4.2,18.9,5.7,26.3c1.6,7.4,2.3,13.3,1,16.3c-2.5,6-6.1,8.8-9.2,10.1c-1.9,0.8-3.6,1-4.8,1.1c-0.6,0-1.1,0-1.5,0l-0.4,0
		l-0.1,0l-0.7,0.3c-0.1,0.2-0.1,0.5,0.1,0.8c3.7,4.5,7.8,6.3,11.6,6.7c3.8,0.4,7.1-0.5,9.4-1.5c0.1,0,0.1-0.1,0.2-0.1
		c-0.6,1-1,2.1-1.3,3.2c-1.7,7,1.3,16.3,4.2,23.2c2.2,5.2,4.3,8.9,4.3,8.9c0.2,0.3,0.5,0.4,0.8,0.3c0.3-0.1,0.5-0.5,0.4-0.8
		c-1.1-4.7,0.3-9.6,2-13.3c0.8-1.8,1.7-3.3,2.4-4.4c0,2.8,0.6,5.4,1.6,7.8c4.9,11.7,19,19,19,19.1c0.3,0.1,0.6,0.1,0.8-0.2
		c0.2-0.3,0.2-0.6,0-0.8c-1-1.1-1.7-2.4-2.3-3.8c-1.7-4.1-2-9.4-1.8-13.5c0.1-2,0.3-3.8,0.4-5c2,3.8,6.6,8.5,13.5,13.1
		c6.3,4.2,14.5,8.3,24.4,11.6c-3.5,6.1-6.7,12.6-8.6,18.9c-2.6,8.7-3.1,15.7-2.6,21.3c0.9,10,4.8,14.8,4.9,14.9
		c0.2,0.2,0.4,0.3,0.7,0.2c0.3-0.1,0.4-0.3,0.5-0.5l0.1-0.3c0.1-0.2,0.1-0.5,0.2-0.9c0.2-0.8,0.6-1.8,1.1-3c0.6-1.5,1.4-3.1,2.5-4.7
		c-1.9,6-5,19.3-3.5,37.9c-9.2-1.3-18.5-2.6-28-3.8c7.1-6.2,13.6-14.2,19-24.6l-1-0.5c-11.1,21.4-27,32.7-43,38.2
		c-16,5.5-32.1,5.1-43.5,3.1c-5.8-1-10.4-2.5-13-3.9c-3.3-1.7-6.5-2.7-9.3-3.2c-6.2-1.1-10.9,0-13.1,0.7c2.1-3.5,5-5.2,7.7-5.9
		c3-0.8,5.8-0.5,6.9-0.3c0.4,0.1,0.5,0.1,0.5,0.1c0.3,0.1,0.5-0.1,0.6-0.3c0.1-0.2,0-0.5-0.2-0.7
		C758.1,698.1,756.1,675.4,755.9,668.8z M787.2,598.8c0.2-0.4,0.3-0.9,0.5-1.3C787.5,598,787.4,598.4,787.2,598.8z M675.4,630.1
		c5.2,4.9,16.5,8.2,30,8.2c13.5,0,24.8-3.3,30-8.2v52.3c0,6.7-15.8,11.3-30,11.3c-14.1,0-29.9-4.6-30-11.2V630.1z M705.4,545.8
		c7,0,11.4,2.3,11.4,3.9s-4.5,3.9-11.4,3.9s-11.4-2.3-11.4-3.9S698.4,545.8,705.4,545.8z M675.4,619.3c0-5.7,13.1-22.5,18.2-28.5
		l0.3-0.4v-0.5v-37.6c2.1,1.7,6.4,2.9,11.4,2.9c5,0,9.3-1.2,11.4-2.9v37.5v0.5l0.3,0.4c5.1,6,18.2,22.8,18.2,28.5v8.7
		c-4,5.2-15.9,8.9-30,8.9c-14,0-25.9-3.7-30-8.9V619.3z M675.4,686.3c4,5.2,15.9,8.9,30,8.9c14,0,25.9-3.7,30-8.9v41.5
		c0,8-9,14.7-21.4,16.9c-14.6-15.4-27.5-32.5-38.5-50.7V686.3z M715.2,745.9c12.6-2.5,21.7-9.7,21.7-18.2v-0.6
		c3.8,0,4.3,0.5,6.5,2.6c0.3,0.3,0.7,0.6,1.1,1c1.3,1.1,1.7,1.9,2,2.6c0.7,1.4,1.3,2.2,4.9,3.6c2.1,0.8,4.9,0.9,7.5,1.1
		c5.4,0.2,8.7,0.6,8.9,4c0.3,5.4-4.6,8.9-14.4,10.4c-6.5,1-21.8,1.7-31.1,0.8C720,750.8,717.5,748.4,715.2,745.9z M724.1,754.9
		c2.6,0.2,5.6,0.3,8.6,0.3c7.9,0,16.4-0.6,21-1.2c13.3-2,15.8-7.6,15.6-11.9c-0.2-5-5.6-5.2-10.3-5.4c-2.5-0.1-5.2-0.2-7.1-1
		c-3.3-1.3-3.6-1.9-4.1-2.9c-0.4-0.7-0.9-1.7-2.3-3c-0.4-0.4-0.8-0.7-1.1-1c-2.5-2.3-3.3-2.9-7.5-3V697c8,0.5,19.1,1.2,27,1.8
		c2.7,4,6.1,7.9,10.5,11.2c-1.5-0.1-3.5-0.1-5.7,0.5c-3.2,0.9-6.7,3-9,7.7c-0.1,0.2-0.1,0.4,0.1,0.6l0.6,0.1l0.2-0.1
		c0.2-0.1,0.4-0.2,0.7-0.3c0.6-0.2,1.6-0.5,2.8-0.7c2.4-0.5,5.9-0.7,10,0c2.8,0.5,5.8,1.4,9,3.1c2.8,1.4,7.4,2.9,13.3,4
		c11.5,2.1,27.8,2.5,44-3.1c7.9-2.7,15.8-6.8,23.1-12.8c38.4,4.9,73.5,10.6,105.1,16.4c3.3,4.5,7.3,8.8,12.3,12.5
		c-1.9-0.1-4.6-0.1-7.5,0.7c-4.3,1.2-8.9,4-11.9,10.2c-0.1,0.3-0.1,0.6,0.1,0.8l0.8,0.1l0.3-0.1c0.2-0.1,0.5-0.2,1-0.4
		c0.9-0.3,2.1-0.6,3.7-1c3.2-0.6,7.8-1,13.3,0c3.6,0.7,7.7,1.9,11.9,4.1c3.7,1.9,9.8,3.9,17.6,5.3c15.2,2.7,36.7,3.3,58.2-4.1
		c3.3-1.1,6.5-2.4,9.8-3.9c17.9,4.6,34.2,9.2,48.7,13.6c-33.8,30-74.1,52-118.1,64l-30-30c0,0,0,0,0,0l-6.7-6.7
		c-2.6-2.6-10.7-4.5-18.4-5.8c2.4-0.5,5.3-1,9.2-3c9.6-4.8,8.1-13.4,5.3-16.3c-2.9-2.9-25.8-6.7-29.2-14.8
		c-3.3-8.1,1.9-19.6-8.1-23.4c-1.2-0.4-2.3-0.6-3.6-0.6c-9.5,0-21.1,11.9-34.2,17.4c-7.6,3.2-22.4,4.2-35.3,4.2
		c-12.1,0-22.7-0.9-24-1.9c-2.9-1.9-4.3-3.3-7.7-3.3c-3.3,0-8.1,5.7-12.9,8.6c-4.8,2.9-39.7,9.6-39.7,20.1s25.8,8.1,33.5,14.4
		c7.7,6.2,22.5,35.9,58.4,35.9c14.7,0,35.1-6.6,51.5-14.1c1.2,8.6,3.4,19.6,6.4,22.6l5.2,5.2c0,0,0,0,0,0l2.1,2.1
		c-0.3,0-0.5,0-0.8,0C850.1,838,777.5,806.3,724.1,754.9z M929.6,834.8c-1.9-2-1.8-6.7,0.4-11.9c2.4-5.7,4.6-10.6,12.9-17.3
		c14.4-10.5,24.7-8.6,31.1-8.6c1.8,0,3.1,0.4,4,1.3l29.4,29.4c-24,6.4-49,9.9-74.6,10.2L929.6,834.8z M938.3,782.9L910,754.5
		c-1.6-1.6-5.1-3.9-9.7-3.9c-1.5,0-3.2,0.2-5,0.8c-6.8,2.3-10.1,14.7-8,16.8l28.3,28.3c0,0,0.4,4.3,1.1,9.8
		c-16,7.4-36.2,14.1-51.2,14.1c-27.6,0-42.5-18-51.3-28.8c-2.5-3-4.4-5.3-6.1-6.7c-3.4-2.7-9.5-3.9-15.9-5c-8.4-1.5-17-3.1-17-8.2
		c0-6.6,19.2-12.4,29.5-15.5c4.7-1.4,8-2.4,9.5-3.3c1.9-1.2,3.8-2.7,5.7-4.3c2.4-2,5-4.1,6.5-4.1c2.4,0,3.5,0.8,5.5,2.2
		c0.4,0.3,0.8,0.6,1.3,0.9c2.3,1.5,16.5,2.1,24.9,2.1c9.5,0,26.8-0.6,35.8-4.4c5.5-2.3,10.7-5.7,15.7-8.9c6.6-4.3,12.9-8.4,18-8.4
		c0,0,0,0,0,0c1.1,0,2.1,0.2,3,0.5c5.2,2,5.6,6.1,5.8,12.5c0.1,3.4,0.2,6.9,1.5,10.1c2.5,6,13.1,9.4,21.6,12.2
		c3.3,1.1,7.1,2.3,7.9,3.1c1.1,1.1,2,3.5,1.6,6.2c-0.4,2.2-1.8,5.3-6.5,7.7c-3.5,1.7-6.1,2.3-8.4,2.8c-1.3,0.3-2.5,0.5-3.8,1
		C943.7,783.3,938.3,782.9,938.3,782.9z M917.1,796.6l0-0.5l-0.4-0.4l-28.3-28.3c-0.3-0.4-0.4-2.5,0.6-5.6c1.1-3.5,3.5-7.7,6.9-8.8
		c1.5-0.5,3-0.8,4.5-0.8c5,0,8.1,2.8,8.7,3.4l28.3,28.3l0.4,0.4l0.5,0c7.8,0.7,29,3.3,33,7.3l4,4c-0.4,0-0.8-0.1-1.2-0.1
		c-6.6,0-17.1-1.7-32.2,9.1c-10.2,8.4-15.9,20.5-14.9,27.5l-2.5-2.5C920.4,825.6,917.8,804.4,917.1,796.6z"/>
	
		<rect x="843.2" y="782.8" transform="matrix(0.5274 -0.8496 0.8496 0.5274 -257.3074 1104.4419)" class="st1" width="41.7" height="1.5"/>
	
		<rect x="823.8" y="773.2" transform="matrix(0.6923 -0.7216 0.7216 0.6923 -300.1156 843.9951)" class="st1" width="31.8" height="1.5"/>
	
		<rect x="808" y="765.1" transform="matrix(0.7327 -0.6806 0.6806 0.7327 -302.735 760.8613)" class="st1" width="18.3" height="1.5"/>
	
		<rect x="879.1" y="792.8" transform="matrix(0.3428 -0.9394 0.9394 0.3428 -161.9503 1355.6791)" class="st1" width="17.8" height="1.5"/>
	<path class="st1" d="M683.2,671.8l1.2,0.8c0.7-1.1,2.3-3.3,4-5.7c2.1,3.1,3.6,5.6,3.6,5.7l1.3-0.8c-0.1-0.2-1.8-2.9-4-6.2
		c2.5-3.4,4.9-6.6,4.9-6.7l-1.2-0.9c-0.2,0.2-2.3,3.1-4.6,6.3c-1.8-2.6-3.7-5.3-5.4-7.3l-1.1,1c1.7,2,3.8,4.9,5.6,7.6
		C685.8,668.1,684,670.6,683.2,671.8z"/>
	<path class="st1" d="M718.4,663.2c-0.2,0.2-0.4,0.5-0.5,0.7c-2,2.7-3.2,4.2-3.5,4.9l1.4,0.6c0.2-0.5,1.8-2.6,3.3-4.5
		c0.1-0.2,0.2-0.3,0.4-0.5c3.5,3.7,6.5,7.2,6.8,8.4l1.4-0.3c-0.4-1.6-3.9-5.6-7.3-9.3c3.7-4.9,5-6.9,4.8-7.9l-1.5,0.2
		c0,0.8-2.4,4-4.3,6.6c-2.6-2.7-5-5.1-5.6-5.6l-1,1.1C714.4,659.1,716.4,661.1,718.4,663.2z"/>
	<path class="st1" d="M723,716.3c3.3,1.3,6.2,3.1,8.2,5.1l1-1.1c-2.2-2.1-5.2-3.9-8.7-5.4c-5.3-2.1-11.5-3.2-18-3.2
		c-4.6,0-9,0.6-13.1,1.6l0.4,1.4c4-1.1,8.3-1.6,12.7-1.6C711.9,713.1,717.9,714.2,723,716.3z"/>
	
		<rect x="736.4" y="742.3" transform="matrix(0.6183 -0.7859 0.7859 0.6183 -301.3179 865.6915)" class="st1" width="8.5" height="1.5"/>
	<path class="st1" d="M1010.7,796.1c2.2,2,6.1,2.5,9.4,1.3c1.1-0.4,2.1-0.8,3-1.2c2.8-1.2,4.7-1.9,7.8-1.5c1.7,0.3,2.9,1.2,4.2,2.2
		c1.4,1.1,2.9,2.2,4.9,2.2c0.4,0,0.7,0,1.1-0.1c4-0.7,5.1-2.4,5.3-2.9c1.3-1.7,1.4-3.6,0.4-5.7c-2-4.1-7.8-7.4-11.2-7.4h-16.7
		c-0.1,0-8.1-0.1-9.8,6.8C1008.3,793.1,1009.5,795.1,1010.7,796.1z M1010.5,790.2c1.4-5.7,8.1-5.6,8.4-5.7h16.7c3,0,8.2,3.1,9.9,6.5
		c0.8,1.6,0.7,3-0.3,4.2l-0.1,0.2c0,0-0.6,1.4-4.2,2c-2,0.4-3.4-0.6-4.9-1.8c-1.3-1-2.8-2.2-4.9-2.5c-0.7-0.1-1.4-0.2-2-0.2
		c-2.4,0-4.3,0.8-6.6,1.7c-0.9,0.4-1.8,0.8-2.9,1.2c-2.8,1-6.1,0.6-7.9-1C1010.4,793.9,1010,792.2,1010.5,790.2z"/>
	<path class="st1" d="M1027.9,802.2c-2.2,0-4,1.8-4,4s1.8,4,4,4s4-1.8,4-4S1030.1,802.2,1027.9,802.2z M1027.9,808.7
		c-1.4,0-2.5-1.1-2.5-2.5s1.1-2.5,2.5-2.5s2.5,1.1,2.5,2.5S1029.3,808.7,1027.9,808.7z"/>
	<path class="st1" d="M955.7,816.6l-1.4-0.5c-0.3,0.7-1.6,4.3-2.7,8.1c-2.5-0.4-5.3-0.7-7.5-0.9l-0.1,1.5c2.2,0.2,4.7,0.5,7.2,0.9
		c-0.9,3.2-1.6,6.4-1.3,7.9l1.5-0.3c-0.2-1.2,0.4-4.2,1.3-7.4c3.9,0.6,7.2,1.3,7.3,1.3l0.3-1.5c-0.1,0-3.2-0.6-7.1-1.3
		C954,821.3,955.1,818.3,955.7,816.6z"/>
	<path class="st1" d="M987,814.5c-1.2-0.7-5.9-2.1-10.9-3.3c1.8-7.1,2-8.8,1.1-9.4l-0.8,1.2c-0.1-0.1-0.2-0.2-0.2-0.2
		c0.2,0.7-0.6,4.5-1.5,8c-5.2-1.3-10.3-2.4-11.4-2.7l-0.3,1.4c3.4,0.7,7.5,1.7,11.3,2.6c-0.1,0.5-0.2,0.9-0.4,1.4
		c-1.7,6.3-2.3,8.8-1.9,9.7l1.4-0.5c-0.2-0.8,1.1-5.4,2-8.7c0.1-0.5,0.2-0.9,0.4-1.4c5.1,1.3,9.5,2.5,10.5,3.1L987,814.5z"/>
	<path class="st1" d="M1020.9,493.8l1.5,0.2c1.7-10.3-1.1-19.7-3.1-26.6c-0.3-0.9-0.5-1.7-0.7-2.4l-1.4,0.4c0.2,0.8,0.5,1.6,0.7,2.4
		C1019.8,474.6,1022.5,483.8,1020.9,493.8z"/>
	<path class="st1" d="M846.2,547.2l0.6-1.4c-8.3-3.7-13.9-15.8-14-15.9l-1.3,0.6C831.7,531.1,837.4,543.3,846.2,547.2z"/>
	<path class="st1" d="M896.4,426.9c0.6,0.2,1.2,0.3,1.8,0.3c1.2,0,2.3-0.4,3.2-1.2c0.8-0.8,2.1-2.5,1.3-6l-1.4,0.4
		c0.5,2,0.2,3.6-0.8,4.5c-0.9,0.8-2.3,1-3.5,0.6c-1.4-0.5-2.3-1.7-2.5-3.3l-1.5,0.2C893.3,424.5,894.5,426.2,896.4,426.9z"/>
	<path class="st1" d="M1050.3,436.3c0.8,0,1.5-0.2,2.2-0.6c2.3-1.3,3.6-4.8,1.7-8.2l-1.3,0.7c1.5,2.6,0.6,5.2-1.1,6.2
		c-1.3,0.8-3.3,0.6-4.9-2.1l-1.3,0.8C1046.9,435.4,1048.7,436.3,1050.3,436.3z"/>
	<path class="st1" d="M1063.6,462.6c0.1,0,0.1,0,0.2,0c1.8,0,3.5-0.9,4.3-2.4c0.6-1,1.2-3.1-0.6-6.1l-1.3,0.8
		c1.1,1.7,1.3,3.3,0.6,4.5c-0.6,1-1.9,1.7-3.2,1.6c-1.5-0.1-2.7-0.9-3.4-2.3l-1.3,0.6C1059.8,461.3,1061.6,462.5,1063.6,462.6z"/>
	<path class="st1" d="M885.9,448.9c0.6,0.2,1.2,0.3,1.8,0.3c1.2,0,2.3-0.4,3.2-1.2c0.8-0.8,2.1-2.5,1.3-6l-1.4,0.4
		c0.5,2,0.2,3.6-0.8,4.5c-0.9,0.8-2.3,1-3.5,0.6c-1.4-0.5-2.3-1.7-2.5-3.3l-1.5,0.2C882.7,446.5,884,448.2,885.9,448.9z"/>
	<path class="st1" d="M868.4,439.3c0.6,0.2,1.2,0.3,1.8,0.3c1.2,0,2.3-0.4,3.2-1.2c0.8-0.8,2.1-2.5,1.3-6l-1.4,0.4
		c0.5,2,0.2,3.6-0.8,4.5c-0.9,0.8-2.3,1-3.5,0.6c-1.4-0.5-2.3-1.7-2.5-3.3l-1.5,0.2C865.3,437,866.5,438.6,868.4,439.3z"/>
	<path class="st1" d="M948.3,607.3l1.1,1c9.6-11.5,11.6-30.2,11.6-31l-1.5-0.1C959.6,577.3,957.6,596.1,948.3,607.3z"/>
</g>
<g>
	<path class="st2" d="M644.6,958.2h-18l-4.9,13.6H616l18.5-49.8h2.7l18.6,49.8h-6.2L644.6,958.2z M628.5,953.2h14.3l-5.4-14.9
		l-1.7-7.4h-0.1l-1.7,7.6L628.5,953.2z"/>
	<path class="st2" d="M687.9,928h-14.6c-0.5,9.3-1.1,17.1-1.9,23.3c-0.8,6.2-1.9,11-3.5,14.5c-1,2.2-2.2,3.9-3.6,4.9
		c-1.4,1-2.9,1.5-4.6,1.5c-0.8,0-1.6-0.1-2.2-0.2c-0.6-0.1-1.2-0.3-1.8-0.5l0.8-5c0.5,0.1,1,0.2,1.5,0.2c0.8,0,1.6-0.3,2.3-0.8
		c0.8-0.5,1.5-1.5,2.3-2.9c0.7-1.3,1.3-2.9,1.9-5c0.6-2.1,1.1-4.8,1.5-8c0.4-3.2,0.8-7.1,1.1-11.5c0.3-4.5,0.5-9.7,0.6-15.6h25.9v49
		h-5.8V928z"/>
	<path class="st2" d="M714.7,949.1h-3.3v22.7h-5.8v-49h5.8v22.8l3.2-1l16.4-21.8h6.7l-16.4,21.1l-2.9,2.3l3.6,2.8l17.9,22.8h-7.4
		L714.7,949.1z"/>
	<path class="st2" d="M744.8,947.3c0-8.2,1.7-14.4,5.2-18.8c3.5-4.4,8.4-6.5,14.8-6.5c3.5,0,6.4,0.6,9,1.8s4.6,2.9,6.3,5.1
		c1.7,2.2,2.9,4.9,3.7,8c0.8,3.1,1.2,6.6,1.2,10.4c0,8.2-1.7,14.4-5.2,18.8c-3.5,4.4-8.4,6.5-14.9,6.5c-3.4,0-6.4-0.6-8.9-1.8
		c-2.5-1.2-4.6-2.9-6.2-5.1c-1.7-2.2-2.9-4.9-3.7-8C745.2,954.6,744.8,951.1,744.8,947.3z M751,947.3c0,2.7,0.3,5.3,0.8,7.7
		c0.5,2.4,1.4,4.6,2.5,6.4s2.6,3.3,4.3,4.4c1.8,1.1,3.8,1.6,6.2,1.6c4.3,0,7.7-1.6,10.2-4.9c2.5-3.3,3.7-8.4,3.7-15.2
		c0-2.7-0.3-5.2-0.8-7.7c-0.5-2.5-1.4-4.6-2.5-6.4c-1.1-1.8-2.6-3.3-4.3-4.4s-3.8-1.6-6.3-1.6c-4.3,0-7.7,1.6-10.1,4.9
		C752.2,935.3,751,940.4,751,947.3z"/>
	<path class="st2" d="M821,928h-20.4v43.8h-5.8v-49H821V928z"/>
	<path class="st2" d="M822,947.3c0-8.2,1.7-14.4,5.2-18.8c3.5-4.4,8.4-6.5,14.8-6.5c3.5,0,6.4,0.6,9,1.8s4.6,2.9,6.3,5.1
		c1.7,2.2,2.9,4.9,3.7,8c0.8,3.1,1.2,6.6,1.2,10.4c0,8.2-1.7,14.4-5.2,18.8c-3.5,4.4-8.4,6.5-14.9,6.5c-3.4,0-6.4-0.6-8.9-1.8
		c-2.5-1.2-4.6-2.9-6.2-5.1c-1.7-2.2-2.9-4.9-3.7-8C822.4,954.6,822,951.1,822,947.3z M828.2,947.3c0,2.7,0.3,5.3,0.8,7.7
		c0.5,2.4,1.4,4.6,2.5,6.4s2.6,3.3,4.3,4.4c1.8,1.1,3.8,1.6,6.2,1.6c4.3,0,7.7-1.6,10.2-4.9c2.5-3.3,3.7-8.4,3.7-15.2
		c0-2.7-0.3-5.2-0.8-7.7c-0.5-2.5-1.4-4.6-2.5-6.4c-1.1-1.8-2.6-3.3-4.3-4.4s-3.8-1.6-6.3-1.6c-4.3,0-7.7,1.6-10.1,4.9
		C829.4,935.3,828.2,940.4,828.2,947.3z"/>
	<path class="st2" d="M897.4,928h-14.6c-0.5,9.3-1.1,17.1-1.9,23.3c-0.8,6.2-1.9,11-3.5,14.5c-1,2.2-2.2,3.9-3.6,4.9
		c-1.4,1-2.9,1.5-4.6,1.5c-0.8,0-1.6-0.1-2.2-0.2c-0.6-0.1-1.2-0.3-1.8-0.5l0.8-5c0.5,0.1,1,0.2,1.5,0.2c0.8,0,1.6-0.3,2.3-0.8
		c0.8-0.5,1.5-1.5,2.3-2.9c0.7-1.3,1.3-2.9,1.9-5c0.6-2.1,1.1-4.8,1.5-8c0.4-3.2,0.8-7.1,1.1-11.5c0.3-4.5,0.5-9.7,0.6-15.6h25.9v49
		h-5.8V928z"/>
	<path class="st2" d="M915.1,922.8h5.8v19c0.2,0,0.6-0.1,1.2-0.2c0.6-0.1,1.2-0.1,1.8-0.2c0.7,0,1.3-0.1,2-0.1
		c0.7,0,1.3-0.1,1.9-0.1c2.2,0,4.4,0.2,6.5,0.7c2.1,0.4,4,1.2,5.7,2.3c1.7,1.1,3,2.6,4,4.5c1,1.9,1.5,4.3,1.5,7.2
		c0,2.8-0.5,5.2-1.5,7.3c-1,2.1-2.3,3.8-4.1,5.1c-1.7,1.4-3.7,2.4-6.1,3c-2.3,0.7-4.8,1-7.5,1c-0.7,0-1.4,0-2.4,0
		c-0.9,0-1.9-0.1-3-0.1c-1-0.1-2.1-0.2-3.1-0.3c-1-0.1-2-0.3-2.9-0.6V922.8z M927.3,967.3c1.7,0,3.3-0.2,4.7-0.7s2.8-1.1,3.9-2
		c1.1-0.9,2-2.1,2.6-3.4c0.6-1.4,0.9-3,0.9-4.8c0-2-0.4-3.6-1.1-4.9c-0.7-1.3-1.6-2.3-2.8-3.1c-1.1-0.8-2.5-1.3-4-1.6
		c-1.5-0.3-3-0.5-4.6-0.5c-0.4,0-0.9,0-1.5,0.1c-0.6,0-1.2,0.1-1.8,0.1c-0.6,0-1.2,0.1-1.7,0.2c-0.5,0.1-0.9,0.2-1.1,0.2v19.9
		c0.7,0.1,1.6,0.2,2.8,0.3C924.9,967.3,926.1,967.3,927.3,967.3z"/>
	<path class="st2" d="M983.2,949.3h-23.5v22.5h-5.8v-49h5.8v21.3h23.5v-21.3h5.8v49h-5.8V949.3z"/>
	<path class="st2" d="M1024.2,958.2h-18l-4.9,13.6h-5.8l18.6-49.8h2.7l18.6,49.8h-6.2L1024.2,958.2z M1008.1,953.2h14.3l-5.4-14.9
		l-1.7-7.4h-0.1l-1.7,7.6L1008.1,953.2z"/>
	<path class="st2" d="M1069.8,971.8h-5.8v-21.3l-7.2,1.5l-12.2,19.8h-6.9l10.9-17.4l4.3-3c-1.7-0.4-3.2-0.9-4.7-1.7
		c-1.4-0.8-2.7-1.8-3.7-2.9c-1-1.2-1.9-2.6-2.4-4.2c-0.6-1.6-0.9-3.4-0.9-5.5c0-2.8,0.5-5.2,1.4-7.1c1-1.9,2.3-3.4,3.9-4.5
		c1.7-1.1,3.6-2,5.8-2.5c2.2-0.5,4.6-0.7,7-0.7c1.6,0,3.3,0.1,5.1,0.2c1.8,0.1,3.6,0.4,5.3,0.8V971.8z M1059.2,927.3
		c-1.5,0-3,0.2-4.4,0.5c-1.4,0.3-2.6,0.8-3.7,1.6c-1.1,0.7-2,1.8-2.6,3c-0.7,1.3-1,2.8-1,4.8c0,1.8,0.3,3.3,0.9,4.5s1.5,2.3,2.6,3.1
		c1.1,0.8,2.3,1.4,3.7,1.8c1.4,0.4,3,0.6,4.6,0.6h4.8v-19.4c-0.7-0.1-1.3-0.2-2-0.3S1060.4,927.3,1059.2,927.3z"/>
	<path class="st2" d="M1131.8,969.7c-1.4,1.1-3.2,1.8-5.3,2.2c-2.1,0.4-4.4,0.6-6.9,0.6c-2.9,0-5.7-0.5-8.3-1.5
		c-2.6-1-4.8-2.5-6.7-4.6c-1.9-2.1-3.4-4.7-4.6-7.9c-1.1-3.2-1.7-7-1.7-11.4c0-4.6,0.6-8.5,1.9-11.7c1.2-3.2,2.9-5.8,4.9-7.8
		s4.3-3.5,6.8-4.4c2.5-0.9,5.1-1.4,7.7-1.4c2.8,0,5.1,0.2,6.9,0.5c1.8,0.3,3.3,0.7,4.6,1.2l-1.4,5.2c-2.2-1.1-5.4-1.7-9.6-1.7
		c-1.9,0-3.8,0.4-5.7,1c-1.9,0.7-3.5,1.8-5,3.4c-1.5,1.6-2.6,3.7-3.5,6.2c-0.9,2.6-1.3,5.7-1.3,9.5c0,3.4,0.4,6.3,1.3,8.8
		c0.8,2.5,2,4.6,3.5,6.3c1.5,1.7,3.2,2.9,5.2,3.8c2,0.8,4.1,1.3,6.5,1.3c2.1,0,3.9-0.2,5.5-0.6c1.6-0.4,2.9-1,4-1.6L1131.8,969.7z"
		/>
	<path class="st2" d="M1140.4,922.8h26.7v5.2h-20.9v16h19.1v5.2h-19.1v17.4h21.2v5.2h-27V922.8z"/>
	<path class="st2" d="M1177.9,923.3c1.8-0.4,3.7-0.7,5.7-0.8c2.1-0.1,4.1-0.2,6.1-0.2c2.1,0,4.3,0.2,6.5,0.6
		c2.2,0.4,4.2,1.2,6.1,2.3s3.3,2.7,4.4,4.6c1.1,2,1.7,4.5,1.7,7.5c0,3-0.5,5.5-1.6,7.6c-1.1,2.1-2.5,3.7-4.3,5
		c-1.8,1.3-3.8,2.2-6.1,2.8c-2.3,0.6-4.6,0.8-7.1,0.8c-0.2,0-0.6,0-1.2,0c-0.5,0-1.1,0-1.7,0c-0.6,0-1.2-0.1-1.7-0.1
		c-0.6,0-1-0.1-1.2-0.1v18.6h-5.8V923.3z M1189.9,927.3c-1.2,0-2.4,0-3.5,0.1c-1.1,0-2,0.2-2.7,0.4V948c0.2,0.1,0.6,0.2,1.1,0.2
		c0.5,0,1,0,1.6,0.1c0.6,0,1.1,0,1.6,0s0.9,0,1.1,0c1.6,0,3.2-0.2,4.7-0.5c1.6-0.3,3-0.9,4.2-1.6c1.3-0.8,2.3-1.9,3-3.4
		c0.8-1.4,1.2-3.3,1.2-5.5c0-1.9-0.4-3.5-1.1-4.8c-0.7-1.3-1.7-2.3-2.9-3.1c-1.2-0.8-2.5-1.3-4-1.6
		C1192.9,927.4,1191.4,927.3,1189.9,927.3z"/>
	<path class="st2" d="M1247,938.6l0.4-5.6h-0.3l-3,5.7l-23.7,33h-3.4v-49h5.8v33.6l-0.5,5.5h0.3l3.1-5.7l23.7-33.4h3.4v49h-5.8
		V938.6z"/>
	<path class="st2" d="M1292.6,971.8h-5.8v-21.3l-7.2,1.5l-12.2,19.8h-6.9l10.9-17.4l4.3-3c-1.7-0.4-3.2-0.9-4.7-1.7
		c-1.4-0.8-2.7-1.8-3.7-2.9c-1-1.2-1.9-2.6-2.4-4.2c-0.6-1.6-0.9-3.4-0.9-5.5c0-2.8,0.5-5.2,1.4-7.1c1-1.9,2.3-3.4,3.9-4.5
		c1.7-1.1,3.6-2,5.8-2.5c2.2-0.5,4.6-0.7,7-0.7c1.6,0,3.3,0.1,5.1,0.2c1.8,0.1,3.6,0.4,5.3,0.8V971.8z M1282,927.3
		c-1.5,0-3,0.2-4.4,0.5c-1.4,0.3-2.6,0.8-3.7,1.6c-1.1,0.7-2,1.8-2.6,3c-0.7,1.3-1,2.8-1,4.8c0,1.8,0.3,3.3,0.9,4.5s1.5,2.3,2.6,3.1
		c1.1,0.8,2.3,1.4,3.7,1.8c1.4,0.4,3,0.6,4.6,0.6h4.8v-19.4c-0.7-0.1-1.3-0.2-2-0.3S1283.2,927.3,1282,927.3z"/>
</g>
</svg>
