<?xml version="1.0" encoding="utf-8"?>
<!-- Generator: Adobe Illustrator 23.0.0, SVG Export Plug-In . SVG Version: 6.00 Build 0)  -->
<svg version="1.1" id="Слой_1" xmlns="http://www.w3.org/2000/svg" xmlns:xlink="http://www.w3.org/1999/xlink" x="0px" y="0px"
	 viewBox="0 0 190 70" style="enable-background:new 0 0 190 70;" xml:space="preserve">
<style type="text/css">
	.st0{fill:none;}
	.st1{fill:#169DA7;}
	.st2{fill:#FFFFFF;}
</style>
<rect class="st0" width="190" height="70"/>
<g>
	<g>
		<path class="st1" d="M113.9,41.1c-0.5-0.2-0.7-0.6-0.7-1.2c0-0.6,0.2-1,0.7-1.2s0.9-0.2,1.4,0c0.4,0.2,0.7,0.6,0.7,1.2
			c0,0.6-0.2,1-0.7,1.2S114.3,41.3,113.9,41.1z"/>
	</g>
	<g>
		<path class="st1" d="M118.6,34.9c0-1.9,0.6-3.5,1.8-4.7c1.2-1.2,2.7-1.8,4.6-1.8s3.4,0.6,4.6,1.8c1.2,1.2,1.8,2.8,1.8,4.7
			s-0.6,3.4-1.8,4.6c-1.2,1.2-2.7,1.8-4.6,1.8c-1.8,0-3.4-0.6-4.6-1.8C119.2,38.2,118.6,36.7,118.6,34.9z M129.4,34.9
			c0-1.4-0.4-2.5-1.2-3.3c-0.8-0.9-1.9-1.3-3.1-1.3c-1.3,0-2.3,0.4-3.1,1.3c-0.8,0.9-1.2,2-1.2,3.3s0.4,2.4,1.2,3.2
			c0.8,0.8,1.9,1.2,3.1,1.2s2.3-0.4,3.1-1.2C128.9,37.2,129.4,36.1,129.4,34.9z"/>
	</g>
	<g>
		<path class="st1" d="M134.4,28.6L134.4,28.6h1.9l0.1,2c1.1-1.4,2.5-2.1,4.2-2.1c1.6,0,2.9,0.5,3.9,1.5s1.5,2.4,1.5,4.2V41h-2v-6.8
			c0-1.2-0.3-2.1-1-2.8s-1.6-1-2.8-1c-1.1,0-2,0.4-2.7,1.2c-0.7,0.8-1.1,1.7-1.1,2.9V41h-2L134.4,28.6L134.4,28.6z"/>
	</g>
	<g>
		<path class="st1" d="M151.8,23.5V41h-2V23.5H151.8z"/>
	</g>
	<g>
		<path class="st1" d="M156,26.1c-0.5-0.2-0.7-0.6-0.7-1.2s0.2-1,0.7-1.2s0.9-0.2,1.3,0c0.5,0.2,0.7,0.6,0.7,1.2s-0.2,1-0.7,1.2
			C156.9,26.3,156.5,26.3,156,26.1z M155.7,28.6V41h2V28.6H155.7z"/>
	</g>
	<g>
		<path class="st1" d="M161.5,28.6L161.5,28.6h1.9l0.1,2c1.1-1.4,2.5-2.1,4.2-2.1c1.6,0,2.9,0.5,3.9,1.5s1.5,2.4,1.5,4.2V41h-2v-6.8
			c0-1.2-0.3-2.1-1-2.8s-1.6-1-2.8-1c-1.1,0-2,0.4-2.7,1.2c-0.7,0.8-1.1,1.7-1.1,2.9V41h-2L161.5,28.6L161.5,28.6z"/>
	</g>
	<g>
		<path class="st1" d="M187.7,39L187.7,39c-0.6,0.7-1.4,1.3-2.4,1.6c-1,0.4-2,0.6-3,0.6c-1.9,0-3.5-0.6-4.7-1.8s-1.8-2.7-1.8-4.7
			c0-1.9,0.6-3.4,1.8-4.6s2.7-1.8,4.6-1.8c2,0,3.6,0.6,4.8,1.9c1.2,1.2,1.6,3,1.4,5.4H178c0.1,1.1,0.6,2,1.4,2.7
			c0.8,0.7,1.9,1,3.1,1c0.7,0,1.5-0.1,2.2-0.4s1.3-0.7,1.7-1.1L187.7,39z M186.5,33.9L186.5,33.9c0-1.2-0.4-2.1-1.2-2.7s-1.7-1-3-1
			c-1.1,0-2.1,0.3-2.9,1c-0.8,0.6-1.3,1.5-1.5,2.7H186.5z"/>
	</g>
</g>
<g>
	<path class="st2" d="M51.3,13v11.8c0.7-1.3,1.7-2.3,3.1-2.9c1.4-0.7,2.8-1,4.3-1c2.9,0,5.3,0.9,7.2,2.7c1.9,1.8,2.8,4.3,2.8,7.5
		s-0.9,5.7-2.8,7.5s-4.3,2.7-7.2,2.7c-1.5,0-2.9-0.3-4.3-1c-1.3-0.7-2.4-1.7-3.1-3L51.1,41H48V13H51.3z M58.4,24c-2,0-3.6,0.7-5,2
		c-1.3,1.3-2,3-2,5.1s0.7,3.9,2,5.2s3,2,5,2s3.7-0.6,5-1.9c1.3-1.3,2-3,2-5.2s-0.7-4-2-5.3C62.1,24.6,60.4,24,58.4,24z"/>
	<path class="st2" d="M76.5,21.2L76.5,21.2l0.3,2.9c1.2-2.2,3.2-3.3,6.1-3.3c1.7-0.1,3.3,0.4,4.6,1.5L86,25.2
		c-1-0.7-2.2-1.1-3.4-1.1c-1.6,0-3,0.6-4.1,1.7s-1.7,2.5-1.7,4.3v11h-3.3V21.2H76.5z"/>
	<path class="st2" d="M89.3,31.2c0-3,1-5.5,2.9-7.5c1.9-1.9,4.4-2.9,7.3-2.9c3,0,5.5,1,7.4,2.9s2.9,4.4,2.9,7.5c0,3-1,5.4-2.9,7.3
		s-4.4,2.9-7.4,2.9s-5.4-1-7.3-2.9S89.3,34.1,89.3,31.2z M106.6,31.2c0-2.2-0.7-3.9-2-5.3s-3-2.1-5-2.1s-3.7,0.7-5,2
		c-1.3,1.4-2,3.1-2,5.3c0,2.1,0.7,3.8,2,5.1s3,2,5,2s3.7-0.7,5-2S106.6,33.2,106.6,31.2z"/>
</g>
<g>
	<g>
		<path class="st1" d="M31,19.4c0,5.1-7.4,13.4-7.5,13.6c2,2.3,4.2,4.4,6.6,6.3C32.4,35,34,30.6,34,27c0-3.9-1.3-7.5-3.6-10.4
			C30.8,17.5,31,18.4,31,19.4z"/>
	</g>
	<g>
		<path class="st2" d="M23.5,33L23.5,33c0,0-0.3-0.3-0.8-0.9l0,0l0,0c-0.3-0.4-0.7-0.8-1.1-1.4l0,0l0,0c-0.3-0.4-0.7-0.9-1-1.3l0,0
			l0,0c-0.4-0.5-0.8-1.1-1.2-1.7l0,0l0,0c-0.8-1.2-1.6-2.5-2.2-3.8l0,0c-0.1-0.2-0.2-0.4-0.2-0.6c-0.1-0.2-0.1-0.3-0.2-0.5
			s-0.1-0.3-0.2-0.5s-0.1-0.4-0.2-0.6c0-0.1-0.1-0.3-0.1-0.4c-0.1-0.2-0.1-0.4-0.1-0.6c0-0.1,0-0.2-0.1-0.3C16,20,16,19.7,16,19.4
			c0-4.1,3.4-7.4,7.5-7.4c0.3,0,0.6,0,0.9,0.1c0.1,0,0.2,0,0.3,0c0.2,0,0.4,0.1,0.6,0.1h0.1C22.9,10.8,20.1,10,17,10
			C7.6,10,0,17.6,0,27c0,11.8,17,31,17,31s8.1-9.2,13.1-18.7C27.7,37.4,25.5,35.3,23.5,33z"/>
	</g>
</g>
<g>
	<path class="st2" d="M48.3,48.6v3.8c0.5-1,1.4-1.4,2.5-1.4c1.7,0,3,1.1,3,3.1c0,2-1.3,3.1-3,3.1c-1,0-2-0.5-2.5-1.4V57h-0.6v-8.4
		H48.3z M48.3,54c0,1.5,1,2.5,2.4,2.5c1.3,0,2.4-0.8,2.4-2.5c0-1.7-1.1-2.5-2.4-2.5C49.4,51.5,48.3,52.6,48.3,54z"/>
	<path class="st2" d="M55,54c0-1.8,1.3-3.1,3-3.1c1.7,0,3.2,1,2.9,3.3h-5.3c0.1,1.4,1.2,2.2,2.4,2.2c0.8,0,1.7-0.3,2.1-0.9l0.4,0.3
		C60,56.7,59,57.1,58,57.1C56.4,57.1,55,55.9,55,54z M60.4,53.8c0-1.5-1-2.3-2.4-2.3c-1.2,0-2.3,0.8-2.4,2.3H60.4z"/>
	<path class="st2" d="M66.7,52.2c-0.6-0.5-1.2-0.6-1.8-0.6c-0.9,0-1.8,0.3-1.8,1.1c0,0.8,1.1,0.9,1.8,1.1c1.1,0.2,2.5,0.4,2.4,1.7
		c0,1.3-1.4,1.7-2.4,1.7s-2.1-0.4-2.6-1.2l0.4-0.4c0.5,0.7,1.4,1,2.2,1c0.7,0,1.8-0.2,1.8-1.1c0-0.9-1-1-1.9-1.2
		c-1.2-0.2-2.3-0.4-2.3-1.6c0-1.2,1.2-1.7,2.4-1.7c0.9,0,1.6,0.2,2.2,0.8L66.7,52.2z"/>
	<path class="st2" d="M70.1,49.3v1.8h2v0.5h-2v3.6c0,0.8,0.2,1.4,1.1,1.4c0.3,0,0.6-0.1,0.9-0.2l0.2,0.5c-0.4,0.2-0.7,0.3-1.1,0.3
		c-1.3,0-1.7-0.7-1.7-1.9v-3.6h-1.3v-0.5h1.3v-1.7L70.1,49.3z"/>
	<path class="st2" d="M77.7,51.1l0,1.1c0.4-0.8,1.2-1.1,2-1.1c0.4,0,0.9,0.1,1.3,0.3l-0.3,0.5c-0.3-0.2-0.7-0.3-1-0.3
		c-1.1,0-2,0.9-2,2V57h-0.6v-5.9H77.7z"/>
	<path class="st2" d="M81.7,54c0-1.8,1.3-3.1,3-3.1c1.7,0,3.2,1,2.9,3.3h-5.3c0.1,1.4,1.2,2.2,2.4,2.2c0.8,0,1.7-0.3,2.1-0.9
		l0.4,0.3c-0.6,0.8-1.6,1.1-2.6,1.1C83,57.1,81.7,55.9,81.7,54z M87.1,53.8c0-1.5-1-2.3-2.4-2.3c-1.2,0-2.3,0.8-2.4,2.3H87.1z"/>
	<path class="st2" d="M93.3,52.2c-0.6-0.5-1.2-0.6-1.8-0.6c-0.9,0-1.8,0.3-1.8,1.1c0,0.8,1.1,0.9,1.8,1.1c1.1,0.2,2.5,0.4,2.4,1.7
		c0,1.3-1.4,1.7-2.4,1.7s-2.1-0.4-2.6-1.2l0.4-0.4c0.5,0.7,1.4,1,2.2,1c0.7,0,1.8-0.2,1.8-1.1c0-0.9-1-1-1.9-1.2
		c-1.2-0.2-2.3-0.4-2.3-1.6c0-1.2,1.2-1.7,2.4-1.7c0.9,0,1.6,0.2,2.2,0.8L93.3,52.2z"/>
	<path class="st2" d="M95.1,54c0-1.8,1.3-3.1,3-3.1s3.2,1,2.9,3.3h-5.3c0.1,1.4,1.2,2.2,2.4,2.2c0.8,0,1.7-0.3,2.1-0.9l0.4,0.3
		c-0.6,0.8-1.6,1.1-2.6,1.1C96.4,57.1,95.1,55.9,95.1,54z M100.5,53.8c0-1.5-1-2.3-2.4-2.3c-1.2,0-2.3,0.8-2.4,2.3H100.5z"/>
	<path class="st2" d="M103.3,51.1l0,1.1c0.4-0.8,1.2-1.1,2-1.1c0.4,0,0.9,0.1,1.3,0.3l-0.3,0.5c-0.3-0.2-0.7-0.3-1-0.3
		c-1.1,0-2,0.9-2,2V57h-0.6v-5.9H103.3z"/>
	<path class="st2" d="M107.4,51.1h0.6l2.2,5.2l2.2-5.2h0.6l-2.5,5.9h-0.6L107.4,51.1z"/>
	<path class="st2" d="M119.8,51.1c0,2,0,3.9,0,5.9h-0.6v-1.3c-0.6,0.9-1.5,1.4-2.4,1.4c-1.7,0-3-1.2-3-3.1c0-1.8,1.4-3,3-3
		c1,0,1.9,0.4,2.4,1.4v-1.3H119.8z M114.4,54c0,1.5,1.1,2.5,2.4,2.5c3.3,0,3.3-5,0-5C115.5,51.6,114.4,52.6,114.4,54z"/>
	<path class="st2" d="M122.7,49.3v1.8h2v0.5h-2v3.6c0,0.8,0.2,1.4,1.1,1.4c0.3,0,0.6-0.1,0.9-0.2l0.2,0.5c-0.4,0.2-0.7,0.3-1.1,0.3
		c-1.3,0-1.7-0.7-1.7-1.9v-3.6h-1.3v-0.5h1.3v-1.7L122.7,49.3z"/>
	<path class="st2" d="M127,49.1c0,0.6-0.9,0.6-0.9,0C126,48.5,127,48.5,127,49.1z M126.2,51.1V57h0.6v-5.9H126.2z"/>
	<path class="st2" d="M128.5,54c0-1.9,1.3-3.1,3-3.1c1.7,0,3,1.2,3,3.1s-1.3,3-3,3C129.8,57.1,128.5,55.9,128.5,54z M133.9,54
		c0-1.5-1.1-2.5-2.4-2.5c-1.3,0-2.4,1-2.4,2.5s1.1,2.5,2.4,2.5C132.8,56.5,133.9,55.6,133.9,54z"/>
	<path class="st2" d="M136.6,51.1v1.1c0.5-0.8,1.3-1.2,2.1-1.2c1.6,0,2.7,1,2.7,2.6V57h-0.6v-3.4c0-1.3-0.8-2.1-2.1-2.1
		c-1.2,0-2.1,0.9-2.1,2.2V57H136v-5.9H136.6z"/>
	<path class="st2" d="M146.3,54c0-1.9,1.3-3.1,3-3.1s3,1.2,3,3.1s-1.3,3-3,3S146.3,55.9,146.3,54z M151.7,54c0-1.5-1.1-2.5-2.4-2.5
		c-1.3,0-2.4,1-2.4,2.5s1.1,2.5,2.4,2.5C150.6,56.5,151.7,55.6,151.7,54z"/>
	<path class="st2" d="M153.8,59.5v-8.4h0.6v1.4c0.5-0.9,1.4-1.5,2.6-1.5c1.6,0.1,2.9,1.1,2.9,3c0,2-1.3,3.1-3,3.1
		c-1,0-1.9-0.5-2.4-1.5v3.8H153.8z M159.2,54c0-1.7-1.1-2.5-2.4-2.5c-1.4,0-2.4,1-2.4,2.5s1,2.5,2.4,2.5
		C158.1,56.5,159.2,55.7,159.2,54z"/>
	<path class="st2" d="M162.8,49.3v1.8h2v0.5h-2v3.6c0,0.8,0.2,1.4,1.1,1.4c0.3,0,0.6-0.1,0.9-0.2l0.2,0.5c-0.4,0.2-0.7,0.3-1.1,0.3
		c-1.3,0-1.7-0.7-1.7-1.9v-3.6h-1.3v-0.5h1.3v-1.7L162.8,49.3z"/>
	<path class="st2" d="M167.1,49.1c0,0.6-0.9,0.6-0.9,0C166.1,48.5,167.1,48.5,167.1,49.1z M166.3,51.1V57h0.6v-5.9H166.3z"/>
	<path class="st2" d="M168.6,54c0-1.9,1.3-3.1,3-3.1c1.7,0,3,1.2,3,3.1s-1.3,3-3,3C169.9,57.1,168.6,55.9,168.6,54z M174,54
		c0-1.5-1.1-2.5-2.4-2.5c-1.3,0-2.4,1-2.4,2.5s1.1,2.5,2.4,2.5C172.9,56.5,174,55.6,174,54z"/>
	<path class="st2" d="M176.7,51.1v1.1c0.5-0.8,1.3-1.2,2.1-1.2c1.6,0,2.7,1,2.7,2.6V57h-0.6v-3.4c0-1.3-0.8-2.1-2.1-2.1
		c-1.2,0-2.1,0.9-2.1,2.2V57h-0.6v-5.9H176.7z"/>
	<path class="st2" d="M187.2,52.2c-0.6-0.5-1.2-0.6-1.8-0.6c-0.9,0-1.8,0.3-1.8,1.1c0,0.8,1.1,0.9,1.8,1.1c1.1,0.2,2.5,0.4,2.4,1.7
		c0,1.3-1.4,1.7-2.4,1.7c-1,0-2.1-0.4-2.6-1.2l0.4-0.4c0.5,0.7,1.4,1,2.2,1c0.7,0,1.8-0.2,1.8-1.1c0-0.9-1-1-1.9-1.2
		c-1.2-0.2-2.3-0.4-2.3-1.6c0-1.2,1.2-1.7,2.4-1.7c0.9,0,1.6,0.2,2.2,0.8L187.2,52.2z"/>
</g>
</svg>
