<?xml version="1.0" encoding="utf-8"?>
<!-- Generator: Adobe Illustrator 23.0.0, SVG Export Plug-In . SVG Version: 6.00 Build 0)  -->
<svg version="1.1" id="Слой_1" xmlns="http://www.w3.org/2000/svg" xmlns:xlink="http://www.w3.org/1999/xlink" x="0px" y="0px"
	 viewBox="0 0 230 90" style="enable-background:new 0 0 230 90;" xml:space="preserve">
<style type="text/css">
	.st0{fill:none;}
	.st1{fill:#2D343A;}
	.st2{fill:#169DA7;}
	.st3{fill:#365A77;}
</style>
<rect class="st0" width="230" height="90"/>
<g>
	<path class="st1" d="M57.6,61.8h1v4.4c0.2-0.5,0.6-0.8,1.2-1.2c0.5-0.2,1.1-0.4,1.7-0.4c1.1,0,1.9,0.4,2.6,1s1.1,1.6,1.1,2.8
		c0,1.2-0.4,2-1,2.8c-0.7,0.6-1.6,1-2.6,1c-1.3,0-2.3-0.5-2.8-1.6v1.3h-1.2V61.8z M63.2,66.4c-0.5-0.5-1.2-0.7-1.9-0.7
		s-1.4,0.2-1.9,0.7c-0.5,0.5-0.8,1.2-0.8,2c0,0.8,0.2,1.4,0.7,2c0.5,0.5,1.2,0.8,1.9,0.8s1.4-0.2,1.9-0.7c0.5-0.5,0.7-1.2,0.7-2
		C64.1,67.4,63.7,66.8,63.2,66.4z"/>
	<path class="st1" d="M73.6,68.8h-6.2c0.1,0.7,0.4,1.3,0.8,1.7c0.5,0.5,1.1,0.6,1.8,0.6c0.5,0,1-0.1,1.3-0.2
		c0.5-0.1,0.8-0.4,1.1-0.7l0.6,0.6c-0.4,0.5-0.8,0.7-1.3,1C71,71.9,70.6,72,70,72c-1.1,0-1.9-0.4-2.6-1c-0.7-0.7-1.1-1.6-1.1-2.8
		c0-1.1,0.4-1.9,1.1-2.6c0.7-0.7,1.6-1.1,2.6-1.1c1.2,0,2,0.4,2.8,1.1S73.7,67.4,73.6,68.8z M67.3,67.9h5.3c0-0.7-0.2-1.3-0.7-1.8
		c-0.5-0.5-1.1-0.6-1.9-0.6c-0.7,0-1.3,0.2-1.8,0.6C67.7,66.6,67.4,67.2,67.3,67.9z"/>
	<path class="st1" d="M80.5,65.6l-0.6,0.6c-0.5-0.5-1.2-0.7-2.2-0.7c-0.6,0-1.1,0.1-1.4,0.2c-0.4,0.2-0.6,0.5-0.6,0.8
		c0,0.2,0.1,0.5,0.4,0.6c0.2,0.1,0.5,0.2,0.7,0.4c0.2,0,0.6,0.1,1,0.1s0.5,0.1,0.7,0.1c0.1,0,0.4,0.1,0.6,0.1
		c0.2,0.1,0.5,0.1,0.6,0.2s0.4,0.2,0.5,0.4c0.1,0.1,0.2,0.4,0.4,0.6c0.1,0.2,0.1,0.5,0.1,0.7c0,0.5-0.1,0.8-0.5,1.2
		c-0.2,0.4-0.6,0.6-1.1,0.7S78.2,72,77.6,72c-1.4,0-2.5-0.5-3.1-1.4l0.6-0.7c0.6,0.7,1.4,1.2,2.5,1.2c0.5,0,1-0.1,1.3-0.2
		c0.4-0.2,0.6-0.5,0.6-1c0-0.2,0-0.4-0.1-0.6c-0.1-0.1-0.2-0.2-0.5-0.4c-0.2-0.1-0.5-0.1-0.6-0.2c-0.2,0-0.5-0.1-0.8-0.1
		c-0.4,0-0.6-0.1-0.8-0.1c-0.2,0-0.5-0.1-0.7-0.2c-0.2-0.1-0.5-0.2-0.6-0.4c-0.1-0.1-0.4-0.4-0.5-0.5c-0.1-0.2-0.1-0.5-0.1-0.7
		c0-0.7,0.2-1.2,0.8-1.6s1.2-0.5,2-0.5C79,64.7,79.8,64.9,80.5,65.6z"/>
	<path class="st1" d="M83.4,62.8l1-0.1v2.2h2.3v0.8h-2.3v4.1c0,0.5,0.1,0.8,0.2,1.1c0.1,0.2,0.5,0.4,1,0.4c0.2,0,0.6-0.1,1.1-0.2
		l0.4,0.8c-0.5,0.2-1,0.4-1.3,0.4c-0.7,0-1.3-0.2-1.7-0.6c-0.4-0.4-0.5-1-0.5-1.8v-4.1h-1.4v-0.8h1.4v-2H83.4z"/>
	<path class="st1" d="M92,64.8h1V66c0.2-0.5,0.5-0.7,1-1c0.4-0.2,0.8-0.4,1.3-0.4c0.6,0,1.2,0.1,1.7,0.5L96.5,66
		c-0.4-0.2-0.7-0.4-1.2-0.4c-0.6,0-1.2,0.2-1.6,0.6c-0.5,0.5-0.6,1-0.6,1.6v4.1h-1v-7.1H92z"/>
	<path class="st1" d="M104.9,68.8h-6.2c0.1,0.7,0.4,1.3,0.8,1.7c0.5,0.5,1.1,0.6,1.8,0.6c0.5,0,1-0.1,1.3-0.2
		c0.5-0.1,0.8-0.4,1.1-0.7l0.6,0.6c-0.4,0.5-0.8,0.7-1.3,1c-0.6,0.2-1.1,0.4-1.7,0.4c-1.1,0-1.9-0.4-2.6-1c-0.7-0.7-1.1-1.6-1.1-2.8
		c0-1.1,0.4-1.9,1.1-2.6c0.7-0.7,1.6-1.1,2.6-1.1c1.2,0,2,0.4,2.8,1.1C104.6,66.4,105,67.4,104.9,68.8z M98.6,67.9h5.3
		c0-0.7-0.2-1.3-0.7-1.8c-0.5-0.5-1.1-0.6-1.9-0.6c-0.7,0-1.3,0.2-1.8,0.6C99,66.6,98.6,67.2,98.6,67.9z"/>
	<path class="st1" d="M111.7,65.6l-0.6,0.6c-0.5-0.5-1.2-0.7-2.2-0.7c-0.6,0-1.1,0.1-1.4,0.2c-0.4,0.2-0.6,0.5-0.6,0.8
		c0,0.2,0.1,0.5,0.4,0.6c0.2,0.1,0.5,0.2,0.7,0.4c0.2,0,0.6,0.1,1,0.1c0.4,0,0.5,0.1,0.7,0.1c0.1,0,0.4,0.1,0.6,0.1
		c0.2,0.1,0.5,0.1,0.6,0.2c0.1,0.1,0.4,0.2,0.5,0.4c0.1,0.1,0.2,0.4,0.4,0.6c0.1,0.2,0.1,0.5,0.1,0.7c0,0.5-0.1,0.8-0.5,1.2
		c-0.2,0.4-0.6,0.6-1.1,0.7c-0.5,0.1-0.8,0.2-1.4,0.2c-1.4,0-2.5-0.5-3.1-1.4l0.6-0.7c0.6,0.7,1.4,1.2,2.5,1.2c0.5,0,1-0.1,1.3-0.2
		s0.6-0.5,0.6-1c0-0.2,0-0.4-0.1-0.6c-0.1-0.1-0.2-0.2-0.5-0.4c-0.2-0.1-0.5-0.1-0.6-0.2c-0.2,0-0.5-0.1-0.8-0.1
		c-0.4,0-0.6-0.1-0.8-0.1s-0.5-0.1-0.7-0.2c-0.2-0.1-0.5-0.2-0.6-0.4c-0.1-0.1-0.4-0.4-0.5-0.5c-0.1-0.2-0.1-0.5-0.1-0.7
		c0-0.7,0.2-1.2,0.8-1.6s1.2-0.5,2-0.5C110.2,64.7,111.1,64.9,111.7,65.6z"/>
	<path class="st1" d="M120.6,68.8h-6.2c0.1,0.7,0.4,1.3,0.8,1.7c0.5,0.5,1.1,0.6,1.8,0.6c0.5,0,1-0.1,1.3-0.2
		c0.5-0.1,0.8-0.4,1.1-0.7l0.6,0.6c-0.4,0.5-0.8,0.7-1.3,1c-0.6,0.2-1.1,0.4-1.7,0.4c-1.1,0-1.9-0.4-2.6-1c-0.7-0.7-1.1-1.6-1.1-2.8
		c0-1.1,0.4-1.9,1.1-2.6c0.7-0.7,1.6-1.1,2.6-1.1c1.2,0,2,0.4,2.8,1.1C120.4,66.4,120.7,67.4,120.6,68.8z M114.4,67.9h5.3
		c0-0.7-0.2-1.3-0.7-1.8c-0.5-0.5-1.1-0.6-1.9-0.6c-0.7,0-1.3,0.2-1.8,0.6C114.7,66.6,114.4,67.2,114.4,67.9z"/>
	<path class="st1" d="M122.3,64.8h1V66c0.2-0.5,0.5-0.7,1-1c0.4-0.2,0.8-0.4,1.3-0.4c0.6,0,1.2,0.1,1.7,0.5l-0.5,0.8
		c-0.4-0.2-0.7-0.4-1.2-0.4c-0.6,0-1.2,0.2-1.6,0.6c-0.5,0.5-0.6,1-0.6,1.6v4.1h-1v-7.1H122.3z"/>
	<path class="st1" d="M133.7,64.8h1.1l-3,7.2h-1.1l-3-7.2h1.1l2.5,6.1L133.7,64.8z"/>
	<path class="st1" d="M142.3,66.2v-1.4h1V72h-0.8v-1.4c-0.2,0.5-0.7,1-1.2,1.2c-0.5,0.2-1.1,0.4-1.6,0.4c-1.1,0-1.9-0.4-2.6-1.1
		c-0.7-0.7-1.1-1.6-1.1-2.6s0.4-2,1.1-2.6c0.7-0.7,1.6-1,2.6-1c0.6,0,1.1,0.1,1.7,0.4C141.7,65.4,142.1,65.8,142.3,66.2z
		 M139.6,65.5c-0.7,0-1.4,0.2-1.9,0.8c-0.5,0.6-0.8,1.2-0.8,2c0,0.8,0.2,1.6,0.8,2c0.5,0.5,1.2,0.8,1.9,0.8c0.5,0,1-0.1,1.3-0.4
		c0.4-0.2,0.7-0.5,1-0.8c0.2-0.4,0.4-0.7,0.5-1.1s0.1-0.8,0-1.2c-0.1-0.4-0.2-0.7-0.5-1.1s-0.5-0.6-1-0.8
		C140.5,65.6,140,65.5,139.6,65.5z"/>
	<path class="st1" d="M146.4,62.8l1-0.1v2.2h2.3v0.8h-2.3v4.1c0,0.5,0.1,0.8,0.2,1.1c0.1,0.2,0.5,0.4,1,0.4c0.2,0,0.6-0.1,1.1-0.2
		l0.4,0.8c-0.5,0.2-1,0.4-1.3,0.4c-0.7,0-1.3-0.2-1.7-0.6c-0.4-0.4-0.5-1-0.5-1.8v-4.1h-1.4v-0.8h1.4v-2H146.4z"/>
	<path class="st1" d="M151.4,63.1c-0.2-0.1-0.4-0.4-0.4-0.6c0-0.2,0.1-0.5,0.4-0.6c0.2-0.1,0.5-0.1,0.7,0c0.2,0.1,0.4,0.4,0.4,0.6
		c0,0.2-0.1,0.5-0.4,0.6C151.8,63.2,151.7,63.2,151.4,63.1z M152.2,64.8h-1V72h1V64.8z"/>
	<path class="st1" d="M157.7,64.7c1.1,0,1.9,0.4,2.6,1.1c0.7,0.7,1.1,1.6,1.1,2.6s-0.4,2-1.1,2.6c-0.7,0.7-1.6,1-2.6,1
		s-1.9-0.4-2.6-1.1c-0.7-0.7-1.1-1.6-1.1-2.6s0.4-2,1.1-2.6C155.8,65,156.6,64.7,157.7,64.7z M159.6,66.4c-0.5-0.5-1.2-0.8-1.9-0.8
		c-0.8,0-1.4,0.2-1.9,0.8c-0.5,0.5-0.7,1.2-0.7,2c0,0.8,0.2,1.6,0.7,2c0.5,0.5,1.2,0.7,1.9,0.7c0.8,0,1.4-0.2,1.9-0.7
		c0.5-0.5,0.7-1.2,0.7-2C160.4,67.6,160.1,66.8,159.6,66.4z"/>
	<path class="st1" d="M169.8,72h-1v-4c0-0.7-0.2-1.3-0.6-1.7c-0.4-0.4-1-0.6-1.7-0.6s-1.2,0.2-1.7,0.7c-0.5,0.5-0.6,1.1-0.6,1.8v3.8
		h-1.1v-7.2h1v1.2c0.6-0.8,1.4-1.3,2.5-1.3c1,0,1.7,0.2,2.3,0.8c0.6,0.6,0.8,1.3,0.8,2.4V72z"/>
	<path class="st1" d="M178.9,64.7c1.1,0,1.9,0.4,2.6,1.1c0.7,0.7,1.1,1.6,1.1,2.6s-0.4,2-1.1,2.6c-0.7,0.7-1.6,1-2.6,1
		c-1.1,0-1.9-0.4-2.6-1.1c-0.7-0.7-1.1-1.6-1.1-2.6s0.4-2,1.1-2.6S177.8,64.7,178.9,64.7z M181,66.4c-0.5-0.5-1.2-0.8-1.9-0.8
		c-0.8,0-1.4,0.2-1.9,0.8c-0.5,0.5-0.7,1.2-0.7,2c0,0.8,0.2,1.6,0.7,2c0.5,0.5,1.2,0.7,1.9,0.7c0.8,0,1.4-0.2,1.9-0.7
		c0.5-0.5,0.7-1.2,0.7-2C181.7,67.6,181.4,66.8,181,66.4z"/>
	<path class="st1" d="M185.4,75h-1V64.8h1v1.6c0.2-0.5,0.7-1,1.2-1.2c0.5-0.2,1.1-0.5,1.7-0.5c1.1,0,1.9,0.4,2.5,1.1
		c0.6,0.7,1,1.6,1,2.6c0,1.2-0.4,2-1,2.8c-0.7,0.7-1.6,1-2.6,1c-0.6,0-1.1-0.1-1.7-0.4c-0.5-0.2-1-0.7-1.2-1.2V75H185.4z
		 M188.2,71.2c0.8,0,1.4-0.2,1.9-0.7s0.7-1.2,0.7-2c0-0.8-0.2-1.6-0.7-2c-0.5-0.5-1.2-0.7-1.9-0.7c-0.8,0-1.4,0.2-1.9,0.8
		c-0.5,0.5-0.7,1.2-0.7,2c0,0.8,0.2,1.4,0.7,1.9S187.4,71.2,188.2,71.2z"/>
	<path class="st1" d="M194.5,62.8l1-0.1v2.2h2.3v0.8h-2.3v4.1c0,0.5,0.1,0.8,0.2,1.1c0.1,0.2,0.5,0.4,1,0.4c0.2,0,0.6-0.1,1.1-0.2
		l0.4,0.8c-0.5,0.2-1,0.4-1.3,0.4c-0.7,0-1.3-0.2-1.7-0.6c-0.4-0.4-0.5-1-0.5-1.8v-4.1h-1.4v-0.8h1.4v-2H194.5z"/>
	<path class="st1" d="M199.4,63.1c-0.2-0.1-0.4-0.4-0.4-0.6c0-0.2,0.1-0.5,0.4-0.6c0.2-0.1,0.5-0.1,0.7,0c0.2,0.1,0.4,0.4,0.4,0.6
		c0,0.2-0.1,0.5-0.4,0.6C199.9,63.2,199.7,63.2,199.4,63.1z M200.3,64.8h-1V72h1V64.8z"/>
	<path class="st1" d="M205.8,64.7c1.1,0,1.9,0.4,2.6,1.1s1.1,1.6,1.1,2.6s-0.4,2-1.1,2.6c-0.7,0.7-1.6,1-2.6,1
		c-1.1,0-1.9-0.4-2.6-1.1c-0.7-0.7-1.1-1.6-1.1-2.6s0.4-2,1.1-2.6C203.8,65,204.7,64.7,205.8,64.7z M207.7,66.4
		c-0.5-0.5-1.2-0.8-1.9-0.8c-0.8,0-1.4,0.2-1.9,0.8c-0.5,0.5-0.7,1.2-0.7,2c0,0.8,0.2,1.6,0.7,2c0.5,0.5,1.2,0.7,1.9,0.7
		c0.8,0,1.4-0.2,1.9-0.7c0.5-0.5,0.7-1.2,0.7-2C208.4,67.6,208.2,66.8,207.7,66.4z"/>
	<path class="st1" d="M217.9,72h-1v-4c0-0.7-0.2-1.3-0.6-1.7s-1-0.6-1.7-0.6c-0.7,0-1.2,0.2-1.7,0.7c-0.5,0.5-0.6,1.1-0.6,1.8v3.8
		h-1v-7.2h1v1.2c0.6-0.8,1.4-1.3,2.5-1.3c1,0,1.7,0.2,2.3,0.8c0.6,0.6,0.8,1.3,0.8,2.4v4H217.9z"/>
	<path class="st1" d="M225.4,65.6l-0.6,0.6c-0.5-0.5-1.2-0.7-2.2-0.7c-0.6,0-1.1,0.1-1.4,0.2c-0.4,0.2-0.6,0.5-0.6,0.8
		c0,0.2,0.1,0.5,0.4,0.6c0.2,0.1,0.5,0.2,0.7,0.4c0.2,0,0.6,0.1,1,0.1s0.5,0.1,0.7,0.1c0.1,0,0.4,0.1,0.6,0.1
		c0.2,0.1,0.5,0.1,0.6,0.2c0.1,0.1,0.4,0.2,0.5,0.4c0.1,0.1,0.2,0.4,0.4,0.6c0.1,0.2,0.1,0.5,0.1,0.7c0,0.5-0.1,0.8-0.5,1.2
		c-0.2,0.4-0.6,0.6-1.1,0.7s-0.8,0.2-1.4,0.2c-1.4,0-2.5-0.5-3.1-1.4l0.6-0.7c0.6,0.7,1.4,1.2,2.5,1.2c0.5,0,1-0.1,1.3-0.2
		c0.4-0.2,0.6-0.5,0.6-1c0-0.2,0-0.4-0.1-0.6c-0.1-0.1-0.2-0.2-0.5-0.4c-0.2-0.1-0.5-0.1-0.6-0.2c-0.2,0-0.5-0.1-0.8-0.1
		s-0.6-0.1-0.8-0.1c-0.2,0-0.5-0.1-0.7-0.2c-0.2-0.1-0.5-0.2-0.6-0.4c-0.1-0.1-0.4-0.4-0.4-0.5c-0.1-0.2-0.1-0.5-0.1-0.7
		c0-0.7,0.2-1.2,0.8-1.6c0.6-0.4,1.2-0.5,2-0.5C223.7,64.7,224.6,64.9,225.4,65.6z"/>
</g>
<g>
	<g>
		<path class="st2" d="M136.7,52.3c-0.6-0.2-0.8-0.7-0.8-1.4c0-0.7,0.2-1.2,0.8-1.4c0.6-0.2,1.1-0.2,1.7,0c0.5,0.2,0.8,0.7,0.8,1.4
			c0,0.7-0.2,1.2-0.8,1.4C137.8,52.6,137.2,52.6,136.7,52.3z"/>
	</g>
	<g>
		<path class="st2" d="M142.3,44.9c0-2.3,0.7-4.2,2.2-5.6c1.4-1.4,3.2-2.2,5.5-2.2s4.1,0.7,5.5,2.2c1.4,1.4,2.2,3.4,2.2,5.6
			c0,2.3-0.7,4.1-2.2,5.5c-1.4,1.4-3.2,2.2-5.5,2.2c-2.2,0-4.1-0.7-5.5-2.2C143,48.8,142.3,47,142.3,44.9z M155.3,44.9
			c0-1.7-0.5-3-1.4-4c-1-1.1-2.3-1.6-3.7-1.6c-1.6,0-2.8,0.5-3.7,1.6c-1,1.1-1.4,2.4-1.4,4c0,1.6,0.5,2.9,1.4,3.8
			c1,1,2.3,1.4,3.7,1.4c1.4,0,2.8-0.5,3.7-1.4C154.7,47.6,155.3,46.3,155.3,44.9z"/>
	</g>
	<g>
		<path class="st2" d="M161.3,37.3L161.3,37.3h2.3l0.1,2.4c1.3-1.7,3-2.5,5-2.5c1.9,0,3.5,0.6,4.7,1.8s1.8,2.9,1.8,5v8.2h-2.4V44
			c0-1.4-0.4-2.5-1.2-3.4s-1.9-1.2-3.4-1.2c-1.3,0-2.4,0.5-3.2,1.4s-1.3,2-1.3,3.5v7.8h-2.4L161.3,37.3L161.3,37.3z"/>
	</g>
	<g>
		<path class="st2" d="M182.2,31.2v21h-2.4v-21H182.2z"/>
	</g>
	<g>
		<path class="st2" d="M187.2,34.3c-0.6-0.2-0.8-0.7-0.8-1.4c0-0.7,0.2-1.2,0.8-1.4c0.6-0.2,1.1-0.2,1.6,0c0.6,0.2,0.8,0.7,0.8,1.4
			s-0.2,1.2-0.8,1.4C188.3,34.6,187.8,34.6,187.2,34.3z M186.8,37.3v14.9h2.4V37.3H186.8z"/>
	</g>
	<g>
		<path class="st2" d="M193.8,37.3L193.8,37.3h2.3l0.1,2.4c1.3-1.7,3-2.5,5-2.5c1.9,0,3.5,0.6,4.7,1.8c1.2,1.2,1.8,2.9,1.8,5v8.2
			h-2.4V44c0-1.4-0.4-2.5-1.2-3.4s-1.9-1.2-3.4-1.2c-1.3,0-2.4,0.5-3.2,1.4s-1.3,2-1.3,3.5v7.8h-2.4L193.8,37.3L193.8,37.3z"/>
	</g>
	<g>
		<path class="st2" d="M225.2,49.8L225.2,49.8c-0.7,0.8-1.7,1.6-2.9,1.9c-1.2,0.5-2.4,0.7-3.6,0.7c-2.3,0-4.2-0.7-5.6-2.2
			c-1.4-1.4-2.2-3.2-2.2-5.6c0-2.3,0.7-4.1,2.2-5.5c1.4-1.4,3.2-2.2,5.5-2.2c2.4,0,4.3,0.7,5.8,2.3c1.4,1.4,1.9,3.6,1.7,6.5h-12.5
			c0.1,1.3,0.7,2.4,1.7,3.2c1,0.8,2.3,1.2,3.7,1.2c0.8,0,1.8-0.1,2.6-0.5c0.8-0.4,1.6-0.8,2-1.3L225.2,49.8z M223.8,43.7L223.8,43.7
			c0-1.4-0.5-2.5-1.4-3.2s-2-1.2-3.6-1.2c-1.3,0-2.5,0.4-3.5,1.2c-1,0.7-1.6,1.8-1.8,3.2H223.8z"/>
	</g>
</g>
<g>
	<path class="st1" d="M61.6,18.6v14.2c0.8-1.6,2-2.8,3.7-3.5c1.7-0.8,3.4-1.2,5.2-1.2c3.5,0,6.4,1.1,8.6,3.2s3.4,5.2,3.4,9
		s-1.1,6.8-3.4,9c-2.3,2.2-5.2,3.2-8.6,3.2c-1.8,0-3.5-0.4-5.2-1.2c-1.6-0.8-2.9-2-3.7-3.6l-0.2,4.4h-3.7V18.6H61.6z M70.1,31.8
		c-2.4,0-4.3,0.8-6,2.4c-1.6,1.6-2.4,3.6-2.4,6.1s0.8,4.7,2.4,6.2c1.6,1.6,3.6,2.4,6,2.4s4.4-0.7,6-2.3c1.6-1.6,2.4-3.6,2.4-6.2
		c0-2.6-0.8-4.8-2.4-6.4C74.5,32.5,72.5,31.8,70.1,31.8z"/>
	<path class="st1" d="M91.8,28.4L91.8,28.4l0.4,3.5c1.4-2.6,3.8-4,7.3-4c2-0.1,4,0.5,5.5,1.8l-1.8,3.5c-1.2-0.8-2.6-1.3-4.1-1.3
		c-1.9,0-3.6,0.7-4.9,2c-1.3,1.3-2,3-2,5.2v13.2h-4V28.4H91.8z"/>
	<path class="st1" d="M107.2,40.4c0-3.6,1.2-6.6,3.5-9c2.3-2.3,5.3-3.5,8.8-3.5c3.6,0,6.6,1.2,8.9,3.5c2.3,2.3,3.5,5.3,3.5,9
		c0,3.6-1.2,6.5-3.5,8.8c-2.3,2.3-5.3,3.5-8.9,3.5s-6.5-1.2-8.8-3.5C108.4,46.9,107.2,43.9,107.2,40.4z M127.9,40.4
		c0-2.6-0.8-4.7-2.4-6.4s-3.6-2.5-6-2.5s-4.4,0.8-6,2.4c-1.6,1.7-2.4,3.7-2.4,6.4c0,2.5,0.8,4.6,2.4,6.1s3.6,2.4,6,2.4
		s4.4-0.8,6-2.4S127.9,42.8,127.9,40.4z"/>
</g>
<g>
	<g>
		<path class="st2" d="M37.2,26.3c0,6.1-8.9,16.1-9,16.3c2.4,2.8,5,5.3,7.9,7.6c2.8-5.2,4.7-10.4,4.7-14.8c0-4.7-1.6-9-4.3-12.5
			C37,24,37.2,25.1,37.2,26.3z"/>
	</g>
	<g>
		<path class="st3" d="M28.2,42.6L28.2,42.6c0,0-0.4-0.4-1-1.1l0,0l0,0c-0.4-0.5-0.8-1-1.3-1.7l0,0l0,0c-0.4-0.5-0.8-1.1-1.2-1.6
			l0,0l0,0c-0.5-0.6-1-1.3-1.4-2l0,0l0,0c-1-1.4-1.9-3-2.6-4.6l0,0c-0.1-0.2-0.2-0.5-0.2-0.7c-0.1-0.2-0.1-0.4-0.2-0.6
			C20,30.1,20,30,19.9,29.8s-0.1-0.5-0.2-0.7c0-0.1-0.1-0.4-0.1-0.5c-0.1-0.2-0.1-0.5-0.1-0.7c0-0.1,0-0.2-0.1-0.4
			c-0.1-0.5-0.1-0.8-0.1-1.2c0-4.9,4.1-8.9,9-8.9c0.4,0,0.7,0,1.1,0.1c0.1,0,0.2,0,0.4,0c0.2,0,0.5,0.1,0.7,0.1h0.1
			c-3-1.7-6.4-2.6-10.1-2.6C9.1,15,0,24.1,0,35.4c0,14.2,20.4,37.2,20.4,37.2s9.7-11,15.7-22.4C33.2,47.9,30.6,45.4,28.2,42.6z"/>
	</g>
</g>
</svg>
