<?xml version="1.0" encoding="utf-8"?>
<!-- Generator: Adobe Illustrator 23.0.0, SVG Export Plug-In . SVG Version: 6.00 Build 0)  -->
<svg version="1.1" id="Слой_1" xmlns="http://www.w3.org/2000/svg" xmlns:xlink="http://www.w3.org/1999/xlink" x="0px" y="0px"
	 viewBox="0 0 190 70" style="enable-background:new 0 0 190 70;" xml:space="preserve">
<style type="text/css">
	.st0{fill:none;}
	.st1{fill:#FFFFFF;}
	.st2{fill:#169DA7;}
</style>
<rect class="st0" width="190" height="70"/>
<g>
	<path class="st1" d="M48,49h0.8v3.7c0.2-0.4,0.5-0.7,1-1c0.4-0.2,0.9-0.3,1.4-0.3c0.9,0,1.6,0.3,2.2,0.8c0.6,0.5,0.9,1.3,0.9,2.3
		s-0.3,1.7-0.8,2.3c-0.6,0.5-1.3,0.8-2.2,0.8c-1.1,0-1.9-0.4-2.3-1.3v1.1h-1V49z M52.7,52.8c-0.4-0.4-1-0.6-1.6-0.6
		s-1.2,0.2-1.6,0.6c-0.4,0.4-0.7,1-0.7,1.7s0.2,1.2,0.6,1.7c0.4,0.4,1,0.7,1.6,0.7s1.2-0.2,1.6-0.6c0.4-0.4,0.6-1,0.6-1.7
		C53.4,53.7,53.1,53.2,52.7,52.8z"/>
	<path class="st1" d="M61.3,54.8h-5.2c0.1,0.6,0.3,1.1,0.7,1.4c0.4,0.4,0.9,0.5,1.5,0.5c0.4,0,0.8-0.1,1.1-0.2
		c0.4-0.1,0.7-0.3,0.9-0.6l0.5,0.5c-0.3,0.4-0.7,0.6-1.1,0.8c-0.5,0.2-0.9,0.3-1.4,0.3c-0.9,0-1.6-0.3-2.2-0.8
		c-0.6-0.6-0.9-1.3-0.9-2.3c0-0.9,0.3-1.6,0.9-2.2c0.6-0.6,1.3-0.9,2.2-0.9c1,0,1.7,0.3,2.3,0.9C61.2,52.8,61.4,53.7,61.3,54.8z
		 M56.1,54.1h4.4c0-0.6-0.2-1.1-0.6-1.5c-0.4-0.4-0.9-0.5-1.6-0.5c-0.6,0-1.1,0.2-1.5,0.5C56.4,53,56.2,53.5,56.1,54.1z"/>
	<path class="st1" d="M67.1,52.2l-0.5,0.5c-0.4-0.4-1-0.6-1.8-0.6c-0.5,0-0.9,0.1-1.2,0.2c-0.3,0.2-0.5,0.4-0.5,0.7
		c0,0.2,0.1,0.4,0.3,0.5s0.4,0.2,0.6,0.3c0.2,0,0.5,0.1,0.8,0.1s0.4,0.1,0.6,0.1c0.1,0,0.3,0.1,0.5,0.1c0.2,0.1,0.4,0.1,0.5,0.2
		c0.1,0.1,0.3,0.2,0.4,0.3s0.2,0.3,0.3,0.5c0.1,0.2,0.1,0.4,0.1,0.6c0,0.4-0.1,0.7-0.4,1c-0.2,0.3-0.5,0.5-0.9,0.6s-0.7,0.2-1.2,0.2
		c-1.2,0-2.1-0.4-2.6-1.2l0.5-0.6c0.5,0.6,1.2,1,2.1,1c0.4,0,0.8-0.1,1.1-0.2c0.3-0.2,0.5-0.4,0.5-0.8c0-0.2,0-0.3-0.1-0.5
		c-0.1-0.1-0.2-0.2-0.4-0.3c-0.2-0.1-0.4-0.1-0.5-0.2c-0.2,0-0.4-0.1-0.7-0.1c-0.3,0-0.5-0.1-0.7-0.1s-0.4-0.1-0.6-0.2
		c-0.2-0.1-0.4-0.2-0.5-0.3s-0.3-0.3-0.4-0.4c-0.1-0.2-0.1-0.4-0.1-0.6c0-0.6,0.2-1,0.7-1.3s1-0.4,1.7-0.4
		C65.8,51.4,66.5,51.6,67.1,52.2z"/>
	<path class="st1" d="M69.5,49.8l0.8-0.1v1.8h1.9v0.7h-1.9v3.4c0,0.4,0.1,0.7,0.2,0.9s0.4,0.3,0.8,0.3c0.2,0,0.5-0.1,0.9-0.2
		l0.3,0.7c-0.4,0.2-0.8,0.3-1.1,0.3c-0.6,0-1.1-0.2-1.4-0.5s-0.4-0.8-0.4-1.5v-3.4h-1.2v-0.7h1.2v-1.7H69.5z"/>
	<path class="st1" d="M76.7,51.5h0.8v1c0.2-0.4,0.4-0.6,0.8-0.8c0.3-0.2,0.7-0.3,1.1-0.3c0.5,0,1,0.1,1.4,0.4l-0.4,0.7
		c-0.3-0.2-0.6-0.3-1-0.3c-0.5,0-1,0.2-1.3,0.5c-0.4,0.4-0.5,0.8-0.5,1.3v3.4h-0.8L76.7,51.5L76.7,51.5z"/>
	<path class="st1" d="M87.4,54.8h-5.2c0.1,0.6,0.3,1.1,0.7,1.4c0.4,0.4,0.9,0.5,1.5,0.5c0.4,0,0.8-0.1,1.1-0.2
		c0.4-0.1,0.7-0.3,0.9-0.6l0.5,0.5c-0.3,0.4-0.7,0.6-1.1,0.8c-0.5,0.2-0.9,0.3-1.4,0.3c-0.9,0-1.6-0.3-2.2-0.8
		c-0.6-0.6-0.9-1.3-0.9-2.3c0-0.9,0.3-1.6,0.9-2.2c0.6-0.6,1.3-0.9,2.2-0.9c1,0,1.7,0.3,2.3,0.9C87.2,52.8,87.5,53.7,87.4,54.8z
		 M82.2,54.1h4.4c0-0.6-0.2-1.1-0.6-1.5s-0.9-0.5-1.6-0.5c-0.6,0-1.1,0.2-1.5,0.5C82.5,53,82.2,53.5,82.2,54.1z"/>
	<path class="st1" d="M93.1,52.2l-0.5,0.5c-0.4-0.4-1-0.6-1.8-0.6c-0.5,0-0.9,0.1-1.2,0.2c-0.3,0.2-0.5,0.4-0.5,0.7
		c0,0.2,0.1,0.4,0.3,0.5c0.2,0.1,0.4,0.2,0.6,0.3c0.2,0,0.5,0.1,0.8,0.1s0.4,0.1,0.6,0.1c0.1,0,0.3,0.1,0.5,0.1
		c0.2,0.1,0.4,0.1,0.5,0.2c0.1,0.1,0.3,0.2,0.4,0.3s0.2,0.3,0.3,0.5c0.1,0.2,0.1,0.4,0.1,0.6c0,0.4-0.1,0.7-0.4,1
		c-0.2,0.3-0.5,0.5-0.9,0.6s-0.7,0.2-1.2,0.2c-1.2,0-2.1-0.4-2.6-1.2l0.5-0.6c0.5,0.6,1.2,1,2.1,1c0.4,0,0.8-0.1,1.1-0.2
		s0.5-0.4,0.5-0.8c0-0.2,0-0.3-0.1-0.5c-0.1-0.1-0.2-0.2-0.4-0.3c-0.2-0.1-0.4-0.1-0.5-0.2c-0.2,0-0.4-0.1-0.7-0.1
		c-0.3,0-0.5-0.1-0.7-0.1s-0.4-0.1-0.6-0.2c-0.2-0.1-0.4-0.2-0.5-0.3s-0.3-0.3-0.4-0.4c-0.1-0.2-0.1-0.4-0.1-0.6
		c0-0.6,0.2-1,0.7-1.3s1-0.4,1.7-0.4C91.8,51.4,92.6,51.6,93.1,52.2z"/>
	<path class="st1" d="M100.5,54.8h-5.2c0.1,0.6,0.3,1.1,0.7,1.4c0.4,0.4,0.9,0.5,1.5,0.5c0.4,0,0.8-0.1,1.1-0.2
		c0.4-0.1,0.7-0.3,0.9-0.6l0.5,0.5c-0.3,0.4-0.7,0.6-1.1,0.8c-0.5,0.2-0.9,0.3-1.4,0.3c-0.9,0-1.6-0.3-2.2-0.8
		c-0.6-0.6-0.9-1.3-0.9-2.3c0-0.9,0.3-1.6,0.9-2.2c0.6-0.6,1.3-0.9,2.2-0.9c1,0,1.7,0.3,2.3,0.9C100.3,52.8,100.6,53.7,100.5,54.8z
		 M95.3,54.1h4.4c0-0.6-0.2-1.1-0.6-1.5s-0.9-0.5-1.6-0.5c-0.6,0-1.1,0.2-1.5,0.5C95.6,53,95.3,53.5,95.3,54.1z"/>
	<path class="st1" d="M101.9,51.5h0.8v1c0.2-0.4,0.4-0.6,0.8-0.8c0.3-0.2,0.7-0.3,1.1-0.3c0.5,0,1,0.1,1.4,0.4l-0.4,0.7
		c-0.3-0.2-0.6-0.3-1-0.3c-0.5,0-1,0.2-1.3,0.5c-0.4,0.4-0.5,0.8-0.5,1.3v3.4H102L101.9,51.5L101.9,51.5z"/>
	<path class="st1" d="M111.4,51.5h0.9l-2.5,6h-0.9l-2.5-6h0.9l2.1,5.1L111.4,51.5z"/>
	<path class="st1" d="M118.6,52.7v-1.2h0.8v6h-0.7v-1.2c-0.2,0.4-0.6,0.8-1,1s-0.9,0.3-1.3,0.3c-0.9,0-1.6-0.3-2.2-0.9
		c-0.6-0.6-0.9-1.3-0.9-2.2s0.3-1.7,0.9-2.2c0.6-0.6,1.3-0.8,2.2-0.8c0.5,0,0.9,0.1,1.4,0.3C118.1,52,118.4,52.3,118.6,52.7z
		 M116.3,52.1c-0.6,0-1.2,0.2-1.6,0.7s-0.7,1-0.7,1.7s0.2,1.3,0.7,1.7c0.4,0.4,1,0.7,1.6,0.7c0.4,0,0.8-0.1,1.1-0.3
		c0.3-0.2,0.6-0.4,0.8-0.7c0.2-0.3,0.3-0.6,0.4-0.9c0.1-0.3,0.1-0.7,0-1s-0.2-0.6-0.4-0.9c-0.2-0.3-0.4-0.5-0.8-0.7
		C117.1,52.2,116.7,52.1,116.3,52.1z"/>
	<path class="st1" d="M122,49.8l0.8-0.1v1.8h1.9v0.7h-1.9v3.4c0,0.4,0.1,0.7,0.2,0.9s0.4,0.3,0.8,0.3c0.2,0,0.5-0.1,0.9-0.2l0.3,0.7
		c-0.4,0.2-0.8,0.3-1.1,0.3c-0.6,0-1.1-0.2-1.4-0.5s-0.4-0.8-0.4-1.5v-3.4h-1.2v-0.7h1.2v-1.7H122z"/>
	<path class="st1" d="M126.2,50.1c-0.2-0.1-0.3-0.3-0.3-0.5s0.1-0.4,0.3-0.5c0.2-0.1,0.4-0.1,0.6,0s0.3,0.3,0.3,0.5
		s-0.1,0.4-0.3,0.5C126.5,50.2,126.4,50.2,126.2,50.1z M126.8,51.5H126v6h0.8V51.5z"/>
	<path class="st1" d="M131.4,51.4c0.9,0,1.6,0.3,2.2,0.9c0.6,0.6,0.9,1.3,0.9,2.2s-0.3,1.7-0.9,2.2c-0.6,0.6-1.3,0.8-2.2,0.8
		s-1.6-0.3-2.2-0.9c-0.6-0.6-0.9-1.3-0.9-2.2s0.3-1.7,0.9-2.2C129.8,51.7,130.5,51.4,131.4,51.4z M133,52.8c-0.4-0.4-1-0.7-1.6-0.7
		c-0.7,0-1.2,0.2-1.6,0.7c-0.4,0.4-0.6,1-0.6,1.7s0.2,1.3,0.6,1.7c0.4,0.4,1,0.6,1.6,0.6c0.7,0,1.2-0.2,1.6-0.6
		c0.4-0.4,0.6-1,0.6-1.7C133.7,53.8,133.4,53.2,133,52.8z"/>
	<path class="st1" d="M141.5,57.5h-0.8v-3.3c0-0.6-0.2-1.1-0.5-1.4c-0.3-0.3-0.8-0.5-1.4-0.5c-0.6,0-1,0.2-1.4,0.6
		c-0.4,0.4-0.5,0.9-0.5,1.5v3.2H136v-6h0.8v1c0.5-0.7,1.2-1.1,2.1-1.1c0.8,0,1.4,0.2,1.9,0.7s0.7,1.1,0.7,2V57.5z"/>
	<path class="st1" d="M149.1,51.4c0.9,0,1.6,0.3,2.2,0.9s0.9,1.3,0.9,2.2s-0.3,1.7-0.9,2.2c-0.6,0.6-1.3,0.8-2.2,0.8
		s-1.6-0.3-2.2-0.9c-0.6-0.6-0.9-1.3-0.9-2.2s0.3-1.7,0.9-2.2S148.2,51.4,149.1,51.4z M150.8,52.8c-0.4-0.4-1-0.7-1.6-0.7
		c-0.7,0-1.2,0.2-1.6,0.7c-0.4,0.4-0.6,1-0.6,1.7s0.2,1.3,0.6,1.7c0.4,0.4,1,0.6,1.6,0.6c0.7,0,1.2-0.2,1.6-0.6
		c0.4-0.4,0.6-1,0.6-1.7C151.4,53.8,151.2,53.2,150.8,52.8z"/>
	<path class="st1" d="M154.5,60h-0.8v-8.5h0.8v1.3c0.2-0.4,0.6-0.8,1-1s0.9-0.4,1.4-0.4c0.9,0,1.6,0.3,2.1,0.9
		c0.5,0.6,0.8,1.3,0.8,2.2c0,1-0.3,1.7-0.8,2.3c-0.6,0.6-1.3,0.8-2.2,0.8c-0.5,0-0.9-0.1-1.4-0.3c-0.4-0.2-0.8-0.6-1-1L154.5,60
		L154.5,60z M156.8,56.8c0.7,0,1.2-0.2,1.6-0.6s0.6-1,0.6-1.7s-0.2-1.3-0.6-1.7c-0.4-0.4-1-0.6-1.6-0.6c-0.7,0-1.2,0.2-1.6,0.7
		c-0.4,0.4-0.6,1-0.6,1.7s0.2,1.2,0.6,1.6S156.2,56.8,156.8,56.8z"/>
	<path class="st1" d="M162.1,49.8l0.8-0.1v1.8h1.9v0.7h-1.9v3.4c0,0.4,0.1,0.7,0.2,0.9c0.1,0.2,0.4,0.3,0.8,0.3
		c0.2,0,0.5-0.1,0.9-0.2l0.3,0.7c-0.4,0.2-0.8,0.3-1.1,0.3c-0.6,0-1.1-0.2-1.4-0.5c-0.3-0.3-0.4-0.8-0.4-1.5v-3.4H161v-0.7h1.2v-1.7
		H162.1z"/>
	<path class="st1" d="M166.2,50.1c-0.2-0.1-0.3-0.3-0.3-0.5s0.1-0.4,0.3-0.5s0.4-0.1,0.6,0c0.2,0.1,0.3,0.3,0.3,0.5
		s-0.1,0.4-0.3,0.5C166.6,50.2,166.4,50.2,166.2,50.1z M166.9,51.5h-0.8v6h0.8V51.5z"/>
	<path class="st1" d="M171.5,51.4c0.9,0,1.6,0.3,2.2,0.9c0.6,0.6,0.9,1.3,0.9,2.2s-0.3,1.7-0.9,2.2c-0.6,0.6-1.3,0.8-2.2,0.8
		s-1.6-0.3-2.2-0.9c-0.6-0.6-0.9-1.3-0.9-2.2s0.3-1.7,0.9-2.2C169.8,51.7,170.6,51.4,171.5,51.4z M173.1,52.8
		c-0.4-0.4-1-0.7-1.6-0.7c-0.7,0-1.2,0.2-1.6,0.7c-0.4,0.4-0.6,1-0.6,1.7s0.2,1.3,0.6,1.7c0.4,0.4,1,0.6,1.6,0.6
		c0.7,0,1.2-0.2,1.6-0.6c0.4-0.4,0.6-1,0.6-1.7C173.7,53.8,173.5,53.2,173.1,52.8z"/>
	<path class="st1" d="M181.6,57.5h-0.8v-3.3c0-0.6-0.2-1.1-0.5-1.4c-0.3-0.3-0.8-0.5-1.4-0.5c-0.6,0-1,0.2-1.4,0.6
		c-0.4,0.4-0.5,0.9-0.5,1.5v3.2h-0.8v-6h0.8v1c0.5-0.7,1.2-1.1,2.1-1.1c0.8,0,1.4,0.2,1.9,0.7s0.7,1.1,0.7,2v3.3H181.6z"/>
	<path class="st1" d="M187.8,52.2l-0.5,0.5c-0.4-0.4-1-0.6-1.8-0.6c-0.5,0-0.9,0.1-1.2,0.2c-0.3,0.2-0.5,0.4-0.5,0.7
		c0,0.2,0.1,0.4,0.3,0.5s0.4,0.2,0.6,0.3c0.2,0,0.5,0.1,0.8,0.1s0.4,0.1,0.6,0.1c0.1,0,0.3,0.1,0.5,0.1c0.2,0.1,0.4,0.1,0.5,0.2
		c0.1,0.1,0.3,0.2,0.4,0.3c0.1,0.1,0.2,0.3,0.3,0.5s0.1,0.4,0.1,0.6c0,0.4-0.1,0.7-0.4,1c-0.2,0.3-0.5,0.5-0.9,0.6s-0.7,0.2-1.2,0.2
		c-1.2,0-2.1-0.4-2.6-1.2l0.5-0.6c0.5,0.6,1.2,1,2.1,1c0.4,0,0.8-0.1,1.1-0.2c0.3-0.2,0.5-0.4,0.5-0.8c0-0.2,0-0.3-0.1-0.5
		c-0.1-0.1-0.2-0.2-0.4-0.3s-0.4-0.1-0.5-0.2c-0.2,0-0.4-0.1-0.7-0.1s-0.5-0.1-0.7-0.1s-0.4-0.1-0.6-0.2c-0.2-0.1-0.4-0.2-0.5-0.3
		s-0.3-0.3-0.3-0.4c-0.1-0.2-0.1-0.4-0.1-0.6c0-0.6,0.2-1,0.7-1.3s1-0.4,1.7-0.4C186.4,51.4,187.2,51.6,187.8,52.2z"/>
</g>
<g>
	<g>
		<path class="st2" d="M113.9,41.1c-0.5-0.2-0.7-0.6-0.7-1.2c0-0.6,0.2-1,0.7-1.2c0.5-0.2,0.9-0.2,1.4,0c0.4,0.2,0.7,0.6,0.7,1.2
			c0,0.6-0.2,1-0.7,1.2C114.8,41.3,114.3,41.3,113.9,41.1z"/>
	</g>
	<g>
		<path class="st2" d="M118.6,34.9c0-1.9,0.6-3.5,1.8-4.7c1.2-1.2,2.7-1.8,4.6-1.8s3.4,0.6,4.6,1.8c1.2,1.2,1.8,2.8,1.8,4.7
			s-0.6,3.4-1.8,4.6c-1.2,1.2-2.7,1.8-4.6,1.8c-1.8,0-3.4-0.6-4.6-1.8C119.2,38.2,118.6,36.7,118.6,34.9z M129.4,34.9
			c0-1.4-0.4-2.5-1.2-3.3c-0.8-0.9-1.9-1.3-3.1-1.3c-1.3,0-2.3,0.4-3.1,1.3s-1.2,2-1.2,3.3c0,1.3,0.4,2.4,1.2,3.2
			c0.8,0.8,1.9,1.2,3.1,1.2s2.3-0.4,3.1-1.2C128.9,37.2,129.4,36.1,129.4,34.9z"/>
	</g>
	<g>
		<path class="st2" d="M134.4,28.6L134.4,28.6h1.9l0.1,2c1.1-1.4,2.5-2.1,4.2-2.1c1.6,0,2.9,0.5,3.9,1.5s1.5,2.4,1.5,4.2V41h-2v-6.8
			c0-1.2-0.3-2.1-1-2.8c-0.7-0.7-1.6-1-2.8-1c-1.1,0-2,0.4-2.7,1.2c-0.7,0.8-1.1,1.7-1.1,2.9V41h-2L134.4,28.6L134.4,28.6z"/>
	</g>
	<g>
		<path class="st2" d="M151.8,23.5V41h-2V23.5H151.8z"/>
	</g>
	<g>
		<path class="st2" d="M156,26.1c-0.5-0.2-0.7-0.6-0.7-1.2c0-0.6,0.2-1,0.7-1.2s0.9-0.2,1.3,0c0.5,0.2,0.7,0.6,0.7,1.2
			c0,0.6-0.2,1-0.7,1.2C156.9,26.3,156.5,26.3,156,26.1z M155.7,28.6V41h2V28.6H155.7z"/>
	</g>
	<g>
		<path class="st2" d="M161.5,28.6L161.5,28.6h1.9l0.1,2c1.1-1.4,2.5-2.1,4.2-2.1c1.6,0,2.9,0.5,3.9,1.5s1.5,2.4,1.5,4.2V41h-2v-6.8
			c0-1.2-0.3-2.1-1-2.8c-0.7-0.7-1.6-1-2.8-1c-1.1,0-2,0.4-2.7,1.2c-0.7,0.8-1.1,1.7-1.1,2.9V41h-2L161.5,28.6L161.5,28.6z"/>
	</g>
	<g>
		<path class="st2" d="M187.7,39L187.7,39c-0.6,0.7-1.4,1.3-2.4,1.6c-1,0.4-2,0.6-3,0.6c-1.9,0-3.5-0.6-4.7-1.8
			c-1.2-1.2-1.8-2.7-1.8-4.7c0-1.9,0.6-3.4,1.8-4.6s2.7-1.8,4.6-1.8c2,0,3.6,0.6,4.8,1.9c1.2,1.2,1.6,3,1.4,5.4H178
			c0.1,1.1,0.6,2,1.4,2.7c0.8,0.7,1.9,1,3.1,1c0.7,0,1.5-0.1,2.2-0.4s1.3-0.7,1.7-1.1L187.7,39z M186.5,33.9L186.5,33.9
			c0-1.2-0.4-2.1-1.2-2.7s-1.7-1-3-1c-1.1,0-2.1,0.3-2.9,1c-0.8,0.6-1.3,1.5-1.5,2.7H186.5z"/>
	</g>
</g>
<g>
	<path class="st1" d="M51.3,13v11.8c0.7-1.3,1.7-2.3,3.1-2.9c1.4-0.7,2.8-1,4.3-1c2.9,0,5.3,0.9,7.2,2.7c1.9,1.8,2.8,4.3,2.8,7.5
		s-0.9,5.7-2.8,7.5s-4.3,2.7-7.2,2.7c-1.5,0-2.9-0.3-4.3-1c-1.3-0.7-2.4-1.7-3.1-3L51.1,41H48V13H51.3z M58.4,24c-2,0-3.6,0.7-5,2
		c-1.3,1.3-2,3-2,5.1s0.7,3.9,2,5.2s3,2,5,2s3.7-0.6,5-1.9c1.3-1.3,2-3,2-5.2s-0.7-4-2-5.3C62.1,24.6,60.4,24,58.4,24z"/>
	<path class="st1" d="M76.5,21.2L76.5,21.2l0.3,2.9c1.2-2.2,3.2-3.3,6.1-3.3c1.7-0.1,3.3,0.4,4.6,1.5L86,25.2
		c-1-0.7-2.2-1.1-3.4-1.1c-1.6,0-3,0.6-4.1,1.7c-1.1,1.1-1.7,2.5-1.7,4.3v11h-3.3V21.2H76.5z"/>
	<path class="st1" d="M89.3,31.2c0-3,1-5.5,2.9-7.5c1.9-1.9,4.4-2.9,7.3-2.9c3,0,5.5,1,7.4,2.9s2.9,4.4,2.9,7.5c0,3-1,5.4-2.9,7.3
		s-4.4,2.9-7.4,2.9s-5.4-1-7.3-2.9S89.3,34.1,89.3,31.2z M106.6,31.2c0-2.2-0.7-3.9-2-5.3c-1.3-1.4-3-2.1-5-2.1s-3.7,0.7-5,2
		c-1.3,1.4-2,3.1-2,5.3c0,2.1,0.7,3.8,2,5.1c1.3,1.3,3,2,5,2s3.7-0.7,5-2C105.9,34.9,106.6,33.2,106.6,31.2z"/>
</g>
<g>
	<g>
		<path class="st2" d="M31,19.4c0,5.1-7.4,13.4-7.5,13.6c2,2.3,4.2,4.4,6.6,6.3C32.4,35,34,30.6,34,27c0-3.9-1.3-7.5-3.6-10.4
			C30.8,17.5,31,18.4,31,19.4z"/>
	</g>
	<g>
		<path class="st1" d="M23.5,33L23.5,33c0,0-0.3-0.3-0.8-0.9l0,0l0,0c-0.3-0.4-0.7-0.8-1.1-1.4l0,0l0,0c-0.3-0.4-0.7-0.9-1-1.3l0,0
			l0,0c-0.4-0.5-0.8-1.1-1.2-1.7l0,0l0,0c-0.8-1.2-1.6-2.5-2.2-3.8l0,0c-0.1-0.2-0.2-0.4-0.2-0.6c-0.1-0.2-0.1-0.3-0.2-0.5
			c-0.1-0.2-0.1-0.3-0.2-0.5c-0.1-0.2-0.1-0.4-0.2-0.6c0-0.1-0.1-0.3-0.1-0.4c-0.1-0.2-0.1-0.4-0.1-0.6c0-0.1,0-0.2-0.1-0.3
			C16,20,16,19.7,16,19.4c0-4.1,3.4-7.4,7.5-7.4c0.3,0,0.6,0,0.9,0.1c0.1,0,0.2,0,0.3,0c0.2,0,0.4,0.1,0.6,0.1h0.1
			C22.9,10.8,20.1,10,17,10C7.6,10,0,17.6,0,27c0,11.8,17,31,17,31s8.1-9.2,13.1-18.7C27.7,37.4,25.5,35.3,23.5,33z"/>
	</g>
</g>
</svg>
