<?xml version="1.0" encoding="utf-8"?>
<!-- Generator: Adobe Illustrator 23.0.0, SVG Export Plug-In . SVG Version: 6.00 Build 0)  -->
<svg version="1.1" id="Слой_1" xmlns="http://www.w3.org/2000/svg" xmlns:xlink="http://www.w3.org/1999/xlink" x="0px" y="0px"
	 viewBox="0 0 190 50" style="enable-background:new 0 0 190 50;" xml:space="preserve">
<style type="text/css">
	.st0{fill:none;}
	.st1{fill:#2D343A;}
	.st2{fill:#169DA7;}
	.st3{fill:#365A77;}
</style>
<rect class="st0" width="190" height="50"/>
<g>
	<path class="st1" d="M48,39h0.8v3.7c0.2-0.4,0.5-0.7,1-1c0.4-0.2,0.9-0.3,1.4-0.3c0.9,0,1.6,0.3,2.2,0.8c0.6,0.5,0.9,1.3,0.9,2.3
		s-0.3,1.7-0.8,2.3c-0.6,0.5-1.3,0.8-2.2,0.8c-1.1,0-1.9-0.4-2.3-1.3l0,1.1H48V39z M52.7,42.8c-0.4-0.4-1-0.6-1.6-0.6
		c-0.6,0-1.2,0.2-1.6,0.6c-0.4,0.4-0.7,1-0.7,1.7c0,0.7,0.2,1.2,0.6,1.7c0.4,0.4,1,0.7,1.6,0.7c0.6,0,1.2-0.2,1.6-0.6
		c0.4-0.4,0.6-1,0.6-1.7C53.4,43.7,53.1,43.2,52.7,42.8z"/>
	<path class="st1" d="M61.3,44.8h-5.2c0.1,0.6,0.3,1.1,0.7,1.4c0.4,0.4,0.9,0.5,1.5,0.5c0.4,0,0.8-0.1,1.1-0.2
		c0.4-0.1,0.7-0.3,0.9-0.6l0.5,0.5c-0.3,0.4-0.7,0.6-1.1,0.8c-0.5,0.2-0.9,0.3-1.4,0.3c-0.9,0-1.6-0.3-2.2-0.8
		c-0.6-0.6-0.9-1.3-0.9-2.3c0-0.9,0.3-1.6,0.9-2.2c0.6-0.6,1.3-0.9,2.2-0.9c1,0,1.7,0.3,2.3,0.9C61.2,42.8,61.4,43.7,61.3,44.8z
		 M56.1,44.1h4.4c0-0.6-0.2-1.1-0.6-1.5c-0.4-0.4-0.9-0.5-1.6-0.5c-0.6,0-1.1,0.2-1.5,0.5C56.4,43,56.2,43.5,56.1,44.1z"/>
	<path class="st1" d="M67.1,42.2l-0.5,0.5c-0.4-0.4-1-0.6-1.8-0.6c-0.5,0-0.9,0.1-1.2,0.2c-0.3,0.2-0.5,0.4-0.5,0.7
		c0,0.2,0.1,0.4,0.3,0.5c0.2,0.1,0.4,0.2,0.6,0.3c0.2,0,0.5,0.1,0.8,0.1c0.3,0,0.4,0.1,0.6,0.1c0.1,0,0.3,0.1,0.5,0.1
		c0.2,0.1,0.4,0.1,0.5,0.2c0.1,0.1,0.3,0.2,0.4,0.3c0.1,0.1,0.2,0.3,0.3,0.5c0.1,0.2,0.1,0.4,0.1,0.6c0,0.4-0.1,0.7-0.4,1
		c-0.2,0.3-0.5,0.5-0.9,0.6c-0.4,0.1-0.7,0.2-1.2,0.2c-1.2,0-2.1-0.4-2.6-1.2l0.5-0.6c0.5,0.6,1.2,1,2.1,1c0.4,0,0.8-0.1,1.1-0.2
		c0.3-0.2,0.5-0.4,0.5-0.8c0-0.2,0-0.3-0.1-0.5c-0.1-0.1-0.2-0.2-0.4-0.3c-0.2-0.1-0.4-0.1-0.5-0.2c-0.2,0-0.4-0.1-0.7-0.1
		c-0.3,0-0.5-0.1-0.7-0.1c-0.2,0-0.4-0.1-0.6-0.2c-0.2-0.1-0.4-0.2-0.5-0.3c-0.1-0.1-0.3-0.3-0.4-0.4c-0.1-0.2-0.1-0.4-0.1-0.6
		c0-0.6,0.2-1,0.7-1.3c0.5-0.3,1-0.4,1.7-0.4C65.8,41.4,66.5,41.6,67.1,42.2z"/>
	<path class="st1" d="M69.5,39.8l0.8-0.1v1.8h1.9v0.7h-1.9v3.4c0,0.4,0.1,0.7,0.2,0.9c0.1,0.2,0.4,0.3,0.8,0.3
		c0.2,0,0.5-0.1,0.9-0.2l0.3,0.7c-0.4,0.2-0.8,0.3-1.1,0.3c-0.6,0-1.1-0.2-1.4-0.5c-0.3-0.3-0.4-0.8-0.4-1.5v-3.4h-1.2v-0.7h1.2
		V39.8z"/>
	<path class="st1" d="M76.7,41.5h0.8l0,1c0.2-0.4,0.4-0.6,0.8-0.8c0.3-0.2,0.7-0.3,1.1-0.3c0.5,0,1,0.1,1.4,0.4l-0.4,0.7
		c-0.3-0.2-0.6-0.3-1-0.3c-0.5,0-1,0.2-1.3,0.5c-0.4,0.4-0.5,0.8-0.5,1.3v3.4h-0.8V41.5z"/>
	<path class="st1" d="M87.4,44.8h-5.2c0.1,0.6,0.3,1.1,0.7,1.4c0.4,0.4,0.9,0.5,1.5,0.5c0.4,0,0.8-0.1,1.1-0.2
		c0.4-0.1,0.7-0.3,0.9-0.6l0.5,0.5c-0.3,0.4-0.7,0.6-1.1,0.8c-0.5,0.2-0.9,0.3-1.4,0.3c-0.9,0-1.6-0.3-2.2-0.8
		c-0.6-0.6-0.9-1.3-0.9-2.3c0-0.9,0.3-1.6,0.9-2.2c0.6-0.6,1.3-0.9,2.2-0.9c1,0,1.7,0.3,2.3,0.9C87.2,42.8,87.5,43.7,87.4,44.8z
		 M82.2,44.1h4.4c0-0.6-0.2-1.1-0.6-1.5c-0.4-0.4-0.9-0.5-1.6-0.5c-0.6,0-1.1,0.2-1.5,0.5C82.5,43,82.2,43.5,82.2,44.1z"/>
	<path class="st1" d="M93.1,42.2l-0.5,0.5c-0.4-0.4-1-0.6-1.8-0.6c-0.5,0-0.9,0.1-1.2,0.2c-0.3,0.2-0.5,0.4-0.5,0.7
		c0,0.2,0.1,0.4,0.3,0.5c0.2,0.1,0.4,0.2,0.6,0.3c0.2,0,0.5,0.1,0.8,0.1c0.3,0,0.4,0.1,0.6,0.1c0.1,0,0.3,0.1,0.5,0.1
		c0.2,0.1,0.4,0.1,0.5,0.2c0.1,0.1,0.3,0.2,0.4,0.3c0.1,0.1,0.2,0.3,0.3,0.5c0.1,0.2,0.1,0.4,0.1,0.6c0,0.4-0.1,0.7-0.4,1
		c-0.2,0.3-0.5,0.5-0.9,0.6c-0.4,0.1-0.7,0.2-1.2,0.2c-1.2,0-2.1-0.4-2.6-1.2l0.5-0.6c0.5,0.6,1.2,1,2.1,1c0.4,0,0.8-0.1,1.1-0.2
		s0.5-0.4,0.5-0.8c0-0.2,0-0.3-0.1-0.5c-0.1-0.1-0.2-0.2-0.4-0.3c-0.2-0.1-0.4-0.1-0.5-0.2c-0.2,0-0.4-0.1-0.7-0.1
		c-0.3,0-0.5-0.1-0.7-0.1c-0.2,0-0.4-0.1-0.6-0.2c-0.2-0.1-0.4-0.2-0.5-0.3c-0.1-0.1-0.3-0.3-0.4-0.4c-0.1-0.2-0.1-0.4-0.1-0.6
		c0-0.6,0.2-1,0.7-1.3c0.5-0.3,1-0.4,1.7-0.4C91.8,41.4,92.6,41.6,93.1,42.2z"/>
	<path class="st1" d="M100.5,44.8h-5.2c0.1,0.6,0.3,1.1,0.7,1.4c0.4,0.4,0.9,0.5,1.5,0.5c0.4,0,0.8-0.1,1.1-0.2
		c0.4-0.1,0.7-0.3,0.9-0.6l0.5,0.5c-0.3,0.4-0.7,0.6-1.1,0.8c-0.5,0.2-0.9,0.3-1.4,0.3c-0.9,0-1.6-0.3-2.2-0.8
		c-0.6-0.6-0.9-1.3-0.9-2.3c0-0.9,0.3-1.6,0.9-2.2c0.6-0.6,1.3-0.9,2.2-0.9c1,0,1.7,0.3,2.3,0.9C100.3,42.8,100.6,43.7,100.5,44.8z
		 M95.3,44.1h4.4c0-0.6-0.2-1.1-0.6-1.5c-0.4-0.4-0.9-0.5-1.6-0.5c-0.6,0-1.1,0.2-1.5,0.5C95.6,43,95.3,43.5,95.3,44.1z"/>
	<path class="st1" d="M101.9,41.5h0.8l0,1c0.2-0.4,0.4-0.6,0.8-0.8c0.3-0.2,0.7-0.3,1.1-0.3c0.5,0,1,0.1,1.4,0.4l-0.4,0.7
		c-0.3-0.2-0.6-0.3-1-0.3c-0.5,0-1,0.2-1.3,0.5c-0.4,0.4-0.5,0.8-0.5,1.3v3.4h-0.8V41.5z"/>
	<path class="st1" d="M111.4,41.5h0.9l-2.5,6h-0.9l-2.5-6h0.9l2.1,5.1L111.4,41.5z"/>
	<path class="st1" d="M118.6,42.7v-1.2h0.8v6h-0.7v-1.2c-0.2,0.4-0.6,0.8-1,1c-0.4,0.2-0.9,0.3-1.3,0.3c-0.9,0-1.6-0.3-2.2-0.9
		c-0.6-0.6-0.9-1.3-0.9-2.2c0-0.9,0.3-1.7,0.9-2.2c0.6-0.6,1.3-0.8,2.2-0.8c0.5,0,0.9,0.1,1.4,0.3C118.1,42,118.4,42.3,118.6,42.7z
		 M116.3,42.1c-0.6,0-1.2,0.2-1.6,0.7s-0.7,1-0.7,1.7c0,0.7,0.2,1.3,0.7,1.7c0.4,0.4,1,0.7,1.6,0.7c0.4,0,0.8-0.1,1.1-0.3
		c0.3-0.2,0.6-0.4,0.8-0.7c0.2-0.3,0.3-0.6,0.4-0.9c0.1-0.3,0.1-0.7,0-1c-0.1-0.3-0.2-0.6-0.4-0.9c-0.2-0.3-0.4-0.5-0.8-0.7
		C117.1,42.2,116.7,42.1,116.3,42.1z"/>
	<path class="st1" d="M122,39.8l0.8-0.1v1.8h1.9v0.7h-1.9v3.4c0,0.4,0.1,0.7,0.2,0.9c0.1,0.2,0.4,0.3,0.8,0.3c0.2,0,0.5-0.1,0.9-0.2
		l0.3,0.7c-0.4,0.2-0.8,0.3-1.1,0.3c-0.6,0-1.1-0.2-1.4-0.5c-0.3-0.3-0.4-0.8-0.4-1.5v-3.4h-1.2v-0.7h1.2V39.8z"/>
	<path class="st1" d="M126.2,40.1c-0.2-0.1-0.3-0.3-0.3-0.5c0-0.2,0.1-0.4,0.3-0.5c0.2-0.1,0.4-0.1,0.6,0c0.2,0.1,0.3,0.3,0.3,0.5
		c0,0.2-0.1,0.4-0.3,0.5C126.5,40.2,126.4,40.2,126.2,40.1z M126.8,41.5H126v6h0.8V41.5z"/>
	<path class="st1" d="M131.4,41.4c0.9,0,1.6,0.3,2.2,0.9c0.6,0.6,0.9,1.3,0.9,2.2c0,0.9-0.3,1.7-0.9,2.2c-0.6,0.6-1.3,0.8-2.2,0.8
		c-0.9,0-1.6-0.3-2.2-0.9c-0.6-0.6-0.9-1.3-0.9-2.2c0-0.9,0.3-1.7,0.9-2.2C129.8,41.7,130.5,41.4,131.4,41.4z M133,42.8
		c-0.4-0.4-1-0.7-1.6-0.7c-0.7,0-1.2,0.2-1.6,0.7c-0.4,0.4-0.6,1-0.6,1.7c0,0.7,0.2,1.3,0.6,1.7c0.4,0.4,1,0.6,1.6,0.6
		c0.7,0,1.2-0.2,1.6-0.6c0.4-0.4,0.6-1,0.6-1.7C133.7,43.8,133.4,43.2,133,42.8z"/>
	<path class="st1" d="M141.5,47.5h-0.8v-3.3c0-0.6-0.2-1.1-0.5-1.4c-0.3-0.3-0.8-0.5-1.4-0.5c-0.6,0-1,0.2-1.4,0.6
		c-0.4,0.4-0.5,0.9-0.5,1.5v3.2H136v-6h0.8l0,1c0.5-0.7,1.2-1.1,2.1-1.1c0.8,0,1.4,0.2,1.9,0.7c0.5,0.5,0.7,1.1,0.7,2V47.5z"/>
	<path class="st1" d="M149.1,41.4c0.9,0,1.6,0.3,2.2,0.9s0.9,1.3,0.9,2.2c0,0.9-0.3,1.7-0.9,2.2c-0.6,0.6-1.3,0.8-2.2,0.8
		c-0.9,0-1.6-0.3-2.2-0.9c-0.6-0.6-0.9-1.3-0.9-2.2c0-0.9,0.3-1.7,0.9-2.2C147.5,41.7,148.2,41.4,149.1,41.4z M150.8,42.8
		c-0.4-0.4-1-0.7-1.6-0.7c-0.7,0-1.2,0.2-1.6,0.7c-0.4,0.4-0.6,1-0.6,1.7c0,0.7,0.2,1.3,0.6,1.7c0.4,0.4,1,0.6,1.6,0.6
		c0.7,0,1.2-0.2,1.6-0.6c0.4-0.4,0.6-1,0.6-1.7C151.4,43.8,151.2,43.2,150.8,42.8z"/>
	<path class="st1" d="M154.5,50h-0.8v-8.5h0.8l0,1.3c0.2-0.4,0.6-0.8,1-1c0.4-0.2,0.9-0.4,1.4-0.4c0.9,0,1.6,0.3,2.1,0.9
		c0.5,0.6,0.8,1.3,0.8,2.2c0,1-0.3,1.7-0.8,2.3c-0.6,0.6-1.3,0.8-2.2,0.8c-0.5,0-0.9-0.1-1.4-0.3c-0.4-0.2-0.8-0.6-1-1V50z
		 M156.8,46.8c0.7,0,1.2-0.2,1.6-0.6s0.6-1,0.6-1.7s-0.2-1.3-0.6-1.7c-0.4-0.4-1-0.6-1.6-0.6c-0.7,0-1.2,0.2-1.6,0.7
		c-0.4,0.4-0.6,1-0.6,1.7c0,0.7,0.2,1.2,0.6,1.6C155.6,46.6,156.2,46.8,156.8,46.8z"/>
	<path class="st1" d="M162.1,39.8l0.8-0.1v1.8h1.9v0.7h-1.9v3.4c0,0.4,0.1,0.7,0.2,0.9c0.1,0.2,0.4,0.3,0.8,0.3
		c0.2,0,0.5-0.1,0.9-0.2l0.3,0.7c-0.4,0.2-0.8,0.3-1.1,0.3c-0.6,0-1.1-0.2-1.4-0.5c-0.3-0.3-0.4-0.8-0.4-1.5v-3.4h-1.2v-0.7h1.2
		V39.8z"/>
	<path class="st1" d="M166.2,40.1c-0.2-0.1-0.3-0.3-0.3-0.5c0-0.2,0.1-0.4,0.3-0.5c0.2-0.1,0.4-0.1,0.6,0c0.2,0.1,0.3,0.3,0.3,0.5
		c0,0.2-0.1,0.4-0.3,0.5C166.6,40.2,166.4,40.2,166.2,40.1z M166.9,41.5h-0.8v6h0.8V41.5z"/>
	<path class="st1" d="M171.5,41.4c0.9,0,1.6,0.3,2.2,0.9c0.6,0.6,0.9,1.3,0.9,2.2c0,0.9-0.3,1.7-0.9,2.2c-0.6,0.6-1.3,0.8-2.2,0.8
		c-0.9,0-1.6-0.3-2.2-0.9c-0.6-0.6-0.9-1.3-0.9-2.2c0-0.9,0.3-1.7,0.9-2.2C169.8,41.7,170.6,41.4,171.5,41.4z M173.1,42.8
		c-0.4-0.4-1-0.7-1.6-0.7c-0.7,0-1.2,0.2-1.6,0.7c-0.4,0.4-0.6,1-0.6,1.7c0,0.7,0.2,1.3,0.6,1.7c0.4,0.4,1,0.6,1.6,0.6
		c0.7,0,1.2-0.2,1.6-0.6c0.4-0.4,0.6-1,0.6-1.7C173.7,43.8,173.5,43.2,173.1,42.8z"/>
	<path class="st1" d="M181.6,47.5h-0.8v-3.3c0-0.6-0.2-1.1-0.5-1.4c-0.3-0.3-0.8-0.5-1.4-0.5c-0.6,0-1,0.2-1.4,0.6
		c-0.4,0.4-0.5,0.9-0.5,1.5v3.2h-0.8v-6h0.8l0,1c0.5-0.7,1.2-1.1,2.1-1.1c0.8,0,1.4,0.2,1.9,0.7c0.5,0.5,0.7,1.1,0.7,2V47.5z"/>
	<path class="st1" d="M187.8,42.2l-0.5,0.5c-0.4-0.4-1-0.6-1.8-0.6c-0.5,0-0.9,0.1-1.2,0.2c-0.3,0.2-0.5,0.4-0.5,0.7
		c0,0.2,0.1,0.4,0.3,0.5c0.2,0.1,0.4,0.2,0.6,0.3c0.2,0,0.5,0.1,0.8,0.1c0.3,0,0.4,0.1,0.6,0.1c0.1,0,0.3,0.1,0.5,0.1
		c0.2,0.1,0.4,0.1,0.5,0.2c0.1,0.1,0.3,0.2,0.4,0.3c0.1,0.1,0.2,0.3,0.3,0.5c0.1,0.2,0.1,0.4,0.1,0.6c0,0.4-0.1,0.7-0.4,1
		c-0.2,0.3-0.5,0.5-0.9,0.6c-0.4,0.1-0.7,0.2-1.2,0.2c-1.2,0-2.1-0.4-2.6-1.2l0.5-0.6c0.5,0.6,1.2,1,2.1,1c0.4,0,0.8-0.1,1.1-0.2
		c0.3-0.2,0.5-0.4,0.5-0.8c0-0.2,0-0.3-0.1-0.5c-0.1-0.1-0.2-0.2-0.4-0.3c-0.2-0.1-0.4-0.1-0.5-0.2c-0.2,0-0.4-0.1-0.7-0.1
		c-0.3,0-0.5-0.1-0.7-0.1c-0.2,0-0.4-0.1-0.6-0.2c-0.2-0.1-0.4-0.2-0.5-0.3c-0.1-0.1-0.3-0.3-0.3-0.4c-0.1-0.2-0.1-0.4-0.1-0.6
		c0-0.6,0.2-1,0.7-1.3c0.5-0.3,1-0.4,1.7-0.4C186.4,41.4,187.2,41.6,187.8,42.2z"/>
</g>
<g>
	<g>
		<path class="st2" d="M113.9,31.1c-0.5-0.2-0.7-0.6-0.7-1.2c0-0.6,0.2-1,0.7-1.2c0.5-0.2,0.9-0.2,1.4,0c0.4,0.2,0.7,0.6,0.7,1.2
			s-0.2,1-0.7,1.2C114.8,31.3,114.3,31.3,113.9,31.1z"/>
	</g>
	<g>
		<path class="st2" d="M118.6,24.9c0-1.9,0.6-3.5,1.8-4.7c1.2-1.2,2.7-1.8,4.6-1.8c1.9,0,3.4,0.6,4.6,1.8c1.2,1.2,1.8,2.8,1.8,4.7
			c0,1.9-0.6,3.4-1.8,4.6c-1.2,1.2-2.7,1.8-4.6,1.8c-1.8,0-3.4-0.6-4.6-1.8C119.2,28.2,118.6,26.7,118.6,24.9z M129.4,24.9
			c0-1.4-0.4-2.5-1.2-3.3c-0.8-0.9-1.9-1.3-3.1-1.3c-1.3,0-2.3,0.4-3.1,1.3s-1.2,2-1.2,3.3c0,1.3,0.4,2.4,1.2,3.2
			c0.8,0.8,1.9,1.2,3.1,1.2s2.3-0.4,3.1-1.2C128.9,27.2,129.4,26.1,129.4,24.9z"/>
	</g>
	<g>
		<path class="st2" d="M134.4,18.6L134.4,18.6l1.9,0l0.1,2c1.1-1.4,2.5-2.1,4.2-2.1c1.6,0,2.9,0.5,3.9,1.5c1,1,1.5,2.4,1.5,4.2V31
			h-2v-6.8c0-1.2-0.3-2.1-1-2.8c-0.7-0.7-1.6-1-2.8-1c-1.1,0-2,0.4-2.7,1.2c-0.7,0.8-1.1,1.7-1.1,2.9V31h-2V18.6z"/>
	</g>
	<g>
		<path class="st2" d="M151.8,13.5V31h-2V13.5H151.8z"/>
	</g>
	<g>
		<path class="st2" d="M156,16.1c-0.5-0.2-0.7-0.6-0.7-1.2c0-0.6,0.2-1,0.7-1.2s0.9-0.2,1.3,0c0.5,0.2,0.7,0.6,0.7,1.2
			c0,0.6-0.2,1-0.7,1.2C156.9,16.3,156.5,16.3,156,16.1z M155.7,18.6V31h2V18.6H155.7z"/>
	</g>
	<g>
		<path class="st2" d="M161.5,18.6L161.5,18.6l1.9,0l0.1,2c1.1-1.4,2.5-2.1,4.2-2.1c1.6,0,2.9,0.5,3.9,1.5c1,1,1.5,2.4,1.5,4.2V31
			h-2v-6.8c0-1.2-0.3-2.1-1-2.8c-0.7-0.7-1.6-1-2.8-1c-1.1,0-2,0.4-2.7,1.2c-0.7,0.8-1.1,1.7-1.1,2.9V31h-2V18.6z"/>
	</g>
	<g>
		<path class="st2" d="M187.7,29L187.7,29c-0.6,0.7-1.4,1.3-2.4,1.6c-1,0.4-2,0.6-3,0.6c-1.9,0-3.5-0.6-4.7-1.8
			c-1.2-1.2-1.8-2.7-1.8-4.7c0-1.9,0.6-3.4,1.8-4.6c1.2-1.2,2.7-1.8,4.6-1.8c2,0,3.6,0.6,4.8,1.9c1.2,1.2,1.6,3,1.4,5.4H178
			c0.1,1.1,0.6,2,1.4,2.7c0.8,0.7,1.9,1,3.1,1c0.7,0,1.5-0.1,2.2-0.4c0.7-0.3,1.3-0.7,1.7-1.1L187.7,29z M186.5,23.9L186.5,23.9
			c0-1.2-0.4-2.1-1.2-2.7s-1.7-1-3-1c-1.1,0-2.1,0.3-2.9,1c-0.8,0.6-1.3,1.5-1.5,2.7H186.5z"/>
	</g>
</g>
<g>
	<path class="st1" d="M51.3,3v11.8c0.7-1.3,1.7-2.3,3.1-2.9c1.4-0.7,2.8-1,4.3-1c2.9,0,5.3,0.9,7.2,2.7c1.9,1.8,2.8,4.3,2.8,7.5
		c0,3.2-0.9,5.7-2.8,7.5c-1.9,1.8-4.3,2.7-7.2,2.7c-1.5,0-2.9-0.3-4.3-1c-1.3-0.7-2.4-1.7-3.1-3L51.1,31H48V3H51.3z M58.4,14
		c-2,0-3.6,0.7-5,2c-1.3,1.3-2,3-2,5.1c0,2.1,0.7,3.9,2,5.2c1.3,1.3,3,2,5,2s3.7-0.6,5-1.9c1.3-1.3,2-3,2-5.2c0-2.2-0.7-4-2-5.3
		C62.1,14.6,60.4,14,58.4,14z"/>
	<path class="st1" d="M76.5,11.2L76.5,11.2l0.3,2.9c1.2-2.2,3.2-3.3,6.1-3.3c1.7-0.1,3.3,0.4,4.6,1.5L86,15.2
		c-1-0.7-2.2-1.1-3.4-1.1c-1.6,0-3,0.6-4.1,1.7c-1.1,1.1-1.7,2.5-1.7,4.3v11h-3.3V11.2H76.5z"/>
	<path class="st1" d="M89.3,21.2c0-3,1-5.5,2.9-7.5c1.9-1.9,4.4-2.9,7.3-2.9c3,0,5.5,1,7.4,2.9c1.9,1.9,2.9,4.4,2.9,7.5
		c0,3-1,5.4-2.9,7.3c-1.9,1.9-4.4,2.9-7.4,2.9c-3,0-5.4-1-7.3-2.9C90.3,26.6,89.3,24.1,89.3,21.2z M106.6,21.2c0-2.2-0.7-3.9-2-5.3
		c-1.3-1.4-3-2.1-5-2.1c-2,0-3.7,0.7-5,2c-1.3,1.4-2,3.1-2,5.3c0,2.1,0.7,3.8,2,5.1c1.3,1.3,3,2,5,2c2,0,3.7-0.7,5-2
		C105.9,24.9,106.6,23.2,106.6,21.2z"/>
</g>
<g>
	<g>
		<path class="st2" d="M31,9.4c0,5.1-7.4,13.4-7.5,13.6c2,2.3,4.2,4.4,6.6,6.3C32.4,25,34,20.6,34,17c0-3.9-1.3-7.5-3.6-10.4
			C30.8,7.5,31,8.4,31,9.4z"/>
	</g>
	<g>
		<path class="st3" d="M23.5,23C23.5,23,23.5,23,23.5,23s-0.3-0.3-0.8-0.9c0,0,0,0,0,0c0,0,0,0,0,0c-0.3-0.4-0.7-0.8-1.1-1.4
			c0,0,0,0,0,0c0,0,0,0,0,0c-0.3-0.4-0.7-0.9-1-1.3c0,0,0,0,0,0c0,0,0,0,0,0c-0.4-0.5-0.8-1.1-1.2-1.7c0,0,0,0,0,0c0,0,0,0,0,0
			c-0.8-1.2-1.6-2.5-2.2-3.8c0,0,0,0,0,0c-0.1-0.2-0.2-0.4-0.2-0.6c-0.1-0.2-0.1-0.3-0.2-0.5c-0.1-0.2-0.1-0.3-0.2-0.5
			c-0.1-0.2-0.1-0.4-0.2-0.6c0-0.1-0.1-0.3-0.1-0.4c-0.1-0.2-0.1-0.4-0.1-0.6c0-0.1,0-0.2-0.1-0.3C16,10,16,9.7,16,9.4
			C16,5.3,19.4,2,23.5,2c0.3,0,0.6,0,0.9,0.1c0.1,0,0.2,0,0.3,0c0.2,0,0.4,0.1,0.6,0.1c0,0,0.1,0,0.1,0C22.9,0.8,20.1,0,17,0
			C7.6,0,0,7.6,0,17c0,11.8,17,31,17,31s8.1-9.2,13.1-18.7C27.7,27.4,25.5,25.3,23.5,23z"/>
	</g>
</g>
</svg>
