<?xml version="1.0" encoding="UTF-8"?>
<svg width="90px" height="90px" viewBox="0 0 90 90" version="1.1" xmlns="http://www.w3.org/2000/svg" xmlns:xlink="http://www.w3.org/1999/xlink">
    <title>illustration-apartments-program-anticovid</title>
    <defs>
        <path d="M44.5133717,71.8275391 C38.2800708,69.6172852 32.9354336,65.590625 29.0573982,60.1827148 C25.0946726,54.6567383 23,48.1261719 23,41.297168 L23,41.297168 L23,28.2759766 L45,22 L67,28.2759766 L67,41.297168 C67,48.1261719 64.9053274,54.6567383 60.9426018,60.1827148 C57.0645664,65.590625 51.7199292,69.6172852 45.4866283,71.8275391 L45,72 Z" id="path-1"></path>
    </defs>
    <g id="Page-1" stroke="none" stroke-width="1" fill="none" fill-rule="evenodd">
        <g id="Страница-для-партнеров-(альтернатива)" transform="translate(-375.000000, -2450.000000)">
            <g id="illustration-apartments-program-anticovid" transform="translate(375.000000, 2450.000000)">
                <circle id="Oval" stroke="#B3E7E9" cx="45" cy="45" r="44.5"></circle>
                <circle id="Oval" stroke="#158386" fill="#2BAFB2" cx="45" cy="45" r="39.5"></circle>
                <g id="Combined-Shape" fill-rule="nonzero" stroke-linejoin="square">
                    <path stroke="#158386" stroke-width="6" d="M45,25.1196826 L64,30.5398441 L64,41.297168 C64,47.4937217 62.1005498,53.4200191 58.5046556,58.4344533 C55.1998233,63.0430333 50.7217569,66.5472643 45.5035937,68.6172255 L45,68.811 L44.4967984,68.6173645 C39.4465836,66.6140417 35.0898545,63.26762 31.8188103,58.8769798 L31.4953393,58.4344462 C28.0049987,53.5672054 26.1127013,47.8408393 26.0048911,41.8419883 L26.0048911,41.8419883 L26,41.2840193 L26,30.5398441 L45,25.1196826 Z"></path>
                    <path stroke="#FFFFFF" stroke-width="5" d="M45,24.5997355 L64.5,30.1625329 L64.5,41.297168 C64.5,47.59913 62.5680127,53.626139 58.91098,58.7258302 C55.3329346,63.715405 50.4025369,67.4319029 44.6515225,69.4711439 L45,69.344 L44.8282929,69.2812765 C39.4726554,67.2703599 34.8557367,63.7902572 31.4180037,59.1759042 L31.0890158,58.7258243 C27.5388232,53.7751205 25.6141307,47.9504826 25.5049304,41.8486626 L25.5049304,41.8486626 L25.5,41.2862108 L25.5,30.1625329 L45,24.5997355 Z"></path>
                    <path stroke="#158386" stroke-width="1" d="M45,22.5199471 L66.5,28.6532878 L66.5,41.297168 C66.5,48.0207635 64.4378645,54.4506184 60.5362774,59.8913379 C56.71824,65.215581 51.4564507,69.1802087 45.3196072,71.35626 C38.5435493,69.1802087 33.28176,65.215581 29.4637217,59.8913367 C25.6736621,54.606141 23.6193503,48.3875491 23.5051053,41.877381 L23.5051053,41.877381 L23.5,41.297168 L23.5,28.6532878 L45,22.5199471 Z"></path>
                </g>
                <g id="virus-(1)" transform="translate(33.000000, 33.000000)" fill="#FFFFFF" fill-rule="nonzero" stroke="#158386">
                    <g id="Group">
                        <path d="M12.0806922,-0.477690141 C12.7033677,-0.477690141 13.2658437,-0.376428393 13.6734762,-0.220311543 C13.9280424,-0.122816663 14.1289253,-0.00075753234 14.2683412,0.128148496 C14.6389919,1.03773571 14.4383308,1.39186945 14.10959,1.7426483 C13.8843061,1.98303463 13.5762865,2.22096483 13.2140905,2.39295537 C14.9865187,2.45853257 16.4337737,3.03368609 17.6640107,3.88989844 L17.9071966,4.06482065 L18.7380828,3.50757735 C18.665106,3.2397282 18.6322568,2.97388277 18.6311691,2.73311735 C18.6287648,2.20093552 18.7974056,1.80067367 18.975914,1.62250876 C19.8576913,1.3546029 20.081457,1.43943531 20.3299915,1.54991281 C20.7289104,1.72723852 21.1984612,2.05266578 21.6388478,2.49220817 C22.0793241,2.9318401 22.4054207,3.40060991 22.5831264,3.79883999 C22.4988222,5.35267202 22.1057635,5.47894659 21.7084665,5.49168405 L21.6049279,5.49329534 C21.5705165,5.49354993 21.5362732,5.49381 21.5023983,5.49493955 C21.3167697,5.50112929 21.1131344,5.48823654 20.9031397,5.45184777 L20.6914566,5.40746355 L19.9158257,6.05901943 C20.9565628,7.43852386 21.6437097,9.09861692 21.8432451,10.9053618 C21.9218863,10.4413298 22.0609746,10.2696824 22.2033674,10.1262761 C22.5782019,9.74877377 22.9805239,9.58478068 23.2326761,9.58478068 C24.4194515,10.8767245 24.4998551,11.4516007 24.4998551,12.0806439 C24.4998551,12.7024972 24.3983204,13.2642135 24.2418053,13.6713004 C23.0825915,14.7093724 22.7152829,14.521259 22.4254622,14.2500224 L22.2775244,14.106978 C22.0365971,13.8820576 21.7981557,13.5745247 21.6257889,13.2129219 C21.5586603,14.9813426 20.9825707,16.4255429 20.1250557,17.65329 L19.9498678,17.8959853 L20.5077293,18.7245566 C20.7763961,18.6514789 21.0430927,18.6185879 21.2845854,18.617499 C21.8170397,18.6150981 22.2176932,18.7832356 22.3959814,18.9611808 C22.320469,20.7137408 21.9702084,21.1769475 21.5245943,21.6217073 C21.0842186,22.0612389 20.6146805,22.3866483 20.2157677,22.5639714 C19.9667718,22.674654 19.7383457,22.7301202 19.548499,22.7373627 C18.6430719,22.3560965 18.5344719,21.9640212 18.5184197,21.4842352 C18.512225,21.2990798 18.5251051,21.095989 18.5614721,20.8865454 L18.6058315,20.6754133 L17.9525941,19.9007473 C16.5704114,20.9399733 14.9069059,21.6261411 13.09632,21.8253205 C13.5607394,21.9027147 13.7324199,22.0413305 13.875884,22.1832262 C14.2546363,22.5578376 14.418841,22.9600142 14.418841,23.2119115 C13.9845593,24.0250311 13.7661555,24.1230204 13.5119953,24.2203598 C13.1043629,24.3764767 12.5418868,24.4777384 11.9192113,24.4777384 C11.2965357,24.4777384 10.7340597,24.3764767 10.3264273,24.2203598 C10.071861,24.122865 9.8709781,24.0008058 9.73156221,23.8718998 C9.36091151,22.9623126 9.56157261,22.6081788 9.89031344,22.2574 C10.1155973,22.0170137 10.4236169,21.7790835 10.7858129,21.6070929 C9.01339339,21.5414289 7.56613422,20.966269 6.33589347,20.1100538 L6.09270686,19.9351311 L5.26183677,20.4923636 C5.33482351,20.7602062 5.36768059,21.0260449 5.36877502,21.2668057 C5.37119422,21.7990014 5.20254948,22.1992747 5.02403775,22.377443 C4.25983069,22.609628 3.98986353,22.5768675 3.76967143,22.4920868 L3.66996018,22.4500389 C3.27104134,22.2727132 2.8014905,21.9472859 2.36110389,21.5077435 C1.92062756,21.0681116 1.594531,20.5993418 1.41682533,20.2011117 C1.50112947,18.6472797 1.89418819,18.5210051 2.29148519,18.5082677 L2.39502381,18.5066564 C2.42943524,18.5064018 2.4636785,18.5061417 2.49755336,18.5050122 C2.68318327,18.4988224 2.88681998,18.5117153 3.09681618,18.5481047 L3.30850083,18.5924896 L4.08416919,17.9409255 C3.04343489,16.5614224 2.35628996,14.9013318 2.15675486,13.0945899 C2.07812609,13.5586372 1.93903879,13.730291 1.79664679,13.8737021 C1.42180786,14.2512238 1.01947892,14.4152193 0.767323944,14.4152193 C-0.419579714,13.1233199 -0.5,12.5484915 -0.5,11.9194527 C-0.5,11.2975851 -0.398468787,10.7358661 -0.241965281,10.3287836 C0.967591542,9.24560997 1.31495641,9.49750561 1.61176521,9.78581145 L1.72228392,9.89309642 C1.96321076,10.1180064 2.20165067,10.4255267 2.37401718,10.7871255 C2.44123326,9.01871457 3.01732927,7.57451004 3.87484711,6.34675906 L4.05003558,6.10406299 L3.49217408,5.27549166 C3.2235073,5.3485694 2.95681077,5.38146041 2.71531803,5.38254931 C2.18286372,5.38495016 1.7822102,5.21681268 1.60392201,5.0388675 C1.6794344,3.28630752 2.02969501,2.82310083 2.47530912,2.37834096 C2.91568486,1.93880943 3.38522289,1.61339995 3.78413575,1.4360769 C4.03313164,1.32539431 4.26155771,1.26992813 4.45140439,1.26268563 C5.35683152,1.64395182 5.46543157,2.03602705 5.48148369,2.51581305 C5.48767841,2.70096852 5.47479837,2.9040593 5.43843134,3.11350284 L5.39407191,3.32463499 L6.04730928,4.09930096 C7.42949203,3.06007494 9.0929975,2.3739072 10.9035834,2.17472783 C10.439164,2.09733355 10.2674835,1.95871778 10.1240194,1.81682211 C9.74526717,1.44221065 9.58106237,1.04003412 9.58106237,0.788136821 C10.0153385,-0.0249879191 10.2337412,-0.122976512 10.4879019,-0.220316088 C10.8955263,-0.376429851 11.4579964,-0.477690141 12.0806922,-0.477690141 Z M14.483493,16.1787123 C14.1905075,16.1787123 13.9251985,16.2970462 13.7331756,16.4885521 C13.5416411,16.6795709 13.4230584,16.9434287 13.4230584,17.2349457 C13.4230584,17.5264626 13.5416411,17.7903204 13.7331756,17.9813392 C13.9251985,18.1728452 14.1905075,18.2911791 14.483493,18.2911791 C14.7764784,18.2911791 15.0417874,18.1728452 15.2338104,17.9813392 C15.4253448,17.7903204 15.5439276,17.5264626 15.5439276,17.2349457 C15.5439276,16.9434287 15.4253448,16.6795709 15.2338104,16.4885521 C15.0417874,16.2970462 14.7764784,16.1787123 14.483493,16.1787123 Z M18.3606365,13.3663281 C18.2604569,13.2664195 18.1220282,13.2047404 17.5777458,13.3663281 C17.4780572,13.4657469 17.4162817,13.6030605 17.4162817,13.7548008 C17.4162817,13.9065411 17.4780572,14.0438547 17.5777458,14.1432735 C17.6779254,14.2431821 17.8163541,14.3048612 17.9691911,14.3048612 C18.1220282,14.3048612 18.2604569,14.2431821 18.3606365,14.1432735 C18.4603251,14.0438547 18.5221006,13.9065411 18.5221006,13.7548008 C18.5221006,13.6030605 18.4603251,13.4657469 18.3606365,13.3663281 Z M8.31269215,6.75439034 C7.86911686,6.75439034 7.46747455,6.9336005 7.1767656,7.22352947 C6.88654349,7.5129729 6.70692153,7.91280325 6.70692153,8.35451107 C6.70692153,8.79621888 6.88654349,9.19604923 7.1767656,9.48549266 C7.46747455,9.77542163 7.86911686,9.95463179 8.31269215,9.95463179 C8.75626745,9.95463179 9.15790975,9.77542163 9.44861871,9.48549266 C9.73884082,9.19604923 9.91846278,8.79621888 9.91846278,8.35451107 C9.91846278,7.91280325 9.73884082,7.5129729 9.44861871,7.22352947 C9.15790975,6.9336005 8.75626745,6.75439034 8.31269215,6.75439034 Z" id="Combined-Shape"></path>
                    </g>
                </g>
            </g>
        </g>
    </g>
</svg>