<?xml version="1.0" encoding="UTF-8"?>
<svg width="80px" height="80px" viewBox="0 0 80 80" version="1.1" xmlns="http://www.w3.org/2000/svg" xmlns:xlink="http://www.w3.org/1999/xlink">
    <title>illustration-apartments-bus</title>
    <g id="Page-1" stroke="none" stroke-width="1" fill="none" fill-rule="evenodd">
        <g id="Страница-с-поиском" transform="translate(-1175.000000, -1743.000000)">
            <g id="illustration-apartments-bus" transform="translate(1175.000000, 1743.000000)">
                <rect id="Rectangle" fill="#FFFFFF" x="0" y="0" width="80" height="80"></rect>
                <path d="M65,67 L65,73 C64.7562816,73.3295049 64.5030707,73.4448839 64.1837722,73.5513167 C63.2540451,73.8612258 61.8571429,74 60,74 C58.1428571,74 56.7459549,73.8612258 55.8162278,73.5513167 C55.4969293,73.4448839 55.2437184,73.3295049 55.0821068,73.1678932 L55.0821068,73.1678932 L55,67 L65,67 Z" id="Rectangle" stroke="#8AB4B4" stroke-width="2" fill="#EEFCFC"></path>
                <path d="M25,67 L25,73 C24.7562816,73.3295049 24.5030707,73.4448839 24.1837722,73.5513167 C23.2540451,73.8612258 21.8571429,74 20,74 C18.1428571,74 16.7459549,73.8612258 15.8162278,73.5513167 C15.4969293,73.4448839 15.2437184,73.3295049 15.0821068,73.1678932 L15.0821068,73.1678932 L15,67 L25,67 Z" id="Rectangle" stroke="#8AB4B4" stroke-width="2" fill="#EEFCFC"></path>
                <path d="M40,8 C49.8981448,8 57.3232659,8.56895682 62.2727704,9.72384121 C64.6140073,10.2701298 66.3794273,10.9362547 67.5515377,11.7567319 C68.4671573,12.3976657 69,13.1236392 69,14 L69,14 L69,63 C69,63.8656464 68.4797258,64.5849382 67.583701,65.220603 C66.4366656,66.0343416 64.7087424,66.6966259 62.4176738,67.2420082 C57.5681159,68.3964316 50.2928718,68.976445 40.5958275,68.9993007 L40.5958275,68.9993007 L40,69 C30.1018552,69 22.6767341,68.4310432 17.7272296,67.2761588 C15.3859927,66.7298702 13.6205727,66.0637453 12.4484623,65.2432681 C11.5328427,64.6023343 11,63.8763608 11,63 L11,63 L11,14 C11,13.1236392 11.5328427,12.3976657 12.4484623,11.7567319 C13.6205727,10.9362547 15.3859927,10.2701298 17.7272296,9.72384121 C22.6767341,8.56895682 30.1018552,8 40,8 Z" id="Rectangle" stroke="#8AB4B4" stroke-width="2" fill="#EEFCFC"></path>
                <path d="M40.7252391,21.0006387 C48.6437822,21.0146907 54.6124351,21.2606665 58.6308548,21.7428768 C60.6153944,21.9810216 62.1061184,22.2710291 63.0987805,22.6283874 C63.503094,22.7739402 63.8100853,22.9181611 64,23.0922324 L64,23.0922324 L64,49 C64,49.5434783 63.5563409,49.9500051 62.9230042,50.3300071 C61.9527953,50.9121324 60.491946,51.3818069 58.5538839,51.7694193 C54.4307986,52.5940364 48.245614,53 40,53 C31.754386,53 25.5692014,52.5940364 21.4461161,51.7694193 C19.508054,51.3818069 18.0472047,50.9121324 17.0769958,50.3300071 C16.4436591,49.9500051 16,49.5434783 16,49 L16,49 L16,23.092352 C16.1842326,22.9226142 16.4810638,22.7818518 16.8708358,22.6394079 C17.8397988,22.285296 19.2950319,21.9972392 21.2321529,21.7595016 C25.2789453,21.2628499 31.3492665,21.0114143 39.4420364,21.0003785 L39.4420364,21.0003785 Z" id="Rectangle" stroke="#8AB4B4" stroke-width="2" fill="#FFFFFF"></path>
                <rect id="Rectangle" fill="#C7DEDE" transform="translate(50.500000, 39.000000) rotate(-315.000000) translate(-50.500000, -39.000000) " x="50" y="30" width="1" height="18"></rect>
                <rect id="Rectangle" fill="#C7DEDE" transform="translate(54.500000, 42.250000) rotate(-315.000000) translate(-54.500000, -42.250000) " x="54" y="37" width="1" height="10.5"></rect>
                <path d="M63.2232658,55.8297282 C63.7993492,55.7784122 64.2814992,55.7519129 64.4836058,56.0289441 C64.5640656,56.1392317 64.5832213,56.8876145 64.5870519,57.7764074 L64.5876119,59.3485853 C64.5920665,60.1944296 64.6175682,60.9881483 64.4585163,61.2275691 C63.3520743,62.8930966 59.3415835,63.2990364 53.0000003,63.0447958 L53.0000003,63.0447958 L53,63.0447929 L53,60.4347738 C53,59.9741122 53.157347,59.5432513 53.4265538,59.2001618 C53.6957606,58.8570723 54.0768273,58.6017541 54.5242669,58.4921781 C56.1774195,58.0873283 57.7941941,57.5656711 59.374586,56.9271922 C61.0181527,56.2631906 62.2816039,55.913609 63.2232658,55.8297282 Z" id="Rectangle" stroke="#8AB4B4" stroke-width="2" fill="#FFFFFF"></path>
                <path d="M26.2232658,55.8297282 C26.7993492,55.7784122 27.2814992,55.7519129 27.4836058,56.0289441 C27.5640656,56.1392317 27.5832213,56.8876145 27.5870519,57.7764074 L27.5876119,59.3485853 C27.5920665,60.1944296 27.6175682,60.9881483 27.4585163,61.2275691 C26.3520743,62.8930966 22.3415835,63.2990364 16.0000003,63.0447958 L16.0000003,63.0447958 L16,63.0447929 L16,60.4347738 C16,59.9741122 16.157347,59.5432513 16.4265538,59.2001618 C16.6957606,58.8570723 17.0768273,58.6017541 17.5242669,58.4921781 C19.1774195,58.0873283 20.7941941,57.5656711 22.374586,56.9271922 C24.0181527,56.2631906 25.2816039,55.913609 26.2232658,55.8297282 Z" id="Rectangle" stroke="#8AB4B4" stroke-width="2" fill="#FFFFFF" transform="translate(21.793526, 59.456289) scale(-1, 1) translate(-21.793526, -59.456289) "></path>
                <path d="M69,19.1804604 L76.493197,20.4293266 C77.2164789,20.5498736 77.8431797,20.9230397 78.2890599,21.4493837 C78.7349402,21.9757277 79,22.6552496 79,23.3885084 L79,23.3885084 L79,27 C79,29.5680013 78.5918415,31.7178635 77.7444415,33.4412501 C77.6603467,33.6122784 77.5312942,33.7519656 77.3756192,33.8488959 C77.2199434,33.9458267 77.0376448,34 76.8470588,34 L76.8470588,34 L74,34 C73.7238576,34 73.4738576,33.8880712 73.2928932,33.7071068 C73.1119288,33.5261424 73,33.2761424 73,33 L73,33 L73,25.7807764 C73,25.3219088 72.8438513,24.8924834 72.5764109,24.549952 C72.3089704,24.2074206 71.9302383,23.9517832 71.4850713,23.8404914 L71.4850713,23.8404914 L69,23.2192236 L69,19.1804604 Z" id="Rectangle" stroke="#8AB4B4" stroke-width="2" fill="#EEFCFC"></path>
                <path d="M1,19.1804604 L8.49319696,20.4293266 C9.21647892,20.5498736 9.84317968,20.9230397 10.2890599,21.4493837 C10.7349402,21.9757277 11,22.6552496 11,23.3885084 L11,23.3885084 L11,27 C11,29.5680013 10.5918415,31.7178635 9.7444415,33.4412501 C9.66034667,33.6122784 9.53129417,33.7519656 9.37561921,33.8488959 C9.21994337,33.9458267 9.0376448,34 8.84705882,34 L8.84705882,34 L6,34 C5.72385763,34 5.47385763,33.8880712 5.29289322,33.7071068 C5.11192881,33.5261424 5,33.2761424 5,33 L5,33 L5,25.7807764 C5,25.3219088 4.84385131,24.8924834 4.57641088,24.549952 C4.30897044,24.2074206 3.93023825,23.9517832 3.48507125,23.8404914 L3.48507125,23.8404914 L1,23.2192236 L1,19.1804604 Z" id="Rectangle" stroke="#8AB4B4" stroke-width="2" fill="#EEFCFC" transform="translate(6.000000, 26.500000) scale(-1, 1) translate(-6.000000, -26.500000) "></path>
                <rect id="Rectangle" fill="#F1BF8C" x="28" y="11" width="24" height="7" rx="2"></rect>
            </g>
        </g>
    </g>
</svg>