<?xml version="1.0" encoding="UTF-8"?>
<svg width="90px" height="90px" viewBox="0 0 90 90" version="1.1" xmlns="http://www.w3.org/2000/svg" xmlns:xlink="http://www.w3.org/1999/xlink">
    <title>illustration-apartments-program-business-traveler-choice</title>
    <defs>
        <rect id="path-1" x="22" y="37" width="46" height="28" rx="2"></rect>
        <path d="M20,29 L70,29 L70,40.9661584 C70,42.759929 68.8058562,44.3343603 67.0785197,44.8180145 L45,51 L45,51 L22.9214803,44.8180145 C21.1941438,44.3343603 20,42.759929 20,40.9661584 L20,29 L20,29 Z" id="path-2"></path>
    </defs>
    <g id="Page-1" stroke="none" stroke-width="1" fill="none" fill-rule="evenodd" opacity="0.900000036">
        <g id="Страница-для-партнеров-(альтернатива)" transform="translate(-375.000000, -2802.000000)">
            <g id="illustration-apartments-program-business-traveler-choice" transform="translate(375.000000, 2802.000000)">
                <g id="Group-2">
                    <circle id="Oval" stroke="#F0E6DB" cx="45" cy="45" r="44.5"></circle>
                    <circle id="Oval" stroke="#614C3F" fill="#87634E" cx="45" cy="45" r="39.5"></circle>
                </g>
                <g id="Rectangle" fill-rule="nonzero" stroke-linejoin="square">
                    <rect stroke="#614C3F" stroke-width="5" x="24.5" y="39.5" width="41" height="23" rx="2"></rect>
                    <rect stroke="#FFFFFF" stroke-width="4" x="24" y="39" width="42" height="24" rx="2"></rect>
                    <rect stroke="#614C3F" stroke-width="1" x="22.5" y="37.5" width="45" height="27" rx="2"></rect>
                </g>
                <rect id="Rectangle" fill="#87634E" x="22" y="35" width="46" height="8"></rect>
                <g id="Rectangle" fill-rule="nonzero" stroke-linejoin="square">
                    <path stroke="#614C3F" stroke-width="5" d="M22.5,31.5 L67.5,31.5 L67.5,40.9661584 C67.5,41.3024904 67.388049,41.6182593 67.1951291,41.8726165 C67.0022093,42.1269738 66.7283205,42.3199193 66.4044449,42.4106044 L66.4044449,42.4106044 L45,48.403849 L23.5955551,42.4106044 C23.2716795,42.3199193 22.9977907,42.1269738 22.8048709,41.8726165 C22.611951,41.6182593 22.5,41.3024904 22.5,40.9661584 L22.5,40.9661584 L22.5,31.5 Z"></path>
                    <path stroke="#FFFFFF" stroke-width="4" d="M22,31 L68,31 L68,40.9661584 C68,41.414601 67.850732,41.8356263 67.5935055,42.1747692 C67.336279,42.5139122 66.971094,42.7711729 66.5392599,42.8920864 L66.5392599,42.8920864 L45,48.9230792 L23.4607401,42.8920864 C23.028906,42.7711729 22.663721,42.5139122 22.4064945,42.1747692 C22.149268,41.8356263 22,41.414601 22,40.9661584 L22,40.9661584 L22,31 Z"></path>
                    <path stroke="#614C3F" stroke-width="1" d="M20.5,29.5 L69.5,29.5 L69.5,40.9661584 C69.5,41.750933 69.238781,42.4877272 68.7886347,43.0812274 C68.3384883,43.6747275 67.6994145,44.1249338 66.9437047,44.3365325 L66.9437047,44.3365325 L45,50.4807698 L23.0562953,44.3365325 C22.3005855,44.1249338 21.6615117,43.6747275 21.2113653,43.0812274 C20.761219,42.4877272 20.5,41.750933 20.5,40.9661584 L20.5,40.9661584 L20.5,29.5 Z"></path>
                </g>
                <path d="M54.6096118,23.5 L56.3596118,30.5 L52.3903882,30.5 L51.3903882,26.5 L38.6096118,26.5 L37.6096118,30.5 L33.6403882,30.5 L35.3903882,23.5 L54.6096118,23.5 Z" id="Rectangle" stroke="#614C3F" fill="#FFFFFF"></path>
                <rect id="Rectangle" fill="#FFFFFF" x="32" y="30" width="26" height="2"></rect>
                <rect id="Rectangle" stroke="#614C3F" fill="#FFFFFF" x="41.5" y="44.5" width="7" height="8" rx="2"></rect>
                <rect id="Rectangle" fill="#FFFFFF" transform="translate(35.750406, 29.994134) rotate(14.000000) translate(-35.750406, -29.994134) " x="34.3204057" y="28.4941342" width="2.86" height="3"></rect>
                <rect id="Rectangle" fill="#FFFFFF" transform="translate(54.250406, 29.994134) scale(-1, 1) rotate(14.000000) translate(-54.250406, -29.994134) " x="52.8204057" y="28.4941342" width="2.86" height="3"></rect>
            </g>
        </g>
    </g>
</svg>