<?xml version="1.0" encoding="UTF-8"?>
<svg width="80px" height="81px" viewBox="0 0 80 81" version="1.1" xmlns="http://www.w3.org/2000/svg" xmlns:xlink="http://www.w3.org/1999/xlink">
    <title>illustration-apartments-piggy-bank</title>
    <g id="Page-1" stroke="none" stroke-width="1" fill="none" fill-rule="evenodd">
        <g id="Страница-с-поиском" transform="translate(-375.000000, -1465.000000)">
            <g id="illustration-apartments-piggy-bank" transform="translate(375.000000, 1466.000000)">
                <rect id="Rectangle" fill="#FFFFFF" x="0" y="0" width="80" height="80"></rect>
                <path d="M41,26 C48.9244307,26 56.1456173,27.6785803 61.5321236,31.2748617 C66.3316799,34.4792679 69.6483627,39.2167725 70.6669423,45.6234072 C70.7503802,46.1482129 71.1273642,46.683703 71.9222819,47.1019219 C72.5274632,47.4203174 73.3994285,47.6921838 74.2837987,47.9590361 C75.0903631,48.2024111 75.910879,48.4378609 76.4558174,48.7480436 C76.67664,49.6726052 76.7050373,50.3574375 76.7365315,51.087553 C76.8159889,52.9295747 76.9244926,55.0639889 76.684567,56.2282646 C75.5330801,56.7201626 74.5033571,57.0044019 73.4917387,57.2897775 C71.3395592,57.8969033 69.5734036,58.6821141 69.2694074,59.4210167 C67.1203797,64.6445102 63.0804561,68.3719729 57.8846367,70.7481478 C57.4848223,70.9309927 56.9330175,72.2909244 56.6986004,74.592944 C56.562781,75.9267156 56.4175581,77.436607 56.1087833,78.45624 C56.0437592,78.6709617 55.9791419,78.860266 55.8935745,79 L55.8935745,79 L50.8012301,79 C50.3244515,78.7078473 50.3341583,78.1143144 50.3952702,77.4887747 L50.4255415,77.1987723 C50.5249426,76.2604028 50.5996724,75.3383498 50.4863348,74.7530846 C50.4425534,74.5270016 50.3539765,74.2647721 50.2358935,73.9800545 C50.0096581,73.9666349 49.7809423,73.9546235 49.5495052,73.9442142 C46.4131392,73.8031507 43.7481286,74 41,74 C38.2359568,74 35.5580598,73.7949524 33.0130095,73.3757913 C32.7772071,73.3369555 32.540914,73.296013 32.3041263,73.2530014 C32.178282,73.4583573 32.0562236,73.6880212 31.9370341,73.9555884 C31.55917,74.803851 31.4837919,75.4187486 31.4084086,76.1117477 C31.3116563,77.0011914 31.2097661,78.0517252 30.954933,78.7627865 L30.954933,78.7627865 L25.9851572,79 C25.7374042,78.1550889 25.6218143,77.0995881 25.4964209,76.0074059 C25.1909385,73.3466417 24.5671723,70.9673148 23.7108775,70.5593235 C19.7278484,68.6615645 16.4515722,65.9502063 14.2262707,62.3540512 C12.1559607,59.0083669 11,54.9028584 11,50 C11,42.1984005 13.9412467,36.4171022 18.7985677,32.4999079 C24.3087297,28.0562288 32.2250915,26 41,26 L41,26 Z" id="Oval" stroke="#8AB4B4" stroke-width="2" fill="#EEFCFC"></path>
                <path d="M10,47.9875 C4.74543982,48.2540159 2.11815972,47.4255264 2.11815972,45.5020313 C2.11815972,42.6167886 3.58550392,42.1645472 4.82229189,42.1645472 C6.05907986,42.1645472 11.6259861,47.6143025 2.11815972,52.3809896" id="Path-11" stroke="#8AB4B4" stroke-width="2"></path>
                <path d="M54.2471172,29.6783007 C60.3873833,26.6689689 64.2615218,25.087827 65.4753361,25.8476309 C65.631273,25.9452418 65.6018599,26.2431493 65.6340152,26.5290999 C65.7102935,27.2074262 65.6642937,28.1292046 65.5118418,29.2940683 C65.1944999,31.7188318 64.4124231,35.1260332 63.1715647,39.516435 C62.3305809,39.9088382 61.4314867,40.0209633 60.4750126,39.8568633 C59.2748167,39.6509484 57.9996271,39.0304206 56.6361694,38.0302442 C55.3232492,37.0671401 54.4645206,35.8781887 54.0813357,34.4493155 C53.7103091,33.0657799 53.7774861,31.4750721 54.2471172,29.6783007 Z" id="Path-12" stroke="#8AB4B4" stroke-width="2" fill="#FFFFFF"></path>
                <path d="M60.8503781,46.1575 C61.3007191,47.8763119 62.141791,48.7357178 63.3735938,48.7357178 C64.6053965,48.7357178 65.4828394,47.8763119 66.0059224,46.1575" id="Path-13" stroke="#8AB4B4" stroke-width="2"></path>
                <path d="M25.9883482,35.3948206 C33.013553,33.0312729 39.538857,33.0312729 45.5642603,35.3948206" id="Path-14" stroke="#8AB4B4" stroke-width="2"></path>
                <circle id="Oval" fill="#F1BF8C" cx="27.5" cy="15.5" r="8.5"></circle>
                <path d="M9,0.464363731 C19.1599666,0.464363731 21.9993118,6.5 21.9993118,6.5" id="Path-19" stroke="#C7DEDE"></path>
                <path d="M10,5 C14.00452,5 15.5769606,6.70798358 17.0024791,8" id="Path-19" stroke="#C7DEDE"></path>
            </g>
        </g>
    </g>
</svg>