<?xml version="1.0" encoding="UTF-8"?>
<svg width="80px" height="80px" viewBox="0 0 80 80" version="1.1" xmlns="http://www.w3.org/2000/svg" xmlns:xlink="http://www.w3.org/1999/xlink">
    <title>illustration-apartments-cozy-armchair</title>
    <g id="Page-1" stroke="none" stroke-width="1" fill="none" fill-rule="evenodd">
        <g id="Страница-с-поиском" transform="translate(-375.000000, -1743.000000)">
            <g id="illustration-apartments-cozy-armchair" transform="translate(375.000000, 1743.000000)">
                <rect id="Rectangle" fill="#FFFFFF" x="0" y="0" width="80" height="80"></rect>
                <path d="M47.8864224,5.33161187 C52.486257,5.33161187 56.9058801,7.66184017 60.232398,11.0289782 C63.7194358,14.5585962 66.0305588,19.2500527 66.0305588,23.7095173 C66.0305588,28.1446993 64.504514,33.5488866 62.9672922,39.0536457 L62.9672922,39.0536457 L62.4258814,40.9993987 C61.0769381,45.88235 59.8480044,50.7643172 59.6770335,55.0779821 L59.6770335,55.0779821 L20.2538025,55.0779821 C20.061395,51.3065305 18.8593497,46.226529 17.5989175,40.9522043 C16.1451721,34.8689533 14.6149509,28.5194984 14.6149509,23.7095173 C14.6149509,19.2935385 16.8045959,14.7337417 19.9337367,11.2544054 C23.0652215,7.77246265 27.1625534,5.33161187 31.042468,5.33161187 L31.042468,5.33161187 Z" id="Rectangle" stroke="#8AB4B4" stroke-width="2" fill="#EEFCFC"></path>
                <path d="M40.4462811,37.5984267 C43.2783733,37.5984267 46.9501216,38.1160896 51.462552,39.1393112 C51.6743476,39.1873372 51.883992,39.2355691 52.0907912,39.2837618 C52.1940401,39.1288699 52.3170838,38.9679589 52.4555393,38.7998802 C52.8861496,38.2771389 53.2772577,37.9139899 53.6880289,37.8332251 C53.9740936,37.7769797 54.2218574,37.9454751 54.4665016,38.188246 C54.6865913,38.4066503 54.8527851,38.6283599 54.7859906,38.8897941 C54.680578,39.3023802 54.2740465,39.6894266 53.694463,40.1200847 C53.5171637,40.2518265 53.3484449,40.3692407 53.1874721,40.4686684 C53.2274845,40.6768608 53.2675516,40.8890525 53.3076772,41.1052424 C53.8793456,44.1852909 54.1708855,46.5035922 54.1708855,48.0608415 C54.1708855,49.4038881 53.8763399,51.4215108 53.3027137,54.1147726 L53.3027137,54.1147726 L53.1237002,55.6919867 C47.1788716,54.7889429 42.9708437,54.3417935 40.5,54.3417935 C37.9244829,54.3417935 33.6018565,54.7940186 27.5323348,55.7069355 C26.684144,51.5240158 26.2508855,48.7553537 26.2508855,47.4000828 C26.2508855,46.0303524 26.5421011,43.9765676 27.1100535,41.2377555 C27.1582032,41.0055649 27.2062202,40.7786828 27.2539357,40.5573597 C27.0781708,40.463433 26.8936613,40.3463069 26.699488,40.2120913 C26.1334142,39.8208122 25.7322361,39.4550395 25.6295278,39.0399722 C25.5523929,38.7282529 25.7344615,38.439308 25.9979664,38.1431598 C26.1500447,37.9722419 26.2981016,37.8408333 26.4594296,37.7752055 C27.1443652,37.8629037 27.5468562,38.3074197 28.0007906,38.9408969 C28.1379074,39.1322469 28.2602069,39.3136099 28.3634131,39.4856789 C28.5835853,39.4353021 28.8065535,39.3848178 29.0323171,39.3342246 C34.169694,38.182948 37.9739317,37.5984267 40.4462811,37.5984267 Z" id="Rectangle" stroke="#8AB4B4" stroke-width="2" fill="#FFFFFF"></path>
                <path d="M64.7039474,37.881748 C67.3087255,37.881748 69.6669094,38.9375429 71.3738989,40.6445324 C73.0808884,42.3515218 74.1366833,44.7097058 74.1366833,47.3144839 C74.1366833,49.4439967 73.4312117,51.4088059 72.2407953,52.987551 C71.0217164,54.6043084 69.2947516,55.8168724 67.2966159,56.3867073 C66.2343456,57.3912132 66.1313154,57.7483817 66.029085,58.1797249 C65.834002,59.0028431 65.6980979,60.2127062 65.5496349,61.5737062 C65.4031756,62.9163385 65.2408825,64.413767 64.9754986,65.811501 C64.4587902,68.5329209 63.3435476,70.3641317 61.7464284,71.5681537 C59.7900932,73.0429782 57.1651997,73.5925734 54.1977925,73.8110266 C51.2819979,74.0256804 48.9691328,73.9404853 46.6430903,73.8561822 C44.7010981,73.7857983 42.7501447,73.7158486 40.4458429,73.8093474 C37.9679219,73.9213302 32.5978109,74.1662258 26.7899744,73.8102014 C23.8472055,73.6298077 21.4672903,72.831961 19.6863304,71.4700556 C17.8948218,70.1000836 16.7280107,68.1628151 16.1824684,65.7752807 C16.1026731,65.4260612 16.0221265,65.0929722 15.940623,64.761079 C15.4342775,62.7092033 15.0062836,60.956549 14.5770017,57.2338116 C14.5540493,57.0347688 14.5323752,56.8412108 14.5114747,56.6533975 C14.3370842,56.5826564 14.1603977,56.508506 13.981364,56.4308849 C11.3292045,55.2810256 9.58506014,53.9865276 8.4892921,52.5623792 C7.23754566,50.9355087 6.86331671,49.1550798 6.86331671,47.3144839 C6.86331671,46.560597 7.30912561,42.8620132 9.85629517,40.3148436 C11.2610262,38.9101126 13.3203682,37.881748 16.2960526,37.881748 C18.1998764,37.881748 21.8412722,38.6573052 23.9562188,41.5425496 C25.0688853,43.0604673 25.6661014,46.5550691 26.3546314,50.2162945 C26.6470269,51.7710935 26.9460162,53.3597351 27.2849821,54.8629054 C27.366041,55.2223672 27.4512624,55.5852625 27.5405942,55.9502047 C27.896947,55.8134897 28.2349455,55.6959549 28.5515511,55.599632 C33.8609325,53.9843257 47.4893489,53.9729949 52.1976498,55.5887812 C52.5154831,55.6978546 52.8608461,55.8377398 53.228617,56.0046419 C53.3192122,55.6235852 53.4086369,55.2449072 53.4960821,54.8701795 C53.671229,54.1196246 53.846269,53.3513441 54.0214423,52.5795395 L54.1961739,51.8092766 C55.2025341,47.3739034 56.1593704,42.9480456 57.2277895,41.5618073 C58.9526516,39.3238561 61.6598259,37.881748 64.7039474,37.881748 Z" id="Oval" stroke="#8AB4B4" stroke-width="2" fill="#EEFCFC"></path>
                <rect id="Rectangle" fill="#F1BF8C" x="42" y="71" width="25" height="4"></rect>
                <path d="M58,64 L58,71 L43,71 C45.5444959,66.3333333 50.5444959,64 58,64 Z" id="Rectangle" fill="#F1BF8C"></path>
                <circle id="Oval" stroke="#8AB4B4" stroke-width="2" fill="#EEFCFC" cx="51" cy="26" r="2"></circle>
                <circle id="Oval" stroke="#8AB4B4" stroke-width="2" fill="#EEFCFC" cx="29" cy="26" r="2"></circle>
                <circle id="Oval" stroke="#8AB4B4" stroke-width="2" fill="#EEFCFC" cx="40" cy="26" r="2"></circle>
                <path d="M33.6325945,42.4629601 C35.163059,41.8711229 37.3211541,41.5752043 40.1068798,41.5752043 C42.8926056,41.5752043 45.1359712,41.8711229 46.8369766,42.4629601" id="Path-36" stroke="#C7DEDE"></path>
            </g>
        </g>
    </g>
</svg>