<?xml version="1.0" encoding="UTF-8"?>
<svg width="80px" height="80px" viewBox="0 0 80 80" version="1.1" xmlns="http://www.w3.org/2000/svg" xmlns:xlink="http://www.w3.org/1999/xlink">
    <title>illustration-apartments-security-cam</title>
    <g id="Page-1" stroke="none" stroke-width="1" fill="none" fill-rule="evenodd">
        <g id="Страница-с-поиском" transform="translate(-1175.000000, -1466.000000)">
            <g id="illustration-apartments-security-cam" transform="translate(1175.000000, 1466.000000)">
                <rect id="Rectangle" fill="#FFFFFF" x="0" y="0" width="80" height="80"></rect>
                <path d="M40.0024818,6.03494498 L69,13.7682618 L69,43 C69,49.4008182 66.5708753,55.3263911 61.7501621,60.789866 C56.8944547,66.2930011 49.6367917,71.3200508 39.9959037,75.8941818 C30.3595631,71.3653819 23.1041616,66.3626337 18.2498379,60.8610668 C13.4284355,55.3968108 11,49.4472808 11,43 L11,43 L11,13.7682948 L40.0024818,6.03494498 Z" id="Rectangle" stroke="#8AB4B4" stroke-width="2" fill="#EEFCFC"></path>
                <path d="M23.6071619,32.2564798 L27.4085839,33.5236205 L23.4582909,44.3689706 C23.1705938,45.1588299 22.6512938,45.8165873 21.9937622,46.2768798 C21.3362307,46.7371723 20.5404677,47 19.6998444,47 L19.6998444,47 L11,47 L11,43 L18.2995727,43 C18.7200792,43 19.1181233,42.8684661 19.4469671,42.638135 C19.7758109,42.4078038 20.0354544,42.0786753 20.1791596,41.6834861 L20.1791596,41.6834861 L23.6071619,32.2564798 Z" id="Rectangle" stroke="#8AB4B4" stroke-width="2" fill="#FFFFFF"></path>
                <circle id="Oval" stroke="#8AB4B4" stroke-width="2" fill="#FFFFFF" cx="26" cy="31" r="4"></circle>
                <rect id="Rectangle" stroke="#8AB4B4" stroke-width="2" fill="#FFFFFF" transform="translate(29.972824, 22.605410) rotate(20.000000) translate(-29.972824, -22.605410) " x="6.97282433" y="13.6054096" width="46" height="18" rx="5"></rect>
                <path d="M58.8170441,15.2147197 C59.0931865,15.2147197 59.3431865,15.3266486 59.5241509,15.507613 C59.7051153,15.6885774 59.8170441,15.9385774 59.8170441,16.2147197 C59.8170441,16.4649114 59.723259,16.7060145 59.5541983,16.8904444 L59.5541983,16.8904444 L55.787894,20.9991399 C53.325565,23.685317 49.8488732,25.2147197 46.2048902,25.2147197 L46.2048902,25.2147197 L12.3635142,25.2147197 C11.2589447,25.2147197 10.2589447,24.7670045 9.53508712,24.0431469 C8.81122949,23.3192892 8.36351424,22.3192892 8.36351424,21.2147197 L8.36351424,21.2147197 L8.36351424,19.2147197 C8.36351424,18.1101502 8.81122949,17.1101502 9.53508712,16.3862926 C10.2589447,15.662435 11.2589447,15.2147197 12.3635142,15.2147197 L12.3635142,15.2147197 Z" id="Rectangle" stroke="#8AB4B4" stroke-width="2" fill="#FFFFFF" transform="translate(35.363514, 20.214720) rotate(20.000000) translate(-35.363514, -20.214720) "></path>
                <rect id="Rectangle" stroke="#8AB4B4" stroke-width="2" fill="#FFFFFF" transform="translate(53.000000, 33.500000) rotate(20.000000) translate(-53.000000, -33.500000) " x="51" y="29" width="4" height="9" rx="1"></rect>
                <path d="M55.0622352,31.8252354 L64.7188036,28.376461 C68.1694477,37.8570275 70.7676589,43.2985251 70.6632589,48.0958214 L55.0622352,42.8252354 L55.0622352,31.8252354 Z" id="Rectangle" fill="#F1BF8C" transform="translate(62.864266, 38.236141) rotate(20.000000) translate(-62.864266, -38.236141) "></path>
                <rect id="Rectangle" stroke="#8AB4B4" stroke-width="2" fill="#FFFFFF" x="7" y="39" width="4" height="13"></rect>
                <path d="M41.7437469,66.5714633 C48.3605471,62.8720644 52.6840629,59.700233 54.7142944,57.0559693" id="Path-33" stroke="#C7DEDE"></path>
                <path d="M42.0946347,60.8137163 C45.1645855,59.1404082 47.2496341,57.5544925 48.3497804,56.0559693" id="Path-34" stroke="#C7DEDE"></path>
            </g>
        </g>
    </g>
</svg>