<?xml version="1.0" encoding="UTF-8"?>
<svg width="20px" height="20px" viewBox="0 0 20 20" version="1.1" xmlns="http://www.w3.org/2000/svg" xmlns:xlink="http://www.w3.org/1999/xlink">
    <title>image-apartments-program-anticovid-statistics</title>
    <g id="Page-1" stroke="none" stroke-width="1" fill="none" fill-rule="evenodd">
        <g id="Страница-для-партнеров-(альтернатива)" transform="translate(-381.000000, -2671.000000)" fill-rule="nonzero">
            <g id="image-apartments-program-anticovid-statistics" transform="translate(381.000000, 2671.000000)">
                <path d="M10,0 C15.5228475,0 20,4.4771525 20,10 C20,15.5228475 15.5228475,20 10,20 C4.4771525,20 0,15.5228475 0,10 C0,4.4771525 4.4771525,0 10,0 Z M10,3 C6.13400675,3 3,6.13400675 3,10 C3,13.8659932 6.13400675,17 10,17 C13.8659932,17 17,13.8659932 17,10 C17,6.13400675 13.8659932,3 10,3 Z" id="Oval" fill="#DBE3E3"></path>
                <path d="M10.2196358,0.220364173 C15.7424833,0.220364173 20.2196358,4.69751668 20.2196358,10.2203642 C20.2196358,14.5451674 17.4498956,18.3312301 13.4329871,19.6924976 L13.1633622,19.7796358 L12.2812515,16.9122536 C15.1930405,16.0164818 17.2196358,13.3150437 17.2196358,10.2203642 C17.2196358,6.35437092 14.0856291,3.22036417 10.2196358,3.22036417 C6.4341841,3.22036417 3.35053714,6.22514756 3.22369485,9.97971442 L3.21963583,10.2203642 L0.219635827,10.2203642 C0.219635827,4.69751668 4.69678833,0.220364173 10.2196358,0.220364173 Z" id="Oval" fill="#7FADAD" transform="translate(10.219636, 10.000000) rotate(90.000000) translate(-10.219636, -10.000000) "></path>
            </g>
        </g>
    </g>
</svg>