<svg xmlns="http://www.w3.org/2000/svg" viewBox="0 0 70 50">
<style type="text/css">
	.st0{fill:#BFE10E;}
	.st1{fill:#534D4C;}
</style>
<rect class="st0" width="70" height="50"/>
<path class="st1" d="M17.3,32.5c1.2,0,4.2-0.2,6.4-1.8v1.2h4.5l0-5.4l1.9-1.9l4,7.3h5.3l-6.1-10.4l6-6.6h-5.5l-5.6,6.5V8.9h-4.5v2
	c-1.4-1.5-3.6-2.6-7-2.6c-7.4,0-8.8,4.5-8.8,7c0,3.5,1.9,5.4,5.1,6.2l4.6,1.1c2.4,0.6,4.2,1,4.2,2.8c0,2.4-2.5,3-4.8,3
	c-4.2,0-4.9-2.4-4.9-3.7H7.5C7.5,27.6,9,32.5,17.3,32.5 M20.3,18.8l-5.6-1.4c-1-0.2-2.4-0.6-2.4-2.4c0-2.1,2.2-2.8,4-2.8
	c4.2,0,4.6,2.4,4.7,3.5h2.7V20C22.7,19.5,21.5,19.1,20.3,18.8"/>
<g id="ru">
	<path class="st1" d="M11.3,42.8c-0.5,0-0.8,0-1.1-0.1v-1.4c0.2,0.1,0.4,0.1,0.5,0.1c0.3,0,0.6-0.1,0.7-0.4l0-0.1L8.3,35h1.9
		l2.1,4.3l1.6-4.3h1.8l-2.8,6.4c-0.1,0.3-0.3,0.6-0.5,0.8c-0.2,0.2-0.4,0.4-0.6,0.5C11.6,42.7,11.4,42.8,11.3,42.8z"/>
	<path class="st1" d="M20.5,42.7H19v-2.3c-0.1,0.1-0.4,0.2-0.7,0.3s-0.6,0.2-1,0.2c-0.6,0-1.1-0.2-1.4-0.5c-0.3-0.3-0.5-0.8-0.5-1.5
		V37h1.5v1.8c0,0.5,0.3,0.8,1,0.8c0.2,0,0.4,0,0.6-0.1c0.2-0.1,0.4-0.2,0.5-0.2V37h1.5V42.7z"/>
	<path class="st1" d="M26.8,41.6c0,0.3,0,0.5,0.1,0.6c0.1,0.1,0.1,0.2,0.2,0.2v0.2h-1.6c-0.1-0.2-0.1-0.4-0.1-0.7
		c-0.2,0.2-0.5,0.4-0.8,0.6c-0.3,0.1-0.6,0.2-1.1,0.2c-0.3,0-0.6-0.1-0.8-0.2c-0.3-0.1-0.5-0.3-0.6-0.6c-0.2-0.2-0.2-0.6-0.2-0.9
		c0-0.4,0.1-0.7,0.2-0.9c0.1-0.3,0.3-0.5,0.6-0.6c0.2-0.1,0.5-0.2,0.9-0.3l1.3-0.2c0.3,0,0.5-0.2,0.5-0.4c0-0.3-0.1-0.5-0.3-0.5
		c-0.2-0.1-0.4-0.1-0.7-0.1c-0.3,0-0.6,0.1-0.7,0.2c-0.1,0.1-0.2,0.3-0.2,0.6H22c0.1-0.5,0.2-1,0.4-1.3c0.2-0.3,0.5-0.5,0.9-0.6
		c0.3-0.1,0.7-0.1,1.2-0.1c0.3,0,0.7,0,1,0.1c0.3,0.1,0.6,0.3,0.9,0.5c0.2,0.2,0.4,0.6,0.4,1V41.6z M25.3,39.9
		c-0.2,0.1-0.5,0.2-1,0.3c-0.2,0-0.4,0.1-0.5,0.1c-0.1,0.1-0.3,0.1-0.3,0.3c-0.1,0.1-0.1,0.3-0.1,0.5c0,0.2,0.1,0.4,0.2,0.5
		c0.1,0.1,0.3,0.2,0.5,0.2c0.2,0,0.4,0,0.6-0.1c0.2-0.1,0.4-0.2,0.5-0.4s0.2-0.4,0.2-0.6V39.9z"/>
	<path class="st1" d="M33,40.6c0,0.2-0.1,0.4-0.1,0.6c-0.1,0.2-0.2,0.5-0.4,0.7c-0.2,0.2-0.5,0.4-0.8,0.6c-0.3,0.2-0.8,0.2-1.2,0.2
		c-0.5,0-0.9-0.1-1.3-0.3c-0.3-0.2-0.6-0.4-0.8-0.7c-0.2-0.3-0.3-0.6-0.4-0.9c-0.1-0.3-0.1-0.7-0.1-1c0-0.6,0.1-1.2,0.3-1.7
		c0.2-0.5,0.5-0.8,0.9-1.1c0.4-0.3,0.9-0.4,1.5-0.4c0.4,0,0.7,0.1,1.1,0.2c0.4,0.1,0.7,0.4,1,0.7C32.8,38,33,38.5,33,39h-1.5
		c-0.1-0.6-0.4-0.9-1-0.9c-0.3,0-0.5,0.1-0.7,0.2c-0.2,0.2-0.3,0.4-0.4,0.6c-0.1,0.2-0.1,0.5-0.1,0.8c0,0.3,0,0.6,0.1,0.8
		c0,0.3,0.1,0.5,0.3,0.7c0.2,0.2,0.4,0.3,0.8,0.3c0.2,0,0.4-0.1,0.6-0.2c0.2-0.1,0.3-0.3,0.3-0.4c0.1-0.2,0.1-0.3,0.1-0.4H33z"/>
	<path class="st1" d="M35.3,42.7v-4.5h-1.7V37h4.9v1.2h-1.7v4.5H35.3z"/>
	<path class="st1" d="M44.4,42.7h-1.5v-2.2h-2.1v2.2h-1.5V37h1.5v2.2h2.1V37h1.5V42.7z"/>
	<path class="st1" d="M50.8,42.7h-1.5v-3.4l-2,3.4h-1.6V37h1.5v3.4l2-3.4h1.6V42.7z"/>
	<path class="st1" d="M53.6,42.7h-1.5V37h1.5v2.2l1.9-2.2h1.9l-2,2.2l2.1,3.5h-1.8l-1.4-2.4l-0.6,0.6V42.7z"/>
</g>
</svg>
