<?xml version="1.0" encoding="UTF-8"?>
<svg width="570px" height="400px" viewBox="0 0 570 400" version="1.1" xmlns="http://www.w3.org/2000/svg" xmlns:xlink="http://www.w3.org/1999/xlink">
    <title>bo-illustration-income</title>
    <defs>
        <path d="M307,44 L517,44 C522.522847,44 527,48.4771525 527,54 L527,324 C527,329.522847 522.522847,334 517,334 L307,334 C301.477153,334 297,329.522847 297,324 L297,54 C297,48.4771525 301.477153,44 307,44 Z" id="path-1"></path>
        <filter x="-15.2%" y="-8.6%" width="130.4%" height="124.1%" filterUnits="objectBoundingBox" id="filter-2">
            <feOffset dx="0" dy="10" in="SourceAlpha" result="shadowOffsetOuter1"></feOffset>
            <feGaussianBlur stdDeviation="10" in="shadowOffsetOuter1" result="shadowBlurOuter1"></feGaussianBlur>
            <feColorMatrix values="0 0 0 0 0   0 0 0 0 0   0 0 0 0 0  0 0 0 0.1 0" type="matrix" in="shadowBlurOuter1"></feColorMatrix>
        </filter>
        <circle id="path-3" cx="130" cy="86" r="38"></circle>
        <filter x="-88.2%" y="-81.6%" width="276.3%" height="277.6%" filterUnits="objectBoundingBox" id="filter-4">
            <feOffset dx="0" dy="11" in="SourceAlpha" result="shadowOffsetOuter1"></feOffset>
            <feGaussianBlur stdDeviation="7.5" in="shadowOffsetOuter1" result="shadowBlurOuter1"></feGaussianBlur>
            <feColorMatrix values="0 0 0 0 0   0 0 0 0 0   0 0 0 0 0  0 0 0 0.05 0" type="matrix" in="shadowBlurOuter1" result="shadowMatrixOuter1"></feColorMatrix>
            <feMorphology radius="4" operator="dilate" in="SourceAlpha" result="shadowSpreadOuter2"></feMorphology>
            <feOffset dx="0" dy="5" in="shadowSpreadOuter2" result="shadowOffsetOuter2"></feOffset>
            <feGaussianBlur stdDeviation="17.5" in="shadowOffsetOuter2" result="shadowBlurOuter2"></feGaussianBlur>
            <feColorMatrix values="0 0 0 0 0   0 0 0 0 0   0 0 0 0 0  0 0 0 0.02 0" type="matrix" in="shadowBlurOuter2" result="shadowMatrixOuter2"></feColorMatrix>
            <feMorphology radius="1.5" operator="dilate" in="SourceAlpha" result="shadowSpreadOuter3"></feMorphology>
            <feOffset dx="0" dy="16" in="shadowSpreadOuter3" result="shadowOffsetOuter3"></feOffset>
            <feGaussianBlur stdDeviation="12.5" in="shadowOffsetOuter3" result="shadowBlurOuter3"></feGaussianBlur>
            <feColorMatrix values="0 0 0 0 0   0 0 0 0 0   0 0 0 0 0  0 0 0 0.05 0" type="matrix" in="shadowBlurOuter3" result="shadowMatrixOuter3"></feColorMatrix>
            <feMerge>
                <feMergeNode in="shadowMatrixOuter1"></feMergeNode>
                <feMergeNode in="shadowMatrixOuter2"></feMergeNode>
                <feMergeNode in="shadowMatrixOuter3"></feMergeNode>
            </feMerge>
        </filter>
        <circle id="path-5" cx="96" cy="264" r="38"></circle>
        <filter x="-88.2%" y="-81.6%" width="276.3%" height="277.6%" filterUnits="objectBoundingBox" id="filter-6">
            <feOffset dx="0" dy="11" in="SourceAlpha" result="shadowOffsetOuter1"></feOffset>
            <feGaussianBlur stdDeviation="7.5" in="shadowOffsetOuter1" result="shadowBlurOuter1"></feGaussianBlur>
            <feColorMatrix values="0 0 0 0 0   0 0 0 0 0   0 0 0 0 0  0 0 0 0.05 0" type="matrix" in="shadowBlurOuter1" result="shadowMatrixOuter1"></feColorMatrix>
            <feMorphology radius="4" operator="dilate" in="SourceAlpha" result="shadowSpreadOuter2"></feMorphology>
            <feOffset dx="0" dy="5" in="shadowSpreadOuter2" result="shadowOffsetOuter2"></feOffset>
            <feGaussianBlur stdDeviation="17.5" in="shadowOffsetOuter2" result="shadowBlurOuter2"></feGaussianBlur>
            <feColorMatrix values="0 0 0 0 0   0 0 0 0 0   0 0 0 0 0  0 0 0 0.02 0" type="matrix" in="shadowBlurOuter2" result="shadowMatrixOuter2"></feColorMatrix>
            <feMorphology radius="1.5" operator="dilate" in="SourceAlpha" result="shadowSpreadOuter3"></feMorphology>
            <feOffset dx="0" dy="16" in="shadowSpreadOuter3" result="shadowOffsetOuter3"></feOffset>
            <feGaussianBlur stdDeviation="12.5" in="shadowOffsetOuter3" result="shadowBlurOuter3"></feGaussianBlur>
            <feColorMatrix values="0 0 0 0 0   0 0 0 0 0   0 0 0 0 0  0 0 0 0.05 0" type="matrix" in="shadowBlurOuter3" result="shadowMatrixOuter3"></feColorMatrix>
            <feMerge>
                <feMergeNode in="shadowMatrixOuter1"></feMergeNode>
                <feMergeNode in="shadowMatrixOuter2"></feMergeNode>
                <feMergeNode in="shadowMatrixOuter3"></feMergeNode>
            </feMerge>
        </filter>
        <ellipse id="path-7" cx="59.5" cy="137.500619" rx="12.5" ry="12.500619"></ellipse>
        <filter x="-268.0%" y="-248.0%" width="636.0%" height="640.0%" filterUnits="objectBoundingBox" id="filter-8">
            <feOffset dx="0" dy="11" in="SourceAlpha" result="shadowOffsetOuter1"></feOffset>
            <feGaussianBlur stdDeviation="7.5" in="shadowOffsetOuter1" result="shadowBlurOuter1"></feGaussianBlur>
            <feColorMatrix values="0 0 0 0 0   0 0 0 0 0   0 0 0 0 0  0 0 0 0.05 0" type="matrix" in="shadowBlurOuter1" result="shadowMatrixOuter1"></feColorMatrix>
            <feMorphology radius="4" operator="dilate" in="SourceAlpha" result="shadowSpreadOuter2"></feMorphology>
            <feOffset dx="0" dy="5" in="shadowSpreadOuter2" result="shadowOffsetOuter2"></feOffset>
            <feGaussianBlur stdDeviation="17.5" in="shadowOffsetOuter2" result="shadowBlurOuter2"></feGaussianBlur>
            <feColorMatrix values="0 0 0 0 0   0 0 0 0 0   0 0 0 0 0  0 0 0 0.02 0" type="matrix" in="shadowBlurOuter2" result="shadowMatrixOuter2"></feColorMatrix>
            <feMorphology radius="1.5" operator="dilate" in="SourceAlpha" result="shadowSpreadOuter3"></feMorphology>
            <feOffset dx="0" dy="16" in="shadowSpreadOuter3" result="shadowOffsetOuter3"></feOffset>
            <feGaussianBlur stdDeviation="12.5" in="shadowOffsetOuter3" result="shadowBlurOuter3"></feGaussianBlur>
            <feColorMatrix values="0 0 0 0 0   0 0 0 0 0   0 0 0 0 0  0 0 0 0.05 0" type="matrix" in="shadowBlurOuter3" result="shadowMatrixOuter3"></feColorMatrix>
            <feMerge>
                <feMergeNode in="shadowMatrixOuter1"></feMergeNode>
                <feMergeNode in="shadowMatrixOuter2"></feMergeNode>
                <feMergeNode in="shadowMatrixOuter3"></feMergeNode>
            </feMerge>
        </filter>
        <ellipse id="path-9" cx="261.5" cy="345.500371" rx="7.5" ry="7.50037138"></ellipse>
        <filter x="-446.7%" y="-413.3%" width="993.3%" height="1000.0%" filterUnits="objectBoundingBox" id="filter-10">
            <feOffset dx="0" dy="11" in="SourceAlpha" result="shadowOffsetOuter1"></feOffset>
            <feGaussianBlur stdDeviation="7.5" in="shadowOffsetOuter1" result="shadowBlurOuter1"></feGaussianBlur>
            <feColorMatrix values="0 0 0 0 0   0 0 0 0 0   0 0 0 0 0  0 0 0 0.05 0" type="matrix" in="shadowBlurOuter1" result="shadowMatrixOuter1"></feColorMatrix>
            <feMorphology radius="4" operator="dilate" in="SourceAlpha" result="shadowSpreadOuter2"></feMorphology>
            <feOffset dx="0" dy="5" in="shadowSpreadOuter2" result="shadowOffsetOuter2"></feOffset>
            <feGaussianBlur stdDeviation="17.5" in="shadowOffsetOuter2" result="shadowBlurOuter2"></feGaussianBlur>
            <feColorMatrix values="0 0 0 0 0   0 0 0 0 0   0 0 0 0 0  0 0 0 0.02 0" type="matrix" in="shadowBlurOuter2" result="shadowMatrixOuter2"></feColorMatrix>
            <feMorphology radius="1.5" operator="dilate" in="SourceAlpha" result="shadowSpreadOuter3"></feMorphology>
            <feOffset dx="0" dy="16" in="shadowSpreadOuter3" result="shadowOffsetOuter3"></feOffset>
            <feGaussianBlur stdDeviation="12.5" in="shadowOffsetOuter3" result="shadowBlurOuter3"></feGaussianBlur>
            <feColorMatrix values="0 0 0 0 0   0 0 0 0 0   0 0 0 0 0  0 0 0 0.05 0" type="matrix" in="shadowBlurOuter3" result="shadowMatrixOuter3"></feColorMatrix>
            <feMerge>
                <feMergeNode in="shadowMatrixOuter1"></feMergeNode>
                <feMergeNode in="shadowMatrixOuter2"></feMergeNode>
                <feMergeNode in="shadowMatrixOuter3"></feMergeNode>
            </feMerge>
        </filter>
    </defs>
    <g id="bo-illustration-income" stroke="none" stroke-width="1" fill="none" fill-rule="evenodd">
        <rect id="Rectangle-84" fill-rule="nonzero" x="0" y="0" width="570" height="400"></rect>
        <path d="M382,49 L382,39 C382,33.4771525 386.477153,29 392,29 L422,29 C427.522847,29 432,33.4771525 432,39 L432,49 L432,49" id="Path-28" stroke="#C5DCDE" stroke-width="2" stroke-linejoin="round" fill-rule="nonzero"></path>
        <line x1="372" y1="300" x2="342" y2="400" id="Path-27" stroke="#C5DCDE" stroke-width="2" fill-rule="nonzero"></line>
        <line x1="482" y1="300" x2="452" y2="400" id="Path-27" stroke="#C5DCDE" stroke-width="2" fill-rule="nonzero" transform="translate(467.000000, 350.000000) scale(-1, 1) translate(-467.000000, -350.000000) "></line>
        <path d="M227,350 L227,348 C229.65678,348 232.305229,347.930476 234.943597,347.791899 L235.0485,349.789146 C232.375199,349.929558 229.69177,350 227,350 Z M243.084162,349.153393 L242.873556,347.164513 C245.512835,346.885036 248.138848,346.535881 250.749637,346.11771 L251.065946,348.092539 C248.42007,348.516329 245.75881,348.870171 243.084162,349.153393 Z M258.990116,346.6045 L258.568394,344.649468 C261.161455,344.090115 263.735831,343.461885 266.289381,342.765669 L266.815471,344.695236 C264.22739,345.400867 261.618213,346.03759 258.990116,346.6045 Z M274.530989,342.36696 L273.901902,340.468475 C276.417797,339.634801 278.909264,338.734126 281.374028,337.767596 L282.104175,339.629553 C279.606083,340.609153 277.080919,341.522009 274.530989,342.36696 Z M289.527595,336.485902 L288.698522,334.665837 C291.110049,333.567342 293.491183,332.404601 295.839572,331.179026 L296.764899,332.952093 C294.384875,334.194179 291.971645,335.372593 289.527595,336.485902 Z M303.81661,329.028178 L302.797715,327.307175 C305.077732,325.957324 307.32134,324.546845 309.526178,323.077418 L310.635336,324.741681 C308.400936,326.230809 306.127231,327.660209 303.81661,329.028178 Z M317.215657,320.098723 L316.019581,318.495788 C318.143715,316.910804 320.225507,315.269516 322.26266,313.573848 L323.542156,315.111017 C321.477793,316.829335 319.368185,318.492553 317.215657,320.098723 Z M329.57735,309.811085 L328.218368,308.343717 C330.161701,306.543928 332.057093,304.692859 333.902382,302.792635 L335.337184,304.185956 C333.46728,306.111527 331.546606,307.987287 329.57735,309.811085 Z M340.80172,298.251274 L339.294973,296.936089 C341.037791,294.93942 342.727337,292.896865 344.361636,290.810696 L345.936043,292.044082 C344.279912,294.158119 342.567805,296.22795 340.80172,298.251274 Z M350.750422,285.548957 L349.112476,284.401293 C350.632859,282.231405 352.095251,280.021452 353.497918,277.773787 L355.194635,278.832632 C353.773159,281.110436 352.291169,283.350005 350.750422,285.548957 Z M359.284652,271.870797 L357.533724,270.90423 C358.813981,268.585054 360.032189,266.23181 361.186875,263.846858 L362.986993,264.718394 C361.816749,267.135479 360.582138,269.52041 359.284652,271.870797 Z M366.320064,257.332688 L364.475565,256.559497 C365.499097,254.117795 366.457363,251.648098 367.349163,249.152701 L369.232507,249.825767 C368.328648,252.354907 367.357427,254.857991 366.320064,257.332688 Z M371.737563,242.173309 L369.820779,241.602397 C370.576272,239.065898 371.264173,236.507325 371.883538,233.928852 L373.828222,234.395977 C373.200482,237.009315 372.503277,239.602496 371.737563,242.173309 Z M375.479407,226.620678 L373.512727,226.257127 C373.99355,223.656045 374.405474,221.038515 374.747787,218.40654 L376.731083,218.664486 C376.384171,221.331824 375.966705,223.984568 375.479407,226.620678 Z M377.558021,210.639395 L375.563808,210.487361 C375.764712,207.852121 375.896463,205.205694 375.958548,202.549878 L377.958002,202.596619 C377.895095,205.28758 377.761597,207.969117 377.558021,210.639395 Z M377.935221,194.534273 L375.936064,194.592344 C375.858958,191.937841 375.712204,189.29298 375.496325,186.65957 L377.489638,186.496164 C377.708391,189.16462 377.857093,191.844605 377.935221,194.534273 Z M376.615268,178.46484 L374.633506,178.734318 C374.275757,176.103408 373.848373,173.487245 373.352076,170.887845 L375.31659,170.512765 C375.819573,173.147186 376.25271,175.798562 376.615268,178.46484 Z M373.594329,162.644239 L371.652765,163.124166 C371.01679,160.551297 370.312449,157.998657 369.540699,155.468423 L371.453693,154.884939 C372.235884,157.449405 372.949753,160.036577 373.594329,162.644239 Z M368.899,147.250589 L367.020107,147.93598 C366.111709,145.445751 365.136958,142.981599 364.097073,140.545828 L365.936459,139.760552 C366.990394,142.229232 367.97832,144.72669 368.899,147.250589 Z M362.573725,132.434795 L360.779103,133.317593 C359.609583,130.940102 358.37675,128.594666 357.08209,126.283646 L358.826945,125.306159 C360.139022,127.64827 361.388452,130.025279 362.573725,132.434795 Z M354.688016,118.361218 L352.998006,119.430734 C351.581976,117.193176 350.106533,114.99364 348.573424,112.834473 L350.204154,111.676579 C351.757793,113.864659 353.253003,116.093664 354.688016,118.361218 Z M345.3851,105.256877 L343.817957,106.499481 C342.172016,104.42366 340.471135,102.391738 338.717296,100.405982 L340.216334,99.0820167 C341.993584,101.09428 343.717175,103.153331 345.3851,105.256877 Z M334.724487,93.1867393 L333.297751,94.5883182 C331.440358,92.6975865 329.533091,90.8563661 327.578125,89.0667745 L328.928565,87.5915415 C330.909611,89.405007 332.842319,91.2707874 334.724487,93.1867393 Z M322.826317,82.2968376 L321.556254,83.8418099 C319.509841,82.1595313 317.419165,80.5318573 315.286526,78.9606962 L316.472798,77.3504918 C318.63395,78.9426589 320.752566,80.5920851 322.826317,82.2968376 Z M309.848308,72.7373395 L308.749559,74.4084916 C306.535781,72.952976 304.283589,71.5566487 301.995344,70.2211734 L303.003461,68.4938344 C305.322429,69.8472406 307.604842,71.2623045 309.848308,72.7373395 Z M295.915237,64.6079157 L295.001199,66.3868295 C292.644817,65.1760779 290.256042,64.028381 287.837223,62.9451365 L288.654672,61.1198211 C291.106121,62.2176784 293.527103,63.3808493 295.915237,64.6079157 Z M281.180227,58.0116493 L280.462404,59.8783926 C277.991378,58.9282037 275.494017,58.0440282 272.97259,57.2269941 L273.589104,55.3243877 C276.144643,56.1524753 278.675785,57.0486108 281.180227,58.0116493 Z M265.914968,53.062253 L265.400896,54.9950566 C262.843558,54.3148759 260.265734,53.7027508 257.669554,53.1595573 L258.07914,51.2019469 C260.710389,51.7524776 263.323054,52.3728759 265.914968,53.062253 Z M250.206865,49.7724039 L249.90196,51.7490255 C247.288552,51.3458928 244.660206,51.0118225 242.018871,50.7474661 L242.218045,48.7574083 C244.894753,49.0253051 247.558355,49.3638565 250.206865,49.7724039 Z M234.173684,48.1674206 L234.080235,50.1652362 C231.731963,50.0553942 229.375894,50.0002062 227.01334,50.0000006 C226.707917,50.0000006 226.414214,50.0008405 226.119007,50.0025494 L226.10743,48.002583 C226.406518,48.0008515 226.704082,48.0000006 227.013429,48.0000006 C229.407176,48.0002089 231.794345,48.0561254 234.173684,48.1674206 Z M218.062943,48.2601226 L218.179491,50.2567238 C215.526678,50.4115776 212.884887,50.6362744 210.25599,50.9302404 L210.033733,48.9426283 C212.697769,48.6447331 215.374809,48.4170382 218.062943,48.2601226 Z M202.054493,50.0510109 L202.382482,52.0239333 C199.763967,52.4592502 197.161688,52.9639894 194.577713,53.5373651 L194.144458,51.5848565 C196.763311,51.0037414 199.400691,50.492194 202.054493,50.0510109 Z M186.313896,53.5449605 L186.851606,55.4713217 C184.299514,56.1836939 181.769239,56.9639322 179.262998,57.8110099 L178.622612,55.9163053 C181.162763,55.0577665 183.727275,54.2669708 186.313896,53.5449605 Z M171.07662,58.6944687 L171.817691,60.5521051 C169.354678,61.5346811 166.91942,62.5829253 164.514246,63.6955426 L163.674551,61.8803531 C166.112188,60.7527185 168.580332,59.6903189 171.07662,58.6944687 Z M156.438637,65.4665976 L157.374543,67.2341041 C155.033777,68.4735556 152.72672,69.7752929 150.455736,71.1377553 L149.426816,69.4227268 C151.728311,68.0419592 154.066383,66.722722 156.438637,65.4665976 Z M142.603188,73.7691498 L143.722412,75.4266588 C141.525658,76.9100063 139.368658,78.4516877 137.25375,80.0498818 L136.047957,78.4542427 C138.191155,76.8346709 140.37702,75.2723583 142.603188,73.7691498 Z M129.791058,83.4472375 L131.07934,84.9770513 C129.052357,86.6840069 127.070883,88.4445665 125.137149,90.256688 L123.76957,88.7973297 C125.729105,86.9610302 127.73702,85.1769769 129.791058,83.4472375 Z M118.03342,94.4660569 L119.476506,95.8507958 C117.642278,97.7623114 115.858994,99.722147 114.128716,101.728089 L112.614276,100.421769 C114.367644,98.3890578 116.174721,96.4030735 118.03342,94.4660569 Z M107.505128,106.673681 L109.086905,107.897601 C107.465978,109.992463 105.900971,112.129972 104.393727,114.307808 L102.74917,113.169637 C104.276586,110.962655 105.862528,108.796552 107.505128,106.673681 Z M98.3328601,119.929548 L100.035833,120.978301 C98.6466059,123.234138 97.317713,125.526726 96.0507452,127.853699 L94.2942277,126.897328 C95.5782294,124.539069 96.924978,122.215677 98.3328601,119.929548 Z M90.6154614,134.109151 L92.4208681,134.969678 C91.2814023,137.360305 90.2058818,139.781624 89.1956278,142.231301 L87.3466873,141.468793 C88.3705843,138.986034 89.4606227,136.532031 90.6154614,134.109151 Z M84.4638654,149.032042 L86.3512613,149.693659 C85.4754665,152.192041 84.6663705,154.715107 83.9250291,157.260621 L82.0048061,156.701385 C82.7561783,154.12143 83.5762219,151.564225 84.4638654,149.032042 Z M79.9911451,164.364741 L81.9382375,164.821722 C81.3336896,167.397566 80.7975814,169.992337 80.3307239,172.603949 L78.3619338,172.252004 C78.8350876,169.60517 79.3784322,166.975375 79.9911451,164.364741 Z M77.1547281,180.23456 L79.1395356,180.480607 C78.8142861,183.104327 78.5581993,185.741511 78.3718702,188.390265 L76.3768005,188.24992 C76.565615,185.565834 76.8251244,182.893405 77.1547281,180.23456 Z M76.0234692,196.310741 L78.0231642,196.345669 C78.0077269,197.229496 78,198.114295 78,199 C78,200.767116 78.0307578,202.530584 78.0921387,204.289894 L76.0933549,204.35963 C76.0311633,202.577086 76,200.790368 76,199 C76,198.102651 76.0078286,197.20621 76.0234692,196.310741 Z M76.586834,212.403819 L78.5791405,212.228562 C78.8119719,214.875381 79.1146599,217.509771 79.4865749,220.129801 L77.5064254,220.410884 C77.1295213,217.755708 76.8227788,215.08603 76.586834,212.403819 Z M78.8492015,228.342129 L80.811509,227.955672 C81.3238717,230.557287 81.9052486,233.141172 82.554791,235.705217 L80.6160333,236.196357 C79.957712,233.597658 79.3684812,230.978866 78.8492015,228.342129 Z M82.8125427,243.978593 L84.7219823,243.38358 C85.5104979,245.913984 86.3663757,248.420939 87.2885156,250.902189 L85.4137964,251.598916 C84.4791838,249.084104 83.6117269,246.543233 82.8125427,243.978593 Z M88.4182101,259.063378 L90.2528708,258.267125 C91.3076917,260.697554 92.4272567,263.098608 93.6101988,265.467944 L91.8208233,266.361328 C90.6219334,263.96005 89.4872666,261.526608 88.4182101,259.063378 Z M95.620991,273.487787 L97.3599039,272.499768 C98.6692976,274.8043 100.040019,277.0734 101.47043,279.304703 L99.7867019,280.384083 C98.3370983,278.122841 96.9479746,275.823277 95.620991,273.487787 Z M104.333835,287.076221 L105.957461,285.908386 C107.504049,288.058586 109.107633,290.167457 110.76633,292.23269 L109.206993,293.485075 C107.52613,291.392244 105.901108,289.25518 104.333835,287.076221 Z M114.379102,299.58816 L115.8703,298.255369 C117.636191,300.231143 119.454275,302.159855 121.322453,304.039314 L119.90399,305.449264 C118.010891,303.544735 116.168554,301.590295 114.379102,299.58816 Z M125.738186,311.015181 L127.079847,309.53196 C129.04476,311.309338 131.056469,313.034322 133.112723,314.704905 L131.851594,316.257178 C129.767884,314.56429 127.729322,312.81628 125.738186,311.015181 Z M138.25716,321.18393 L139.433797,319.566671 C141.576121,321.125318 143.759488,322.626735 145.981557,324.069144 L144.892607,325.746698 C142.640765,324.284962 140.428159,322.763439 138.25716,321.18393 Z M151.782406,329.96165 L152.780104,328.228272 C155.075607,329.549518 157.406171,330.809367 159.769435,332.006303 L158.865777,333.790512 C156.470697,332.577462 154.108776,331.300662 151.782406,329.96165 Z M166.187045,337.254039 L166.993284,335.423745 C169.416589,336.491203 171.868903,337.493863 174.347916,338.430478 L173.641049,340.301398 C171.128529,339.352122 168.643079,338.335915 166.187045,337.254039 Z M181.260527,342.94813 L181.865698,341.041886 C184.388474,341.842785 186.934298,342.576409 189.500972,343.241773 L188.999097,345.17778 C186.397705,344.503416 183.817436,343.759866 181.260527,342.94813 Z M196.73492,346.966027 L197.133666,345.00618 C199.725686,345.533545 202.335074,345.992175 204.959795,346.381321 L204.666477,348.359695 C202.006434,347.965312 199.361892,347.500504 196.73492,346.966027 Z M212.686318,349.330368 L212.873565,347.339153 C215.505259,347.586628 218.148983,347.764917 220.802901,347.873481 L220.721155,349.871809 C218.032004,349.761805 215.353101,349.581143 212.686318,349.330368 Z" id="Oval-24" fill="#C5DCDE" fill-rule="nonzero"></path>
        <g id="Rectangle-50" fill-rule="nonzero">
            <use fill="black" fill-opacity="1" filter="url(#filter-2)" xlink:href="#path-1"></use>
            <use fill="#FFFFFF" xlink:href="#path-1"></use>
        </g>
        <rect id="Rectangle-51" fill="#F1F7F8" fill-rule="nonzero" x="312" y="114" width="200" height="200" rx="8"></rect>
        <rect id="Rectangle-51" fill="#BADBDD" fill-rule="nonzero" x="332" y="292" width="160" height="2" rx="1"></rect>
        <rect id="Rectangle-51" fill="#BADBDD" fill-rule="nonzero" x="332" y="134" width="2" height="160" rx="1"></rect>
        <path d="M322,84 L382,84 C384.761424,84 387,86.2385763 387,89 C387,91.7614237 384.761424,94 382,94 L322,94 C319.238576,94 317,91.7614237 317,89 C317,86.2385763 319.238576,84 322,84 Z" id="Rectangle-51" fill="#BADBDD" fill-rule="nonzero"></path>
        <rect id="Rectangle-51" fill="#FFBF00" fill-rule="nonzero" x="487" y="84" width="20" height="10" rx="5"></rect>
        <path d="M292,44 L532,44 C537.522847,44 542,48.4771525 542,54 C542,59.5228475 537.522847,64 532,64 L292,64 C286.477153,64 282,59.5228475 282,54 C282,48.4771525 286.477153,44 292,44 Z" id="Rectangle-51" fill="#F7F7F7" fill-rule="nonzero"></path>
        <g id="Group-2" transform="translate(341.000000, 152.000000)" fill="#169DA7" fill-rule="nonzero">
            <path d="M3.10926687,123.009716 C2.55161595,123.622347 1.60291487,123.666918 0.990283694,123.109267 C0.37765252,122.551616 0.333082216,121.602915 0.890733134,120.990284 L43.392277,74.298402 C48.6689933,68.5014404 57.2959599,67.2173031 64.0322795,71.2261056 L73.1137168,76.6304942 C79.0029216,80.1351763 86.5836435,78.6712882 90.7445235,73.2258674 L142.808118,5.08927588 C143.311098,4.43101789 144.252466,4.30513943 144.910724,4.80811847 C145.568982,5.31109751 145.694861,6.25246613 145.191882,6.91072412 L93.1282866,75.0473156 C88.0427666,81.7028299 78.7774397,83.4920265 71.5795228,79.2085261 L62.4980855,73.8041375 C56.9865513,70.5242082 49.9281241,71.574866 45.6108107,76.3178346 L3.10926687,123.009716 Z" id="Path-30"></path>
            <path d="M142.811966,4.21143266 L148.41394,15.3349573 C148.662355,15.8282205 148.463866,16.4294693 147.970603,16.677884 C147.832393,16.7474888 147.679914,16.7840679 147.525168,16.7847425 L134.644941,16.8408984 C134.092662,16.8433063 133.642999,16.3975472 133.640591,15.8452677 C133.639918,15.6909263 133.67498,15.5385239 133.743032,15.3999936 L139.230604,4.22919349 C139.717624,3.237788 140.916125,2.82890316 141.907531,3.31592363 C142.298481,3.50797506 142.616046,3.82240631 142.811966,4.21143266 Z" id="Rectangle-93" transform="translate(141.081974, 9.975824) rotate(37.500000) translate(-141.081974, -9.975824) "></path>
        </g>
        <g id="Oval-33" fill-rule="nonzero">
            <use fill="black" fill-opacity="1" filter="url(#filter-4)" xlink:href="#path-3"></use>
            <use fill="#FFFFFF" xlink:href="#path-3"></use>
        </g>
        <circle id="Oval-33" fill="#F1F7F8" fill-rule="nonzero" cx="130" cy="86" r="25"></circle>
        <g id="Oval-33" fill-rule="nonzero">
            <use fill="black" fill-opacity="1" filter="url(#filter-6)" xlink:href="#path-5"></use>
            <use fill="#FFFFFF" xlink:href="#path-5"></use>
        </g>
        <circle id="Oval-33" fill="#F1F7F8" fill-rule="nonzero" cx="96" cy="264" r="25"></circle>
        <g id="Oval-29" fill-rule="nonzero">
            <use fill="black" fill-opacity="1" filter="url(#filter-8)" xlink:href="#path-7"></use>
            <use fill="#365A77" xlink:href="#path-7"></use>
        </g>
        <g id="Oval-29" fill-rule="nonzero">
            <use fill="black" fill-opacity="1" filter="url(#filter-10)" xlink:href="#path-9"></use>
            <use fill="#BADBDD" xlink:href="#path-9"></use>
        </g>
        <rect id="Rectangle-96" fill="#BADBDD" fill-rule="nonzero" x="95" y="247" width="2" height="33" rx="1"></rect>
        <path d="M102.8309,254.451209 C95.9629811,249.409327 89,252.721229 89,257.781429 C89,264.563563 103,260.808832 103,270 C103,276.308474 93.0787247,276.760843 88.0995962,272.217393" id="Path-32" stroke="#BADBDD" stroke-width="2" stroke-linecap="round" fill-rule="nonzero"></path>
        <path d="M137,76.4512094 C130.94555,68.9103895 124.1691,73.7212285 124.1691,78.7814291 C124.1691,85.5635628 136.1691,83.8088317 136.1691,93 C136.1691,99.3084741 127.082584,101.739547 123.268696,95.217393" id="Path-32" stroke="#99BEC0" stroke-width="2" stroke-linecap="round" fill-rule="nonzero" transform="translate(130.134348, 85.807440) scale(-1, 1) translate(-130.134348, -85.807440) "></path>
        <rect id="Rectangle-97" fill="#99BEC0" fill-rule="nonzero" x="119" y="82" width="22" height="2" rx="1"></rect>
        <rect id="Rectangle-97" fill="#99BEC0" fill-rule="nonzero" x="119" y="87" width="22" height="2" rx="1"></rect>
    </g>
</svg>