<svg xmlns="http://www.w3.org/2000/svg" xmlns:xlink="http://www.w3.org/1999/xlink" width="570" height="400" viewBox="0 0 570 400">
  <defs>
    <path id="bo-illustration-contracts-b" d="M10,0 L100,0 L120,20 L220,20 C225.522847,20 230,24.4771525 230,30 L230,280 C230,285.522847 225.522847,290 220,290 L10,290 C4.4771525,290 3.25606345e-14,285.522847 0,280 L0,10 C-6.76353751e-16,4.4771525 4.4771525,1.01453063e-15 10,0 Z"/>
    <filter id="bo-illustration-contracts-a" width="193%" height="173.8%" x="-46.5%" y="-25.9%" filterUnits="objectBoundingBox">
      <feOffset dy="11" in="SourceAlpha" result="shadowOffsetOuter1"/>
      <feGaussianBlur in="shadowOffsetOuter1" result="shadowBlurOuter1" stdDeviation="7.5"/>
      <feColorMatrix in="shadowBlurOuter1" result="shadowMatrixOuter1" values="0 0 0 0 0   0 0 0 0 0   0 0 0 0 0  0 0 0 0.05 0"/>
      <feMorphology in="SourceAlpha" operator="dilate" radius="4" result="shadowSpreadOuter2"/>
      <feOffset dy="5" in="shadowSpreadOuter2" result="shadowOffsetOuter2"/>
      <feGaussianBlur in="shadowOffsetOuter2" result="shadowBlurOuter2" stdDeviation="17.5"/>
      <feColorMatrix in="shadowBlurOuter2" result="shadowMatrixOuter2" values="0 0 0 0 0   0 0 0 0 0   0 0 0 0 0  0 0 0 0.02 0"/>
      <feMorphology in="SourceAlpha" operator="dilate" radius="1.5" result="shadowSpreadOuter3"/>
      <feOffset dy="16" in="shadowSpreadOuter3" result="shadowOffsetOuter3"/>
      <feGaussianBlur in="shadowOffsetOuter3" result="shadowBlurOuter3" stdDeviation="12.5"/>
      <feColorMatrix in="shadowBlurOuter3" result="shadowMatrixOuter3" values="0 0 0 0 0   0 0 0 0 0   0 0 0 0 0  0 0 0 0.05 0"/>
      <feMerge>
        <feMergeNode in="shadowMatrixOuter1"/>
        <feMergeNode in="shadowMatrixOuter2"/>
        <feMergeNode in="shadowMatrixOuter3"/>
      </feMerge>
    </filter>
    <ellipse id="bo-illustration-contracts-d" cx="87.5" cy="328.5" rx="7.5" ry="7.5"/>
    <filter id="bo-illustration-contracts-c" width="1526.7%" height="1526.6%" x="-713.3%" y="-500%" filterUnits="objectBoundingBox">
      <feOffset dy="11" in="SourceAlpha" result="shadowOffsetOuter1"/>
      <feGaussianBlur in="shadowOffsetOuter1" result="shadowBlurOuter1" stdDeviation="7.5"/>
      <feColorMatrix in="shadowBlurOuter1" result="shadowMatrixOuter1" values="0 0 0 0 0   0 0 0 0 0   0 0 0 0 0  0 0 0 0.05 0"/>
      <feMorphology in="SourceAlpha" operator="dilate" radius="4" result="shadowSpreadOuter2"/>
      <feOffset dy="5" in="shadowSpreadOuter2" result="shadowOffsetOuter2"/>
      <feGaussianBlur in="shadowOffsetOuter2" result="shadowBlurOuter2" stdDeviation="17.5"/>
      <feColorMatrix in="shadowBlurOuter2" result="shadowMatrixOuter2" values="0 0 0 0 0   0 0 0 0 0   0 0 0 0 0  0 0 0 0.02 0"/>
      <feMorphology in="SourceAlpha" operator="dilate" radius="1.5" result="shadowSpreadOuter3"/>
      <feOffset dy="16" in="shadowSpreadOuter3" result="shadowOffsetOuter3"/>
      <feGaussianBlur in="shadowOffsetOuter3" result="shadowBlurOuter3" stdDeviation="12.5"/>
      <feColorMatrix in="shadowBlurOuter3" result="shadowMatrixOuter3" values="0 0 0 0 0   0 0 0 0 0   0 0 0 0 0  0 0 0 0.05 0"/>
      <feMerge>
        <feMergeNode in="shadowMatrixOuter1"/>
        <feMergeNode in="shadowMatrixOuter2"/>
        <feMergeNode in="shadowMatrixOuter3"/>
      </feMerge>
    </filter>
    <ellipse id="bo-illustration-contracts-f" cx="225.5" cy="48.501" rx="12.5" ry="12.501"/>
    <filter id="bo-illustration-contracts-e" width="956%" height="956%" x="-428%" y="-300%" filterUnits="objectBoundingBox">
      <feOffset dy="11" in="SourceAlpha" result="shadowOffsetOuter1"/>
      <feGaussianBlur in="shadowOffsetOuter1" result="shadowBlurOuter1" stdDeviation="7.5"/>
      <feColorMatrix in="shadowBlurOuter1" result="shadowMatrixOuter1" values="0 0 0 0 0   0 0 0 0 0   0 0 0 0 0  0 0 0 0.05 0"/>
      <feMorphology in="SourceAlpha" operator="dilate" radius="4" result="shadowSpreadOuter2"/>
      <feOffset dy="5" in="shadowSpreadOuter2" result="shadowOffsetOuter2"/>
      <feGaussianBlur in="shadowOffsetOuter2" result="shadowBlurOuter2" stdDeviation="17.5"/>
      <feColorMatrix in="shadowBlurOuter2" result="shadowMatrixOuter2" values="0 0 0 0 0   0 0 0 0 0   0 0 0 0 0  0 0 0 0.02 0"/>
      <feMorphology in="SourceAlpha" operator="dilate" radius="1.5" result="shadowSpreadOuter3"/>
      <feOffset dy="16" in="shadowSpreadOuter3" result="shadowOffsetOuter3"/>
      <feGaussianBlur in="shadowOffsetOuter3" result="shadowBlurOuter3" stdDeviation="12.5"/>
      <feColorMatrix in="shadowBlurOuter3" result="shadowMatrixOuter3" values="0 0 0 0 0   0 0 0 0 0   0 0 0 0 0  0 0 0 0.05 0"/>
      <feMerge>
        <feMergeNode in="shadowMatrixOuter1"/>
        <feMergeNode in="shadowMatrixOuter2"/>
        <feMergeNode in="shadowMatrixOuter3"/>
      </feMerge>
    </filter>
    <path id="bo-illustration-contracts-h" d="M38,100 C63.3333333,72.2276107 76,51.5609441 76,38 C76,17.6585839 58.9868205,0 38,0 C17.0131795,0 0,17.6585839 0,38 C0,51.5609441 12.6666667,72.2276107 38,100 Z"/>
    <filter id="bo-illustration-contracts-g" width="381.6%" height="317.7%" x="-140.8%" y="-75%" filterUnits="objectBoundingBox">
      <feOffset dy="11" in="SourceAlpha" result="shadowOffsetOuter1"/>
      <feGaussianBlur in="shadowOffsetOuter1" result="shadowBlurOuter1" stdDeviation="7.5"/>
      <feColorMatrix in="shadowBlurOuter1" result="shadowMatrixOuter1" values="0 0 0 0 0   0 0 0 0 0   0 0 0 0 0  0 0 0 0.05 0"/>
      <feMorphology in="SourceAlpha" operator="dilate" radius="4" result="shadowSpreadOuter2"/>
      <feOffset dy="5" in="shadowSpreadOuter2" result="shadowOffsetOuter2"/>
      <feGaussianBlur in="shadowOffsetOuter2" result="shadowBlurOuter2" stdDeviation="17.5"/>
      <feColorMatrix in="shadowBlurOuter2" result="shadowMatrixOuter2" values="0 0 0 0 0   0 0 0 0 0   0 0 0 0 0  0 0 0 0.02 0"/>
      <feMorphology in="SourceAlpha" operator="dilate" radius="1.5" result="shadowSpreadOuter3"/>
      <feOffset dy="16" in="shadowSpreadOuter3" result="shadowOffsetOuter3"/>
      <feGaussianBlur in="shadowOffsetOuter3" result="shadowBlurOuter3" stdDeviation="12.5"/>
      <feColorMatrix in="shadowBlurOuter3" result="shadowMatrixOuter3" values="0 0 0 0 0   0 0 0 0 0   0 0 0 0 0  0 0 0 0.05 0"/>
      <feMerge>
        <feMergeNode in="shadowMatrixOuter1"/>
        <feMergeNode in="shadowMatrixOuter2"/>
        <feMergeNode in="shadowMatrixOuter3"/>
      </feMerge>
    </filter>
    <ellipse id="bo-illustration-contracts-i" cx="25" cy="25.001" rx="25" ry="25.001"/>
    <path id="bo-illustration-contracts-l" d="M38,100 C63.3333333,72.2276107 76,51.5609441 76,38 C76,17.6585839 58.9868205,0 38,0 C17.0131795,0 0,17.6585839 0,38 C0,51.5609441 12.6666667,72.2276107 38,100 Z"/>
    <filter id="bo-illustration-contracts-k" width="381.6%" height="317.7%" x="-140.8%" y="-75%" filterUnits="objectBoundingBox">
      <feOffset dy="11" in="SourceAlpha" result="shadowOffsetOuter1"/>
      <feGaussianBlur in="shadowOffsetOuter1" result="shadowBlurOuter1" stdDeviation="7.5"/>
      <feColorMatrix in="shadowBlurOuter1" result="shadowMatrixOuter1" values="0 0 0 0 0   0 0 0 0 0   0 0 0 0 0  0 0 0 0.05 0"/>
      <feMorphology in="SourceAlpha" operator="dilate" radius="4" result="shadowSpreadOuter2"/>
      <feOffset dy="5" in="shadowSpreadOuter2" result="shadowOffsetOuter2"/>
      <feGaussianBlur in="shadowOffsetOuter2" result="shadowBlurOuter2" stdDeviation="17.5"/>
      <feColorMatrix in="shadowBlurOuter2" result="shadowMatrixOuter2" values="0 0 0 0 0   0 0 0 0 0   0 0 0 0 0  0 0 0 0.02 0"/>
      <feMorphology in="SourceAlpha" operator="dilate" radius="1.5" result="shadowSpreadOuter3"/>
      <feOffset dy="16" in="shadowSpreadOuter3" result="shadowOffsetOuter3"/>
      <feGaussianBlur in="shadowOffsetOuter3" result="shadowBlurOuter3" stdDeviation="12.5"/>
      <feColorMatrix in="shadowBlurOuter3" result="shadowMatrixOuter3" values="0 0 0 0 0   0 0 0 0 0   0 0 0 0 0  0 0 0 0.05 0"/>
      <feMerge>
        <feMergeNode in="shadowMatrixOuter1"/>
        <feMergeNode in="shadowMatrixOuter2"/>
        <feMergeNode in="shadowMatrixOuter3"/>
      </feMerge>
    </filter>
    <ellipse id="bo-illustration-contracts-m" cx="25" cy="25.001" rx="25" ry="25.001"/>
  </defs>
  <g fill="none" fill-rule="evenodd">
    <rect width="570" height="400"/>
    <path fill="#C5DCDE" fill-rule="nonzero" d="M227,350 L227,348 C229.65678,348 232.305229,347.930476 234.943597,347.791899 L235.0485,349.789146 C232.375199,349.929558 229.69177,350 227,350 Z M243.084162,349.153393 L242.873556,347.164513 C245.512835,346.885036 248.138848,346.535881 250.749637,346.11771 L251.065946,348.092539 C248.42007,348.516329 245.75881,348.870171 243.084162,349.153393 Z M258.990116,346.6045 L258.568394,344.649468 C261.161455,344.090115 263.735831,343.461885 266.289381,342.765669 L266.815471,344.695236 C264.22739,345.400867 261.618213,346.03759 258.990116,346.6045 Z M274.530989,342.36696 L273.901902,340.468475 C276.417797,339.634801 278.909264,338.734126 281.374028,337.767596 L282.104175,339.629553 C279.606083,340.609153 277.080919,341.522009 274.530989,342.36696 Z M289.527595,336.485902 L288.698522,334.665837 C291.110049,333.567342 293.491183,332.404601 295.839572,331.179026 L296.764899,332.952093 C294.384875,334.194179 291.971645,335.372593 289.527595,336.485902 Z M303.81661,329.028178 L302.797715,327.307175 C305.077732,325.957324 307.32134,324.546845 309.526178,323.077418 L310.635336,324.741681 C308.400936,326.230809 306.127231,327.660209 303.81661,329.028178 Z M317.215657,320.098723 L316.019581,318.495788 C318.143715,316.910804 320.225507,315.269516 322.26266,313.573848 L323.542156,315.111017 C321.477793,316.829335 319.368185,318.492553 317.215657,320.098723 Z M329.57735,309.811085 L328.218368,308.343717 C330.161701,306.543928 332.057093,304.692859 333.902382,302.792635 L335.337184,304.185956 C333.46728,306.111527 331.546606,307.987287 329.57735,309.811085 Z M340.80172,298.251274 L339.294973,296.936089 C341.037791,294.93942 342.727337,292.896865 344.361636,290.810696 L345.936043,292.044082 C344.279912,294.158119 342.567805,296.22795 340.80172,298.251274 Z M350.750422,285.548957 L349.112476,284.401293 C350.632859,282.231405 352.095251,280.021452 353.497918,277.773787 L355.194635,278.832632 C353.773159,281.110436 352.291169,283.350005 350.750422,285.548957 Z M359.284652,271.870797 L357.533724,270.90423 C358.813981,268.585054 360.032189,266.23181 361.186875,263.846858 L362.986993,264.718394 C361.816749,267.135479 360.582138,269.52041 359.284652,271.870797 Z M366.320064,257.332688 L364.475565,256.559497 C365.499097,254.117795 366.457363,251.648098 367.349163,249.152701 L369.232507,249.825767 C368.328648,252.354907 367.357427,254.857991 366.320064,257.332688 Z M371.737563,242.173309 L369.820779,241.602397 C370.576272,239.065898 371.264173,236.507325 371.883538,233.928852 L373.828222,234.395977 C373.200482,237.009315 372.503277,239.602496 371.737563,242.173309 Z M375.479407,226.620678 L373.512727,226.257127 C373.99355,223.656045 374.405474,221.038515 374.747787,218.40654 L376.731083,218.664486 C376.384171,221.331824 375.966705,223.984568 375.479407,226.620678 Z M377.558021,210.639395 L375.563808,210.487361 C375.764712,207.852121 375.896463,205.205694 375.958548,202.549878 L377.958002,202.596619 C377.895095,205.28758 377.761597,207.969117 377.558021,210.639395 Z M377.935221,194.534273 L375.936064,194.592344 C375.858958,191.937841 375.712204,189.29298 375.496325,186.65957 L377.489638,186.496164 C377.708391,189.16462 377.857093,191.844605 377.935221,194.534273 Z M376.615268,178.46484 L374.633506,178.734318 C374.275757,176.103408 373.848373,173.487245 373.352076,170.887845 L375.31659,170.512765 C375.819573,173.147186 376.25271,175.798562 376.615268,178.46484 Z M373.594329,162.644239 L371.652765,163.124166 C371.01679,160.551297 370.312449,157.998657 369.540699,155.468423 L371.453693,154.884939 C372.235884,157.449405 372.949753,160.036577 373.594329,162.644239 Z M368.899,147.250589 L367.020107,147.93598 C366.111709,145.445751 365.136958,142.981599 364.097073,140.545828 L365.936459,139.760552 C366.990394,142.229232 367.97832,144.72669 368.899,147.250589 Z M362.573725,132.434795 L360.779103,133.317593 C359.609583,130.940102 358.37675,128.594666 357.08209,126.283646 L358.826945,125.306159 C360.139022,127.64827 361.388452,130.025279 362.573725,132.434795 Z M354.688016,118.361218 L352.998006,119.430734 C351.581976,117.193176 350.106533,114.99364 348.573424,112.834473 L350.204154,111.676579 C351.757793,113.864659 353.253003,116.093664 354.688016,118.361218 Z M345.3851,105.256877 L343.817957,106.499481 C342.172016,104.42366 340.471135,102.391738 338.717296,100.405982 L340.216334,99.0820167 C341.993584,101.09428 343.717175,103.153331 345.3851,105.256877 Z M334.724487,93.1867393 L333.297751,94.5883182 C331.440358,92.6975865 329.533091,90.8563661 327.578125,89.0667745 L328.928565,87.5915415 C330.909611,89.405007 332.842319,91.2707874 334.724487,93.1867393 Z M322.826317,82.2968376 L321.556254,83.8418099 C319.509841,82.1595313 317.419165,80.5318573 315.286526,78.9606962 L316.472798,77.3504918 C318.63395,78.9426589 320.752566,80.5920851 322.826317,82.2968376 Z M309.848308,72.7373395 L308.749559,74.4084916 C306.535781,72.952976 304.283589,71.5566487 301.995344,70.2211734 L303.003461,68.4938344 C305.322429,69.8472406 307.604842,71.2623045 309.848308,72.7373395 Z M295.915237,64.6079157 L295.001199,66.3868295 C292.644817,65.1760779 290.256042,64.028381 287.837223,62.9451365 L288.654672,61.1198211 C291.106121,62.2176784 293.527103,63.3808493 295.915237,64.6079157 Z M281.180227,58.0116493 L280.462404,59.8783926 C277.991378,58.9282037 275.494017,58.0440282 272.97259,57.2269941 L273.589104,55.3243877 C276.144643,56.1524753 278.675785,57.0486108 281.180227,58.0116493 Z M265.914968,53.062253 L265.400896,54.9950566 C262.843558,54.3148759 260.265734,53.7027508 257.669554,53.1595573 L258.07914,51.2019469 C260.710389,51.7524776 263.323054,52.3728759 265.914968,53.062253 Z M250.206865,49.7724039 L249.90196,51.7490255 C247.288552,51.3458928 244.660206,51.0118225 242.018871,50.7474661 L242.218045,48.7574083 C244.894753,49.0253051 247.558355,49.3638565 250.206865,49.7724039 Z M234.173684,48.1674206 L234.080235,50.1652362 C231.731963,50.0553942 229.375894,50.0002062 227.01334,50.0000006 C226.707917,50 226.414214,50.0008405 226.119007,50.0025494 L226.10743,48.002583 C226.406518,48.0008515 226.704082,48 227.013429,48.0000006 C229.407176,48.0002089 231.794345,48.0561254 234.173684,48.1674206 Z M218.062943,48.2601226 L218.179491,50.2567238 C215.526678,50.4115776 212.884887,50.6362744 210.25599,50.9302404 L210.033733,48.9426283 C212.697769,48.6447331 215.374809,48.4170382 218.062943,48.2601226 Z M202.054493,50.0510109 L202.382482,52.0239333 C199.763967,52.4592502 197.161688,52.9639894 194.577713,53.5373651 L194.144458,51.5848565 C196.763311,51.0037414 199.400691,50.492194 202.054493,50.0510109 Z M186.313896,53.5449605 L186.851606,55.4713217 C184.299514,56.1836939 181.769239,56.9639322 179.262998,57.8110099 L178.622612,55.9163053 C181.162763,55.0577665 183.727275,54.2669708 186.313896,53.5449605 Z M171.07662,58.6944687 L171.817691,60.5521051 C169.354678,61.5346811 166.91942,62.5829253 164.514246,63.6955426 L163.674551,61.8803531 C166.112188,60.7527185 168.580332,59.6903189 171.07662,58.6944687 Z M156.438637,65.4665976 L157.374543,67.2341041 C155.033777,68.4735556 152.72672,69.7752929 150.455736,71.1377553 L149.426816,69.4227268 C151.728311,68.0419592 154.066383,66.722722 156.438637,65.4665976 Z M142.603188,73.7691498 L143.722412,75.4266588 C141.525658,76.9100063 139.368658,78.4516877 137.25375,80.0498818 L136.047957,78.4542427 C138.191155,76.8346709 140.37702,75.2723583 142.603188,73.7691498 Z M129.791058,83.4472375 L131.07934,84.9770513 C129.052357,86.6840069 127.070883,88.4445665 125.137149,90.256688 L123.76957,88.7973297 C125.729105,86.9610302 127.73702,85.1769769 129.791058,83.4472375 Z M118.03342,94.4660569 L119.476506,95.8507958 C117.642278,97.7623114 115.858994,99.722147 114.128716,101.728089 L112.614276,100.421769 C114.367644,98.3890578 116.174721,96.4030735 118.03342,94.4660569 Z M107.505128,106.673681 L109.086905,107.897601 C107.465978,109.992463 105.900971,112.129972 104.393727,114.307808 L102.74917,113.169637 C104.276586,110.962655 105.862528,108.796552 107.505128,106.673681 Z M98.3328601,119.929548 L100.035833,120.978301 C98.6466059,123.234138 97.317713,125.526726 96.0507452,127.853699 L94.2942277,126.897328 C95.5782294,124.539069 96.924978,122.215677 98.3328601,119.929548 Z M90.6154614,134.109151 L92.4208681,134.969678 C91.2814023,137.360305 90.2058818,139.781624 89.1956278,142.231301 L87.3466873,141.468793 C88.3705843,138.986034 89.4606227,136.532031 90.6154614,134.109151 Z M84.4638654,149.032042 L86.3512613,149.693659 C85.4754665,152.192041 84.6663705,154.715107 83.9250291,157.260621 L82.0048061,156.701385 C82.7561783,154.12143 83.5762219,151.564225 84.4638654,149.032042 Z M79.9911451,164.364741 L81.9382375,164.821722 C81.3336896,167.397566 80.7975814,169.992337 80.3307239,172.603949 L78.3619338,172.252004 C78.8350876,169.60517 79.3784322,166.975375 79.9911451,164.364741 Z M77.1547281,180.23456 L79.1395356,180.480607 C78.8142861,183.104327 78.5581993,185.741511 78.3718702,188.390265 L76.3768005,188.24992 C76.565615,185.565834 76.8251244,182.893405 77.1547281,180.23456 Z M76.0234692,196.310741 L78.0231642,196.345669 C78.0077269,197.229496 78,198.114295 78,199 C78,200.767116 78.0307578,202.530584 78.0921387,204.289894 L76.0933549,204.35963 C76.0311633,202.577086 76,200.790368 76,199 C76,198.102651 76.0078286,197.20621 76.0234692,196.310741 Z M76.586834,212.403819 L78.5791405,212.228562 C78.8119719,214.875381 79.1146599,217.509771 79.4865749,220.129801 L77.5064254,220.410884 C77.1295213,217.755708 76.8227788,215.08603 76.586834,212.403819 Z M78.8492015,228.342129 L80.811509,227.955672 C81.3238717,230.557287 81.9052486,233.141172 82.554791,235.705217 L80.6160333,236.196357 C79.957712,233.597658 79.3684812,230.978866 78.8492015,228.342129 Z M82.8125427,243.978593 L84.7219823,243.38358 C85.5104979,245.913984 86.3663757,248.420939 87.2885156,250.902189 L85.4137964,251.598916 C84.4791838,249.084104 83.6117269,246.543233 82.8125427,243.978593 Z M88.4182101,259.063378 L90.2528708,258.267125 C91.3076917,260.697554 92.4272567,263.098608 93.6101988,265.467944 L91.8208233,266.361328 C90.6219334,263.96005 89.4872666,261.526608 88.4182101,259.063378 Z M95.620991,273.487787 L97.3599039,272.499768 C98.6692976,274.8043 100.040019,277.0734 101.47043,279.304703 L99.7867019,280.384083 C98.3370983,278.122841 96.9479746,275.823277 95.620991,273.487787 Z M104.333835,287.076221 L105.957461,285.908386 C107.504049,288.058586 109.107633,290.167457 110.76633,292.23269 L109.206993,293.485075 C107.52613,291.392244 105.901108,289.25518 104.333835,287.076221 Z M114.379102,299.58816 L115.8703,298.255369 C117.636191,300.231143 119.454275,302.159855 121.322453,304.039314 L119.90399,305.449264 C118.010891,303.544735 116.168554,301.590295 114.379102,299.58816 Z M125.738186,311.015181 L127.079847,309.53196 C129.04476,311.309338 131.056469,313.034322 133.112723,314.704905 L131.851594,316.257178 C129.767884,314.56429 127.729322,312.81628 125.738186,311.015181 Z M138.25716,321.18393 L139.433797,319.566671 C141.576121,321.125318 143.759488,322.626735 145.981557,324.069144 L144.892607,325.746698 C142.640765,324.284962 140.428159,322.763439 138.25716,321.18393 Z M151.782406,329.96165 L152.780104,328.228272 C155.075607,329.549518 157.406171,330.809367 159.769435,332.006303 L158.865777,333.790512 C156.470697,332.577462 154.108776,331.300662 151.782406,329.96165 Z M166.187045,337.254039 L166.993284,335.423745 C169.416589,336.491203 171.868903,337.493863 174.347916,338.430478 L173.641049,340.301398 C171.128529,339.352122 168.643079,338.335915 166.187045,337.254039 Z M181.260527,342.94813 L181.865698,341.041886 C184.388474,341.842785 186.934298,342.576409 189.500972,343.241773 L188.999097,345.17778 C186.397705,344.503416 183.817436,343.759866 181.260527,342.94813 Z M196.73492,346.966027 L197.133666,345.00618 C199.725686,345.533545 202.335074,345.992175 204.959795,346.381321 L204.666477,348.359695 C202.006434,347.965312 199.361892,347.500504 196.73492,346.966027 Z M212.686318,349.330368 L212.873565,347.339153 C215.505259,347.586628 218.148983,347.764917 220.802901,347.873481 L220.721155,349.871809 C218.032004,349.761805 215.353101,349.581143 212.686318,349.330368 Z"/>
    <ellipse cx="76.999" cy="191" fill="#FFF" fill-rule="nonzero" rx="24.999" ry="25"/>
    <path fill="#C5DCDE" fill-rule="nonzero" d="M76.998762,217 C62.6400311,217 51,205.359392 51,191 C51,176.640608 62.6400311,165 76.998762,165 C91.3574929,165 102.997524,176.640608 102.997524,191 C102.997524,205.359392 91.3574929,217 76.998762,217 Z M76.998762,215 C90.2529012,215 100.997524,204.254845 100.997524,191 C100.997524,177.745155 90.2529012,167 76.998762,167 C63.7446228,167 53,177.745155 53,191 C53,204.254845 63.7446228,215 76.998762,215 Z"/>
    <path fill="#C5DCDE" fill-rule="nonzero" d="M77,204.001188 C69.8202872,204.001188 64,198.180613 64,191.000594 C64,183.820575 69.8202872,178 77,178 C84.1797128,178 90,183.820575 90,191.000594 C90,198.180613 84.1797128,204.001188 77,204.001188 Z M77,202.001188 C83.0751212,202.001188 88,197.076066 88,191.000594 C88,184.925123 83.0751212,180 77,180 C70.9248788,180 66,184.925123 66,191.000594 C66,197.076066 70.9248788,202.001188 77,202.001188 Z"/>
    <ellipse cx="177.001" cy="339.001" fill="#FFF" fill-rule="nonzero" rx="25" ry="25.001"/>
    <path fill="#C5DCDE" fill-rule="nonzero" d="M177.000842,365.002476 C162.641427,365.002476 151.000842,353.361314 151.000842,339.001238 C151.000842,324.641162 162.641427,313 177.000842,313 C191.360256,313 203.000842,324.641162 203.000842,339.001238 C203.000842,353.361314 191.360256,365.002476 177.000842,365.002476 Z M177.000842,363.002476 C190.255665,363.002476 201.000842,352.256767 201.000842,339.001238 C201.000842,325.745709 190.255665,315 177.000842,315 C163.746019,315 153.000842,325.745709 153.000842,339.001238 C153.000842,352.256767 163.746019,363.002476 177.000842,363.002476 Z"/>
    <path fill="#C5DCDE" fill-rule="nonzero" d="M177,352.001188 C169.820287,352.001188 164,346.180613 164,339.000594 C164,331.820575 169.820287,326 177,326 C184.179713,326 190,331.820575 190,339.000594 C190,346.180613 184.179713,352.001188 177,352.001188 Z M177,350.001188 C183.075121,350.001188 188,345.076066 188,339.000594 C188,332.925123 183.075121,328 177,328 C170.924879,328 166,332.925123 166,339.000594 C166,345.076066 170.924879,350.001188 177,350.001188 Z"/>
    <g fill-rule="nonzero" transform="translate(297 62)">
      <use fill="#000" filter="url(#bo-illustration-contracts-a)" xlink:href="#bo-illustration-contracts-b"/>
      <use fill="#FFF" xlink:href="#bo-illustration-contracts-b"/>
      <path fill="#F7F7F7" d="M10,-3.37507799e-15 L100,-1.77635684e-15 L120,20 L0,20 L0,10 C-6.76353751e-16,4.4771525 4.4771525,-4.31453989e-15 10,-5.32907052e-15 Z"/>
    </g>
    <g fill-rule="nonzero" transform="translate(267 107)">
      <rect width="180" height="230" fill="#F1F7F8" rx="10"/>
      <rect width="100" height="10" x="15" y="25.002" fill="#BADBDD" rx="5"/>
      <rect width="150" height="10" x="15" y="60" fill="#BADBDD" rx="5"/>
      <rect width="140" height="10" x="15" y="77" fill="#BADBDD" rx="5"/>
      <rect width="145" height="10" x="15" y="94" fill="#BADBDD" rx="5"/>
      <rect width="130" height="10" x="15" y="111" fill="#BADBDD" rx="5"/>
      <rect width="150" height="10" x="15" y="128" fill="#BADBDD" rx="5"/>
      <circle cx="135" cy="185" r="25" stroke="#BADBDD" stroke-width="10"/>
    </g>
    <g fill-rule="nonzero">
      <use fill="#000" filter="url(#bo-illustration-contracts-c)" xlink:href="#bo-illustration-contracts-d"/>
      <use fill="#BADBDD" xlink:href="#bo-illustration-contracts-d"/>
    </g>
    <g fill-rule="nonzero">
      <use fill="#000" filter="url(#bo-illustration-contracts-e)" xlink:href="#bo-illustration-contracts-f"/>
      <use fill="#365A77" xlink:href="#bo-illustration-contracts-f"/>
    </g>
    <g transform="translate(39 91)">
      <g fill-rule="nonzero">
        <use fill="#000" filter="url(#bo-illustration-contracts-g)" xlink:href="#bo-illustration-contracts-h"/>
        <use fill="#FFF" xlink:href="#bo-illustration-contracts-h"/>
      </g>
      <polygon fill="#FFBF00" fill-rule="nonzero" points="38 7.5 36.237 8.427 36.573 6.464 35.147 5.073 37.118 4.786 38 3 38.882 4.786 40.853 5.073 39.427 6.464 39.763 8.427"/>
      <polygon fill="#FFBF00" fill-rule="nonzero" points="48 9.5 46.237 10.427 46.573 8.464 45.147 7.073 47.118 6.786 48 5 48.882 6.786 50.853 7.073 49.427 8.464 49.763 10.427"/>
      <polygon fill="#FFBF00" fill-rule="nonzero" points="28 9.5 26.237 10.427 26.573 8.464 25.147 7.073 27.118 6.786 28 5 28.882 6.786 30.853 7.073 29.427 8.464 29.763 10.427"/>
      <polygon fill="#FFBF00" fill-rule="nonzero" points="57 13.5 55.237 14.427 55.573 12.464 54.147 11.073 56.118 10.786 57 9 57.882 10.786 59.853 11.073 58.427 12.464 58.763 14.427"/>
      <polygon fill="#FFBF00" fill-rule="nonzero" points="19 14.5 17.237 15.427 17.573 13.464 16.147 12.073 18.118 11.786 19 10 19.882 11.786 21.853 12.073 20.427 13.464 20.763 15.427"/>
      <g transform="translate(13 13)">
        <mask id="bo-illustration-contracts-j" fill="#fff">
          <use xlink:href="#bo-illustration-contracts-i"/>
        </mask>
        <use fill="#F1F7F8" fill-rule="nonzero" xlink:href="#bo-illustration-contracts-i"/>
        <g mask="url(#bo-illustration-contracts-j)">
          <g transform="translate(9.98 5.863)">
            <polygon fill="#BADBDD" points="2.02 44.137 28.02 44.137 28.02 11.137 2.02 11.137"/>
            <path fill="#DAF0F1" d="M7.01960784 22.1369151L12.0196078 22.1369151C12.5718926 22.1369151 13.0196078 21.6891998 13.0196078 21.1369151L13.0196078 16.1369151C13.0196078 15.5846303 12.5718926 15.1369151 12.0196078 15.1369151L7.01960784 15.1369151C6.46732309 15.1369151 6.01960784 15.5846303 6.01960784 16.1369151L6.01960784 21.1369151C6.01960784 21.6891998 6.46732309 22.1369151 7.01960784 22.1369151zM18.0196078 22.1369151L23.0196078 22.1369151C23.5718926 22.1369151 24.0196078 21.6891998 24.0196078 21.1369151L24.0196078 16.1369151C24.0196078 15.5846303 23.5718926 15.1369151 23.0196078 15.1369151L18.0196078 15.1369151C17.4673231 15.1369151 17.0196078 15.5846303 17.0196078 16.1369151L17.0196078 21.1369151C17.0196078 21.6891998 17.4673231 22.1369151 18.0196078 22.1369151zM7.01960784 33.1369151L12.0196078 33.1369151C12.5718926 33.1369151 13.0196078 32.6891998 13.0196078 32.1369151L13.0196078 27.1369151C13.0196078 26.5846303 12.5718926 26.1369151 12.0196078 26.1369151L7.01960784 26.1369151C6.46732309 26.1369151 6.01960784 26.5846303 6.01960784 27.1369151L6.01960784 32.1369151C6.01960784 32.6891998 6.46732309 33.1369151 7.01960784 33.1369151zM18.0196078 33.1369151L23.0196078 33.1369151C23.5718926 33.1369151 24.0196078 32.6891998 24.0196078 32.1369151L24.0196078 27.1369151C24.0196078 26.5846303 23.5718926 26.1369151 23.0196078 26.1369151L18.0196078 26.1369151C17.4673231 26.1369151 17.0196078 26.5846303 17.0196078 27.1369151L17.0196078 32.1369151C17.0196078 32.6891998 17.4673231 33.1369151 18.0196078 33.1369151zM7.01960784 44.1369151L12.0196078 44.1369151C12.5718926 44.1369151 13.0196078 43.6891998 13.0196078 43.1369151L13.0196078 38.1369151C13.0196078 37.5846303 12.5718926 37.1369151 12.0196078 37.1369151L7.01960784 37.1369151C6.46732309 37.1369151 6.01960784 37.5846303 6.01960784 38.1369151L6.01960784 43.1369151C6.01960784 43.6891998 6.46732309 44.1369151 7.01960784 44.1369151zM18.0196078 44.1369151L23.0196078 44.1369151C23.5718926 44.1369151 24.0196078 43.6891998 24.0196078 43.1369151L24.0196078 38.1369151C24.0196078 37.5846303 23.5718926 37.1369151 23.0196078 37.1369151L18.0196078 37.1369151C17.4673231 37.1369151 17.0196078 37.5846303 17.0196078 38.1369151L17.0196078 43.1369151C17.0196078 43.6891998 17.4673231 44.1369151 18.0196078 44.1369151z"/>
            <polygon fill="#DAF0F1" points="5.765 55.796 11.529 55.796 11.529 49.971 5.765 49.971"/>
            <path fill="#99BEC0" d="M30.0196078,9.13691508 L30.0196078,9.13691508 C30.0196078,10.2414846 29.1241773,11.1369151 28.0196078,11.1369151 L2.01960784,11.1369151 C0.915038343,11.1369151 0.0196078431,10.2414846 0.0196078431,9.13691508 L0.0196078431,9.13691508 C0.0196078431,8.03234558 0.915038343,7.13691508 2.01960784,7.13691508 L28.0196078,7.13691508 C29.1241773,7.13691508 30.0196078,8.03234558 30.0196078,9.13691508 Z"/>
            <path fill="#BADBDD" d="M7.8767507,0.136915078 L22.162465,0.136915078 C23.7403221,0.136915078 25.0196078,1.39061508 25.0196078,2.93691508 L25.0196078,7.13691508 L5.01960784,7.13691508 L5.01960784,2.93691508 C5.01960784,1.39061508 6.29889356,0.136915078 7.8767507,0.136915078"/>
          </g>
        </g>
      </g>
    </g>
    <g transform="translate(139 239)">
      <g fill-rule="nonzero">
        <use fill="#000" filter="url(#bo-illustration-contracts-k)" xlink:href="#bo-illustration-contracts-l"/>
        <use fill="#FFF" xlink:href="#bo-illustration-contracts-l"/>
      </g>
      <polygon fill="#FFBF00" fill-rule="nonzero" points="38 7.5 36.237 8.427 36.573 6.464 35.147 5.073 37.118 4.786 38 3 38.882 4.786 40.853 5.073 39.427 6.464 39.763 8.427"/>
      <polygon fill="#FFBF00" fill-rule="nonzero" points="48 9.5 46.237 10.427 46.573 8.464 45.147 7.073 47.118 6.786 48 5 48.882 6.786 50.853 7.073 49.427 8.464 49.763 10.427"/>
      <polygon fill="#FFBF00" fill-rule="nonzero" points="28 9.5 26.237 10.427 26.573 8.464 25.147 7.073 27.118 6.786 28 5 28.882 6.786 30.853 7.073 29.427 8.464 29.763 10.427"/>
      <g transform="translate(13 13)">
        <mask id="bo-illustration-contracts-n" fill="#fff">
          <use xlink:href="#bo-illustration-contracts-m"/>
        </mask>
        <use fill="#F1F7F8" fill-rule="nonzero" xlink:href="#bo-illustration-contracts-m"/>
        <g mask="url(#bo-illustration-contracts-n)">
          <g transform="translate(5 14)">
            <polygon fill="#BADBDD" points="2 38 38 38 38 4 2 4"/>
            <path fill="#DAF0F1" d="M6 15L12 15C12.5522847 15 13 14.5522847 13 14L13 8C13 7.44771525 12.5522847 7 12 7L6 7C5.44771525 7 5 7.44771525 5 8L5 14C5 14.5522847 5.44771525 15 6 15zM17 15L23 15C23.5522847 15 24 14.5522847 24 14L24 8C24 7.44771525 23.5522847 7 23 7L17 7C16.4477153 7 16 7.44771525 16 8L16 14C16 14.5522847 16.4477153 15 17 15zM6 26L12 26C12.5522847 26 13 25.5522847 13 25L13 19C13 18.4477153 12.5522847 18 12 18L6 18C5.44771525 18 5 18.4477153 5 19L5 25C5 25.5522847 5.44771525 26 6 26zM17 26L23 26C23.5522847 26 24 25.5522847 24 25L24 19C24 18.4477153 23.5522847 18 23 18L17 18C16.4477153 18 16 18.4477153 16 19L16 25C16 25.5522847 16.4477153 26 17 26zM6 37L12 37C12.5522847 37 13 36.5522847 13 36L13 30C13 29.4477153 12.5522847 29 12 29L6 29C5.44771525 29 5 29.4477153 5 30L5 36C5 36.5522847 5.44771525 37 6 37zM17 37L23 37C23.5522847 37 24 36.5522847 24 36L24 30C24 29.4477153 23.5522847 29 23 29L17 29C16.4477153 29 16 29.4477153 16 30L16 36C16 36.5522847 16.4477153 37 17 37zM28 15L34 15C34.5522847 15 35 14.5522847 35 14L35 8C35 7.44771525 34.5522847 7 34 7L28 7C27.4477153 7 27 7.44771525 27 8L27 14C27 14.5522847 27.4477153 15 28 15zM28 26L34 26C34.5522847 26 35 25.5522847 35 25L35 19C35 18.4477153 34.5522847 18 34 18L28 18C27.4477153 18 27 18.4477153 27 19L27 25C27 25.5522847 27.4477153 26 28 26zM28 37L34 37C34.5522847 37 35 36.5522847 35 36L35 30C35 29.4477153 34.5522847 29 34 29L28 29C27.4477153 29 27 29.4477153 27 30L27 36C27 36.5522847 27.4477153 37 28 37z"/>
            <path fill="#99BEC0" d="M40,2 L40,2 C40,3.1045695 39.1045695,4 38,4 L2,4 C0.8954305,4 1.3527075e-16,3.1045695 0,2 L0,2 C-1.3527075e-16,0.8954305 0.8954305,2.02906125e-16 2,0 L38,0 C39.1045695,-2.02906125e-16 40,0.8954305 40,2 Z"/>
          </g>
        </g>
      </g>
    </g>
    <path fill="#169DA7" fill-rule="nonzero" d="M1.75304952 7.80868809L8 0 14.2469505 7.80868809C15.381754 9.22719248 16 10.9896765 16 12.8062485L16 156C16 158.209139 14.209139 160 12 160L4 160C1.790861 160-1.57166701e-14 158.209139-1.59872116e-14 156L-1.77635684e-14 12.8062485C-1.79860343e-14 10.9896765.618246016 9.22719248 1.75304952 7.80868809zM5 162L11 162 11 166C11 167.656854 9.65685425 169 8 169L8 169C6.34314575 169 5 167.656854 5 166L5 162zM20 148C20 149.104569 19.1045695 150 18 150 16.8954305 150 16 149.104569 16 148L16 137.323905 16.4102253 136.786486C22.8295881 128.376743 26 120.450713 26 113 26 108.084979 24.7223015 102.870793 22.2144571 97.9010198 21.7168376 96.9148917 22.1128521 95.7120766 23.0989802 95.2144571 24.0851083 94.7168376 25.2879234 95.1128521 25.7855429 96.0989802 28.5714107 101.61971 30 107.449669 30 113 30 121.247077 26.6420247 129.80675 20 138.671114L20 148z" transform="translate(472 200)"/>
  </g>
</svg>
