<?xml version="1.0" encoding="UTF-8"?>
<svg width="570px" height="400px" viewBox="0 0 570 400" version="1.1" xmlns="http://www.w3.org/2000/svg" xmlns:xlink="http://www.w3.org/1999/xlink">
    <title>bo-illustration-online</title>
    <defs>
        <rect id="path-1" x="397" y="48" width="70" height="80" rx="10"></rect>
        <filter x="-95.7%" y="-77.5%" width="291.4%" height="268.8%" filterUnits="objectBoundingBox" id="filter-2">
            <feOffset dx="0" dy="11" in="SourceAlpha" result="shadowOffsetOuter1"></feOffset>
            <feGaussianBlur stdDeviation="7.5" in="shadowOffsetOuter1" result="shadowBlurOuter1"></feGaussianBlur>
            <feColorMatrix values="0 0 0 0 0   0 0 0 0 0   0 0 0 0 0  0 0 0 0.05 0" type="matrix" in="shadowBlurOuter1" result="shadowMatrixOuter1"></feColorMatrix>
            <feMorphology radius="4" operator="dilate" in="SourceAlpha" result="shadowSpreadOuter2"></feMorphology>
            <feOffset dx="0" dy="5" in="shadowSpreadOuter2" result="shadowOffsetOuter2"></feOffset>
            <feGaussianBlur stdDeviation="17.5" in="shadowOffsetOuter2" result="shadowBlurOuter2"></feGaussianBlur>
            <feColorMatrix values="0 0 0 0 0   0 0 0 0 0   0 0 0 0 0  0 0 0 0.02 0" type="matrix" in="shadowBlurOuter2" result="shadowMatrixOuter2"></feColorMatrix>
            <feMorphology radius="1.5" operator="dilate" in="SourceAlpha" result="shadowSpreadOuter3"></feMorphology>
            <feOffset dx="0" dy="16" in="shadowSpreadOuter3" result="shadowOffsetOuter3"></feOffset>
            <feGaussianBlur stdDeviation="12.5" in="shadowOffsetOuter3" result="shadowBlurOuter3"></feGaussianBlur>
            <feColorMatrix values="0 0 0 0 0   0 0 0 0 0   0 0 0 0 0  0 0 0 0.05 0" type="matrix" in="shadowBlurOuter3" result="shadowMatrixOuter3"></feColorMatrix>
            <feMerge>
                <feMergeNode in="shadowMatrixOuter1"></feMergeNode>
                <feMergeNode in="shadowMatrixOuter2"></feMergeNode>
                <feMergeNode in="shadowMatrixOuter3"></feMergeNode>
            </feMerge>
        </filter>
        <circle id="path-3" cx="516.5" cy="128.5" r="12.5"></circle>
        <filter x="-268.0%" y="-248.0%" width="636.0%" height="640.0%" filterUnits="objectBoundingBox" id="filter-4">
            <feOffset dx="0" dy="11" in="SourceAlpha" result="shadowOffsetOuter1"></feOffset>
            <feGaussianBlur stdDeviation="7.5" in="shadowOffsetOuter1" result="shadowBlurOuter1"></feGaussianBlur>
            <feColorMatrix values="0 0 0 0 0   0 0 0 0 0   0 0 0 0 0  0 0 0 0.05 0" type="matrix" in="shadowBlurOuter1" result="shadowMatrixOuter1"></feColorMatrix>
            <feMorphology radius="4" operator="dilate" in="SourceAlpha" result="shadowSpreadOuter2"></feMorphology>
            <feOffset dx="0" dy="5" in="shadowSpreadOuter2" result="shadowOffsetOuter2"></feOffset>
            <feGaussianBlur stdDeviation="17.5" in="shadowOffsetOuter2" result="shadowBlurOuter2"></feGaussianBlur>
            <feColorMatrix values="0 0 0 0 0   0 0 0 0 0   0 0 0 0 0  0 0 0 0.02 0" type="matrix" in="shadowBlurOuter2" result="shadowMatrixOuter2"></feColorMatrix>
            <feMorphology radius="1.5" operator="dilate" in="SourceAlpha" result="shadowSpreadOuter3"></feMorphology>
            <feOffset dx="0" dy="16" in="shadowSpreadOuter3" result="shadowOffsetOuter3"></feOffset>
            <feGaussianBlur stdDeviation="12.5" in="shadowOffsetOuter3" result="shadowBlurOuter3"></feGaussianBlur>
            <feColorMatrix values="0 0 0 0 0   0 0 0 0 0   0 0 0 0 0  0 0 0 0.05 0" type="matrix" in="shadowBlurOuter3" result="shadowMatrixOuter3"></feColorMatrix>
            <feMerge>
                <feMergeNode in="shadowMatrixOuter1"></feMergeNode>
                <feMergeNode in="shadowMatrixOuter2"></feMergeNode>
                <feMergeNode in="shadowMatrixOuter3"></feMergeNode>
            </feMerge>
        </filter>
        <path d="M10,0 L280,0 C285.522847,-1.01453063e-15 290,4.4771525 290,10 L290,220 C290,225.522847 285.522847,230 280,230 L10,230 C4.4771525,230 6.76353751e-16,225.522847 0,220 L0,10 C-6.76353751e-16,4.4771525 4.4771525,1.01453063e-15 10,0 Z" id="path-5"></path>
        <filter x="-12.1%" y="-10.9%" width="124.1%" height="130.4%" filterUnits="objectBoundingBox" id="filter-6">
            <feOffset dx="0" dy="10" in="SourceAlpha" result="shadowOffsetOuter1"></feOffset>
            <feGaussianBlur stdDeviation="10" in="shadowOffsetOuter1" result="shadowBlurOuter1"></feGaussianBlur>
            <feColorMatrix values="0 0 0 0 0   0 0 0 0 0   0 0 0 0 0  0 0 0 0.1 0" type="matrix" in="shadowBlurOuter1"></feColorMatrix>
        </filter>
        <ellipse id="path-7" cx="229.5" cy="346.500371" rx="7.5" ry="7.50037138"></ellipse>
        <filter x="-446.7%" y="-413.3%" width="993.3%" height="1000.0%" filterUnits="objectBoundingBox" id="filter-8">
            <feOffset dx="0" dy="11" in="SourceAlpha" result="shadowOffsetOuter1"></feOffset>
            <feGaussianBlur stdDeviation="7.5" in="shadowOffsetOuter1" result="shadowBlurOuter1"></feGaussianBlur>
            <feColorMatrix values="0 0 0 0 0   0 0 0 0 0   0 0 0 0 0  0 0 0 0.05 0" type="matrix" in="shadowBlurOuter1" result="shadowMatrixOuter1"></feColorMatrix>
            <feMorphology radius="4" operator="dilate" in="SourceAlpha" result="shadowSpreadOuter2"></feMorphology>
            <feOffset dx="0" dy="5" in="shadowSpreadOuter2" result="shadowOffsetOuter2"></feOffset>
            <feGaussianBlur stdDeviation="17.5" in="shadowOffsetOuter2" result="shadowBlurOuter2"></feGaussianBlur>
            <feColorMatrix values="0 0 0 0 0   0 0 0 0 0   0 0 0 0 0  0 0 0 0.02 0" type="matrix" in="shadowBlurOuter2" result="shadowMatrixOuter2"></feColorMatrix>
            <feMorphology radius="1.5" operator="dilate" in="SourceAlpha" result="shadowSpreadOuter3"></feMorphology>
            <feOffset dx="0" dy="16" in="shadowSpreadOuter3" result="shadowOffsetOuter3"></feOffset>
            <feGaussianBlur stdDeviation="12.5" in="shadowOffsetOuter3" result="shadowBlurOuter3"></feGaussianBlur>
            <feColorMatrix values="0 0 0 0 0   0 0 0 0 0   0 0 0 0 0  0 0 0 0.05 0" type="matrix" in="shadowBlurOuter3" result="shadowMatrixOuter3"></feColorMatrix>
            <feMerge>
                <feMergeNode in="shadowMatrixOuter1"></feMergeNode>
                <feMergeNode in="shadowMatrixOuter2"></feMergeNode>
                <feMergeNode in="shadowMatrixOuter3"></feMergeNode>
            </feMerge>
        </filter>
        <rect id="path-9" x="0" y="0" width="70" height="80" rx="10"></rect>
        <filter x="-95.7%" y="-77.5%" width="291.4%" height="268.8%" filterUnits="objectBoundingBox" id="filter-10">
            <feOffset dx="0" dy="11" in="SourceAlpha" result="shadowOffsetOuter1"></feOffset>
            <feGaussianBlur stdDeviation="7.5" in="shadowOffsetOuter1" result="shadowBlurOuter1"></feGaussianBlur>
            <feColorMatrix values="0 0 0 0 0   0 0 0 0 0   0 0 0 0 0  0 0 0 0.05 0" type="matrix" in="shadowBlurOuter1" result="shadowMatrixOuter1"></feColorMatrix>
            <feMorphology radius="4" operator="dilate" in="SourceAlpha" result="shadowSpreadOuter2"></feMorphology>
            <feOffset dx="0" dy="5" in="shadowSpreadOuter2" result="shadowOffsetOuter2"></feOffset>
            <feGaussianBlur stdDeviation="17.5" in="shadowOffsetOuter2" result="shadowBlurOuter2"></feGaussianBlur>
            <feColorMatrix values="0 0 0 0 0   0 0 0 0 0   0 0 0 0 0  0 0 0 0.02 0" type="matrix" in="shadowBlurOuter2" result="shadowMatrixOuter2"></feColorMatrix>
            <feMorphology radius="1.5" operator="dilate" in="SourceAlpha" result="shadowSpreadOuter3"></feMorphology>
            <feOffset dx="0" dy="16" in="shadowSpreadOuter3" result="shadowOffsetOuter3"></feOffset>
            <feGaussianBlur stdDeviation="12.5" in="shadowOffsetOuter3" result="shadowBlurOuter3"></feGaussianBlur>
            <feColorMatrix values="0 0 0 0 0   0 0 0 0 0   0 0 0 0 0  0 0 0 0.05 0" type="matrix" in="shadowBlurOuter3" result="shadowMatrixOuter3"></feColorMatrix>
            <feMerge>
                <feMergeNode in="shadowMatrixOuter1"></feMergeNode>
                <feMergeNode in="shadowMatrixOuter2"></feMergeNode>
                <feMergeNode in="shadowMatrixOuter3"></feMergeNode>
            </feMerge>
        </filter>
    </defs>
    <g id="bo-illustration-online" stroke="none" stroke-width="1" fill="none" fill-rule="evenodd">
        <rect id="Rectangle-84" fill-rule="nonzero" x="0" y="0" width="570" height="400"></rect>
        <line x1="449" y1="305" x2="466.507141" y2="322.507141" id="Path-21" stroke="#C5DCDE" stroke-width="2" fill-rule="nonzero"></line>
        <path d="M489.083261,309.083261 L509.083261,309.083261 C513.501539,309.083261 517.083261,312.664983 517.083261,317.083261 L517.083261,393.083261 C517.083261,397.501539 513.501539,401.083261 509.083261,401.083261 L489.083261,401.083261 C484.664983,401.083261 481.083261,397.501539 481.083261,393.083261 L481.083261,317.083261 C481.083261,312.664983 484.664983,309.083261 489.083261,309.083261 Z" id="Rectangle-82" fill="#FFFFFF" fill-rule="nonzero" transform="translate(499.083261, 355.083261) rotate(-45.000000) translate(-499.083261, -355.083261) "></path>
        <path d="M489.083261,310.083261 C485.217268,310.083261 482.083261,313.217268 482.083261,317.083261 L482.083261,393.083261 C482.083261,396.949254 485.217268,400.083261 489.083261,400.083261 L509.083261,400.083261 C512.949254,400.083261 516.083261,396.949254 516.083261,393.083261 L516.083261,317.083261 C516.083261,313.217268 512.949254,310.083261 509.083261,310.083261 L489.083261,310.083261 Z M489.083261,308.083261 L509.083261,308.083261 C514.053824,308.083261 518.083261,312.112698 518.083261,317.083261 L518.083261,393.083261 C518.083261,398.053824 514.053824,402.083261 509.083261,402.083261 L489.083261,402.083261 C484.112698,402.083261 480.083261,398.053824 480.083261,393.083261 L480.083261,317.083261 C480.083261,312.112698 484.112698,308.083261 489.083261,308.083261 Z" id="Rectangle-82" fill="#C5DCDE" fill-rule="nonzero" transform="translate(499.083261, 355.083261) rotate(-45.000000) translate(-499.083261, -355.083261) "></path>
        <path d="M343,350 L343,348 C345.65678,348 348.305229,347.930476 350.943597,347.791899 L351.0485,349.789146 C348.375199,349.929558 345.69177,350 343,350 Z M359.084162,349.153393 L358.873556,347.164513 C361.512835,346.885036 364.138848,346.535881 366.749637,346.11771 L367.065946,348.092539 C364.42007,348.516329 361.75881,348.870171 359.084162,349.153393 Z M374.990116,346.6045 L374.568394,344.649468 C377.161455,344.090115 379.735831,343.461885 382.289381,342.765669 L382.815471,344.695236 C380.22739,345.400867 377.618213,346.03759 374.990116,346.6045 Z M390.530989,342.36696 L389.901902,340.468475 C392.417797,339.634801 394.909264,338.734126 397.374028,337.767596 L398.104175,339.629553 C395.606083,340.609153 393.080919,341.522009 390.530989,342.36696 Z M405.527595,336.485902 L404.698522,334.665837 C407.110049,333.567342 409.491183,332.404601 411.839572,331.179026 L412.764899,332.952093 C410.384875,334.194179 407.971645,335.372593 405.527595,336.485902 Z M419.81661,329.028178 L418.797715,327.307175 C421.077732,325.957324 423.32134,324.546845 425.526178,323.077418 L426.635336,324.741681 C424.400936,326.230809 422.127231,327.660209 419.81661,329.028178 Z M433.215657,320.098723 L432.019581,318.495788 C434.143715,316.910804 436.225507,315.269516 438.26266,313.573848 L439.542156,315.111017 C437.477793,316.829335 435.368185,318.492553 433.215657,320.098723 Z M445.57735,309.811085 L444.218368,308.343717 C446.161701,306.543928 448.057093,304.692859 449.902382,302.792635 L451.337184,304.185956 C449.46728,306.111527 447.546606,307.987287 445.57735,309.811085 Z M456.80172,298.251274 L455.294973,296.936089 C457.037791,294.93942 458.727337,292.896865 460.361636,290.810696 L461.936043,292.044082 C460.279912,294.158119 458.567805,296.22795 456.80172,298.251274 Z M466.750422,285.548957 L465.112476,284.401293 C466.632859,282.231405 468.095251,280.021452 469.497918,277.773787 L471.194635,278.832632 C469.773159,281.110436 468.291169,283.350005 466.750422,285.548957 Z M475.284652,271.870797 L473.533724,270.90423 C474.813981,268.585054 476.032189,266.23181 477.186875,263.846858 L478.986993,264.718394 C477.816749,267.135479 476.582138,269.52041 475.284652,271.870797 Z M482.320064,257.332688 L480.475565,256.559497 C481.499097,254.117795 482.457363,251.648098 483.349163,249.152701 L485.232507,249.825767 C484.328648,252.354907 483.357427,254.857991 482.320064,257.332688 Z M487.737563,242.173309 L485.820779,241.602397 C486.576272,239.065898 487.264173,236.507325 487.883538,233.928852 L489.828222,234.395977 C489.200482,237.009315 488.503277,239.602496 487.737563,242.173309 Z M491.479407,226.620678 L489.512727,226.257127 C489.99355,223.656045 490.405474,221.038515 490.747787,218.40654 L492.731083,218.664486 C492.384171,221.331824 491.966705,223.984568 491.479407,226.620678 Z M493.558021,210.639395 L491.563808,210.487361 C491.764712,207.852121 491.896463,205.205694 491.958548,202.549878 L493.958002,202.596619 C493.895095,205.28758 493.761597,207.969117 493.558021,210.639395 Z M493.935221,194.534273 L491.936064,194.592344 C491.858958,191.937841 491.712204,189.29298 491.496325,186.65957 L493.489638,186.496164 C493.708391,189.16462 493.857093,191.844605 493.935221,194.534273 Z M492.615268,178.46484 L490.633506,178.734318 C490.275757,176.103408 489.848373,173.487245 489.352076,170.887845 L491.31659,170.512765 C491.819573,173.147186 492.25271,175.798562 492.615268,178.46484 Z M489.594329,162.644239 L487.652765,163.124166 C487.01679,160.551297 486.312449,157.998657 485.540699,155.468423 L487.453693,154.884939 C488.235884,157.449405 488.949753,160.036577 489.594329,162.644239 Z M484.899,147.250589 L483.020107,147.93598 C482.111709,145.445751 481.136958,142.981599 480.097073,140.545828 L481.936459,139.760552 C482.990394,142.229232 483.97832,144.72669 484.899,147.250589 Z M478.573725,132.434795 L476.779103,133.317593 C475.609583,130.940102 474.37675,128.594666 473.08209,126.283646 L474.826945,125.306159 C476.139022,127.64827 477.388452,130.025279 478.573725,132.434795 Z M470.688016,118.361218 L468.998006,119.430734 C467.581976,117.193176 466.106533,114.99364 464.573424,112.834473 L466.204154,111.676579 C467.757793,113.864659 469.253003,116.093664 470.688016,118.361218 Z M461.3851,105.256877 L459.817957,106.499481 C458.172016,104.42366 456.471135,102.391738 454.717296,100.405982 L456.216334,99.0820167 C457.993584,101.09428 459.717175,103.153331 461.3851,105.256877 Z M450.724487,93.1867393 L449.297751,94.5883182 C447.440358,92.6975865 445.533091,90.8563661 443.578125,89.0667745 L444.928565,87.5915415 C446.909611,89.405007 448.842319,91.2707874 450.724487,93.1867393 Z M438.826317,82.2968376 L437.556254,83.8418099 C435.509841,82.1595313 433.419165,80.5318573 431.286526,78.9606962 L432.472798,77.3504918 C434.63395,78.9426589 436.752566,80.5920851 438.826317,82.2968376 Z M425.848308,72.7373395 L424.749559,74.4084916 C422.535781,72.952976 420.283589,71.5566487 417.995344,70.2211734 L419.003461,68.4938344 C421.322429,69.8472406 423.604842,71.2623045 425.848308,72.7373395 Z M411.915237,64.6079157 L411.001199,66.3868295 C408.644817,65.1760779 406.256042,64.028381 403.837223,62.9451365 L404.654672,61.1198211 C407.106121,62.2176784 409.527103,63.3808493 411.915237,64.6079157 Z M397.180227,58.0116493 L396.462404,59.8783926 C393.991378,58.9282037 391.494017,58.0440282 388.97259,57.2269941 L389.589104,55.3243877 C392.144643,56.1524753 394.675785,57.0486108 397.180227,58.0116493 Z M381.914968,53.062253 L381.400896,54.9950566 C378.843558,54.3148759 376.265734,53.7027508 373.669554,53.1595573 L374.07914,51.2019469 C376.710389,51.7524776 379.323054,52.3728759 381.914968,53.062253 Z M366.206865,49.7724039 L365.90196,51.7490255 C363.288552,51.3458928 360.660206,51.0118225 358.018871,50.7474661 L358.218045,48.7574083 C360.894753,49.0253051 363.558355,49.3638565 366.206865,49.7724039 Z M350.173684,48.1674206 L350.080235,50.1652362 C347.731963,50.0553942 345.375894,50.0002062 343.01334,50.0000006 C342.707917,50.0000006 342.414214,50.0008405 342.119007,50.0025494 L342.10743,48.002583 C342.406518,48.0008515 342.704082,48.0000006 343.013429,48.0000006 C345.407176,48.0002089 347.794345,48.0561254 350.173684,48.1674206 Z M334.062943,48.2601226 L334.179491,50.2567238 C331.526678,50.4115776 328.884887,50.6362744 326.25599,50.9302404 L326.033733,48.9426283 C328.697769,48.6447331 331.374809,48.4170382 334.062943,48.2601226 Z M318.054493,50.0510109 L318.382482,52.0239333 C315.763967,52.4592502 313.161688,52.9639894 310.577713,53.5373651 L310.144458,51.5848565 C312.763311,51.0037414 315.400691,50.492194 318.054493,50.0510109 Z M302.313896,53.5449605 L302.851606,55.4713217 C300.299514,56.1836939 297.769239,56.9639322 295.262998,57.8110099 L294.622612,55.9163053 C297.162763,55.0577665 299.727275,54.2669708 302.313896,53.5449605 Z M287.07662,58.6944687 L287.817691,60.5521051 C285.354678,61.5346811 282.91942,62.5829253 280.514246,63.6955426 L279.674551,61.8803531 C282.112188,60.7527185 284.580332,59.6903189 287.07662,58.6944687 Z M272.438637,65.4665976 L273.374543,67.2341041 C271.033777,68.4735556 268.72672,69.7752929 266.455736,71.1377553 L265.426816,69.4227268 C267.728311,68.0419592 270.066383,66.722722 272.438637,65.4665976 Z M258.603188,73.7691498 L259.722412,75.4266588 C257.525658,76.9100063 255.368658,78.4516877 253.25375,80.0498818 L252.047957,78.4542427 C254.191155,76.8346709 256.37702,75.2723583 258.603188,73.7691498 Z M245.791058,83.4472375 L247.07934,84.9770513 C245.052357,86.6840069 243.070883,88.4445665 241.137149,90.256688 L239.76957,88.7973297 C241.729105,86.9610302 243.73702,85.1769769 245.791058,83.4472375 Z M234.03342,94.4660569 L235.476506,95.8507958 C233.642278,97.7623114 231.858994,99.722147 230.128716,101.728089 L228.614276,100.421769 C230.367644,98.3890578 232.174721,96.4030735 234.03342,94.4660569 Z M223.505128,106.673681 L225.086905,107.897601 C223.465978,109.992463 221.900971,112.129972 220.393727,114.307808 L218.74917,113.169637 C220.276586,110.962655 221.862528,108.796552 223.505128,106.673681 Z M214.33286,119.929548 L216.035833,120.978301 C214.646606,123.234138 213.317713,125.526726 212.050745,127.853699 L210.294228,126.897328 C211.578229,124.539069 212.924978,122.215677 214.33286,119.929548 Z M206.615461,134.109151 L208.420868,134.969678 C207.281402,137.360305 206.205882,139.781624 205.195628,142.231301 L203.346687,141.468793 C204.370584,138.986034 205.460623,136.532031 206.615461,134.109151 Z M200.463865,149.032042 L202.351261,149.693659 C201.475466,152.192041 200.666371,154.715107 199.925029,157.260621 L198.004806,156.701385 C198.756178,154.12143 199.576222,151.564225 200.463865,149.032042 Z M195.991145,164.364741 L197.938238,164.821722 C197.33369,167.397566 196.797581,169.992337 196.330724,172.603949 L194.361934,172.252004 C194.835088,169.60517 195.378432,166.975375 195.991145,164.364741 Z M193.154728,180.23456 L195.139536,180.480607 C194.814286,183.104327 194.558199,185.741511 194.37187,188.390265 L192.3768,188.24992 C192.565615,185.565834 192.825124,182.893405 193.154728,180.23456 Z M192.023469,196.310741 L194.023164,196.345669 C194.007727,197.229496 194,198.114295 194,199 C194,200.767116 194.030758,202.530584 194.092139,204.289894 L192.093355,204.35963 C192.031163,202.577086 192,200.790368 192,199 C192,198.102651 192.007829,197.20621 192.023469,196.310741 Z M192.586834,212.403819 L194.579141,212.228562 C194.811972,214.875381 195.11466,217.509771 195.486575,220.129801 L193.506425,220.410884 C193.129521,217.755708 192.822779,215.08603 192.586834,212.403819 Z M194.849201,228.342129 L196.811509,227.955672 C197.323872,230.557287 197.905249,233.141172 198.554791,235.705217 L196.616033,236.196357 C195.957712,233.597658 195.368481,230.978866 194.849201,228.342129 Z M198.812543,243.978593 L200.721982,243.38358 C201.510498,245.913984 202.366376,248.420939 203.288516,250.902189 L201.413796,251.598916 C200.479184,249.084104 199.611727,246.543233 198.812543,243.978593 Z M204.41821,259.063378 L206.252871,258.267125 C207.307692,260.697554 208.427257,263.098608 209.610199,265.467944 L207.820823,266.361328 C206.621933,263.96005 205.487267,261.526608 204.41821,259.063378 Z M211.620991,273.487787 L213.359904,272.499768 C214.669298,274.8043 216.040019,277.0734 217.47043,279.304703 L215.786702,280.384083 C214.337098,278.122841 212.947975,275.823277 211.620991,273.487787 Z M220.333835,287.076221 L221.957461,285.908386 C223.504049,288.058586 225.107633,290.167457 226.76633,292.23269 L225.206993,293.485075 C223.52613,291.392244 221.901108,289.25518 220.333835,287.076221 Z M230.379102,299.58816 L231.8703,298.255369 C233.636191,300.231143 235.454275,302.159855 237.322453,304.039314 L235.90399,305.449264 C234.010891,303.544735 232.168554,301.590295 230.379102,299.58816 Z M241.738186,311.015181 L243.079847,309.53196 C245.04476,311.309338 247.056469,313.034322 249.112723,314.704905 L247.851594,316.257178 C245.767884,314.56429 243.729322,312.81628 241.738186,311.015181 Z M254.25716,321.18393 L255.433797,319.566671 C257.576121,321.125318 259.759488,322.626735 261.981557,324.069144 L260.892607,325.746698 C258.640765,324.284962 256.428159,322.763439 254.25716,321.18393 Z M267.782406,329.96165 L268.780104,328.228272 C271.075607,329.549518 273.406171,330.809367 275.769435,332.006303 L274.865777,333.790512 C272.470697,332.577462 270.108776,331.300662 267.782406,329.96165 Z M282.187045,337.254039 L282.993284,335.423745 C285.416589,336.491203 287.868903,337.493863 290.347916,338.430478 L289.641049,340.301398 C287.128529,339.352122 284.643079,338.335915 282.187045,337.254039 Z M297.260527,342.94813 L297.865698,341.041886 C300.388474,341.842785 302.934298,342.576409 305.500972,343.241773 L304.999097,345.17778 C302.397705,344.503416 299.817436,343.759866 297.260527,342.94813 Z M312.73492,346.966027 L313.133666,345.00618 C315.725686,345.533545 318.335074,345.992175 320.959795,346.381321 L320.666477,348.359695 C318.006434,347.965312 315.361892,347.500504 312.73492,346.966027 Z M328.686318,349.330368 L328.873565,347.339153 C331.505259,347.586628 334.148983,347.764917 336.802901,347.873481 L336.721155,349.871809 C334.032004,349.761805 331.353101,349.581143 328.686318,349.330368 Z" id="Oval-24" fill="#C5DCDE" fill-rule="nonzero"></path>
        <g id="Rectangle-51" fill-rule="nonzero">
            <use fill="black" fill-opacity="1" filter="url(#filter-2)" xlink:href="#path-1"></use>
            <use fill="#FFFFFF" xlink:href="#path-1"></use>
        </g>
        <rect id="Rectangle-51" fill="#F1F7F8" fill-rule="nonzero" x="407" y="58" width="50" height="50" rx="6"></rect>
        <g id="Oval-29" fill-rule="nonzero">
            <use fill="black" fill-opacity="1" filter="url(#filter-4)" xlink:href="#path-3"></use>
            <use fill="#365A77" xlink:href="#path-3"></use>
        </g>
        <g id="Group" transform="translate(43.000000, 54.000000)" fill-rule="nonzero">
            <g id="Rectangle-50">
                <use fill="black" fill-opacity="1" filter="url(#filter-6)" xlink:href="#path-5"></use>
                <use fill="#FFFFFF" xlink:href="#path-5"></use>
            </g>
            <rect id="Rectangle-51" fill="#F1F7F8" x="90" y="35" width="185" height="85" rx="8"></rect>
            <rect id="Rectangle-51" fill="#F7F7F7" x="15" y="35" width="60" height="160" rx="8"></rect>
            <path d="M10,0 L280,0 C285.522847,-1.01453063e-15 290,4.4771525 290,10 L290,20 L290,20 L0,20 L0,10 C-6.76353751e-16,4.4771525 4.4771525,1.01453063e-15 10,0 Z" id="Rectangle-51" fill="#F7F7F7"></path>
            <path d="M160,45 L220,45 C222.761424,45 225,47.2385763 225,50 C225,52.7614237 222.761424,55 220,55 L160,55 C157.238576,55 155,52.7614237 155,50 C155,47.2385763 157.238576,45 160,45 Z" id="Rectangle-51" fill="#BADBDD"></path>
            <rect id="Rectangle-51" fill="#FFBF00" x="230" y="100" width="35" height="10" rx="5"></rect>
            <rect id="Rectangle-51" fill="#BADBDD" x="155" y="62" width="105" height="6" rx="3"></rect>
            <rect id="Rectangle-51" fill="#BADBDD" x="155" y="75" width="100" height="6" rx="3"></rect>
            <rect id="Rectangle-51" fill="#F1F7F8" x="90" y="130" width="185" height="85" rx="8"></rect>
            <path d="M95,225 L270,225 C272.761424,225 275,227.238576 275,230 L275,230 L275,230 L90,230 C90,227.238576 92.2385763,225 95,225 Z" id="Rectangle-51" fill="#F1F7F8"></path>
            <path d="M160,142 L220,142 C222.761424,142 225,144.238576 225,147 C225,149.761424 222.761424,152 220,152 L160,152 C157.238576,152 155,149.761424 155,147 C155,144.238576 157.238576,142 160,142 Z" id="Rectangle-51" fill="#BADBDD"></path>
            <rect id="Rectangle-51" fill="#BADBDD" x="230" y="195" width="35" height="10" rx="5"></rect>
            <rect id="Rectangle-51" fill="#BADBDD" x="155" y="159" width="105" height="6" rx="3"></rect>
            <rect id="Rectangle-51" fill="#BADBDD" x="155" y="172" width="100" height="6" rx="3"></rect>
            <path d="M106,45 L139,45 C142.313708,45 145,47.6862915 145,51 L145,84 C145,87.3137085 142.313708,90 139,90 L106,90 C102.686292,90 100,87.3137085 100,84 L100,51 C100,47.6862915 102.686292,45 106,45 Z" id="Rectangle-52" fill="#BADBDD"></path>
            <path d="M106,140 L139,140 C142.313708,140 145,142.686292 145,146 L145,179 C145,182.313708 142.313708,185 139,185 L106,185 C102.686292,185 100,182.313708 100,179 L100,146 C100,142.686292 102.686292,140 106,140 Z" id="Rectangle-52" fill="#BADBDD"></path>
            <circle id="Combined-Shape" fill="#F1F7F8" cx="143.5" cy="88.5" r="9.5"></circle>
            <circle id="Combined-Shape" fill="#169DA7" cx="143.5" cy="88.5" r="7.5"></circle>
            <circle id="Combined-Shape" fill="#BADBDD" cx="13" cy="10" r="4"></circle>
            <circle id="Combined-Shape" fill="#BADBDD" cx="26" cy="10" r="4"></circle>
            <circle id="Combined-Shape" fill="#BADBDD" cx="39" cy="10" r="4"></circle>
            <circle id="Combined-Shape" fill="#F1F7F8" cx="143.5" cy="183.5" r="9.5"></circle>
            <circle id="Combined-Shape" fill="#169DA7" cx="143.5" cy="183.5" r="7.5"></circle>
        </g>
        <g id="Oval-29" fill-rule="nonzero">
            <use fill="black" fill-opacity="1" filter="url(#filter-8)" xlink:href="#path-7"></use>
            <use fill="#BADBDD" xlink:href="#path-7"></use>
        </g>
        <path d="M444.6,84 L444.6,96.6 L444.6,100.2 L442.8,100.2 L442.8,96.6 L421.2,96.6 L421.2,100.2 L419.4,100.2 L419.4,96.6 L419.4,84 C419.4,82.02 421.02,80.4 423,80.4 L424.8,80.4 L424.8,82.2 L439.2,82.2 L439.2,80.4 L441,80.4 C442.98,80.4 444.6,82.02 444.6,84 L444.6,84 Z" id="Path" fill="#BADBDD"></path>
        <polygon id="Path" fill="#99BEC0" points="421.2 94.8 442.8 94.8 442.8 93 421.2 93"></polygon>
        <path d="M424.8,78.6 L421.2,78.6 L421.2,69.6 C421.2,67.62 422.82,66 424.8,66 L439.2,66 C441.18,66 442.8,67.62 442.8,69.6 L442.8,78.6 L439.2,78.6 L439.2,75 C439.2,73.92 438.48,73.2 437.4,73.2 L426.6,73.2 C425.52,73.2 424.8,73.92 424.8,75 L424.8,78.6 Z" id="Path" fill="#BADBDD"></path>
        <g id="Group-2" transform="translate(435.000000, 223.000000)">
            <g id="Rectangle-51" fill-rule="nonzero">
                <use fill="black" fill-opacity="1" filter="url(#filter-10)" xlink:href="#path-9"></use>
                <use fill="#FFFFFF" xlink:href="#path-9"></use>
            </g>
            <rect id="Rectangle-51" fill="#F1F7F8" fill-rule="nonzero" x="10" y="10" width="50" height="50" rx="6"></rect>
            <path d="M49.4,32.4 L47.6,32.4 L47.6,34.2 L36.8,34.2 L36.8,32.4 L33.2,32.4 L33.2,34.2 L22.4,34.2 L22.4,32.4 L20.6,32.4 C18.62,32.4 17,34.02 17,36 L17,48.6 L17,52.2 L18.8,52.2 L18.8,48.6 L51.2,48.6 L51.2,52.2 L53,52.2 L53,48.6 L53,36 C53,34.02 51.38,32.4 49.4,32.4 L49.4,32.4 Z" id="Path" fill="#BADBDD"></path>
            <polygon id="Path" fill="#99BEC0" points="18.8 46.8 51.2 46.8 51.2 45 18.8 45"></polygon>
            <path d="M22.4,30.6 L18.8,30.6 L18.8,21.6 C18.8,19.62 20.42,18 22.4,18 L47.6,18 C49.58,18 51.2,19.62 51.2,21.6 L51.2,30.6 L47.6,30.6 L47.6,27 C47.6,25.92 46.88,25.2 45.8,25.2 L38.6,25.2 C37.52,25.2 36.8,25.92 36.8,27 L36.8,30.6 L33.2,30.6 L33.2,27 C33.2,25.92 32.48,25.2 31.4,25.2 L24.2,25.2 C23.12,25.2 22.4,25.92 22.4,27 L22.4,30.6 Z" id="Path" fill="#BADBDD"></path>
        </g>
    </g>
</svg>