<svg xmlns="http://www.w3.org/2000/svg" xmlns:xlink="http://www.w3.org/1999/xlink" width="570" height="400" viewBox="0 0 570 400">
  <defs>
    <rect id="bo-illustration-online-b" width="70" height="80" x="397" y="48" rx="10"/>
    <filter id="bo-illustration-online-a" width="405.7%" height="367.5%" x="-152.9%" y="-93.8%" filterUnits="objectBoundingBox">
      <feOffset dy="11" in="SourceAlpha" result="shadowOffsetOuter1"/>
      <feGaussianBlur in="shadowOffsetOuter1" result="shadowBlurOuter1" stdDeviation="7.5"/>
      <feColorMatrix in="shadowBlurOuter1" result="shadowMatrixOuter1" values="0 0 0 0 0   0 0 0 0 0   0 0 0 0 0  0 0 0 0.05 0"/>
      <feMorphology in="SourceAlpha" operator="dilate" radius="4" result="shadowSpreadOuter2"/>
      <feOffset dy="5" in="shadowSpreadOuter2" result="shadowOffsetOuter2"/>
      <feGaussianBlur in="shadowOffsetOuter2" result="shadowBlurOuter2" stdDeviation="17.5"/>
      <feColorMatrix in="shadowBlurOuter2" result="shadowMatrixOuter2" values="0 0 0 0 0   0 0 0 0 0   0 0 0 0 0  0 0 0 0.02 0"/>
      <feMorphology in="SourceAlpha" operator="dilate" radius="1.5" result="shadowSpreadOuter3"/>
      <feOffset dy="16" in="shadowSpreadOuter3" result="shadowOffsetOuter3"/>
      <feGaussianBlur in="shadowOffsetOuter3" result="shadowBlurOuter3" stdDeviation="12.5"/>
      <feColorMatrix in="shadowBlurOuter3" result="shadowMatrixOuter3" values="0 0 0 0 0   0 0 0 0 0   0 0 0 0 0  0 0 0 0.05 0"/>
      <feMerge>
        <feMergeNode in="shadowMatrixOuter1"/>
        <feMergeNode in="shadowMatrixOuter2"/>
        <feMergeNode in="shadowMatrixOuter3"/>
      </feMerge>
    </filter>
    <circle id="bo-illustration-online-d" cx="535.5" cy="128.5" r="12.5"/>
    <filter id="bo-illustration-online-c" width="956%" height="956%" x="-428%" y="-300%" filterUnits="objectBoundingBox">
      <feOffset dy="11" in="SourceAlpha" result="shadowOffsetOuter1"/>
      <feGaussianBlur in="shadowOffsetOuter1" result="shadowBlurOuter1" stdDeviation="7.5"/>
      <feColorMatrix in="shadowBlurOuter1" result="shadowMatrixOuter1" values="0 0 0 0 0   0 0 0 0 0   0 0 0 0 0  0 0 0 0.05 0"/>
      <feMorphology in="SourceAlpha" operator="dilate" radius="4" result="shadowSpreadOuter2"/>
      <feOffset dy="5" in="shadowSpreadOuter2" result="shadowOffsetOuter2"/>
      <feGaussianBlur in="shadowOffsetOuter2" result="shadowBlurOuter2" stdDeviation="17.5"/>
      <feColorMatrix in="shadowBlurOuter2" result="shadowMatrixOuter2" values="0 0 0 0 0   0 0 0 0 0   0 0 0 0 0  0 0 0 0.02 0"/>
      <feMorphology in="SourceAlpha" operator="dilate" radius="1.5" result="shadowSpreadOuter3"/>
      <feOffset dy="16" in="shadowSpreadOuter3" result="shadowOffsetOuter3"/>
      <feGaussianBlur in="shadowOffsetOuter3" result="shadowBlurOuter3" stdDeviation="12.5"/>
      <feColorMatrix in="shadowBlurOuter3" result="shadowMatrixOuter3" values="0 0 0 0 0   0 0 0 0 0   0 0 0 0 0  0 0 0 0.05 0"/>
      <feMerge>
        <feMergeNode in="shadowMatrixOuter1"/>
        <feMergeNode in="shadowMatrixOuter2"/>
        <feMergeNode in="shadowMatrixOuter3"/>
      </feMerge>
    </filter>
    <rect id="bo-illustration-online-f" width="290" height="230" rx="10"/>
    <filter id="bo-illustration-online-e" width="124.1%" height="130.4%" x="-12.1%" y="-10.9%" filterUnits="objectBoundingBox">
      <feOffset dy="10" in="SourceAlpha" result="shadowOffsetOuter1"/>
      <feGaussianBlur in="shadowOffsetOuter1" result="shadowBlurOuter1" stdDeviation="10"/>
      <feColorMatrix in="shadowBlurOuter1" values="0 0 0 0 0   0 0 0 0 0   0 0 0 0 0  0 0 0 0.1 0"/>
    </filter>
    <ellipse id="bo-illustration-online-h" cx="229.5" cy="350.5" rx="7.5" ry="7.5"/>
    <filter id="bo-illustration-online-g" width="1526.7%" height="1526.6%" x="-713.3%" y="-500%" filterUnits="objectBoundingBox">
      <feOffset dy="11" in="SourceAlpha" result="shadowOffsetOuter1"/>
      <feGaussianBlur in="shadowOffsetOuter1" result="shadowBlurOuter1" stdDeviation="7.5"/>
      <feColorMatrix in="shadowBlurOuter1" result="shadowMatrixOuter1" values="0 0 0 0 0   0 0 0 0 0   0 0 0 0 0  0 0 0 0.05 0"/>
      <feMorphology in="SourceAlpha" operator="dilate" radius="4" result="shadowSpreadOuter2"/>
      <feOffset dy="5" in="shadowSpreadOuter2" result="shadowOffsetOuter2"/>
      <feGaussianBlur in="shadowOffsetOuter2" result="shadowBlurOuter2" stdDeviation="17.5"/>
      <feColorMatrix in="shadowBlurOuter2" result="shadowMatrixOuter2" values="0 0 0 0 0   0 0 0 0 0   0 0 0 0 0  0 0 0 0.02 0"/>
      <feMorphology in="SourceAlpha" operator="dilate" radius="1.5" result="shadowSpreadOuter3"/>
      <feOffset dy="16" in="shadowSpreadOuter3" result="shadowOffsetOuter3"/>
      <feGaussianBlur in="shadowOffsetOuter3" result="shadowBlurOuter3" stdDeviation="12.5"/>
      <feColorMatrix in="shadowBlurOuter3" result="shadowMatrixOuter3" values="0 0 0 0 0   0 0 0 0 0   0 0 0 0 0  0 0 0 0.05 0"/>
      <feMerge>
        <feMergeNode in="shadowMatrixOuter1"/>
        <feMergeNode in="shadowMatrixOuter2"/>
        <feMergeNode in="shadowMatrixOuter3"/>
      </feMerge>
    </filter>
    <rect id="bo-illustration-online-j" width="70" height="80" rx="10"/>
    <filter id="bo-illustration-online-i" width="405.7%" height="367.5%" x="-152.9%" y="-93.8%" filterUnits="objectBoundingBox">
      <feOffset dy="11" in="SourceAlpha" result="shadowOffsetOuter1"/>
      <feGaussianBlur in="shadowOffsetOuter1" result="shadowBlurOuter1" stdDeviation="7.5"/>
      <feColorMatrix in="shadowBlurOuter1" result="shadowMatrixOuter1" values="0 0 0 0 0   0 0 0 0 0   0 0 0 0 0  0 0 0 0.05 0"/>
      <feMorphology in="SourceAlpha" operator="dilate" radius="4" result="shadowSpreadOuter2"/>
      <feOffset dy="5" in="shadowSpreadOuter2" result="shadowOffsetOuter2"/>
      <feGaussianBlur in="shadowOffsetOuter2" result="shadowBlurOuter2" stdDeviation="17.5"/>
      <feColorMatrix in="shadowBlurOuter2" result="shadowMatrixOuter2" values="0 0 0 0 0   0 0 0 0 0   0 0 0 0 0  0 0 0 0.02 0"/>
      <feMorphology in="SourceAlpha" operator="dilate" radius="1.5" result="shadowSpreadOuter3"/>
      <feOffset dy="16" in="shadowSpreadOuter3" result="shadowOffsetOuter3"/>
      <feGaussianBlur in="shadowOffsetOuter3" result="shadowBlurOuter3" stdDeviation="12.5"/>
      <feColorMatrix in="shadowBlurOuter3" result="shadowMatrixOuter3" values="0 0 0 0 0   0 0 0 0 0   0 0 0 0 0  0 0 0 0.05 0"/>
      <feMerge>
        <feMergeNode in="shadowMatrixOuter1"/>
        <feMergeNode in="shadowMatrixOuter2"/>
        <feMergeNode in="shadowMatrixOuter3"/>
      </feMerge>
    </filter>
  </defs>
  <g fill="none" fill-rule="evenodd">
    <path stroke="#C5DCDE" stroke-width="2" d="M449,305 L466.507141,322.507141"/>
    <rect width="36" height="92" x="481.083" y="309.083" fill="#FFF" fill-rule="nonzero" rx="8" transform="rotate(-45 499.083 355.083)"/>
    <path fill="#C5DCDE" fill-rule="nonzero" d="M489.083261,310.083261 C485.217268,310.083261 482.083261,313.217268 482.083261,317.083261 L482.083261,393.083261 C482.083261,396.949254 485.217268,400.083261 489.083261,400.083261 L509.083261,400.083261 C512.949254,400.083261 516.083261,396.949254 516.083261,393.083261 L516.083261,317.083261 C516.083261,313.217268 512.949254,310.083261 509.083261,310.083261 L489.083261,310.083261 Z M489.083261,308.083261 L509.083261,308.083261 C514.053824,308.083261 518.083261,312.112698 518.083261,317.083261 L518.083261,393.083261 C518.083261,398.053824 514.053824,402.083261 509.083261,402.083261 L489.083261,402.083261 C484.112698,402.083261 480.083261,398.053824 480.083261,393.083261 L480.083261,317.083261 C480.083261,312.112698 484.112698,308.083261 489.083261,308.083261 Z" transform="rotate(-45 499.083 355.083)"/>
    <path fill="#C5DCDE" fill-rule="nonzero" d="M343,350 L343,348 C345.65678,348 348.305229,347.930476 350.943597,347.791899 L351.0485,349.789146 C348.375199,349.929558 345.69177,350 343,350 Z M359.084162,349.153393 L358.873556,347.164513 C361.512835,346.885036 364.138848,346.535881 366.749637,346.11771 L367.065946,348.092539 C364.42007,348.516329 361.75881,348.870171 359.084162,349.153393 Z M374.990116,346.6045 L374.568394,344.649468 C377.161455,344.090115 379.735831,343.461885 382.289381,342.765669 L382.815471,344.695236 C380.22739,345.400867 377.618213,346.03759 374.990116,346.6045 Z M390.530989,342.36696 L389.901902,340.468475 C392.417797,339.634801 394.909264,338.734126 397.374028,337.767596 L398.104175,339.629553 C395.606083,340.609153 393.080919,341.522009 390.530989,342.36696 Z M405.527595,336.485902 L404.698522,334.665837 C407.110049,333.567342 409.491183,332.404601 411.839572,331.179026 L412.764899,332.952093 C410.384875,334.194179 407.971645,335.372593 405.527595,336.485902 Z M419.81661,329.028178 L418.797715,327.307175 C421.077732,325.957324 423.32134,324.546845 425.526178,323.077418 L426.635336,324.741681 C424.400936,326.230809 422.127231,327.660209 419.81661,329.028178 Z M433.215657,320.098723 L432.019581,318.495788 C434.143715,316.910804 436.225507,315.269516 438.26266,313.573848 L439.542156,315.111017 C437.477793,316.829335 435.368185,318.492553 433.215657,320.098723 Z M445.57735,309.811085 L444.218368,308.343717 C446.161701,306.543928 448.057093,304.692859 449.902382,302.792635 L451.337184,304.185956 C449.46728,306.111527 447.546606,307.987287 445.57735,309.811085 Z M456.80172,298.251274 L455.294973,296.936089 C457.037791,294.93942 458.727337,292.896865 460.361636,290.810696 L461.936043,292.044082 C460.279912,294.158119 458.567805,296.22795 456.80172,298.251274 Z M466.750422,285.548957 L465.112476,284.401293 C466.632859,282.231405 468.095251,280.021452 469.497918,277.773787 L471.194635,278.832632 C469.773159,281.110436 468.291169,283.350005 466.750422,285.548957 Z M475.284652,271.870797 L473.533724,270.90423 C474.813981,268.585054 476.032189,266.23181 477.186875,263.846858 L478.986993,264.718394 C477.816749,267.135479 476.582138,269.52041 475.284652,271.870797 Z M482.320064,257.332688 L480.475565,256.559497 C481.499097,254.117795 482.457363,251.648098 483.349163,249.152701 L485.232507,249.825767 C484.328648,252.354907 483.357427,254.857991 482.320064,257.332688 Z M487.737563,242.173309 L485.820779,241.602397 C486.576272,239.065898 487.264173,236.507325 487.883538,233.928852 L489.828222,234.395977 C489.200482,237.009315 488.503277,239.602496 487.737563,242.173309 Z M491.479407,226.620678 L489.512727,226.257127 C489.99355,223.656045 490.405474,221.038515 490.747787,218.40654 L492.731083,218.664486 C492.384171,221.331824 491.966705,223.984568 491.479407,226.620678 Z M493.558021,210.639395 L491.563808,210.487361 C491.764712,207.852121 491.896463,205.205694 491.958548,202.549878 L493.958002,202.596619 C493.895095,205.28758 493.761597,207.969117 493.558021,210.639395 Z M493.935221,194.534273 L491.936064,194.592344 C491.858958,191.937841 491.712204,189.29298 491.496325,186.65957 L493.489638,186.496164 C493.708391,189.16462 493.857093,191.844605 493.935221,194.534273 Z M492.615268,178.46484 L490.633506,178.734318 C490.275757,176.103408 489.848373,173.487245 489.352076,170.887845 L491.31659,170.512765 C491.819573,173.147186 492.25271,175.798562 492.615268,178.46484 Z M489.594329,162.644239 L487.652765,163.124166 C487.01679,160.551297 486.312449,157.998657 485.540699,155.468423 L487.453693,154.884939 C488.235884,157.449405 488.949753,160.036577 489.594329,162.644239 Z M484.899,147.250589 L483.020107,147.93598 C482.111709,145.445751 481.136958,142.981599 480.097073,140.545828 L481.936459,139.760552 C482.990394,142.229232 483.97832,144.72669 484.899,147.250589 Z M478.573725,132.434795 L476.779103,133.317593 C475.609583,130.940102 474.37675,128.594666 473.08209,126.283646 L474.826945,125.306159 C476.139022,127.64827 477.388452,130.025279 478.573725,132.434795 Z M470.688016,118.361218 L468.998006,119.430734 C467.581976,117.193176 466.106533,114.99364 464.573424,112.834473 L466.204154,111.676579 C467.757793,113.864659 469.253003,116.093664 470.688016,118.361218 Z M461.3851,105.256877 L459.817957,106.499481 C458.172016,104.42366 456.471135,102.391738 454.717296,100.405982 L456.216334,99.0820167 C457.993584,101.09428 459.717175,103.153331 461.3851,105.256877 Z M450.724487,93.1867393 L449.297751,94.5883182 C447.440358,92.6975865 445.533091,90.8563661 443.578125,89.0667745 L444.928565,87.5915415 C446.909611,89.405007 448.842319,91.2707874 450.724487,93.1867393 Z M438.826317,82.2968376 L437.556254,83.8418099 C435.509841,82.1595313 433.419165,80.5318573 431.286526,78.9606962 L432.472798,77.3504918 C434.63395,78.9426589 436.752566,80.5920851 438.826317,82.2968376 Z M425.848308,72.7373395 L424.749559,74.4084916 C422.535781,72.952976 420.283589,71.5566487 417.995344,70.2211734 L419.003461,68.4938344 C421.322429,69.8472406 423.604842,71.2623045 425.848308,72.7373395 Z M411.915237,64.6079157 L411.001199,66.3868295 C408.644817,65.1760779 406.256042,64.028381 403.837223,62.9451365 L404.654672,61.1198211 C407.106121,62.2176784 409.527103,63.3808493 411.915237,64.6079157 Z M397.180227,58.0116493 L396.462404,59.8783926 C393.991378,58.9282037 391.494017,58.0440282 388.97259,57.2269941 L389.589104,55.3243877 C392.144643,56.1524753 394.675785,57.0486108 397.180227,58.0116493 Z M381.914968,53.062253 L381.400896,54.9950566 C378.843558,54.3148759 376.265734,53.7027508 373.669554,53.1595573 L374.07914,51.2019469 C376.710389,51.7524776 379.323054,52.3728759 381.914968,53.062253 Z M366.206865,49.7724039 L365.90196,51.7490255 C363.288552,51.3458928 360.660206,51.0118225 358.018871,50.7474661 L358.218045,48.7574083 C360.894753,49.0253051 363.558355,49.3638565 366.206865,49.7724039 Z M350.173684,48.1674206 L350.080235,50.1652362 C347.731963,50.0553942 345.375894,50.0002062 343.01334,50.0000006 C342.707917,50 342.414214,50.0008405 342.119007,50.0025494 L342.10743,48.002583 C342.406518,48.0008515 342.704082,48 343.013429,48.0000006 C345.407176,48.0002089 347.794345,48.0561254 350.173684,48.1674206 Z M334.062943,48.2601226 L334.179491,50.2567238 C331.526678,50.4115776 328.884887,50.6362744 326.25599,50.9302404 L326.033733,48.9426283 C328.697769,48.6447331 331.374809,48.4170382 334.062943,48.2601226 Z M318.054493,50.0510109 L318.382482,52.0239333 C315.763967,52.4592502 313.161688,52.9639894 310.577713,53.5373651 L310.144458,51.5848565 C312.763311,51.0037414 315.400691,50.492194 318.054493,50.0510109 Z M302.313896,53.5449605 L302.851606,55.4713217 C300.299514,56.1836939 297.769239,56.9639322 295.262998,57.8110099 L294.622612,55.9163053 C297.162763,55.0577665 299.727275,54.2669708 302.313896,53.5449605 Z M287.07662,58.6944687 L287.817691,60.5521051 C285.354678,61.5346811 282.91942,62.5829253 280.514246,63.6955426 L279.674551,61.8803531 C282.112188,60.7527185 284.580332,59.6903189 287.07662,58.6944687 Z M272.438637,65.4665976 L273.374543,67.2341041 C271.033777,68.4735556 268.72672,69.7752929 266.455736,71.1377553 L265.426816,69.4227268 C267.728311,68.0419592 270.066383,66.722722 272.438637,65.4665976 Z M258.603188,73.7691498 L259.722412,75.4266588 C257.525658,76.9100063 255.368658,78.4516877 253.25375,80.0498818 L252.047957,78.4542427 C254.191155,76.8346709 256.37702,75.2723583 258.603188,73.7691498 Z M245.791058,83.4472375 L247.07934,84.9770513 C245.052357,86.6840069 243.070883,88.4445665 241.137149,90.256688 L239.76957,88.7973297 C241.729105,86.9610302 243.73702,85.1769769 245.791058,83.4472375 Z M234.03342,94.4660569 L235.476506,95.8507958 C233.642278,97.7623114 231.858994,99.722147 230.128716,101.728089 L228.614276,100.421769 C230.367644,98.3890578 232.174721,96.4030735 234.03342,94.4660569 Z M223.505128,106.673681 L225.086905,107.897601 C223.465978,109.992463 221.900971,112.129972 220.393727,114.307808 L218.74917,113.169637 C220.276586,110.962655 221.862528,108.796552 223.505128,106.673681 Z M214.33286,119.929548 L216.035833,120.978301 C214.646606,123.234138 213.317713,125.526726 212.050745,127.853699 L210.294228,126.897328 C211.578229,124.539069 212.924978,122.215677 214.33286,119.929548 Z M206.615461,134.109151 L208.420868,134.969678 C207.281402,137.360305 206.205882,139.781624 205.195628,142.231301 L203.346687,141.468793 C204.370584,138.986034 205.460623,136.532031 206.615461,134.109151 Z M200.463865,149.032042 L202.351261,149.693659 C201.475466,152.192041 200.666371,154.715107 199.925029,157.260621 L198.004806,156.701385 C198.756178,154.12143 199.576222,151.564225 200.463865,149.032042 Z M195.991145,164.364741 L197.938238,164.821722 C197.33369,167.397566 196.797581,169.992337 196.330724,172.603949 L194.361934,172.252004 C194.835088,169.60517 195.378432,166.975375 195.991145,164.364741 Z M193.154728,180.23456 L195.139536,180.480607 C194.814286,183.104327 194.558199,185.741511 194.37187,188.390265 L192.3768,188.24992 C192.565615,185.565834 192.825124,182.893405 193.154728,180.23456 Z M192.023469,196.310741 L194.023164,196.345669 C194.007727,197.229496 194,198.114295 194,199 C194,200.767116 194.030758,202.530584 194.092139,204.289894 L192.093355,204.35963 C192.031163,202.577086 192,200.790368 192,199 C192,198.102651 192.007829,197.20621 192.023469,196.310741 Z M192.586834,212.403819 L194.579141,212.228562 C194.811972,214.875381 195.11466,217.509771 195.486575,220.129801 L193.506425,220.410884 C193.129521,217.755708 192.822779,215.08603 192.586834,212.403819 Z M194.849201,228.342129 L196.811509,227.955672 C197.323872,230.557287 197.905249,233.141172 198.554791,235.705217 L196.616033,236.196357 C195.957712,233.597658 195.368481,230.978866 194.849201,228.342129 Z M198.812543,243.978593 L200.721982,243.38358 C201.510498,245.913984 202.366376,248.420939 203.288516,250.902189 L201.413796,251.598916 C200.479184,249.084104 199.611727,246.543233 198.812543,243.978593 Z M204.41821,259.063378 L206.252871,258.267125 C207.307692,260.697554 208.427257,263.098608 209.610199,265.467944 L207.820823,266.361328 C206.621933,263.96005 205.487267,261.526608 204.41821,259.063378 Z M211.620991,273.487787 L213.359904,272.499768 C214.669298,274.8043 216.040019,277.0734 217.47043,279.304703 L215.786702,280.384083 C214.337098,278.122841 212.947975,275.823277 211.620991,273.487787 Z M220.333835,287.076221 L221.957461,285.908386 C223.504049,288.058586 225.107633,290.167457 226.76633,292.23269 L225.206993,293.485075 C223.52613,291.392244 221.901108,289.25518 220.333835,287.076221 Z M230.379102,299.58816 L231.8703,298.255369 C233.636191,300.231143 235.454275,302.159855 237.322453,304.039314 L235.90399,305.449264 C234.010891,303.544735 232.168554,301.590295 230.379102,299.58816 Z M241.738186,311.015181 L243.079847,309.53196 C245.04476,311.309338 247.056469,313.034322 249.112723,314.704905 L247.851594,316.257178 C245.767884,314.56429 243.729322,312.81628 241.738186,311.015181 Z M254.25716,321.18393 L255.433797,319.566671 C257.576121,321.125318 259.759488,322.626735 261.981557,324.069144 L260.892607,325.746698 C258.640765,324.284962 256.428159,322.763439 254.25716,321.18393 Z M267.782406,329.96165 L268.780104,328.228272 C271.075607,329.549518 273.406171,330.809367 275.769435,332.006303 L274.865777,333.790512 C272.470697,332.577462 270.108776,331.300662 267.782406,329.96165 Z M282.187045,337.254039 L282.993284,335.423745 C285.416589,336.491203 287.868903,337.493863 290.347916,338.430478 L289.641049,340.301398 C287.128529,339.352122 284.643079,338.335915 282.187045,337.254039 Z M297.260527,342.94813 L297.865698,341.041886 C300.388474,341.842785 302.934298,342.576409 305.500972,343.241773 L304.999097,345.17778 C302.397705,344.503416 299.817436,343.759866 297.260527,342.94813 Z M312.73492,346.966027 L313.133666,345.00618 C315.725686,345.533545 318.335074,345.992175 320.959795,346.381321 L320.666477,348.359695 C318.006434,347.965312 315.361892,347.500504 312.73492,346.966027 Z M328.686318,349.330368 L328.873565,347.339153 C331.505259,347.586628 334.148983,347.764917 336.802901,347.873481 L336.721155,349.871809 C334.032004,349.761805 331.353101,349.581143 328.686318,349.330368 Z"/>
    <g fill-rule="nonzero">
      <use fill="#000" filter="url(#bo-illustration-online-a)" xlink:href="#bo-illustration-online-b"/>
      <use fill="#FFF" xlink:href="#bo-illustration-online-b"/>
    </g>
    <rect width="56" height="56" x="404" y="55" fill="#F1F7F8" fill-rule="nonzero" rx="6"/>
    <g fill-rule="nonzero">
      <use fill="#000" filter="url(#bo-illustration-online-c)" xlink:href="#bo-illustration-online-d"/>
      <use fill="#365A77" xlink:href="#bo-illustration-online-d"/>
    </g>
    <g fill-rule="nonzero" transform="translate(43 54)">
      <use fill="#000" filter="url(#bo-illustration-online-e)" xlink:href="#bo-illustration-online-f"/>
      <use fill="#FFF" xlink:href="#bo-illustration-online-f"/>
      <rect width="185" height="85" x="90" y="35" fill="#F1F7F8" rx="8"/>
      <rect width="60" height="160" x="15" y="35" fill="#F7F7F7" rx="8"/>
      <path fill="#F7F7F7" d="M10,0 L280,0 C285.522847,-3.04461744e-14 290,4.4771525 290,10 L290,20 L0,20 L0,10 C-6.76353751e-16,4.4771525 4.4771525,1.01453063e-15 10,0 Z"/>
      <rect width="70" height="10" x="155" y="45" fill="#BADBDD" rx="5"/>
      <rect width="35" height="10" x="230" y="100" fill="#BADBDD" rx="5"/>
      <rect width="105" height="6" x="155" y="62" fill="#BADBDD" rx="3"/>
      <rect width="100" height="6" x="155" y="75" fill="#BADBDD" rx="3"/>
      <rect width="185" height="85" x="90" y="130" fill="#F1F7F8" rx="8"/>
      <path fill="#F1F7F8" d="M95,225 L270,225 C272.761424,225 275,227.238576 275,230 L90,230 L90,230 C90,227.238576 92.2385763,225 95,225 Z"/>
      <rect width="70" height="10" x="155" y="142" fill="#BADBDD" rx="5"/>
      <rect width="35" height="10" x="230" y="195" fill="#BADBDD" rx="5"/>
      <rect width="105" height="6" x="155" y="159" fill="#BADBDD" rx="3"/>
      <rect width="100" height="6" x="155" y="172" fill="#BADBDD" rx="3"/>
      <rect width="45" height="45" x="100" y="45" fill="#BADBDD" rx="6"/>
      <rect width="45" height="45" x="100" y="140" fill="#BADBDD" rx="6"/>
      <circle cx="143.5" cy="88.5" r="7.5" fill="#169DA7"/>
      <circle cx="143.5" cy="183.5" r="7.5" fill="#169DA7"/>
    </g>
    <g fill-rule="nonzero">
      <use fill="#000" filter="url(#bo-illustration-online-g)" xlink:href="#bo-illustration-online-h"/>
      <use fill="#BADBDD" xlink:href="#bo-illustration-online-h"/>
    </g>
    <path fill="#BADBDD" d="M420,96 L444,96 L444,94 L420,94 L420,96 Z M446,84 L446,98 L446,102 L444,102 L444,98 L420,98 L420,102 L418,102 L418,98 L418,84 C418,81.8 419.8,80 422,80 L424,80 L424,82 L440,82 L440,80 L442,80 C444.2,80 446,81.8 446,84 Z M424,78 L420,78 L420,68 C420,65.8 421.8,64 424,64 L440,64 C442.2,64 444,65.8 444,68 L444,78 L440,78 L440,74 C440,72.8 439.2,72 438,72 L426,72 C424.8,72 424,72.8 424,74 L424,78 Z"/>
    <g transform="translate(435 223)">
      <g fill-rule="nonzero">
        <use fill="#000" filter="url(#bo-illustration-online-i)" xlink:href="#bo-illustration-online-j"/>
        <use fill="#FFF" xlink:href="#bo-illustration-online-j"/>
      </g>
      <rect width="56" height="56" x="7" y="7" fill="#F1F7F8" fill-rule="nonzero" rx="6"/>
      <path fill="#BADBDD" d="M21,30 L17,30 L17,20 C17,17.8 18.8,16 21,16 L49,16 C51.2,16 53,17.8 53,20 L53,30 L49,30 L49,26 C49,24.8 48.2,24 47,24 L39,24 C37.8,24 37,24.8 37,26 L37,30 L33,30 L33,26 C33,24.8 32.2,24 31,24 L23,24 C21.8,24 21,24.8 21,26 L21,30 Z M17,48 L53,48 L53,46 L17,46 L17,48 Z M51,32 L49,32 L49,34 L37,34 L37,32 L33,32 L33,34 L21,34 L21,32 L19,32 C16.8,32 15,33.8 15,36 L15,50 L15,54 L17,54 L17,50 L53,50 L53,54 L55,54 L55,50 L55,36 C55,33.8 53.2,32 51,32 Z"/>
    </g>
    <rect width="570" height="400"/>
  </g>
</svg>
