<svg xmlns="http://www.w3.org/2000/svg" xmlns:xlink="http://www.w3.org/1999/xlink" width="350" height="500" viewBox="0 0 350 500">
  <defs>
    <path id="bo-illustration-content-b" d="M123,38 L227,38 L227,48 C227,53.5228475 222.522847,58 217,58 L133,58 C127.477153,58 123,53.5228475 123,48 L123,38 Z"/>
    <filter id="bo-illustration-content-a" width="305.8%" height="1170%" x="-102.9%" y="-375%" filterUnits="objectBoundingBox">
      <feOffset dy="11" in="SourceAlpha" result="shadowOffsetOuter1"/>
      <feGaussianBlur in="shadowOffsetOuter1" result="shadowBlurOuter1" stdDeviation="7.5"/>
      <feColorMatrix in="shadowBlurOuter1" result="shadowMatrixOuter1" values="0 0 0 0 0   0 0 0 0 0   0 0 0 0 0  0 0 0 0.05 0"/>
      <feMorphology in="SourceAlpha" operator="dilate" radius="4" result="shadowSpreadOuter2"/>
      <feOffset dy="5" in="shadowSpreadOuter2" result="shadowOffsetOuter2"/>
      <feGaussianBlur in="shadowOffsetOuter2" result="shadowBlurOuter2" stdDeviation="17.5"/>
      <feColorMatrix in="shadowBlurOuter2" result="shadowMatrixOuter2" values="0 0 0 0 0   0 0 0 0 0   0 0 0 0 0  0 0 0 0.02 0"/>
      <feMorphology in="SourceAlpha" operator="dilate" radius="1.5" result="shadowSpreadOuter3"/>
      <feOffset dy="16" in="shadowSpreadOuter3" result="shadowOffsetOuter3"/>
      <feGaussianBlur in="shadowOffsetOuter3" result="shadowBlurOuter3" stdDeviation="12.5"/>
      <feColorMatrix in="shadowBlurOuter3" result="shadowMatrixOuter3" values="0 0 0 0 0   0 0 0 0 0   0 0 0 0 0  0 0 0 0.05 0"/>
      <feMerge>
        <feMergeNode in="shadowMatrixOuter1"/>
        <feMergeNode in="shadowMatrixOuter2"/>
        <feMergeNode in="shadowMatrixOuter3"/>
      </feMerge>
    </filter>
    <path id="bo-illustration-content-d" d="M113,38 L113,53 C113,61.2842712 119.715729,68 128,68 L222,68 C230.284271,68 237,61.2842712 237,53 L237,38 L297,38 C302.522847,38 307,42.4771525 307,48 L307,442 C307,447.522847 302.522847,452 297,452 L53,452 C47.4771525,452 43,447.522847 43,442 L43,48 C43,42.4771525 47.4771525,38 53,38 L113,38 Z"/>
    <filter id="bo-illustration-content-c" width="181.1%" height="151.7%" x="-40.5%" y="-18.1%" filterUnits="objectBoundingBox">
      <feOffset dy="11" in="SourceAlpha" result="shadowOffsetOuter1"/>
      <feGaussianBlur in="shadowOffsetOuter1" result="shadowBlurOuter1" stdDeviation="7.5"/>
      <feColorMatrix in="shadowBlurOuter1" result="shadowMatrixOuter1" values="0 0 0 0 0   0 0 0 0 0   0 0 0 0 0  0 0 0 0.05 0"/>
      <feMorphology in="SourceAlpha" operator="dilate" radius="4" result="shadowSpreadOuter2"/>
      <feOffset dy="5" in="shadowSpreadOuter2" result="shadowOffsetOuter2"/>
      <feGaussianBlur in="shadowOffsetOuter2" result="shadowBlurOuter2" stdDeviation="17.5"/>
      <feColorMatrix in="shadowBlurOuter2" result="shadowMatrixOuter2" values="0 0 0 0 0   0 0 0 0 0   0 0 0 0 0  0 0 0 0.02 0"/>
      <feMorphology in="SourceAlpha" operator="dilate" radius="1.5" result="shadowSpreadOuter3"/>
      <feOffset dy="16" in="shadowSpreadOuter3" result="shadowOffsetOuter3"/>
      <feGaussianBlur in="shadowOffsetOuter3" result="shadowBlurOuter3" stdDeviation="12.5"/>
      <feColorMatrix in="shadowBlurOuter3" result="shadowMatrixOuter3" values="0 0 0 0 0   0 0 0 0 0   0 0 0 0 0  0 0 0 0.05 0"/>
      <feMerge>
        <feMergeNode in="shadowMatrixOuter1"/>
        <feMergeNode in="shadowMatrixOuter2"/>
        <feMergeNode in="shadowMatrixOuter3"/>
      </feMerge>
    </filter>
    <ellipse id="bo-illustration-content-e" cx="40" cy="40.002" rx="40" ry="40.002"/>
  </defs>
  <g fill="none" fill-rule="evenodd">
    <rect width="350" height="500"/>
    <g fill-rule="nonzero">
      <use fill="#000" filter="url(#bo-illustration-content-a)" xlink:href="#bo-illustration-content-b"/>
      <use fill="#BADBDD" xlink:href="#bo-illustration-content-b"/>
    </g>
    <g fill-rule="nonzero">
      <use fill="#000" filter="url(#bo-illustration-content-c)" xlink:href="#bo-illustration-content-d"/>
      <use fill="#FFF" xlink:href="#bo-illustration-content-d"/>
    </g>
    <rect width="130" height="16" x="73" y="261" fill="#BADBDD" fill-rule="nonzero" rx="8"/>
    <rect width="204" height="10" x="73" y="297" fill="#BADBDD" fill-rule="nonzero" rx="5"/>
    <rect width="164" height="10" x="73" y="323" fill="#BADBDD" fill-rule="nonzero" rx="5"/>
    <rect width="184" height="10" x="73" y="349" fill="#BADBDD" fill-rule="nonzero" rx="5"/>
    <rect width="77" height="10" x="73" y="402" fill="#BADBDD" fill-rule="nonzero" rx="5"/>
    <rect width="97" height="10" x="180" y="402" fill="#BADBDD" fill-rule="nonzero" rx="5"/>
    <g transform="translate(135 108)">
      <mask id="bo-illustration-content-f" fill="#fff">
        <use xlink:href="#bo-illustration-content-e"/>
      </mask>
      <use fill="#F1F7F8" fill-rule="nonzero" xlink:href="#bo-illustration-content-e"/>
      <g mask="url(#bo-illustration-content-f)">
        <g transform="translate(15.969 9.38)">
          <polygon fill="#BADBDD" points="3.231 70.619 44.831 70.619 44.831 17.819 3.231 17.819"/>
          <path fill="#DAF0F1" d="M10.6313725 35.4190641L19.8313725 35.4190641C20.3836573 35.4190641 20.8313725 34.9713489 20.8313725 34.4190641L20.8313725 25.2190641C20.8313725 24.6667794 20.3836573 24.2190641 19.8313725 24.2190641L10.6313725 24.2190641C10.0790878 24.2190641 9.63137255 24.6667794 9.63137255 25.2190641L9.63137255 34.4190641C9.63137255 34.9713489 10.0790878 35.4190641 10.6313725 35.4190641zM28.2313725 35.4190641L37.4313725 35.4190641C37.9836573 35.4190641 38.4313725 34.9713489 38.4313725 34.4190641L38.4313725 25.2190641C38.4313725 24.6667794 37.9836573 24.2190641 37.4313725 24.2190641L28.2313725 24.2190641C27.6790878 24.2190641 27.2313725 24.6667794 27.2313725 25.2190641L27.2313725 34.4190641C27.2313725 34.9713489 27.6790878 35.4190641 28.2313725 35.4190641zM10.6313725 53.0190641L19.8313725 53.0190641C20.3836573 53.0190641 20.8313725 52.5713489 20.8313725 52.0190641L20.8313725 42.8190641C20.8313725 42.2667794 20.3836573 41.8190641 19.8313725 41.8190641L10.6313725 41.8190641C10.0790878 41.8190641 9.63137255 42.2667794 9.63137255 42.8190641L9.63137255 52.0190641C9.63137255 52.5713489 10.0790878 53.0190641 10.6313725 53.0190641zM28.2313725 53.0190641L37.4313725 53.0190641C37.9836573 53.0190641 38.4313725 52.5713489 38.4313725 52.0190641L38.4313725 42.8190641C38.4313725 42.2667794 37.9836573 41.8190641 37.4313725 41.8190641L28.2313725 41.8190641C27.6790878 41.8190641 27.2313725 42.2667794 27.2313725 42.8190641L27.2313725 52.0190641C27.2313725 52.5713489 27.6790878 53.0190641 28.2313725 53.0190641zM10.6313725 70.6190641L19.8313725 70.6190641C20.3836573 70.6190641 20.8313725 70.1713489 20.8313725 69.6190641L20.8313725 60.4190641C20.8313725 59.8667794 20.3836573 59.4190641 19.8313725 59.4190641L10.6313725 59.4190641C10.0790878 59.4190641 9.63137255 59.8667794 9.63137255 60.4190641L9.63137255 69.6190641C9.63137255 70.1713489 10.0790878 70.6190641 10.6313725 70.6190641zM28.2313725 70.6190641L37.4313725 70.6190641C37.9836573 70.6190641 38.4313725 70.1713489 38.4313725 69.6190641L38.4313725 60.4190641C38.4313725 59.8667794 37.9836573 59.4190641 37.4313725 59.4190641L28.2313725 59.4190641C27.6790878 59.4190641 27.2313725 59.8667794 27.2313725 60.4190641L27.2313725 69.6190641C27.2313725 70.1713489 27.6790878 70.6190641 28.2313725 70.6190641z"/>
          <polygon fill="#DAF0F1" points="9.224 89.274 18.447 89.274 18.447 79.954 9.224 79.954"/>
          <path fill="#99BEC0" d="M48.0313725,13.4190641 L48.0313725,15.8190641 C48.0313725,16.9236336 47.135942,17.8190641 46.0313725,17.8190641 L2.03137255,17.8190641 C0.926803049,17.8190641 0.031372549,16.9236336 0.031372549,15.8190641 L0.031372549,13.4190641 C0.031372549,12.3144946 0.926803049,11.4190641 2.03137255,11.4190641 L46.0313725,11.4190641 C47.135942,11.4190641 48.0313725,12.3144946 48.0313725,13.4190641 Z"/>
          <path fill="#BADBDD" d="M12.6028011,0.219064125 L35.459944,0.219064125 C37.9845154,0.219064125 40.0313725,2.22498412 40.0313725,4.69906412 L40.0313725,11.4190641 L8.03137255,11.4190641 L8.03137255,4.69906412 C8.03137255,2.22498412 10.0782297,0.219064125 12.6028011,0.219064125"/>
        </g>
      </g>
    </g>
    <polygon fill="#FFBF00" fill-rule="nonzero" points="115 226.5 109.122 229.09 109.769 222.7 105.489 217.91 111.767 216.55 115 211 118.233 216.55 124.511 217.91 120.231 222.7 120.878 229.09"/>
    <polygon fill="#FFBF00" fill-rule="nonzero" points="145 226.5 139.122 229.09 139.769 222.7 135.489 217.91 141.767 216.55 145 211 148.233 216.55 154.511 217.91 150.231 222.7 150.878 229.09"/>
    <polygon fill="#FFBF00" fill-rule="nonzero" points="175 226.5 169.122 229.09 169.769 222.7 165.489 217.91 171.767 216.55 175 211 178.233 216.55 184.511 217.91 180.231 222.7 180.878 229.09"/>
    <polygon fill="#FFBF00" fill-rule="nonzero" points="205 226.5 199.122 229.09 199.769 222.7 195.489 217.91 201.767 216.55 205 211 208.233 216.55 214.511 217.91 210.231 222.7 210.878 229.09"/>
    <polygon fill="#FFBF00" fill-rule="nonzero" points="235 226.5 229.122 229.09 229.769 222.7 225.489 217.91 231.767 216.55 235 211 238.233 216.55 244.511 217.91 240.231 222.7 240.878 229.09"/>
  </g>
</svg>
