<?xml version="1.0" encoding="UTF-8"?>
<svg width="50px" height="50px" viewBox="0 0 50 50" version="1.1" xmlns="http://www.w3.org/2000/svg" xmlns:xlink="http://www.w3.org/1999/xlink">
    <title>bo-icon-additional-services</title>
    <g id="bo-icon-additional-services" stroke="none" stroke-width="1" fill="none" fill-rule="evenodd">
        <rect id="Rectangle" x="0" y="0" width="50" height="50"></rect>
        <path d="M22.5,1 C26.4713773,1 30.1910848,2.07621564 33.3826969,3.95415068 C34.7033898,4.73077081 35.9336964,5.64428684 37.0550498,6.67782805 C41.3243159,10.6048508 44,16.2404448 44,22.5 C44,28.4370714 41.5935362,33.8120717 37.7028039,37.7028039 C33.8120717,41.5935362 28.4370714,44 22.5,44 C16.2403577,44 10.6055843,41.3251221 6.67651635,37.0555408 C5.64431899,35.9346939 4.73063977,34.7032364 3.95326224,33.3827478 C2.07629099,30.1904049 1,26.4706107 1,22.5 C1,16.5629286 3.40646383,11.1879283 7.29719607,7.29719607 C11.1879283,3.40646383 16.5629286,1 22.5,1 Z" id="Shape" stroke="#365A77" stroke-width="2" fill="#365A77" fill-rule="nonzero"></path>
        <rect id="Rectangle" fill="#FFFFFF" x="22" y="12" width="2" height="22"></rect>
        <rect id="Rectangle" fill="#FFFFFF" x="12" y="22" width="22" height="2"></rect>
        <g id="tag" transform="translate(32.000000, 32.000000)" fill="#94ACBE" fill-rule="nonzero">
            <path d="M15.9166349,-4.33072208e-05 L10.630662,-4.33072208e-05 C9.63528904,-0.00278291661 8.68011227,0.392732807 7.978105,1.09837192 L0.710405888,8.36691669 C-0.236801963,9.31506066 -0.236801963,10.8513414 0.710405888,11.7994853 L6.19970351,17.2895952 C7.14784888,18.2368016 8.68413189,18.2368016 9.63227726,17.2895952 L16.9016561,10.0210895 C17.6025305,9.31623161 17.9972265,8.36340005 18,7.36935673 L18,2.08343069 C18,0.932821735 17.0672456,-4.33072208e-05 15.9166349,-4.33072208e-05 Z M13.4165812,6.66684268 C12.2659706,6.66684268 11.3332161,5.73408965 11.3332161,4.58348069 C11.3332161,3.43287174 12.2659706,2.50007965 13.4165812,2.50007965 C14.5671919,2.50007965 15.4999463,3.43283268 15.4999463,4.58344163 C15.4999463,5.73405058 14.5671919,6.66684268 13.4165812,6.66684268 Z" id="Shape"></path>
        </g>
    </g>
</svg>