<?xml version="1.0" encoding="UTF-8"?>
<svg width="50px" height="50px" viewBox="0 0 50 50" version="1.1" xmlns="http://www.w3.org/2000/svg" xmlns:xlink="http://www.w3.org/1999/xlink">
    <title>bo-icon-sales-instruments</title>
    <g id="bo-icon-sales-instruments" stroke="none" stroke-width="1" fill="none" fill-rule="evenodd">
        <rect id="Rectangle" x="0" y="0" width="50" height="50"></rect>
        <path d="M22.5,1 C26.4713773,1 30.1910848,2.07621564 33.3826969,3.95415068 C34.7033898,4.73077081 35.9336964,5.64428684 37.0550498,6.67782805 C41.3243159,10.6048508 44,16.2404448 44,22.5 C44,28.4370714 41.5935362,33.8120717 37.7028039,37.7028039 C33.8120717,41.5935362 28.4370714,44 22.5,44 C16.2403577,44 10.6055843,41.3251221 6.67651635,37.0555408 C5.64431899,35.9346939 4.73063977,34.7032364 3.95326224,33.3827478 C2.07629099,30.1904049 1,26.4706107 1,22.5 C1,16.5629286 3.40646383,11.1879283 7.29719607,7.29719607 C11.1879283,3.40646383 16.5629286,1 22.5,1 Z" id="Shape" stroke="#365A77" stroke-width="2" fill="#365A77" fill-rule="nonzero"></path>
        <g id="gear" transform="translate(30.000000, 30.000000)" fill="#94ACBE" fill-rule="nonzero">
            <path d="M19.5294189,7.72277832 L17.9922485,7.38861086 C17.8585816,6.97937012 17.6930237,6.5802002 17.4975586,6.19567871 L18.3485413,4.87197875 C18.5005188,4.63546754 18.467102,4.32495117 18.2684326,4.12628172 L15.8737183,1.73156738 C15.6750488,1.53289797 15.3645325,1.49948121 15.1280213,1.65145875 L13.8043213,2.50244141 C13.4197998,2.30697633 13.0206299,2.14141844 12.6113891,2.00775148 L12.2772217,0.470581055 C12.2175598,0.195922852 11.9743347,0 11.6932678,0 L8.30673219,0 C8.02566527,0 7.7824402,0.195922852 7.72277832,0.470581055 L7.38861086,2.00775148 C6.97937012,2.14141844 6.5802002,2.30697633 6.19567871,2.50244141 L4.87197875,1.65145875 C4.63546754,1.49948121 4.32495117,1.53289797 4.12628172,1.73156738 L1.73156738,4.12628172 C1.53289797,4.32495117 1.49948121,4.63546754 1.65145875,4.87197875 L2.50244141,6.19567871 C2.30697633,6.5802002 2.14141844,6.97937012 2.00775148,7.38861086 L0.470581055,7.72277832 C0.195922852,7.78259277 0,8.02566527 0,8.30673219 L0,11.6932678 C0,11.9743347 0.195922852,12.2174072 0.470581055,12.2772217 L2.00775148,12.6113891 C2.14141844,13.0206299 2.30697633,13.4197998 2.50244141,13.8043213 L1.65145875,15.1280213 C1.49948121,15.3645325 1.53289797,15.6750488 1.73156738,15.8737183 L4.12628172,18.2684326 C4.32495117,18.467102 4.63546754,18.5005188 4.87197875,18.3485413 L6.19567871,17.4975586 C6.5802002,17.6930237 6.97937012,17.8585816 7.38861086,17.9922485 L7.72277832,19.5294189 C7.7824402,19.8040771 8.02566527,20 8.30673219,20 L11.6932678,20 C11.9743347,20 12.2175598,19.8040771 12.2772217,19.5294189 L12.6113891,17.9922485 C13.0206299,17.8585816 13.4197998,17.6930237 13.8043213,17.4975586 L15.1280213,18.3485413 C15.3645325,18.5005188 15.6750488,18.4672546 15.8737183,18.2684326 L18.2684326,15.8737183 C18.467102,15.6750488 18.5005188,15.3645325 18.3485413,15.1280213 L17.4975586,13.8043213 C17.6930237,13.4197998 17.8585816,13.0206299 17.9922485,12.6113891 L19.5294189,12.2772217 C19.8040771,12.2174072 20,11.9743347 20,11.6932678 L20,8.30673219 C20,8.02566527 19.8040771,7.78259277 19.5294189,7.72277832 Z M13.5856629,10 C13.5856629,11.9770813 11.9770813,13.5856629 10,13.5856629 C8.02291871,13.5856629 6.41433715,11.9770813 6.41433715,10 C6.41433715,8.02291871 8.02291871,6.41433715 10,6.41433715 C11.9770813,6.41433715 13.5856629,8.02291871 13.5856629,10 Z" id="Shape"></path>
        </g>
        <circle id="Oval" fill="#FFFFFF" cx="40" cy="40" r="4"></circle>
        <path d="M23,11.6401219 L30.969137,22 L27,22 L27,32 L19,32 L19,22 L15.030863,22 L23,11.6401219 Z" id="Combined-Shape" stroke="#FFFFFF" stroke-width="2"></path>
    </g>
</svg>