<?xml version="1.0" encoding="UTF-8"?>
<svg width="50px" height="50px" viewBox="0 0 50 50" version="1.1" xmlns="http://www.w3.org/2000/svg" xmlns:xlink="http://www.w3.org/1999/xlink">
    <title>bo-icon-comission</title>
    <g id="bo-icon-comission" stroke="none" stroke-width="1" fill="none" fill-rule="evenodd">
        <rect id="Rectangle" x="0" y="0" width="50" height="50"></rect>
        <path d="M22.5,1 C26.4713773,1 30.1910848,2.07621564 33.3826969,3.95415068 C34.7033898,4.73077081 35.9336964,5.64428684 37.0550498,6.67782805 C41.3243159,10.6048508 44,16.2404448 44,22.5 C44,28.4370714 41.5935362,33.8120717 37.7028039,37.7028039 C33.8120717,41.5935362 28.4370714,44 22.5,44 C16.2403577,44 10.6055843,41.3251221 6.67651635,37.0555408 C5.64431899,35.9346939 4.73063977,34.7032364 3.95326224,33.3827478 C2.07629099,30.1904049 1,26.4706107 1,22.5 C1,16.5629286 3.40646383,11.1879283 7.29719607,7.29719607 C11.1879283,3.40646383 16.5629286,1 22.5,1 Z" id="Shape" stroke="#365A77" stroke-width="2" fill="#365A77" fill-rule="nonzero"></path>
        <g id="Group" transform="translate(12.000000, 12.000000)" fill="#FFFFFF" fill-rule="nonzero">
            <path d="M4.66666667,9.33333333 C7.24033333,9.33333333 9.33333333,7.24033333 9.33333333,4.66666667 C9.33333333,2.093 7.24033333,0 4.66666667,0 C2.093,0 0,2.093 0,4.66666667 C0,7.24033333 2.093,9.33333333 4.66666667,9.33333333 Z M4.66666667,2.33333333 C5.9535,2.33333333 7,3.37983333 7,4.66666667 C7,5.9535 5.9535,7 4.66666667,7 C3.37983333,7 2.33333333,5.9535 2.33333333,4.66666667 C2.33333333,3.37983333 3.37983333,2.33333333 4.66666667,2.33333333 Z" id="Shape"></path>
            <path d="M21,16.3333333 C21,13.7596667 18.907,11.6666667 16.3333333,11.6666667 C13.7596667,11.6666667 11.6666667,13.7596667 11.6666667,16.3333333 C11.6666667,18.907 13.7596667,21 16.3333333,21 C18.907,21 21,18.907 21,16.3333333 Z M14,16.3333333 C14,15.0465 15.0465,14 16.3333333,14 C17.6201667,14 18.6666667,15.0465 18.6666667,16.3333333 C18.6666667,17.6201667 17.6201667,18.6666667 16.3333333,18.6666667 C15.0465,18.6666667 14,17.6201667 14,16.3333333 Z" id="Shape"></path>
            <polygon id="Shape" transform="translate(10.494921, 10.500412) rotate(-45.000000) translate(-10.494921, -10.500412) " points="-2.7021692 9.33392193 23.692011 9.33392193 23.692011 11.6669029 -2.7021692 11.6669029"></polygon>
        </g>
        <g id="Group-19" transform="translate(29.000000, 34.000000)" fill-rule="nonzero">
            <path d="M3,0 L17,0 C18.6568542,-3.04359188e-16 20,1.34314575 20,3 L20,4 L20,4 L11,4 C9.34314575,4 8,5.34314575 8,7 L8,9 C8,10.6568542 9.34314575,12 11,12 L20,12 L20,12 L20,13 C20,14.6568542 18.6568542,16 17,16 L3,16 C1.34314575,16 2.02906125e-16,14.6568542 0,13 L0,3 C-2.02906125e-16,1.34314575 1.34314575,3.04359188e-16 3,0 Z" id="Rectangle-2" fill="#94ACBE"></path>
            <path d="M11,5 L19,5 C20.1045695,5 21,5.8954305 21,7 L21,9 C21,10.1045695 20.1045695,11 19,11 L11,11 C9.8954305,11 9,10.1045695 9,9 L9,7 C9,5.8954305 9.8954305,5 11,5 Z" id="Rectangle-86" fill="#94ACBE"></path>
            <circle id="Oval-35" fill="#FFFFFF" cx="12" cy="8" r="1"></circle>
        </g>
    </g>
</svg>