<?xml version="1.0" encoding="UTF-8"?>
<svg width="50px" height="50px" viewBox="0 0 50 50" version="1.1" xmlns="http://www.w3.org/2000/svg" xmlns:xlink="http://www.w3.org/1999/xlink">
    <title>bo-icon-interface</title>
    <g id="bo-icon-interface" stroke="none" stroke-width="1" fill="none" fill-rule="evenodd">
        <rect id="Rectangle" x="0" y="0" width="50" height="50"></rect>
        <path d="M9,39 L31,39 L31,39 L31,44 L9,44 C7.8954305,44 7,43.1045695 7,42 L7,41 C7,39.8954305 7.8954305,39 9,39 Z" id="Rectangle-2" fill="#365A77" fill-rule="nonzero"></path>
        <rect id="Rectangle-2" fill="#365A77" fill-rule="nonzero" x="17" y="36" width="10" height="8"></rect>
        <rect id="Rectangle-2" fill="#365A77" fill-rule="nonzero" x="1" y="1" width="43" height="35" rx="5"></rect>
        <circle id="Oval-32" fill="#FFFFFF" fill-rule="nonzero" cx="6.5" cy="6.5" r="2.5"></circle>
        <circle id="Oval-32" fill="#FFFFFF" fill-rule="nonzero" cx="13.5" cy="6.5" r="2.5"></circle>
        <circle id="Oval-32" fill="#FFFFFF" fill-rule="nonzero" cx="20.5" cy="6.5" r="2.5"></circle>
        <g id="Group-20" transform="translate(30.000000, 29.000000)" fill="#94ACBE" fill-rule="nonzero">
            <path d="M19.2679949,11.1974114 C19.7502246,10.6464486 19.9914315,9.99489716 19.9914315,9.24261926 C19.9914315,8.56041794 19.7411954,7.97012035 19.2424277,7.47131291 C18.7426466,6.97255142 18.1508695,6.72330853 17.4669584,6.72330853 L13.8238858,6.72330853 C13.8588967,6.60089278 13.8939998,6.49593873 13.9290107,6.40849234 C13.9636992,6.32104595 14.0124381,6.22473085 14.073569,6.11977681 C14.1347461,6.01477681 14.1787401,5.93601532 14.2049522,5.8836302 C14.3627318,5.58641357 14.4835195,5.3413523 14.5669008,5.14908972 C14.650144,4.95645952 14.7330185,4.6941663 14.8165841,4.3617965 C14.9000115,4.0296105 14.9414718,3.69710284 14.9414718,3.36473304 C14.9414718,3.15491685 14.9389382,2.98420569 14.9347921,2.85310503 C14.9306922,2.72191247 14.9083496,2.5250547 14.8692387,2.26262363 C14.829529,2.00033042 14.7768283,1.78164551 14.7112288,1.60679869 C14.645353,1.43190591 14.5400438,1.23495624 14.3956236,1.01645514 C14.250881,0.797540481 14.075596,0.620671772 13.8693539,0.485021882 C13.6631579,0.349463895 13.4002073,0.235778993 13.0801797,0.144013129 C12.7598296,0.0521553611 12.3983416,0.00624945295 11.9947484,0.00624945295 C11.7668087,0.00624945295 11.5696879,0.0893763676 11.4029253,0.255584245 C11.2275941,0.430477024 11.0782909,0.649115974 10.9556605,0.91140919 C10.8328458,1.17384026 10.7472993,1.40125602 10.6990211,1.59374836 C10.6507889,1.7861488 10.5959231,2.05299125 10.5347921,2.394 C10.4556029,2.76152298 10.3966832,3.02592998 10.3569734,3.18772648 C10.3175861,3.34952298 10.2406542,3.56159081 10.1267765,3.82392998 C10.0126684,4.08645295 9.8769089,4.29622319 9.7190372,4.45374617 C9.42973627,4.74232385 8.98698606,5.26714004 8.39060233,6.02801094 C7.96084303,6.5877046 7.51809283,7.11684026 7.06216745,7.61541794 C6.60614995,8.11408753 6.27299321,8.37206127 6.06260509,8.38956893 C5.84355637,8.40703063 5.65500403,8.49668271 5.49713233,8.65857112 C5.33926062,8.82036761 5.26034781,9.01065427 5.26034781,9.22924726 L5.26034781,17.6388972 C5.26034781,17.8663129 5.34359092,18.0608271 5.51021536,18.2226236 C5.67674767,18.3846039 5.87405275,18.4698446 6.10203847,18.4786214 C6.40889094,18.4873982 7.10160083,18.6796149 8.18016814,19.0560525 C8.85523437,19.2831007 9.3834389,19.4561094 9.76487389,19.5740219 C10.1462167,19.6919344 10.6792583,19.8188534 11.3626627,19.9545952 C12.046712,20.0901072 12.6779224,20.15807 13.2564782,20.15807 L13.4801336,20.15807 L14.4797881,20.15807 L14.9531729,20.15807 C16.1196361,20.1406083 16.9829322,19.7993698 17.544305,19.134814 C18.0527007,18.5312363 18.2674191,17.7396696 18.1887827,16.7600678 C18.5306922,16.4364748 18.7676149,16.0255733 18.898952,15.5269037 C19.0477945,14.9936783 19.0477945,14.4819584 18.898952,13.9922495 C19.3022227,13.4587024 19.4907751,12.8595821 19.4642865,12.1948425 C19.4653921,11.914674 19.3997927,11.5823961 19.2679949,11.1974114 Z" id="Shape"></path>
            <path d="M3.56280485,8.40294092 L0.647898721,8.40294092 C0.472346386,8.40294092 0.320510633,8.48606783 0.19232056,8.65227571 C0.0641304873,8.81839168 0,9.0152035 0,9.24261926 L0,17.6394945 C0,17.8665886 0.0641304873,18.0634923 0.192356011,18.2298381 C0.320652436,18.3957702 0.472488189,18.4789431 0.647934171,18.4789431 L3.56280485,18.4789431 C3.73821538,18.4789431 3.88998023,18.3957702 4.01824121,18.2298381 C4.14643128,18.0634923 4.21052632,17.8666346 4.21052632,17.6394945 L4.21052632,9.24261926 C4.21052632,9.0152035 4.14639583,8.81843764 4.01824121,8.65227571 C3.89001568,8.48602188 3.73825083,8.40294092 3.56280485,8.40294092 Z M2.84530832,11.2465441 C2.63699419,11.4488672 2.39031247,11.55 2.10520555,11.55 C1.80909531,11.55 1.55959075,11.4488672 1.35686469,11.2465441 C1.15402341,11.044221 1.05263158,10.7954687 1.05263158,10.5001149 C1.05263158,10.2157938 1.1539658,9.96962732 1.35686469,9.76190281 C1.55964835,9.55406337 1.80909531,9.45 2.10520555,9.45 C2.39031247,9.45 2.63699419,9.55406337 2.84530832,9.76190281 C3.05368006,9.96956986 3.15789474,10.2157363 3.15789474,10.5001149 C3.15789474,10.7954687 3.0539105,11.0441635 2.84530832,11.2465441 Z" id="Shape"></path>
        </g>
    </g>
</svg>