<svg xmlns="http://www.w3.org/2000/svg" width="50" height="50" viewBox="0 0 50 50">
  <g fill="none" fill-rule="evenodd">
    <path fill="#365A77" fill-rule="nonzero" d="M41.2712629,26.7932436 L37.3069991,23.6340959 C37.4299005,22.5314847 37.4299005,21.4182285 37.3069991,20.3156173 L41.2748851,17.1546668 C42.0184425,16.5443847 42.2171569,15.4742235 41.7439151,14.6291514 L37.6196858,7.36405604 C37.144675,6.51366156 36.1329921,6.14229001 35.2350288,6.48868025 L30.5626712,8.40434278 C29.684672,7.75517226 28.7441691,7.19863002 27.7556513,6.74330069 L27.0386285,1.68497297 C26.9093251,0.713878441 26.0918078,-0.00791813108 25.1301616,6.55845749e-05 L16.8637606,6.55845749e-05 C15.9101168,-0.00577197096 15.09917,0.707955039 14.966076,1.67029324 L14.2472841,6.74321484 C13.2617989,7.20292234 12.3228123,7.75989381 11.4438864,8.40614555 L6.75889338,6.48679163 C5.8701961,6.12975643 4.85943982,6.49666397 4.39217879,7.34568491 L0.264327323,14.6236573 C-0.221634254,15.4701028 -0.0215720688,16.5520251 0.733357321,17.160161 L4.6976211,20.3193087 C4.57354043,21.4218341 4.57354043,22.5352619 4.6976211,23.6377873 L0.729735142,26.796935 C-0.0150858421,27.4063587 -0.214726843,28.4771209 0.258936174,29.3224504 L4.3813965,36.5894344 C4.85581764,37.4404298 5.86809018,37.8120589 6.7660535,37.4648102 L11.4384111,35.5491477 C12.3171684,36.1986616 13.2582609,36.7558048 14.2471999,37.2120784 L14.9659917,42.2667147 C15.0925153,43.2352339 15.9049783,43.9573738 16.8636763,43.9534249 L25.1300773,43.9534249 C26.0854901,43.9612369 26.8990482,43.2472524 27.0331531,42.2831972 L27.7519449,37.2102756 C28.7373459,36.7503964 29.6762483,36.193425 30.5553426,35.5473449 L35.2456426,37.4685016 C36.1343399,37.8246783 37.1445907,37.4580284 37.6123572,36.6096083 L41.7527599,29.3023623 C42.2163145,28.4584922 42.0125459,27.3969155 41.2712629,26.7932436 Z M20.996919,31.1336379 C16.0345344,31.1336379 12.0116419,27.0339569 12.0116419,21.9766594 C12.0116419,16.9193618 16.0344502,12.8196809 20.996919,12.8196809 C25.9593877,12.8196809 29.982196,16.9193618 29.982196,21.9766594 C29.9762152,27.0314674 25.9568606,31.1276286 20.996919,31.1336379 Z"/>
    <path fill="#FFF" fill-rule="nonzero" d="M38.1968495,44.6438982 C34.7744564,44.6438982 32,41.8134914 32,38.3219491 C32,34.8304068 34.7743983,32 38.1968495,32 C41.6193007,32 44.393699,34.8304068 44.393699,38.3219491 C44.3895742,41.8117726 41.6175578,44.6397495 38.1968495,44.6438982 Z"/>
    <path fill="#94ACBE" fill-rule="nonzero" d="M48.5736147,41.0203799 L46.5013859,39.3672597 C46.5656298,38.7902849 46.5656298,38.2077397 46.5013859,37.6307648 L48.5755081,35.9767013 C48.9641859,35.6573526 49.0680593,35.0973582 48.8206829,34.6551486 L46.6648357,30.8534664 C46.4165346,30.4084716 45.8877004,30.2141401 45.4183105,30.3953993 L42.9759418,31.397828 C42.5169876,31.0581298 42.0253611,30.7669022 41.5086359,30.5286372 L41.1338285,27.8817134 C41.0662381,27.3735586 40.6388996,26.9958566 40.1362208,27.0000343 L35.8151476,27.0000343 C35.316652,26.9969796 34.8927479,27.370459 34.8231761,27.8740318 L34.447444,30.5285923 C33.932304,30.7691483 33.4414701,31.0606005 32.9820316,31.3987714 L30.5330579,30.3944111 C30.0685116,30.2075815 29.5401617,30.3995771 29.2959116,30.8438531 L27.1381711,34.6522736 C26.8841457,35.095202 26.9887237,35.6613507 27.3833459,35.9795763 L29.4555747,37.6326965 C29.3907143,38.2096264 29.3907143,38.7922614 29.4555747,39.3691914 L27.3814525,41.0223115 C26.9921142,41.341211 26.8877564,41.9015199 27.135353,42.3438643 L29.2902754,46.1465347 C29.5382683,46.591844 30.0674108,46.7863102 30.5368007,46.6046017 L32.9791694,45.6021731 C33.4385199,45.942051 33.9304546,46.2335931 34.4473999,46.4723521 L34.823132,49.1173444 C34.8892694,49.6241515 35.313966,50.0020332 35.8151035,49.9999668 L40.1361768,49.9999668 C40.6355971,50.0040547 41.0608661,49.6304405 41.1309664,49.1259693 L41.5066985,46.4714088 C42.0217945,46.230763 42.5125843,45.9393107 42.9721109,45.6012297 L45.4238586,46.6065334 C45.8884049,46.7929137 46.4164906,46.6010529 46.6610049,46.1570913 L48.8253063,42.3333526 C49.067619,41.8917718 48.9611036,41.3362696 48.5736147,41.0203799 Z M37.9756622,43.2916232 C35.3816884,43.2916232 33.2788128,41.1463404 33.2788128,38.4999556 C33.2788128,35.8535708 35.3816444,33.7082881 37.9756622,33.7082881 C40.56968,33.7082881 42.6725116,35.8535708 42.6725116,38.4999556 C42.6693852,41.1450377 40.568359,43.2884787 37.9756622,43.2916232 Z" transform="rotate(90 37.977 38.5)"/>
  </g>
</svg>
