<?xml version="1.0" encoding="UTF-8"?>
<svg width="50px" height="50px" viewBox="0 0 50 50" version="1.1" xmlns="http://www.w3.org/2000/svg" xmlns:xlink="http://www.w3.org/1999/xlink">
    <title>bo-icon-personal-space</title>
    <g id="bo-icon-personal-space" stroke="none" stroke-width="1" fill="none" fill-rule="evenodd">
        <rect id="Rectangle" x="0" y="0" width="50" height="50"></rect>
        <rect id="Rectangle-2" fill="#365A77" fill-rule="nonzero" x="7" y="39" width="30" height="5" rx="2"></rect>
        <rect id="Rectangle-2" fill="#365A77" fill-rule="nonzero" x="17" y="36" width="10" height="8"></rect>
        <rect id="Rectangle-2" fill="#365A77" fill-rule="nonzero" x="1" y="1" width="43" height="35" rx="5"></rect>
        <circle id="Oval-32" fill="#FFFFFF" fill-rule="nonzero" cx="6.5" cy="6.5" r="2.5"></circle>
        <circle id="Oval-32" fill="#FFFFFF" fill-rule="nonzero" cx="13.5" cy="6.5" r="2.5"></circle>
        <circle id="Oval-32" fill="#FFFFFF" fill-rule="nonzero" cx="20.5" cy="6.5" r="2.5"></circle>
        <rect id="Rectangle" fill="#94ACBE" x="31" y="38" width="18" height="12" rx="2"></rect>
        <rect id="Rectangle" fill="#FFFFFF" x="36" y="32" width="8" height="7"></rect>
        <path d="M40,31 C41.3807119,31 42.6307119,31.5596441 43.5355339,32.4644661 C44.4403559,33.3692881 45,34.6192881 45,36 L45,36 L45,41 L35,41 L35,36 C35,34.6192881 35.5596441,33.3692881 36.4644661,32.4644661 C37.3692881,31.5596441 38.6192881,31 40,31 Z" id="Oval" stroke="#94ACBE" stroke-width="2"></path>
        <circle id="Oval" fill="#FFFFFF" cx="40" cy="43" r="2"></circle>
        <rect id="Rectangle" fill="#FFFFFF" x="39" y="44" width="2" height="3"></rect>
    </g>
</svg>