<?xml version="1.0" encoding="UTF-8"?>
<svg width="50px" height="50px" viewBox="0 0 50 50" version="1.1" xmlns="http://www.w3.org/2000/svg" xmlns:xlink="http://www.w3.org/1999/xlink">
    <title>bo-icon-hotel-info</title>
    <g id="bo-icon-hotel-info" stroke="none" stroke-width="1" fill="none" fill-rule="evenodd">
        <rect id="Rectangle" x="0" y="0" width="50" height="50"></rect>
        <g id="google-docs" transform="translate(5.000000, 1.000000)" fill="#365A77" fill-rule="nonzero">
            <path d="M4.03846154,43 L30.9615385,43 C33.1884359,43 35,41.3046914 35,39.2207031 L35,5 C35,2.23857625 32.7614237,3.80913106e-16 30,0 L4.03846154,0 L4.03846154,0 C1.8115641,0 0,1.69530859 0,3.77929687 L0,39.2207031 C0,41.3046914 1.8115641,43 4.03846154,43 Z" id="Shape"></path>
        </g>
        <rect id="Rectangle-87" fill="#FFFFFF" fill-rule="nonzero" x="9" y="35" width="15" height="2" rx="1"></rect>
        <rect id="Rectangle-88" fill="#FFFFFF" fill-rule="nonzero" x="18" y="7" width="9" height="9" rx="4.5"></rect>
        <path d="M49.4626607,38.6998786 C49.4622029,38.6994208 49.4617451,38.698963 49.4612872,38.6985051 L41.30208,30.5396031 C40.9542985,30.191669 40.4919123,30 40.0000739,30 C39.5082355,30 39.0458494,30.1915164 38.6979153,30.5394505 L30.5429809,38.6942323 C30.540234,38.6969791 30.5374871,38.6998786 30.5347403,38.7026254 C29.8205598,39.4209262 29.8217806,40.5863529 30.5382502,41.3028224 C30.8655829,41.6303078 31.2979063,41.8199929 31.7601398,41.8398312 C31.7789099,41.8416625 31.7978327,41.8425781 31.816908,41.8425781 L32.1421043,41.8425781 L32.1421043,47.8470356 C32.1421043,49.0352 33.1088423,50.001938 34.2973119,50.001938 L37.4894547,50.001938 C37.8129724,50.001938 38.075449,49.739614 38.075449,49.4159437 L38.075449,44.7084564 C38.075449,44.1662591 38.5164707,43.7252373 39.058668,43.7252373 L40.9414798,43.7252373 C41.4836771,43.7252373 41.9246989,44.1662591 41.9246989,44.7084564 L41.9246989,49.4159437 C41.9246989,49.739614 42.1870229,50.001938 42.5106932,50.001938 L45.7028359,50.001938 C46.8913056,50.001938 47.8580435,49.0352 47.8580435,47.8470356 L47.8580435,41.8425781 L48.1595864,41.8425781 C48.6512722,41.8425781 49.1136584,41.6510617 49.4617451,41.3031276 C50.1789776,40.5854373 50.1792828,39.4180268 49.4626607,38.6998786 L49.4626607,38.6998786 Z" id="Shape" fill="#94ACBE" fill-rule="nonzero"></path>
        <polygon id="Star-4" fill="#FFFFFF" fill-rule="nonzero" points="13.5 26.425 11.4427516 27.3315595 11.6692162 25.0948577 10.1713022 23.4184405 12.3685134 22.9426423 13.5 21 14.6314866 22.9426423 16.8286978 23.4184405 15.3307838 25.0948577 15.5572484 27.3315595"></polygon>
        <polygon id="Star-4" fill="#FFFFFF" fill-rule="nonzero" points="22.5 26.425 20.4427516 27.3315595 20.6692162 25.0948577 19.1713022 23.4184405 21.3685134 22.9426423 22.5 21 23.6314866 22.9426423 25.8286978 23.4184405 24.3307838 25.0948577 24.5572484 27.3315595"></polygon>
        <polygon id="Star-4" fill="#FFFFFF" fill-rule="nonzero" points="31.5 26.425 29.4427516 27.3315595 29.6692162 25.0948577 28.1713022 23.4184405 30.3685134 22.9426423 31.5 21 32.6314866 22.9426423 34.8286978 23.4184405 33.3307838 25.0948577 33.5572484 27.3315595"></polygon>
    </g>
</svg>