<?xml version="1.0" encoding="UTF-8"?>
<svg width="50px" height="50px" viewBox="0 0 50 50" version="1.1" xmlns="http://www.w3.org/2000/svg" xmlns:xlink="http://www.w3.org/1999/xlink">
    <title>bo-icon-custom-vaucher</title>
    <g id="bo-icon-custom-vaucher" stroke="none" stroke-width="1" fill="none" fill-rule="evenodd">
        <rect id="Rectangle" x="0" y="0" width="50" height="50"></rect>
        <path d="M10,1 L28,1 L28,1 L28,11 C28,12.1045695 28.8954305,13 30,13 L40,13 L40,13 L40,39 C40,41.7614237 37.7614237,44 35,44 L10,44 C7.23857625,44 5,41.7614237 5,39 L5,6 C5,3.23857625 7.23857625,1 10,1 Z" id="Rectangle-2" fill="#365A77" fill-rule="nonzero"></path>
        <rect id="Rectangle-87" fill="#FFFFFF" fill-rule="nonzero" x="9" y="7" width="15" height="3" rx="1"></rect>
        <path d="M30,1 L40,11 L31,11 C30.4477153,11 30,10.5522847 30,10 L30,1 L30,1 Z" id="Rectangle-85" fill="#365A77" fill-rule="nonzero"></path>
        <circle id="Oval-34" fill="#FFFFFF" fill-rule="nonzero" cx="36" cy="33" r="3"></circle>
        <circle id="Oval-34" fill="#FFFFFF" fill-rule="nonzero" cx="33" cy="37" r="3"></circle>
        <path d="M39,29 C33.4777604,29 29,33.4777604 29,39 C29,44.5222396 33.4777604,49 39,49 C39.9222396,49 40.6666667,48.2555729 40.6666667,47.3333333 C40.6666667,46.9 40.5055729,46.5110938 40.2333333,46.2166667 C39.9722396,45.9222396 39.8166667,45.5389062 39.8166667,45.1110938 C39.8166667,44.1888542 40.5610937,43.4444271 41.4833333,43.4444271 L43.4444271,43.4444271 C46.5110938,43.4444271 49,40.9555208 49,37.8888542 C49,32.9777604 44.5222396,29 39,29 Z M32.8889062,39 C31.9666667,39 31.2222396,38.2555729 31.2222396,37.3333333 C31.2222396,36.4110937 31.9666667,35.6666667 32.8889062,35.6666667 C33.8111458,35.6666667 34.5555729,36.4110937 34.5555729,37.3333333 C34.5555729,38.2555729 33.8110937,39 32.8889062,39 Z M36.2222396,34.5555729 C35.3,34.5555729 34.5555729,33.8111458 34.5555729,32.8889062 C34.5555729,31.9666667 35.3,31.2222396 36.2222396,31.2222396 C37.1444792,31.2222396 37.8889063,31.9666667 37.8889063,32.8889062 C37.8889063,33.8111458 37.1444271,34.5555729 36.2222396,34.5555729 Z M41.7777604,34.5555729 C40.8555208,34.5555729 40.1110938,33.8111458 40.1110938,32.8889062 C40.1110938,31.9666667 40.8555208,31.2222396 41.7777604,31.2222396 C42.7,31.2222396 43.4444271,31.9666667 43.4444271,32.8889062 C43.4444271,33.8111458 42.7,34.5555729 41.7777604,34.5555729 Z M45.1110938,39 C44.1888542,39 43.4444271,38.2555729 43.4444271,37.3333333 C43.4444271,36.4110937 44.1888542,35.6666667 45.1110938,35.6666667 C46.0333333,35.6666667 46.7777604,36.4110937 46.7777604,37.3333333 C46.7777604,38.2555729 46.0333333,39 45.1110938,39 Z" id="Shape" fill="#94ACBE" fill-rule="nonzero"></path>
        <rect id="Rectangle-87" fill="#FFFFFF" fill-rule="nonzero" x="9" y="22" width="20" height="2" rx="1"></rect>
        <rect id="Rectangle-87" fill="#FFFFFF" fill-rule="nonzero" x="9" y="18" width="24" height="2" rx="1"></rect>
        <circle id="Oval-38" stroke="#FFFFFF" stroke-width="2" fill-rule="nonzero" cx="13.5" cy="35.5" r="3.5"></circle>
    </g>
</svg>