<?xml version="1.0" encoding="UTF-8"?>
<svg width="50px" height="50px" viewBox="0 0 50 50" version="1.1" xmlns="http://www.w3.org/2000/svg" xmlns:xlink="http://www.w3.org/1999/xlink">
    <title>bo-icon-hryvna</title>
    <g id="bo-icon-hryvna" stroke="none" stroke-width="1" fill="none" fill-rule="evenodd">
        <rect id="Rectangle" x="0" y="0" width="50" height="50"></rect>
        <rect id="Rectangle-89" fill-rule="nonzero" x="0" y="0" width="50" height="50"></rect>
        <g id="hryvna" fill-rule="nonzero">
            <g id="Group" fill="#365A77" stroke="#365A77" stroke-width="2">
                <path d="M22.5,1 C26.4713773,1 30.1910848,2.07621564 33.3826969,3.95415068 C34.7033898,4.73077081 35.9336964,5.64428684 37.0550498,6.67782805 C41.3243159,10.6048508 44,16.2404448 44,22.5 C44,28.4370714 41.5935362,33.8120717 37.7028039,37.7028039 C33.8120717,41.5935362 28.4370714,44 22.5,44 C16.2403577,44 10.6055843,41.3251221 6.67651635,37.0555408 C5.64431899,35.9346939 4.73063977,34.7032364 3.95326224,33.3827478 C2.07629099,30.1904049 1,26.4706107 1,22.5 C1,16.5629286 3.40646383,11.1879283 7.29719607,7.29719607 C11.1879283,3.40646383 16.5629286,1 22.5,1 Z" id="Shape"></path>
            </g>
            <path d="M30.513826,23.4271602 L24.0046528,23.4271602 C25.1044893,22.9013336 26.2089035,22.3353931 27.1568966,21.5729174 L30.513904,21.5729174 C31.3330203,21.5729174 31.997034,20.9089033 31.997034,20.089787 C31.997034,19.2706707 31.3330203,18.6066566 30.513904,18.6066566 L29.2585735,18.6066566 C29.4124342,18.0943307 29.4901792,17.5556242 29.4901792,16.9916234 C29.4901792,13.1364154 26.3537638,10 22.4984782,10 C19.6824314,10 17.1539327,11.6759412 16.0568895,14.2696931 C15.7377623,15.0240994 16.0907186,15.8943474 16.845125,16.2134746 C17.5995313,16.5325241 18.4697793,16.179723 18.7889064,15.4252391 C19.4207208,13.9314788 20.8767723,12.9662608 22.4984782,12.9662608 C24.7180917,12.9662608 26.5238408,14.7720099 26.5238408,16.9915458 C26.5238408,17.6226618 26.330642,18.1432899 25.967987,18.606579 L14.48313,18.606579 C13.6640137,18.606579 13,19.2705931 13,20.0897094 C13,20.9088257 13.6640137,21.5728398 14.48313,21.5728398 L20.9857085,21.5728398 C20.0125763,22.0396981 18.8822471,22.631864 17.9015887,23.4270826 L14.48313,23.4270826 C13.6640137,23.4270826 13,24.0910967 13,24.910213 C13,25.7293293 13.6640137,26.3933434 14.48313,26.3933434 L15.7501767,26.3933434 C15.5943762,26.8875909 15.5067773,27.4242025 15.5067773,28.0083766 C15.5067773,31.8635846 18.6431927,35 22.4984007,35 C23.9276837,35 25.3024986,34.5712384 26.4741057,33.7601914 C27.6171597,32.9690075 28.4909769,31.8696366 29.0010527,30.581024 C29.3025669,29.8194018 28.9295924,28.9576111 28.1679702,28.6560969 C27.4064256,28.3545826 26.5445573,28.7275571 26.2430431,29.4891793 C25.6310918,31.0349248 24.1611516,32.0337392 22.4983231,32.0337392 C20.2787872,32.0337392 18.4730381,30.2279901 18.4730381,28.0084542 C18.4730381,27.4005375 18.7028593,26.8704435 19.0933691,26.393421 L30.513748,26.393421 C31.3328643,26.393421 31.997034,25.7294069 31.997034,24.9102906 C31.997034,24.0911743 31.3329423,23.4271602 30.513826,23.4271602 Z" id="Shape" fill="#FFFFFF"></path>
        </g>
        <rect id="Rectangle-73" fill="#94ACBE" fill-rule="nonzero" x="31" y="36" width="18" height="4" rx="2"></rect>
        <rect id="Rectangle-4" fill="#FFFFFF" fill-rule="nonzero" x="33" y="40" width="14" height="1"></rect>
        <rect id="Rectangle-73" fill="#94ACBE" fill-rule="nonzero" x="32" y="41" width="18" height="4" rx="2"></rect>
        <rect id="Rectangle-73" fill="#94ACBE" fill-rule="nonzero" x="31" y="46" width="18" height="4" rx="2"></rect>
    </g>
</svg>