<?xml version="1.0" encoding="UTF-8"?>
<svg width="50px" height="50px" viewBox="0 0 50 50" version="1.1" xmlns="http://www.w3.org/2000/svg" xmlns:xlink="http://www.w3.org/1999/xlink">
    <title>bo-icon-personal-space</title>
    <g id="bo-icon-personal-space" stroke="none" stroke-width="1" fill="none" fill-rule="evenodd">
        <rect id="Rectangle" x="0" y="0" width="50" height="50"></rect>
        <rect id="Rectangle-2" fill="#365A77" fill-rule="nonzero" x="7" y="39" width="30" height="5" rx="2"></rect>
        <rect id="Rectangle-2" fill="#365A77" fill-rule="nonzero" x="17" y="36" width="10" height="8"></rect>
        <rect id="Rectangle-2" fill="#365A77" fill-rule="nonzero" x="1" y="1" width="43" height="35" rx="5"></rect>
        <circle id="Oval-32" fill="#FFFFFF" fill-rule="nonzero" cx="6.5" cy="6.5" r="2.5"></circle>
        <circle id="Oval-32" fill="#FFFFFF" fill-rule="nonzero" cx="13.5" cy="6.5" r="2.5"></circle>
        <circle id="Oval-32" fill="#FFFFFF" fill-rule="nonzero" cx="20.5" cy="6.5" r="2.5"></circle>
        <rect id="Rectangle" fill="#94ACBE" x="31" y="38" width="18" height="12" rx="2"></rect>
        <g id="Group-2" transform="translate(34.000000, 31.000000)">
            <polygon id="Rectangle" fill="#FFFFFF" points="2 2 10 2 10 7 2 7"></polygon>
            <path d="M6,1 C7.38071187,1 8.63071187,1.55964406 9.53553391,2.46446609 C10.4403559,3.36928813 11,4.61928813 11,6 L11,6 L11,11 L1,11 L1,6 C1,4.61928813 1.55964406,3.36928813 2.46446609,2.46446609 C3.36928813,1.55964406 4.61928813,1 6,1 Z" id="Oval" stroke="#94ACBE" stroke-width="2"></path>
        </g>
        <g id="Group" transform="translate(38.000000, 41.000000)" fill="#FFFFFF">
            <circle id="Oval" cx="2" cy="2" r="2"></circle>
            <rect id="Rectangle" x="1" y="3" width="2" height="3"></rect>
        </g>
    </g>
</svg>