<svg xmlns="http://www.w3.org/2000/svg" width="50" height="50" viewBox="0 0 50 50">
  <g fill="none" fill-rule="evenodd">
    <path fill="#365A77" fill-rule="nonzero" stroke="#365A77" stroke-width="2" d="M44,22.5 C44,16.4057275 41.4517405,10.7220605 37.054311,6.67714772 C35.9314513,5.64221751 34.7007655,4.72922761 33.3824682,3.95401615 C30.1116111,2.02945355 26.382587,1 22.5,1 C10.6258562,1 1,10.6258562 1,22.5 C1,26.3812968 2.02925135,30.1104001 3.95298202,33.3822715 C4.72977907,34.7017744 5.64318806,35.9334658 6.67675894,37.0558044 C10.7229035,41.4526087 16.4056707,44 22.5,44 C34.3741438,44 44,34.3741438 44,22.5 Z"/>
    <g fill="#FFF" fill-rule="nonzero" transform="translate(12 12)">
      <path d="M4.66666667 9.33333333C7.24033333 9.33333333 9.33333333 7.24033333 9.33333333 4.66666667 9.33333333 2.093 7.24033333 0 4.66666667 0 2.093 0 0 2.093 0 4.66666667 0 7.24033333 2.093 9.33333333 4.66666667 9.33333333zM4.66666667 2.33333333C5.9535 2.33333333 7 3.37983333 7 4.66666667 7 5.9535 5.9535 7 4.66666667 7 3.37983333 7 2.33333333 5.9535 2.33333333 4.66666667 2.33333333 3.37983333 3.37983333 2.33333333 4.66666667 2.33333333zM21 16.3333333C21 13.7596667 18.907 11.6666667 16.3333333 11.6666667 13.7596667 11.6666667 11.6666667 13.7596667 11.6666667 16.3333333 11.6666667 18.907 13.7596667 21 16.3333333 21 18.907 21 21 18.907 21 16.3333333zM14 16.3333333C14 15.0465 15.0465 14 16.3333333 14 17.6201667 14 18.6666667 15.0465 18.6666667 16.3333333 18.6666667 17.6201667 17.6201667 18.6666667 16.3333333 18.6666667 15.0465 18.6666667 14 17.6201667 14 16.3333333z"/>
      <polygon points="-2.702 9.334 23.692 9.334 23.692 11.667 -2.702 11.667" transform="rotate(-45 10.495 10.5)"/>
    </g>
    <g fill-rule="nonzero" transform="translate(29 34)">
      <path fill="#94ACBE" d="M3,0 L17,0 C18.6568542,-3.04359188e-16 20,1.34314575 20,3 L20,4 L11,4 C9.34314575,4 8,5.34314575 8,7 L8,9 C8,10.6568542 9.34314575,12 11,12 L20,12 L20,13 C20,14.6568542 18.6568542,16 17,16 L3,16 C1.34314575,16 2.02906125e-16,14.6568542 0,13 L0,3 C-2.02906125e-16,1.34314575 1.34314575,3.04359188e-16 3,0 Z"/>
      <path fill="#94ACBE" d="M11,5 L19,5 C20.1045695,5 21,5.8954305 21,7 L21,9 C21,10.1045695 20.1045695,11 19,11 L11,11 C9.8954305,11 9,10.1045695 9,9 L9,7 C9,5.8954305 9.8954305,5 11,5 Z"/>
      <circle cx="12" cy="8" r="1" fill="#FFF"/>
    </g>
  </g>
</svg>
