<?xml version="1.0" encoding="UTF-8"?>
<svg width="50px" height="50px" viewBox="0 0 50 50" version="1.1" xmlns="http://www.w3.org/2000/svg" xmlns:xlink="http://www.w3.org/1999/xlink">
    <title>bo-icon-additional-services</title>
    <g id="bo-icon-additional-services" stroke="none" stroke-width="1" fill="none" fill-rule="evenodd">
        <rect id="Rectangle" x="0" y="0" width="50" height="50"></rect>
        <path d="M22.5,1 C26.4713773,1 30.1910848,2.07621564 33.3826969,3.95415068 C34.7033898,4.73077081 35.9336964,5.64428684 37.0550498,6.67782805 C41.3243159,10.6048508 44,16.2404448 44,22.5 C44,28.4370714 41.5935362,33.8120717 37.7028039,37.7028039 C33.8120717,41.5935362 28.4370714,44 22.5,44 C16.2403577,44 10.6055843,41.3251221 6.67651635,37.0555408 C5.64431899,35.9346939 4.73063977,34.7032364 3.95326224,33.3827478 C2.07629099,30.1904049 1,26.4706107 1,22.5 C1,16.5629286 3.40646383,11.1879283 7.29719607,7.29719607 C11.1879283,3.40646383 16.5629286,1 22.5,1 Z" id="Shape" stroke="#365A77" stroke-width="2" fill="#365A77" fill-rule="nonzero"></path>
        <rect id="Rectangle" fill="#FFFFFF" x="22" y="12" width="2" height="22"></rect>
        <rect id="Rectangle" fill="#FFFFFF" x="12" y="22" width="22" height="2"></rect>
        <g id="tag" transform="translate(30.000000, 30.000000)" fill="#94ACBE" fill-rule="nonzero">
            <path d="M17.9166349,1.47413828e-05 L12.630662,1.47413828e-05 C11.635289,-0.00278291661 10.6801123,0.392732807 9.978105,1.09837192 L0.710405888,10.3669167 C-0.236801963,11.3150607 -0.236801963,12.8513414 0.710405888,13.7994853 L6.19970351,19.2895952 C7.14784888,20.2368016 8.68413189,20.2368016 9.63227726,19.2895952 L18.9016561,10.0210895 C19.6025305,9.31623161 19.9972265,8.36340005 20,7.36935673 L20,2.08343069 C20,0.932821735 19.0672456,1.47413828e-05 17.9166349,1.47413828e-05 Z M15.4165812,6.66684268 C14.2659706,6.66684268 13.3332161,5.73408965 13.3332161,4.58348069 C13.3332161,3.43287174 14.2659706,2.50007965 15.4165812,2.50007965 C16.5671919,2.50007965 17.4999463,3.43283268 17.4999463,4.58344163 C17.4999463,5.73405058 16.5671919,6.66684268 15.4165812,6.66684268 Z" id="Shape"></path>
        </g>
    </g>
</svg>