<?xml version="1.0" encoding="UTF-8"?>
<svg width="50px" height="50px" viewBox="0 0 50 50" version="1.1" xmlns="http://www.w3.org/2000/svg" xmlns:xlink="http://www.w3.org/1999/xlink">
    <title>bo-icon-clients</title>
    <g id="bo-icon-clients" stroke="none" stroke-width="1" fill="none" fill-rule="evenodd">
        <rect id="Rectangle" x="0" y="0" width="50" height="50"></rect>
        <path d="M22.5,1 C26.4713773,1 30.1910848,2.07621564 33.3826969,3.95415068 C34.7033898,4.73077081 35.9336964,5.64428684 37.0550498,6.67782805 C41.3243159,10.6048508 44,16.2404448 44,22.5 C44,28.4370714 41.5935362,33.8120717 37.7028039,37.7028039 C33.8120717,41.5935362 28.4370714,44 22.5,44 C16.2403577,44 10.6055843,41.3251221 6.67651635,37.0555408 C5.64431899,35.9346939 4.73063977,34.7032364 3.95326224,33.3827478 C2.07629099,30.1904049 1,26.4706107 1,22.5 C1,16.5629286 3.40646383,11.1879283 7.29719607,7.29719607 C11.1879283,3.40646383 16.5629286,1 22.5,1 Z" id="Shape" stroke="#365A77" stroke-width="2" fill="#365A77" fill-rule="nonzero"></path>
        <circle id="Oval" stroke="#FFFFFF" stroke-width="2" cx="22.5" cy="16.5" r="4.5"></circle>
        <circle id="Oval" stroke="#FFFFFF" stroke-width="2" cx="22.5" cy="29.5" r="8.5"></circle>
        <rect id="Rectangle" fill="#365A77" x="13" y="31" width="19" height="12"></rect>
        <rect id="Rectangle" fill="#FFFFFF" x="30" y="38" width="8" height="4"></rect>
        <rect id="Rectangle" fill="#FFFFFF" x="37" y="33" width="6" height="4"></rect>
        <g id="briefcase" transform="translate(30.000000, 32.000000)" fill="#94ACBE" fill-rule="nonzero">
            <path d="M18.3333203,2.996055 L14.99668,2.996055 L14.99668,1.69269531 C14.99668,0.773515625 14.2492188,0.026015625 13.33,0.026015625 L6.67,0.026015625 C5.75082031,0.026015625 5.00332,0.773476563 5.00332,1.69269531 L5.00332,2.996016 L1.66667969,2.996016 C0.747460938,2.99605506 0,3.74351531 0,4.662695 L0,6.332695 C0,7.25191375 0.747460938,7.999375 1.66667969,7.999375 L8.33335938,7.999375 L8.33335938,7.582695 C8.33335938,7.3523825 8.51972656,7.166016 8.75003906,7.166016 L11.2500391,7.166016 C11.4803516,7.166016 11.6667188,7.3523825 11.6667188,7.582695 L11.6667188,7.999375 L18.3333984,7.999375 C19.2525391,7.999375 20,7.25191375 20,6.332695 L20,4.662695 C20,3.74351531 19.2525391,2.996055 18.3333203,2.996055 Z M13,2.996055 L7,2.996055 L7,2 L13,2 L13,2.996055 Z" id="Shape"></path>
            <path d="M19.7688672,8.618984 C19.626875,8.54859337 19.4571875,8.56488269 19.3318359,8.660078 C19.035625,8.88429675 18.6905469,9.002695 18.3332813,9.002695 L11.6666797,9.002695 L11.6666797,10.4426953 C11.6666797,10.6730078 11.4803125,10.859375 11.25,10.859375 L8.75,10.859375 C8.5196875,10.859375 8.33332031,10.6730078 8.33332031,10.4426953 L8.33332031,9.002695 L1.66667969,9.002695 C1.30941406,9.002695 0.964375,8.88429675 0.668125,8.660078 C0.542382812,8.56406238 0.373125,8.54777306 0.23109375,8.618984 C0.08953125,8.68941369 0,8.83382769 0,8.992148 L0,15.336055 C0,16.2552347 0.747460938,17.002734 1.66667969,17.002734 L18.3333594,17.002734 C19.2525391,17.002734 20.0000391,16.2552737 20.0000391,15.336055 L20.0000391,8.992148 C20.0000391,8.83382769 19.9104688,8.68941369 19.7688672,8.618984 Z" id="Path"></path>
        </g>
    </g>
</svg>