<?xml version="1.0" encoding="UTF-8"?>
<svg width="50px" height="50px" viewBox="0 0 50 50" version="1.1" xmlns="http://www.w3.org/2000/svg" xmlns:xlink="http://www.w3.org/1999/xlink">
    <title>bo-icon-notifications</title>
    <g id="bo-icon-notifications" stroke="none" stroke-width="1" fill="none" fill-rule="evenodd">
        <rect id="Rectangle" x="0" y="0" width="50" height="50"></rect>
        <rect id="Rectangle" fill="#365A77" x="0" y="6" width="45" height="33" rx="5"></rect>
        <path d="M-3.52452844e-05,6.559 L21.8249865,26.5270636 C22.1752568,26.8475236 22.6966814,26.8742286 23.0754775,26.6071786 L23.1750135,26.5270636 L44.9999648,6.56 L44.9999648,9.269 L30.7139648,22.3401946 L44.9999648,34.993 L44.9999648,37.665 L29.515,23.9513162 L24.5413533,28.5704148 L24.3942849,28.6984512 C23.293073,29.596562 21.706927,29.596562 20.6057151,28.6984512 L20.4586467,28.5704148 L15.484,23.9523162 L-3.52452844e-05,37.666 L-3.52452844e-05,34.994 L14.2859648,22.3401946 L-3.52452844e-05,9.269 L-3.52452844e-05,6.559 Z" id="Combined-Shape" fill="#FFFFFF" fill-rule="nonzero"></path>
        <g id="bell-(1)" transform="translate(34.000000, 32.000000)" fill="#94ACBE" fill-rule="nonzero">
            <path d="M15.2244922,13.9939062 L0.601914062,13.9939062 C0.325273437,13.9939062 0.071875,13.8073437 0.0143359375,13.5367187 C-0.0426171875,13.2687891 0.0794921875,13.0043359 0.327226562,12.8898828 C0.386015625,12.8517578 0.828515625,12.5423437 1.27152344,11.6062109 C2.08515625,9.88707031 2.2559375,7.46539062 2.2559375,5.7365625 C2.2559375,2.61722656 4.79371094,0.07953125 7.91300781,0.07953125 C11.0249219,0.07953125 13.5580078,2.605 13.5700391,5.71410156 C13.5703125,5.7215625 13.5704687,5.7290625 13.5704687,5.7365625 C13.5704687,7.46539062 13.74125,9.88707031 14.5548828,11.6062109 C14.9978906,12.5423437 15.4403516,12.8517969 15.4991797,12.8898828 C15.7469141,13.0043359 15.8690625,13.26875 15.8120703,13.5367187 C15.7545312,13.8073047 15.5011719,13.9939062 15.2244922,13.9939062 Z" id="Shape"></path>
        </g>
        <path d="M42,50 C43.6568542,50 45,48.6568542 45,47 L39,47 C39,48.6568542 40.3431458,50 42,50 Z" id="Oval" fill="#94ACBE"></path>
    </g>
</svg>