<svg xmlns="http://www.w3.org/2000/svg" width="50" height="50" viewBox="0 0 50 50">
  <g fill="none" fill-rule="evenodd">
    <path fill="#365A77" fill-rule="nonzero" d="M9,39 L31,39 L31,44 L9,44 C7.8954305,44 7,43.1045695 7,42 L7,41 C7,39.8954305 7.8954305,39 9,39 Z"/>
    <rect width="10" height="8" x="17" y="36" fill="#365A77" fill-rule="nonzero"/>
    <rect width="43" height="35" x="1" y="1" fill="#365A77" fill-rule="nonzero" rx="5"/>
    <circle cx="6.5" cy="6.5" r="2.5" fill="#FFF" fill-rule="nonzero"/>
    <circle cx="13.5" cy="6.5" r="2.5" fill="#FFF" fill-rule="nonzero"/>
    <circle cx="20.5" cy="6.5" r="2.5" fill="#FFF" fill-rule="nonzero"/>
    <path fill="#FFF" d="M2.94414328,9.74544972 C2.62569501,10.0279863 0.682484636,12.1459091 0.462375941,12.2985631 C0.242267245,12.451217 1.66997291e-17,12.4465304 0,12.0190993 L0,0 C0,0 8.80434783,8.46315645 8.80434783,8.46315645 C8.80434783,8.46315645 9.24456522,8.86082002 8.80434783,8.86082002 C8.36413043,8.86082002 5.78704237,8.86082002 5.2826087,8.86082002 C4.77817502,8.86082002 5.07110409,9.30464271 5.07110409,9.30464271 C5.07110409,9.30464271 6.67618262,12.3694133 6.86517732,12.78787 C7.05417202,13.2063267 7.08896744,13.8793466 6.56661191,14.0473099 C6.04425639,14.2152732 5.75272999,14.2177342 5.33443749,13.5869707 C4.91614499,12.9562073 3.38436067,9.74544972 3.38436067,9.74544972 C3.38436067,9.74544972 3.26259155,9.46291318 2.94414328,9.74544972 Z" transform="translate(29 17)"/>
    <path fill="#94ACBE" fill-rule="nonzero" d="M19.2679949 11.1974114C19.7502246 10.6464486 19.9914315 9.99489716 19.9914315 9.24261926 19.9914315 8.56041794 19.7411954 7.97012035 19.2424277 7.47131291 18.7426466 6.97255142 18.1508695 6.72330853 17.4669584 6.72330853L13.8238858 6.72330853C13.8588967 6.60089278 13.8939998 6.49593873 13.9290107 6.40849234 13.9636992 6.32104595 14.0124381 6.22473085 14.073569 6.11977681 14.1347461 6.01477681 14.1787401 5.93601532 14.2049522 5.8836302 14.3627318 5.58641357 14.4835195 5.3413523 14.5669008 5.14908972 14.650144 4.95645952 14.7330185 4.6941663 14.8165841 4.3617965 14.9000115 4.0296105 14.9414718 3.69710284 14.9414718 3.36473304 14.9414718 3.15491685 14.9389382 2.98420569 14.9347921 2.85310503 14.9306922 2.72191247 14.9083496 2.5250547 14.8692387 2.26262363 14.829529 2.00033042 14.7768283 1.78164551 14.7112288 1.60679869 14.645353 1.43190591 14.5400438 1.23495624 14.3956236 1.01645514 14.250881.797540481 14.075596.620671772 13.8693539.485021882 13.6631579.349463895 13.4002073.235778993 13.0801797.144013129 12.7598296.0521553611 12.3983416.00624945295 11.9947484.00624945295 11.7668087.00624945295 11.5696879.0893763676 11.4029253.255584245 11.2275941.430477024 11.0782909.649115974 10.9556605.91140919 10.8328458 1.17384026 10.7472993 1.40125602 10.6990211 1.59374836 10.6507889 1.7861488 10.5959231 2.05299125 10.5347921 2.394 10.4556029 2.76152298 10.3966832 3.02592998 10.3569734 3.18772648 10.3175861 3.34952298 10.2406542 3.56159081 10.1267765 3.82392998 10.0126684 4.08645295 9.8769089 4.29622319 9.7190372 4.45374617 9.42973627 4.74232385 8.98698606 5.26714004 8.39060233 6.02801094 7.96084303 6.5877046 7.51809283 7.11684026 7.06216745 7.61541794 6.60614995 8.11408753 6.27299321 8.37206127 6.06260509 8.38956893 5.84355637 8.40703063 5.65500403 8.49668271 5.49713233 8.65857112 5.33926062 8.82036761 5.26034781 9.01065427 5.26034781 9.22924726L5.26034781 17.6388972C5.26034781 17.8663129 5.34359092 18.0608271 5.51021536 18.2226236 5.67674767 18.3846039 5.87405275 18.4698446 6.10203847 18.4786214 6.40889094 18.4873982 7.10160083 18.6796149 8.18016814 19.0560525 8.85523437 19.2831007 9.3834389 19.4561094 9.76487389 19.5740219 10.1462167 19.6919344 10.6792583 19.8188534 11.3626627 19.9545952 12.046712 20.0901072 12.6779224 20.15807 13.2564782 20.15807L13.4801336 20.15807 14.4797881 20.15807 14.9531729 20.15807C16.1196361 20.1406083 16.9829322 19.7993698 17.544305 19.134814 18.0527007 18.5312363 18.2674191 17.7396696 18.1887827 16.7600678 18.5306922 16.4364748 18.7676149 16.0255733 18.898952 15.5269037 19.0477945 14.9936783 19.0477945 14.4819584 18.898952 13.9922495 19.3022227 13.4587024 19.4907751 12.8595821 19.4642865 12.1948425 19.4653921 11.914674 19.3997927 11.5823961 19.2679949 11.1974114zM3.56280485 8.40294092L.647898721 8.40294092C.472346386 8.40294092.320510633 8.48606783.19232056 8.65227571.0641304873 8.81839168 0 9.0152035 0 9.24261926L0 17.6394945C0 17.8665886.0641304873 18.0634923.192356011 18.2298381.320652436 18.3957702.472488189 18.4789431.647934171 18.4789431L3.56280485 18.4789431C3.73821538 18.4789431 3.88998023 18.3957702 4.01824121 18.2298381 4.14643128 18.0634923 4.21052632 17.8666346 4.21052632 17.6394945L4.21052632 9.24261926C4.21052632 9.0152035 4.14639583 8.81843764 4.01824121 8.65227571 3.89001568 8.48602188 3.73825083 8.40294092 3.56280485 8.40294092zM2.84530832 11.2465441C2.63699419 11.4488672 2.39031247 11.55 2.10520555 11.55 1.80909531 11.55 1.55959075 11.4488672 1.35686469 11.2465441 1.15402341 11.044221 1.05263158 10.7954687 1.05263158 10.5001149 1.05263158 10.2157938 1.1539658 9.96962732 1.35686469 9.76190281 1.55964835 9.55406337 1.80909531 9.45 2.10520555 9.45 2.39031247 9.45 2.63699419 9.55406337 2.84530832 9.76190281 3.05368006 9.96956986 3.15789474 10.2157363 3.15789474 10.5001149 3.15789474 10.7954687 3.0539105 11.0441635 2.84530832 11.2465441z" transform="translate(30 29)"/>
  </g>
</svg>
