<?xml version="1.0" encoding="UTF-8"?>
<svg width="30px" height="30px" viewBox="0 0 30 30" version="1.1" xmlns="http://www.w3.org/2000/svg" xmlns:xlink="http://www.w3.org/1999/xlink">
    <title>bo-icon-small-download</title>
    <g id="bo-icon-small-download" stroke="none" stroke-width="1" fill="none" fill-rule="evenodd">
        <rect id="Rectangle" x="0" y="0" width="30" height="30"></rect>
        <path d="M10,5 L16,5 L16,5 L16,10 C16,11.1045695 16.8954305,12 18,12 L23,12 L23,12 L23,22 C23,23.6568542 21.6568542,25 20,25 L10,25 C8.34314575,25 7,23.6568542 7,22 L7,8 C7,6.34314575 8.34314575,5 10,5 Z" id="Rectangle-2" fill="#BADBDD" fill-rule="nonzero"></path>
        <path d="M18,5 L23,10 L19,10 C18.4477153,10 18,9.55228475 18,9 L18,5 L18,5 Z" id="Rectangle-85" fill="#BADBDD" fill-rule="nonzero"></path>
        <path d="M19,16 C19.5522847,16 20,16.4477153 20,17 L20,23.38 L20,23.38 L21.8332618,21.5435165 C22.2231006,21.1529925 22.8557097,21.1524371 23.2462337,21.542276 C23.2464407,21.5424825 23.2466475,21.5426892 23.2468542,21.542896 C23.6373785,21.9334202 23.6373785,22.5665852 23.2468542,22.9571095 L19.7113203,26.4926434 C19.320726,26.883008 18.6876496,26.8830594 18.2969919,26.4927583 L14.7600792,22.9569946 C14.3695549,22.5665972 14.369452,21.9335351 14.7598494,21.5430108 C14.7598877,21.5429725 14.759926,21.5429342 14.7599643,21.542896 C15.1496218,21.1532385 15.7813813,21.1532385 16.1710388,21.542896 C16.1715614,21.5434185 16.1720834,21.5439417 16.1726048,21.5444655 L18,23.38 L18,23.38 L18,17 C18,16.4477153 18.4477153,16 19,16 Z" id="Rectangle" fill="#169DA7"></path>
        <path d="M14,26 C14.5522847,26 15,26.4477153 15,27 L15,28 L15,28 L23,28 L23,27 C23,26.4477153 23.4477153,26 24,26 C24.5522847,26 25,26.4477153 25,27 L25,28 C25,29.1045695 24.1045695,30 23,30 L15,30 C13.8954305,30 13,29.1045695 13,28 L13,27 C13,26.4477153 13.4477153,26 14,26 Z" id="Rectangle" fill="#169DA7"></path>
    </g>
</svg>