<?xml version="1.0" encoding="UTF-8"?>
<svg width="50px" height="50px" viewBox="0 0 50 50" version="1.1" xmlns="http://www.w3.org/2000/svg" xmlns:xlink="http://www.w3.org/1999/xlink">
    <title>bo-icon-sales-channels</title>
    <g id="bo-icon-sales-channels" stroke="none" stroke-width="1" fill="none" fill-rule="evenodd">
        <rect id="Rectangle" x="0" y="0" width="50" height="50"></rect>
        <path d="M22.5,1 C26.4713773,1 30.1910848,2.07621564 33.3826969,3.95415068 C34.7033898,4.73077081 35.9336964,5.64428684 37.0550498,6.67782805 C41.3243159,10.6048508 44,16.2404448 44,22.5 C44,28.4370714 41.5935362,33.8120717 37.7028039,37.7028039 C33.8120717,41.5935362 28.4370714,44 22.5,44 C16.2403577,44 10.6055843,41.3251221 6.67651635,37.0555408 C5.64431899,35.9346939 4.73063977,34.7032364 3.95326224,33.3827478 C2.07629099,30.1904049 1,26.4706107 1,22.5 C1,16.5629286 3.40646383,11.1879283 7.29719607,7.29719607 C11.1879283,3.40646383 16.5629286,1 22.5,1 Z" id="Shape" stroke="#365A77" stroke-width="2" fill="#365A77" fill-rule="nonzero"></path>
        <circle id="Oval" stroke="#FFFFFF" stroke-width="2" cx="35" cy="19" r="2"></circle>
        <circle id="Oval" stroke="#FFFFFF" stroke-width="2" cx="22" cy="11" r="2"></circle>
        <circle id="Oval" stroke="#FFFFFF" stroke-width="2" cx="13.5" cy="30.5" r="2.5"></circle>
        <circle id="Oval" stroke="#FFFFFF" stroke-width="2" cx="22" cy="23" r="4"></circle>
        <circle id="Oval" fill="#FFFFFF" cx="13.5" cy="18.5" r="2.5"></circle>
        <circle id="Oval" fill="#FFFFFF" cx="25.5" cy="32.5" r="2.5"></circle>
        <rect id="Rectangle" fill="#FFFFFF" x="21" y="13" width="2" height="6"></rect>
        <rect id="Rectangle" fill="#FFFFFF" transform="translate(24.200000, 28.500000) rotate(-15.000000) translate(-24.200000, -28.500000) " x="23.2000004" y="26" width="2" height="5"></rect>
        <rect id="Rectangle" fill="#FFFFFF" transform="translate(16.700000, 20.500000) rotate(-55.000000) translate(-16.700000, -20.500000) " x="15.6999995" y="18" width="2" height="5"></rect>
        <rect id="Rectangle" fill="#FFFFFF" transform="translate(17.000000, 27.000000) rotate(-132.000000) translate(-17.000000, -27.000000) " x="16" y="24" width="2" height="6"></rect>
        <rect id="Rectangle" fill="#FFFFFF" transform="translate(30.000000, 21.000000) rotate(-105.000000) translate(-30.000000, -21.000000) " x="29" y="17" width="2" height="8"></rect>
        <rect id="Rectangle-73" fill="#94ACBE" fill-rule="nonzero" x="31" y="36" width="18" height="4" rx="2"></rect>
        <rect id="Rectangle-4" fill="#FFFFFF" fill-rule="nonzero" x="33" y="40" width="14" height="1"></rect>
        <rect id="Rectangle-73" fill="#94ACBE" fill-rule="nonzero" x="32" y="41" width="18" height="4" rx="2"></rect>
        <rect id="Rectangle-73" fill="#94ACBE" fill-rule="nonzero" x="31" y="46" width="18" height="4" rx="2"></rect>
    </g>
</svg>