<svg xmlns="http://www.w3.org/2000/svg" width="50" height="41" viewBox="0 0 50 41">
  <g fill="none" transform="matrix(-1 0 0 1 50 0)">
    <polyline fill="#365A77" points="35.833 15.833 33.333 9.167 37.5 10.833 41.667 9.167 39.167 15.833"/>
    <path fill="#365A77" d="M48.3333333,37.5 L48.3333333,28.3333333 C48.3333333,22.35 43.4833333,17.5 37.5,17.5 C31.5166667,17.5 26.6666667,22.35 26.6666667,28.3333333 L26.6666667,37.5 C25.7458333,37.5 25,38.2458333 25,39.1666667 C25,40.0875 25.7458333,40.8333333 26.6666667,40.8333333 L48.3333333,40.8333333 C49.2541667,40.8333333 50,40.0875 50,39.1666667 C50,38.2458333 49.2541667,37.5 48.3333333,37.5 Z"/>
    <path fill="#94ACBE" d="M22.7616667,19.6275 C24.1691667,17.605 25,15.1508333 25,12.5 C25,5.59666667 19.4033333,0 12.5,0 C5.59666667,0 0,5.59666667 0,12.5 C0,19.4033333 5.59666667,25 12.5,25 C15.1508333,25 17.605,24.1691667 19.6275,22.7616667 L25,25 C25,25 23.8741667,22.2991667 22.7616667,19.6275 Z"/>
    <path fill="#FFF" d="M37.5,25 C38.4191667,25 39.1666667,25.7475 39.1666667,26.6666667 L40.8333333,26.6666667 C40.8333333,25.1175 39.7666667,23.8241667 38.3333333,23.4516667 L38.3333333,21.6666667 L36.6666667,21.6666667 L36.6666667,23.4516667 C35.2333333,23.8241667 34.1666667,25.1175 34.1666667,26.6666667 C34.1666667,28.505 35.6616667,30 37.5,30 C38.4191667,30 39.1666667,30.7475 39.1666667,31.6666667 C39.1666667,32.5858333 38.4191667,33.3333333 37.5,33.3333333 C36.5808333,33.3333333 35.8333333,32.5858333 35.8333333,31.6666667 L34.1666667,31.6666667 C34.1666667,33.2158333 35.2333333,34.5091667 36.6666667,34.8816667 L36.6666667,36.6666667 L38.3333333,36.6666667 L38.3333333,34.8816667 C39.7666667,34.5091667 40.8333333,33.2158333 40.8333333,31.6666667 C40.8333333,29.8283333 39.3383333,28.3333333 37.5,28.3333333 C36.5808333,28.3333333 35.8333333,27.5858333 35.8333333,26.6666667 C35.8333333,25.7475 36.5808333,25 37.5,25 Z"/>
    <polygon fill="#365A77" points="32.5 15 42.5 15 42.5 16.667 32.5 16.667"/>
    <g fill="#FFF" transform="translate(5 5)">
      <path d="M3.33333333 6.66666667C5.17166667 6.66666667 6.66666667 5.17166667 6.66666667 3.33333333 6.66666667 1.495 5.17166667 0 3.33333333 0 1.495 0 0 1.495 0 3.33333333 0 5.17166667 1.495 6.66666667 3.33333333 6.66666667zM3.33333333 1.66666667C4.2525 1.66666667 5 2.41416667 5 3.33333333 5 4.2525 4.2525 5 3.33333333 5 2.41416667 5 1.66666667 4.2525 1.66666667 3.33333333 1.66666667 2.41416667 2.41416667 1.66666667 3.33333333 1.66666667zM15 11.6666667C15 9.82833333 13.505 8.33333333 11.6666667 8.33333333 9.82833333 8.33333333 8.33333333 9.82833333 8.33333333 11.6666667 8.33333333 13.505 9.82833333 15 11.6666667 15 13.505 15 15 13.505 15 11.6666667zM10 11.6666667C10 10.7475 10.7475 10 11.6666667 10 12.5858333 10 13.3333333 10.7475 13.3333333 11.6666667 13.3333333 12.5858333 12.5858333 13.3333333 11.6666667 13.3333333 10.7475 13.3333333 10 12.5858333 10 11.6666667z"/>
      <polygon points="-1.93 6.667 16.923 6.667 16.923 8.334 -1.93 8.334" transform="rotate(-45 7.496 7.5)"/>
    </g>
  </g>
</svg>
