<svg xmlns="http://www.w3.org/2000/svg" width="50" height="50" viewBox="0 0 50 50">
  <g fill="none">
    <path fill="#365A77" d="M42.277795,49.9405093 L7.64208075,49.9405093 C3.42204969,49.9405093 0.000931677019,47.3905093 0.000931677019,44.2450231 L0.000931677019,5.69560185 C0.000931677019,2.55011574 3.42204969,0.000115740741 7.64208075,0.000115740741 L42.277795,0.000115740741 C46.4978261,0.000115740741 49.9189441,2.55011574 49.9189441,5.69560185 L49.9189441,44.2450231 C49.9189441,47.390625 46.4978261,49.9405093 42.277795,49.9405093 Z"/>
    <path fill="#FFF" d="M45.2608696,5.69571759 L45.2608696,44.2453704 C45.2608696,45.4710648 43.9223602,46.46875 42.2779503,46.46875 L7.64145963,46.46875 C5.99704969,46.46875 4.65854037,45.4710648 4.65854037,44.2453704 L4.65854037,5.69571759 C4.65854037,4.47002315 5.99704969,3.47233796 7.64145963,3.47233796 L14.2299689,3.47233796 L14.2299689,3.81493056 C14.2299689,5.55219907 16.1197205,6.96076389 18.448913,6.96076389 L31.4706522,6.96076389 C33.8013975,6.96076389 35.6895963,5.55219907 35.6895963,3.81493056 L35.6895963,3.47233796 L42.2781056,3.47233796 C43.9223602,3.47233796 45.2608696,4.47002315 45.2608696,5.69571759 Z"/>
    <path fill="#EFF5F6" d="M30.5363354,4.34039352 L19.3829193,4.34039352 C18.7395963,4.34039352 18.218323,3.95173611 18.218323,3.47233796 C18.218323,2.99293981 18.7395963,2.60428241 19.3829193,2.60428241 L30.5363354,2.60428241 C31.1796584,2.60428241 31.7009317,2.99293981 31.7009317,3.47233796 C31.7009317,3.95173611 31.1796584,4.34039352 30.5363354,4.34039352 Z"/>
    <path fill="#BADBDD" d="M20.3190994.0118055556L12.8835404.0118055556C12.2402174.0118055556 11.7189441.400462963 11.7189441.879861111 11.7189441 1.35925926 12.2402174 1.74791667 12.8835404 1.74791667L20.3192547 1.74791667C20.9625776 1.74791667 21.4838509 1.35925926 21.4838509.879861111 21.4838509.400462963 20.9624224.0118055556 20.3190994.0118055556zM24.5748447 1.74791667L32.010559 1.74791667C32.653882 1.74791667 33.1751553 1.35925926 33.1751553.879861111 33.1751553.400462963 32.653882.0118055556 32.010559.0118055556L24.5748447.0118055556C23.9315217.0118055556 23.4102484.400462963 23.4102484.879861111 23.4102484 1.35925926 23.9315217 1.74791667 24.5748447 1.74791667zM8.62779503 7.97893519L1.19208075 7.97893519C.548757764 7.97893519.027484472 8.36759259.027484472 8.84699074.027484472 9.32638889.548757764 9.7150463 1.19208075 9.7150463L8.62779503 9.7150463C9.27111801 9.7150463 9.7923913 9.32638889 9.7923913 8.84699074 9.7923913 8.36759259 9.27111801 7.97893519 8.62779503 7.97893519zM20.3190994 7.97893519L12.8835404 7.97893519C12.2402174 7.97893519 11.7189441 8.36759259 11.7189441 8.84699074 11.7189441 9.32638889 12.2402174 9.7150463 12.8835404 9.7150463L20.3192547 9.7150463C20.9625776 9.7150463 21.4838509 9.32638889 21.4838509 8.84699074 21.4838509 8.36759259 20.9624224 7.97893519 20.3190994 7.97893519zM32.0104037 7.97893519L24.5746894 7.97893519C23.9313665 7.97893519 23.4100932 8.36759259 23.4100932 8.84699074 23.4100932 9.32638889 23.9313665 9.7150463 24.5746894 9.7150463L32.0104037 9.7150463C32.6537267 9.7150463 33.175 9.32638889 33.175 8.84699074 33.175 8.36759259 32.6537267 7.97893519 32.0104037 7.97893519zM8.62779503 15.9460648L1.19208075 15.9460648C.548757764 15.9460648.027484472 16.3347222.027484472 16.8141204.027484472 17.2935185.548757764 17.6821759 1.19208075 17.6821759L8.62779503 17.6821759C9.27111801 17.6821759 9.7923913 17.2935185 9.7923913 16.8141204 9.7923913 16.3347222 9.27111801 15.9460648 8.62779503 15.9460648zM20.3190994 15.9460648L12.8835404 15.9460648C12.2402174 15.9460648 11.7189441 16.3347222 11.7189441 16.8141204 11.7189441 17.2935185 12.2402174 17.6821759 12.8835404 17.6821759L20.3192547 17.6821759C20.9625776 17.6821759 21.4838509 17.2935185 21.4838509 16.8141204 21.4838509 16.3347222 20.9624224 15.9460648 20.3190994 15.9460648z" transform="translate(8.385 19.097)"/>
    <path fill="#365A77" d="M10.0930124,20.8315972 L10.7436335,19.5582176 L15.1765528,19.5582176 L15.8200311,20.8290509 C15.9959627,21.1766204 16.4391304,21.3908565 16.9097826,21.3908565 C17.0464286,21.3908565 17.1854037,21.3728009 17.3208075,21.3347222 C17.9225155,21.1655093 18.2262422,20.6645833 17.9990683,20.216088 L14.2737578,12.8581019 C14.2698758,12.8501157 14.265528,12.8422454 14.2613354,12.834375 C14.0458075,12.4438657 13.5406832,12.1917824 12.9743789,12.1917824 C12.9737578,12.1917824 12.9732919,12.1917824 12.9726708,12.1917824 C12.4057453,12.1922454 11.9007764,12.4453704 11.6861801,12.8365741 C11.682764,12.8429398 11.6793478,12.8494213 11.676087,12.8559028 L7.91645963,20.2136574 C7.68742236,20.6616898 7.98928571,21.1631944 8.59037267,21.3337963 C9.19037267,21.5043981 9.86397516,21.2797454 10.0930124,20.8315972 Z M12.9701863,15.2006944 L14.2975155,17.8221065 L11.6307453,17.8221065 L12.9701863,15.2006944 Z"/>
  </g>
</svg>
