<svg xmlns="http://www.w3.org/2000/svg" width="50" height="50" viewBox="0 0 50 50">
  <g fill="none">
    <path fill="#365A77" stroke="#365A77" stroke-width="6" d="M47,25 C47,18.7624419 44.3937935,12.9495292 39.8913002,8.80797376 C38.7423614,7.74900662 37.4830955,6.81481443 36.133731,6.02133416 C32.7878637,4.05263581 28.9748658,3 25,3 C12.8497114,3 3,12.8497114 3,25 C3,28.9735691 4.05248867,32.7868641 6.01996646,36.1331409 C6.81525731,37.4840582 7.75028143,38.7448967 8.80854211,39.8940457 C12.9502137,44.394656 18.7622629,47 25,47 C37.1502886,47 47,37.1502886 47,25 Z"/>
    <path fill="#FFF" d="M33.0894168,25.9064125 L26.4720941,25.9064125 C27.5472583,25.3923817 28.6268976,24.8391367 29.5536246,24.0937654 L33.0894927,24.0937654 C33.890234,24.0937654 34.5393525,23.4446468 34.5393525,22.6439055 C34.5393525,21.8431642 33.890234,21.1940456 33.0894927,21.1940456 L31.6081553,21.1940456 C31.7585645,20.6932125 31.8345656,20.1665907 31.8345656,19.6152419 C31.8345656,15.8465165 28.7685083,12.7804592 24.999707,12.7804592 C22.2468315,12.7804592 19.7750537,14.4188046 18.7026201,16.9543717 C18.3906518,17.6918547 18.7356904,18.5425808 19.4731734,18.854549 C20.2106564,19.1664415 21.0613824,18.8215546 21.3733507,18.0839957 C21.9909918,16.6237445 23.4143802,15.6801789 24.999707,15.6801789 C27.1695286,15.6801789 28.93477,17.4454203 28.93477,19.6151661 C28.93477,20.2321245 28.7459052,20.7410735 28.3913854,21.1939698 L16.9099971,21.1939698 C16.1092558,21.1939698 15.4601373,21.8430883 15.4601373,22.6438296 C15.4601373,23.444571 16.1092558,24.0936895 16.9099971,24.0936895 L23.5208727,24.0936895 C22.5695704,24.5500749 21.4645975,25.1289569 20.5059378,25.9063367 L16.9099971,25.9063367 C16.1092558,25.9063367 15.4601373,26.5554552 15.4601373,27.3561965 C15.4601373,28.1569379 16.1092558,28.8060564 16.9099971,28.8060564 L18.4027877,28.8060564 C18.2504823,29.2892166 18.1648484,29.8137905 18.1648484,30.3848601 C18.1648484,34.1535856 21.2309057,37.2196429 24.9996311,37.2196429 C26.3968516,37.2196429 27.7408258,36.8004995 28.8861506,36.0076465 C30.0035628,35.2342109 30.8577779,34.1595018 31.3564114,32.8997962 C31.6511619,32.1552592 31.2865542,31.3128008 30.5420172,31.0180503 C29.7975561,30.7232998 28.9550218,31.0879075 28.6602713,31.8324445 C28.0620476,33.3435148 26.6250822,34.3199231 24.9995553,34.3199231 C22.8298095,34.3199231 21.0645681,32.5546818 21.0645681,30.384936 C21.0645681,29.7906565 21.2892338,29.2724539 21.6709835,28.8061323 L33.089341,28.8061323 C33.8900823,28.8061323 34.5392008,28.1570137 34.5392008,27.3562724 C34.5392008,26.5555311 33.8901581,25.9064125 33.0894168,25.9064125 Z"/>
  </g>
</svg>
