<svg xmlns="http://www.w3.org/2000/svg" width="48" height="47" viewBox="0 0 48 47">
  <g fill="none">
    <path fill="#365A77" d="M33.2832765,21.984915 L30.0862896,19.3927095 C30.1854036,18.4879734 30.1854036,17.5745027 30.0862896,16.6697666 L33.2861976,14.0760819 C33.8858407,13.5753213 34.0460943,12.6972117 33.6644476,12.0037967 L30.3384563,6.04249893 C29.955383,5.34471665 29.1395097,5.03999163 28.4153458,5.32421851 L24.6473155,6.8960953 C23.9392516,6.36342524 23.1807815,5.90676034 22.3835898,5.53314464 L21.8053455,1.3825869 C21.7010686,0.585765466 21.0417805,-0.00649713939 20.2662593,5.38147349e-05 L13.5998069,5.38147349e-05 C12.8307393,-0.00473613022 12.17675,0.58090508 12.0694161,1.37054159 L11.4897453,5.5330742 C10.6949991,5.91028236 9.93775183,6.36729946 9.22894068,6.89757454 L5.45072047,5.32266882 C4.73402911,5.02970733 3.91890308,5.33076946 3.54207967,6.02742469 L0.213167196,11.9992886 C-0.178737301,12.6938306 -0.0173968296,13.5815905 0.591417194,14.0805901 L3.78840411,16.6727956 C3.68833906,17.5774612 3.68833906,18.4910728 3.78840411,19.3957384 L0.588496083,21.9879439 C-0.0121660017,22.4880001 -0.173166809,23.3666028 0.208819495,24.0602291 L3.53338427,30.0230766 C3.91598197,30.7213519 4.73233079,31.0262883 5.45649476,30.741357 L9.22452505,29.1694802 C9.93320034,29.702432 10.6921459,30.15959 11.4896773,30.5339805 L12.0693482,34.6815093 C12.1713833,35.4762176 12.8265954,36.0687619 13.599739,36.0655217 L20.2661914,36.0655217 C21.0366856,36.0719318 21.6927808,35.4860792 21.8009299,34.6950339 L22.3806007,30.5325013 C23.175279,30.1551523 23.9324583,29.6981351 24.6414053,29.1680009 L28.4239053,30.7443859 C29.1405967,31.036643 29.9553151,30.7357922 30.3325461,30.03963 L33.6715806,24.043746 C34.0454149,23.3513172 33.8810854,22.4802516 33.2832765,21.984915 Z M16.9329992,25.5463799 C12.9310761,25.5463799 9.68680796,22.1824298 9.68680796,18.0327173 C9.68680796,13.8830048 12.9310082,10.5190547 16.9329992,10.5190547 C20.9349901,10.5190547 24.1791904,13.8830048 24.1791904,18.0327173 C24.1743671,22.180387 20.9329521,25.5414491 16.9329992,25.5463799 Z"/>
    <path fill="#94ACBE" d="M46.7737126,38.9060192 L44.9468629,37.4331751 C45.0034995,36.9191205 45.0034995,36.4001031 44.9468629,35.8860485 L46.7753818,34.412364 C47.118035,34.127841 47.2096085,33.628915 46.9915247,33.2349293 L45.0909582,29.8478282 C44.8720592,29.451361 44.4058459,29.2782218 43.9920379,29.4397144 L41.8388777,30.3328262 C41.4342698,30.0301727 41.0008583,29.770704 40.5453202,29.5584224 L40.2148949,27.2001509 C40.1553081,26.7474115 39.778572,26.4108986 39.3354171,26.4146208 L35.5260157,26.4146208 C35.0865485,26.4118992 34.7128403,26.7446499 34.6515067,27.193307 L34.3202662,29.5583824 C33.8661255,29.7727052 33.4334128,30.032374 33.0283778,30.3336666 L30.8693949,29.4388339 C30.4598569,29.2723785 29.9940706,29.4434365 29.778743,29.8392633 L27.8765073,33.2323678 C27.6525618,33.6269939 27.7447564,34.131403 28.0926501,34.4149255 L29.9194998,35.8877695 C29.8623198,36.4017841 29.8623198,36.9208816 29.9194998,37.4348961 L28.0909809,38.9077402 C27.7477454,39.191863 27.655745,39.691069 27.8740229,40.0851749 L29.7737742,43.4731564 C29.9924014,43.8699038 30.4588865,44.0431631 30.8726945,43.8812703 L33.0258546,42.9881585 C33.4308119,43.290972 33.8644951,43.5507209 34.3202274,43.7634428 L34.6514678,46.1199932 C34.7097736,46.571532 35.0841806,46.9082049 35.5259769,46.9063639 L39.3353783,46.9063639 C39.7756606,46.910006 40.1505722,46.5771352 40.2123717,46.1276776 L40.5436122,43.7626023 C40.997714,43.5481994 41.4303879,43.2885306 41.8355005,42.987318 L43.9969291,43.8829913 C44.406467,44.0490465 44.8720204,43.8781085 45.0875809,43.4825618 L46.9956006,40.0758095 C47.2092203,39.6823841 47.1153177,39.1874604 46.7737126,38.9060192 Z M37.4321168,40.3490164 C35.2051832,40.3490164 33.3998587,38.5141349 33.3998587,36.2506558 C33.3998587,33.9871767 35.2051454,32.1522951 37.4321168,32.1522951 C39.6590882,32.1522951 41.4643749,33.9871767 41.4643749,36.2506558 C41.4616909,38.5130206 39.6579541,40.3463269 37.4321168,40.3490164 Z" transform="rotate(-19 37.432 36.66)"/>
  </g>
</svg>
